<?xml version="1.0" encoding="utf-8" ?><svg xmlns="http://www.w3.org/2000/svg" xmlns:xlink="http://www.w3.org/1999/xlink" width="994" height="485" viewBox="0 0 994 485"><clipPath id="sky-cloud-outline-cl_33"><rect width="994" height="485"/></clipPath><g clip-path="url(#sky-cloud-outline-cl_33)"><path fill="#191F27" transform="translate(0 -1501)" d="M454.785 1535.4C492.719 1530.63 534.841 1549.89 558.354 1579.37C574.459 1599.57 579.121 1617.4 586.01 1641.53C602.288 1629.76 618.592 1624.07 638.761 1622.76C663.78 1621.18 688.378 1629.76 706.981 1646.57C730.313 1667.32 738.676 1691.1 740.494 1721.36C782.769 1700.26 837.621 1722.41 851.622 1767.92C854.145 1776.13 854.602 1781.97 855.358 1790.63C879.564 1783.99 901.842 1782.38 922.592 1800.03C944.621 1818 948.848 1854.61 927.561 1874.93C901.393 1899.9 845.155 1897.07 811.455 1898.41C749.132 1900.89 686.678 1900.13 624.5 1900.25C531.992 1900.77 439.378 1896.54 346.788 1897.61C305.435 1896.78 264.407 1900.47 223.109 1901.48C172.915 1902.7 125.285 1871.68 127.212 1817.89C127.97 1796.06 137.507 1775.45 153.663 1760.75C174.763 1741.63 196.168 1738.42 223.326 1739.67C218.358 1715.16 217.085 1696.78 229.106 1673.7C239.83 1652.89 258.414 1637.22 280.735 1630.16C304.293 1622.95 325.537 1626.25 346.856 1637.76C348.584 1630.63 350.3 1623.51 352.253 1616.43C365.233 1569.38 406.022 1538.64 454.785 1535.4ZM633.5 1886.53C692.443 1887.16 751.392 1886.57 810.309 1884.73C838.441 1883.76 867.364 1883.28 895.018 1877.97C907.028 1875.44 917.009 1870.24 922.857 1858.88C939.387 1826.75 911.324 1797.09 878.511 1798.96C869.696 1799.47 849.369 1808.72 844.046 1805.83C841.024 1800.06 842.227 1788.89 841.093 1781.89C836.4 1752.94 813.821 1732.07 784.849 1727.9C766.675 1725.28 752.705 1731.69 736.135 1738.51C733.889 1738.73 730.505 1741.2 729.249 1738.21C725.613 1729.56 726.976 1718.64 725.673 1709.35C717.504 1651.17 655.058 1617.57 603.022 1646.92C596.525 1650.58 584.765 1658.38 577.927 1660.15C574.518 1657.39 572.527 1646.93 571.498 1642.23C558.798 1584.21 519.007 1546.38 456.446 1548.39C424.34 1553.27 399.812 1562.73 379.97 1589.82C374.594 1597.14 370.34 1605.22 367.349 1613.8C363.615 1624.42 360.522 1651.39 355.716 1654.69C350.794 1654.36 339.015 1648.41 333.545 1646.14C307.715 1635.42 280.125 1638.66 258.737 1657.31C243.811 1670.08 234.734 1688.38 233.601 1707.99C232.881 1721.16 242.978 1747.68 237.167 1753.22C230.311 1755.59 216.989 1751.81 209.413 1751.88C163.681 1752.26 128.066 1798.31 145.288 1842.53C168.726 1902.71 244.456 1885.96 293.386 1884.4C406.898 1880.79 520.106 1886.54 633.5 1886.53Z"/><path fill="#191F27" transform="translate(0 -1501)" d="M670.667 1225.41C675.692 1225.15 680.73 1225.49 685.679 1226.39C729.26 1234.3 757.543 1260 781.74 1295.18C816.049 1269.4 856.071 1252.56 883.988 1298.98C890.771 1301.9 912.414 1307.01 915.05 1313.37C915.225 1323.67 895.091 1331.28 890.319 1338.18C886.938 1343.06 884.529 1355.69 881.242 1362.78C864.682 1398.52 837.772 1417.19 800.902 1429.84C779.066 1462.33 755.641 1487.18 717.157 1500.64C707.019 1504.18 699.641 1504.79 690.288 1500.02C677.969 1486.89 687.804 1476.01 696.553 1464.3C690.547 1460.15 682.492 1455.78 684.381 1447C686.478 1437.24 705.519 1427.57 692.89 1416.48C689.382 1413.39 677.551 1409.34 672.475 1406.45C661.77 1400.34 653.665 1393.72 644.283 1385.87C620.713 1387.86 577.172 1402.09 555.451 1387.81C545.956 1381.56 555.898 1369.08 561.315 1363.08C550.925 1358.53 532.421 1349.56 544.781 1334.2C550.19 1327.47 562.123 1326.28 570.509 1326.03C568.298 1322.29 563.053 1313.21 563.223 1309.73C565.165 1269.82 634.703 1325.87 646.217 1328.15C661.514 1331.17 676.752 1329.49 688.668 1329.08C676.881 1316.96 673.645 1315.75 679.3 1299.25C665.621 1286.78 651.832 1279.02 670.458 1263.52C659.055 1250.64 644.248 1232.37 670.667 1225.41Z"/></g></svg>