<?xml version="1.0" encoding="utf-8" ?><svg xmlns="http://www.w3.org/2000/svg" xmlns:xlink="http://www.w3.org/1999/xlink" width="625" height="607" viewBox="0 0 625 607"><clipPath id="sky-sun-spark-cl_3f"><rect width="625" height="607"/></clipPath><g clip-path="url(#sky-sun-spark-cl_3f)"><path fill="#040202" transform="translate(0 -417)" d="M508.8 528.522C515.403 530.583 518.06 532.271 523.661 535.92C524.464 545.748 523.856 560.748 523.791 571L523.226 634.685C529.723 635.915 540.751 637.143 542.263 645.113C544.154 655.085 538.638 670.138 533.416 678.74C528.573 686.716 530.416 691.936 526.24 699.487C521.793 705.779 510.544 706.613 516.038 717.639C517.699 720.973 518.954 721.674 522.441 722.894C533.788 721.185 536.264 705.982 545.792 705.807C552.065 710.712 548.884 722.351 547.697 728.887C564.378 759.636 552.346 774.986 519.206 779.248C498.074 797.948 471.232 808.608 443.383 798.886C440.111 818.016 418.48 834.206 404.208 845.673C396.111 840.378 387.953 834.277 379.659 828.802C376.206 830.499 372.829 832.556 369.497 834.497C370.389 846.912 371.554 872.892 374.262 883.962C406.151 876.994 434.849 884.883 444.26 920.826C445.749 926.513 447.046 931.831 443.821 937.116C441.327 938.907 438.846 939.343 435.862 939.729C416.705 942.207 397.188 940.589 377.966 940.329C367.478 940.187 356.188 941.113 345.824 939.564C341.779 938.959 336.275 937.984 333.137 935.162C328.055 930.592 331.854 884.512 331.855 874.898C318.56 874.368 305.255 874.122 291.949 874.16C291.458 889.545 295.345 923.392 289.573 935.378C281.767 942.111 191.088 943.394 181.721 936.576C179.507 933.422 179.408 932.731 179.297 929.017C178.423 899.652 204.889 883.083 231.359 881.855C237.252 881.581 243.907 881.905 250.038 882.064C251.636 873.341 255.524 841.74 253.965 834.297C251.634 830.851 248.951 830.004 245.128 828.061C235.768 834.83 230.412 838.813 220.157 844.2C211.227 839.752 207.115 836.404 199.958 829.694C194.265 823.664 183.371 813.534 181.22 806.06C182.857 796.245 193.591 785.657 195.199 778.754C191.885 778.742 189.212 781.825 186.878 784.009C175.76 794.416 173.182 807.13 170.186 821.459C180.443 828.608 182.057 829.693 188.998 840.028C188.83 849.957 185.166 850.243 176.947 853.318L175.779 856.306C172.442 864.734 168.321 874.384 159.154 877.712C132.288 887.464 112.421 857.457 125.802 834.478C130.43 826.442 131.405 815.392 133.222 806.19C138.757 778.169 149.677 762.569 173.377 746.933C165.527 745.373 153.736 745.054 152.217 735.144C150.645 727.36 151.119 719.408 151.075 711.549C150.915 682.898 156.3 683.026 182.686 680.145C187.173 669.5 191.477 658.462 197.195 648.455C193.344 643.092 184.713 631.589 183.788 625.866C181.488 611.629 208.295 588.726 220.864 585.951C227.409 584.506 240.474 595.452 245.708 599.306C258.612 592.516 263.134 590.492 277.223 587.1C278.138 579.036 280.637 556.346 289.924 554.655C303.117 552.253 324.803 551.406 337.273 556.848C343.277 559.469 345.272 579.561 346.341 586.015C358.679 589.995 367.035 593.975 378.473 599.614C393.967 588.25 400.419 579.976 417.757 593.133C440.608 577.703 461.518 559.576 484.825 544.795C492.98 539.622 500.978 534.185 508.8 528.522ZM432.973 660.08C434.732 665.522 437.153 673.813 439.237 678.887C448.311 680.802 465.447 682.086 469.742 689.356C476.012 699.968 473.601 726.523 470.93 738.339C463.397 744.583 458.296 746.498 448.742 748.458C444.531 749.577 444.068 748.993 441.349 751.586C441.807 766.803 482.607 767.247 487.494 751.347C492.503 735.051 486.465 719.805 489.705 704.363C491.201 697.944 507.286 689.449 505.649 682.216C500.845 660.99 482.379 638.598 516.341 635.105C516.096 627.195 516.05 570.951 514.018 568.084L513.179 567.709C487.442 593.635 458.04 631.691 432.973 660.08Z"/><path fill="#FBB148" transform="translate(0 -417)" d="M289.818 561.067C304.513 560.943 319.208 560.973 333.902 561.157C335.944 571.481 338.257 581.75 340.836 591.953C356.232 596.652 363.978 600.449 378.203 607.556C386.855 602.624 395.624 596.646 403.997 591.166C415.592 600.442 426.054 611.052 435.165 622.777C430.799 631.286 424.273 640.062 419.238 649.78C435.636 682.626 424.455 684.143 464.809 691.676C465.711 703.31 467.844 723.359 463.76 734.239C460.08 742.966 449.21 736.886 442.663 739.417C430.296 744.197 424.584 768.015 418.847 780.108L435.437 805.843C424.567 818.426 416.395 826.586 403.823 837.379C395.456 831.776 387.129 826.112 378.843 820.387C365.76 827.199 354.362 831.563 340.701 836.618L334.019 866.998C323.461 869.206 301.018 867.969 289.583 867.36C286.947 857.186 285.331 847.232 283.52 836.901C270.799 831.175 258.332 826.543 245.392 820.482C236.817 825.948 228.32 831.533 219.902 837.236C209.549 830.116 196.832 815.378 188.501 805.681C193.364 797.301 199.767 788.009 205.138 779.808C198.844 767.372 194.827 756.531 190.161 743.572C180.276 740.712 169.274 738.576 159.15 736.389C157.688 720.707 158.122 707.227 159.927 691.625C199.459 683.508 187.641 683.221 204.993 648.986C183.059 615.006 189.514 616.478 219.625 591.204C226.578 594.613 238.444 603.072 246.138 607.578C259.692 600.316 268.805 596.809 283.085 591.728C285.66 582.21 287.767 570.829 289.818 561.067Z"/><path fill="#040202" transform="translate(0 -417)" d="M300.331 646.519C337.527 640.051 372.958 664.858 379.603 702.024C386.249 739.189 361.61 774.737 324.476 781.559C287.092 788.427 251.252 763.585 244.562 726.169C237.872 688.753 262.883 653.031 300.331 646.519Z"/><path fill="#FBB148" transform="translate(0 -417)" d="M304.332 653.458C337.664 649.254 368.144 672.731 372.586 706.032C377.028 739.333 353.767 769.98 320.499 774.659C286.894 779.385 255.869 755.838 251.382 722.2C246.895 688.562 270.663 657.705 304.332 653.458Z"/><path fill="#040202" transform="translate(0 -417)" d="M322.357 718.55C332.568 727.147 315.916 740.936 299.843 728.498C298.994 724.635 299.137 724.587 299.487 720.819C303.735 719.324 304.667 727.677 315.258 726.522C318.915 724.797 320.061 722.095 322.357 718.55Z"/><path fill="#040202" transform="translate(0 -417)" d="M280.027 701.553C282.142 700.48 284.672 700.644 286.631 701.979C288.589 703.315 289.665 705.612 289.438 707.971C289.21 710.331 287.716 712.38 285.539 713.318C282.315 714.706 278.572 713.284 277.083 710.106C275.594 706.927 276.897 703.141 280.027 701.553Z"/><path fill="#040202" transform="translate(0 -417)" d="M338.131 701.549C341.134 699.899 344.905 700.948 346.625 703.911C348.345 706.874 347.386 710.669 344.465 712.459C342.512 713.655 340.065 713.699 338.07 712.575C336.076 711.451 334.847 709.334 334.859 707.044C334.872 704.755 336.124 702.652 338.131 701.549Z"/><path fill="#FBB148" transform="translate(0 -417)" d="M360.684 837.052C365.187 843.623 364.082 877.909 368.171 893.189C385.468 891.418 401.429 884.06 419.455 895.561C432.668 903.991 436.476 918.672 439.563 932.89C434.198 932.987 428.621 933.424 423.249 933.754C395.117 934.696 366.319 933.509 338.119 932.97C337.148 896.464 338.795 876.913 347.423 841.943L360.684 837.052Z"/><path fill="#FBB148" transform="translate(0 -417)" d="M262.287 837.247L276.458 842.021C285.754 881.875 285.361 892.168 285.907 933.032C258.671 933.508 232.18 934.155 204.917 933.962C200.306 934.012 188.836 934.812 186.387 930.52C180.27 919.659 197.901 902.317 205.518 895.946C220.145 883.711 238.702 890.638 256.164 893.159C259.206 876.799 260.748 854.184 262.287 837.247Z"/><path fill="#FBB148" transform="translate(0 -417)" d="M181.604 751.876C186.62 752.381 190.41 766.39 191.912 770.605C168.501 785.573 165.513 801.045 164.897 826.808C171.15 830.085 182.798 834.72 179.55 843.088C176.534 846.041 172.853 846.479 168.634 847.618C165.527 860.791 168.805 863.546 156.493 872.019C126.98 877.9 122.836 849.624 137.583 829.109C138.652 792.948 149.864 769.642 181.604 751.876Z"/><path fill="#FBB148" transform="translate(0 -417)" d="M542.124 736.745L543.463 737.24C551.839 746.243 551.081 753.737 542.386 763.181C535.361 770.812 528.004 771.861 518.108 772.203C492.606 791.186 458.088 808.279 429.734 783.779C425.98 778.077 432.562 767.961 435.311 762.054C460.419 775.935 475.955 774.402 496.807 754.82C495.52 750.372 493.846 746.22 495.311 741.921C504.621 735.197 518.555 757.151 542.124 736.745Z"/><path fill="#75B7F6" transform="translate(0 -417)" d="M447.832 580.827L449.178 581.451C451.297 587.737 451.807 618.262 452.088 627.048C448.219 631.944 435.849 648.482 429.82 649.529L429.28 647.776L431.554 643.523C446.728 620.153 442.723 616.699 423.305 598.698L447.832 580.827Z"/><path fill="#75B7F6" transform="translate(0 -417)" d="M517.077 679.208L520.141 680.843C528.362 697.705 507.746 698.764 505.367 715.272C504.881 718.033 505.28 721.517 507.546 723.469C523.319 737.05 533.523 724.469 543.964 714.026C542.943 718.356 541.717 722.551 540.507 726.83C528.856 744.083 509.456 742.701 498.496 725.316C488.526 709.503 505.284 697.946 514.445 687.731C515.397 686.669 516.456 682.019 516.8 680.494L517.077 679.208Z"/><path fill="#75B7F6" transform="translate(0 -417)" d="M504.103 644.35C514.915 644.155 525.73 644.154 536.542 644.348L530.513 670.776L529.973 671.783C525.538 675.352 514.904 674.093 508.905 673.949C506.422 663.949 503.599 654.649 504.103 644.35Z"/><path fill="#75B7F6" transform="translate(0 -417)" d="M457.367 578.364C467.434 581.393 476.785 583.721 486.971 586.227L472.157 603.702L459.095 618.914C457.807 606.531 457.705 591.016 457.367 578.364Z"/><path fill="#75B7F6" transform="translate(0 -417)" d="M508.066 536.852C513.28 537.044 515.574 537.059 517.943 542.033C517.963 551.213 505.958 562.874 499.714 569.997C498.539 571.459 497.749 572.229 496.441 573.572L495.391 572.783C494.013 567.891 494.762 553.611 494.828 547.838C499 544.139 503.728 540.41 508.066 536.852Z"/><path fill="#75B7F6" transform="translate(0 -417)" d="M485.387 553.847C486.293 553.983 485.683 553.814 486.905 554.988C487.897 562.856 487.834 571.912 487.985 579.928L471.789 575.207C468.078 574.226 464.572 572.951 460.949 571.701C468.554 565.352 477.235 559.547 485.387 553.847Z"/><path fill="#040202" transform="translate(0 -417)" d="M161.79 521.278C203.32 522.936 226.06 573.241 185.89 585.336C150.792 584.23 118.866 535.467 161.79 521.278Z"/><path fill="#FBB148" transform="translate(0 -417)" d="M162.07 527.785C177.98 530.545 214.35 550.847 195.052 568.371C179.682 565.927 142.538 545.326 162.07 527.785Z"/><path fill="#FBB148" transform="translate(0 -417)" d="M147.881 541.646C151.47 544.431 157.859 557.63 163.957 562.848C171.408 569.224 185.195 572.379 190.336 577.658C170.802 582.479 147.571 562.059 147.881 541.646Z"/><path fill="#040202" transform="translate(0 -417)" d="M137.739 589.461C141.869 592.993 142.632 601.76 147.055 605.498C150.633 608.523 156.194 606.99 159.196 611.462C155.858 618.091 147.098 613.889 140.152 632.994L139.328 632.976C136.571 631.213 134.531 624.593 133.053 621.057C129.606 618.321 122.346 614.633 118.236 612.379C130.323 604.066 132.352 602.918 137.739 589.461Z"/><path fill="#FDF4E7" fill-opacity="0.035294119" transform="translate(0 -417)" d="M170.186 821.459C173.182 807.13 175.76 794.416 186.878 784.009C189.212 781.825 191.885 778.742 195.199 778.754C193.591 785.657 182.857 796.245 181.22 806.06C183.371 813.534 194.265 823.664 199.958 829.694C196.417 829.347 193.821 828.666 190.644 830.088C188.582 833.179 189.263 836.26 188.998 840.028C182.057 829.693 180.443 828.608 170.186 821.459Z"/></g></svg>