<?xml version="1.0" encoding="utf-8" ?><svg xmlns="http://www.w3.org/2000/svg" xmlns:xlink="http://www.w3.org/1999/xlink" width="692" height="617" viewBox="0 0 692 617"><clipPath id="cl_11"><rect width="692" height="617"/></clipPath><g clip-path="url(#cl_11)"><path fill="#0C0B19" transform="translate(-700 -707)" d="M1173.6 834.296C1185.49 833.406 1191.43 833.328 1200.75 841.669C1205 853.074 1204.09 859.997 1204.17 871.976C1228.94 871.071 1241.78 873.764 1243.55 902.43C1248.05 975.598 1251.02 1048.95 1246.26 1122.23C1244.98 1141.88 1250.33 1183.56 1226.73 1191.86C1214.32 1195.43 1193.44 1194.84 1179.94 1195.02C1155.94 1195.32 1131.94 1195.48 1107.93 1195.51C1094.84 1195.49 1082.56 1194.73 1069.45 1195.36C1037.82 1220.62 1011.79 1218.52 979.579 1195.46C968.173 1194.67 946.443 1195.58 934.232 1195.58C903.902 1195.6 873.572 1195.28 843.25 1194.59C817.644 1194.33 806.155 1190.59 804.125 1162.64C799.182 1088.01 798.576 1013.16 802.31 938.462C803.2 922.171 803.357 903.851 807.259 888.16C811.003 873.11 830.544 871.628 842.863 870.817C843.635 855.106 842.347 847.932 854.119 837.023C869.484 832.925 882.406 836.728 897.58 839.021C935.528 844.757 972.716 855.669 1004.8 877.331C1011.97 882.17 1018.09 887.362 1025.02 892.395C1061.71 854.589 1124.38 844.043 1173.6 834.296Z"/><path fill="#FDB748" transform="translate(-700 -707)" d="M1177.15 849.376C1193.4 847.713 1189.9 855.012 1190.62 867.579C1194.95 943.22 1195.94 1018.79 1191.48 1094.46C1191.14 1100.26 1190.05 1112.52 1182.85 1113.61C1134.43 1120.93 1087.79 1127.5 1044.53 1152.55L1031.47 1160.95L1031.46 905.172C1067 869.56 1128.53 855.665 1177.15 849.376Z"/><path fill="#FDB748" transform="translate(-700 -707)" d="M860.653 848.81C861.247 848.793 863.574 848.707 864.037 848.755C912.625 853.746 981.986 868.581 1016.01 904.688C1017.77 954.631 1016.79 1007.83 1016.8 1058.09L1016.81 1124.59C1016.81 1129.71 1017.95 1157.23 1015.54 1159.87L1013.41 1159C994.407 1146.17 973.526 1136.37 951.515 1129.94C934.309 1124.79 916.327 1121.93 898.721 1118.72C889.984 1117.13 866.476 1115.61 860.702 1110.96C852.652 1093.26 852.392 871.55 860.653 848.81Z"/><path fill="#A58BD9" transform="translate(-700 -707)" d="M836.907 886.356C838.176 886.268 840.075 886.334 841.404 886.335C843.053 888.348 840.76 924.793 840.522 931.311C839.071 975.38 839.2 1019.49 840.907 1063.55C841.516 1078.24 841.851 1092.61 843.556 1107.27C845.759 1131.03 871.009 1129.59 889.155 1132.1C926.898 1137.32 964.767 1145.58 997.452 1166.25C1023.78 1182.9 1025.88 1181.36 1052.39 1165.18C1082.31 1146.92 1118.81 1138.19 1153.23 1132.98C1196.45 1127.41 1207.18 1129.42 1207.14 1080.5C1207.14 1073.94 1207.91 1062.77 1208.18 1055.4C1210.27 998.96 1209.58 942.454 1206.13 886.083C1235.95 887.502 1229.11 902.161 1230.68 927.753C1234.81 997.028 1236.39 1064.23 1231.59 1133.56C1228.23 1182.22 1235.58 1180.63 1183.24 1181.09C1159.49 1181.35 1135.73 1181.43 1111.97 1181.35C1098.37 1181.26 1083.27 1179.81 1069.84 1181.76C1057.1 1183.62 1047.85 1195.43 1034.81 1198.44C1003.66 1205.61 998.874 1184.59 978.155 1181.84C951.188 1178.27 838.422 1186.75 823.781 1176.55C820.157 1174.02 819.466 1169.3 818.856 1165.24C816.178 1147.43 816.643 1127.98 815.863 1109.95C813.229 1049.11 813.208 988.883 817.668 928.102C818.427 917.756 816.355 899.685 823.104 891.316C826.728 886.821 831.615 886.794 836.907 886.356Z"/></g></svg>