<?xml version="1.0" encoding="utf-8" ?><svg xmlns="http://www.w3.org/2000/svg" xmlns:xlink="http://www.w3.org/1999/xlink" width="707" height="617" viewBox="0 0 707 617"><clipPath id="cl_10"><rect width="707" height="617"/></clipPath><g clip-path="url(#cl_10)"><path fill="#0C0B19" transform="translate(-1341 -707)" d="M1646.08 810.303C1686.18 807.307 1685.44 840.508 1688.05 869.524C1705.3 869.191 1795.58 867.768 1805.35 870.856C1813.69 873.49 1821.57 881.617 1827.95 887.394C1835.03 893.791 1855.72 909.569 1855.73 919.581C1855.73 927.862 1846.36 934.888 1840.98 940.263C1831.52 949.729 1820.16 963.533 1808.13 969.479C1796.71 975.123 1709.64 972.643 1690.98 972.639L1691.37 997.123C1715.98 996.922 1740.59 997.004 1765.2 997.369C1777.88 997.515 1793.2 996.134 1805.55 999.285C1810.89 1000.65 1815.23 1004.11 1819.31 1007.67C1828.43 1015.6 1855.64 1037 1856.01 1048.53C1856.17 1053.58 1853.18 1057.89 1849.78 1061.34C1845 1066.19 1839.15 1069.85 1834.05 1074.34C1825.92 1081.5 1817.73 1093.21 1807.79 1097.57C1794.08 1103.58 1714.9 1100.3 1693.16 1100.54C1690.66 1103.08 1691.59 1101.53 1691.1 1105.75C1689.84 1132.75 1689.91 1159.81 1689.18 1186.83C1688.87 1198.36 1689.26 1210.65 1687.61 1222.04C1687.11 1225.45 1686.42 1228.78 1683.97 1231.37C1677.97 1237.7 1662.56 1237.41 1654.41 1237.68C1645.38 1237.98 1624.28 1238.67 1617.92 1231.31C1606.63 1218.26 1612.13 1012.88 1611.55 979.056C1592.1 979.457 1503.99 982.399 1492.25 976.174C1480.57 969.977 1464.08 950.769 1453.93 941.019C1450.14 937.377 1446.62 932.831 1446.72 927.303C1446.81 922.469 1449.78 918.122 1453.13 914.869C1462.27 905.994 1482.12 884.617 1492.94 879.746C1506 873.863 1592.21 876.392 1613.67 876.484C1614.31 846.639 1611.01 819.998 1646.08 810.303Z"/><path fill="#FC7F60" transform="translate(-1341 -707)" d="M1647.35 824.18C1658.96 824.142 1668.75 828.092 1670.78 840.797C1673.93 860.556 1673.68 881.37 1674.11 901.39L1675.99 998.894C1664.14 999.363 1651.5 997.315 1649.96 1012.71C1647.52 1037.2 1643.66 1071.45 1652.76 1094.95C1654.33 1099.01 1671.49 1099.47 1676.2 1099.81C1676.22 1140.75 1675.5 1181.68 1674.06 1222.59L1658.91 1223.88C1647.43 1224.12 1639.36 1223.72 1628.04 1222.76C1622.87 1146.34 1624.85 1055.03 1626.05 978.247C1634.73 978.114 1648.72 979.721 1650.81 969.085C1654.37 950.952 1656.41 896.742 1647.85 881.877C1641.92 877.042 1636 877.956 1628.17 877.784C1628.51 858.608 1625.21 831.049 1647.35 824.18Z"/><path fill="#74BBF8" transform="translate(-1341 -707)" d="M1526.5 890.458C1563.43 889.189 1600.09 890.901 1636.96 892.117C1639.59 915.929 1639.85 939.944 1637.72 963.806C1617.18 964.67 1596.63 965.391 1576.07 965.97C1549.77 966.277 1525.49 966.529 1499.22 964.655C1488.08 955.269 1470.2 938.244 1460.01 927.764C1471.54 916.141 1486.62 902.924 1498.83 891.801C1506.89 890.79 1518.16 890.736 1526.5 890.458Z"/><path fill="#FDB748" transform="translate(-1341 -707)" d="M1663.95 1019.7C1664.26 1015.87 1663.57 1016.29 1665.7 1014.18C1688.15 1010.65 1732.54 1012.14 1756.22 1011.73C1766.24 1011.56 1793.72 1011.8 1802.7 1012.59C1810.49 1019.53 1835.78 1041.63 1841.65 1048.57C1835.46 1054.73 1808.27 1081.92 1802.81 1083.85C1792.42 1087.54 1753.56 1087.19 1741.53 1087.05C1717.45 1086.77 1687.86 1086.09 1663.97 1083.98C1660.97 1071.22 1661.55 1032.9 1663.95 1019.7Z"/><path fill="#74BBF8" transform="translate(-1341 -707)" d="M1724.55 883.47C1750.17 883.064 1775.8 883.322 1801.4 884.244C1809.52 889.254 1834.73 912.796 1841.65 920.102C1830.01 932.241 1815.72 945.217 1803.4 956.91C1795.14 958.29 1779.91 958.318 1771.39 958.6C1744.25 959.5 1716.92 958.692 1689.77 957.924L1688.17 884.272L1724.55 883.47Z"/></g></svg>