<?xml version="1.0" encoding="utf-8" ?><svg xmlns="http://www.w3.org/2000/svg" xmlns:xlink="http://www.w3.org/1999/xlink" width="690" height="839" viewBox="0 0 690 839"><clipPath id="mascot-balancing-beam-cl_f"><rect width="690" height="839"/></clipPath><g clip-path="url(#mascot-balancing-beam-cl_f)"><path fill="#09262C" transform="translate(-718 0)" d="M1188.86 140.2C1193.57 139.81 1194.12 139.585 1198.53 140.845C1206.29 146.801 1201.11 156.856 1200.94 164.976C1199.95 213.802 1185.38 244.05 1134.38 255.127C1148.44 273.203 1157.22 285.727 1167.54 306.641C1184.17 305.961 1201.27 302.571 1218.14 301.957C1251.68 300.736 1288.67 301.886 1315.19 325.399C1333.08 341.249 1338.06 371.145 1320.58 389.173C1287.12 419.987 1236.85 397.487 1196.13 398.183C1194.29 437.415 1188.14 458.407 1163.72 489.366C1167.99 494.346 1172.22 499.666 1176.38 504.763C1260.71 473.172 1230.01 560.286 1179.33 566.523C1162.33 568.616 1133.14 536.143 1120.2 523.393C1101.48 530.968 1091.94 533.874 1072.01 537.873C1073.29 561.733 1075.09 572.641 1068.24 595.633C1091.26 596.292 1116.95 595.341 1140.09 594.904C1169.1 594.419 1198.1 594.103 1227.11 593.957C1245.13 593.827 1285.81 590.792 1302.88 599.034C1307.6 603.029 1309.82 614.531 1309.76 619.492C1309.19 666.037 1315.53 676.8 1263.8 675.951C1268.21 688.65 1282.12 720.35 1279.36 731.322C1270.03 740.517 1195.19 739.111 1183.55 733.818C1175.98 725.974 1178.11 688.192 1178.26 676.334C1103.44 675.352 1028.61 675.816 953.803 677.725C953.891 692.698 954.115 709.785 952.932 724.552C952.097 728.617 950.801 734.551 945.97 735.853C927.429 740.849 907.979 740.035 888.707 740.092C880.078 740.118 857.174 740.36 852.521 730.766C848.933 719.767 865.274 685.887 869.961 676.365C824.628 676.677 818.25 679.407 819.434 633.567C820.358 597.791 826.62 596.327 861.935 597.224C872.523 597.493 883.417 598.037 893.445 598.127C924.956 598.115 956.466 597.902 987.975 597.486C987.511 572.31 998.226 564.855 1021.14 559.145C1019.35 550.973 1018.59 545.332 1017.62 536.978C965.498 523.096 931.595 492.75 921.11 438.684C897.207 449.805 872.053 464.182 846.029 468.462C796.175 476.775 766.595 427.175 800.897 388.916C827.703 359.019 890.027 342.452 929.447 339.685C937.055 324.177 939.485 311.195 949.352 295.267C894.771 300.652 867.933 278.856 851.551 226.913C844.842 205.638 843.431 201.656 867.596 199.419C904.26 196.025 943.47 200.42 964.628 234.645C966.301 237.351 968.544 245.576 970.375 249.381L971.505 249.364C980.842 241.777 1002.51 195.36 1003.6 181.264C1004.25 172.828 1005.49 154.183 1008.93 147.564C1013.82 143.683 1018.99 145.605 1023.04 149.482C1049.67 174.976 1076.71 199.528 1104.7 223.577C1105.75 165.773 1137.78 150.562 1188.86 140.2Z"/><path fill="#41B685" transform="translate(-718 0)" d="M1021.89 172.499C1028.56 177.221 1040.07 189.481 1047.08 195.542C1079.73 223.754 1110.83 250.117 1135.79 285.812C1144.15 297.765 1149.56 310.58 1157.63 322.102L1158.49 323.313C1201.36 323.864 1243.7 306.717 1286.96 326.784C1297.27 331.566 1309.2 338.757 1313.2 349.918C1318.49 364.705 1313.17 380.292 1298.02 385.824C1260.54 401.646 1222.49 373.172 1184.8 383.935C1175.93 386.466 1179.31 422.825 1176.04 430.509C1172.46 444.058 1165.8 457.827 1158.09 469.455C1144.63 490.332 1140.59 489.695 1157.92 508.01C1171.33 524.419 1173.5 528.643 1193.63 515.652C1205.1 508.246 1217.81 514.333 1210.18 527.367C1203 539.634 1188.77 547.955 1175.41 551.675C1157.72 540.067 1144.99 519.893 1120.43 504.728C1103.76 513.38 1094.85 516.414 1076.84 520.718C1070.82 521.757 1063.35 522.641 1059.31 527.602C1047.25 542.379 1066.9 571.969 1052.89 586.012C1044.15 594.768 1014.76 599.397 1004.36 591.296C1003.16 590.361 1003.58 589.126 1003.58 587.719C1009 577.303 1026.05 573.062 1037 569.292C1037.91 554.743 1035.81 538.196 1030.3 524.657C1017.1 518.551 1005.35 518.798 989.614 509.821C957.581 491.543 946.31 468.191 936.451 434.396C944.412 431.127 950.208 429.48 949.883 419.706C935.247 397.46 800.813 507.919 803.253 417.925C803.691 401.742 826.089 387.265 838.281 380.202C870.336 361.634 910.919 362.541 943.722 352.201L945.052 351.772C950.332 342.152 953.377 324.78 959.362 312.558C976.395 277.774 999.144 245.821 1012.61 209.502C1017.01 197.637 1019.45 184.909 1021.89 172.499Z"/><path fill="#09262C" transform="translate(-718 0)" d="M1083.33 312.125C1087.66 313.279 1091.15 314.535 1092.94 319.202C1098.71 334.192 1087.53 353.144 1073.55 359.266C1061.38 364.598 1051.15 361.879 1039.54 357.278C1030.84 351.059 1018.24 338.229 1023.45 326.076C1028.21 314.973 1050.6 319.607 1060.28 317.866C1067.9 316.495 1075.72 314.185 1083.33 312.125Z"/><path fill="#EF7B5D" transform="translate(-718 0)" d="M1078.9 327.266L1079.97 328.111C1081.91 337.262 1074.52 344.755 1066.43 347.804C1058.21 350.9 1051.69 348.314 1044.24 344.748C1039.24 339.88 1038.31 338.104 1034.67 332.217C1053.65 332.038 1060.28 331.685 1078.9 327.266Z"/><path fill="#09262C" transform="translate(-718 0)" d="M1020.38 279.015C1027.03 279.369 1033.22 280.926 1038.04 285.739C1042.34 290.04 1047.83 299.079 1041.09 303.532C1032.85 303.746 1030.58 295.953 1022.64 291.824C1015.92 297.919 1014.38 305.852 1006.64 308.758C1000.28 306.969 1002.13 299.175 1003.87 294.269C1006.91 285.696 1012.51 282.619 1020.38 279.015Z"/><path fill="#09262C" transform="translate(-718 0)" d="M1085.8 270.07C1092.69 270.934 1098.7 272.208 1103.49 277.531C1107.72 282.233 1111.81 290.228 1105.28 294.632C1098.6 294.979 1093.7 286.632 1087.59 282.199C1081.51 286.819 1079.95 295.859 1072.03 299.297C1069.94 298.664 1069.63 299.006 1068.77 296.669C1063.25 281.754 1074.47 274.794 1085.8 270.07Z"/><path fill="#EF7B5D" transform="translate(-718 0)" d="M1171.32 611.534C1195.78 610.592 1271.31 609.317 1291.68 613.484C1294.37 626.281 1292.85 644.936 1291.86 658.168L953.603 661C914.732 660.212 875.85 660.158 836.977 660.838C835.982 644.314 835.945 629.525 836.063 612.994L1171.32 611.534Z"/><path fill="#41B685" transform="translate(-718 0)" d="M864.203 215.036C913.583 214.356 941.831 210.346 957.234 265.945C948.678 259.077 909.558 230.774 898.988 238.222C897.931 241.803 898.26 240.67 899.817 244.956C920.797 254.493 934.802 262.462 952.278 277.324C899.282 287.405 876.151 264.644 864.203 215.036Z"/><path fill="#41B685" transform="translate(-718 0)" d="M1184.88 156.294C1189.45 163.356 1181.8 204.244 1175.15 213.346C1162.67 230.415 1151.22 234.251 1132.38 239.012C1136.8 230.109 1139.69 225.622 1145.36 217.708C1150.91 209.948 1161.41 198.264 1164.99 190.129C1164.31 186.387 1164.21 187.309 1161.03 184.008C1143.67 193.415 1130.14 217.319 1121.14 234.162C1119.4 182.332 1135.64 167.984 1184.88 156.294Z"/><path fill="#EF7B5D" transform="translate(-718 0)" d="M886.977 676.932C903.757 676.785 921.195 677.545 938.023 678.06C938.128 693.019 937.905 707.978 937.355 722.926L919.75 723.023L869.085 723.071C874.765 707.028 880.488 692.699 886.977 676.932Z"/><path fill="#EF7B5D" transform="translate(-718 0)" d="M1194.31 676.069L1243.43 676C1250.98 691.243 1256.12 705.181 1261.84 721.124C1239.57 720.905 1217.3 720.841 1195.04 720.933L1194.31 676.069Z"/></g></svg>