<?xml version="1.0" encoding="utf-8" ?><svg xmlns="http://www.w3.org/2000/svg" xmlns:xlink="http://www.w3.org/1999/xlink" width="632" height="682" viewBox="0 0 632 682"><clipPath id="mascot-calm-cl_10"><rect width="632" height="682"/></clipPath><g clip-path="url(#mascot-calm-cl_10)"><path fill="#062025" transform="translate(-86 -66)" d="M807.736 883.99C829.771 853.502 849.196 815.707 859.703 779.591C862.188 770.361 860.934 750.472 866.232 742.726C877.782 725.842 900.445 766.945 907.992 774.591C930.397 797.286 954.029 816.74 978.812 836.69C981.676 811.367 987.332 789.48 1008.43 772.852C1019.76 764.208 1033.32 755.348 1046.18 749.2C1080.14 733.285 1069.96 747.923 1073.94 766.798C1086.27 825.303 1072.03 852.877 1019.5 878.566C1030.38 892.378 1041.75 911.28 1049.66 926.911C1094.14 892.888 1143.93 877.662 1199.98 882.245C1231.31 884.805 1279.34 897.91 1300.42 922.618C1305.62 927.72 1310.91 931.44 1315.66 936.786C1317.14 937.672 1316.83 937.243 1318.36 937.721C1335.59 943.095 1353.61 972.062 1361.74 986.558C1389.03 1035.5 1395.77 1093.28 1380.47 1147.19C1365.12 1201.14 1327.85 1244.69 1279.02 1271.62C1231.78 1297.72 1176.08 1303.92 1124.26 1288.83C1069.03 1272.8 1026.23 1238.62 998.723 1188.45C997.066 1199.7 995.536 1210.96 994.132 1222.24C1008.82 1227.47 1040.85 1242.38 1034.78 1262.55C1025.92 1291.97 981.697 1288.01 958.263 1282.04C930.347 1298.62 897.164 1300.41 866.849 1286.35C848.318 1277.76 857.809 1244.33 857.211 1228.55C856.769 1216.87 855.2 1206.95 852.766 1194.98C844.217 1190.88 833.285 1187.39 824.93 1183.03C793.358 1166.55 766.312 1135.31 755.564 1101.36C735.962 1039.45 754.371 983.921 781.784 928.988C741.379 932.441 707.38 923.283 686.423 886.068C681.947 878.12 678.773 869.44 674.408 861.451C670.194 853.738 654.559 845.187 656.663 835.175C660.412 829.57 664.161 827.747 670.419 825.332C710.907 809.71 761.667 811.171 789.924 848.456C798.573 859.867 802.741 870.666 807.736 883.99ZM928.721 1234.3C936.59 1229.98 935.87 1209.4 932.49 1202.49C931.727 1202.07 929.928 1201.03 929.194 1200.72C927.73 1201.21 925.054 1201.56 924.485 1203.11C921.885 1210.17 921.403 1217.44 922.151 1224.97C922.843 1231.92 922.839 1231.22 928.721 1234.3Z"/><path fill="#062025" transform="translate(-86 -66)" d="M388.783 156.778C395.275 156.724 399.162 157.313 403.276 162.708C415.609 178.884 430.085 203.943 445.732 216.791C454.607 224.08 493.645 262.687 501.278 264.251C502.546 262.409 506.751 240.137 508.017 235.883C518.974 198.391 549.773 181.897 580.325 162.602C587.752 157.911 593.436 157.603 598.616 166.602C601.645 171.864 599.98 181.664 601.627 187.076C609.069 211.528 612.15 238.325 602.578 262.667C591.682 291.1 571.776 302.052 545.078 313.607C569.968 348.065 594.532 390.053 596.148 433.22C597.583 471.511 596.175 503.663 631.384 529.32C646.558 527.34 663.035 524.755 673.526 539.177C679.873 547.901 673.394 561.176 674.248 562.703C684.248 580.59 684.216 596.294 664.351 607.13C647.861 615.857 632.937 614.349 614.874 608.25C611.592 620.324 607.32 632.106 598.481 641.223C573.829 666.648 516.751 672.787 482.777 673.811C473.221 710.385 451.455 733.477 416.204 704.376L409.199 712.235C377.437 733.521 360.179 702.739 353.397 675.313C320.012 675.07 271.42 671.916 243.314 652.638C228.212 642.28 223.282 629.551 220.339 612.472C216.441 613.686 212.828 614.615 208.902 615.64C181.771 622.725 137.93 601.025 161.418 569.199C154.244 537.299 173.086 526.832 202.298 534.516C244.996 507.751 236.155 456.545 251.287 413.312C262.22 382.076 274.559 364.853 287.026 337.477L287.574 336.253C233.823 336.132 204.552 322.125 180.544 270.821C179.074 267.682 171.422 248.221 170.657 247.271C157.912 231.425 150.777 221.924 174.846 212.513C205.675 200.754 242.81 199.191 272.086 217.742C300.86 235.976 309.213 259.585 316.348 291.247C332.941 274.585 356.15 237.336 366.862 215.878C370.715 207.922 373.186 199.375 375.583 190.941C379.353 177.679 377.312 166.122 388.783 156.778Z"/><path fill="#3EB682" transform="translate(-86 -66)" d="M397.925 201.755C409.696 211.205 421.117 228.074 432.44 238.15C487.077 286.771 545.031 332.89 567.393 405.903C580.026 447.153 576.915 491.735 553.507 528.802C546.437 539.997 536.671 548.173 530.585 559.637C533.832 570.57 580.014 571.547 588.48 591.921C608.376 639.805 537.025 648.97 506.024 650.51C496.728 650.971 473.571 651.133 467.351 655.419C456.501 662.896 461.465 702.344 438.125 694.944C422.299 688.74 425.58 641.036 431.859 629.101L432.989 628.539C451.702 619.111 516.366 611.475 522.557 593.249C519.928 579.903 503.706 585.779 495.47 589.244C476.078 597.403 455.785 601.236 435.224 605.035C427.497 606.41 422.27 611.423 417.065 616.716C399.243 601.382 366.109 600.843 344.062 593.543C336.762 591.126 323.32 589.374 316.469 593.286C314.535 596.32 315.07 594.673 315.072 598.477C323.557 616.363 383.294 619.32 403.397 630.306C408.613 643.387 407.131 664.195 405.521 677.823C404.491 686.548 402.019 696.214 391.831 696.384C369.165 696.763 379.915 666.028 365.007 657.187C355.834 651.748 338.893 654.969 328.51 653.704C310.828 652.833 296.935 650.254 279.57 646.192C254.38 640.3 230.818 621.02 247.56 593.503C252.669 585.108 262.962 580.438 272.146 577.133C282.317 573.474 297.708 573.466 305.878 565.804C309.441 556.224 296.944 553.256 290.194 551.317C283.295 544.753 277.763 535.111 273.546 526.556C239.833 455.848 292.902 370.998 331.768 312.999C358.274 273.444 381.499 248.014 397.925 201.755Z"/><path fill="#062025" transform="translate(-86 -66)" d="M463.476 419.87C468.537 420.224 469.54 420.201 472.315 424.568C473.832 437.952 456.279 447.332 445.38 451.024C423.586 458.408 405.628 453.471 385.64 443.7C381.703 440.831 373.336 431.159 379.413 425.745C385.4 421.625 391.594 427.043 396.265 429.483C423.983 443.956 440.462 435.61 463.476 419.87Z"/><path fill="#062025" transform="translate(-86 -66)" d="M494.827 361.646C506.671 361.563 509.304 370.273 504.182 378.612C490.705 400.555 467.84 396.695 449.595 386.621C444.334 381.51 438.03 373.449 442.349 366.004C452.182 361.262 466.798 376.67 475.6 377.357C480.385 377.731 491.379 365.489 494.827 361.646Z"/><path fill="#062025" transform="translate(-86 -66)" d="M342.302 366.748C354.65 367.657 358.326 378.585 368.602 380.384C377.468 381.935 396.587 362.567 405.662 371.401C406.955 376.198 404.275 381.214 401.968 385.279C396.986 389.762 392.23 392.922 385.842 395.121C373.756 399.356 360.452 398.369 349.123 392.395C337.521 386.247 335.308 377.609 342.302 366.748Z"/><path fill="#3EB682" transform="translate(-86 -66)" d="M213.738 228.41C250.704 223.762 287.612 250.326 291.474 288.255C281.264 279.763 265.123 266.79 251.501 266.467C234.065 266.054 237.283 279.267 247.551 287.77C261.159 295.99 267 300.281 277.456 312.058C267.315 311.546 259.226 311.242 249.612 308.305C208.455 295.732 207.722 263.267 191.485 233.593L190.751 232.267C199.192 230.262 205.169 229.337 213.738 228.41Z"/><path fill="#3EB682" transform="translate(-86 -66)" d="M589.191 508.836C604.092 529.715 607.349 541.117 633.576 550.451C637.812 549.245 649.144 546.031 652.467 549.441C652.239 554.774 646.652 557.986 645.131 565.43C647.029 575.483 659.263 573.8 660.455 583.838C659.085 587.535 657.829 588.082 654.741 590.51C616.433 603.359 593.16 567.818 573.34 541.306C579.9 530.055 584.278 520.831 589.191 508.836Z"/><path fill="#3EB682" transform="translate(-86 -66)" d="M243.999 515.671C246.984 517.905 257.809 542.833 260.127 547.928C240.19 575.497 223.245 600.621 185.367 595.52C181.584 594.255 178.219 592.331 176.365 588.741C176.929 577.998 190.886 578.128 190.744 566.08C188.791 561.221 186.105 560.307 182.078 556.405L182.359 554.991C190.576 548.855 200.08 553.913 211.204 549.961C228.037 543.981 236.015 530.196 243.999 515.671Z"/><path fill="#3EB682" transform="translate(-86 -66)" d="M578.515 189.838C584.138 200.566 586.711 229.261 584.164 241.657C581.842 252.955 567.351 286.639 553.112 282.709L552.065 280.642C554.124 267.317 576.484 243.32 553.978 237.635L552.843 237.36C535.937 246.611 533.133 263.455 528.725 280.453C524.08 230.507 539.388 216.835 578.515 189.838Z"/></g></svg>