<?xml version="1.0" encoding="utf-8" ?><svg xmlns="http://www.w3.org/2000/svg" xmlns:xlink="http://www.w3.org/1999/xlink" width="704" height="883" viewBox="0 0 704 883"><clipPath id="mascot-climbing-cl_14"><rect width="704" height="883"/></clipPath><g clip-path="url(#mascot-climbing-cl_14)"><path fill="#062025" transform="translate(-54 -1110)" d="M807.652 884.1C827.075 859.287 849.425 813.958 859.184 783.691C862.87 770.786 860.259 755.601 866.52 743.65C869.282 738.377 877.229 737.324 881.329 741.621C891.388 752.162 898.464 764.837 908.698 775.532C930.037 797.834 954.621 817.563 978.957 836.541C982.148 809.195 987.858 788.406 1011.02 771.14C1015.96 767.458 1069.56 730.242 1071.91 747.27C1077.07 784.816 1087.89 826.05 1056.21 855.489C1043.96 866.87 1033.88 871.423 1018.96 878.285C1032.35 897.306 1039.01 906.618 1050.31 927.416C1092.96 892.783 1147.67 876.603 1202.3 882.466C1232.85 885.518 1280.36 897.921 1300.52 922.606C1306.14 926.967 1312.05 931.333 1317.12 936.276C1344.01 949.048 1366.56 992.263 1376.11 1018.85C1395.08 1070.96 1392.29 1128.51 1368.36 1178.53C1350.73 1215.65 1326.47 1240.69 1293.13 1263.24C1219.6 1312.98 1121.56 1305.53 1051.93 1252.59C1046.73 1248.63 1042.47 1244.86 1037.8 1240.28C1029.19 1231.52 1022.42 1224.51 1014.51 1215.08C1007.85 1205.76 1003.79 1199.48 998.129 1189.6C997.709 1200.78 996.169 1211.74 994.804 1222.84L1004.77 1226.64C1017.79 1232.72 1023.23 1236.97 1033.12 1247.56C1035.04 1251.53 1035.91 1254.51 1035.07 1258.98C1028.52 1293.68 982.829 1288.09 958.185 1282.38C953.476 1285.4 948.662 1288.03 943.468 1290.13C922.365 1298.62 891.121 1297.72 870.417 1288.53C840.185 1275.11 866.798 1225.69 852.327 1197.92C851.781 1196.87 851.091 1195.81 850.107 1195.11C845.494 1191.86 838.459 1189.55 833.276 1187.09C824.018 1182.7 815.155 1177.53 806.784 1171.62C785.008 1155.99 765.791 1129.43 756.693 1104.52C738.112 1053.62 749.494 995.478 772.678 948.04C775.828 941.595 778.801 935.023 781.774 928.485C766.481 929.751 755.887 930.882 740.703 927.295C717.7 922.014 698.068 907.118 686.787 886.387C682.72 878.912 679.375 870.039 675.014 862.874C670.368 855.653 662.719 850.213 658.232 842.933C651.76 832.277 666.634 826.373 674.276 823.868C703.886 814.162 736.054 812.121 764.42 826.875C787.494 838.877 799.94 860.022 807.652 884.1Z"/><path fill="#3EB682" transform="translate(-54 -1110)" d="M880.432 774.525C889.868 780.665 900.929 796.138 909.777 803.498C962.753 847.563 1001.94 877.901 1035.52 940.015C999.344 978.964 987.912 1002.78 975.489 1053.59C956.096 1051.24 943.44 1047.16 927.016 1037.14C920.892 1033.4 912.574 1027.72 906.576 1033.57C903.41 1040.47 907.66 1045.43 913.26 1049.61C942.502 1071.41 987.795 1078.06 1023.01 1070.48C1032.94 1068.34 1036.83 1067.21 1043.99 1059.56C1048.47 1054.77 1053.6 1043.65 1060.58 1043.05C1068.62 1043.4 1059.71 1056.56 1066.89 1062.13C1075.61 1068.89 1084.99 1065.32 1095.05 1066.41C1121.92 1069.53 1111.34 1100.29 1094.28 1108.62C1083.41 1113.32 1068.64 1113.65 1057 1112.32C1031.83 1109.45 1008.76 1117.5 983.524 1116.94C959.099 1116.41 937.107 1110.84 915.204 1100.06C906.518 1095.78 893.889 1086.32 885.172 1084.34C881.521 1085.04 880.121 1086.67 877.24 1089.04C877.148 1103 889.107 1107.44 899.823 1113.34C924.542 1126.97 950.467 1132.56 978.264 1135.72C979.939 1145.62 983.776 1155.78 987.197 1165.23C972.441 1173.44 952.555 1178.54 935.998 1181.14C926.969 1182.56 918.94 1183.25 910.201 1186.2C908.246 1192.04 898.9 1240.73 904.074 1245.29C910.249 1250.73 943.309 1253.57 944.029 1267.36C935.184 1284.23 889.574 1276.26 874.716 1269.97C872.585 1245.94 876.863 1221.29 872.278 1197.25C868.515 1177.53 855.591 1176.43 840.004 1169.68C770.959 1139.82 753.294 1060.36 775.261 993.702C792.892 937.167 827.505 893.554 854.775 841.8C866.43 819.73 874.216 798.605 880.432 774.525Z"/><path fill="#062025" transform="translate(-54 -1110)" d="M313.934 1177.98C315.202 1177.98 318.706 1177.92 319.685 1178.58C334.67 1188.28 346.295 1208.01 360.686 1218.21C418.476 1259.15 488.9 1293.73 526.042 1357.62C538.227 1342.92 546.562 1332.5 555.339 1315.72C549.794 1298.57 536.867 1256.16 570.874 1257.1C576.473 1257.26 581.829 1260.02 586.823 1262.49C619.838 1217.69 667.191 1239.78 668.784 1290.73C669.746 1321.48 643.64 1337.76 626.938 1358.87C620.725 1366.72 615.537 1380.64 609.641 1389.2C595.843 1412.18 582.389 1426.24 563.387 1444.35C571.61 1489.28 569.626 1510.75 553.627 1554.44C617.363 1552.46 608.186 1609.7 593.039 1651.26C622.739 1659.51 629.175 1670.46 627.419 1700.06C644.066 1699.64 669.925 1697.7 685.61 1702.53C688.367 1703.38 690.932 1704.62 692.228 1707.31C699.042 1721.43 702.94 1870.03 696.295 1888.18C695.577 1890.15 694.982 1891.07 693.008 1891.92C678.128 1898.3 492.414 1901.51 481.116 1895.24C478.416 1893.75 477.266 1891.52 476.478 1888.65C472.841 1875.39 474.234 1857.24 473.814 1843.41C472.566 1802.41 469.628 1759.62 474.075 1718.77C474.593 1714.01 475.24 1709.25 477.628 1705.03C485.28 1699.79 503.034 1701.34 512.831 1701.58C508.99 1676.49 515.96 1658.88 519.787 1634.06C484.574 1636.35 451.675 1653.5 414.624 1660.68C409.737 1683.57 408.096 1694.66 397.436 1715.68C393.057 1724.88 383.786 1739.01 378.114 1747.96C397.503 1767.06 403.727 1777.64 396.448 1805.31C407.729 1805.86 440.487 1803.63 447.369 1810.28C457.659 1820.22 457.602 1884.68 449.517 1893.39C432.776 1900.17 264.704 1900.71 244.114 1893.58C235.738 1885.41 236.261 1815.55 242.5 1812.25C261.577 1802.18 314.2 1804.17 335.727 1804.44C318.136 1789.54 301.095 1777.28 296.026 1754.14L296.509 1752.58C301.772 1735.09 315.548 1720.51 322.801 1703.57C329.894 1687 328.531 1671.62 327.598 1654.2C303.292 1645.09 283.194 1633.35 265.144 1614.22C259.134 1607.85 254.737 1599.81 248.292 1593.42L246.263 1593.93C241.144 1598.56 237.934 1606.4 235.057 1612.69C238.997 1627.05 248.179 1641.8 237.545 1656.78C233.995 1661.75 228.488 1664.98 222.409 1665.64C213.484 1666.66 208.379 1663.94 201.722 1658.6C183.917 1678.82 162.712 1690.97 138.011 1669.97C128.605 1661.98 121.798 1647.62 121.717 1635.23C121.509 1603.24 150.805 1588.37 168.033 1566.28C170.321 1563.32 176.055 1548.5 178.589 1544.03C191.526 1521.16 203.527 1506.28 221.642 1487.66C220.058 1454.02 231.136 1419.99 241.971 1388.65C198.417 1397.13 166.872 1391.96 139.316 1354.65C134.129 1349.55 128.153 1337.92 123.017 1333.5C115.39 1326.93 91.4803 1317.52 112.195 1304.95C136.802 1290.01 170.947 1278.98 200.379 1283.85C233.053 1289.27 247.797 1307.03 265.864 1332.58C283.213 1298.18 299.743 1264.36 305.378 1225.67C307.406 1211.76 305.937 1201.19 306.613 1187.5C306.826 1183.19 310.472 1180.28 313.934 1177.98Z"/><path fill="#3EB682" transform="translate(-54 -1110)" d="M325.253 1212.41C337.489 1221.86 348.347 1233.7 361.279 1242.42C400.624 1268.98 442.681 1290.72 475.967 1325.34C489.629 1339.55 500.361 1353.12 512.402 1368.73C509.766 1373.43 505.99 1382.01 510.19 1386.68C521.279 1389.88 537.683 1372.08 544.524 1364.6C558.778 1349.01 568.831 1332.13 575.361 1312.12C572.779 1302.7 563.552 1286.26 567.989 1277.56C575.165 1274.48 580.287 1286.57 589.891 1287.62C595.772 1285.38 604.801 1270.13 609.846 1265.15C621.204 1253.94 634.088 1253.1 643.241 1267.19C650.566 1278.46 652.834 1288.18 648.71 1301.06C642.967 1319 626.954 1328.14 616.034 1342.38C607.103 1354.02 601.058 1367.75 593.611 1380.37C582.996 1398.92 572.052 1410.78 556.911 1425.42C552.183 1429.99 539.437 1440.77 539.894 1447.19C540.165 1450.99 544.501 1453.84 547.358 1456.2C551.18 1478.04 550.976 1494.54 547.547 1516.36C545.199 1531.31 527.025 1558.2 530.173 1569.1C538.268 1577.69 559.817 1569.24 573.206 1576.01C606.513 1592.84 567.798 1647.75 573.042 1663.28C579.344 1670.89 621.245 1673.65 609.661 1691.38C602.32 1702.62 540.296 1701.48 532.918 1695.11C515.974 1680.5 565.674 1610.93 518.384 1615.98C478.879 1617.97 447.376 1637.08 408.215 1644.04C406.825 1644.4 404.739 1645.04 403.454 1645.46C397.62 1647.38 395.636 1660.37 394.426 1666.13C392.289 1676.3 391.144 1685.28 387.203 1695.22C379.813 1713.86 364.73 1731.42 357.42 1749.61C364.537 1761.71 381.587 1776.73 382.035 1791.43C382.408 1803.68 363.135 1798.54 356.583 1795.04C339.445 1785.89 326.427 1773.59 314.954 1758C320.373 1740.62 336.281 1723.46 342.237 1704.27C348.515 1684.04 350.625 1660.9 341.247 1641.45C333.743 1636.94 322.241 1632.79 314.026 1628.55C288.371 1615.3 272.666 1598.47 259.657 1573.29C267.19 1564.43 288.635 1548.55 287.078 1536.92C284.282 1532.45 278.298 1530.4 273.967 1534C250.064 1553.91 221.676 1582.2 217.899 1614.71C216.97 1622.71 230.515 1642.18 218.763 1647.64C204.871 1644.42 204.414 1618.43 181.792 1653.2C168.034 1674.34 139.283 1656.6 140.649 1634.01C140.282 1610.27 166.614 1599.7 176.771 1584.38C191.67 1561.92 202.768 1535.44 221.166 1514.65C231.847 1502.58 242.821 1492.25 254.936 1481.62C258.037 1478.9 260.852 1474.57 260.757 1470.31C256.112 1463 246.024 1467.49 240.349 1470.73C244.526 1437.53 254.43 1407.46 267.51 1376.83C290.009 1324.15 322.529 1270.9 325.253 1212.41Z"/><path fill="#062025" transform="translate(-54 -1110)" d="M440.555 1353.09C454.215 1352.95 460.189 1361.65 457.948 1374.77C456.06 1385.21 449.992 1394.42 441.149 1400.27C429.383 1408.01 419.777 1407.02 406.979 1404.46C389.996 1396 372.366 1380.88 400.97 1368.25C414.064 1362.46 426.959 1359.32 440.555 1353.09Z"/><path fill="#062025" transform="translate(-54 -1110)" d="M374.594 1326.9C392.073 1328.2 397.1 1346.07 381.003 1355.01C364.844 1355.22 358.834 1337.53 374.594 1326.9Z"/><path fill="#062025" transform="translate(-54 -1110)" d="M431.574 1308.79C447.895 1309.6 453.302 1326.68 437.788 1336.4C419.002 1334.14 417.684 1319.63 431.574 1308.79Z"/><path fill="#FB8062" transform="translate(-54 -1110)" d="M536.197 1718.45C578.571 1716.17 634.12 1718.49 677.163 1719.28C682.165 1760.98 681.784 1835.38 679.324 1876.85C665.318 1877.08 650.792 1877.84 636.753 1878.41C595.727 1881.83 535.568 1880.3 493.977 1879.54C490.921 1824.98 489.605 1774.76 492.658 1720.09L536.197 1718.45Z"/><path fill="#FB8062" transform="translate(-54 -1110)" d="M322.227 1823.59C359.363 1822.5 397.452 1824.7 434.794 1825.01C436.099 1845.25 436.418 1858.72 435.71 1879C414.265 1879 392.822 1879.34 371.389 1880.02C333.651 1880.6 295.906 1880.25 258.185 1878.99C256.799 1859.15 256.077 1845.85 258.3 1826.14C279.587 1824.8 300.901 1823.95 322.227 1823.59Z"/><path fill="#3EB682" transform="translate(-54 -1110)" d="M172.734 1301.28C212.504 1298.16 235.446 1312.45 251.248 1348.59C238.805 1342.37 199.738 1321.22 188.3 1336.23C186.813 1348.39 214.619 1353.33 223.957 1355.59C231.446 1358.93 238.423 1362.83 245.615 1366.74C217.947 1378.74 188.573 1378.67 165.653 1357.35C152.542 1345.15 144.309 1329.76 131.934 1317.27L130.713 1316.05C147.947 1306.49 153.306 1304.6 172.734 1301.28Z"/></g></svg>