<?xml version="1.0" encoding="utf-8" ?><svg xmlns="http://www.w3.org/2000/svg" xmlns:xlink="http://www.w3.org/1999/xlink" width="742" height="530" viewBox="0 0 742 530"><clipPath id="mascot-growth-arrow-cl_c"><rect width="742" height="530"/></clipPath><g clip-path="url(#mascot-growth-arrow-cl_c)"><path fill="#09262C" transform="translate(-709 -782)" d="M351.632 1050.12C352.133 1019.78 356.015 1002.2 379.247 980.921C383.547 976.982 418.353 942.575 424.022 955.092C431.646 971.925 435.799 997.563 437.68 1016.3C438.135 1021.05 432.634 1037.54 433.486 1042.39C451.526 1042.44 448.09 1025.64 466.287 1019.91C488.366 1012.97 510.39 1018.96 518.187 1042.07C543.007 1041.75 695.724 1037.55 706.679 1047.86C709.682 1050.69 709.829 1054.21 710.066 1058.08C712.571 1098.9 709.511 1140.53 709.923 1181.47C710.406 1229.42 714.446 1278.36 711.634 1326.23C711.257 1332.66 710.617 1339.47 708.822 1345.68C694.801 1352.63 585.743 1350.43 562.012 1350.79L561.68 1383.85C570.659 1391.78 613.712 1427.58 607.311 1439.01C605.241 1440.08 602.208 1441.35 600.026 1440.39C587.217 1434.72 572.376 1415.54 562.037 1407.97C561.892 1417.95 562.968 1428.68 556.241 1436.49C552.997 1437.94 554.616 1437.82 551.22 1436.9C543.804 1429.76 545.334 1417.03 545.423 1407.4C536.489 1414.32 504.586 1447.56 495.518 1438.52C494.962 1436.06 494.594 1433.43 496.45 1431.22C510.328 1414.65 531.392 1399.02 545.902 1383.76L545.958 1351.8C497.54 1352.56 444.984 1354.15 397.408 1346.79C377.547 1359.32 380.266 1362.66 379.442 1385.36C397.692 1393.26 408.857 1397.08 414.505 1418.08C411.087 1427.5 407.445 1434.03 397.472 1437.93C375.575 1446.5 329.8 1442.28 325.732 1413.48C324.51 1403.17 327.138 1386.4 322.013 1377.71L320.584 1378.12C317.105 1383.83 317.519 1387.46 316.77 1394.26C314.668 1412.81 319.432 1434.13 297.015 1441.52C280.183 1447.07 260.381 1451.56 243.384 1444.07C230.498 1438.38 225.382 1423.59 232.34 1411.34C239.636 1398.58 253.11 1394.31 266.447 1390.74C263.996 1384.73 261.939 1377.12 260.048 1370.78C230.347 1361.15 215.61 1350.34 195.533 1326.02C186.138 1341.59 175.773 1355.81 155.278 1350.38C147.913 1348.42 140.413 1343.05 137.027 1336.04C123.226 1307.5 137.757 1269.54 150.874 1243.28C155.1 1235.26 168.37 1220.69 170.77 1213.2C173.386 1205.05 174.282 1194.27 177.108 1184.85C182.208 1167.84 190.111 1151.36 194.932 1134.8L195.371 1133.26C165.482 1144.87 131.597 1135.63 112.759 1109.12C108.422 1103.02 105.03 1095.5 100.412 1089.65C93.7392 1081.2 85.2655 1073.85 79.2562 1064.87C71.2911 1050.1 111.943 1040.86 120.137 1039.37C135.687 1036.54 148.869 1036.76 163.675 1041.17C186.022 1047.81 198.322 1063.4 208.709 1083.09C210.218 1088.21 212.071 1093.94 213.21 1099.11C215.984 1094.01 219.272 1088.3 221.835 1083.18L222.399 1082.32C235.008 1062.84 249.424 1028.8 251.412 1005.96C252.317 995.57 250.454 979.808 258.51 974.727C261.915 974.034 264.485 974.28 267.367 976.377C278.064 984.161 287.294 996.228 297.217 1004.86C315.004 1020.35 333.978 1034.54 351.632 1050.12ZM517.316 1057.06C511.51 1066.48 506.828 1072.83 495.035 1075.67C484.651 1078.09 473.728 1076.27 464.688 1070.62C459.248 1067.19 455.741 1062.98 452.129 1057.73C437.478 1057.42 422.887 1057.86 408.271 1057.49C408.996 1104.64 409.238 1151.65 409.677 1198.8C409.953 1228.44 412.551 1257.59 412.173 1287.25C411.957 1304.19 410.338 1320.43 409.796 1337.13C454.2 1338.6 499.405 1337.97 543.87 1337.59C592.964 1336.39 649.378 1337.32 697.408 1334.85C698.686 1275.14 695.644 1215.41 695.481 1155.66C695.391 1122.71 697.89 1090.36 698.3 1057.7C647.694 1057.09 600.134 1056.29 549.322 1056.49C539.434 1056.64 526.997 1056.52 517.316 1057.06Z"/><path fill="#09262C" transform="translate(-709 -782)" d="M1751.53 929.256C1781.29 929.013 1774.59 946.246 1797.99 956.145C1804.32 958.821 1818.34 956.896 1826.43 958.013C1836.9 959.47 1846.26 965.282 1852.21 974.014C1867.18 995.523 1864.33 1030.77 1859.99 1055C1881.25 1071.89 1891.5 1080.01 1904.38 1103.95C1923.96 1112.24 1942.59 1110.59 1954.24 1132.44C1953.96 1152.86 1942.66 1169.35 1933.65 1187.3L1899.6 1255.39L1871.24 1314.3C1865.13 1327.06 1858.94 1341.19 1851.41 1353.05C1851.96 1379.48 1853.2 1415.32 1847.01 1440.51C1842.54 1445.41 1833.67 1452.88 1827.14 1452.64C1800.34 1451.66 1802.45 1390.71 1802.85 1375.68L1661.61 1419.47C1646.17 1424.41 1621.89 1430.8 1607.67 1436.47C1604.6 1456.12 1609.3 1500.42 1593.65 1515.16C1583.52 1524.7 1569.05 1517.7 1561.16 1506.96C1555.55 1489.3 1557.26 1456.45 1557.6 1437.35C1542.67 1432.75 1517.69 1420.78 1503.01 1413.88C1483.12 1404.45 1463.09 1395.32 1442.93 1386.47C1442.22 1401.82 1441.6 1441.15 1428.5 1449.18C1393.89 1470.38 1393.76 1407.94 1394.86 1390C1395.81 1374.6 1392.09 1348.12 1398.07 1336.28C1402.44 1327.64 1452.02 1317.28 1460.48 1315.21C1458.32 1295.84 1454.71 1251.84 1491.4 1257.29C1503.09 1259.03 1511.73 1272.91 1517.07 1283.05L1537.35 1277.35C1524.47 1251.98 1524.09 1220.68 1532.99 1194.02C1541.05 1169.86 1556.98 1151.55 1574.97 1134.17C1558.45 1083.9 1565.03 1062.28 1615.71 1041.5C1607.04 1030.56 1592.65 1016.12 1596.9 1001.07C1604.74 973.321 1659.3 979.635 1678.33 984.231C1696.42 964.657 1725.04 933.431 1751.53 929.256Z"/><path fill="#09262C" transform="translate(-709 -782)" d="M992.166 938.605C991.75 927.899 990.952 917.435 993.964 906.495C1000.72 881.968 1025.86 863.73 1046.15 850.329C1050.18 847.667 1054.3 846.88 1058.82 848.082C1059.94 848.861 1061.81 850.227 1062.03 851.569C1066.18 877.156 1077.35 899.607 1068.29 925.692C1060.08 949.331 1044.81 959.166 1023.43 969.975C1064.23 1013.89 1081.57 1063.44 1081.75 1122.94C1091.35 1113.12 1105.1 1097.19 1112.83 1086.16C1156.53 1023.77 1170.22 1045.83 1210.88 1096.34C1227.07 1071 1242.55 1045.21 1257.28 1018.99C1265.05 1005.17 1276.07 985.609 1281.79 970.972C1268.25 964.915 1258.09 963.67 1246.01 952.381C1231.01 938.365 1226.99 921.095 1220.97 902.147C1219.25 896.755 1216.51 891.23 1216.33 885.824C1219.71 879.882 1227.14 880.953 1233.17 881.149C1263.9 882.146 1291.63 895.016 1305.91 923.138C1307.25 920.064 1308.65 917.015 1310.11 913.992C1326.54 880.392 1353.53 869.298 1389.57 867.557C1395.81 867.255 1410.73 864.621 1412.67 872.844C1414.04 879.59 1407.21 886.914 1406.11 893.163C1396.43 948.03 1386.24 959.462 1333.16 971.195C1317.51 1004.68 1252.47 1150.6 1231.85 1170.78C1227.66 1174.89 1221.92 1177.03 1216.06 1176.65C1197.65 1175.45 1168.82 1136.85 1156.08 1121.84C1142.86 1139.32 1127.94 1156.83 1114.35 1174.56C1101.48 1189.93 1092.11 1207.82 1076.78 1220.96C1059.31 1235.93 1045.95 1221.42 1035.04 1207.76C1027.45 1212.53 1020.01 1216.74 1012.23 1221.15C1011.38 1229.71 1009.84 1241.17 1010.57 1249.48C1013.4 1250.6 1016.2 1251.82 1018.95 1253.13C1042.64 1264.47 1053.43 1287.69 1021.45 1300.23C1010.26 1304.62 983.058 1300.92 972.588 1295.48C964.554 1291.31 961.731 1283.65 959.609 1275.13C959.346 1265.16 959.421 1251.23 956.598 1242.01L955.413 1241.15C951.069 1247.21 951.364 1268.93 950.737 1277.35C947.043 1294.31 935.443 1301.08 919.069 1304.8C905.728 1307.83 889.901 1307.27 878.188 1299.69C866.883 1292.38 866.138 1280.2 873.945 1269.92C881.241 1260.02 890.555 1257.33 902.018 1255.28C902.616 1227.77 896.334 1236.99 874.646 1224.78C796.323 1180.68 808.028 1082.15 843.727 1013.41C793.177 1025.44 774.832 1005.47 749.457 965.332C738.044 952.956 724.141 941.267 749.864 931.453C803.675 910.922 839.338 926.279 860.867 977.84C870.621 964.741 888.185 926.892 892.612 911.048C897.233 897.633 892.409 881.519 899.303 868.905C901.184 865.463 907.554 865.092 910.311 867.793C936.216 893.173 964.261 915.508 992.166 938.605Z"/><path fill="#41B685" transform="translate(-709 -782)" d="M911.444 892.555C920.62 898.092 929.792 908.907 938.23 915.741C959.067 932.617 980.149 948.838 998.778 968.27C1034.69 1005.73 1066.94 1053.99 1065.78 1107.88C1065.13 1138.06 1054.03 1169.33 1030.7 1189.29C1020.92 1197.65 1010.01 1203.95 1000.67 1213.15L999.644 1214.18C996.85 1225.24 992.254 1250.43 995.226 1260.82C1000.05 1266.86 1031.48 1269.71 1025.72 1281.49C1020.48 1291.13 988.583 1286.97 982.408 1282.4C957.243 1263.56 1000.21 1208.94 943.439 1225.57C933.504 1228.48 937.782 1270.02 934.755 1278.63C929.563 1293.38 901.166 1292.45 888.87 1289.68C886.66 1289.18 885.313 1286.03 884.766 1284.33C885.679 1266.57 910.255 1273.97 916.44 1264.69C920.446 1258.68 915.918 1236.23 914.711 1229.18C909.677 1215.3 849.699 1218.95 832.892 1136.67C837.123 1142.55 841.432 1148.01 846.894 1152.79C861.608 1165.75 880.899 1172.29 900.463 1170.93C912.833 1169.98 926.222 1165.42 934.321 1155.68C939.199 1149.81 941.411 1141.96 940.279 1134.62C935.394 1102.93 912.555 1114.8 891.867 1104.29C886.246 1101.44 889.599 1096.26 877.376 1086.73C873.06 1086.79 869.632 1088.75 869.743 1093.71C870.482 1126.67 906.729 1117.73 924.537 1131.9C928.893 1137.78 924.306 1145.01 920.374 1148.22C899.046 1165.59 861.531 1152.36 846.632 1130.35C811.273 1078.1 872.061 1002.81 892.719 954.239C902.585 931.041 907.715 917.033 911.444 892.555Z"/><path fill="#09262C" transform="translate(-709 -782)" d="M987.448 1036.36C1008.95 1043.06 987.51 1079.49 950.49 1061.37C946.043 1056.52 941.591 1052.82 945.814 1046.2C953.493 1043.24 963.804 1052.97 972.473 1052.92C980.235 1049.73 982.759 1043.65 987.448 1036.36Z"/><path fill="#09262C" transform="translate(-709 -782)" d="M989.452 997.508C995.268 996.607 1000.75 1000.48 1001.84 1006.27C1002.93 1012.05 999.233 1017.65 993.489 1018.93C989.603 1019.8 985.554 1018.47 982.927 1015.48C980.3 1012.49 979.512 1008.31 980.87 1004.56C982.229 1000.82 985.518 998.117 989.452 997.508Z"/><path fill="#09262C" transform="translate(-709 -782)" d="M934.454 1007.53C940.116 1006.54 945.554 1010.17 946.815 1015.78C948.077 1021.39 944.72 1027 939.183 1028.53C935.349 1029.6 931.241 1028.46 928.496 1025.58C925.751 1022.7 924.815 1018.55 926.062 1014.77C927.308 1010.99 930.535 1008.21 934.454 1007.53Z"/><path fill="#F6A921" transform="translate(-709 -782)" d="M1386.65 882.409C1391.14 882.118 1389.43 881.433 1392.52 883.28C1393.09 885.472 1384 923.824 1382.21 928.16C1377.14 940.468 1365.59 947.699 1353.05 950.417C1341.19 952.987 1327.69 953.628 1321.1 965.161C1311.63 980.618 1305.2 997.216 1297.78 1013.64C1282.47 1046.8 1266.5 1079.66 1249.89 1112.19C1242.74 1126.11 1234.07 1143.62 1224.78 1156.29C1224.36 1156.86 1222.49 1158.76 1222.03 1159.01C1202.47 1169.57 1175.93 1106.39 1156.58 1105.02C1152.97 1104.9 1149.5 1107.83 1147.07 1110.05C1142 1114.72 1137.8 1120.21 1133.54 1125.61C1117.7 1145.71 1101.91 1165.86 1086.46 1186.26C1081.59 1192.69 1077.61 1199.82 1072.05 1205.71C1069.41 1208.5 1065.65 1210.55 1061.74 1210.29C1054.84 1209.85 1050.16 1203.59 1045.88 1198.72C1060.38 1181.14 1069.28 1163.5 1083.31 1146.45C1102.34 1124.08 1129.81 1084.03 1151.86 1065.29C1173.45 1053.01 1204.81 1144.34 1224.83 1103.79C1243.7 1065.57 1292.14 1003.88 1299.08 961.779C1288.13 955.483 1275.52 953.109 1264.09 946.531C1243.89 934.915 1241.04 917.073 1235.73 896.431C1238.37 896.806 1241 897.221 1243.63 897.676C1262.67 901.021 1281.17 907.685 1290.11 926.503C1293.58 933.803 1298.89 950.64 1307.52 951.973C1317 948.853 1318.69 932.226 1322.8 921.981C1325.23 916.109 1328.5 910.625 1332.52 905.704C1346.92 888.282 1365.5 884.589 1386.65 882.409Z"/><path fill="#41B685" transform="translate(-709 -782)" d="M783.201 938.198C820.762 935.885 834.021 954.154 846.475 985.806C837.168 979.105 802.928 955.566 791.725 964.935L792.288 967.049C798.549 974.403 805.629 976.49 814.487 980.219C824.334 985.43 833.818 992.222 842.957 998.61C832.991 1001.31 824.74 1003.2 814.337 1002.35C780.956 999.632 773.946 969.542 755.436 948.655L754.423 947.522C764.786 942.635 772.053 940.622 783.201 938.198Z"/><path fill="#41B685" transform="translate(-709 -782)" d="M1048.69 868.065C1055.53 876.264 1058.59 910.649 1054.09 921.269C1046.27 939.732 1037.31 946.551 1020.59 955.086C1026.3 936.499 1029.86 928.604 1038.62 911.25C1037.24 909.093 1037.1 909.285 1035.11 907.503C1021.77 905.032 1012.99 934.297 1008.91 944.365C999.332 902.99 1018.86 889.969 1048.69 868.065Z"/><path fill="#FCEFDA" fill-opacity="0.019607844" transform="translate(-709 -782)" d="M950.737 1277.35C951.364 1268.93 951.069 1247.21 955.413 1241.15L956.598 1242.01C959.421 1251.23 959.346 1265.16 959.609 1275.13L955.961 1270.06L954.473 1270.08C952.844 1272.89 952.087 1274.39 950.737 1277.35Z"/></g></svg>