<?xml version="1.0" encoding="utf-8" ?><svg xmlns="http://www.w3.org/2000/svg" xmlns:xlink="http://www.w3.org/1999/xlink" width="760" height="658" viewBox="0 0 760 658"><clipPath id="mascot-matterhorn-cl_a"><rect width="760" height="658"/></clipPath><g clip-path="url(#mascot-matterhorn-cl_a)"><path fill="#09262C" transform="translate(-625 -1390)" d="M419.942 950.587C421.36 951.18 421.991 951.752 423.278 952.63C430.93 966.343 435.653 997.039 437.492 1013.16C438.606 1022.93 432.904 1036.19 433.886 1040.68C445.934 1045.16 445.621 1033.66 453.312 1027.65C476.508 1009.53 506.666 1014.56 518.676 1042L614.041 1041.8C640.205 1041.75 666.635 1041.43 692.699 1044.19C697.051 1044.65 705.671 1045.7 708.081 1049.41C710.218 1052.7 710.135 1060.1 710.242 1064.18C711.238 1101.97 709.523 1139.5 709.889 1177.32C710.333 1223.18 712.473 1268.97 712.207 1314.81C712.143 1325.79 711.281 1334.12 709.529 1344.9C701.334 1351.56 582.834 1350.65 561.597 1350.91C561.533 1361.57 561.176 1372.22 560.528 1382.86C570.864 1391.79 609.064 1424.24 608.19 1437.35C602.01 1445.81 592.417 1436.11 586.933 1431.21C578.87 1424 571.669 1416.08 563.235 1409.2L562.1 1408.28C562.017 1416.75 563.702 1436.66 552.73 1438.2C543.105 1433.07 545.765 1415.82 546.526 1406.98C536.778 1412.24 501.338 1451.94 495.083 1437.13C496.296 1430.06 501.619 1425.05 506.718 1420.36C520.058 1408.09 533.226 1395.79 546.191 1383.11C546.119 1372.63 546.204 1362.18 545.331 1351.74C514.49 1352.08 425.084 1354.38 399.059 1345.66C378.56 1358.01 381.078 1362.34 378.47 1385C395.633 1392.15 430.734 1410.49 404.255 1434.63C394.952 1443.12 373.774 1442.38 361.232 1440.29C354.819 1439.58 344.882 1437.35 339.792 1434.25C316.771 1420.23 328.03 1401.65 324.558 1381.24C324.136 1378.76 323.193 1378.77 321.304 1377.72L319.486 1378.46C315.773 1384.35 316.839 1393.82 316.203 1400.58C314.567 1417.94 317.126 1434.54 297.354 1441.64C280.417 1448.75 237.662 1453.85 230.355 1430.84C222.62 1406.49 249.925 1396.59 265.644 1391.29C263.561 1384.52 261.971 1377.71 260.287 1370.84C233.791 1362.56 211.706 1348.23 195.325 1325.59C185.424 1342.58 174.919 1356.54 152.634 1349.86C145.18 1347.62 138.19 1340.07 135.466 1332.82C124.192 1302.83 139.239 1265.03 154.066 1238.76C158.423 1231.42 168.181 1221.3 170.684 1213.98C173.762 1204.99 174.837 1191.9 177.764 1182.81C183.043 1166.43 189.55 1149.86 195.564 1133.74C186.096 1136.73 179.301 1138.25 169.261 1138.12C147.498 1137.89 127.085 1127.53 114.062 1110.09C105.263 1098.37 99.3287 1086.07 88.6269 1075.76C84.9743 1072.24 78.1779 1065.52 78.2499 1060.46C81.9418 1052.47 89.1396 1049.55 96.9093 1046.42C124.301 1035.56 155.981 1032.81 181.463 1050C199.945 1062.47 205.605 1078.43 213.151 1098.14C225.814 1078.59 240.372 1050.84 246.606 1028.94C248.498 1022.26 249.961 1015.46 250.984 1008.59C251.733 1003.23 250.455 970.498 260.669 973.83C272.842 977.801 288.633 996.822 299.336 1006.01C316.592 1020.82 334.083 1035.14 351.416 1049.79C351.709 1035.95 351.708 1027.48 355.932 1014.17C363.902 989.063 397.133 961.455 419.942 950.587Z"/><path fill="#09262C" transform="translate(-625 -1390)" d="M965.371 1530.51C966.965 1503.75 972.451 1483.91 993.382 1465.5C999.392 1460.21 1030.75 1436.67 1037.61 1436.56C1042.73 1439.9 1043.3 1443.32 1044.67 1448.93C1058.75 1506.61 1056.02 1537.32 998.522 1565.2C1009.53 1579.06 1016.93 1590.75 1025.66 1606.08C1028.77 1611.55 1035.59 1624.16 1039 1628.76C1058.31 1610.97 1055.71 1595.44 1070.93 1577.12C1079.65 1566.62 1105.53 1563.18 1114.21 1576.18C1141.76 1612.9 1108 1666.98 1078 1690.96C1071.07 1696.51 1063.37 1701.06 1056.1 1705.42C1053.95 1745.73 1045.61 1782.38 1014.27 1810.7C1004.15 1819.97 992.632 1827.57 980.142 1833.24C978.978 1842.25 977.298 1853.83 976.943 1862.75C1005.77 1872.53 1029.28 1899.25 991.754 1915.3C969.54 1924.8 927.749 1914.55 923.027 1886.74C922.293 1879.99 924.407 1854.55 919.711 1852.24C914.83 1855.82 915.221 1866.92 914.692 1872.93C911.835 1903.84 909.233 1910.46 879.727 1918.26C845.66 1927.26 799.048 1901.4 841.517 1872.8C847.23 1868.99 854.86 1867.55 861.886 1865.5C861.605 1857.74 861.023 1852.44 859.988 1844.71C821.395 1828.34 818.423 1824.73 794.84 1792.7C789.086 1803.32 783.002 1815.68 770.457 1819.18C752.394 1824.22 734.204 1809.01 731.1 1791.53C725.841 1761.9 743.191 1730.35 757.798 1705.78C761.432 1699.82 771.574 1691.69 775.036 1685.62C779.402 1677.96 780.163 1666.77 783.307 1658.7C789.582 1642.58 797.72 1623.16 806.102 1608.18C782.161 1611.66 762.544 1612.84 742.535 1597.55C725.558 1584.58 717.391 1570.2 707.786 1551.8C705.07 1546.59 692.044 1540.26 692.015 1532.18C691.455 1521.62 709.377 1517.28 717.045 1514.91C748.083 1505.31 783.65 1507.93 805.599 1534.47C817.336 1548.65 818.368 1558.04 825.029 1573.89C844.436 1544.29 863.721 1513.44 869.263 1477.66C870.549 1469.35 868.874 1456.7 876.472 1452.87C880.303 1452.59 882.211 1453.11 885.05 1455.78C898.148 1468.12 910.642 1480.97 923.765 1493.35C936.702 1505.54 953.446 1517.82 965.371 1530.51Z"/><path fill="#41B685" transform="translate(-625 -1390)" d="M885.491 1480.43C892.859 1484.42 906.874 1499.12 913.694 1505.52C943.652 1533.64 976.991 1561.88 1000.43 1596.01C1010 1610.15 1017.38 1633.24 1028.67 1645.55C1039.07 1656.89 1061.81 1631.18 1065.92 1621.92C1070.87 1611.33 1085.26 1568.59 1101.96 1588.06C1124.29 1614.08 1088.46 1663.22 1067.36 1679.04C1058.64 1685.58 1049.8 1688.16 1041.67 1695.89C1036.9 1709.69 1038.96 1727.78 1035.23 1743.85C1028.92 1770.99 1012.73 1792.94 990.288 1809.23C982.755 1814.7 975.568 1817.9 967.882 1822.8C964.485 1832.06 957.605 1863.46 961.05 1872.39C963.351 1878.36 989.573 1879.8 994.046 1893.15C992.518 1903.59 979.098 1901.81 971.64 1902.09C931.688 1903.55 937.434 1876.25 939.694 1847.45C939.286 1842.42 939.587 1836.92 935.317 1833.64C888.083 1824.68 900.359 1863.06 894.859 1895.84L894.564 1897.55C882.759 1901.75 853.305 1909.22 843.568 1899.08C842.151 1895.68 842.079 1895.94 842.832 1892.37C849.767 1882.5 864.418 1881.44 876.836 1876.82C878.53 1862.63 877.316 1848.91 874.25 1835.02C834.733 1815.48 820.385 1809.87 801.13 1769.49C805.187 1760.21 821.389 1740.6 805.957 1736.04C789.412 1741.03 781.709 1789.64 770.47 1801.36C764.262 1807.84 754.905 1804.49 751.232 1797.85C739.643 1776.89 753.64 1743.63 764.927 1725C772.864 1711.9 784.376 1701.61 791.579 1688.08C793.54 1684.44 797.036 1671.79 798.511 1667.31C801.947 1656.69 806.156 1646.33 811.106 1636.33C836.597 1584.22 872.636 1537.09 885.491 1480.43Z"/><path fill="#09262C" transform="translate(-625 -1390)" d="M940.24 1626.27C954.897 1624.7 957.8 1636.46 954.178 1647.7C946.95 1670.11 929.474 1675.77 909.164 1670.01C901.384 1665.89 891.551 1658.65 889.351 1649.56C883.954 1627.27 912.898 1630.74 926.426 1628.86C931.191 1628.2 935.693 1627.31 940.24 1626.27Z"/><path fill="#EF7B5D" transform="translate(-625 -1390)" d="M939.114 1640.26C939.696 1640.68 940.277 1641.09 940.859 1641.51C941.984 1648.38 937.578 1654.08 931.498 1656.86C924.173 1660.21 918.506 1658.36 911.322 1655.88C907.99 1653.02 905.803 1651.81 905.68 1647.29C909.8 1642.33 928.798 1642.81 939.114 1640.26Z"/><path fill="#09262C" transform="translate(-625 -1390)" d="M943.522 1589.57C949.264 1587.06 955.957 1589.63 958.544 1595.34C961.132 1601.05 958.655 1607.78 952.984 1610.44C949.245 1612.2 944.849 1611.81 941.479 1609.42C938.109 1607.03 936.287 1603.01 936.71 1598.9C937.133 1594.79 939.736 1591.23 943.522 1589.57Z"/><path fill="#09262C" transform="translate(-625 -1390)" d="M885.47 1597.51C891.462 1596.14 897.464 1599.77 899.028 1605.71C900.593 1611.66 897.154 1617.77 891.261 1619.52C887.279 1620.71 882.969 1619.63 880.014 1616.71C877.059 1613.79 875.929 1609.49 877.064 1605.5C878.2 1601.5 881.421 1598.44 885.47 1597.51Z"/><path fill="#41B685" transform="translate(-625 -1390)" d="M742.411 1525.37C779.043 1520.69 802.093 1545.55 810.063 1578.57C800.713 1572.01 763.227 1542.76 753.947 1554.61L754.25 1556.94C758.442 1563 768.688 1567.14 775.565 1570.52C786.001 1577.28 796.301 1584.25 806.458 1591.43C748.173 1609.8 740.199 1567.3 712.329 1533.46C724.292 1528.71 729.681 1527.03 742.411 1525.37Z"/><path fill="#41B685" transform="translate(-625 -1390)" d="M1029.24 1459.13C1032.25 1461.72 1033.19 1468.33 1034.07 1472.23C1042.7 1510.79 1032.36 1533.26 996.074 1548.93C1002.82 1529.52 1010.51 1520.47 1018 1503.16C1003.68 1488.16 989.18 1529.32 984.897 1539.28C975.667 1497.69 996.555 1479.12 1029.24 1459.13Z"/><path fill="#09262C" transform="translate(-625 -1390)" d="M1198.18 1524.34C1223.73 1522.03 1234.58 1531.88 1257.57 1535.01C1276.94 1537.65 1291.74 1515.76 1292.25 1553.71C1292.44 1568 1294 1582.24 1292.91 1596.61C1291.33 1639.08 1233.85 1611.59 1210.31 1609.66C1187.43 1607.79 1191.09 1622.47 1190.64 1639.92C1213.48 1658.39 1226.18 1698.56 1239.01 1724.68C1241.75 1730.28 1246.29 1740.36 1250.83 1744.47C1259.43 1745.47 1259.87 1733.99 1270.17 1730.02C1274.39 1728.38 1279.08 1728.52 1283.19 1730.41C1295.79 1736.29 1345.06 1835.77 1354.29 1854.6C1359.08 1864.39 1345.22 1867.38 1338.25 1868.03C1303.47 1870.58 1073.28 1879.1 1056.55 1864.94C1054.48 1863.19 1054.01 1862.17 1054.02 1859.45C1054.03 1856.01 1055.75 1851.82 1057.16 1848.74C1060.3 1841.84 1064.72 1835.27 1068.36 1828.6C1077.26 1812.01 1086.27 1795.48 1095.39 1779.01C1113.54 1745.69 1152.06 1665.07 1177.87 1642.51C1177.84 1614.77 1173.27 1561.85 1179.57 1532.62C1180.51 1528.28 1193.36 1525.56 1198.18 1524.34ZM1073.01 1852.79C1110.5 1856.58 1155.55 1856.83 1193.5 1857.3C1232.66 1857.79 1274.38 1854.34 1313.94 1853.56C1321.4 1853.08 1329.06 1852.5 1336.52 1852.2C1326.54 1834.2 1316.15 1816.21 1306.05 1798.26C1296.85 1781.91 1286.51 1759.67 1274.95 1745.55C1247.9 1780.15 1242.09 1768.68 1226.49 1733.85C1207.33 1751.89 1203.13 1748.7 1186.25 1729.95C1182.39 1736.12 1174.62 1748.38 1167.02 1749.52C1156.94 1751.04 1148.84 1731.56 1143.2 1727.71C1134.86 1736.77 1118.32 1769.83 1111.96 1781.97C1099.17 1806.41 1087.24 1828.97 1073.01 1852.79ZM1150.12 1713.54C1156.61 1721.75 1158.24 1725.97 1163.53 1734.28C1168.84 1728.9 1176.1 1719.56 1182.06 1716.49C1206.27 1714.01 1197.95 1742.42 1219.13 1719.29C1213.36 1705.36 1195.65 1663.69 1184.16 1655.45C1174.31 1666.44 1155.21 1699.46 1150.12 1713.54Z"/><path fill="#EF7B5D" transform="translate(-625 -1390)" d="M1195.4 1538.26C1232.28 1536.1 1241.64 1555.11 1278.93 1545.82C1278.84 1563.26 1279.85 1581.69 1278.92 1599.15C1278.7 1603.29 1277.69 1603.36 1275 1605.53C1240.12 1611.64 1232.87 1591.47 1191.04 1597.43C1191.15 1585.07 1187.91 1545.67 1195.4 1538.26Z"/><path fill="#FCEFDA" transform="translate(-625 -1390)" d="M1229.06 1551.38C1249.21 1552.25 1238.22 1562.12 1243.96 1566.35C1246.87 1568.5 1252.02 1566.44 1256.44 1570.51C1258.21 1574.03 1258.09 1573.86 1257.83 1577.85C1254.07 1582.83 1251.41 1577.96 1244.6 1582.46C1242.28 1586.6 1243.06 1588 1243 1593.16C1227.22 1594.06 1231.42 1589.64 1228.1 1578.94C1228.2 1579.27 1218.67 1576.63 1215.3 1572.91C1211.05 1560.4 1220.28 1568.06 1227.93 1562.57C1230.04 1559.32 1229.27 1555.41 1229.06 1551.38Z"/><path fill="#FCEFDA" fill-opacity="0.015686275" transform="translate(-625 -1390)" d="M914.692 1872.93C915.221 1866.92 914.83 1855.82 919.711 1852.24C924.407 1854.55 922.293 1879.99 923.027 1886.74C917.271 1883.37 919.968 1879.55 918.065 1873.56L914.692 1872.93Z"/></g></svg>