<?xml version="1.0" encoding="utf-8" ?><svg xmlns="http://www.w3.org/2000/svg" xmlns:xlink="http://www.w3.org/1999/xlink" width="605" height="701" viewBox="0 0 605 701"><clipPath id="mascot-pointing-cl_19"><rect width="605" height="701"/></clipPath><g clip-path="url(#mascot-pointing-cl_19)"><path fill="#01090A" transform="translate(-643 -1347)" d="M931.897 1413.76C949.133 1413.99 954.989 1440.34 966.602 1450.38C979.25 1461.32 991.887 1472.5 1004.52 1483.45C1061.91 1533.22 1097.96 1578.14 1112.04 1654.77C1131.17 1668.52 1153.12 1696.33 1157.91 1719.75C1169.21 1774.98 1139.12 1794.16 1092.06 1805.67C1103.83 1842.37 1069.82 1858.46 1041.18 1867.37C1041.53 1882.41 1036.92 1897.7 1020.27 1901.38C1002.39 1905.34 986.267 1895.15 971.605 1886.35C962.221 1898.85 952.156 1911.93 934.925 1913.08C927.428 1913.66 920.032 1911.07 914.525 1905.95C904.746 1896.81 904.062 1884.64 903.568 1872.4C892.56 1869.82 884.103 1868.57 872.762 1865.29C860.877 1861.82 846.859 1855.9 839.015 1846.04C830.248 1835.01 831.628 1825.16 833.166 1812.43C813.759 1811.37 795.143 1807.4 780.904 1792.99C769.159 1780.89 762.756 1764.59 763.127 1747.74C763.803 1717.65 785.131 1688.79 806.062 1668.87C813.723 1630.24 829.673 1594.82 851.297 1561.98C795.935 1565.42 772.807 1549.21 752.666 1497.53C749.449 1489.28 741.884 1484.65 739.479 1477.46C735.331 1465.06 756.201 1462.98 763.76 1460.88C788.543 1454.62 813.577 1456.03 835.427 1470.06C858.313 1484.75 865.301 1505.09 870.844 1530.22C887.174 1505.74 903.938 1487.21 916.731 1459.91C924.263 1443.83 922.597 1423.45 931.897 1413.76Z"/><path fill="#3FB584" transform="translate(-643 -1347)" d="M939.69 1446.46C949.117 1454.71 957.279 1466.49 965.322 1473.32C1007.9 1509.48 1050.21 1543.63 1075.68 1595.11C1080.67 1605.32 1084.71 1615.97 1087.76 1626.93C1090.7 1637.84 1092.56 1651.3 1097.78 1661C1101.78 1667.78 1108.37 1674.12 1114.39 1679.23C1137.88 1698.14 1156.33 1742.75 1134.87 1768.49C1113.8 1793.77 1084.67 1789.51 1057.03 1781.97C1050.45 1780.17 1033.76 1788.12 1026.89 1781.25C1022.29 1776.67 1021 1767.53 1020.97 1761.35C1022.04 1738.89 1052.45 1757 1063.37 1745.19C1069.03 1739.33 1068.06 1733.86 1068.04 1726.26C1073.23 1732.71 1077.51 1738.47 1085.82 1741.02C1094.52 1743.68 1105.45 1741.67 1108.3 1731.96C1106.25 1721.95 1095.97 1726.31 1089.25 1728.47C1081.56 1719.63 1078.28 1716.41 1067.01 1713.36C1067.12 1710.99 1068.43 1689.09 1065.16 1688.07C1054.27 1685.71 1054.52 1680.59 1049.52 1674.87C1033.11 1656.1 981.04 1691.07 968.996 1701.3L961.954 1708.23C941.605 1691.34 911.557 1672.9 883.889 1673.9C872.04 1674.32 874.41 1684.23 867.735 1688.64C851.555 1689.4 856.204 1707.89 857.047 1719.9C845.977 1724.65 843.571 1727.92 836.657 1737.26C829.488 1735.74 818.164 1733.11 815.264 1742.65C816.262 1745.06 817.281 1746.11 819.507 1747.16C845.337 1759.4 849.352 1738.24 855.561 1736.2C856.369 1737.6 856.632 1737.72 856.881 1739.14C859.917 1755.46 865.714 1755.8 880.547 1754.52C912.55 1751.78 912.094 1768.76 898.032 1791.08C870.339 1785.39 870.712 1787.79 845.91 1794.81C831.446 1799.02 815.887 1797.08 802.9 1789.45C764.345 1766.64 779.571 1721.09 804.037 1695.1C811.762 1686.89 822.464 1677.56 828.151 1668.15C827.7 1666.71 826.214 1661.89 826.456 1660.7C843.081 1578.56 912.656 1523.2 939.69 1446.46Z"/><path fill="#01090A" transform="translate(-643 -1347)" d="M981.314 1657.93C1001.49 1660.93 980.561 1689.17 941.914 1675.31C937.238 1672 931.928 1666.08 937.262 1660.89C945.547 1659.15 954.391 1665.89 961.964 1667.39C966.447 1668.28 977.21 1660.64 981.314 1657.93Z"/><path fill="#01090A" transform="translate(-643 -1347)" d="M922.508 1618.5C926.666 1616.8 931.419 1617.54 934.87 1620.41C938.321 1623.28 939.906 1627.82 938.992 1632.22C938.078 1636.61 934.815 1640.15 930.505 1641.41C924.297 1643.22 917.756 1639.86 915.624 1633.75C913.493 1627.64 916.519 1620.94 922.508 1618.5Z"/><path fill="#01090A" transform="translate(-643 -1347)" d="M992.539 1615.45C998.962 1614.86 1004.7 1619.47 1005.5 1625.87C1006.3 1632.27 1001.88 1638.15 995.505 1639.15C991.198 1639.83 986.863 1638.11 984.195 1634.66C981.526 1631.22 980.947 1626.59 982.684 1622.59C984.421 1618.59 988.198 1615.86 992.539 1615.45Z"/><path fill="#3FB584" transform="translate(-643 -1347)" d="M1048.52 1799.22C1060.69 1798.5 1078.67 1803.82 1077.69 1817.24C1074.52 1860.62 995.733 1852 967.209 1866.93C962.033 1869.64 950.152 1886.51 946.508 1891.11C941.797 1894.18 934.377 1898.85 929.024 1895.9C914.294 1887.76 922.248 1856.56 929.163 1845.06C930.976 1842.05 938.961 1838.64 942.228 1837.37C953.98 1832.79 966.676 1831.25 978.449 1826.63C1002.55 1816.97 1022.87 1804.96 1048.52 1799.22Z"/><path fill="#FEF3E1" transform="translate(-643 -1347)" d="M869.875 1703.33C892.363 1707.41 932.511 1719.43 955.956 1725.77C956.068 1741.9 959.493 1799.69 957.326 1810.52C954.632 1812.18 955.479 1811.65 951.335 1810.82C939.074 1805.82 926.056 1801.08 913.631 1796.17C918.691 1786.61 922.73 1775.03 920.921 1764.26C916.096 1735.54 892.869 1737.65 871.789 1741.46C870.386 1729.78 870.099 1715.08 869.875 1703.33Z"/><path fill="#FEF3E1" transform="translate(-643 -1347)" d="M1052.21 1699.16C1055.81 1703.1 1054.17 1728.65 1054 1735.24C1043.98 1734.1 1028.85 1731.34 1020.08 1736.53C998.856 1749.08 1005.09 1775.25 1015.41 1791.97C1003.3 1796.71 991.071 1802.79 979.279 1808.38L971.179 1811.8C968.613 1789.07 969.085 1749.17 968.893 1725.65C996.561 1716.49 1024.34 1707.66 1052.21 1699.16Z"/><path fill="#3FB584" transform="translate(-643 -1347)" d="M781.502 1475.32C820.912 1470.52 843.088 1491.64 851.977 1528.05C844.456 1521.21 835.295 1513.63 825.944 1509.56C810.665 1502.92 797.542 1510.03 815.07 1523.9C826.73 1531.26 832.584 1535.37 842.446 1544.9C824.262 1547.59 805.931 1544.28 792.115 1531.33C777.392 1517.52 773.48 1497.41 763.372 1480.54L762.569 1479.22C769.431 1477.49 774.513 1476.48 781.502 1475.32Z"/><path fill="#3FB584" transform="translate(-643 -1347)" d="M867.298 1805.21C889.299 1804.2 911.926 1813.3 931.845 1821.67C916.692 1831.3 913.758 1835.11 907.96 1851.78C900.395 1865.47 806.955 1828.02 867.298 1805.21Z"/><path fill="#FEF3E1" transform="translate(-643 -1347)" d="M1036.05 1681.11C1039.25 1682.19 1039.2 1681.98 1041.57 1684.31L1041.38 1686.8C1034.97 1693.41 1000.34 1702.29 989.264 1705.54L988.86 1705.86L987.402 1704.75L988.148 1706.19L986.389 1705.51L986.024 1706.53L984.825 1706.18L985.053 1704.73C996.809 1694.36 1021.32 1685.55 1036.05 1681.11Z"/><path fill="#FEF3E1" transform="translate(-643 -1347)" d="M884.917 1684.6C897.579 1686.95 931.006 1698.22 939.959 1706.64L938.967 1707.8C928.769 1705.33 888.108 1696.12 882.413 1691.57C882.357 1687.89 882.855 1688.35 884.917 1684.6Z"/><path fill="#3FB584" transform="translate(-643 -1347)" d="M1023 1871.33L1023.84 1871.61C1026.2 1874.36 1025.59 1872.82 1025.8 1876.37C1020.26 1888.72 1007.59 1886.1 997.324 1882.59L988.37 1877.83C999.718 1876.26 1011.71 1873.6 1023 1871.33Z"/></g></svg>