<?xml version="1.0" encoding="utf-8" ?><svg xmlns="http://www.w3.org/2000/svg" xmlns:xlink="http://www.w3.org/1999/xlink" width="732" height="610" viewBox="0 0 732 610"><clipPath id="mascot-pushing-coin-cl_13"><rect width="732" height="610"/></clipPath><g clip-path="url(#mascot-pushing-coin-cl_13)"><path fill="#062025" transform="translate(-672 -712)" d="M807.994 883.834C825.722 861.018 849.862 814.749 858.068 786.305C862.021 775.177 860.71 755.128 865.39 745.177C875.572 723.531 899.704 765.966 907.139 773.62C929.229 796.363 953.338 818.328 979.333 836.396C986.029 788.365 998.849 775.374 1041.74 751.616C1048.8 747.71 1065.15 737.233 1071.91 745.712C1074.23 753.636 1073.05 759.53 1074.2 766.54C1077.77 788.309 1081.44 809.124 1072.7 830.44C1061.76 857.125 1043.74 867.682 1018.69 878.458C1031.3 894.085 1040.77 909.929 1050.23 927.492C1095.61 892.235 1142.65 877.598 1200.72 882.49C1231.19 885.056 1280.11 898.075 1300.34 922.84C1305.78 927.601 1312.6 931.783 1317.11 936.328C1335.11 943.059 1350.54 967.582 1359.61 983.379C1418.97 1086.75 1383.94 1212.85 1280.15 1270.78C1232.5 1297.26 1176.25 1303.65 1123.88 1288.53C1070.38 1273.32 1025.2 1237.33 998.406 1188.6C997.664 1200.62 995.957 1211.05 994.09 1222.9C1006.42 1227.72 1024.32 1234.73 1030.81 1245.28C1049.79 1276.12 1005.46 1290.22 981.761 1285.68C972.989 1283.99 965.951 1284.14 957.764 1282.26C930.764 1299.94 895.291 1299.69 866.155 1285.68C848.678 1277.27 857.745 1243.78 856.904 1228.06C856.263 1216.09 855.134 1207.26 852.461 1194.99C847.668 1193.49 841.664 1191.23 837.07 1189.25C801.073 1173.8 772.674 1144.7 758.101 1108.35C737.784 1057.01 748.412 996.832 772.38 948.691C775.613 942.197 778.641 935.556 781.53 928.903C760.894 930.166 745.424 930.542 725.491 922.159C707.122 914.434 693.372 899.639 684.301 882.04C680.891 875.426 678.166 866.831 674.084 860.64C670.05 854.519 660.1 848.242 657.645 841.34C656.65 838.618 656.962 835.59 658.492 833.128C661.535 828.34 669.305 826.042 674.36 824.26C733.772 803.328 787.942 820.87 807.994 883.834ZM931.807 1234.21C934.648 1227.62 937.936 1207.34 930.974 1202.12C927.346 1201.56 927.265 1201.63 923.801 1201.97C923.382 1210.69 920.501 1224.85 923.935 1231.32C926.707 1233.87 928.09 1233.7 931.807 1234.21Z"/><path fill="#F8A61E" transform="translate(-672 -712)" d="M994.345 1055.17C999.857 1032.48 1004.85 1016.02 1016.36 995.477C1040.83 952.147 1081.49 920.298 1129.42 906.922C1187.9 890.611 1237.49 903.246 1289.06 932.62C1295.47 938.063 1301.92 943.452 1308.42 948.786C1334.88 975.516 1353.2 1002.56 1363.08 1039.05C1376.71 1088.41 1369.8 1141.19 1343.92 1185.39C1318.69 1228.33 1277.48 1259.54 1229.3 1272.18C1128.07 1298.59 1023.96 1237.92 998.186 1136.02C1011.41 1134.19 1026.28 1131.76 1039.54 1130.94C1057.41 1130.78 1069 1132.94 1087.13 1129.91C1121.51 1124.16 1142.16 1088.04 1120.56 1057.98C1113.31 1047.9 1095.81 1046.45 1083.52 1045.7C1083.18 1043.45 1082.78 1041.2 1082.31 1038.97C1077.21 1015.87 1052.76 1020.4 1040.22 1034.11C1035.07 1039.74 1032.65 1043.6 1028.59 1050.09C1017.12 1053.85 1006.3 1054.69 994.345 1055.17Z"/><path fill="#062025" transform="translate(-672 -712)" d="M1166.37 931.406C1172.79 930.764 1185.45 930.744 1192 931.114C1233.33 933.401 1272.01 952.22 1299.33 983.333C1327.62 1015.45 1342.02 1057.48 1339.36 1100.2C1336.58 1142.63 1316.75 1182.13 1284.39 1209.71C1252.04 1237.31 1210.01 1250.83 1167.64 1247.28C1123.68 1243.51 1083.64 1221.84 1056.05 1187.54C1049.33 1179.19 1029.68 1155.75 1043.16 1146.36C1045.98 1145.73 1049.92 1146.06 1051.51 1148.52C1071.47 1179.37 1083.42 1193.79 1115.53 1213.28C1128.21 1219.82 1141.81 1224.4 1155.86 1226.87C1193.12 1233.59 1231.5 1225.04 1262.38 1203.15C1292.76 1181.63 1313.24 1148.82 1319.24 1112.08C1325.34 1075.09 1316.32 1037.21 1294.2 1006.94C1272.04 976.573 1238.65 956.34 1201.47 950.759C1159.8 944.353 1114.77 957.741 1084.32 987.14C1075.74 995.416 1069.42 1005.84 1060.23 1013.3C1058.08 1015.05 1054.74 1015.25 1052.33 1014.12C1040.84 1008.75 1053.94 993.007 1058.56 986.932C1085.8 953.523 1123.97 935.835 1166.37 931.406Z"/><path fill="#AF913A" transform="translate(-672 -712)" d="M1300.34 922.84C1305.78 927.601 1312.6 931.783 1317.11 936.328C1311.22 940.165 1309.94 941.922 1308.42 948.786C1301.92 943.452 1295.47 938.063 1289.06 932.62C1297.32 931.749 1297.77 930.197 1300.34 922.84Z"/><path fill="#3EB682" transform="translate(-672 -712)" d="M880.432 774.525C889.867 780.664 900.929 796.137 909.778 803.497C962.75 847.561 1001.94 877.9 1035.52 940.012C999.337 978.996 987.92 1002.74 975.489 1053.59C959.257 1051.55 940.433 1046.48 926.422 1037.02C918.005 1031.33 899.821 1025.21 906.788 1042.93C910.783 1053.09 939.471 1064.33 950.825 1067.39C979.261 1074.76 1016.11 1078.58 1042.24 1062.33C1048.09 1058.69 1052.14 1039.71 1063.47 1043.86C1065.3 1047.21 1064.13 1053.15 1064.23 1056.9C1066.32 1074.48 1099.29 1059.69 1108.71 1072.3C1116.58 1082.84 1106.19 1101.83 1096.91 1107.13C1079.72 1116.96 1057.94 1111.05 1039.32 1111.69C1030.15 1112 1020.94 1114.04 1011.82 1114.98C978.373 1120.12 945.5 1115.19 915.204 1100.06C906.807 1095.86 893.708 1086.28 885.172 1084.34C881.521 1085.04 880.121 1086.67 877.24 1089.04C877.148 1103 889.107 1107.44 899.823 1113.34C924.542 1126.97 950.467 1132.56 978.264 1135.72C979.939 1145.62 983.776 1155.78 987.197 1165.23C972.439 1173.44 952.557 1178.54 935.999 1181.14C926.969 1182.56 918.939 1183.24 910.2 1186.2C908.161 1192.43 898.806 1240.14 904.384 1245.53C909.698 1250.66 944.356 1253.68 943.789 1267.48C934.918 1284.23 889.518 1276.24 874.716 1269.97C872.585 1245.94 876.863 1221.29 872.277 1197.25C868.514 1177.53 855.591 1176.43 840.004 1169.69C770.959 1139.82 753.294 1060.36 775.261 993.702C792.891 937.166 827.506 893.555 854.775 841.8C866.428 819.732 874.217 798.603 880.432 774.525Z"/><path fill="#062025" transform="translate(-672 -712)" d="M966.156 951.863C990.41 959.321 963.894 979.034 951.525 982.606C931.201 988.475 916.86 985.295 898.706 976.041C893.813 971.366 886.495 963.491 894.026 957.795C922.02 952.118 916.91 990.715 966.156 951.863Z"/><path fill="#062025" transform="translate(-672 -712)" d="M887.069 912.498C893.84 909.895 901.439 913.271 904.045 920.041C906.651 926.811 903.276 934.411 896.508 937.019C889.736 939.628 882.131 936.252 879.524 929.479C876.918 922.706 880.296 915.103 887.069 912.498Z"/><path fill="#062025" transform="translate(-672 -712)" d="M966.505 903.475C973.556 902.056 980.416 906.643 981.799 913.701C983.181 920.76 978.558 927.596 971.492 928.941C964.479 930.276 957.705 925.695 956.333 918.689C954.961 911.683 959.506 904.884 966.505 903.475Z"/><path fill="#3EB682" transform="translate(-672 -712)" d="M709.509 835.315C736.909 832.459 763.344 840.902 778.812 864.823C784.724 873.965 787.105 883.419 790.063 893.741C780.118 885.547 737.562 852.158 725.534 863.464C723.118 872.032 733.271 878.674 739.581 881.777C754.769 890.195 767.313 898.217 780.215 910.075C770.139 911.444 758.078 911.848 748.064 910.19C706.899 903.374 703.344 868.745 683.234 841.123C692.706 838.658 699.767 836.805 709.509 835.315Z"/><path fill="#3EB682" transform="translate(-672 -712)" d="M1053.89 767.853C1061.7 773.306 1060.93 813.038 1056.34 823.107C1046.97 843.622 1035.77 850.738 1016.54 859.463C1023.69 843.072 1039.49 823.511 1039.01 808.517C1020.42 797.984 1007.31 835.758 1000.55 848.646C996.112 796.155 1012.71 791.447 1053.89 767.853Z"/><path fill="#3EB682" transform="translate(-672 -712)" d="M977.398 1190.09L978.175 1190.39C981.981 1196.26 972.327 1230.47 977.015 1236.14C983.516 1244 1009.58 1243 1015.61 1255.48C1016 1266.65 1002.74 1266.81 994.474 1267.88C983.899 1268.06 973.658 1266.4 963.262 1264.77C959.205 1254.63 957.329 1251.96 950.205 1244.01C952.666 1227.98 952.293 1214.9 952.292 1198.71C960.795 1196.09 969.027 1193.08 977.398 1190.09Z"/><path fill="#062025" transform="translate(-672 -712)" d="M314.367 1178.04C315.11 1178.04 318.583 1178.08 318.964 1178.3C332.307 1186.3 349.125 1209.41 361.267 1218.55C378.189 1231.28 396.586 1242.89 413.904 1253.69C461.15 1283.16 493.893 1310.78 526.032 1356.77C538.02 1343.52 547.153 1331.14 555.881 1315.48C549.806 1298.51 545.086 1283.54 550.889 1265.94C563.685 1253.43 572.44 1255.64 587.878 1262.1C596.176 1249.15 607.921 1237.57 624.253 1238.15C652.049 1239.13 669.356 1264.23 668.741 1290.25C667.965 1323.02 644.21 1336.42 626.307 1359.65C620.108 1367.69 615.716 1380.73 609.845 1389.23C596.354 1410.5 581.265 1427.16 563.262 1444.27C571.328 1489 569.48 1509.74 553.7 1553.89C618.352 1558.41 608.378 1604.95 593.163 1651.15C621.996 1659.84 630.065 1669.9 627.559 1699.9C640.789 1699.98 681.9 1698.84 691.183 1705.64C700.312 1722.05 702.803 1882.51 694.201 1891.52C673.625 1898.4 505.229 1900.86 479.461 1895.66C474.743 1884.79 474.744 1876.52 474.384 1864.83C473.043 1821.3 470.836 1777.64 472.876 1734.1C473.314 1724.74 473.951 1714.19 476.484 1705.25C487.627 1700.4 500.891 1701.28 512.99 1701.41C509.209 1674.43 515.665 1660.53 520.04 1634.08C477.947 1638.52 454.104 1654.14 414.659 1660.76C408.757 1684.02 409.436 1690.18 397.996 1714.03C392.766 1724.7 384.413 1738.07 378.243 1748.52C395.943 1765.9 405.529 1780.66 395.341 1806.2C406.869 1805.88 440.329 1803.97 448.035 1810.05C456.315 1816.58 457.501 1884.86 450.487 1892.47C446.364 1894.36 440.618 1895.77 436.259 1896.09C404.019 1898.48 265.142 1901.44 243.682 1893.83C236.145 1887.04 235.561 1814.94 243.671 1811.74C267.058 1802.49 310.057 1804.08 335.613 1804.15C331.677 1800.55 322.997 1793.3 319.186 1789.84C273.361 1748.29 311.748 1739.73 324.993 1697.23C329.606 1682.43 328.393 1669.81 327.695 1654.77C288.102 1637.82 272.645 1625.9 248.26 1591.39C246.705 1592.97 245.244 1594.63 243.883 1596.38C228.435 1616.3 239.393 1617.44 241.617 1638.83C244.128 1662.97 220.556 1675 201.465 1658.41C199.787 1660.67 198.003 1662.85 196.118 1664.94C179.163 1683.71 155.139 1686.86 136.349 1668.54C127.163 1659.6 122.007 1647.31 122.065 1634.5C122.047 1625.33 124.484 1616.32 129.121 1608.41C138.552 1592.36 153.542 1583.56 165.079 1570.04C170.588 1563.58 175.695 1549.93 180.226 1541.73C192.297 1519.91 204.162 1505.66 221.197 1488.18C221.937 1451.48 229.275 1421.17 243.176 1387.43C199.568 1399.86 165.108 1390.08 138.071 1353.38C133.71 1347.46 128.992 1341.18 124.536 1335.32C121.016 1330.69 110.907 1326.99 107.144 1321.96C94.9737 1306.38 132.677 1294.28 141.686 1290.9C176.903 1277.69 216.347 1278.85 244.848 1305.76C250.461 1311.06 260.841 1329.31 265.8 1330.35C268.754 1328.35 273.383 1318.28 275.179 1314.64C289.417 1285.76 301.11 1254.83 305.968 1222.9C307.706 1211.48 305.297 1199.02 306.909 1187.5C307.576 1182.72 310.659 1180.74 314.367 1178.04Z"/><path fill="#062025" transform="translate(-672 -712)" d="M1831.98 1289.07C1847.4 1286.6 1849.75 1296.51 1854.46 1308.5C1863.53 1306.16 1876.83 1300.35 1886.04 1302.12C1912.33 1307.55 1910.61 1347.92 1907.11 1368.01C1902.06 1396.93 1887.4 1407.76 1865.39 1422.95C1859.98 1437.28 1855.86 1443.77 1845.5 1454.91C1847.87 1455.66 1851.35 1456.67 1853.58 1457.67C1876.37 1467.87 1885.87 1500.06 1880.61 1523.07C1879.43 1528.23 1876.58 1534.48 1874.48 1539.41C1890.45 1539.42 1920.19 1540.17 1917.1 1574.54C1916.64 1579.69 1880.45 1592.87 1873.65 1594.62C1852.83 1599.99 1825.27 1616.41 1803.94 1613.42C1799.37 1612.85 1797.02 1599.74 1796.24 1596.1C1774.16 1614.58 1776.71 1616.41 1748.91 1630.52C1755.58 1709.89 1729.31 1755.34 1662.83 1796.45C1660.94 1811.52 1658.03 1828.31 1655.52 1843.38C1663.83 1845.46 1675.09 1848.44 1681.57 1853.78C1706.75 1874.52 1695.05 1902.73 1663.82 1903.97C1580.66 1907.25 1594.85 1878.56 1591.51 1816.5L1579.59 1820.16C1575.97 1840.88 1580.17 1864.01 1574.48 1884.37C1569.29 1902.98 1532.68 1903.2 1517.31 1904.52C1503.11 1905.65 1481.19 1900.99 1476.51 1885.29C1467.99 1856.72 1495.54 1849.19 1515.21 1843.54C1513.15 1830.36 1511.67 1819.04 1509.24 1805.72C1494.05 1799.08 1487.22 1796.11 1473.21 1786.74C1459.86 1802.84 1445.38 1812.8 1423.36 1809.39C1400.32 1805.82 1397.66 1791.45 1400.93 1771.9C1376.72 1765.37 1357.92 1756.35 1348.66 1731.27C1346.35 1723.25 1345.88 1714.82 1347.26 1706.59C1352.81 1671.92 1389.31 1643.83 1416.1 1625.02C1422.86 1589.97 1433.92 1570.13 1449.82 1538.26C1405.56 1542.65 1372.76 1530.37 1350.84 1489.84C1347.98 1484.56 1342.95 1470.42 1340.03 1466.37C1330.55 1453.25 1310.35 1441.25 1337.7 1431.38C1367.92 1422.22 1401.92 1418.02 1431.13 1433.67C1457.5 1447.81 1469.01 1470.1 1477.45 1497.87C1488.27 1483.49 1498.08 1467.39 1508.14 1452.46C1524.65 1427.65 1540.03 1399.95 1543.42 1369.88C1544.29 1362.07 1547.81 1347.08 1558.25 1350.74C1565.16 1353.16 1572.87 1367.89 1576.14 1373.81C1592.88 1404.18 1620.64 1424.74 1645.91 1447.46C1681.36 1478.89 1708.4 1513.49 1729.77 1555.91C1746.87 1546.72 1760.2 1532.04 1770.31 1515.74C1765.61 1496.07 1769.42 1487.49 1782 1472.64C1770.18 1471.06 1763.17 1467.42 1753.66 1460.85C1730.42 1469.05 1707.97 1464.59 1688.54 1449.66C1670.03 1435.43 1637.91 1394.95 1668.81 1376.9C1674.97 1373.31 1685.73 1370.03 1692.77 1367.34C1692.26 1366.16 1691.78 1364.98 1691.34 1363.77C1689.08 1357.48 1686.59 1350.95 1690.05 1344.58C1698.09 1329.77 1809.13 1295.21 1831.98 1289.07ZM1718.48 1444.65C1725.91 1446.38 1730.51 1447.1 1738.11 1448.04C1728.82 1437.98 1723.35 1432.09 1715.52 1420.52C1710.6 1413.24 1700.32 1384.51 1696.17 1382.75C1683.22 1389.18 1668.02 1393.47 1678.48 1411.19C1686.64 1425.03 1702.9 1440.12 1718.48 1444.65ZM1860.27 1326.9C1867.04 1356.45 1867.48 1365.04 1869.68 1394.68L1871.22 1395.51L1872.69 1395.06C1885.64 1382.64 1890.85 1368.28 1891.61 1350.62C1891.98 1341.99 1890.54 1320.55 1879.61 1320.18L1860.27 1326.9Z"/><path fill="#062025" transform="translate(-672 -712)" d="M388.706 156.743C407.497 157.187 413.125 180.937 424.543 193.461C446.451 217.491 476.476 248.658 503.083 266.992C506.096 218.5 527.095 191.813 569.91 169.777C577.054 166.1 582.953 155.633 592.009 159.721C602.271 164.354 599.168 176.218 601.281 185.042C618.991 243.542 605.682 290.921 546.05 313.705C573.781 351.899 594.155 391.432 596.988 439.325C598.348 462.316 594.65 475.141 605.471 496.818C608.063 504.638 625.251 530.574 634.484 529.027C654.363 525.695 688.006 530.426 673.55 560.877C699.032 602.897 650.073 622.685 614.418 608.037C611.499 620.666 608.427 630.446 599.395 640.383C574.671 667.584 518.1 672.229 482.842 673.864C472.228 706.941 450.914 736.703 416.27 704.765L410.356 710.738C380.647 733.589 358.131 704.414 353.485 675.699C320.941 674.542 277.815 672.02 248.96 656.184C230.498 646.051 225.101 632.236 219.86 613.435C218.49 613.781 217.116 614.11 215.738 614.422C193.378 619.451 156.09 616.408 155.46 584.855C155.326 578.119 157.792 574.2 161.675 568.814C153.07 537.641 175.019 527.44 202.329 534.534C243.553 509.464 236.576 456.978 249.948 417.136C260.639 385.282 273.19 364.655 287.756 335.811C264.111 335.901 246.697 336.143 225.551 323.998C195.915 306.976 183.039 278.241 170.651 248.068C168.373 242.521 160.276 236.594 159.091 229.689C157.136 218.303 168.016 214.712 176.712 211.866C222.603 194.071 277.325 205.047 302.947 249.829C310.371 262.804 313.098 276.704 316.329 291.311C321.401 286.057 326.487 278.654 330.801 272.87C353.1 242.975 374.009 210.835 379.603 173.231C380.732 165.646 382.489 161.438 388.706 156.743Z"/><path fill="#062025" transform="translate(-672 -712)" d="M1491.9 236.597C1509.48 236.332 1552.98 258.399 1565.49 271.527C1583.2 290.101 1585.72 310.545 1585.53 335.01C1605.43 322.662 1635.48 297.383 1652.98 281.411C1665.34 271.309 1674.98 254.217 1687.31 245.103C1698.63 236.741 1703.32 252.267 1703.5 260.456C1704.18 291.594 1718.42 317.798 1732.4 344.779C1746.69 283.531 1792.69 262.944 1850.91 277.645C1865.68 281.372 1882.29 284.047 1864.77 302.375C1860.22 307.074 1857.17 314.624 1854.64 320.772C1834.62 369.268 1804.42 387.687 1750.97 380.581C1766.66 411.767 1774.21 427.162 1785.36 460.557C1791.59 455.784 1799.25 450.364 1804.36 444.586C1807.76 424.3 1805.28 387.708 1839.34 409.272C1880.43 380.311 1909.87 427.888 1888 463.085C1881.2 474.015 1863.02 481.952 1853.33 490.034C1845.59 496.492 1838.15 504.268 1830.57 511.141C1819.16 521.533 1806.9 530.955 1793.92 539.309C1795.51 587.644 1770.68 621.452 1737.48 652.888C1742.91 665.474 1748.06 678.176 1752.94 690.985L1771.59 688.521C1781.72 689.926 1790.17 691.676 1798.08 699.222C1802.46 703.402 1804.53 709.338 1804.42 715.42C1804.3 725.851 1797.27 734.508 1789.79 741.37C1776.27 753.774 1736.71 774.104 1720.38 758.964C1711.57 750.801 1702.08 730.715 1694.92 719.85C1685.91 706.171 1676.48 693.892 1665.98 681.167C1635.87 683.782 1600.52 680.911 1573.16 667.294C1562.6 675.647 1547.57 688.679 1538.33 698.365C1529.46 707.633 1514.82 732.568 1504.15 737.865C1482.61 748.563 1442.27 719.961 1432.24 701.235C1424.32 686.445 1426.2 670.975 1442 664.278C1456.33 658.209 1469.36 662.396 1482.77 667.674C1489.64 649.534 1499.58 638.615 1513.05 625.299C1484.8 587.148 1476.04 557.448 1481.23 510.253C1471.68 501.826 1458.11 491.156 1450.76 481.128C1445.49 473.924 1441.63 464.353 1435.3 457.169C1421.35 441.389 1404.78 431.894 1398.92 410.311C1393.67 390.978 1406.82 368.177 1426.35 363.248C1437.11 360.534 1448.9 369.412 1457.52 375.65C1488.5 363.157 1492.88 389.433 1486.47 413.469C1490.96 420.215 1497.42 427.488 1502.71 433.79C1517.7 409.33 1529.21 390.02 1549.27 369.163C1496.46 348.979 1479.51 321.015 1486.37 263.838C1487.73 252.487 1481.17 246.023 1491.9 236.597Z"/></g></svg>