<?xml version="1.0" encoding="utf-8" ?><svg xmlns="http://www.w3.org/2000/svg" xmlns:xlink="http://www.w3.org/1999/xlink" width="728" height="777" viewBox="0 0 728 777"><clipPath id="mascot-pushing-coin-alt-cl_1e"><rect width="728" height="777"/></clipPath><g clip-path="url(#mascot-pushing-coin-alt-cl_1e)"><path fill="#09262C" transform="translate(-36 -62)" d="M540.167 207.389C604.914 203.673 655.543 246.773 662.441 311.27C665.458 342.08 656.131 372.829 636.508 396.772C614.677 423.427 588.797 434.232 555.44 437.504C554.868 443.113 554.121 448.703 553.202 454.266C545.414 499.402 523.201 523.582 487.148 548.827C487.502 612.129 466.032 648.643 413.075 681.202C412.153 690.554 411.379 699.92 410.753 709.297C424.414 714.807 450.095 727.704 443.68 747.385C433.018 773.403 402.514 767.303 382.355 762.897C340.457 753.741 362.165 717.503 353.603 702.065C351.844 702.743 349.758 703.646 349.371 705.74C343.158 739.354 354.495 759.807 312.508 767.943C283.436 773.577 243.705 768.389 263.957 727.932C267.979 719.896 285.369 716.572 293.434 715.319C293.345 708.015 293.049 700.489 292.855 693.165C255.931 678.162 240.387 668.661 219.275 633.152C205.094 661.296 180.344 677.75 158.2 646.064C139.23 605.685 179.804 547.418 209.234 522.217C212.581 500.086 225.319 471.325 236.611 452.147C197.129 462.322 168.045 450.4 146.178 415.551C141.478 409.693 135.605 396.216 130.055 391.684C115.163 379.524 111.962 370.722 133.92 361.396C170.519 345.853 216.242 347.689 241.165 382.917C248.504 393.291 252.479 402.737 257.195 414.562C279.107 380.743 299.026 349.844 300.075 307.944C300.279 299.82 305.306 290.513 314.491 296.664C324.655 303.47 331.969 314.827 340.917 323.109C372.816 351.387 404.389 379.516 430.572 413.382C444.924 431.945 455.217 451.617 467.903 471.111C475.536 463.384 479.192 458.958 481.979 448.43C476.942 434.33 476.699 431.453 480.43 416.871C477.661 414.678 474.928 412.441 472.231 410.161C449.698 390.929 434.857 361.176 432.564 331.684C430.079 300.831 440.142 270.279 460.476 246.942C482.411 221.65 507.069 209.656 540.167 207.389Z"/><path fill="#41B685" transform="translate(-36 -62)" d="M316.596 322.364C360.634 365.482 408.639 401.615 438.721 455.646C444.269 465.612 451.905 488.296 462.271 492.139C478.731 492.31 502.896 458.315 496.357 442.656C493.431 435.65 491.895 419.988 498.026 414.327L500.438 415.15C506.919 422.471 508.534 432.232 510.926 441.666C522.386 438.791 525.492 437.553 537.136 439.33C535.185 492.145 510.408 512.068 470.461 540.813C470.067 545.568 470.034 553.909 469.998 559.03C469.746 593.234 455.831 629.681 428.447 651.23C418.902 658.741 407.964 662.783 399.053 671.574C395.812 686.596 392.45 705.516 392.429 720.637C401.311 725.657 431.882 731.267 427.158 744.412C422.189 749.4 415.226 750.656 408.361 750.412C365.562 748.892 370.832 735.202 372.228 700.75C372.293 697.695 372.522 692.67 371.97 689.798C369.016 674.442 344.903 682.365 335.478 684.941C330.865 694.964 330.257 713.142 330.446 724.429C330.939 753.842 316.229 751.817 292.199 753.399C287.271 753.724 278.439 752.361 275.642 748.02C265.776 732.707 300.263 731.455 307.365 726.079C312.962 716.984 309.338 693.102 307.037 683.513L306.763 682.412C298.931 677.526 287.739 673.988 279.332 669.712C251.943 655.779 237.902 636.192 227.996 607.942C232.3 602.407 246.568 587.027 240.494 580.398C217.325 574.076 206.172 624.751 197.692 638.785C187.482 655.684 168.088 643.239 168.912 627.385C171.1 585.278 198.323 554.917 226.465 526.813C238.167 463.881 284.449 417.295 306.387 358.663C311 346.334 313.785 335.117 316.596 322.364Z"/><path fill="#09262C" transform="translate(-36 -62)" d="M384.807 473.645C389.153 473.958 394.849 474.656 394.919 479.634C395.311 507.39 354.052 519.959 332.458 508.756C326.597 505.714 323.497 504.108 318.81 501.243C314.017 496.742 309.788 489.909 312.7 483.35C333.212 474.508 346.473 527.035 384.807 473.645Z"/><path fill="#09262C" transform="translate(-36 -62)" d="M319.092 442.506C324.818 440.486 331.115 443.36 333.341 449.008C335.567 454.657 332.923 461.054 327.358 463.482C323.575 465.133 319.193 464.587 315.932 462.057C312.67 459.527 311.051 455.418 311.71 451.344C312.369 447.269 315.2 443.879 319.092 442.506Z"/><path fill="#09262C" transform="translate(-36 -62)" d="M373.827 434.524C377.633 432.883 382.034 433.47 385.276 436.052C388.519 438.633 390.078 442.79 389.332 446.868C388.586 450.945 385.656 454.281 381.709 455.547C376 457.378 369.858 454.405 367.753 448.791C365.648 443.176 368.321 436.898 373.827 434.524Z"/><path fill="#F6A921" transform="translate(-36 -62)" d="M541.112 220.398C565.916 217.339 595.704 229.049 614.435 244.892C635.21 262.465 647.982 287.702 649.839 314.849C651.839 342.492 642.667 369.782 624.379 390.606C605.492 412.202 580.905 423.38 552.504 425.14C540.002 425.328 534.962 425.307 522.968 422.166C516.149 401.395 506.696 393.996 485.977 404.612C464.887 385.031 449.858 364.291 446.41 335.021C443.022 307.493 450.973 279.77 468.435 258.222C487.139 235.133 511.935 223.392 541.112 220.398Z"/><path fill="#09262C" transform="translate(-36 -62)" d="M540.058 241.452C584.911 237.011 624.894 269.72 629.429 314.564C633.965 359.408 601.341 399.459 556.507 404.09C511.538 408.735 471.34 375.992 466.79 331.013C462.241 286.034 495.069 245.905 540.058 241.452Z"/><path fill="#F6A921" transform="translate(-36 -62)" d="M541.185 254.472C579.05 250.698 612.784 278.384 616.468 316.257C620.153 354.13 592.388 387.799 554.507 391.394C516.751 394.978 483.218 367.326 479.545 329.578C475.873 291.831 503.447 258.233 541.185 254.472Z"/><path fill="#09262C" transform="translate(-36 -62)" d="M545.494 271.441C555.228 273.849 561.449 290.94 565.06 299.214C602.856 303.553 602.185 308.62 576.488 332.95C586.509 369.164 578.943 370.518 549.417 354.863C542.138 354.569 529.389 364.042 520.604 366.17C511.691 363.735 517.596 340.774 518.877 333.267C512.639 327.842 498.207 317.07 501.144 307.902C506.824 300.811 520.795 300.695 530.004 299.664C534.821 289.405 538.539 280.354 545.494 271.441Z"/><path fill="#EDC83A" transform="translate(-36 -62)" d="M547.339 289.674C550.545 293.039 556.11 304.565 558.552 309.326L580.905 313.499C574.462 319.402 570.962 322.643 565.461 329.318C565.899 336.212 567.556 344.775 568.712 351.728L549.719 341.845C544.055 342.119 533.01 347.964 527.422 350.671L530.509 330.28C525.693 324.321 520.202 318.777 514.896 313.235L537.097 309.358L547.339 289.674Z"/><path fill="#41B685" transform="translate(-36 -62)" d="M171.145 367.291C212.045 364.613 229.684 386.402 240.483 422.582C234.218 418.053 227.856 413.661 221.401 409.408C212.839 403.877 192.922 391.877 182.52 394.116C179.61 396.708 180.368 395.172 179.749 398.649C182.678 405.25 196.523 410.366 203.358 413.448C216.527 420.838 225.438 427.209 237.259 436.251C172.034 451.208 171.947 416.381 139.16 377.334C151.691 371.901 157.762 369.765 171.145 367.291Z"/><path fill="#09262C" transform="translate(-36 -62)" d="M991.825 938.791C991.553 929.044 991.012 919.557 992.974 909.932C998.463 883.101 1024.3 865.171 1045.48 850.468C1063.14 838.207 1061.77 857.779 1064.39 865.942C1079.81 913.971 1070.38 948.55 1022.94 969.94C1032.09 979.607 1037.92 988.262 1045.34 998.84C1073.6 1039.11 1081.54 1075.38 1080.49 1123.83C1102.37 1103.07 1117.08 1076.71 1138.74 1056.08C1155.6 1040.03 1169.01 1049.32 1182.28 1063.24C1192.51 1073.98 1201.45 1085.2 1210.62 1096.79C1221.35 1081.84 1279.5 983.428 1280.39 971.272C1277.66 969.026 1262.07 964.381 1253.9 958.489C1234.98 946.227 1226.8 925.487 1221.75 904.412C1220.45 898.982 1213.52 886.89 1219.24 882.97C1225.45 878.705 1235.55 880.526 1242.46 881.635C1274.42 886.765 1286.56 895.277 1304.77 921.361C1306.72 918.626 1309.45 913.723 1311.1 910.759C1322.57 890.252 1337.91 876.841 1361.32 871.583C1370.43 869.537 1402.33 863.462 1410.99 869.256C1412.08 869.987 1412.74 871.507 1412.98 872.906C1413.99 878.889 1408.1 885.874 1406.51 891.262C1402.88 903.885 1400.95 916.761 1397.01 929.33C1387.3 960.334 1361.22 965.319 1333.29 970.859C1322.89 999.399 1249.62 1153.49 1232.99 1169.87C1228.38 1174.41 1222.96 1176.74 1216.43 1176.45C1197.46 1175.62 1168.48 1136.62 1155.91 1122.56C1138.32 1141.56 1121.31 1166.06 1105.01 1186.41C1095.91 1198.15 1089.01 1210.69 1077.71 1220.56C1059.56 1236.41 1048.02 1223.16 1035.66 1208.59C1028.31 1212.05 1019.18 1217.68 1011.99 1221.84C1011.15 1231.05 1009.83 1241.63 1010.59 1250.71C1042.68 1259.35 1056.41 1291.91 1016.22 1301.48C1004.87 1304.18 978.886 1299.97 969.643 1293.12C962.473 1287.8 960.498 1280.44 959.707 1271.56C959.514 1263.98 959.958 1248.55 956.023 1242.71L954.61 1242.9C951.074 1249.59 950.96 1267.89 951.112 1275.98C945.07 1319.02 849.59 1317.03 873.065 1270.02C877.347 1261.45 892.592 1256.77 901.614 1254.97C902.008 1237.84 903.379 1236.54 886.526 1230.32C828.326 1208.82 808.267 1145.99 818.121 1088.9C822.904 1061.2 832.678 1038.94 842.922 1013.39C778.37 1028.75 771.477 990.93 736.27 950.886C730.865 944.74 738.543 937.131 743.451 934.661C777.673 917.435 820.797 915.494 845.447 949.662C852.813 959.726 855.522 967.572 861.199 978.06C873.381 956.54 884.993 934.54 892.656 910.702C897.505 897.515 893.029 882.121 898.877 869.473C900.584 865.782 907.402 864.681 910.116 867.03C920.176 875.739 929.126 886.056 939.162 894.774C956.433 909.777 974.378 923.955 991.825 938.791Z"/><path fill="#09262C" transform="translate(-36 -62)" d="M389.229 313.154C396.287 312.738 416.341 312.544 418.011 320.827C416.64 323.815 415.585 324.12 412.798 325.849C406 327.161 383.154 329.164 383.394 318.014C385.887 314.877 385.697 314.95 389.229 313.154Z"/><path fill="#09262C" transform="translate(-36 -62)" d="M457.391 179.508C469.413 181.121 477.764 198.519 474.818 210.557C461.989 210.317 453.051 190.099 457.391 179.508Z"/><path fill="#09262C" transform="translate(-36 -62)" d="M545.946 155.408C557.566 160.418 555.299 183.821 548.481 191.573C536.303 184.875 539.429 164.951 545.946 155.408Z"/><path fill="#09262C" transform="translate(-36 -62)" d="M685.355 313.335C691.363 312.937 712.392 312.538 711.595 321.317C709.217 324.183 707.777 324.368 704.302 325.667C698.718 325.978 676.585 327.188 677.901 318.025C680.936 315.023 681.307 315.007 685.355 313.335Z"/><path fill="#09262C" transform="translate(-36 -62)" d="M402.453 235.664C412.31 237.7 435.333 245.518 427.346 258.924C419.636 258.343 404.316 249.873 400.893 242.477C399.676 239.848 401.302 237.849 402.453 235.664Z"/><path fill="#09262C" transform="translate(-36 -62)" d="M631.918 176.787L634.795 178.353C640.77 187.251 627.503 203.137 621.139 209.297L617.466 207.432C611.907 198.474 625.24 181.779 631.918 176.787Z"/><path fill="#09262C" transform="translate(-36 -62)" d="M684.998 232.127C688.265 231.684 690.621 232.298 693.029 234.447L692.979 236.978C688.883 244.414 677.802 250.258 670.294 253.858C667.581 254.411 665.94 254.319 663.58 253.102L662.999 250.84C665.167 244.594 678.984 236.167 684.998 232.127Z"/></g></svg>