<?xml version="1.0" encoding="utf-8" ?><svg xmlns="http://www.w3.org/2000/svg" xmlns:xlink="http://www.w3.org/1999/xlink" width="666" height="665" viewBox="0 0 666 665"><clipPath id="mascot-reading-cl_16"><rect width="666" height="665"/></clipPath><g clip-path="url(#mascot-reading-cl_16)"><path fill="#01090A" transform="translate(0 -1347)" d="M266.603 1541.67C286.584 1518.7 306.757 1489.16 316.298 1460.23C320.372 1450.09 320.563 1439.14 324.397 1429.07C326.003 1424.85 333.052 1424.4 335.948 1426.72C348.24 1436.6 354.593 1454.35 366.513 1464.46C434.892 1522.5 493.691 1571.3 508.91 1665.41C545.407 1695.05 572.816 1739.43 535.373 1780.83C518.969 1795.95 512.67 1793.72 493.708 1798.36C502.864 1801.99 511.067 1804.39 520.461 1807.2C528.366 1796.28 531.599 1792.27 544.079 1785.71C550.441 1783.76 556 1782.85 562.523 1784.8C569.525 1786.9 575.002 1791.59 578.436 1798.01C584.928 1810.16 582.392 1825.65 578.382 1838.23C574.024 1851.91 565.053 1870.77 551.514 1877.27C534.002 1885.68 465.426 1859.75 446.073 1852.9C435.781 1921.51 405.34 1923.68 351.317 1890.4C316.364 1868.86 260.328 1847.37 232.603 1820.52C229.845 1820.7 227.083 1820.82 224.32 1820.89C167.502 1822.02 140.922 1766.17 169.17 1720.03C179.96 1702.4 187.757 1693.63 202.244 1679.06C211.658 1638.03 225.599 1609.58 246.996 1573.82C228.023 1575.41 210.478 1574.52 193.092 1566.07C176.581 1558.22 163.723 1544.32 157.184 1527.25C155.416 1522.52 152.321 1511.48 149.766 1507.87C140.283 1494.48 122.003 1484.38 149.559 1475.69C206.902 1457.62 255.696 1480.1 266.603 1541.67Z"/><path fill="#3FB584" transform="translate(0 -1347)" d="M336.463 1456.57C345.017 1463.62 354.394 1477.15 363.699 1485.11C417.192 1530.86 474.115 1578.2 488.158 1651.37C493.167 1677.46 498.24 1676.84 516.445 1692.82C537.463 1712.75 545.466 1747.62 524.116 1770.66C504.283 1792.07 455.086 1780.23 474.669 1747.58C478.279 1741.56 489.354 1740.33 494.874 1736.79C495.175 1736.6 497.816 1732.81 499.415 1731.56C502.574 1735.81 506.34 1743.04 511.881 1742.01C522.606 1727.4 501.18 1717.56 500.301 1709.38C498.885 1696.19 509.698 1680.3 485.749 1679.68C484.427 1679.64 473.834 1671.02 471.491 1669.15C439.308 1676.56 422.335 1684.76 402.668 1710.94C398.512 1707.28 394.163 1703.84 389.637 1700.64C368.723 1686.02 333.478 1675.08 307.878 1679.61C300.332 1683.55 300.059 1687.85 293.453 1691.94C292.531 1692.51 287.027 1691.31 284.861 1694.33C280.842 1699.94 280.792 1712.63 280.312 1719.49C260.847 1721.48 256.579 1735.62 239.863 1742.32C230.741 1745.97 219.101 1742.07 212.058 1751.21C211.159 1755.96 214.498 1759.68 218.916 1760.15C232.09 1761.54 249.165 1754.33 259.768 1746.92C266.432 1742.27 270.308 1738.18 276.997 1734.22C277.448 1738.87 277.536 1744.45 280.837 1748.02C293.124 1761.55 327.99 1744.32 317.951 1775.93C310.152 1800.49 288.557 1796.88 269.732 1790.62C241.613 1803.66 203.054 1818.91 180.333 1784.93C161.75 1757.13 182.9 1721.49 202.526 1700.97C209.263 1693.93 227.231 1683.92 229.018 1675.14C227.536 1670.88 227.122 1671.65 222.971 1668.25C228.058 1637.71 260.139 1585.08 277.696 1558.55C289.425 1541.84 301.729 1525.98 312.387 1508.52C322.826 1491.42 329.664 1475.19 336.463 1456.57Z"/><path fill="#01090A" transform="translate(0 -1347)" d="M402.952 1655.64C406.761 1656.28 407.918 1656.56 410.364 1659.35C411.125 1661.64 411.779 1664.08 410.417 1666.26C399.424 1683.9 380.758 1682.18 365.309 1674.27C361.356 1670.17 356.158 1663.91 361.568 1658.82C368.769 1657.41 377.773 1665.47 386.462 1667.98C393.021 1666.55 398.091 1660.44 402.952 1655.64Z"/><path fill="#01090A" transform="translate(0 -1347)" d="M345.815 1618.52C352.29 1616.61 359.083 1620.34 360.937 1626.83C362.79 1633.33 358.992 1640.08 352.482 1641.88C346.059 1643.64 339.41 1639.91 337.582 1633.5C335.753 1627.1 339.426 1620.41 345.815 1618.52Z"/><path fill="#01090A" transform="translate(0 -1347)" d="M411.515 1614.5C417.897 1612.54 424.661 1616.14 426.593 1622.53C428.526 1628.92 424.891 1635.67 418.489 1637.57C412.132 1639.46 405.446 1635.85 403.527 1629.51C401.609 1623.16 405.178 1616.45 411.515 1614.5Z"/><path fill="#FEF3E1" transform="translate(0 -1347)" d="M295.434 1705.65C324.139 1713.74 352.763 1722.12 381.302 1730.77C377.708 1766.55 374.49 1802.37 371.648 1838.22L341.048 1829.84C330.474 1827.12 295.795 1819.01 288.207 1814.4L287.881 1812.88C297.791 1806.57 308.332 1809.54 320.497 1799.31C328.948 1792.21 333.561 1782.83 334.126 1771.82C336.286 1729.74 304.561 1748.16 295.339 1736.55C289.887 1729.69 294.173 1713.48 295.434 1705.65Z"/><path fill="#3FB584" transform="translate(0 -1347)" d="M268.767 1807.97C271.822 1808.22 270.542 1807.62 272.673 1809.96C273.725 1814.74 272.558 1819.24 271.786 1824.17C284.021 1829.26 301.156 1832.92 314.172 1836.38C334.115 1841.67 354.287 1847.32 374.337 1852.08C374.354 1852.1 374.371 1852.12 374.388 1852.14C375.078 1852.96 375.779 1853.78 376.491 1854.58C394.225 1874.47 396.2 1822.11 417.956 1827.07C435.54 1831.08 427.556 1862.7 425.259 1874.3C417.777 1896.31 409.794 1900.49 388.425 1890.91C353.842 1875.4 322.146 1854.7 288.401 1837.6C275.038 1830.83 263.693 1825.3 251.784 1815.95L268.767 1807.97Z"/><path fill="#FEF3E1" transform="translate(0 -1347)" d="M485.915 1698.28C488.265 1701.49 486.199 1719.11 485.823 1724.1C476.201 1726.52 469.088 1729.28 462.578 1737.43C456.209 1745.56 453.561 1756 455.284 1766.18C457.53 1780.24 465.51 1787.41 476.022 1795.28L474.837 1805.51C463.785 1811.46 452.67 1817.29 441.496 1823.01C436.337 1821.37 435.882 1814.85 419.185 1811.02C422.497 1788.04 425.197 1751.52 427.214 1728.06C446.001 1717.54 466.519 1707.83 485.915 1698.28Z"/><path fill="#3FB584" transform="translate(0 -1347)" d="M551.582 1800.95C574.841 1801.38 563.775 1832.06 558.29 1844.61C550.834 1861.63 545.284 1865.27 527.114 1861.21C508.06 1856.96 490.136 1850.3 471.766 1844.05L447.071 1835.81C459.58 1828.27 474.5 1820.83 487.569 1814.33C502.175 1820.31 511.435 1824.42 527.072 1827.38C535.717 1813.91 537.835 1808.96 551.582 1800.95Z"/><path fill="#3FB584" transform="translate(0 -1347)" d="M176.217 1487.28C218.401 1484.96 236.898 1499.15 248.153 1539.46C239.793 1532.63 216.205 1512.7 205.47 1520.3C201.425 1527.51 205.094 1530.64 210.001 1535.47C222.754 1543.04 228.293 1546.87 239.255 1556.81C228.37 1557.47 220.853 1557.9 210.256 1555.04C176.858 1546.04 174.635 1517.79 160.024 1492.6L159.161 1491.13C164.861 1489.53 170.423 1488.46 176.217 1487.28Z"/><path fill="#FEF3E1" transform="translate(0 -1347)" d="M409.758 1733.52L412.04 1733.24C415.105 1737.74 407.436 1800.17 406.6 1811.32C397.258 1815.5 395.25 1816.99 388.643 1824.78L387.358 1825.89L386.542 1825.05C386.934 1801.14 391.055 1758.15 394.175 1733.94C399.243 1733.97 404.665 1733.69 409.758 1733.52Z"/><path fill="#FEF3E1" transform="translate(0 -1347)" d="M314.557 1690.03C334.294 1690.02 360.273 1697.8 377.839 1707.17C381.238 1708.98 391.26 1715.51 391.464 1719.28L389.731 1719.38C373.842 1715.13 357.568 1710.07 341.665 1705.7C334.423 1703.71 315.688 1698.67 309.514 1695.52C310.742 1692.09 311.091 1692.72 314.557 1690.03Z"/><path fill="#FEF3E1" transform="translate(0 -1347)" d="M465.53 1682.97C469.096 1683.18 474.369 1684.73 475.543 1688.4C471.219 1692.37 431.743 1710.8 422.708 1715.4L411.157 1721.19C426.261 1697.3 440.006 1691.88 465.53 1682.97Z"/><path fill="#FEF3E1" fill-opacity="0.031372551" transform="translate(0 -1347)" d="M493.708 1798.36C512.67 1793.72 518.969 1795.95 535.373 1780.83L536.244 1785.06C539.085 1786.63 540.122 1785.52 544.079 1785.71C531.599 1792.27 528.366 1796.28 520.461 1807.2C511.067 1804.39 502.864 1801.99 493.708 1798.36Z"/></g></svg>