<?xml version="1.0" encoding="utf-8" ?><svg xmlns="http://www.w3.org/2000/svg" xmlns:xlink="http://www.w3.org/1999/xlink" width="1016" height="589" viewBox="0 0 1016 589"><clipPath id="mascot-riding-wave-cl_3a"><rect width="1016" height="589"/></clipPath><g clip-path="url(#mascot-riding-wave-cl_3a)"><path fill="#08262B" transform="translate(-68 -753)" d="M573.961 844.356C629.816 838.65 682.658 864.658 705.012 918.361C708.849 927.579 711.094 937.672 714.922 946.987C722.931 966.479 731.039 986.15 733.394 1007.25C736.183 1028.51 734.364 1068.77 706.251 1073.58C699.342 1074.76 690.945 1068.53 685.766 1063.6C657.762 1083.62 648.092 1077.55 654.626 1114.45C672.052 1118.64 678.1 1122.47 685.632 1138.45C703.652 1130.67 717.924 1123.28 734.35 1112.33C781.795 1080.71 824.922 1039.77 881.649 1025.37C911.42 1017.8 955.376 1015.29 982.887 1031.9C995.641 1039.48 1004.67 1052.02 1007.8 1066.53C1010.1 1076.97 1006.58 1091.36 1000.64 1100.26C977.791 1134.48 936.137 1112.03 904.031 1114.1C851.4 1117.51 806.219 1169.98 763.111 1196.63C733.105 1215.18 710.908 1226.64 676.254 1234.6C608.633 1251.12 532.505 1233.01 474.834 1197.21C409.605 1156.72 342.162 1115.74 265.226 1153.77C258.128 1157.81 246.931 1163.71 240.583 1168.49C227.231 1178.55 208.282 1166.49 215.386 1152.49C227.589 1128.43 259.862 1108.33 284.18 1097.55C336.298 1074.45 394.612 1077.97 446.538 1099.89C467.003 1108.13 486.485 1118.09 506.382 1125.64C513.417 1115.4 517.862 1111.94 529.938 1109.49C530.828 1101.61 532.825 1091.27 525.306 1086.42C515.088 1079.83 506.122 1074.1 496.51 1066.45C491.494 1072.8 485.76 1078.31 477.626 1080.35C471.766 1081.86 465.542 1080.8 460.513 1077.43C450.9 1071.07 444.622 1057.53 442.508 1046.61C435.113 1008.42 451.92 979.876 466.385 947.204C473.779 930.503 472.051 919.029 485.415 899.757C509.41 865.155 534.604 852.991 573.961 844.356ZM581.093 1149.71C589.216 1150.51 595.63 1150.88 603.799 1151.09C603.827 1134.76 603.278 1118.44 602.152 1102.15C595.257 1102.08 588.132 1101.91 581.26 1101.97C581.193 1114.38 580.264 1138.19 581.093 1149.71Z"/><path fill="#43B682" transform="translate(-68 -753)" d="M592.971 856.459C698.716 858.818 742.585 1001.33 661.265 1064.06C653.553 1070 636.555 1077.86 636.187 1087.55C636.007 1092.31 637.358 1099.26 637.156 1104.34C633.99 1137.92 657.721 1123.9 669.76 1137.44C670.681 1141.14 670.77 1139.32 669.107 1143.07C660.794 1149.39 629.153 1150.77 617.826 1151.09C616.472 1133.13 618.928 1106 611.8 1090.17C609.079 1084.13 574.017 1084.73 570.226 1089.98C564.636 1097.72 569.979 1138.96 565.32 1144.65L561.782 1144.8C549.172 1142.46 530.611 1135.85 518.624 1130.96C529.531 1123.82 540.506 1124.16 545.536 1115.88C549.117 1109.99 545.456 1089.8 543.397 1083.33C535.669 1074.6 524.409 1070.05 515.005 1063.13C507.044 1057.28 503.391 1052.69 497.552 1044.92C496.086 1028.95 499.879 1014.43 502.848 998.967C503.269 996.775 501.648 995.296 500.344 993.941C474.122 985.533 494.859 1058.95 474.421 1067.3C459.776 1067.34 456.467 1046.6 455.246 1035.74C450.724 995.501 475.51 967.515 486.387 930.837C500.853 882.057 544.709 859.818 592.971 856.459Z"/><path fill="#08262B" transform="translate(-68 -753)" d="M638.896 945.829C643.233 946.302 647.201 947.073 647.339 951.967C639.529 968.6 609.325 968.381 593.735 965.058C588.731 962.675 584.7 960.713 584.782 954.508C591.047 947.068 609.118 955.588 617.84 954.359C625.631 953.262 632.244 949.608 638.896 945.829Z"/><path fill="#08262B" transform="translate(-68 -753)" d="M576.834 911.494C580.806 910.295 585.116 911.365 588.065 914.284C591.014 917.203 592.129 921.501 590.971 925.486C589.813 929.47 586.568 932.501 582.514 933.384C576.576 934.678 570.676 931.052 569.15 925.169C567.624 919.287 571.016 913.25 576.834 911.494Z"/><path fill="#08262B" transform="translate(-68 -753)" d="M640.96 906.481C644.92 905.563 649.067 906.863 651.796 909.876C654.524 912.89 655.406 917.146 654.1 920.996C652.794 924.846 649.505 927.686 645.506 928.418C639.519 929.514 633.753 925.63 632.518 919.67C631.283 913.71 635.031 907.855 640.96 906.481Z"/><path fill="#74BDF6" transform="translate(-68 -753)" d="M236.463 1146.3C269.099 1112.96 311.743 1097.2 357.983 1095.8C411.578 1094.18 454.514 1120.16 501.984 1140.39C556.073 1163.23 616.067 1174.22 673.516 1157.65C769.992 1129.81 832.397 1021.55 941.772 1033.65C961.985 1035.88 995.042 1048.03 994.867 1073.01C994.809 1081.27 989.727 1093.17 983.677 1098.8C976.85 1105.33 965.058 1106.7 956.02 1105.75C934.505 1103.48 923.27 1097.88 900.983 1100.56C852.088 1106.44 817.554 1139.91 780.03 1167.98C740.546 1197.51 699.001 1220.31 649.13 1225.79C605.325 1230.47 561.063 1223.46 520.847 1205.47C445.88 1172.81 382.887 1107.01 292.415 1129.65C272.14 1134.72 256.296 1143.41 238.135 1153.24L226.046 1160.9C229.976 1154.39 231.549 1152.07 236.463 1146.3Z"/><path fill="#43B682" transform="translate(-68 -753)" d="M717.047 996.583C718.721 1000.71 719.902 1007.97 720.152 1012.44C721.142 1030.12 724.31 1057.36 700.76 1059.7C699.29 1058.13 697.957 1056.52 696.562 1054.89C695.106 1046.49 703.629 1040.24 706.191 1033.5C710.339 1022.6 714.081 1007.91 717.047 996.583Z"/><path fill="#08262B" transform="translate(-68 -753)" d="M922.165 862.309C936.807 862.28 933.667 876.654 931.404 887.024C927.601 904.457 923.22 951.743 912.925 963.85C902.726 968.044 891.434 950.737 885.646 943.713C875.714 954.558 829.358 1010.49 817.983 1011.43C811.733 1011.95 805.825 1004.71 801.776 1000.78C758.338 959.282 787.201 961.665 822.704 926.906C829.152 920.594 840.766 913.501 848.359 908.219C842.584 901.648 829.284 887.218 831.004 878.322C838.936 869.506 904.621 865.916 921.108 862.535L922.165 862.309Z"/><path fill="#74BDF6" transform="translate(-68 -753)" d="M916.82 877.412C918.113 877.539 917.293 877.361 919.1 878.482C919.201 888.67 909.478 934.902 907.254 948.484C899.645 940.222 895.442 934.655 885.196 929.616C863.695 948.315 836.948 977.505 817.264 998.971L806.244 986.648L792.593 970.896C813.2 949.203 846.084 930.572 866.604 907.496C860.525 899.241 854.166 892.698 846.956 885.458C869.232 883.497 893.868 879.704 916.82 877.412Z"/></g></svg>