<?xml version="1.0" encoding="utf-8" ?><svg xmlns="http://www.w3.org/2000/svg" xmlns:xlink="http://www.w3.org/1999/xlink" width="622" height="586" viewBox="0 0 622 586"><clipPath id="mascot-sleeping-cl_11"><rect width="622" height="586"/></clipPath><g clip-path="url(#mascot-sleeping-cl_11)"><path fill="#062025" transform="translate(-697 -118)" d="M943.912 368.258C932.49 358.919 922.955 351.118 915.689 338.134C894.527 300.318 908.466 257.934 932.655 225.338C936.044 220.77 940.945 217.381 946.819 221.183C950.909 224.547 951.902 231.876 955.48 235.292C961.614 241.148 968.27 246.433 974.309 252.39C1008.74 286.348 1007.78 314.019 993.499 357.262C1056.83 344.416 1129.79 350.72 1184.65 386.831C1218.71 409.139 1242.46 444.13 1250.61 484.029C1258.05 520.763 1252.13 548.07 1235.8 581.034C1248.2 611.876 1244.71 650.563 1210.92 665.812C1204.52 676.971 1196.46 688.266 1183.36 691.249C1162.8 695.931 1156.57 678.351 1152.12 663.662C1126.07 665.594 1111.7 665.573 1091.02 648.313C1072.77 651.321 1056.96 650.414 1038.7 650.9C1032.2 651.073 1021.69 657.897 1015 659.527C987.078 666.329 951.952 668.594 929.879 647.198C900.468 649.425 860.575 644.041 855.283 606.937C854.608 602.2 855.951 596.417 855.765 591.706C855.978 591.198 857.755 586.997 857.762 586.958C858.972 580.256 871.516 566.82 870.821 561.485C865.341 563.658 859.589 570.291 855.258 574.66C837.326 589.206 821.681 594.725 798.215 592.921C780.789 591.581 767.661 583.326 750.946 581.281C745.356 580.597 738.538 581.394 734.456 576.599C732.782 574.929 731.897 570.257 732.976 567.994C746.54 539.558 769.03 513.861 800.92 506.646C821.05 502.092 830.976 506.437 849.524 513.397C846.018 499.957 840.924 486.344 836.714 473.119C831.689 457.333 826.268 441.478 818.958 426.623C812.486 413.471 803.532 401.343 796.822 388.343C795.173 384.894 794.97 381.638 796.546 378.108C797.577 375.799 801.33 373.681 803.498 373.824C816.988 374.717 831.217 379.273 845.039 380.63C879.415 384.004 910.992 376.219 943.912 368.258Z"/><path fill="#3EB682" transform="translate(-697 -118)" d="M1039.13 369.42C1044.87 368.717 1052.93 368.871 1058.82 368.87C1130.03 368.868 1211.85 404.583 1231.18 479.129C1238.96 509.155 1237.02 543.026 1221.02 570.163C1212.42 568.11 1172.23 555.045 1170.98 568.948C1169.28 587.685 1217.39 582.373 1221.99 592.534C1235.08 621.42 1204.31 687.037 1196.64 616.359C1196.18 612.11 1180.87 611.211 1175.59 611.997C1141.39 617.088 1097.49 599.428 1108.25 557.128C1110.07 550.07 1113.24 543.435 1117.6 537.596C1129.67 521.59 1143.08 522.743 1158.99 513.643C1164.38 510.555 1166.86 505.881 1162.13 500.68C1156.86 498.397 1148.14 499.482 1142.59 501.108C1098.82 513.933 1081.87 550.671 1092.67 592.821C1079.9 607.065 1078.35 614.503 1081.07 632.796C1075.91 633.858 1067.87 633.82 1062.33 633.983C1075.64 612.61 1080.95 602.576 1081.12 577.251C1077.13 573.176 1075.4 570.954 1069.63 572.497C1061.39 579.885 1063.82 594.767 1056.97 607.149C1036.96 643.357 984.402 656.553 947.749 640.625C941.594 637.95 940.608 627.741 944.847 623.882C967.532 603.228 1005.93 625.412 1025.46 593.533C1030.41 585.474 1036.42 575.066 1025.76 568.73C1014.91 567.963 1011.95 584.706 1003.53 590.464C992.122 598.267 973.504 596.699 960.594 595.157C943.672 581.597 935.275 580.731 914.427 581.112C870.362 535.22 865.428 497.555 844.535 439.68C839.45 425.595 831.062 409 824.162 395.594C879.933 407.807 926.833 389.991 978.785 378.304C998.628 373.725 1018.81 370.753 1039.13 369.42Z"/><path fill="#062025" transform="translate(-697 -118)" d="M1001.75 444.643C1017.97 448.099 1017.6 468.665 1009.6 479.649C1001.63 490.576 993.635 492.988 981.341 495.315C977.541 494.603 971.127 492.592 969.321 488.931C970.843 478.108 990.407 476.224 995.485 470.561C1003.48 461.641 988.744 457.07 1001.75 444.643Z"/><path fill="#062025" transform="translate(-697 -118)" d="M945.487 512.555C970.723 517.136 958.235 549.105 941.259 555.789C935.836 557.924 932.507 558.433 926.84 559.381C912.978 556.017 906.24 547.245 923.992 542.508C928.898 541.199 934.608 539.599 939.23 537.446C946.429 528.487 934.428 524.395 945.487 512.555Z"/><defs><linearGradient id="mascot-sleeping-gradient_0" gradientUnits="userSpaceOnUse" x1="983.52069" y1="540.32587" x2="1022.0463" y2="526.47021"><stop offset="0" stop-color="#03181A"/><stop offset="1" stop-color="#073236"/></linearGradient></defs><path fill="url(#mascot-sleeping-gradient_0)" transform="translate(-697 -118)" d="M1010.14 511.494C1030.53 514.891 1021.44 532.881 1012.68 543.414C1007.41 549.763 1003.41 552.446 996.244 556.162C991.268 556.125 986.916 555.529 985.449 550.33C987.302 543.215 997.294 536.517 1003.3 531.267C1005.06 523.572 1005.7 518.157 1010.14 511.494Z"/><path fill="#3EB682" transform="translate(-697 -118)" d="M940.261 246.489C943.895 249.426 947.325 253.687 951.058 256.782C984.072 284.146 994.936 308.698 974.954 349.887C966.26 333.674 967.386 312.938 958.583 301.455C935.385 302.681 950.685 339.841 954.89 352.705C913.018 322.845 917.961 286.9 940.261 246.489Z"/><path fill="#3EB682" transform="translate(-697 -118)" d="M814.728 523.389C828.537 523.948 835.878 526.224 848.33 532.436C837.841 533.334 813.936 535.623 809.917 547.021C810.6 564.349 841.891 551.408 854.729 550.611C846.806 559.189 842.268 562.748 832.595 569.277C803.603 582.607 785.444 572.858 756.849 563.182C759.214 559.622 761.702 556.144 764.306 552.755C778.555 534.331 791.766 526.4 814.728 523.389Z"/><path fill="#3EB682" transform="translate(-697 -118)" d="M1103.06 608.417C1131.6 630.827 1144.44 631.707 1180.34 630.136C1182.71 645.151 1184.62 648.656 1193.58 660.518C1191.16 665.384 1188.98 668.465 1185.96 672.908C1181.82 674.826 1179.32 675.745 1174.86 674.031C1164.72 664.65 1180.23 643.08 1153.45 646.001C1142.52 647.193 1118.61 648.553 1109.31 642.146C1096.78 633.511 1095.26 621.169 1103.06 608.417Z"/><path fill="#3EB682" transform="translate(-697 -118)" d="M885.403 578.628C898.952 590.822 890.595 587.31 893.875 599.908C904.325 609.287 927.197 591.69 937.068 603.237C939.262 605.805 925.447 616.732 924.336 626.712C923.761 629.232 924.146 628.412 922.578 630.395C903.862 638.238 847.402 615.414 885.403 578.628Z"/><path fill="#062025" transform="translate(-697 -118)" d="M1176.73 158.423C1207.88 155.573 1199.54 168.282 1188.21 188.852C1184.26 196.004 1180.14 203.497 1176.31 210.737C1185.18 209.266 1206.31 203.779 1211.86 212.569C1214.28 227.677 1184.27 227.643 1173.38 229.057C1169.13 229.415 1161.53 230.421 1158.14 227.889C1144.23 217.48 1171.64 183.705 1177.96 174.073C1167.13 176.766 1147.33 184.332 1141.17 171.579C1141.55 160.095 1167.32 159.822 1176.73 158.423Z"/><path fill="#062025" transform="translate(-697 -118)" d="M1112.65 224.53C1117.04 224.019 1123.09 222.799 1126.97 224.902C1129.15 226.094 1130.69 228.207 1131.15 230.656C1132.53 238.38 1124.23 251.303 1120.29 258.312C1128.34 256.805 1136.04 254.418 1143.01 260.022C1146.86 271.739 1124.64 274.792 1117.3 276.075C1084.52 277.175 1103.59 255.678 1111.47 241.229C1103.87 241.92 1094.47 243.835 1088.61 237.773C1087.52 227.669 1105.68 225.775 1112.65 224.53Z"/><path fill="#062025" transform="translate(-697 -118)" d="M1062.61 276.204C1068.16 275.484 1074.09 275.028 1078 279.517C1081.05 287.655 1073.96 294.197 1073.1 304.079C1079.23 305.364 1084.52 301.368 1089.59 308.182C1090.13 317.823 1077.82 320 1070.3 322.218C1063.36 323.405 1055.61 325.647 1050.54 319.631C1048 312.394 1052.49 303.538 1055.16 296.123C1048.52 295.528 1044.54 296.153 1040.18 291.248C1038.97 281.896 1055.61 278.229 1062.61 276.204Z"/><path fill="#FEF3E4" fill-opacity="0.078431375" transform="translate(-697 -118)" d="M855.258 574.66C859.589 570.291 865.341 563.658 870.821 561.485C871.516 566.82 858.972 580.256 857.762 586.958C857.755 586.997 855.978 591.198 855.765 591.706C854.849 585.031 859.264 582.561 855.258 574.66Z"/></g></svg>