<?xml version="1.0" encoding="utf-8" ?><svg xmlns="http://www.w3.org/2000/svg" xmlns:xlink="http://www.w3.org/1999/xlink" width="702" height="690" viewBox="0 0 702 690"><clipPath id="mascot-thinking-cl_1c"><rect width="702" height="690"/></clipPath><g clip-path="url(#mascot-thinking-cl_1c)"><path fill="#01090A" transform="translate(0 -687)" d="M317.472 793.545C331.367 793.497 340.926 820.162 351.267 828.993C397.962 868.868 449.842 906.356 477.977 962.699C486.158 979.08 492.361 995.919 498.9 1012.99C554.724 1045.9 576.826 1098.01 519.253 1142.9C520.626 1146.1 522.521 1150.32 523.035 1153.58C527.589 1182.44 494.145 1193.28 471.993 1183.07C467.022 1180.78 464.167 1178.58 459.97 1175.46C446.447 1186.48 434.722 1192.74 419.617 1200.93C418.199 1213 417.001 1225.09 416.023 1237.2C431.486 1242.89 451.315 1251.19 453.447 1270.4C454.068 1275.99 451.654 1282.19 447.757 1286.28C439.537 1294.91 426.561 1297.09 415.124 1297.36C333.76 1298.44 368.045 1235.15 352.691 1220.09C349.576 1219.02 349.722 1218.8 346.607 1219.65C341.592 1227.6 345.036 1264.68 338.468 1277.13C332.244 1288.93 329.006 1290.26 316.298 1295.17C300.302 1300.27 273.824 1302.73 258.815 1293.76C250.473 1288.77 247.996 1282.89 245.739 1274.05C250.833 1252.62 264.377 1246.9 283.374 1240.56C282.213 1229.8 281.779 1221.63 279.788 1210.81C242.238 1195.23 227.198 1183.75 205.282 1149.38C194.516 1137.03 186.351 1128.93 181.895 1112.55C173.218 1080.66 185.473 1064.67 195.538 1035.92C206.083 1005.8 215.717 982.57 231.714 954.097C172.577 959.493 150.372 940.226 126.763 887.525C123.244 879.67 116.793 874.927 113.957 864.879C115.403 856.888 129.528 853.942 136.157 852.018C177.378 840.057 222.486 851.593 241.315 893.046C244.126 899.234 247.403 912.055 251.614 917.041C260.123 913.351 294.864 856.913 299.801 845.551C306.306 830.577 308.143 802.392 317.472 793.545Z"/><path fill="#3FB584" transform="translate(0 -687)" d="M324.945 825.77C332.226 831.573 343.201 846.6 351.13 853.241C389.207 884.85 426.924 912.85 453.675 955.636C466.432 976.039 474.344 1004.25 486.56 1023.67C494.619 1036.48 526.866 1045.94 531.711 1066.4C533.742 1074.97 536.598 1080.69 535.613 1089.82C536.334 1117.76 500.654 1131.18 494.754 1145.06C494.864 1153.27 499.857 1151.84 506.058 1158.86C506.381 1160.88 506.939 1161.15 505.859 1162.81C496.73 1176.89 480.603 1168.99 470.473 1163.45C484.605 1147.44 493.967 1130.26 499.299 1109.51C501.709 1100.13 507.766 1078.83 498.292 1072.13C494.854 1072.01 490.626 1073.65 489.545 1076.34C485.908 1085.38 483.263 1098.78 480.654 1108.15C478.703 1115.36 476.095 1122.37 472.863 1129.1C463.772 1148.29 446.755 1164.89 428.783 1175.79C421.693 1180.08 411.771 1186.02 405.738 1191.34C402.846 1198.72 394.275 1242.36 400.647 1249.04C406.222 1254.89 436.712 1260.59 437.786 1273.42C431.84 1283.65 404.211 1280.75 394.063 1278.49C346.471 1267.93 409.623 1180.27 332.678 1204.48C325.845 1206.63 323.77 1265.13 322.806 1274.03C310.892 1278.85 300.619 1282.1 287.709 1283.48C279.805 1284.32 263.332 1282.81 263.337 1272.27C268.866 1261.38 288.553 1258.68 298.567 1251.84C302.962 1238.43 298.011 1213.64 295.44 1199.49C268.176 1184.55 265.264 1190.76 238.106 1164.73C268.156 1169.09 289.219 1163.54 314.736 1148.06C332.268 1137.38 339.441 1129.07 352.52 1113.84C395.172 1107.32 422.424 1090.4 399.319 1044.09C408.557 1037.71 416.882 1031.7 420.17 1020.29C422.85 1010.99 418.945 1000.88 408.485 999.726C385.068 997.152 364.268 1014.27 346.678 1027.23C340.916 1016.95 331.749 1004.1 318.513 1004.46C289.701 1005.24 305.606 1040.28 305.635 1057.8C299.395 1069.1 288.461 1077.55 277.188 1083.18C249.544 1096.96 255.665 1073.28 244.536 1069.34C239.26 1071.26 236.897 1077.99 238.051 1083.22C241.029 1096.71 256.863 1104.9 269.97 1102.01C291.177 1097.34 308.634 1081.17 320.984 1064C321.148 1052.37 316.119 1027.63 317.584 1020.04L320.023 1018.96C329.281 1020.97 336.726 1046.65 346.45 1043.16C358.794 1038.71 391.811 1008.96 404.723 1015.52C411.624 1029.04 368.684 1031.96 387.59 1052.29L388.494 1053.24C389.09 1056.55 389.72 1059.84 390.384 1063.13C396.814 1094.85 367.71 1096.2 344.26 1099.64C330.385 1114.07 323.773 1124.2 305.736 1135.23C286.219 1147.39 261.375 1154.24 238.444 1148.11C205.344 1139.26 188.175 1101.45 199.37 1069.8C202.665 1060.49 208.383 1052.06 211.594 1043.01C222.493 1012.29 235.098 982.687 252.046 954.768C279.918 906.991 308.962 880.865 324.945 825.77Z"/><path fill="#01090A" transform="translate(0 -687)" d="M373.023 970.119C379.751 969.755 399.88 968.652 400.128 978.527C394.886 985.833 374.054 984.447 364.552 987.64C359.414 991.524 349.484 999.459 344.425 991.69C344.409 978.165 362.626 973.065 373.023 970.119Z"/><path fill="#01090A" transform="translate(0 -687)" d="M393.58 924.448C400.19 924 405.93 928.953 406.455 935.557C406.979 942.161 402.092 947.958 395.495 948.559C391.159 948.953 386.945 946.987 384.463 943.41C381.98 939.833 381.612 935.197 383.499 931.274C385.386 927.35 389.236 924.743 393.58 924.448Z"/><path fill="#01090A" transform="translate(0 -687)" d="M328.93 935.501C334.989 932.949 341.971 935.775 344.547 941.823C347.124 947.871 344.326 954.865 338.288 957.466C332.216 960.081 325.174 957.263 322.583 951.181C319.992 945.099 322.837 938.068 328.93 935.501Z"/><path fill="#3FB584" transform="translate(0 -687)" d="M157.223 866.313C198.884 860.662 220.133 881.783 232.167 919.077C222.99 911.911 197.375 890.199 186.411 901.852C183.817 909.288 188.356 912.252 193.783 915.94C202.281 920.801 215.516 930.3 222.281 937.214C202.653 938.822 184.308 936.93 169.117 922.713C154.217 908.768 149.975 888.4 139.484 871.653L138.67 870.372C145.174 868.531 150.589 867.548 157.223 866.313Z"/><path fill="#01090A" transform="translate(0 -687)" d="M560.029 726.417C580.205 724.923 587.616 730.694 600.513 744.66C602.065 744.568 603.619 744.501 605.173 744.459C638.678 743.567 639.825 764.095 643.114 790.327C645.783 798.769 649.059 803.318 648.865 812.665C648.363 836.795 628.704 852.573 604.326 851.506C603.338 852.852 602.324 854.179 601.285 855.486C591.381 867.828 581.166 871.233 566.254 872.833C549.558 873.041 540.254 866.915 529.752 854.991C494.235 861.506 471.294 830.901 486.16 797.036C477.688 772.769 491.057 748.199 517.001 744.246C522.117 743.467 527.624 744.212 532.775 744.694C541.869 732.86 546.13 730.283 560.029 726.417Z"/><path fill="#FEF3E1" transform="translate(0 -687)" d="M561.98 739.083C580.668 738.557 585.319 744.624 594.803 759.224C622.436 755.079 633.182 764.578 626.934 792.078C632.861 799.887 637.389 806.962 635.792 817.489C634.727 824.216 630.823 830.161 625.074 833.811C615.57 839.963 606.974 838.725 596.798 836.579C587.367 853.768 584.529 857.033 565.047 860.278C548.965 856.965 546.051 852.646 536.263 840.268C504.707 848.708 483.117 830.634 500.942 798.788C487.354 765.948 507.311 753.601 538.438 758.628C545.908 746.322 548.741 743.711 561.98 739.083Z"/><path fill="#01090A" transform="translate(0 -687)" d="M520.19 871.751C530.82 870.734 540.3 878.437 541.481 889.051C542.661 899.665 535.106 909.262 524.512 910.606C517.512 911.494 510.576 908.541 506.365 902.879C502.154 897.217 501.321 889.726 504.185 883.277C507.049 876.828 513.166 872.423 520.19 871.751Z"/><path fill="#01090A" transform="translate(0 -687)" d="M479.534 906.251C500.982 903.554 508.943 919.949 492.284 931.913C472.826 938.388 462.393 916.783 479.534 906.251Z"/></g></svg>