<?xml version="1.0" encoding="utf-8" ?><svg xmlns="http://www.w3.org/2000/svg" xmlns:xlink="http://www.w3.org/1999/xlink" width="727" height="592" viewBox="0 0 727 592"><clipPath id="mascot-with-pie-chart-cl_d"><rect width="727" height="592"/></clipPath><g clip-path="url(#mascot-with-pie-chart-cl_d)"><path fill="#09262C" transform="translate(0 -896)" d="M351.579 1049.29C352.64 1016.03 355.213 1002.98 381.216 978.729C389.974 970.56 408.248 953.429 419.337 951.687C422.184 952.626 424.166 954.715 425.308 957.754C432.351 976.496 437.283 999.198 438.362 1019.24C438.68 1025.15 433.098 1035.98 433.618 1041.83C434.386 1042.22 435.155 1042.61 435.923 1043C439.914 1043.06 439.798 1042.9 443.191 1041.16L446.528 1036.49C465.914 1009.17 505.003 1008.86 518.695 1042.12C544.211 1041.61 697.409 1037.86 707.148 1047.92C710.413 1051.29 710.162 1056.23 710.36 1060.64C712.247 1102.58 709.541 1145.07 710.05 1187.1L711.903 1279.58C712.046 1290.72 713.63 1339.1 708.088 1345.59C695.792 1351.32 584.325 1350.42 561.149 1351.3C561.945 1362.41 561.68 1373.05 561.557 1384.17C571.09 1392.47 613.709 1427.41 606.96 1439.28C604.771 1440.37 602.195 1441.49 599.87 1440.38C586.899 1434.2 573.277 1416.61 562.175 1408.44C562.041 1416.93 563.66 1436.01 553.21 1437.82C543.661 1433.39 544.788 1416.34 544.74 1407.55C532.171 1417.85 512.505 1440.47 497.185 1440.64L495.228 1439.66C493.522 1428.77 536.175 1391.26 545.925 1384.42L546.059 1351.76C496.852 1352.22 448.283 1354.59 399.752 1347.01C396.025 1346.43 386.101 1353.97 382.799 1356.52C380.873 1366.01 380.171 1375.16 379.936 1384.84C390.262 1389.75 409.215 1398.78 412.402 1410.95C419.183 1436.84 386.268 1444.79 366.587 1441.48C346.391 1438.08 331.618 1435.42 325.14 1413.36C324.754 1404.68 326.412 1385.85 321.81 1379.05L320.039 1379.44C317.129 1385.83 317.548 1388.6 316.919 1395.63C316.203 1407.25 316.624 1427.81 307.057 1436.02C296.41 1445.15 277.257 1447.9 263.556 1448.1C246.283 1448.36 227.703 1441.08 229.508 1420.57C231.226 1401.04 249.777 1395.51 265.531 1390.38L260.305 1371.5C232.481 1361.48 213.916 1350.04 195.727 1326.08C188.666 1337.4 182.576 1347.69 168.682 1351.12C149.582 1355.84 134.959 1341.02 132.491 1322.54C128.567 1293.18 141.534 1257.06 157.701 1232.74C161.509 1227.02 166.164 1222.31 169.261 1216.17C173.059 1207.28 173.711 1195.75 176.593 1186.27C182.14 1168.02 189.326 1150.77 196.507 1133.16C176.847 1139.6 157.848 1140.76 138.757 1131.26C131.859 1127.81 125.602 1123.21 120.256 1117.66C107.112 1104.06 99.2427 1085.13 84.6326 1072.4C81.429 1069.61 74.7275 1060.14 78.5184 1057.09C106.239 1034.77 157.066 1028.71 185.371 1052.74C202.202 1067.03 208.353 1081.18 213.262 1099.09C227.677 1073.31 242.094 1048.78 249.164 1019.36C251.911 1007.93 249.355 984.585 256.923 975.464C260.375 971.303 268.818 976.718 271.171 979.635C296.607 1004.65 324.068 1026.6 351.579 1049.29ZM450.589 1057.81C436.654 1057.87 422.719 1057.7 408.789 1057.3C409.323 1104.87 409.28 1152.28 409.73 1199.84C409.989 1227.13 411.85 1253.97 412.092 1281.17C412.26 1300.01 410.196 1319.21 409.829 1338.03C463.138 1338.43 516.45 1338.1 569.75 1337.04C609.526 1336.42 658.331 1337.11 697.266 1335.14C697.674 1274.01 696.309 1214.05 695.757 1153.01C695.47 1121.29 697.674 1089.41 698.315 1057.7C638.482 1055.89 578.616 1055.46 518.764 1056.43C514.976 1059.71 514.339 1062.84 511.372 1065.76C490.273 1086.53 467.823 1076.45 451.643 1058.95L450.589 1057.81Z"/><path fill="#09262C" transform="translate(0 -896)" d="M543.853 1077.53C610.282 1071.94 668.626 1121.35 674.053 1187.8C679.48 1254.24 629.927 1312.46 563.471 1317.73C497.245 1322.97 439.266 1273.63 433.858 1207.42C428.45 1141.2 477.653 1083.1 543.853 1077.53Z"/><path fill="#EF7B5D" transform="translate(0 -896)" d="M539.229 1092.28C542.67 1091.75 543.6 1091.75 546.04 1093.77C549.514 1102.26 547.387 1131.31 547.302 1142.59C517.504 1148.31 505.125 1162.58 498.304 1191.52L460.25 1191.1L446.963 1190.99C454.051 1134.99 483.679 1102.51 539.229 1092.28Z"/><path fill="#F6A921" transform="translate(0 -896)" d="M517.84 1239.74C540.894 1257.05 559.017 1256.59 583.981 1243.72C594.825 1257.12 605.596 1270.58 616.295 1284.09C604.424 1291.92 597.586 1294.8 584.242 1299.39C546.959 1312.38 510.225 1298.32 481.096 1274.88C492.884 1263.17 505.774 1251.26 517.84 1239.74Z"/><path fill="#FCEFDA" transform="translate(0 -896)" d="M545.668 1157.5C567.756 1152.94 589.371 1167.1 594.005 1189.17C598.639 1211.25 584.544 1232.91 562.487 1237.61C540.327 1242.34 518.542 1228.17 513.887 1205.99C509.232 1183.82 523.477 1162.08 545.668 1157.5Z"/><path fill="#9F96E5" transform="translate(0 -896)" d="M650.678 1156.06C657.282 1162.9 659.949 1185.99 660.055 1195.59C660.428 1229.21 649.896 1251.32 627.145 1274.91L615.862 1261.19L594.838 1235.75C609.909 1215.18 612.021 1203.72 606.177 1178.97C621.112 1171.53 635.947 1163.89 650.678 1156.06Z"/><path fill="#41B685" transform="translate(0 -896)" d="M560.825 1091.76C598.403 1092.04 624.704 1113.63 645.548 1142.79C641.621 1145.5 633.942 1149.43 629.452 1151.87C620.796 1156.93 609.482 1162.17 600.367 1166.16C588.399 1150.66 579.113 1146.23 560.695 1142.41L560.825 1091.76Z"/><path fill="#78C3F4" transform="translate(0 -896)" d="M446.97 1204.38C463.324 1203.82 481.87 1204.48 498.39 1204.72C500.89 1216.67 502.365 1219.64 508.216 1230.42L491.62 1246.68C485.277 1252.93 478.372 1258.95 471.725 1264.9C455.08 1242.53 451.045 1231.61 446.97 1204.38Z"/><path fill="#41B685" transform="translate(0 -896)" d="M268.242 1001.59C278.137 1008.77 288.343 1019.14 298.197 1026.97C333.844 1055.28 369.254 1082.64 394.921 1120.99C393.204 1168 395.55 1214.07 397.313 1261C398.12 1282.46 396.735 1305.57 395.908 1327.11C384.148 1336.48 369.518 1339.1 366.257 1354.43C363.816 1365.05 359.284 1389.53 365.06 1399.03C368.608 1404.86 403.002 1402.33 394.863 1421.01C387.548 1426.31 353.809 1427.43 345.981 1419.34C329.579 1402.38 364.805 1341.54 308.448 1361.18C291.268 1367.16 308.087 1411.28 296.057 1422.34C287.291 1430.4 275.812 1430.73 264.753 1431.22C255.759 1431.04 250.043 1432.39 244.749 1424.05C243.669 1409.92 272.496 1411.38 280.01 1402.1C281.245 1393.19 279.88 1368 273.658 1360.66C270.065 1356.41 259.176 1353.7 253.637 1351.53C229.795 1342.22 213.351 1324.85 200.827 1303.2C203.821 1293.62 212.694 1278.42 210.806 1269.25C188.184 1247.01 184.723 1342.08 162.73 1336.41C131.996 1328.48 155.705 1260.92 168.056 1246.78C193.701 1217.42 190.647 1191.72 204.744 1157.36C229.29 1102.1 258.254 1063.67 268.242 1001.59Z"/><path fill="#09262C" transform="translate(0 -896)" d="M354.858 1123.64C359.825 1124 360.253 1124.33 363.041 1128.07C363.852 1131.99 363.521 1136.02 361.234 1139.38C336.062 1176.44 293.309 1174.4 258.421 1157.09C253.223 1153.2 249.133 1148.06 252.376 1141.58C262.088 1136.1 269.788 1146.77 278.264 1149.95C313.798 1163.29 333.057 1147.66 354.858 1123.64Z"/><path fill="#09262C" transform="translate(0 -896)" d="M275.505 1104.48C279.278 1103.4 283.342 1104.43 286.138 1107.19C288.935 1109.94 290.029 1113.99 289.002 1117.78C287.975 1121.57 284.985 1124.51 281.18 1125.47C275.423 1126.93 269.56 1123.5 268.01 1117.77C266.46 1112.04 269.797 1106.12 275.505 1104.48Z"/><path fill="#09262C" transform="translate(0 -896)" d="M328.708 1094.53C334.244 1092.42 340.439 1095.19 342.573 1100.71C344.706 1106.24 341.976 1112.45 336.463 1114.61C330.908 1116.79 324.64 1114.03 322.49 1108.47C320.34 1102.9 323.13 1096.65 328.708 1094.53Z"/><path fill="#41B685" transform="translate(0 -896)" d="M132.48 1052.25C169.181 1049.32 187.866 1071.63 198.418 1103.34C188.227 1096.43 153.932 1073.72 141.732 1079.95C139.875 1082.77 140.258 1081.28 140.359 1084.51C143.73 1089.74 160.78 1096.41 167.436 1099.6L195.953 1117.45C136.435 1138.89 129.775 1097.04 99.7091 1064.05L98.6728 1062.93C110.981 1057.1 119.236 1054.62 132.48 1052.25Z"/><path fill="#41B685" transform="translate(0 -896)" d="M412.83 974.287C415.082 976.41 418.1 984.549 418.968 987.869C424.338 1008.42 424.819 1024.98 414.808 1043.81C398.72 1044.62 397.343 1044.79 395.356 1060.85L384.542 1067.77C389.089 1047.65 395.138 1038.61 403.069 1020.17C401.48 1017.62 401.504 1017.81 398.966 1016.11C385.815 1014.8 375.757 1047.79 372.303 1057.74C361.396 1014.95 380.815 997.13 412.83 974.287Z"/><path fill="#41B685" transform="translate(0 -896)" d="M481.321 1032.22C507.999 1035.11 514.321 1053.22 487.243 1063.07C481.738 1062.97 476.356 1061.42 471.635 1058.59C465.053 1054.61 460.099 1046.66 465.173 1039.48C468.842 1034.29 475.594 1033.46 481.321 1032.22Z"/><path fill="#09262C" transform="translate(0 -896)" d="M1034.72 1436.67C1043.29 1437.05 1045.3 1448.62 1046.66 1455.52C1050.9 1477.1 1054.9 1495.51 1048.6 1517.09C1040.65 1544.31 1021.54 1553.18 998.332 1565.4C1016.39 1587.41 1024.29 1605.19 1038.38 1629.16C1065.47 1610.87 1054.19 1565.76 1097 1568.08C1122.34 1569.46 1127.58 1600.62 1123.46 1620.36C1118.38 1644.69 1101.53 1672.31 1082.1 1687.94C1073.68 1694.72 1064.44 1700.18 1055.83 1706.75C1054.19 1767.07 1033.61 1804.8 980.266 1833.3C978.766 1843.5 977.482 1852.42 976.652 1862.74C991.091 1867.99 1013.82 1880.97 1010.39 1897.62C1005.59 1920.97 970.899 1917.81 956.369 1916.2C907.701 1910.82 928.212 1859.99 921.76 1850.59L918.743 1851.42C913.127 1857.54 915.718 1886.35 910.037 1898.46C899.049 1921.89 860.509 1923.6 839.387 1915.32C828.063 1910.88 821.478 1895.04 829.301 1883.92C837.946 1871.62 848.376 1868.66 862.134 1865.27C861.964 1859.96 861.461 1854.36 861.077 1849.03C860.49 1842.58 854.49 1842.12 848.446 1839.65C821.727 1828.7 810.449 1815.66 794.49 1792.78C785.659 1810.86 774.132 1825.46 751.548 1817.45C744.114 1814.81 735.004 1804.43 732.71 1796.86C723.281 1765.75 743.747 1729.97 759.199 1704.13C762.663 1698.6 776.269 1686.38 777.448 1680.76C783.041 1654.09 794.703 1632.08 806.318 1607.49C767.641 1618.09 739.751 1603.08 718.431 1570.85C716.916 1568.56 707.03 1551.72 706.757 1551.47C681.734 1529.04 690.305 1523.21 717.357 1514.98C772.08 1498.31 808.467 1520.85 825.114 1573.53C852.848 1538.87 867.042 1499.49 872.544 1457.32C872.881 1454.74 876.291 1452.87 878.514 1451.9C880.897 1452.62 884.852 1455.7 886.643 1457.53C911.258 1482.73 938.222 1505.16 963.923 1529.05C971.275 1477.83 990.629 1461.99 1034.72 1436.67Z"/><path fill="#FCEFDA" fill-opacity="0.011764706" transform="translate(0 -896)" d="M316.919 1395.63C317.548 1388.6 317.129 1385.83 320.039 1379.44L321.81 1379.05C326.412 1385.85 324.754 1404.68 325.14 1413.36C317.985 1407.42 323.839 1399.95 319.979 1393.87L316.919 1395.63Z"/></g></svg>