<?xml version="1.0" encoding="utf-8" ?><svg xmlns="http://www.w3.org/2000/svg" xmlns:xlink="http://www.w3.org/1999/xlink" width="601" height="573" viewBox="0 0 601 573"><clipPath id="characters-blue-with-coin-cl_29"><rect width="601" height="573"/></clipPath><g clip-path="url(#characters-blue-with-coin-cl_29)"><path fill="#040202" transform="translate(-731 -1024)" d="M1030.1 1123.38C1034.41 1107.88 1039.78 1097.95 1054.59 1089.38C1064.97 1083.37 1105.83 1070.83 1114.04 1080.59C1116.99 1089.39 1114.04 1108.22 1111.96 1117.58C1103.7 1154.87 1072.45 1162.82 1039.39 1160.43L1034.13 1167.71L1033.69 1189.81C1068.83 1191.74 1101.77 1207.55 1125.26 1233.76C1149.66 1261.3 1158.46 1294.9 1157.71 1330.93C1186.76 1353.02 1198.52 1372.35 1205.08 1408.26C1213.39 1415.61 1219.11 1422.59 1219.75 1434.48C1220.2 1443.04 1217.15 1451.42 1211.3 1457.68C1194.01 1476.22 1174.75 1464.54 1166.14 1444.34C1131.79 1439.79 1158.03 1423.11 1161.78 1408.9C1163.8 1401.22 1152.96 1377.96 1148.23 1370.82C1134.98 1399.35 1117.06 1418.9 1089.82 1434.7C1091.21 1446.29 1092.5 1457.89 1093.7 1469.51C1111.66 1465.19 1123.4 1462.05 1140.57 1472.72C1153.28 1480.62 1162.6 1493.82 1166.5 1508.33C1167.9 1513.54 1166.93 1516.96 1164.2 1521.31C1154.35 1527.56 1055.99 1528.54 1052.16 1519.86C1046.78 1507.64 1049.89 1464.56 1050.54 1448.86C1033.21 1451 1021.22 1451.53 1003.75 1448.73C1004.27 1463.42 1009.18 1511.27 1002.31 1521.2C992.33 1525.71 976.021 1523.91 964.833 1524.37C941.474 1525.18 916.361 1528.86 893.503 1522.61C883.971 1520 889.72 1503.35 892.632 1497.43C906.672 1468.93 932.413 1459.57 961.999 1471.12C963.659 1458.55 964.129 1447.42 965.399 1435.09C947.183 1423.02 931.95 1411.64 919.449 1393.33C916.581 1389.13 910.733 1375.53 907.146 1373.62C899.914 1376.36 893.727 1403.06 892.155 1410.39C903.738 1423.48 916.889 1440.06 890.168 1444.75C882.324 1460.73 868.644 1473.01 850.348 1462.72C843.005 1458.51 837.765 1451.41 835.904 1443.15C832.691 1428.81 839.311 1416.65 850.66 1408.26C856.822 1376.45 869.649 1348.84 897.65 1330.3C897.449 1307.14 899.466 1288.34 908.682 1266.72C928.688 1219.78 975.314 1191.74 1025.58 1190.11C1031 1188.39 1023.71 1165.66 1028.97 1158.07L1029.85 1158.16L1030.54 1156.96C1028.71 1144.44 1028.78 1135.86 1030.1 1123.38Z"/><path fill="#75B7F6" transform="translate(-731 -1024)" d="M1018.51 1197.46C1086.46 1192.37 1145.64 1243.39 1150.62 1311.35C1155.59 1379.3 1104.47 1438.4 1036.5 1443.25C968.706 1448.1 909.789 1397.13 904.827 1329.34C899.864 1261.55 950.732 1202.54 1018.51 1197.46Z"/><path fill="#040202" transform="translate(-731 -1024)" d="M1011.64 1331.52C1021.19 1334.53 1017.62 1344.4 1025.7 1346.7C1034.16 1349.1 1035.88 1336.56 1041.85 1333.6C1044.49 1335.7 1043.75 1335.47 1045.02 1339.32C1034.76 1361.39 1007.84 1355.45 1011.64 1331.52Z"/><path fill="#040202" transform="translate(-731 -1024)" d="M992.362 1306.51C995.036 1305.46 998.07 1305.96 1000.27 1307.81C1002.47 1309.65 1003.48 1312.56 1002.91 1315.37C1002.34 1318.19 1000.27 1320.46 997.524 1321.3C993.496 1322.54 989.213 1320.37 987.825 1316.39C986.438 1312.42 988.441 1308.05 992.362 1306.51Z"/><path fill="#040202" transform="translate(-731 -1024)" d="M1057.3 1306.48C1059.99 1305.66 1062.91 1306.35 1064.96 1308.29C1067 1310.22 1067.85 1313.11 1067.17 1315.84C1066.5 1318.58 1064.41 1320.74 1061.7 1321.5C1057.57 1322.67 1053.27 1320.29 1052.06 1316.17C1050.86 1312.05 1053.19 1307.73 1057.3 1306.48Z"/><path fill="#75B7F6" transform="translate(-731 -1024)" d="M1081.63 1438.97C1089.13 1448.22 1080.26 1470.91 1088.73 1478.61C1094.3 1479.16 1102.68 1476.06 1108.56 1475.24C1140.55 1470.75 1155.07 1489.42 1159.61 1517.87C1152.55 1518.09 1145.48 1518.36 1138.42 1518.69C1110.71 1519.43 1084.07 1518.31 1056.38 1517.35C1055.66 1497.3 1056.87 1467.43 1059.22 1447.48C1067.26 1444.73 1073.79 1442.24 1081.63 1438.97Z"/><path fill="#75B7F6" transform="translate(-731 -1024)" d="M972.229 1438.39C981.143 1442.62 987.459 1444.47 996.942 1447.03C997.067 1469.97 998.888 1493.71 999.134 1517.09C971.695 1517.98 944.248 1518.61 916.797 1518.98C909.999 1518.77 901.665 1519.66 896.989 1515.36C892.314 1503.16 911.696 1482.57 921.487 1477.11C933.741 1470.29 954.204 1476.57 967.069 1479.81C970.237 1466.15 971.323 1452.33 972.229 1438.39Z"/><path fill="#75B7F6" transform="translate(-731 -1024)" d="M896.887 1339.73C899.699 1342.19 903.105 1358.99 904.271 1363.7C889.61 1385.1 888.375 1390.33 884.98 1415.84C890.056 1420.13 901.285 1427.93 896.094 1434.8C892.262 1436.86 888.478 1436.19 883.969 1436.06C875.893 1450.87 882.362 1454.59 863.339 1459.93C834.685 1453.38 838.599 1428.93 856.728 1412.09C863.214 1379.35 872.473 1362.11 896.887 1339.73Z"/><path fill="#75B7F6" transform="translate(-731 -1024)" d="M1157.16 1339.44C1182.18 1354.96 1192.04 1384.72 1198.52 1411.91C1216.45 1428.86 1220.17 1448.29 1195.1 1459.52C1179.26 1457.41 1177.79 1455.39 1173.64 1441.23C1171.35 1433.37 1166.24 1436.69 1159.02 1433.75C1153.31 1427.43 1165.16 1420.3 1170.12 1416.59C1168.58 1392.52 1164.52 1383.92 1151.36 1364.14C1153.63 1356.32 1155.39 1347.45 1157.16 1339.44Z"/><path fill="#59B797" transform="translate(-731 -1024)" d="M1096.74 1084.38L1108.01 1083.71C1108.98 1133.98 1094.64 1154.77 1042.57 1155.02C1053.24 1139.9 1064.83 1129.77 1078.33 1117.42C1081.49 1114.96 1081.34 1114.4 1081.52 1110.93L1080.03 1109.45C1070.32 1109.52 1043.28 1141.63 1036.58 1149.07C1032.76 1103.09 1056.21 1090.15 1096.74 1084.38Z"/><path fill="#040202" transform="translate(-731 -1024)" d="M1205.72 1218.32C1228.03 1213.05 1250.39 1226.89 1255.61 1249.22C1260.83 1271.55 1246.93 1293.87 1224.59 1299.04C1202.32 1304.18 1180.1 1290.34 1174.9 1268.09C1169.7 1245.84 1183.48 1223.58 1205.72 1218.32Z"/><path fill="#FBB148" transform="translate(-731 -1024)" d="M1207.48 1225.49C1225.85 1221.16 1244.27 1232.49 1248.68 1250.84C1253.09 1269.19 1241.84 1287.66 1223.51 1292.15C1205.06 1296.67 1186.46 1285.33 1182.02 1266.87C1177.58 1248.4 1189 1229.85 1207.48 1225.49Z"/><path fill="#040202" transform="translate(-731 -1024)" d="M894.995 1127.34C917.595 1126.34 936.785 1143.72 938.014 1166.31C939.242 1188.9 922.051 1208.27 899.476 1209.72C884.669 1210.68 870.49 1203.61 862.342 1191.21C854.194 1178.81 853.334 1162.99 860.088 1149.77C866.843 1136.56 880.172 1128 894.995 1127.34Z"/><path fill="#FBB148" transform="translate(-731 -1024)" d="M895.807 1134.55C914.619 1133.93 930.403 1148.61 931.143 1167.42C931.883 1186.23 917.301 1202.1 898.498 1202.96C879.526 1203.83 863.473 1189.09 862.727 1170.11C861.98 1151.13 876.825 1135.17 895.807 1134.55Z"/><path fill="#040202" transform="translate(-731 -1024)" d="M992.247 1144.55C979.081 1140.35 972.748 1133.24 967.377 1121.02C947.526 1075.87 1002.44 1087.53 1016.88 1111.34C1019.57 1115.76 1020.66 1119.71 1022.21 1124.43C1022.29 1130.24 1022.65 1134.36 1021.34 1140.06L1020.4 1137.94C1019.52 1140.21 1019.33 1141.95 1018.92 1144.32C1009.9 1146.1 1000.96 1144.96 992.247 1144.55Z"/><path fill="#59B797" transform="translate(-731 -1024)" d="M970.567 1098.49C977.478 1098.37 983.412 1098.56 990.21 1099.95C1002.96 1102.56 1018.86 1116.53 1014.74 1130.92C1014.24 1131.27 1013.73 1131.61 1013.23 1131.96C1004.98 1125.88 996.388 1110.42 985.282 1110.56C984.96 1110.55 984.638 1110.53 984.316 1110.51C990.1 1121.45 1001.75 1131.42 1010.79 1140.22C980.78 1136.62 973.102 1128.58 970.567 1098.49Z"/><path fill="#040202" transform="translate(-731 -1024)" d="M816.125 1248.01C846.501 1233.46 835.227 1226.13 842.845 1219.95C848.927 1223.51 848.509 1234.33 853.967 1238.96C858.55 1242.85 868.84 1242.6 870.571 1248.47C866.507 1255.05 852.697 1251.39 846.71 1270.05C843.785 1268.31 845.064 1269.47 843.324 1265.9C842.026 1267.48 840.623 1268.84 839.082 1270.18C835.906 1256.42 826.299 1255.69 816.125 1248.01Z"/><path fill="#75B7F6" transform="translate(-731 -1024)" d="M843.263 1233.86C848.236 1242.41 848.919 1243.88 857.169 1248.85C848.946 1254.07 847.709 1255.07 842.982 1263.34C838.706 1254.64 837.225 1253.77 829.413 1248.58C837.458 1243.57 838.902 1242.41 843.263 1233.86Z"/><path fill="#040202" transform="translate(-731 -1024)" d="M1148.51 1144.16C1150.75 1144.86 1149.97 1144.54 1151.9 1146.05C1154.34 1150.41 1154.27 1154.72 1154.77 1159.78C1159.44 1161.44 1168.41 1163.35 1168.41 1168.94C1165.34 1173.22 1161.13 1174.57 1156.19 1178.91L1155.27 1179.74C1154.13 1184.72 1153.21 1187.79 1151.55 1192.63C1145.44 1189.44 1148.28 1183.8 1143.94 1178.48C1139.26 1172.76 1134.54 1171.58 1127.94 1168.77C1143.87 1161.49 1145.08 1161.42 1148.51 1144.16Z"/><path fill="#75B7F6" transform="translate(-731 -1024)" d="M1150.22 1158.63C1153.69 1160.08 1156 1166.21 1157.67 1169.7C1155.07 1172.25 1153.1 1175.21 1150.96 1178.16C1149.1 1177.81 1144.79 1171.04 1143.18 1168.86C1146.01 1165.47 1147.86 1162.34 1150.22 1158.63Z"/><path fill="#040202" fill-opacity="0.96862745" transform="translate(-731 -1024)" d="M992.247 1144.55C1000.96 1144.96 1009.9 1146.1 1018.92 1144.32C1019.33 1141.95 1019.52 1140.21 1020.4 1137.94L1021.34 1140.06C1024.08 1147.1 1026.97 1150.54 1028.97 1158.07C1023.71 1165.66 1031 1188.39 1025.58 1190.11C1026.17 1172.19 1024.54 1162.86 1017.85 1146.66C1008.97 1147.54 1000.79 1147.59 992.247 1144.55Z"/><path fill="#FDF4E7" fill-opacity="0.023529412" transform="translate(-731 -1024)" d="M1022.21 1124.43C1024.52 1125.86 1024.73 1126.87 1025.91 1129.32L1026.32 1130.18L1025.95 1128.71L1028.4 1128.19L1030.1 1123.38C1028.78 1135.86 1028.71 1144.44 1030.54 1156.96L1029.85 1158.16L1028.97 1158.07C1026.97 1150.54 1024.08 1147.1 1021.34 1140.06C1022.65 1134.36 1022.29 1130.24 1022.21 1124.43Z"/><path fill="#040202" fill-opacity="0.98823529" transform="translate(-731 -1024)" d="M839.082 1270.18C840.623 1268.84 842.026 1267.48 843.324 1265.9C845.064 1269.47 843.785 1268.31 846.71 1270.05C846.07 1275.14 846.438 1275.65 843.247 1278.41L841.362 1278.07C839.067 1275.46 839.349 1273.69 839.082 1270.18Z"/></g></svg>