<?xml version="1.0" encoding="utf-8" ?><svg xmlns="http://www.w3.org/2000/svg" xmlns:xlink="http://www.w3.org/1999/xlink" width="871" height="619" viewBox="0 0 871 619"><clipPath id="characters-green-with-coins-cl_25"><rect width="871" height="619"/></clipPath><g clip-path="url(#characters-green-with-coins-cl_25)"><path fill="#0E0E10" transform="translate(-172 -711)" d="M638.909 846.485C692.214 845.373 799.681 843.086 809.739 911.416C815.24 948.787 817.87 988.229 820.072 1026.07C835.327 1012.2 840.812 1003.07 847.873 984.066C842.146 977.033 830.203 961.1 843.998 954.565C852.827 950.382 862.808 954.285 871.494 957.21C888.992 943.778 900.406 929.417 921.759 940.864C931.564 946.121 948.402 957.921 951.51 968.892C955.35 982.443 934.833 993.349 929.94 1003.5C909.935 1063.51 882.736 1105.66 817.916 1126.81C809.649 1173.63 788.987 1182.82 744.957 1188.89L737.497 1236.81C765.567 1251.23 784.45 1276.01 736.97 1283.04C719.493 1285.63 678.562 1284.86 667.981 1271.94C658.565 1260.44 660.259 1209.27 659.604 1193.69L646.609 1193.7C646.464 1217.8 648.644 1254.17 636.566 1274.68C617.996 1285.02 577.917 1287.19 558.401 1280.91C520.269 1268.65 549.911 1245.79 568.387 1236.89C566.94 1223.01 564.121 1205.25 561.973 1191.42C522.773 1185.49 489.936 1187.35 478.361 1140.61C421.261 1134.96 383.419 1095.14 356.931 1047.45C347.4 1042.54 334.059 1035.73 328.536 1026.23C322.007 1015.01 333.381 1008.15 335.914 996.106C343.101 990.482 349.358 982.694 356.991 979.56C370.767 973.903 386.021 983.078 397.395 986.16C401.319 987.223 421.573 975.698 430.177 980.337C440.624 985.969 433.017 1000.14 429.891 1006.49C439.45 1027.81 452.581 1036.6 471.952 1048.15C471.045 1008.28 470.744 934.564 484.432 896.971C486.791 890.368 490.489 884.324 495.295 879.219C524.969 847.517 597.672 848.269 638.909 846.485Z"/><path fill="#5EB794" transform="translate(-172 -711)" d="M481.311 1049.42C481.035 1012.08 481.863 937.133 493.03 902.943C511.258 847.129 638.488 857.648 684.901 856.887C715.556 856.385 764.455 862.748 786.83 885.444C809.471 910.289 808.779 1000.31 809.526 1033.33C803.164 1035.72 797.564 1036.93 793.914 1042.69L794.253 1044.71C797.225 1046.61 801.364 1046.39 804.639 1045.44C833.128 1037.19 852.667 1009.2 857.157 981.248C853.346 976.45 847.722 969.795 847.43 963.504L849.174 961.225C857.921 960.756 872.034 968.661 879.386 973.492C883.872 976.44 887.77 981.997 892.151 977.916C894.225 969.598 887.456 966.183 881.614 961.764C890.117 955.174 898.452 947.322 909.368 946.901L910.438 947.741C907.695 950.993 903.208 954.807 902.452 958.282L903.163 960.432C910.056 962.9 923.282 952.12 929.129 953.399C927.384 963.391 911.457 963.634 914.81 974.063C921.696 977.231 930.711 963.323 939.398 965.849C949.286 976.633 924.014 991.961 921.337 999.256C908.436 1034.41 897.632 1064.02 867.711 1089.29C851.216 1103.22 834.043 1112.39 812.539 1117.55C807.669 1118.89 800.308 1120.05 797.721 1124.09C800.84 1132.07 813.198 1124.57 803.523 1146.8C798.193 1159.06 789.956 1166.64 777.518 1171.17C732.893 1187.42 550.673 1190.77 511.134 1171.16C498.292 1164.79 492.267 1155.03 487.8 1141.97C494.018 1141.91 498.287 1142.01 503.162 1137.36L502.768 1135.93C495.352 1132.24 470.352 1130.17 460.139 1127.27C415.031 1114.43 388.541 1083.72 365.618 1044.65C360.365 1035.7 334.107 1031.75 337.411 1016.52C345.247 1008.94 355.247 1021.58 364.241 1015.38L364.827 1013.46C359.847 1005.83 347.107 1007.14 344.381 1002.07L345.24 999.802C353.72 996.037 370.393 1009.62 372.069 997.506C367.377 994.164 361.619 992.589 358.754 989.18L359.761 988.065C367.953 987.492 371.463 988.918 379.073 991.447C385.481 993.519 393.626 996.409 400.063 997.683L401.289 997.25C408.145 994.769 417.654 988.041 422.981 989.934C426.745 995.594 422.848 1003.35 420.872 1009.59C426.086 1026.54 439.612 1037.81 453.624 1047.68C463.669 1054.76 485.647 1065.19 496.984 1057.4L497.309 1055.57C494.062 1051.12 491.787 1050.32 486.56 1049.87L481.311 1049.42Z"/><path fill="#6FC19A" transform="translate(-172 -711)" d="M372.069 997.506C367.377 994.164 361.619 992.589 358.754 989.18L359.761 988.065C367.953 987.492 371.463 988.918 379.073 991.447C376.316 992.364 375.216 992.606 372.321 992.813C371.107 995.421 371.548 994.061 372.069 997.506Z"/><path fill="#0E0E10" transform="translate(-172 -711)" d="M774.597 918.956C777.276 919.237 776.351 918.904 778.529 920.545L778.718 922.918C776.104 928.061 772.548 930.179 767.545 932.796C728.452 953.244 621.232 951.521 577.09 945.996C558.336 943.649 540.345 939.173 522.354 933.543C520.653 932.447 519.972 931.838 518.405 930.553C517.168 926.96 517.053 928.596 518 925.49C522.865 923.834 534.21 928.645 539.963 930.266C550.666 933.193 561.538 935.466 572.517 937.072C616.03 943.644 662.916 941.314 706.748 938.398C731.4 936.759 752.616 930.082 774.597 918.956Z"/><path fill="#0E0E10" transform="translate(-172 -711)" d="M695.383 1011.51C700.642 1009.24 706.745 1011.67 708.997 1016.94C711.248 1022.2 708.792 1028.3 703.517 1030.53C698.269 1032.75 692.213 1030.31 689.972 1025.07C687.732 1019.83 690.152 1013.76 695.383 1011.51Z"/><path fill="#0E0E10" transform="translate(-172 -711)" d="M634.115 1037.26C640.755 1039.65 642.442 1046.24 647.022 1046.84C651.514 1047.42 658.431 1038.74 664.192 1039.58C665.632 1043.27 665.015 1042.77 664.369 1047.3C651.106 1059.53 627.058 1057.81 634.115 1037.26Z"/><path fill="#0E0E10" transform="translate(-172 -711)" d="M591.992 1014.48C595.413 1013 599.372 1013.49 602.32 1015.78C605.267 1018.06 606.734 1021.78 606.144 1025.46C605.555 1029.14 603.004 1032.21 599.49 1033.46C594.306 1035.31 588.59 1032.72 586.567 1027.6C584.545 1022.48 586.945 1016.68 591.992 1014.48Z"/><path fill="#5EB794" transform="translate(-172 -711)" d="M714.739 1191.43L733.922 1190.43C731.759 1208.3 728.949 1226.55 726.585 1244.48C735.781 1247.74 750.235 1252.53 753.716 1262.32C752.588 1275.22 729.159 1273.98 719.556 1274.01C677.027 1271.86 669.655 1276.87 670.098 1228.47C670.2 1217.24 669.995 1204.47 670 1193.1C684.923 1192.82 699.838 1192.26 714.739 1191.43Z"/><path fill="#5EB794" transform="translate(-172 -711)" d="M571.828 1191.99C593.428 1192.67 614.311 1193.54 635.996 1193.89C636.157 1213.2 636.602 1232.14 634.464 1251.39C632.232 1271.48 626.065 1270.99 608.246 1272.85C603.351 1273.23 598.453 1273.54 593.551 1273.79C581.293 1274.38 561.354 1274.72 551.835 1266.06C547.41 1254.99 571.461 1247.41 579.387 1244.6C576.977 1227.04 574.166 1209.64 571.828 1191.99Z"/><path fill="#0E0E10" transform="translate(-172 -711)" d="M893.489 826.928C917.137 822.218 940.125 837.576 944.826 861.226C949.527 884.877 934.159 907.859 910.506 912.549C886.868 917.237 863.903 901.881 859.205 878.244C854.507 854.608 869.854 831.636 893.489 826.928Z"/><path fill="#FBB44D" transform="translate(-172 -711)" d="M900.51 834.494C919.955 833.692 936.375 848.793 937.2 868.237C938.024 887.681 922.942 904.118 903.499 904.965C884.024 905.813 867.555 890.701 866.729 871.226C865.903 851.75 881.033 835.298 900.51 834.494Z"/><path fill="#0E0E10" transform="translate(-172 -711)" d="M920.105 857.131C932.44 860.705 930.237 872.336 924.231 880.777C917.376 890.409 913.014 893.433 901.667 895.851C900.262 895.758 898.107 895.123 896.663 894.767L895.565 892.901C900.677 885.436 910.46 890.285 920.278 873.946C919.984 868.399 920.093 862.698 920.105 857.131Z"/><path fill="#0E0E10" transform="translate(-172 -711)" d="M872.311 1158.42C885.681 1158.27 910.009 1160.42 899.937 1180.42C887.636 1204.85 863.237 1222.3 835.445 1209.63L831.371 1207.63C826.433 1207.97 821.518 1213.58 814.795 1216.39L813.678 1215.69C815.049 1206.4 820.582 1202.79 827.655 1198.39C828.422 1170.37 848.06 1161.46 872.311 1158.42Z"/><path fill="#5EB794" transform="translate(-172 -711)" d="M864.637 1167.17C877.568 1166.56 881.436 1167.06 894.28 1169.62C887.437 1186.02 877.737 1205.79 856.975 1206.44C852.415 1206.58 844.792 1205.8 841.351 1202.57L841.528 1200.65L844.804 1198.35C852.297 1195.64 864.57 1191.58 869.247 1184.92L868.63 1183.65C859.106 1181.03 844.496 1188.81 835.487 1192.94C836.438 1190.72 837.449 1188.53 838.518 1186.37C844.761 1173.76 852.328 1171.31 864.637 1167.17Z"/><path fill="#0E0E10" transform="translate(-172 -711)" d="M481.753 810.238C485.269 809.749 485.239 809.639 488.919 810.291L489.899 811.698C487.715 816.561 476.173 821.321 470.816 824.416C475.482 865.821 457.449 874.957 421.258 883.112C417.975 882.709 414.141 880.9 413.29 877.357C410.449 865.53 412.103 850.217 417.112 839.357C427.03 817.85 446.449 817.094 466.829 814.983C469.497 814.657 478.765 811.312 481.753 810.238Z"/><path fill="#5EB794" transform="translate(-172 -711)" d="M447.519 823.069C449.396 823.039 451.259 823.141 453.136 823.21L454.212 824.51C451.65 832.285 436.363 841.309 436.828 849.88C438.406 852.559 437.36 851.486 440.232 853.053C443.537 851.585 460.869 830.754 464.979 826.298C465.207 838.274 465.139 842.191 460.676 853.232L460.197 853.954C449.358 869.967 438.231 872.12 420.647 875.612C417.885 849.045 422.388 834.775 447.519 823.069Z"/><path fill="#0E0E10" transform="translate(-172 -711)" d="M374.615 908.467C394.09 907.093 417.631 910.024 426.433 931.365C431.982 944.821 421.684 957.83 408.76 962.128C363.114 969.788 331.342 922.134 374.615 908.467Z"/><path fill="#FBB44D" transform="translate(-172 -711)" d="M375.527 915.174C386.619 915.027 423.014 920.002 419.344 935.471C416.509 938.909 415.139 939.14 410.923 941.06C399.774 941.237 363.793 936.372 366.717 921.007C369.182 917.58 371.526 917.027 375.527 915.174Z"/><path fill="#FBB44D" transform="translate(-172 -711)" d="M362.326 933.786C380.011 941.542 382.298 950.116 407.161 947.502C409.468 947.259 413.709 947.112 415.563 949.004L414.285 953.439C412.534 953.77 410.772 954.041 409.002 954.251C393.284 956.081 364.577 953.586 362.326 933.786Z"/><path fill="#0E0E10" transform="translate(-172 -711)" d="M259.164 998.324C276.511 998.209 303.916 1006.69 309.194 1025.2C313.462 1040.18 302.922 1051.86 288.988 1055.53C246.459 1057 213.258 1010.97 259.164 998.324Z"/><path fill="#FBB44D" transform="translate(-172 -711)" d="M257.745 1006.11C272.339 1006.3 291.283 1011.45 301.006 1022.87C305.47 1028.11 299.792 1032.66 295.523 1034.97C293.219 1034.97 290.916 1034.89 288.617 1034.75C278.567 1034.06 249.525 1024.08 251.329 1011.13C253.292 1008.02 254.491 1007.76 257.745 1006.11Z"/><path fill="#FBB44D" transform="translate(-172 -711)" d="M245.855 1021.94C263.204 1036.41 271.024 1040.88 293.631 1042.06C296.794 1044.32 295.588 1042.84 296.822 1047.07C280.652 1050.95 244.811 1043.62 245.855 1021.94Z"/><path fill="#0E0E10" transform="translate(-172 -711)" d="M308.156 900.266C315.943 900.262 327.042 904.503 330.028 912.322C337.98 933.146 317.212 956.425 298.937 963.73C253.679 956.734 278.014 909.638 308.156 900.266Z"/><path fill="#FBB44D" transform="translate(-172 -711)" d="M306.412 907.795C310.782 907.99 311.133 908.011 314.335 910.578C321.076 922.964 298.632 941.822 289.546 948.199C285.489 947.925 284.962 948.159 281.816 945.653C275.371 932.491 296.794 914.64 306.412 907.795Z"/><path fill="#FBB44D" transform="translate(-172 -711)" d="M322.986 915.609C335.805 929.681 307.977 951.795 296.309 957.388L293.94 955.404C294.238 952.227 308.009 944.523 311.733 939.256C317.788 930.695 319.62 925.352 322.986 915.609Z"/><path fill="#0E0E10" transform="translate(-172 -711)" d="M822.365 779.382C831.46 781.54 833.132 794.199 835.498 802.266C841.414 806.678 857.204 813.745 859.452 817.106C858.272 824.29 840.753 827.352 836.97 830.72C833.167 834.107 830.279 847.514 827.043 854.116L824.002 854.105C815.688 849.745 817.621 835.57 811.067 830.575C806.148 826.826 793.287 824.655 789.74 818.367L790.265 816.487C794.922 812.928 804.649 809.001 810.632 805.892C816.405 796.632 816.925 788.459 822.365 779.382Z"/><path fill="#FBB44D" transform="translate(-172 -711)" d="M824.199 795.59C833.73 808.487 827.135 808.259 846.526 817.691C833.91 823.631 830.555 827.382 825.124 839.577C822.874 838.786 817.614 827.205 812.433 823.467C808.615 820.714 807.569 820.08 803.017 817.713C816.267 811.747 818.331 808.053 824.199 795.59Z"/><path fill="#0E0E10" transform="translate(-172 -711)" d="M963.384 886.812C973.193 886.963 983.653 888.394 985.386 899.26C975.48 901.04 965.174 897.704 963.384 886.812Z"/><path fill="#0E0E10" transform="translate(-172 -711)" d="M947.216 910.915C957.966 913.293 963.234 919.471 961.709 930.518C952.575 928.685 945.604 920.445 947.216 910.915Z"/><path fill="#0E0E10" transform="translate(-172 -711)" d="M980.855 854.034C984.112 855.055 982.991 854.09 984.652 856.596C983.024 862.439 972.473 865.778 967.268 867.155C964.711 866.456 965.629 866.901 963.621 865.014L963.872 862.872C968.3 857.575 974.468 855.932 980.855 854.034Z"/></g></svg>