<?xml version="1.0" encoding="utf-8" ?><svg xmlns="http://www.w3.org/2000/svg" xmlns:xlink="http://www.w3.org/1999/xlink" width="722" height="706" viewBox="0 0 722 706"><clipPath id="concepts-bounce-back-cl_3"><rect width="722" height="706"/></clipPath><g clip-path="url(#concepts-bounce-back-cl_3)"><path fill="#100E16" transform="translate(-1326 -1342)" d="M1609.84 1631.11C1624.94 1631.41 1629.34 1632.59 1643.8 1636.72C1657.17 1641.93 1664.83 1646.05 1675.68 1655.24C1691.07 1642.92 1705.66 1635.97 1725.51 1634.4C1763.79 1631.37 1783.31 1642.09 1811.18 1665.38C1846.86 1657.5 1871.18 1662.06 1901.39 1683.88C1912.41 1691.84 1930 1705.04 1932.35 1719.47C1935.26 1737.28 1911.6 1739.29 1903.52 1727.22C1892.09 1713.4 1875.72 1701.67 1859.06 1695.54C1848.7 1691.72 1841.13 1692.02 1830.3 1692.37C1835.45 1705.44 1840.55 1716.46 1842.53 1730.61C1846.3 1757.47 1837.1 1792.16 1805.06 1794.95C1792.87 1795.96 1780.8 1791.87 1771.74 1783.65C1761.41 1774.43 1756.26 1762.02 1755.94 1748.38C1755.3 1720.24 1766.99 1700.49 1785.37 1680.66C1751.95 1658.26 1729.6 1658.13 1694.38 1676.06C1697.12 1682.77 1701.66 1689.93 1704.95 1696.75C1724.13 1734.81 1735.41 1801.53 1707.97 1838.92C1674.18 1884.95 1627.74 1846.2 1621.35 1802.65C1614.82 1757.42 1626.53 1711.46 1653.9 1674.87C1618.03 1649.69 1586.37 1661.11 1555.33 1686.14C1560.24 1691.41 1564.85 1696 1569.6 1701.54C1590.45 1725.84 1597.91 1773.04 1569.52 1795.16C1560.96 1801.76 1550.16 1804.73 1539.43 1803.45C1505.38 1799.12 1494.26 1755.45 1501.86 1727.4C1503.89 1719.9 1507.93 1712.78 1509.15 1705.03C1496.67 1698.17 1452.68 1729.07 1445.99 1741.2C1441.4 1749.51 1431.88 1766.06 1421.46 1765.01C1395.95 1762.42 1412.55 1733.62 1422.56 1722.86C1453.96 1685.78 1479.86 1674.02 1527.24 1675.66C1528.36 1674.31 1529.49 1672.96 1530.63 1671.62C1551.84 1646.76 1577.29 1633.75 1609.84 1631.11ZM1671.34 1830.81C1706.04 1815.1 1694.35 1751.26 1684.59 1722.87C1682.85 1717.81 1676.34 1701.48 1671.85 1699.46C1652.6 1731.94 1643.06 1765.62 1650.96 1803.59C1653.68 1816.65 1659.84 1824.47 1671.34 1830.81ZM1548.64 1772.55C1566.16 1756.51 1555.81 1720.9 1538.27 1712.23C1532.68 1723.93 1523.07 1764.34 1540.29 1772.54C1543.04 1773.85 1545.78 1773.57 1548.64 1772.55ZM1797.76 1764.3C1822.15 1763.47 1813.16 1720.02 1805.27 1706.29L1803.7 1705.55C1790.83 1720.44 1773.39 1751.51 1797.76 1764.3Z"/><path fill="#A29CEA" transform="translate(-1326 -1342)" d="M1601.57 1638.24C1622.26 1637.16 1640.67 1639.33 1658.66 1651.41C1710.7 1686.34 1736.37 1780.38 1703.5 1835.15C1692.85 1852.89 1667.26 1857.6 1650.65 1844.85C1635.44 1833.18 1629.8 1816.2 1626.75 1797.7C1621.11 1755.34 1633.5 1714.4 1658.61 1680.29C1662.15 1683.76 1666.13 1688.52 1669.47 1692.3C1664.69 1699.44 1660.79 1706.21 1656.5 1713.63C1643.04 1746.57 1632.6 1793.93 1654.57 1826.03C1658.27 1831.42 1663.56 1834.09 1669.78 1835.16C1691.63 1838.96 1698.62 1809.13 1700.38 1792.32C1705.79 1740.56 1680.49 1661.52 1620.29 1654.23C1594.18 1651.06 1568.75 1667.14 1549.16 1683.14L1533.86 1676.95C1551.93 1654.04 1573.6 1643.69 1601.57 1638.24Z"/><path fill="#A29CEA" transform="translate(-1326 -1342)" d="M1504.25 1681.35C1511.44 1680.65 1521.09 1681.46 1528.1 1683.15C1546.21 1687.41 1561.79 1698.88 1571.23 1714.91C1584.08 1736.76 1587.84 1778.82 1561.66 1792.63C1542.11 1802.94 1520.65 1794.47 1511.8 1774.64C1501.8 1752.25 1508.73 1725.02 1516.9 1703.31C1521.7 1704.45 1527.5 1706.36 1532.32 1707.79C1522.83 1729.98 1514.32 1765.2 1539.65 1779.99C1572.31 1780.38 1568.2 1743.45 1556.97 1723.72C1528.43 1673.61 1465.27 1703.19 1439.26 1739.02C1434.02 1746.24 1432.1 1753.97 1424.28 1758.48C1404.67 1761.63 1419.16 1738.32 1424.03 1731.93C1445.01 1704.42 1469.57 1686.2 1504.25 1681.35Z"/><path fill="#A29CEA" transform="translate(-1326 -1342)" d="M1729.71 1640.37C1754.18 1638.67 1776.7 1645.74 1797.01 1661.45C1827.61 1685.13 1852.41 1741.87 1827.12 1777.2C1816.77 1790.7 1788.99 1792.19 1777.55 1780.17C1748.74 1749.9 1766.44 1711.09 1790.05 1685.4C1793.71 1689.55 1797.84 1694.14 1800.37 1699.01C1782.57 1716.7 1765.16 1753.85 1795.81 1771.67C1806.48 1777.88 1815.76 1766.61 1818.29 1756.28C1822.85 1737.7 1819.12 1717.17 1809.64 1700.47C1797.87 1679.96 1778.38 1665.02 1755.52 1658.98C1729.2 1652.08 1712.55 1658.94 1690.24 1671.95L1679.96 1659.36C1697.17 1647.01 1708.81 1642.92 1729.71 1640.37Z"/><path fill="#A29CEA" transform="translate(-1326 -1342)" d="M1835.84 1668.39C1866.22 1665.37 1908.26 1690.25 1924.19 1716.02C1926.14 1719.17 1926.42 1721.41 1925.5 1725.01C1920.97 1730.09 1917.81 1728.88 1912.31 1725.94C1885.8 1697.58 1866.67 1683.41 1827.37 1685.32C1823.86 1680.55 1820.43 1675.73 1817.08 1670.85C1823.3 1669.84 1829.58 1669.14 1835.84 1668.39Z"/><path fill="#140C0D" transform="translate(-1326 -1342)" d="M1623.1 1624.11C1596.82 1613.08 1581.1 1596.87 1570.26 1570.29C1560.06 1545.38 1560.14 1517.44 1570.5 1492.59C1580.5 1468.89 1599.5 1450.13 1623.33 1440.43C1645.87 1431.35 1673.43 1430.36 1697.06 1435.17C1761.2 1448.23 1792.03 1516.37 1765.6 1574.77C1754.95 1598.82 1734.98 1617.5 1710.28 1626.53C1694 1632.57 1681.64 1631.92 1664.52 1632.87C1649.01 1631.66 1637.95 1629.11 1623.1 1624.11Z"/><path fill="#FBB34E" transform="translate(-1326 -1342)" d="M1646.75 1442.55C1696.38 1435.83 1742.08 1470.57 1748.9 1520.19C1755.72 1569.8 1721.08 1615.58 1671.48 1622.5C1621.73 1629.44 1575.79 1594.67 1568.96 1544.91C1562.12 1495.15 1596.97 1449.29 1646.75 1442.55Z"/><path fill="#140C0D" transform="translate(-1326 -1342)" d="M1651.52 1457.28C1659.96 1456.24 1696.73 1460.02 1697.34 1470.45C1689.48 1470.29 1674.62 1462.25 1666.11 1461.77C1646.88 1460.69 1628.96 1465.72 1614.38 1478.56C1599.87 1491.52 1591.08 1509.7 1589.95 1529.13C1588.93 1548.02 1595.18 1567.09 1608.01 1581.11C1620.14 1594.43 1637.08 1602.36 1655.07 1603.15C1687.89 1604.57 1719.77 1580.25 1725.85 1547.74C1726.96 1541.77 1727.32 1535.8 1727.49 1529.75C1726.8 1516.36 1722.91 1510.96 1720.16 1498.22C1719.53 1495.32 1719.46 1495.3 1720.59 1493.69C1726.03 1498.81 1729.27 1509.77 1730.73 1517.04C1734.81 1537.07 1730.66 1557.89 1719.22 1574.82C1708.16 1591.53 1690.8 1603.03 1671.1 1606.69C1652.57 1610.09 1632.14 1605.5 1616.67 1594.8C1600.35 1583.32 1589.38 1565.72 1586.26 1546.02C1582.88 1525.07 1588.02 1503.64 1600.55 1486.51C1613.96 1467.99 1629.69 1460.93 1651.52 1457.28Z"/><path fill="#140C0D" transform="translate(-1326 -1342)" d="M1642.02 1532.37C1645.83 1534.55 1650.88 1538.41 1654.58 1541.05C1660.02 1539.52 1667.73 1534.26 1672.37 1537.45L1672.55 1540.87C1661.88 1547.25 1640.15 1551.41 1642.02 1532.37Z"/><path fill="#140C0D" transform="translate(-1326 -1342)" d="M1690.82 1520.48C1694.15 1518.97 1698.07 1520.41 1699.62 1523.72C1701.17 1527.03 1699.77 1530.97 1696.47 1532.56C1694.31 1533.6 1691.76 1533.39 1689.79 1532.03C1687.82 1530.66 1686.73 1528.34 1686.94 1525.95C1687.16 1523.56 1688.64 1521.47 1690.82 1520.48Z"/><path fill="#140C0D" transform="translate(-1326 -1342)" d="M1621.13 1514.5C1624.52 1513.85 1627.83 1515.93 1628.71 1519.26C1629.6 1522.59 1627.76 1526.04 1624.5 1527.16C1622.17 1527.95 1619.6 1527.38 1617.83 1525.69C1616.06 1523.99 1615.38 1521.44 1616.08 1519.09C1616.77 1516.74 1618.72 1514.97 1621.13 1514.5Z"/><path fill="#FBB34E" transform="translate(-1326 -1342)" d="M1756.29 1517.12C1771.84 1517.19 1769.38 1525.82 1767.36 1537.24C1752.06 1536.76 1751.85 1530.02 1756.29 1517.12Z"/><path fill="#FBB34E" transform="translate(-1326 -1342)" d="M1754.4 1542.37L1768.12 1541.91C1766.84 1548.29 1765.2 1554.66 1763.66 1560.99L1751 1561.99C1752.43 1555.31 1753.37 1549.1 1754.4 1542.37Z"/><path fill="#FBB34E" transform="translate(-1326 -1342)" d="M1748.64 1495.16L1760.5 1494.76L1766.31 1511.9L1753.69 1512.09C1752.05 1506.43 1750.37 1500.79 1748.64 1495.16Z"/><path fill="#FBB34E" transform="translate(-1326 -1342)" d="M1749.01 1567L1761.88 1566.88C1759.15 1572.32 1756.11 1577.9 1753.27 1583.3C1749.3 1583.54 1746.57 1584.07 1743.56 1582.25C1743.22 1578.18 1747.04 1571.51 1749.01 1567Z"/><path fill="#FBB34E" transform="translate(-1326 -1342)" d="M1737.81 1475.06C1751.35 1475.36 1751.24 1477.34 1757.5 1488.85L1746.87 1489.99L1737.81 1475.06Z"/><path fill="#FBB34E" transform="translate(-1326 -1342)" d="M1738.11 1589.66C1741.26 1589.48 1742.94 1589 1745.52 1590.72L1745.82 1592.76C1743.38 1597.34 1739.46 1600.25 1735.55 1603.78C1732.56 1604.24 1731.74 1604.71 1728.99 1603.55L1728.62 1601.74C1730.57 1597.29 1734.74 1593.36 1738.11 1589.66Z"/><path fill="#FBB34E" transform="translate(-1326 -1342)" d="M1725.05 1457.82C1734.02 1458.71 1738.64 1462.3 1743.03 1470.03C1733.48 1470.38 1728.27 1466.82 1725.05 1457.82Z"/><path fill="#FBB34E" transform="translate(-1326 -1342)" d="M1721.17 1608.87C1723.74 1609.05 1722.63 1608.6 1724.56 1610.09C1722.4 1614.32 1710.85 1618.46 1706.26 1620.43L1704.45 1620.87L1704.02 1620.11C1708.26 1616.38 1716.11 1611.94 1721.17 1608.87Z"/><path fill="#FBB34E" transform="translate(-1326 -1342)" d="M1707.37 1446.72C1714.98 1447.42 1718.4 1449.58 1724.61 1454.06C1716.57 1453.56 1713.9 1451.19 1707.37 1446.72Z"/><path fill="#100E16" fill-opacity="0.97647059" transform="translate(-1326 -1342)" d="M1791.63 1498.3C1810.08 1501.18 1801.24 1542.97 1797.45 1554.73C1795.92 1555.46 1796.83 1555.23 1794.68 1555.08C1792.11 1551.09 1795.5 1542.71 1796.47 1537.7C1799.24 1523.26 1791.22 1511.93 1791.63 1498.3Z"/><path fill="#100E16" fill-opacity="0.98039216" transform="translate(-1326 -1342)" d="M1538.31 1535.49L1540.64 1537.64C1543.32 1544.45 1539.66 1548.94 1541.22 1557.73C1543.3 1569.51 1554.83 1578.76 1553.21 1589.39C1537.58 1579.07 1529.81 1552.4 1538.31 1535.49Z"/><path fill="#FDF2E0" fill-opacity="0.015686275" transform="translate(-1326 -1342)" d="M1623.1 1624.11C1637.95 1629.11 1649.01 1631.66 1664.52 1632.87L1663.27 1633C1656.5 1633.69 1650.59 1632.78 1644.83 1633.83C1644.5 1634.72 1644.05 1635.83 1643.8 1636.72C1629.34 1632.59 1624.94 1631.41 1609.84 1631.11L1611.37 1629.06C1617.28 1627.21 1619.67 1630.38 1624 1627.79L1623.1 1624.11Z"/><path fill="#100E16" transform="translate(-1326 -1342)" d="M1814.2 1510.48C1824.88 1514.65 1820.97 1531.2 1818.93 1539.6C1815.99 1540.75 1817.39 1540.8 1814.6 1539.58C1810.96 1533.19 1813.04 1517.85 1814.2 1510.48Z"/><path fill="#100E16" fill-opacity="0.98431373" transform="translate(-1326 -1342)" d="M1520.38 1550.74C1524.34 1554.08 1529.67 1575.49 1528.13 1580.46C1517.54 1576.19 1515.15 1559.7 1520.38 1550.74Z"/></g></svg>