<?xml version="1.0" encoding="utf-8" ?><svg xmlns="http://www.w3.org/2000/svg" xmlns:xlink="http://www.w3.org/1999/xlink" width="1044" height="1084" viewBox="0 0 1044 1084"><clipPath id="concepts-compounding-cl_4e"><rect width="1044" height="1084"/></clipPath><g clip-path="url(#concepts-compounding-cl_4e)"><path fill="#040403" d="M442.659 189.193C469.126 143.718 514.07 117.95 567.244 123.973C599.837 127.824 629.638 144.251 650.297 169.753C653.38 167.76 656.497 165.819 659.645 163.931C696.291 142.265 730.397 159.511 749.642 193.577C807.66 174.46 854.877 213.68 856.155 273.279C918.199 276.854 954.12 341.411 930.971 398.125C957.01 421.09 967.277 451.885 945.641 483.105C938.84 492.919 930.603 498.897 921.307 506.163C921.914 511.258 923.185 516.31 924.306 521.329C942.176 531.987 955.266 545.273 956.31 567.656C956.876 582.159 951.491 596.264 941.403 606.699C917.077 631.718 887.589 624.079 865.37 601.559C851.796 604.663 846.468 604.728 833.083 601.13C820.382 624.831 810.659 634.327 785.09 643.696C784.63 667.814 771.607 687.861 747.899 694.228C717.353 702.43 697.022 682.07 685.142 657.358C669.025 656.543 663.423 655.715 648.75 648.89C639.283 674.9 633.526 686.672 615.924 708.716L616.572 728.653C667.186 740.162 662.3 819.897 616.341 830.173C587.186 836.692 566.656 816.482 561.897 789.34C561.05 778.336 561.583 773.935 563.761 763.181C559.939 765.899 556.073 769.281 552.441 772.301C515.549 804.177 486.318 827.265 482.535 879.755C480.714 906.413 488 932.9 503.2 954.876C519.619 952.422 547.292 951.304 553.147 971.123L552.696 973.268C535.796 981.619 532.844 941.383 491.544 978.961C473.224 972.514 473.4 971.79 454.197 973.914C437.853 975.722 430.966 1007.86 423.174 995.555C424.402 987.216 432.681 979.735 427.05 972.915C422.342 967.212 409.151 964.176 402.341 963.412C386.129 961.594 376.693 977.903 366.509 980.782C350.689 985.254 352.02 973.681 333.781 985.578L331.536 985.424C329.677 981.973 330.167 983.821 330.432 979.591C337.279 967.25 350.932 969.398 362.234 972.477C371.227 964.49 377.234 960.184 388.888 956.219C383.189 932.591 381.612 917.078 382.628 892.682C352.609 903.064 329.337 906.169 299.076 892.447C269.304 878.948 261.845 851.913 247.282 825.612C244.245 818.876 222.837 805.179 227.584 797.9C232.766 789.955 250.979 784.598 260.063 782.572C312.358 770.906 362.975 777.539 388.8 829.014C390.087 832.241 391.395 835.713 392.787 838.876C394.212 835.515 395.721 832.135 396.967 828.711C421.104 768.874 469.192 744.759 516.784 707.169C534.494 693.181 541.515 679.496 543.486 657.225C506.308 668.907 482.883 661.651 456.701 633.217C417.176 656.323 387.898 650.581 349.081 629.935C348.349 631.888 347.579 633.827 346.772 635.751C341.434 648.316 331.127 658.668 318.295 663.529C305.357 668.402 290.993 667.799 278.51 661.858C266.081 655.767 256.658 644.892 252.4 631.723C246.697 613.951 251.007 601.368 259.101 585.996C256.299 584.991 253.507 583.961 250.725 582.906C200.224 563.67 184.908 520.871 204.746 471.633C180.201 442.452 187.249 411.75 218.245 390.979C215.625 339.262 231.987 306.781 287.307 302.61C288.111 290.444 289.062 281.154 292.473 269.34C301.475 238.157 322.713 211.945 351.351 196.673C383.477 179.245 408.658 179.273 442.659 189.193Z"/><path fill="#65B78E" d="M547.735 133.424C575.907 130.772 607.522 142.132 628.739 160.578C636.749 167.542 642.061 176.241 651.175 182.32C669.276 170.302 684.686 158.794 708.589 166.739C726.802 172.794 736.023 190.017 743.961 206.202C786.25 188.669 828.426 202.288 842.842 247.31C846.928 260.073 846.198 269.927 845.92 282.988C857.188 283.074 866.264 284.007 876.894 287.835C896.574 294.904 912.563 309.624 921.232 328.654C933.883 356.059 929.378 376.833 919.633 403.671C941.989 418.722 952.963 438.539 944.43 466.052C938.702 484.521 926.031 492.118 910.114 500.499C912.47 511.583 914.317 520.206 913.412 531.606C912.074 549.718 903.383 566.493 889.359 578.033C868.624 595.213 849.943 594.168 824.959 591.631C824.644 592.543 824.32 593.45 823.987 594.355C815.768 616.51 805.54 624.742 784.845 634.226C777.369 609.176 765.028 599.974 740.04 594.431L738.99 575.487C750.024 573.225 764.168 568.956 772.637 561.194C775.423 558.641 779.618 550.789 775.979 547.396C764.094 545.994 746.96 590.346 696.706 546.577C663.291 569.417 627.071 575.126 595.985 544.024C591.481 539.517 589.811 533.248 584.511 528.785C580.727 528.095 582.363 527.727 579.351 529.425C574.695 541.216 594.297 555.887 602.297 562.545C599.655 589.246 597.813 601.419 587.984 626.163C578.681 607.618 573.769 601.916 556.437 590.375C540.66 581.461 527.297 573.809 516.192 559.308C520.09 555.973 523.705 552.321 527 548.39C532.328 541.929 541.293 527.728 531.806 521.089C521.845 524.248 523.951 538.375 519.376 544.431C514.173 551.318 497.859 554.558 489.835 556.069C470.832 605.636 443.283 573.324 432.242 578.552C430.594 585.916 442.236 592.085 448.387 593.264C462.834 596.031 472.402 592.05 484.032 584.197C502.159 610.759 530.04 612.329 542.942 647.703C502.254 660.093 486.412 652.358 458.813 621.91C449.88 626.84 443.315 630.471 433.598 633.593C410.588 640.89 385.613 638.665 364.256 627.415C339.167 614.423 327.872 596.957 319.626 570.828C313.122 572.809 306.805 574.688 300.183 576.362C252.958 588.306 201.3 555.151 205.797 503.496C206.969 490.037 210.394 482.021 216.165 469.726C191.468 441.144 193.654 414.722 228.709 396.637C228.24 393.066 227.878 389.481 227.624 385.888C225.456 358.086 233.229 331.015 260.305 318.122C274.112 311.548 282.096 313.384 296.373 312.375C299.703 296.984 297.678 285.674 303.335 268.543C312.737 240.332 332.95 217.005 359.537 203.685C388.996 189.129 416.202 190.127 446.523 200.264C453.727 191.139 459.498 179.954 466.621 171.45C488.065 145.849 515.605 136.585 547.735 133.424Z"/><path fill="#040403" d="M594.088 351.452C595.378 351.912 595.841 352.308 597.024 353.022C599.495 358.635 596.741 372.682 595.808 379.437C606.61 380.961 615.796 383.457 624.844 389.972C637.157 398.824 645.231 412.399 647.133 427.443C649.102 442.414 644.914 457.544 635.528 469.373C624.38 483.334 611.908 487.492 595.108 489.303C583.878 489.042 573.82 486.751 564.083 481.01C551.908 473.904 543.127 462.173 539.741 448.489C536.092 434.051 538.453 418.75 546.285 406.083C556.968 388.827 569.798 383.826 588.24 379.383C588.168 367.961 588.781 361.559 594.088 351.452Z"/><path fill="#FAB84F" d="M588.644 389.517C613.717 387.187 635.898 405.708 638.076 430.796C640.254 455.883 621.598 477.95 596.498 479.976C571.613 481.985 549.775 463.523 547.615 438.65C545.456 413.777 563.785 391.828 588.644 389.517Z"/><path fill="#E28E2F" d="M590.121 400.488C593.021 400.815 592.935 400.72 595.552 401.946C602.041 413.963 608.574 411.116 611.424 418.388C608.343 425.297 590.12 418.625 583.263 424.184C577.401 428.937 579.52 438.246 583.38 443.542C589.509 451.951 601.135 444.116 609.904 445.484C613.252 448.143 611.924 446.493 613.474 451.006C606.218 458.902 599.937 453.71 597.457 464.573L597.11 466.146L595.353 467.164C591.411 465.708 572.293 447.122 569.178 441.643C567.624 409.432 586.306 420.967 590.121 400.488Z"/><path fill="#040403" d="M392.394 277.132C416.839 275.943 437.506 286.325 446.259 310.9C452.242 327.7 446.864 342.958 439.486 358.296C446.721 360.936 454.445 364.023 458.895 370.685L458.561 372.352C452.346 375.744 441.261 371.209 435.263 368.427C421.748 362.158 409.421 366.738 396.658 372.112C391.895 375.904 387.064 379.609 382.165 383.223C380.183 381.329 378.157 379.481 376.088 377.681C357.966 362.133 347.844 382.906 338.29 373.664C338.548 364.262 353.372 363.017 360.574 361.652C355.517 354.461 352.031 348.656 349.87 340.032C346.626 326.806 348.762 312.832 355.811 301.179C364.901 286.136 376.375 280.901 392.394 277.132Z"/><path fill="#FAB84F" d="M395.867 286.274C407.048 286.413 415.797 288.51 424.61 295.884C433.52 303.362 439.024 314.128 439.869 325.73C440.71 337.934 436.51 346.997 428.724 355.981C416.239 355.797 408.656 356.271 396.932 360.935C393.107 363.048 389.123 365.706 385.408 368.07L384.048 367.286C371.732 360.139 362.188 350.88 358.696 336.539C356.092 326.172 357.843 315.191 363.542 306.148C371.492 293.702 382.408 289.41 395.867 286.274Z"/><path fill="#E28E2F" d="M397.018 296.414C400.235 297.178 414.714 311.2 416.129 314.685C413.651 320.024 395.338 311.819 390.784 317.258C382.51 327.138 389.211 344.709 404.274 338.156C409.59 335.843 414.061 336.74 417.454 340.486C415.847 342.62 400.613 355.321 398.1 357.096L396.105 356.075C393.081 344.033 382.088 345.861 377.723 335.327C369.518 315.527 392.738 309.202 397.018 296.414Z"/><path fill="#040403" d="M806.625 311.228C824.344 311.618 838.926 316.547 849.765 331.414C858.087 342.99 861.393 357.43 858.938 371.474C856.067 387.998 848.176 396.611 835.43 405.926C840.855 411.113 846.147 415.448 846.6 422.961L845.366 424.18C839.091 423.624 825.822 412.212 820.183 407.921C790.127 394.818 775.579 417.865 762.18 412.858L761.848 411.339C765.16 404.929 768.403 403.34 774.411 400.081C767.354 391.762 762.239 383.748 759.81 372.961C756.757 359.675 759.332 345.717 766.925 334.395C776.731 319.814 790.213 314.229 806.625 311.228Z"/><path fill="#FAB84F" d="M801.581 321.098C821.363 319.91 837.158 324.336 846.068 343.752C851.093 354.765 851.491 367.333 847.173 378.642C842.582 390.797 832.647 403.176 818.537 396.99C804.244 393.099 798.617 393.823 784.507 396.464C778.148 390.48 773.982 386.015 770.673 377.612C766.517 367.046 766.897 355.235 771.725 344.958C778.382 330.876 788.136 326.075 801.581 321.098Z"/><path fill="#E28E2F" d="M799.33 331.909L803.019 333.089C808.683 341.549 809.719 337.763 818.15 339.789C821.442 342.606 820.833 340.988 821.15 344.334C815.893 350.192 793.741 351.674 796.902 361.491C803.252 381.219 813.238 371.262 825.98 367.491C828.149 366.849 830.518 369.961 831.885 371.366C828.734 374.885 824.738 378.628 821.359 382.327C820.873 384.958 820.547 386.447 819.803 389.012C814.178 389.784 794.68 378.593 790.913 373.865C777.875 357.499 795.919 351.808 798.289 337.62C798.704 335.134 798.317 334.864 799.33 331.909Z"/><path fill="#040403" d="M649.888 239.854L652.958 240.124C665.986 247.812 663.261 279.175 656.486 290.335C647.945 304.407 639.114 308.302 624.65 312.882C620.938 312.414 617.957 310.732 616.279 307.27C611.122 296.624 612.454 282.493 615.664 271.471C620.781 253.905 634.929 247.42 649.888 239.854Z"/><path fill="#65B78E" d="M649.153 248.977C650.617 250.454 651.095 251.554 651.821 253.434C661.049 277.332 647.212 296.353 625.317 304.437C620.396 298.103 619.124 287.144 621.281 279.485C625.579 264.227 636.173 256.452 649.153 248.977Z"/><path fill="#040403" d="M289.856 460.077C306.833 459.372 326.9 460.928 315.713 485.153C309.118 499.433 297.084 505.843 282.711 510.642C276.425 511.211 265.664 512.333 260.082 509.924C243.157 502.62 261.242 479.948 268.833 472.052C275.339 465.285 281.418 462.696 289.856 460.077Z"/><path fill="#65B78E" d="M288.834 468.126C297.868 467.472 303.147 467.851 311.939 469.419C306.417 487.87 303.088 495.267 283.903 501.735C275.55 503.388 269.399 502.954 260.992 502.617C267.764 484.074 270.857 477.378 288.834 468.126Z"/><path fill="#040403" d="M814.042 495.096L814.921 495.063C843.971 494.145 861.047 506.843 865.71 538.283C866.278 542.109 863.938 545.394 861.207 547.991C845.525 547.776 830.638 544.624 819.409 532.813C808.979 521.842 801.778 507.408 814.042 495.096Z"/><path fill="#65B78E" d="M816.532 502.193C841.627 502.885 855.363 514.656 857.067 540.226C833.78 536.748 815.841 529.084 816.532 502.193Z"/><path fill="#040403" d="M511.002 308.024C541.683 308.473 565.215 325.33 558.378 358.573C554.279 359.251 549.267 359.408 545.179 358.866C533.892 357.329 523.764 351.136 517.254 341.788C509.688 330.967 508.707 320.59 511.002 308.024Z"/><path fill="#65B78E" d="M517.597 315.48C540.895 320.56 549.856 328.253 552.412 352.484C527.453 349.085 522.185 338.136 517.597 315.48Z"/><path fill="#040403" d="M399.02 469.005C411.96 471.878 408.792 492.597 405.713 501.423C400.322 516.875 389.215 522.239 375.698 528.852C361.778 525.681 366.38 498.878 371.539 490.206C379.101 477.494 385.625 473.054 399.02 469.005Z"/><path fill="#65B78E" d="M396.911 476.955C397.063 477.104 397.215 477.253 397.367 477.402C400.706 481.63 401.973 487.132 400.82 492.395C398.436 503.797 387.942 512.86 378.653 518.873C368.907 516.328 378.538 488.624 385.714 484.184C389.64 481.754 392.344 479.403 396.911 476.955Z"/><path fill="#040403" d="M691.751 341.093C702.045 340.727 722.558 339.63 715.348 358.197C710.898 369.658 698.148 378.045 687.094 382.877C641.782 385.83 662.274 351.343 691.751 341.093Z"/><path fill="#65B78E" d="M693.788 349.141C698.748 348.981 705.095 349.217 710.129 349.28C703.167 364.144 698.882 368.973 684.209 375.416C678.233 375.977 673.477 375.272 667.531 374.698C673.136 358.383 678.031 354.502 693.788 349.141Z"/><path fill="#65B78E" d="M497.992 563.953C511.91 563.376 516.623 576.781 527.329 584.134C540.878 593.438 557.01 599.734 568.126 612.083C574.626 619.303 578.231 636.415 587.998 639.899C603.414 636.645 609.93 582.522 611.705 567.631C627.552 574.241 632.692 575.072 649.978 575.222C646.9 622.529 642.781 656.199 613.989 695.999C612.942 691.145 611.626 682.373 606.616 680.511C601.222 685.316 604.649 701.439 605.622 707.667C592.637 722.624 578.714 736.74 563.936 749.929C507.041 799.886 471.155 817.95 473.078 900.909C476.841 927.3 481.145 938.911 494.958 961.388L488.717 967.894C486.041 966.77 483.323 965.747 480.57 964.827C464.398 959.406 453.528 963.863 439.397 970.8C438.749 970.124 438.094 969.454 437.431 968.792C424.503 955.931 414.726 954.779 397.682 954.701C379.662 869.194 406.753 798.868 477.652 748.528C506.1 728.329 548.895 703.178 554.073 665.563C560.38 619.748 514.021 607.106 491.015 577.146L497.992 563.953Z"/><path fill="#65B78E" d="M291.566 787.413C345.08 782.438 384.927 812.321 387.331 867.058C370.048 848.217 353.36 832.066 328.813 823.18C321.554 820.552 307.796 812.481 302.356 820.254C302.912 822.211 302.819 822.973 305.158 823.816C321.345 829.654 334.527 834.416 349.151 843.739C366.487 856.307 372.803 864.081 384.308 881.807C369.613 887.656 357.592 891.386 341.733 891.848C313.991 892.656 288.121 881.688 274.176 856.823C267.358 844.666 262.042 831.851 254.527 820.173C249.535 812.415 244.3 807.369 237.575 801.075C256.748 792.871 271.028 789.395 291.566 787.413Z"/><path fill="#FAB84F" d="M727.839 604.487C750.361 600.392 771.932 615.355 775.985 637.885C780.039 660.415 765.037 681.957 742.5 685.97C720.021 689.972 698.546 675.017 694.502 652.545C690.459 630.074 705.375 608.571 727.839 604.487Z"/><path fill="#E28E2F" d="M734.244 613.188C736.2 613.874 750.05 627.243 751.132 629.345C748.129 635.957 724.272 629.007 723.598 641.805C722.198 668.426 746.744 649.729 753.614 658.694C752.98 661.164 752.541 661.151 750.607 662.961C746.349 665.049 744.803 664.966 742.284 669.207L741.479 670.589C739.813 673.393 738.487 675.012 735.278 675.83L733.328 674.392C728.02 661.108 718.131 663.627 713.25 652.396C705.238 633.961 729.853 627.713 734.244 613.188Z"/><path fill="#FAB84F" d="M304.441 585.4C307.798 584.68 309.423 583.912 312.49 585.34C325.685 605.154 321.374 605.059 340.849 624.047C332.974 649.161 313.776 665.222 286.687 655.795C275.752 651.996 266.871 643.848 262.146 633.28C257.6 622.913 257.843 610.945 262.29 600.594C264.065 596.565 266.138 592.673 268.492 588.952C279.722 589.229 286.104 589.349 297.157 587.419L304.441 585.4Z"/><path fill="#E28E2F" d="M304.441 585.4C306.687 598.451 316.846 595.813 318.185 601.004C311.41 612.265 294.591 597.598 290.061 608.209C279.227 633.58 314.379 626.963 317.128 628.223C316.837 631.847 302.733 644.743 299.544 645.766C294.291 641.633 289.455 634.676 284.922 630.896C261.168 611.081 295.302 595.705 297.693 589.208L297.157 587.419L304.441 585.4Z"/><path fill="#65B78E" d="M694.847 559.832C697.913 560.526 710.794 569.645 716.109 571.516C721.865 573.542 724.596 574.193 730.673 575.571L729.983 594.078C700.35 600.736 689.237 614.237 684.519 644.019L684.539 645.414L683.017 646.922C673.098 648.449 660.653 643.775 651.465 640.136C658.094 616.949 659.16 598.091 659.928 574.499C676.218 570.751 680.854 569.203 694.847 559.832Z"/><path fill="#FAB84F" d="M610.753 738.009C613.064 737.935 615.378 738.051 617.67 738.355C640.616 741.512 647.489 770.161 642.839 789.403C639.212 804.409 632.915 813.044 620.052 820.991C584.248 822.529 579.002 772.006 596.209 750.286C601.375 743.765 603.897 742.13 610.753 738.009Z"/><path fill="#E28E2F" d="M614.024 748.488L617.61 750.474C622.426 761.047 626.416 757.711 628.263 764.047C623.933 768.467 599.244 767.484 608.564 787.976C609.769 790.625 622.904 789.676 627.142 790.671C629.518 793.351 629.173 791.902 629.046 794.898C627.667 796.485 627.075 796.801 625.416 798.123C618.045 802.489 621.035 806.725 615.57 809.684L613.715 808.699C612.829 806.571 612.127 804.438 611.505 802.219C579.536 770.667 612.336 767.66 614.024 748.488Z"/><path fill="#FAB84F" d="M924.527 532.145C936.021 540.56 944.054 547.944 946.711 563.047C948.796 574.624 946.057 586.551 939.129 596.058C932.743 604.916 923.111 610.887 912.337 612.666C896.994 615.054 885.598 609.051 874.85 598.868C881.57 595.267 886.73 592.498 893.055 588.285L900.852 581.799C917.191 563.783 919.187 555.741 924.527 532.145Z"/><path fill="#E28E2F" d="M893.055 588.285L900.852 581.799C910.905 585.983 916.668 577.749 924.518 583.314C924.758 587.815 909.586 598.353 906.308 598.86C904.428 597.992 903.207 596.873 902.12 595.128C899.965 591.667 896.284 590.498 893.055 588.285Z"/><path fill="#FAB84F" d="M589.8 739.914L590.878 741.452C578.754 761.936 574.015 781.823 583.058 805.061C584.773 809.467 588.103 813.536 590.352 817.948L589.641 819.068L587.059 818.234C584.225 815.756 582.203 813.891 579.849 810.906C571.434 800.115 567.707 786.397 569.505 772.831C571.494 757.874 578.11 748.576 589.8 739.914Z"/><path fill="#040403" d="M611.243 871.457C629.814 871.41 656.324 875.184 661.512 896.856C662.359 900.395 661.978 908.064 661.912 911.933C667.963 917.064 672.298 920.74 677.715 926.467C688.691 909.269 702.014 901.148 721.934 910.729C740.664 920.086 755.986 936.123 763.588 955.754C771.691 976.679 759.545 991.863 739.946 998.464C731.04 1001.46 722.964 997.481 715.327 993.061C708.412 988.691 700.178 981.874 693.592 976.723C683.626 997.319 661.59 1003.25 640.266 1003.22C625.125 1003.2 602.731 998.367 594.089 984.729C591.76 981.052 592.401 972.308 589.278 968.564C584.87 961.848 581.761 961.401 577.571 957.062C574.775 954.168 575.361 938.23 575.546 933.923C565.729 926.705 561.152 921.8 560.162 908.905C557.671 876.436 586.41 872.373 611.243 871.457Z"/><path fill="#FAB84F" d="M700.181 914.898C726.963 914.769 770.809 954.109 754.373 979.413C729.176 981.503 686.473 939.787 700.181 914.898Z"/><path fill="#E28E2F" d="M715.942 931.681C725.453 932.096 744.801 938.677 741.577 951.197C733.237 949.041 731.139 935.853 719.963 940.987C721.731 949.35 727.298 953.435 733.042 959.748L732.652 961.106C718.783 962.093 708.977 945.965 715.942 931.681Z"/><path fill="#FAB84F" d="M600.577 880.27C638.389 875.51 684.096 900.09 623.574 912.414C609.822 914.207 596.176 913.591 583.145 908.4C577.076 905.982 565.628 898.517 572.08 890.871C577.795 884.099 592.165 881.791 600.577 880.27Z"/><path fill="#E28E2F" d="M614.663 884.333L615.617 884.215C619.587 885.674 623.588 887.111 625.523 890.842L624.301 891.83C617.558 891.832 609.19 888.985 603.908 893.168C602.351 896.53 602.277 894.978 603.208 897.949C610.49 903.133 621.394 896.597 628.67 900.928C617.873 908.281 600.276 909.748 592.247 898.132C590.865 887.312 606.839 886.889 614.663 884.333Z"/><path fill="#FAB84F" d="M568.831 911.851C590.426 921.331 610.442 924.262 633.794 919.271C640.456 917.847 646.741 912.387 652.426 914.119C653.122 917.503 652.731 916.817 651.481 920.611C631.288 934.38 576.856 940.482 568.831 911.851Z"/><path fill="#FAB84F" d="M660.59 922.717C665.52 925.616 668.917 927.941 668.37 934.17C666.686 936.952 665.413 938.382 662.412 939.865C640.054 950.916 620.348 950.447 597.257 944.244C592.556 942.009 588.685 939.766 584.186 937.198C612.15 940.967 638.526 943.77 660.59 922.717Z"/><path fill="#FAB84F" d="M599.931 974.941C625.221 984.077 643.652 988.8 671.658 979.893C675.415 978.698 678.424 975.772 682.344 976.566C683.405 980.009 682.757 979.577 681.324 983.832C677.294 986.469 672.945 988.581 668.38 990.118C648.438 996.934 608.057 1000.23 599.931 974.941Z"/><path fill="#FAB84F" d="M583.511 948.042C604.313 954.672 621.199 960.715 643.532 955.948C649.022 954.776 660.85 948.209 665.546 949.928C666.51 952.853 665.97 952.479 664.896 956.04C645.969 968.002 589.889 977.255 583.511 948.042Z"/><path fill="#FAB84F" d="M686.32 928.418C688.936 930.012 691.274 937.691 692.942 941.318C698.387 953.163 703.487 959.247 711.586 968.581C719.63 977.851 737.656 983.606 742.389 988.629L741.353 992.049C715.774 992.545 674.853 956.01 686.32 928.418Z"/><path fill="#FAB84F" d="M645.257 973.543C661.738 969.231 668.781 966.109 676.872 950.353L683.297 963.101C671.801 972.233 663.867 974.318 649.33 975.499L645.257 973.543Z"/><path fill="#E28E2F" d="M649.33 975.499C644.789 976.006 643.463 976.435 639.147 975.391C641.349 973.788 642.344 974.032 645.257 973.543L649.33 975.499Z"/><path fill="#040403" d="M899.174 668.279C908.037 667.221 913.187 669.445 913.45 679.408C913.75 697.916 912.501 716.576 909.688 734.864C902.036 784.601 889.699 750.241 877.002 747.486C868.308 749.287 828.1 804.977 817.977 815.023C791.556 841.246 771.23 811.064 752.102 791.215C743.148 801.232 735.106 811.756 726.541 822.082C715.633 835.233 708.607 844.984 690.214 841.487C662.533 826.209 685.948 801.244 699.845 785.248C742.25 736.439 750.813 718.499 795.605 776.295C810.716 758.922 829.333 736.158 843.188 717.875C788.229 687.54 877.546 673.549 899.174 668.279Z"/><path fill="#FAB84F" d="M902.099 677.268L902.751 677.706C906.622 683.3 899.568 741.918 898.505 752.212C890.843 745.769 883.223 739.276 875.645 732.734C854.282 753.434 825.723 803.2 799.812 816.996C784.966 822.031 765.167 786.14 757.101 784.388C730.123 778.532 717.906 847.927 687.976 830.443C686.6 826.986 685.528 823.442 686.279 819.705C688.411 809.094 727.107 767.212 736.636 758.025C740.874 753.94 745.335 750.566 750.211 747.288C765.259 753.651 784.105 774.743 796.687 786.899C813.622 769.686 840.709 736.697 853.857 716.652C848.869 709.723 839.714 702.646 833.006 696.994C853.378 689.515 881.067 682.144 902.099 677.268Z"/><path fill="#040403" d="M851.904 950.417C874.069 949.256 907.781 950.962 913.096 978.595C914.66 986.671 912.709 995.031 907.731 1001.58C898.88 1013.38 885.167 1015.55 871.765 1017.73C849.672 1018.62 816.21 1018.14 809.984 990.911C808.095 982.524 809.861 973.729 814.843 966.722C823.379 954.466 838.418 952.629 851.904 950.417Z"/><path fill="#FAB84F" d="M853.627 958.38C889.123 954.017 933.228 982.138 873.251 990.961C829.971 995.94 790.857 966.346 853.627 958.38Z"/><path fill="#E28E2F" d="M865.114 962.169C868.667 963.742 873.837 965.404 875.216 968.857C869.904 972.049 852.436 967.963 851.547 974.903C856.237 984.923 869.852 974.206 878.26 980.211C872.959 984.289 869.35 984.977 862.273 985.185C857.05 985.338 838.577 980.688 842.818 972.314C845.409 967.197 858.943 964.181 865.114 962.169Z"/><path fill="#FAB84F" d="M901.03 991.043L902.832 991.499C903.761 1000.54 892.74 1006.04 885.372 1007.4C863.892 1011.38 842.941 1011.97 823.781 1000.58C821.474 998.22 820.595 996.565 819.986 993.431C822.005 990.563 821.187 991.877 825.046 993.01C832.047 995.153 839.115 997.061 846.318 998.406C866.524 1002.18 882.642 999.599 901.03 991.043Z"/><path fill="#040403" d="M259.637 941.406C264.989 941.394 269.623 941.559 275.264 941.916C303.079 943.677 324.381 967.483 306.684 993.796C298.756 1005.58 280.859 1008.53 267.005 1009.95C246.096 1010.48 213.058 1006.22 210.815 980.247C208.041 948.131 235.45 943.207 259.637 941.406Z"/><path fill="#FAB84F" d="M249.61 950.21C257.283 949.907 309.034 947.785 301.005 971.324C299.094 976.928 279.91 981.216 273.141 982.674C263.001 983.156 248.277 983.443 238.753 979.691C200.546 964.64 229.119 954.554 249.61 950.21Z"/><path fill="#E28E2F" d="M264.049 954.215C267.946 956.159 273.489 956.685 275.327 960.874C269.682 964.004 253.284 959.151 251.565 966.355C256.875 977.892 270.265 965.535 278.014 972.128C267.858 979.409 251.177 978.165 242.503 969.346C238.977 958.479 256.217 957.122 264.049 954.215Z"/><path fill="#FAB84F" d="M220.057 982.411C234.593 987.677 242.237 991.429 258.639 991.929C265.63 992.084 272.618 991.525 279.496 990.262C286.601 988.894 296.941 982.562 301.502 984.208C302.669 987.707 302.358 985.848 301.188 990.236C283.103 1003.16 225.416 1011.36 220.057 982.411Z"/><path fill="#040403" d="M544.711 998.458C560.972 997.819 578.923 999.89 591.563 1011.24C602.935 1021.45 600.73 1043.74 590.569 1054.03C580.203 1064.52 564.177 1065.56 550.27 1065.97C536.51 1065.99 518.908 1064.7 507.648 1056.01C501.392 1051.23 497.382 1044.08 496.562 1036.25C493.291 1006.65 522.654 1000.88 544.711 998.458Z"/><path fill="#FAB84F" d="M538.744 1007.31C576.288 1002.83 619.405 1028.71 558.415 1039.72C516.684 1044.02 476.721 1017.73 538.744 1007.31Z"/><path fill="#E28E2F" d="M548.611 1012.18C553.231 1010.98 558.158 1013.7 561.954 1016.17C558.239 1019.94 543.497 1016.68 538.751 1023.25L539.437 1025.3C544.877 1029.39 556.841 1027.1 564.481 1026.69C562.227 1039.75 524.494 1033.97 529.543 1020.13C535.406 1014.36 540.694 1013.87 548.611 1012.18Z"/><path fill="#FAB84F" d="M506.29 1039.02C528.757 1048.8 547.047 1051.1 571.64 1045.98C577.769 1044.7 582.478 1040.72 587.843 1040.39L588.965 1041.57C589.098 1045.27 589.089 1045.01 587.593 1048.43C568.76 1058.88 511.657 1068.76 506.29 1039.02Z"/><path fill="#040403" d="M191.738 234.391C217.535 232.254 240.623 245.04 250.375 270.767C255.255 283.638 237.863 288.083 228.299 289.885C198.803 290.877 177.702 276.478 168.055 248.525C164.207 237.374 184.618 235.687 191.738 234.391Z"/><path fill="#65B78E" d="M191.565 242.284C216.605 239.424 231.244 248.045 241.093 270.856C232.186 266.635 215.257 258.106 205.368 258.943L204.41 260.319C207.521 266.143 211.058 266.41 217.395 268.749C223.88 271.969 233.891 275.789 240.802 278.678C206.628 286.281 189.297 279.071 175.749 245.676C180.96 244.414 186.308 243.373 191.565 242.284Z"/><path fill="#040403" d="M916.194 150.047C932.372 155.134 926.966 186.385 921.488 197.833C912.831 215.925 896.873 222.174 879.315 228.211L875.46 227.264C867.361 220.049 867.889 205.617 868.701 195.542C870.922 167.972 893.318 157.891 916.194 150.047Z"/><path fill="#65B78E" d="M914.989 157.981C923.673 163.916 918.209 186.942 914.654 195.725C908.638 210.589 897.967 213.524 883.862 219.187C891.125 207.417 896.738 198.09 902.081 185.347C900.978 185.082 898.588 184.481 897.601 184.868C890.117 187.797 880.811 207.774 877.196 214.514C873.946 179.101 884.106 171.1 914.989 157.981Z"/><path fill="#040403" d="M246.094 685.38C266.893 686.005 261.991 705.948 254.954 718.807C247.35 732.701 236.794 739.54 222.067 743.953C205.13 744.983 205.674 730.949 209.094 718.356C214.459 698.597 225.682 687.743 246.094 685.38Z"/><path fill="#65B78E" d="M241.534 691.823C242.552 692.126 241.832 691.861 243.467 693.076C242.024 700.042 230.548 708.416 230.813 716.043L232.895 717.296C241.519 715.272 243.131 702.107 250.665 697.881L252.57 698.488C254.724 704.48 248.884 716.207 245.876 721.631C235.441 732.711 229.134 734.354 215.057 738.05C214.711 712.695 217.507 702.661 241.534 691.823Z"/><path fill="#040403" d="M842.625 844.787C852.675 843.77 865.611 847.351 874.032 853.051C886.656 861.595 896.642 888.519 886.756 901.817C864.964 900.388 844.593 888.847 839.639 865.765C838.32 859.618 839.013 850.127 842.625 844.787Z"/><path fill="#65B78E" d="M852.114 851.755C879.355 854.67 881.738 871.414 884.006 894.805C870.837 892.283 866.249 890.688 855.515 883.007C847.601 873.166 847.019 867.719 845.274 855.669C853.801 865.193 857.809 871.066 869.472 876.697C863.804 864.997 860.85 861.813 852.114 851.755Z"/><path fill="#040403" d="M912.711 231.249C951.006 226.322 963.626 256.612 922.258 264.892C886.136 269.75 870.213 240.066 912.711 231.249Z"/><path fill="#65B78E" d="M916.104 238.157C926.781 237.603 933.633 240.42 942.872 244.818C934.955 252.764 931.763 254.604 921.478 258.03C908.788 258.747 904.361 256.596 893.181 251.655C901.378 242.483 904.478 240.795 916.104 238.157Z"/><path fill="#040403" d="M258.72 193.634C273.402 196.062 280.312 216.894 280.293 229.897C280.276 241.854 276.258 249.523 268.156 257.909C255.135 259.212 248.846 243.326 247.383 233.014C245.101 216.927 249.681 206.28 258.72 193.634Z"/><path fill="#65B78E" d="M260.53 203.636C278.056 214.853 273.744 233.876 266.422 249.692C247.588 241.034 254.392 218.394 260.53 203.636Z"/><path fill="#040403" d="M197.937 638.386C229.543 637.307 244.555 661.351 208.91 668.142C183.544 667.875 160.487 648.667 197.937 638.386Z"/><path fill="#65B78E" d="M203.522 644.246C210.64 645.154 222.282 645.765 221.014 655.602C217.098 661.1 212.547 661.098 205.89 662.486C194.864 660.144 193.231 659.155 183.897 652.769C191.666 647.034 193.68 645.87 203.522 644.246Z"/><path fill="#040403" d="M885.214 816.146C902.425 813.962 936.557 830.516 908.872 841.957C887.312 845.565 855.094 830.902 885.214 816.146Z"/><path fill="#65B78E" d="M888.587 822.002C901.751 822.48 904.278 824.897 913.987 833.253C910.882 834.782 907.474 835.968 904.225 837.217C896.976 838.501 881.624 836.339 881.655 826.847C884.165 823.268 884.018 824.168 888.587 822.002Z"/><path fill="#FAB84F" d="M380.46 723.531C384.122 726.737 386.947 733.888 389.144 738.498C395.841 741.841 400.201 743.911 406.288 748.183C404.371 748.876 402.476 749.627 400.604 750.435C387.916 756.012 386.41 760.431 381.668 772.772C369.965 759.071 380.299 760.572 358.792 748.439C360.808 745.047 368.222 742.327 372.328 740.422C376.413 734.181 377.794 730.518 380.46 723.531Z"/><path fill="#FAB84F" d="M968.091 300.014C982.722 302.403 988.829 315.627 973.995 324.248C972.558 324.23 968.8 324.172 967.481 323.771C964.897 322.974 962.693 321.261 961.283 318.955C956.662 311.511 961.414 303.965 968.091 300.014Z"/><path fill="#FAB84F" d="M781.718 135.701C785.425 134.304 789.598 135.053 792.589 137.65C795.579 140.247 796.904 144.275 796.041 148.141C795.177 152.006 792.263 155.087 788.452 156.164C782.893 157.736 777.084 154.647 775.278 149.16C773.472 143.672 776.313 137.737 781.718 135.701Z"/><path fill="#65B78E" d="M942.337 766.549C947.898 764.51 954.057 767.379 956.076 772.948C958.094 778.517 955.202 784.666 949.625 786.663C944.078 788.649 937.969 785.776 935.962 780.237C933.954 774.697 936.805 768.577 942.337 766.549Z"/><path fill="#65B78E" d="M175.371 570.485C180.847 570.125 185.627 574.159 186.192 579.618C186.758 585.076 182.906 590.004 177.473 590.774C173.772 591.299 170.08 589.758 167.85 586.759C165.62 583.759 165.208 579.78 166.776 576.387C168.344 572.994 171.641 570.73 175.371 570.485Z"/><path fill="#FAB84F" d="M322.632 709.407C325.668 710.155 332.637 719.122 335.477 722.291C329.06 727.344 327.966 728.815 324.46 736.223C323.64 735.34 323.964 735.752 323.244 734.705L320.766 731.114C316.942 725.485 316.85 725.298 310.929 721.462C317.389 717.11 318.548 716.106 322.632 709.407Z"/><path fill="#FAB84F" d="M308.884 164.401C320.295 166.434 319.249 176.924 314.292 184.672C304.011 181.532 303.193 172.395 308.884 164.401Z"/><path fill="#FAB84F" d="M284.26 146.176C289.368 145.741 294.382 145.592 297.437 150.207C296.634 154.123 296.859 152.922 293.613 156.271C288.257 158.243 280.953 158.599 279.721 151.614C280.744 148.293 281.434 148.252 284.26 146.176Z"/><path fill="#FAB84F" d="M305.427 119.498C317.557 120.713 315.545 131.223 310.563 138.71C302.302 134.638 301.968 127.276 305.427 119.498Z"/><path fill="#FAB84F" d="M382.342 682.566C384.552 681.284 387.292 681.337 389.451 682.702C391.61 684.068 392.831 686.52 392.62 689.067C392.409 691.613 390.801 693.831 388.446 694.822C385.111 696.227 381.257 694.799 379.643 691.558C378.03 688.318 379.211 684.382 382.342 682.566Z"/><path fill="#FAB84F" d="M323.896 145.241C329.05 144.358 336.007 144.06 339.94 148.018C340.529 151.681 340.72 149.842 338.544 153.59C333.162 154.475 326.321 155.162 322.387 150.596C322.086 146.927 321.757 148.69 323.896 145.241Z"/><path fill="#65B78E" d="M955.967 706.768C958.98 706.218 961.89 708.144 962.562 711.133C963.233 714.121 961.427 717.107 958.468 717.899C956.444 718.44 954.287 717.83 952.846 716.309C951.406 714.788 950.914 712.6 951.566 710.609C952.217 708.618 953.906 707.144 955.967 706.768Z"/><path fill="#FAB84F" d="M973.542 366.744C975.258 365.569 977.483 365.435 979.328 366.396C981.173 367.356 982.339 369.255 982.362 371.335C982.385 373.415 981.26 375.338 979.436 376.339C976.801 377.785 973.495 376.909 971.921 374.347C970.348 371.786 971.061 368.441 973.542 366.744Z"/><path fill="#FAB84F" fill-opacity="0.98039216" d="M833.67 124.48C836.481 123.453 839.595 124.888 840.64 127.692C841.684 130.497 840.269 133.619 837.471 134.682C834.648 135.754 831.491 134.324 830.437 131.494C829.383 128.664 830.834 125.516 833.67 124.48Z"/><path fill="#FEF3DD" fill-opacity="0.027450981" d="M552.441 772.301C556.073 769.281 559.939 765.899 563.761 763.181C561.583 773.935 561.05 778.336 561.897 789.34C555.026 782.337 561.673 778.888 557.389 772.218L552.441 772.301Z"/><path fill="#FEF3DD" fill-opacity="0.023529412" d="M388.8 829.014C394.367 827.275 391.907 828.388 396.967 828.711C395.721 832.135 394.212 835.515 392.787 838.876C391.395 835.713 390.087 832.241 388.8 829.014Z"/></g></svg>