<?xml version="1.0" encoding="utf-8" ?><svg xmlns="http://www.w3.org/2000/svg" xmlns:xlink="http://www.w3.org/1999/xlink" width="700" height="630" viewBox="0 0 700 630"><clipPath id="concepts-etf-cl_47"><rect width="700" height="630"/></clipPath><g clip-path="url(#concepts-etf-cl_47)"><path fill="#040403" transform="translate(-1348 -1418)" d="M1667.3 1467.46C1812.78 1466.73 1870.2 1564.54 1880.32 1695.61C1911.17 1710.7 1906.56 1735.16 1881.5 1753.75C1867.94 1901.54 1814.06 1939.36 1668.75 1939.92C1619.83 1940.09 1556.48 1935.74 1516.64 1905.45C1471.41 1871.05 1461.38 1805.92 1454.51 1753.15C1452.07 1751.35 1449.72 1749.43 1447.47 1747.41C1413.79 1716.59 1456.4 1695.86 1456.45 1695.12C1465.49 1561.79 1525.05 1471.57 1667.3 1467.46ZM1552.31 1634.39C1554.51 1629.47 1555.91 1625.08 1559.8 1621.49L1561.87 1621.17C1565.62 1625.93 1560.42 1644.49 1558.98 1650.55C1565.67 1645.9 1569.19 1643.61 1576.39 1639.91C1567.63 1619.12 1570.76 1610.91 1584.47 1593.45C1581.15 1590.02 1575.75 1585.34 1575.6 1580.56C1579.33 1576.13 1586.75 1577.63 1590.05 1574.28C1594.73 1569.52 1589.41 1564.21 1597.99 1561.68C1610.07 1563.44 1605.08 1570.97 1620.51 1565.88C1629.47 1568.24 1624.5 1576.62 1621.75 1581.9C1639.06 1588.81 1646.11 1593 1654.47 1610.76C1658.86 1594.93 1662.12 1583.13 1671.37 1569.46L1674.92 1564.13C1670.31 1551.92 1671.11 1533.24 1691.07 1540.01C1698.82 1542.63 1699.38 1556.58 1699.28 1564.3C1715.52 1580.06 1716.64 1588.68 1717.87 1611.03C1731.97 1606.11 1735.08 1605.25 1749.71 1605.29C1750.53 1598.43 1751.15 1589.08 1754.56 1583.22L1756.4 1582.53C1761.94 1587.13 1756.96 1591.34 1760.59 1595.29C1764.95 1594.44 1771.42 1591.1 1774.33 1590.81C1782.75 1589.95 1801.11 1594.05 1804.62 1602.4C1804.45 1613.81 1787.2 1619.6 1778.16 1623.12C1780.93 1628.76 1782.13 1630.93 1785.67 1636.21C1795.78 1637.39 1796.78 1638.29 1804.45 1644.44C1808.95 1641.88 1812.06 1640.18 1816.82 1638.02C1825.98 1641.38 1825.22 1654.96 1831.95 1655.49C1833.57 1647.79 1827.31 1630.08 1824.82 1622.7C1809.82 1575.29 1780.43 1533.85 1730.59 1519.17C1641.02 1492.77 1547.36 1518.87 1515.19 1613.71C1512.91 1620.2 1511.19 1625.73 1509.3 1632.34C1506.64 1642.38 1502.36 1657.25 1501.39 1667.29C1499.88 1670.04 1498.7 1679.89 1500.46 1682.6C1502.7 1680.37 1505.75 1670.27 1511.99 1662.98L1512.74 1662.11C1515.84 1658.7 1520.73 1655.7 1524.62 1653.02C1522.07 1648.42 1520.21 1644.19 1518.04 1639.43C1515.91 1633.07 1516.19 1632.35 1517.93 1625.86C1531.4 1617.18 1541.77 1625.69 1552.31 1634.39Z"/><path fill="#FC7E5E" transform="translate(-1348 -1418)" d="M1465.68 1758.21C1582.61 1802.04 1753.84 1799.09 1871.47 1759.15C1866.22 1802.46 1861.41 1830.52 1839.86 1869.04C1814.64 1905.35 1775.26 1924.45 1731.48 1926.99C1665.67 1930.81 1575.3 1938.35 1520.66 1894.67C1480.18 1862.31 1470.31 1805.81 1465.68 1758.21Z"/><path fill="#FC7E5E" transform="translate(-1348 -1418)" d="M1664.84 1477.45C1714.23 1475.46 1769.83 1491.48 1805.55 1526.58C1850.93 1571.19 1869.69 1641.4 1871.06 1703.24C1863.38 1708.03 1858.54 1710.08 1850.16 1713.58C1847.89 1658.65 1836.43 1595.98 1799.73 1553.32C1765.82 1513.91 1724.1 1503.67 1674.4 1500.07C1537.22 1498.27 1493.7 1592.11 1487.5 1713.29C1477.86 1709.83 1474.2 1708.96 1466.52 1701.85C1466.5 1701.49 1466.48 1701.12 1466.46 1700.76C1467.8 1642.68 1484.65 1576.14 1524.88 1533.59C1563.38 1492.87 1611.9 1479.34 1664.84 1477.45Z"/><path fill="#FC7E5E" transform="translate(-1348 -1418)" d="M1453.7 1707.5C1461.89 1709.18 1466.72 1715.61 1474.1 1718.85C1485.88 1724.14 1498.74 1728.31 1511.27 1731.31C1560.76 1743.12 1612.78 1747.8 1663.57 1748.14C1729.88 1748.43 1798.2 1743.82 1860.85 1720.45C1869.53 1717.22 1876.26 1706.37 1886.32 1709.11C1895.36 1715.56 1890.03 1731.88 1885.08 1739.65C1861.12 1756.41 1817.98 1766.29 1788.19 1770.58C1696.13 1783.87 1597.64 1783.72 1507.03 1760.92C1490.14 1756.67 1469.37 1751 1455.37 1740.78C1441.1 1730.37 1443.49 1719.41 1453.7 1707.5Z"/><path fill="#65B78E" transform="translate(-1348 -1418)" d="M1587.7 1646.2C1632.03 1647.7 1629.33 1711.29 1606.44 1735.99C1588.31 1734.58 1570.24 1732.49 1552.27 1729.72C1541.17 1727.84 1530.15 1725.52 1519.23 1722.78C1506.09 1696.57 1502.26 1673.24 1533.66 1659.35C1571.46 1667.15 1557.93 1654.02 1586.24 1646.58L1587.7 1646.2Z"/><path fill="#040403" transform="translate(-1348 -1418)" d="M1577.63 1692.81C1579.58 1694.94 1578.93 1694.03 1579.89 1696.95C1577.85 1704.06 1570.9 1704.03 1564.48 1704.1C1563.35 1702.62 1563.36 1702.22 1562.61 1700.46C1566.32 1695.32 1569.49 1701.49 1577.63 1692.81Z"/><path fill="#040403" transform="translate(-1348 -1418)" d="M1588.71 1681.56C1590.89 1679.95 1593.96 1680.38 1595.61 1682.53C1597.27 1684.67 1596.91 1687.75 1594.8 1689.45C1593.39 1690.59 1591.48 1690.87 1589.81 1690.2C1588.13 1689.52 1586.95 1687.99 1586.72 1686.2C1586.49 1684.4 1587.25 1682.63 1588.71 1681.56Z"/><path fill="#040403" transform="translate(-1348 -1418)" d="M1543.53 1692.53C1545.15 1691.7 1547.09 1691.82 1548.59 1692.85C1550.1 1693.89 1550.91 1695.66 1550.71 1697.47C1550.51 1699.28 1549.33 1700.83 1547.64 1701.51C1545.19 1702.5 1542.4 1701.39 1541.3 1698.99C1540.2 1696.59 1541.18 1693.74 1543.53 1692.53Z"/><path fill="#E28E2F" transform="translate(-1348 -1418)" d="M1685.24 1664.2C1728.26 1662.48 1747.69 1696.83 1730.85 1735.69C1719.32 1736.49 1707.79 1737.18 1696.25 1737.76C1681.41 1738.03 1666.56 1738.1 1651.72 1737.99C1646.97 1731.21 1644.17 1726.73 1642.22 1718.3C1639.58 1707.2 1641.72 1695.5 1648.13 1686.07C1657.05 1672.94 1670.4 1667.25 1685.24 1664.2Z"/><path fill="#040403" transform="translate(-1348 -1418)" d="M1689.45 1670.33C1696.73 1675.45 1696.89 1672.12 1702.76 1674.86C1703.47 1678.51 1702.04 1680.71 1700.74 1684.65C1700.23 1685.43 1700.64 1684.91 1699.04 1685.68C1694.92 1684.04 1690.77 1682.48 1686.58 1681C1687.63 1677.49 1688.53 1673.88 1689.45 1670.33Z"/><path fill="#040403" transform="translate(-1348 -1418)" d="M1671.46 1716.63C1676.73 1718.34 1682.12 1719.1 1687.01 1721.06C1688.33 1721.58 1688.03 1722.39 1688.48 1724.38L1687.54 1724.66C1677.97 1727.38 1674.19 1726.63 1671.46 1716.63Z"/><path fill="#040403" transform="translate(-1348 -1418)" d="M1659.09 1706.47C1661.03 1705.1 1663.73 1705.54 1665.12 1707.47C1666.52 1709.4 1666.11 1712.1 1664.2 1713.52C1662.94 1714.46 1661.27 1714.65 1659.84 1714.01C1658.4 1713.38 1657.42 1712.02 1657.26 1710.46C1657.11 1708.9 1657.8 1707.37 1659.09 1706.47Z"/><path fill="#FAB84F" transform="translate(-1348 -1418)" d="M1680.67 1548.02C1694.97 1547.28 1692.27 1556.24 1691.96 1567.37C1719.06 1593.66 1713.71 1628.69 1693.01 1656.73C1643.44 1657.45 1646.16 1687.19 1633.04 1691.98C1629.4 1689.07 1628.87 1677.25 1628.25 1672.15C1635.56 1668.35 1642.1 1664.46 1649.18 1660.24C1650.75 1658.77 1652.34 1657.33 1653.94 1655.9C1659.49 1650.87 1666.13 1645.57 1666.51 1637.94L1665.03 1636.99C1650.55 1650.25 1644.12 1657.44 1626.31 1665.88C1624.03 1661.12 1620.77 1655.94 1618.06 1651.35C1670.74 1632.02 1654.76 1602.33 1682.81 1568.72C1681.49 1562.74 1678.75 1553.6 1680.67 1548.02Z"/><path fill="#040403" transform="translate(-1348 -1418)" d="M1675.24 1612.59C1681.71 1615.56 1689 1615.61 1692.54 1618.31L1692.84 1621.13C1681.99 1624.53 1678.07 1624.48 1675.24 1612.59Z"/><path fill="#9F94E2" transform="translate(-1348 -1418)" d="M1766.85 1661.05C1779.13 1661.18 1779.89 1663.15 1785.78 1673.28C1802.09 1667.17 1804.89 1669.23 1812.44 1683.86C1835.76 1684.46 1844.1 1699.54 1818.63 1711.48L1817.48 1712.01C1816.32 1715.38 1817.63 1719.4 1818.39 1723.06C1813.07 1724.42 1807.57 1725.68 1802.22 1726.97C1791.19 1729.05 1779.89 1731.28 1768.8 1733.02C1762.64 1734 1757.12 1734.09 1753.35 1728.62C1752.55 1722.02 1754.95 1719.88 1758.66 1714.32C1753.2 1711.32 1745.16 1706.93 1745.07 1699.99C1746.17 1697.16 1748.75 1694.44 1751.09 1692.55C1767.69 1679.15 1749.63 1674.31 1766.85 1661.05Z"/><path fill="#040403" transform="translate(-1348 -1418)" d="M1774.58 1699.29C1776.87 1699.77 1785.5 1707.54 1790.78 1707.13C1792.06 1707.02 1792.39 1709.57 1792.84 1711.03C1780.71 1714.06 1775.66 1712.38 1774.58 1699.29Z"/><path fill="#040403" transform="translate(-1348 -1418)" d="M1803.52 1701.51C1805.01 1700.78 1806.79 1700.9 1808.16 1701.84C1809.54 1702.78 1810.3 1704.39 1810.15 1706.05C1810.01 1707.71 1808.98 1709.16 1807.46 1709.85C1805.17 1710.89 1802.47 1709.9 1801.39 1707.62C1800.31 1705.35 1801.26 1702.63 1803.52 1701.51Z"/><path fill="#65B78E" transform="translate(-1348 -1418)" d="M1732.81 1613.05C1751.77 1612.51 1776.97 1620.87 1780.47 1643.01C1783.56 1662.49 1761.01 1647.84 1754.07 1662.09C1751.07 1668.24 1752.08 1678.03 1748.1 1682.66L1741.77 1689.61C1730.68 1669.71 1723.83 1664.79 1702.53 1657.86C1710.69 1644.87 1713.12 1634.73 1716.77 1620.13C1723.36 1616.51 1725.69 1615.32 1732.81 1613.05Z"/><path fill="#040403" transform="translate(-1348 -1418)" d="M1733.4 1642.77C1739.05 1644.12 1746.79 1645.3 1748.83 1650.84L1747.92 1651.06C1739.51 1653.02 1734.5 1652.54 1733.4 1642.77Z"/><path fill="#040403" transform="translate(-1348 -1418)" d="M1725.35 1630.52C1727.53 1629.91 1729.82 1631.07 1730.62 1633.19C1731.43 1635.3 1730.49 1637.69 1728.46 1638.69C1726.96 1639.42 1725.18 1639.24 1723.86 1638.23C1722.54 1637.22 1721.9 1635.55 1722.22 1633.92C1722.53 1632.28 1723.75 1630.97 1725.35 1630.52Z"/><path fill="#040403" transform="translate(-1348 -1418)" d="M1756.99 1640.52C1758.23 1639.55 1759.9 1639.37 1761.32 1640.04C1762.74 1640.71 1763.66 1642.13 1763.7 1643.7C1763.73 1645.27 1762.87 1646.73 1761.48 1647.46C1759.58 1648.46 1757.23 1647.85 1756.06 1646.05C1754.9 1644.24 1755.3 1641.84 1756.99 1640.52Z"/><path fill="#9F94E2" transform="translate(-1348 -1418)" d="M1610.08 1589.08C1626.2 1589.48 1652.4 1598.89 1646.71 1620.41C1643.44 1632.76 1625.74 1639.96 1614.87 1644.96C1611.39 1644.93 1607.79 1644.18 1604.86 1642.39C1600.49 1638.51 1589.52 1640.05 1585.82 1637.79C1568.51 1627.23 1582.01 1604.27 1593.88 1595.83C1600.45 1591.16 1603.86 1590.61 1610.08 1589.08Z"/><path fill="#040403" transform="translate(-1348 -1418)" d="M1619.12 1618.31L1620.12 1619.54C1620.72 1626.07 1614.05 1626.61 1608.71 1627.77C1608.2 1626.17 1608.08 1625.41 1607.74 1623.76C1609.57 1621.39 1613.67 1621.39 1618.26 1618.8L1619.12 1618.31Z"/><path fill="#65B78E" transform="translate(-1348 -1418)" d="M1790.84 1644.26C1796.16 1646.62 1799.23 1652.46 1802.27 1657.3C1806.52 1652.77 1808.86 1649.59 1814.77 1648.06C1822.35 1650.18 1819.04 1659.04 1817.9 1665.11C1826.39 1664.29 1828.71 1664.42 1836.82 1665.92C1835.11 1669.72 1830.09 1675.83 1825.88 1676.56C1818.4 1677.86 1812.61 1669.12 1807.28 1665.27C1802.31 1661.68 1794.45 1663.38 1788.78 1664.1C1789.03 1655.77 1789.35 1652.44 1790.84 1644.26Z"/><path fill="#65B78E" transform="translate(-1348 -1418)" d="M1774.54 1597.21C1781.69 1596.83 1795.53 1596.83 1794.27 1607.04C1790.41 1612.71 1786.31 1613.06 1779.74 1615.07C1769.41 1614.63 1765.77 1612.78 1756.45 1608.81C1763.37 1601.88 1765.81 1600.78 1774.54 1597.21Z"/><path fill="#65B78E" transform="translate(-1348 -1418)" d="M1522.21 1629.79C1543.14 1630.42 1549.15 1637.68 1555.07 1656.41C1535.03 1653.42 1529.29 1648.71 1522.21 1629.79Z"/><path fill="#E28E2F" transform="translate(-1348 -1418)" d="M1630.7 1699.22C1631.99 1699.76 1633.67 1700.25 1633.81 1702.05C1634.89 1716 1635.2 1725.02 1641.67 1737.63L1632.25 1737.08L1617.25 1736.66C1625.85 1721.88 1627.7 1716.04 1630.7 1699.22Z"/><path fill="#65B78E" transform="translate(-1348 -1418)" d="M1598.88 1568.88C1603.05 1571.64 1605.28 1574.76 1608.53 1578.56C1611.53 1575.93 1613.29 1573.91 1617.17 1573.74L1618.33 1574.86C1616.57 1582.12 1609.44 1582.56 1603.27 1583.49C1598.44 1584.6 1595.31 1587.78 1590.21 1587.82C1587.41 1586.13 1586.92 1586.2 1585.6 1583.2L1586.58 1581.75C1589.88 1580.95 1591.57 1581.94 1594.88 1583.02L1596.26 1583.48L1598.88 1568.88Z"/><path fill="#FC7E5E" transform="translate(-1348 -1418)" d="M1500.08 1690.61C1501.62 1692.89 1507.38 1714.93 1507.67 1718.48L1506.32 1719.92L1495.74 1715.81C1496.47 1707.66 1497.01 1698.16 1500.08 1690.61Z"/><path fill="#FEF3DD" fill-opacity="0.015686275" transform="translate(-1348 -1418)" d="M1824.82 1622.7C1827.31 1630.08 1833.57 1647.79 1831.95 1655.49C1825.22 1654.96 1825.98 1641.38 1816.82 1638.02C1817.7 1636.04 1820.79 1636.04 1822.77 1635.66C1825.6 1632.06 1824.85 1627.44 1824.82 1622.7Z"/><path fill="#FC7E5E" transform="translate(-1348 -1418)" d="M1838.66 1704.82C1841.03 1707.3 1841.05 1713.23 1841.37 1716.82L1828.51 1720.61L1827.16 1720.03C1827.68 1717.08 1835.96 1708.97 1838.66 1704.82Z"/><path fill="#FEF3DD" fill-opacity="0.015686275" transform="translate(-1348 -1418)" d="M1509.3 1632.34C1511.19 1625.73 1512.91 1620.2 1515.19 1613.71C1515.24 1617.36 1515.33 1620.57 1515.55 1624.21C1516.65 1625.12 1516.67 1625.34 1517.93 1625.86C1516.19 1632.35 1515.91 1633.07 1518.04 1639.43C1510.74 1635.6 1517.19 1635.2 1509.3 1632.34Z"/><path fill="#FEF3DD" fill-opacity="0.035294119" transform="translate(-1348 -1418)" d="M1501.39 1667.29C1506.35 1662.93 1506.3 1663.11 1512.74 1662.11L1511.99 1662.98C1505.75 1670.27 1502.7 1680.37 1500.46 1682.6C1498.7 1679.89 1499.88 1670.04 1501.39 1667.29Z"/><path fill="#9C8F81" transform="translate(-1348 -1418)" d="M1745.49 1716.76L1746.58 1718.3C1746.74 1724.72 1745.91 1730.99 1743.38 1736.92C1741.94 1735.46 1742.3 1735.79 1741.28 1733.95C1741.62 1727.96 1743.7 1722.53 1745.49 1716.76Z"/><path fill="#040403" transform="translate(-1348 -1418)" d="M1882.06 1470.33C1888.69 1471.02 1887.9 1474.65 1893.74 1475.29C1896.17 1474.29 1897.9 1473.66 1900.41 1472.85C1904.4 1474.06 1902.84 1472.99 1905.45 1475.84C1906.83 1487.28 1908 1483.66 1916.02 1490.3L1916.19 1492.78C1914.62 1496.59 1912.71 1497.74 1909.54 1500.57L1910.33 1503.93C1915.62 1526.25 1906 1533.54 1889.27 1545.38C1862.29 1558.77 1845.75 1523.73 1855.1 1502.06C1859.68 1491.44 1864.72 1489.09 1874.7 1485.17C1877.4 1478.16 1877.66 1476.56 1882.06 1470.33Z"/><path fill="#9F94E2" transform="translate(-1348 -1418)" d="M1881.33 1492.26C1896.58 1494.04 1901.78 1500.92 1905.64 1514.98C1902.93 1526.47 1893.03 1538.29 1881.28 1539.8C1860.27 1550.03 1857.53 1510.06 1863.76 1499.03C1866.62 1493.95 1875.74 1493.63 1881.33 1492.26Z"/><path fill="#65B78E" transform="translate(-1348 -1418)" d="M1882.66 1478.57C1888.41 1479.39 1887.67 1483.73 1892.39 1484.6C1894.28 1482.91 1894.96 1481.94 1897.38 1481.34C1900.27 1484.04 1899.37 1483.42 1900.32 1488.18C1903.21 1490.98 1902.39 1490.11 1906.88 1491.18L1907.2 1491.12L1907.88 1491.8C1901.4 1496.15 1884 1488.93 1882.66 1478.57Z"/><path fill="#040403" transform="translate(-1348 -1418)" d="M1900.36 1841.52C1908.42 1846.39 1905.1 1850.46 1913.99 1853.37C1915.45 1853.85 1914.75 1853.51 1916.05 1855.17C1913.97 1858.94 1911.8 1859.92 1908.15 1862.47C1911.64 1863.77 1916.72 1865.55 1919.71 1867.72C1924.14 1871.02 1927.13 1875.91 1928.03 1881.36C1930.85 1899.45 1916.32 1914.76 1898.63 1916.62C1888.3 1914.43 1877.01 1910.18 1871.28 1900.75C1863.46 1887.92 1866.81 1866.23 1881.03 1859.08C1888.47 1855.34 1893.14 1855.94 1900.68 1858.6C1900.08 1852.38 1898.93 1847.61 1900.36 1841.52Z"/><path fill="#FC7E5E" transform="translate(-1348 -1418)" d="M1887.66 1862.81C1895.52 1864.45 1896.67 1866.02 1902.63 1871.26C1933.33 1872.8 1922.98 1894.92 1906.7 1909.18C1882.91 1917.99 1857.22 1881.99 1887.66 1862.81Z"/><path fill="#040403" transform="translate(-1348 -1418)" d="M1458.19 1492.53C1460.7 1493.98 1461.08 1494.86 1463.05 1497.09C1467.42 1497.88 1466.82 1495.97 1472.88 1494.51C1476.13 1495.88 1475 1494.8 1476.75 1497.4C1474.2 1502.04 1468.44 1500.52 1465.33 1506.15C1467.01 1510.73 1476.92 1514.06 1479.34 1518.84C1487.28 1534.47 1470.2 1549.81 1458.87 1557.09C1427.14 1565.7 1411.71 1518.36 1437.51 1503.91C1443.38 1500.62 1449.21 1503.42 1455 1505.63C1455.82 1500.26 1455.95 1497.54 1458.19 1492.53Z"/><path fill="#FAB84F" transform="translate(-1348 -1418)" d="M1439.72 1507.95C1442.77 1507.91 1446.59 1507.79 1449 1509.69C1455.73 1514.98 1464.71 1514.89 1471.41 1520.12C1481.94 1528.33 1468.76 1541.12 1462.52 1547.67C1434.48 1562.43 1421.59 1528.8 1439.72 1507.95Z"/><path fill="#040403" transform="translate(-1348 -1418)" d="M1392.64 1606.21C1402.77 1606.01 1410.58 1606.49 1419.98 1610.79C1438.2 1619.14 1450.61 1638.06 1441.29 1657.61C1428.63 1658.54 1418.36 1656.16 1407.34 1649.43C1395.6 1642.26 1383.39 1618.65 1392.64 1606.21Z"/><path fill="#65B78E" transform="translate(-1348 -1418)" d="M1395.38 1613.68C1423.87 1613.53 1430.97 1621.16 1438.83 1647.44C1430.46 1639.21 1424.58 1632.93 1414.47 1627.03C1412.96 1636.43 1423.33 1639.66 1428.17 1648.81L1427.57 1650.13C1406.79 1654.02 1398.87 1628.86 1395.38 1613.68Z"/><path fill="#040403" transform="translate(-1348 -1418)" d="M1934.36 1761.37C1967.84 1756.51 1948.68 1791.48 1934.65 1801.05C1928.45 1805.27 1925.37 1806.16 1918.43 1808.14C1897.02 1808.61 1895.02 1796.53 1905.33 1780.19C1912.34 1769.07 1921.86 1763.92 1934.36 1761.37Z"/><path fill="#65B78E" transform="translate(-1348 -1418)" d="M1935.91 1767.11C1940.66 1766.87 1941.61 1766.87 1944.74 1770.09C1948.88 1784.02 1928.95 1803.49 1913.06 1801.82L1912.35 1800.72C1915.19 1796.74 1920.58 1792.66 1924.45 1789.4C1927.19 1786.44 1928.54 1785.48 1927.66 1781.32L1926.01 1780.85C1919.2 1782.77 1911.06 1791.32 1905.93 1796.23C1912.88 1777.9 1916.75 1772.33 1935.91 1767.11Z"/><path fill="#040403" transform="translate(-1348 -1418)" d="M1427.42 1817.63L1428.89 1818.73C1432.57 1828.11 1431.96 1823.53 1439.02 1827.83C1456.52 1838.49 1446.98 1856.24 1431.83 1861.61C1399.8 1862.05 1413.93 1831.94 1427.42 1817.63Z"/><path fill="#9F94E2" transform="translate(-1348 -1418)" d="M1432.45 1832.46C1446.96 1837.71 1443.55 1853.5 1427.07 1855.14C1421.73 1851.86 1415.86 1845.2 1417.26 1838.5C1419.75 1835.88 1418.28 1836.95 1422.22 1835.78C1424.17 1836.61 1424.73 1836.99 1426.43 1838.19C1430.22 1837.12 1429.48 1836.62 1432.45 1832.46Z"/><path fill="#040403" transform="translate(-1348 -1418)" d="M1829.45 1449.58C1848.17 1457.32 1849.37 1479.5 1838.04 1494.43C1829.82 1494.35 1822.09 1484.61 1821.47 1476.66C1820.57 1465.29 1822.62 1458.46 1829.45 1449.58Z"/><path fill="#65B78E" transform="translate(-1348 -1418)" d="M1831.02 1457.44C1842.61 1466.24 1840.44 1475.81 1835.94 1487.69C1824.2 1479.69 1826.75 1469.06 1831.02 1457.44Z"/><path fill="#040403" transform="translate(-1348 -1418)" d="M1912.99 1561.06C1918.99 1560.28 1925.21 1559.77 1929.02 1565.24C1931.2 1574.58 1922.32 1580.12 1915.26 1583.76C1894.45 1587.86 1894.93 1569.43 1912.99 1561.06Z"/><path fill="#65B78E" transform="translate(-1348 -1418)" d="M1913.7 1568.06C1917.45 1567.85 1917.69 1567.62 1921.34 1568.86L1922.21 1570.63C1920.95 1573.98 1918.61 1575.15 1915.68 1577.35C1911 1577.78 1911.59 1578.43 1907.92 1576.74L1907.54 1574.8C1909.22 1571.01 1910.24 1570.66 1913.7 1568.06Z"/><path fill="#FC7E5E" transform="translate(-1348 -1418)" d="M1403.51 1762.46C1406.65 1763.96 1410.56 1771.34 1413.42 1775.16C1417.57 1776.62 1422.15 1777.99 1426.36 1779.34C1423.89 1780.14 1421.43 1780.97 1418.99 1781.83C1411.7 1784.45 1409.95 1785.95 1406.76 1792.74L1405 1793.85L1403.03 1792.56C1397.74 1781.75 1396.79 1785.77 1390.55 1778.56C1392.38 1775.47 1395.23 1774.73 1398.82 1772.79C1400.48 1769.44 1401.99 1765.89 1403.51 1762.46Z"/><path fill="#FC7E5E" transform="translate(-1348 -1418)" d="M1461.17 1889.37C1467.01 1888.95 1472.13 1893.23 1472.76 1899.04C1473.39 1904.86 1469.3 1910.14 1463.51 1910.98C1459.57 1911.55 1455.64 1909.93 1453.25 1906.75C1450.86 1903.56 1450.4 1899.33 1452.05 1895.7C1453.7 1892.08 1457.2 1889.65 1461.17 1889.37Z"/><path fill="#FAB84F" transform="translate(-1348 -1418)" d="M1442.28 1575.85C1455.69 1576.43 1456.4 1586.72 1448.46 1595.6C1434.24 1596.72 1433.92 1584.15 1442.28 1575.85Z"/><path fill="#FAB84F" transform="translate(-1348 -1418)" d="M1525.97 1427.3C1535.93 1431.34 1533.26 1439.89 1528.06 1446.49C1518.47 1443.56 1522.28 1433.41 1525.97 1427.3Z"/><path fill="#FAB84F" transform="translate(-1348 -1418)" d="M1497.05 1446.58C1502.37 1447.47 1507.48 1447.74 1511.21 1451.53C1512 1455.15 1512.07 1453.27 1510 1457.25C1504.28 1458.11 1499.89 1458.15 1496.03 1453.53C1495.27 1450.11 1495.75 1449.82 1497.05 1446.58Z"/><path fill="#FAB84F" transform="translate(-1348 -1418)" d="M1534.12 1453.85C1541.65 1453.49 1549.38 1453.78 1549.29 1463.15C1540.71 1465.74 1533.83 1464.62 1534.12 1453.85Z"/><path fill="#FC7E5E" transform="translate(-1348 -1418)" d="M1901.26 1618.52C1909.44 1621.07 1913.33 1626.4 1910.1 1634.85C1902.06 1632.24 1897.69 1627 1901.26 1618.52Z"/><path fill="#FAB84F" transform="translate(-1348 -1418)" d="M1518.4 1468.3C1521.18 1469.54 1520.95 1469.57 1522.56 1472.22C1523.42 1478.2 1521.72 1480.34 1518.17 1485.29L1514.89 1483.4C1510.91 1476.68 1513.72 1473.61 1518.4 1468.3Z"/><path fill="#FC7E5E" transform="translate(-1348 -1418)" d="M1930.46 1648.17C1933.73 1649.12 1936.44 1651.41 1937.91 1654.47C1939.79 1658.36 1939.34 1660.34 1937.88 1664.01C1928.61 1661.01 1926.13 1657.65 1930.46 1648.17Z"/><path fill="#FC7E5E" transform="translate(-1348 -1418)" d="M1908.92 1646.72C1912.72 1648.99 1911.63 1647.44 1912.97 1650.97C1912.19 1656.24 1908.7 1658.9 1904.89 1662.59C1901.68 1660.75 1902.87 1662.02 1901.31 1658.52C1902.03 1652.93 1904.83 1650.62 1908.92 1646.72Z"/><path fill="#FC7E5E" transform="translate(-1348 -1418)" d="M1932.78 1620.44L1936.61 1621.49C1939.41 1624.26 1938.66 1622.65 1939.1 1626.41C1937.56 1630.74 1937.03 1630.98 1933.7 1634.37C1930.19 1634.3 1930.32 1634.25 1928.4 1632.01C1927.87 1627.48 1930.26 1624.07 1932.78 1620.44Z"/></g></svg>