<?xml version="1.0" encoding="utf-8" ?><svg xmlns="http://www.w3.org/2000/svg" xmlns:xlink="http://www.w3.org/1999/xlink" width="713" height="737" viewBox="0 0 713 737"><clipPath id="concepts-interest-cl_40"><rect width="713" height="737"/></clipPath><g clip-path="url(#concepts-interest-cl_40)"><path fill="#090A12" transform="translate(-1335 -1311)" d="M1532.53 1384.47C1595.43 1385.01 1663.87 1380.33 1726.05 1389.73C1735.55 1391.17 1806.59 1461.4 1809.6 1471.53C1816.62 1495.18 1814.26 1546.61 1814.3 1572.77C1854.22 1583.83 1902.57 1619.94 1895.44 1667.05C1891.71 1691.67 1874.75 1705.86 1855.72 1719.66C1859.53 1748.24 1840.89 1755.55 1815.85 1753.91C1813.97 1767.83 1815.36 1785.61 1805.66 1796.15C1791.72 1811.31 1747.25 1807.8 1725.83 1808.21L1723.94 1845.36C1737.79 1853.04 1768.09 1872.58 1743.19 1887.94C1724.49 1899.48 1696.84 1896.5 1676.26 1891.81C1658.02 1885.86 1655.19 1875.86 1654.33 1857.22C1653.6 1841.4 1653.26 1825.62 1652.15 1809.81C1645.54 1809.8 1638.74 1809.98 1632.11 1810.07C1632.03 1830.03 1631.32 1855.05 1627.51 1874.72C1626.28 1881.04 1621.8 1887.32 1615.59 1890.32C1600.44 1897.64 1569.13 1898.21 1553.01 1893.71C1546.52 1891.6 1537.4 1885.89 1534.87 1879.25C1528.47 1862.47 1548.46 1852.48 1560.58 1847.06C1559.94 1833.89 1559.03 1820.72 1557.85 1807.58C1501.15 1804.46 1475.94 1823.49 1471.47 1753.5C1444.52 1756 1427.82 1748.25 1429.38 1718.74C1373.7 1685.8 1378.46 1629.45 1427.99 1593.85C1442.53 1583.39 1456.26 1578.49 1472.66 1571.88C1474.06 1517.98 1472.51 1463.8 1474.21 1409.92C1474.3 1406.9 1476.08 1402.35 1477.21 1399.57C1492.16 1385.76 1513.34 1385.76 1532.53 1384.47ZM1821.82 1658.67C1827.69 1651.15 1825.46 1646.58 1816.82 1643.26C1816.49 1648.14 1815.09 1656.5 1817.85 1660.09C1820.46 1659.65 1819.61 1659.96 1821.82 1658.67Z"/><path fill="#FDF1DF" transform="translate(-1335 -1311)" d="M1587.02 1395.5C1627.57 1393.93 1679.33 1396.73 1720.02 1398.43C1719.14 1483.28 1718.79 1479.63 1802.3 1480.1L1804.08 1670.36C1773.75 1693.66 1779.76 1726.33 1804.86 1750.34C1804.24 1775.82 1808.11 1791.55 1777.73 1794.47C1750.76 1797.07 1724.79 1797.36 1697.75 1797.96C1652.74 1798.49 1607.55 1798.37 1562.58 1796.3C1538.74 1795.21 1508.9 1799.66 1487.43 1788.75C1482.17 1777.39 1482.72 1761.49 1482.41 1748.88C1508.06 1725.85 1508.96 1691.58 1481.96 1669.29C1481.93 1609.51 1483.84 1549.61 1484.74 1489.8C1484.98 1474.69 1484.91 1459.59 1484.52 1444.49C1484.33 1435.35 1483.9 1425.43 1484.36 1416.39C1485.56 1392.58 1519.42 1396.82 1536.18 1396.55L1587.02 1395.5Z"/><path fill="#090A12" transform="translate(-1335 -1311)" d="M1606.42 1658.82C1608.59 1658.88 1610.69 1659.38 1612.77 1659.99C1617.31 1661.33 1622.47 1663.88 1624.7 1668.3C1626.95 1672.76 1626.46 1678.45 1624.62 1682.95C1620.97 1691.85 1575.69 1743.3 1567.5 1744.87C1561.38 1746.04 1552.39 1734.97 1548.66 1731.12C1539.3 1722.16 1519.95 1707.44 1532.71 1694.06C1535.87 1690.68 1540.32 1688.8 1544.95 1688.89C1554.75 1689.14 1560.15 1696.05 1566.06 1702.7C1578.52 1687.26 1591.09 1671.52 1606.42 1658.82Z"/><path fill="#5BB48C" transform="translate(-1335 -1311)" d="M1608.75 1667.65C1612.9 1670.67 1615.91 1673.6 1618.82 1677.81C1602.38 1697.53 1585.31 1718.36 1567.75 1736.94C1560.57 1730.78 1554.94 1725.27 1548.24 1718.65L1536.11 1705.7C1536.86 1704.66 1537.64 1703.64 1538.44 1702.63C1547.73 1691.22 1559.44 1707.68 1566.26 1714.73C1580.16 1700.93 1595.61 1682.5 1608.75 1667.65Z"/><path fill="#090A12" transform="translate(-1335 -1311)" d="M1726.86 1650.81C1729.21 1651.81 1731.34 1652.99 1733.51 1654.36C1736.95 1656.52 1743.3 1660.72 1743.47 1665.39C1743.74 1672.94 1695.56 1732.08 1687.73 1740.81C1683.44 1745.58 1679.07 1749.85 1674.02 1753.8C1664.59 1749.97 1661.11 1747.04 1655.29 1739.3C1665.8 1721.55 1710.47 1663.42 1726.86 1650.81Z"/><path fill="#F67A5F" transform="translate(-1335 -1311)" d="M1727.56 1659.77C1730.4 1661.75 1733.51 1665.01 1736.09 1667.48C1715.26 1693.99 1694.75 1720.38 1672.8 1746L1664.12 1738.25C1681.34 1714.89 1708.13 1681.33 1727.56 1659.77Z"/><path fill="#090A12" transform="translate(-1335 -1311)" d="M1541.24 1577.62C1606.18 1574.21 1674.11 1579.51 1739.42 1576.83C1743.79 1576.65 1752.9 1576.86 1754.39 1581.41C1752.25 1585.26 1749.36 1586.36 1745.23 1587.08C1729.59 1588.09 1697.95 1588.62 1683.01 1588.4C1662.7 1588.1 1539.19 1591.68 1532.3 1582.93L1532.87 1580.94C1536.26 1577.99 1536.58 1578.11 1541.24 1577.62Z"/><path fill="#090A12" transform="translate(-1335 -1311)" d="M1668.44 1650.47C1681.27 1649.71 1692.3 1659.45 1693.14 1672.27C1693.98 1685.09 1684.32 1696.19 1671.5 1697.11C1658.57 1698.05 1647.35 1688.27 1646.5 1675.33C1645.65 1662.39 1655.5 1651.23 1668.44 1650.47Z"/><path fill="#F67A5F" transform="translate(-1335 -1311)" d="M1666.73 1658.44C1672.25 1657.3 1677.95 1659.22 1681.65 1663.47C1685.35 1667.72 1686.47 1673.64 1684.57 1678.95C1682.67 1684.25 1678.06 1688.12 1672.51 1689.07C1664.13 1690.49 1656.15 1684.94 1654.58 1676.59C1653 1668.24 1658.41 1660.17 1666.73 1658.44Z"/><path fill="#090A12" transform="translate(-1335 -1311)" d="M1666.47 1667.46C1670.09 1665.76 1674.41 1667.33 1676.09 1670.96C1677.77 1674.59 1676.17 1678.89 1672.53 1680.55C1668.92 1682.2 1664.66 1680.62 1662.99 1677.02C1661.33 1673.42 1662.88 1669.15 1666.47 1667.46Z"/><path fill="#090A12" transform="translate(-1335 -1311)" d="M1729.72 1708.46C1742.52 1707.75 1753.5 1717.52 1754.26 1730.32C1755.02 1743.12 1745.29 1754.12 1732.5 1754.94C1719.63 1755.75 1708.56 1745.96 1707.79 1733.09C1707.02 1720.23 1716.85 1709.18 1729.72 1708.46Z"/><path fill="#F67A5F" transform="translate(-1335 -1311)" d="M1729.47 1716.49C1737.62 1715.59 1745.04 1721.22 1746.38 1729.31C1747.71 1737.39 1742.48 1745.11 1734.48 1746.87C1728.91 1748.1 1723.11 1746.15 1719.42 1741.8C1715.72 1737.46 1714.73 1731.42 1716.83 1726.12C1718.94 1720.82 1723.8 1717.11 1729.47 1716.49Z"/><path fill="#090A12" transform="translate(-1335 -1311)" d="M1727.51 1725.54C1730.97 1723.58 1735.37 1724.81 1737.31 1728.29C1739.25 1731.76 1737.99 1736.15 1734.5 1738.07C1731.04 1739.97 1726.7 1738.72 1724.78 1735.28C1722.86 1731.83 1724.08 1727.48 1727.51 1725.54Z"/><path fill="#090A12" transform="translate(-1335 -1311)" d="M1538.09 1611.45C1580.23 1608.67 1628.78 1612.59 1671.38 1611.64C1676.09 1611.54 1683.03 1612.48 1683.2 1618.12C1681.35 1621.03 1681.36 1620.77 1678.15 1622.16C1660.63 1623.04 1544.52 1623.4 1535.35 1618.54C1533.42 1617.52 1533.34 1617.47 1532.69 1615.3C1534.64 1612.82 1535.27 1612.81 1538.09 1611.45Z"/><path fill="#090A12" transform="translate(-1335 -1311)" d="M1664.5 1519.89C1667.51 1520.02 1666.12 1519.61 1668.76 1521.37C1669.4 1523.57 1670.01 1525.03 1668.58 1527.21C1656.41 1545.75 1635.65 1540.66 1620.21 1533.41C1617.14 1530.01 1614.59 1527.54 1616.13 1522.82C1621.97 1520.2 1635.43 1528.67 1641.86 1529.75C1649.14 1530.96 1658.71 1523.92 1664.5 1519.89Z"/><path fill="#090A12" transform="translate(-1335 -1311)" d="M1689 1495.51C1694.95 1493.21 1701.64 1496.14 1703.99 1502.08C1706.33 1508.01 1703.45 1514.73 1697.54 1517.12C1691.55 1519.53 1684.75 1516.61 1682.38 1510.61C1680.01 1504.61 1682.98 1497.83 1689 1495.51Z"/><path fill="#090A12" transform="translate(-1335 -1311)" d="M1584.35 1500.48C1590.15 1498.24 1596.66 1501.12 1598.91 1506.91C1601.16 1512.7 1598.29 1519.22 1592.5 1521.47C1586.7 1523.73 1580.17 1520.86 1577.92 1515.06C1575.67 1509.26 1578.55 1502.73 1584.35 1500.48Z"/><path fill="#5BB48C" transform="translate(-1335 -1311)" d="M1467.72 1585.98L1470.15 1586.43C1472.36 1592.54 1470.83 1619.07 1470.57 1626.69C1411.4 1669.09 1488.26 1663.53 1490.47 1705.25C1491.96 1733.61 1465.83 1759.28 1440.98 1733.72C1439.84 1730.78 1439.61 1730.9 1440.3 1727.9C1444.85 1724.02 1450.64 1728.25 1454.65 1723.61C1454.41 1722.61 1454.17 1721.6 1453.92 1720.59C1434.65 1706.61 1414.85 1701.11 1404.65 1677.04C1399.45 1664.77 1399.18 1650.8 1404.77 1638.11C1416.63 1611.13 1442.14 1596.91 1467.72 1585.98Z"/><path fill="#5BB48C" transform="translate(-1335 -1311)" d="M1814.95 1585.08C1847.39 1597.09 1887.72 1622.48 1884.78 1662.71C1883.89 1674.87 1876.74 1688.86 1867.94 1697.46C1858.72 1706.48 1843.93 1711.44 1833.64 1719.16C1831.21 1720.99 1831.79 1721.35 1831.57 1724.11C1834.44 1726.69 1839.13 1726.44 1843.82 1727.2C1846.68 1729.8 1845.64 1728.17 1846.24 1732.69C1824.72 1757.95 1799.01 1738.75 1795.25 1711.45C1789.16 1667.08 1876.84 1667.89 1815.93 1627.73C1815.41 1613.52 1815.09 1599.3 1814.95 1585.08Z"/><path fill="#5BB48C" transform="translate(-1335 -1311)" d="M1570.05 1808.01C1586.8 1808.71 1603.55 1809.09 1620.31 1809.18C1620.18 1825.41 1620.08 1841.18 1618.76 1857.36C1616.88 1880.5 1615.03 1880.8 1593.08 1883.82C1582.48 1884.56 1547.34 1888.84 1545.88 1873.5C1549.3 1863.79 1562.67 1858.4 1571.78 1853.69C1572.78 1837.85 1571.51 1823.67 1570.05 1808.01Z"/><path fill="#5BB48C" transform="translate(-1335 -1311)" d="M1704.27 1809.49C1708.53 1809.03 1709.4 1808.72 1712.54 1811.33C1716.44 1819.49 1712.09 1836.64 1712.29 1846.91C1709.88 1859.7 1733.58 1860.19 1737.65 1867.01C1748.89 1885.89 1712.14 1884.69 1705.75 1884.38C1666.68 1883.03 1668.04 1881.19 1665.75 1843.86C1665.07 1832.72 1664.68 1821.14 1664.26 1810C1677.59 1810.1 1690.93 1809.93 1704.27 1809.49Z"/><path fill="#FDF1DF" transform="translate(-1335 -1311)" d="M1730.09 1404.73C1739.67 1410.11 1784.42 1457.98 1795.82 1469.3C1722.41 1466.49 1734.88 1476.6 1730.09 1404.73Z"/><path fill="#FDF1DF" transform="translate(-1335 -1311)" d="M1468.85 1640.8L1469.6 1641.48C1471.52 1645.95 1472.33 1656.01 1468.38 1659.61L1466.04 1659.34C1461.65 1655.91 1460.41 1655.82 1460.44 1650.15C1462.33 1646.04 1465.42 1643.87 1468.85 1640.8Z"/><path fill="#FDF1DF" fill-opacity="0.019607844" transform="translate(-1335 -1311)" d="M1816.82 1643.26C1825.46 1646.58 1827.69 1651.15 1821.82 1658.67C1819.61 1659.96 1820.46 1659.65 1817.85 1660.09C1815.09 1656.5 1816.49 1648.14 1816.82 1643.26Z"/><path fill="#090A12" transform="translate(-1335 -1311)" d="M1860.81 1366.22C1907.9 1362.21 1906.97 1424.28 1843.25 1432.83C1818.58 1434.74 1801.37 1413.26 1815.23 1391.17C1825.62 1374.62 1843.27 1370.3 1860.81 1366.22Z"/><path fill="#F8B34A" transform="translate(-1335 -1311)" d="M1859.93 1375.11C1867.2 1374.81 1875.51 1372.99 1878.93 1380.7C1877.94 1395.47 1850.66 1406.68 1838.26 1409.92C1831.95 1410.65 1821.06 1411.64 1817.28 1405.69C1817.7 1391.04 1848.33 1378.9 1859.93 1375.11Z"/><path fill="#F8B34A" transform="translate(-1335 -1311)" d="M1883.71 1393.77C1891.34 1401.21 1871.88 1413.41 1866.6 1416C1853.88 1422.24 1843.58 1424.61 1829.52 1423.94C1827.92 1421.28 1828.24 1422.66 1828.27 1419.74C1831.49 1417.78 1833.98 1419.53 1836.94 1419.04C1858.56 1415.5 1869.6 1408.22 1883.71 1393.77Z"/><path fill="#090A12" transform="translate(-1335 -1311)" d="M1417.75 1477.33C1420.45 1478.12 1420.15 1478.1 1422.69 1479.42C1425.65 1482.81 1425.89 1486.34 1426.88 1490.85C1434.11 1498.39 1441.72 1499.72 1446.46 1506.61C1445.34 1512.71 1434.92 1512.83 1430.75 1517.35C1425.08 1523.5 1427.11 1530.71 1421.6 1537.19C1414.49 1532.92 1414.79 1527.91 1413.03 1520.18C1407.37 1515.45 1392.91 1511.08 1394.54 1504.53C1398.63 1500.38 1403.33 1499.33 1409.01 1496.98C1414.43 1490.71 1414.64 1485.09 1417.75 1477.33Z"/><path fill="#F67A5F" transform="translate(-1335 -1311)" d="M1419.98 1495.76C1425.85 1501.81 1424.56 1501.94 1432.22 1506.81C1426.51 1511.16 1425.29 1512.17 1421.18 1518.09L1420.98 1518.21C1419.96 1517.7 1411.53 1509.03 1409.02 1507.01C1414.73 1502.76 1415.77 1501.58 1419.98 1495.76Z"/></g></svg>