<?xml version="1.0" encoding="utf-8" ?><svg xmlns="http://www.w3.org/2000/svg" xmlns:xlink="http://www.w3.org/1999/xlink" width="723" height="598" viewBox="0 0 723 598"><clipPath id="concepts-market-ups-and-downs-cl_48"><rect width="723" height="598"/></clipPath><g clip-path="url(#concepts-market-ups-and-downs-cl_48)"><path fill="#040403" transform="translate(-632 -1450)" d="M1003.88 1545.84C991.188 1545.94 959.342 1544.33 952.864 1531.15C952.885 1529.96 953.075 1525.37 954.723 1524.78C972.177 1518.49 988.33 1508.61 1004.66 1500.23C1006.11 1499.48 1004.95 1498.59 1008.51 1497.66L1010.71 1499.01C1015.47 1506.32 1016.06 1521.17 1017.43 1530.59C1067.37 1534.18 1120.4 1572.45 1128.77 1623.94C1129.32 1630.44 1129.59 1632.61 1128.05 1639.12C1103.7 1645.1 1073.26 1644.26 1048.36 1650.3C1042.2 1651.8 1036.37 1651.7 1032.84 1657.09C1032.87 1668.77 1060.95 1661.65 1068.69 1660.58C1091.1 1657.54 1113.47 1654.24 1135.8 1650.68C1139.59 1650.11 1167.01 1645.03 1167.85 1650.21C1171.71 1674.1 1157.61 1702.11 1145.56 1722.26C1141.1 1729.72 1122.13 1747.32 1121.39 1751.12L1123.08 1752.4C1150.2 1752.6 1162.48 1715.08 1174.73 1696.91C1196.7 1663.94 1225.82 1633.32 1268.96 1640.12C1286.01 1642.8 1308.3 1650.8 1303.65 1671.82C1302.71 1676.1 1301.1 1680.84 1296.96 1683.2C1286.37 1689.24 1273.49 1683.62 1262.61 1681.31C1223.62 1671.1 1188.46 1757.7 1172.5 1785.16C1161.64 1806.84 1149.82 1826.97 1136.92 1847.46C1109.55 1890.9 1057.75 1930.86 1003.36 1915.29C909.582 1888.45 886.991 1776.34 842.157 1702.72C831.389 1685.04 815.701 1663.96 794.272 1658.71C764.794 1651.8 748.008 1682.7 728.041 1697.28C712.681 1708.49 693.554 1689.95 701.144 1673.56C718.499 1636.09 773.694 1605.84 814.265 1621.26C847.688 1633.96 872.419 1671.45 887.67 1702.11C894.178 1715.15 901.452 1728.46 907.543 1741.74C918.915 1748.47 923.704 1751.1 936.68 1752.92C926.853 1741.12 892.013 1693.03 909.495 1685.51C932.745 1675.5 992.514 1673.83 1019.37 1666.03C1021.2 1665.5 1021.09 1663.77 1021.56 1662.16C1021.21 1660.75 1021.25 1659.6 1020.11 1658.59C1013.61 1652.84 963.283 1661.21 951.364 1660.47C947.562 1660.23 944.825 1659.7 942.267 1656.65C941.719 1653.05 941.584 1653.3 943.602 1649.97C963.438 1617.22 987.533 1582.11 1003.28 1547.19L1003.88 1545.84ZM1031.64 1631.72C1038.44 1608.17 1037.83 1582.4 1025.96 1560.53C1024.51 1557.87 1022.6 1554.55 1020.17 1552.75C1018.82 1558.86 1026.78 1623.44 1028.74 1631.85L1030.02 1633.31L1031.64 1631.72Z"/><path fill="#65B78E" transform="translate(-632 -1450)" d="M779.124 1627.18C906.738 1616.41 904.417 1908.04 1041.96 1885.25C1110.35 1873.92 1150.46 1750 1184.59 1699.54C1199.65 1677.27 1216.82 1655.54 1245.37 1649.98C1257.48 1647.36 1294.53 1649.08 1296.13 1665.83C1298.11 1686.59 1265.51 1670.41 1253.92 1671.63C1236.22 1673.48 1228.09 1680.95 1216.2 1693.81C1166.17 1755.53 1141.51 1864.79 1068.07 1900.22C1045.74 1910.74 1020.15 1912.02 996.878 1903.77C930.313 1879.86 898.282 1795.17 870.516 1736.67C856.737 1707.64 833.796 1662.21 801.982 1651.14C780.002 1643.49 757.383 1655.51 742.751 1671.24C736.624 1676.75 729.968 1685.63 722.403 1689.06C709.216 1695.03 705.392 1680.75 711.685 1671.62C727.543 1648.61 752.2 1633.55 779.124 1627.18Z"/><path fill="#65B78E" transform="translate(-632 -1450)" d="M981.36 1747.17C1004.97 1749.88 1008.68 1762.12 1030.97 1765.82C1048.02 1768.66 1066.33 1747.27 1079.48 1747.58C1109.74 1748.3 1104.42 1767.44 1141.08 1758.27C1121.39 1796.27 1105.36 1829.48 1073.4 1858.83C1067.67 1863.63 1061.37 1867.72 1054.64 1870.99C984.827 1904.51 938.222 1806.16 914.768 1756.85C950.223 1769.88 950.191 1754.25 979.921 1747.49L981.36 1747.17Z"/><path fill="#65B78E" transform="translate(-632 -1450)" d="M1153.41 1658.37C1155.79 1657.84 1156.02 1657.96 1158.5 1658.1L1159.87 1659.89C1160.18 1663.4 1159.79 1664.27 1159.04 1667.72C1151.59 1702.16 1136.94 1727.93 1107.2 1747.26C1075.29 1728.72 1071.42 1742.27 1043.24 1754.15C1030.66 1759.45 1012.78 1749.94 1001.68 1743.35C981.589 1731.43 969.847 1742.89 950.403 1748.79L949.256 1749.13C929.885 1740.79 919.223 1709.94 914.168 1691.41C940.34 1686.15 974.864 1682.99 1002.11 1679.34L1153.41 1658.37Z"/><path fill="#040403" transform="translate(-632 -1450)" d="M1111.62 1691.46C1113.84 1692.2 1113.34 1692.13 1115.32 1693.61C1116.17 1695.66 1117.02 1697.31 1115.69 1699.36C1109.78 1708.42 1100.66 1706.24 1093.86 1703.22C1092.08 1700.32 1091.59 1700.03 1091.29 1696.61C1093.79 1694.28 1099.33 1697.88 1106 1697.79C1109.44 1696.18 1109.77 1694.79 1111.62 1691.46Z"/><path fill="#040403" transform="translate(-632 -1450)" d="M1071.44 1687.58C1073.21 1686.4 1075.48 1686.29 1077.36 1687.28C1079.24 1688.27 1080.42 1690.21 1080.45 1692.34C1080.48 1694.46 1079.34 1696.43 1077.49 1697.47C1074.77 1699 1071.33 1698.1 1069.7 1695.44C1068.07 1692.78 1068.84 1689.3 1071.44 1687.58Z"/><path fill="#040403" transform="translate(-632 -1450)" d="M1126.73 1679.49C1128.62 1678.69 1130.8 1679 1132.39 1680.3C1133.99 1681.59 1134.73 1683.67 1134.33 1685.68C1133.93 1687.7 1132.45 1689.33 1130.48 1689.92C1127.66 1690.76 1124.66 1689.26 1123.66 1686.48C1122.67 1683.71 1124.01 1680.64 1126.73 1679.49Z"/><path fill="#65B78E" transform="translate(-632 -1450)" d="M1025.09 1540.82C1080.65 1552.39 1108.76 1578.22 1122.54 1632.89L1105.25 1633.83C1080.48 1634.99 1059.73 1639.94 1035.71 1645.3C1036.86 1642.18 1037.91 1639.03 1038.86 1635.84C1050.14 1598.35 1043.11 1574.35 1025.09 1540.82Z"/><path fill="#65B78E" transform="translate(-632 -1450)" d="M1008.66 1558.72C1013.24 1563.25 1020.2 1637.37 1021.34 1647.75C1003.19 1648.99 984.187 1650.14 966.131 1651.9L952.204 1652.13C972.436 1622.01 990.473 1590.13 1008.66 1558.72Z"/><path fill="#4A4640" fill-opacity="0.011764706" transform="translate(-632 -1450)" d="M1020.17 1552.75C1022.6 1554.55 1024.51 1557.87 1025.96 1560.53C1037.83 1582.4 1038.44 1608.17 1031.64 1631.72L1030.02 1633.31L1028.74 1631.85C1026.78 1623.44 1018.82 1558.86 1020.17 1552.75Z"/><path fill="#65B78E" transform="translate(-632 -1450)" d="M1001.54 1510.78L1003.59 1511.43C1007.43 1516.64 1007.71 1530.07 1008.29 1537.08C995.82 1537.13 986.529 1536.52 974.304 1535.33L964.273 1530.18C980.388 1525.35 987.076 1518.05 1001.54 1510.78Z"/><path fill="#040403" transform="translate(-632 -1450)" d="M765.582 1535.24C766.888 1535.34 768.189 1535.49 769.485 1535.67C793.303 1539.24 804.547 1583.44 791.115 1592.1C787.3 1591.47 789.035 1592.21 785.929 1589.37C775.008 1577.05 756.762 1570.62 750.81 1554.02C747.051 1543.55 756.69 1537.44 765.582 1535.24Z"/><path fill="#65B78E" transform="translate(-632 -1450)" d="M764.565 1542.86C775.859 1543.04 783.392 1549.95 786.383 1560.88C787.59 1565.28 790.343 1575.37 788.264 1579.31L786.313 1579.17C775.272 1570.04 747.704 1558.71 764.565 1542.86Z"/><path fill="#040403" transform="translate(-632 -1450)" d="M1294.52 1587.18C1310.55 1586.26 1325.7 1597.83 1311.77 1613.32C1305.77 1620 1291.38 1618.54 1282.75 1617.92C1274.18 1617.64 1265.87 1622.58 1260.77 1615.75C1259.25 1604.44 1284.79 1589.56 1294.52 1587.18Z"/><path fill="#65B78E" transform="translate(-632 -1450)" d="M1294.75 1593.98C1300.64 1594.41 1306.54 1594.81 1308.86 1601C1307.78 1611.45 1296.74 1611.15 1288.98 1611.05C1282.87 1610.46 1279.08 1610.59 1272.97 1610.75C1280.93 1601.61 1283.75 1599.03 1294.75 1593.98Z"/><path fill="#65B78E" transform="translate(-632 -1450)" d="M1246.89 1726.43C1251.37 1728.09 1255.3 1738.68 1258.65 1743.89L1259.3 1744.88C1263.59 1746.27 1268.35 1747.19 1271.14 1750.47C1271.98 1757.47 1254.83 1763.1 1249.37 1778.67L1248.93 1779.97C1247.46 1780.01 1248.35 1780.1 1246.32 1779.3C1243.23 1774.67 1242.66 1771.5 1241.1 1766.19C1233.78 1759.84 1226.06 1758.61 1223.51 1755.51C1224.52 1749.09 1236.97 1746.13 1240.1 1741.87C1241.71 1739.68 1245.55 1729.75 1246.89 1726.43Z"/><path fill="#040403" transform="translate(-632 -1450)" d="M1249.65 1562.12C1269.28 1561.01 1270.22 1573.7 1260.47 1587.02C1256.97 1591.79 1251.05 1596.92 1246.71 1601.04C1243.4 1604.35 1242.93 1605.02 1238.84 1605.58C1225.84 1599.73 1234.99 1569.82 1249.65 1562.12Z"/><path fill="#65B78E" transform="translate(-632 -1450)" d="M1252.82 1568.66C1257.39 1570.57 1258.31 1570.93 1258.7 1576C1256 1583.22 1251.06 1586.46 1245.16 1591.27L1243.3 1592.75L1241.69 1592.3C1238.63 1583.17 1246.08 1573.98 1252.82 1568.66Z"/><path fill="#040403" transform="translate(-632 -1450)" d="M725.369 1572.14C737.415 1571.05 760.517 1581.83 756.849 1594.84C754.108 1597.73 753.701 1597.63 749.643 1598.56C747.973 1598.67 746.301 1598.75 744.628 1598.81C726.22 1599.43 701.778 1589.21 725.369 1572.14Z"/><path fill="#65B78E" transform="translate(-632 -1450)" d="M729.112 1578.51C734.848 1579.77 742.932 1583.3 746.123 1588.47L745.656 1590.29L743.25 1591.03C736.693 1591.12 727.955 1592.03 724.575 1585.48C725.688 1580.97 725.413 1582.31 729.112 1578.51Z"/><path fill="#65B78E" transform="translate(-632 -1450)" d="M1208.43 1789.36C1214.05 1792.37 1220.09 1800.62 1226.66 1804.89C1219.4 1809.01 1214.89 1811.99 1210.25 1819.26C1205.82 1819.55 1196.8 1808.47 1192.01 1805.59C1198.55 1800.69 1203.43 1795.75 1208.43 1789.36Z"/><path fill="#65B78E" transform="translate(-632 -1450)" d="M899.246 1556.73C903.243 1554.91 907.915 1555.41 911.433 1558.04C914.95 1560.67 916.753 1565.01 916.135 1569.36C915.517 1573.71 912.577 1577.38 908.466 1578.92C902.399 1581.21 895.614 1578.27 893.127 1572.28C890.64 1566.3 893.347 1559.42 899.246 1556.73Z"/><path fill="#65B78E" transform="translate(-632 -1450)" d="M853.502 1583.08C858.543 1582.27 863.338 1585.55 864.396 1590.55C865.454 1595.54 862.402 1600.49 857.463 1601.78C854.05 1602.68 850.422 1601.62 848.022 1599.04C845.622 1596.45 844.839 1592.76 845.985 1589.42C847.131 1586.08 850.02 1583.65 853.502 1583.08Z"/><path fill="#65B78E" transform="translate(-632 -1450)" d="M1293.2 1541.73C1304.47 1545.04 1305.11 1553.57 1296.01 1560.6C1285.49 1556.51 1284.1 1548.4 1293.2 1541.73Z"/><path fill="#65B78E" transform="translate(-632 -1450)" d="M784.644 1729.42C786.499 1729.86 787.893 1730.08 789.476 1731.25C791.319 1732.64 792.435 1734.79 792.515 1737.1C792.674 1741.31 790.5 1744.37 787.965 1747.38C779.232 1744.83 779.815 1735.49 784.644 1729.42Z"/><path fill="#65B78E" transform="translate(-632 -1450)" d="M799.232 1712.15C804.862 1711.76 808.394 1710.8 812.394 1715.32C812.644 1719.54 812.724 1718.05 810.411 1722.23C804.931 1723.71 801.46 1723.64 797.915 1719.06C797.317 1715.6 797.792 1715.35 799.232 1712.15Z"/><path fill="#65B78E" transform="translate(-632 -1450)" d="M764.039 1711.22C766.032 1709.9 768.586 1709.79 770.688 1710.92C772.79 1712.05 774.101 1714.25 774.1 1716.64C774.098 1719.02 772.786 1721.22 770.682 1722.35C767.626 1723.99 763.818 1722.94 762.04 1719.96C760.262 1716.98 761.143 1713.13 764.039 1711.22Z"/><path fill="#65B78E" transform="translate(-632 -1450)" d="M783.745 1688.47L787.501 1689.92C792.222 1695.11 790.577 1700.52 787.475 1706.1C779.171 1702.2 779.565 1695.34 783.745 1688.47Z"/><path fill="#FEF3DD" fill-opacity="0.0078431377" transform="translate(-632 -1450)" d="M1128.77 1623.94C1133.42 1627.51 1135.59 1632.48 1131.78 1637.72C1130.51 1638.24 1129.37 1638.79 1128.05 1639.12C1129.59 1632.61 1129.32 1630.44 1128.77 1623.94Z"/></g></svg>