<?xml version="1.0" encoding="utf-8" ?><svg xmlns="http://www.w3.org/2000/svg" xmlns:xlink="http://www.w3.org/1999/xlink" width="669" height="737" viewBox="0 0 669 737"><clipPath id="concepts-markets-app-cl_41"><rect width="669" height="737"/></clipPath><g clip-path="url(#concepts-markets-app-cl_41)"><path fill="#090A12" transform="translate(-692 -1311)" d="M420.599 1380.24C448.486 1378.48 491.971 1400.94 519.522 1409.83C540.616 1416.63 608.96 1432.99 613.561 1457.35C620.822 1495.78 617.424 1544.35 615.712 1583.66C654.366 1606.65 697.609 1651.68 673.983 1701.46C662.586 1725.47 639.376 1734.34 615.5 1742.2C602.808 1779.95 570.509 1774.46 548.098 1748.42C536.215 1761.88 526.912 1769.6 512.959 1780.29C515.088 1800.86 513.446 1824.91 511.981 1845.4C530.099 1853.91 558.211 1875.18 525.951 1891.65C507.791 1898.7 477.972 1896.41 460.315 1890.66C434.615 1882.29 447.692 1834.81 441.343 1820.46C438.276 1819.6 436.589 1820.69 432.969 1821.59C423.116 1822.69 419.407 1822.4 410.065 1820.2C410.189 1840.12 413.819 1880.96 392.87 1889.65C376.519 1896.6 347 1899.42 330.087 1892.43C295.908 1878.3 318.068 1855.81 339.959 1846.45C338.594 1824.18 338.031 1801.86 338.27 1779.55C329.434 1773.57 311.012 1757.85 303.778 1750.28C287.991 1767.44 261.04 1780.4 242.93 1756.21C240.355 1752.77 238.422 1745.91 237.003 1741.64C194.876 1731.45 161.936 1704.46 173.189 1656.59C180.681 1624.72 209.59 1600.73 236.5 1584.41C233.12 1549.26 227.782 1480.2 243.464 1449C252.958 1430.1 321.418 1413.68 343.908 1405.83C366.213 1398.05 398.111 1385.61 420.599 1380.24Z"/><path fill="#090A12" transform="translate(-692 -1311)" d="M1004.41 1378.55C1047.69 1376.96 1100.19 1378.44 1143.58 1382.73C1178.05 1386.13 1177.35 1428.55 1177.33 1455.54C1188.63 1455.74 1196.24 1455.85 1207.04 1460.03C1222.57 1465.9 1235.07 1477.78 1241.71 1492.99C1251.25 1515.01 1246.76 1542.43 1230.29 1560.02C1221.6 1569.31 1213.14 1572.88 1201.69 1577.74C1264.48 1605.7 1294.83 1671.47 1225.83 1713.22C1234.29 1745.98 1203.25 1755.62 1177.13 1746.95C1175.15 1797.39 1174.38 1813.16 1117.93 1815.99L1118.51 1845.45C1119.35 1845.84 1120.19 1846.24 1121.02 1846.65C1160.26 1865.93 1151.33 1893.8 1110.4 1895.92C1094.68 1896.73 1077.43 1895.91 1063.18 1888.45C1054.41 1883.86 1052.82 1878.26 1050.5 1869.52C1049.15 1852.32 1048.06 1835.1 1047.24 1817.86C1035.84 1818.13 1024.44 1818.19 1013.04 1818.03C1012.79 1835.32 1012.78 1851.99 1010.37 1869.31C1007.14 1892.97 986.056 1894.02 966.425 1896.23C950.341 1898.04 910.309 1893.11 916.841 1868.34C919.343 1858.85 933.055 1851.03 941.742 1846.74C942.049 1836.55 942.155 1826.36 942.06 1816.16C888.303 1814.95 885.885 1795.36 883.668 1747.76C856.684 1756.28 831.057 1746.6 835.592 1714.71C806.738 1694.06 785.558 1667.14 801.248 1629.96C816.327 1594.23 848.514 1582.41 881.997 1568.91C881.112 1536.42 881.697 1502.06 883.182 1469.99C884.657 1450.63 880.609 1408.5 896.397 1394.35C917.616 1375.33 977.274 1379.21 1004.41 1378.55ZM1189.87 1654.41C1197.76 1645.17 1189.43 1636.97 1180.47 1635.24C1180.15 1641.13 1178.71 1652.17 1180.68 1656.98C1184.48 1659.48 1186.39 1656.95 1189.87 1654.41ZM875.446 1656.24L878.606 1657.68C883.199 1654.93 880.7 1642.48 880.043 1637.6C878.509 1635.72 879.485 1636.21 877.366 1635.62C872.369 1639.24 868.939 1641.1 867.639 1647.06C868.411 1652.69 870.915 1653.47 875.446 1656.24Z"/><path fill="#77BBF5" transform="translate(-692 -1311)" d="M940.656 1416.38C946.32 1415.9 956.415 1416.05 962.421 1415.94C969.418 1432.54 974.239 1435.25 992.533 1436.14C1022.53 1437.6 1054.72 1439.21 1084.29 1433.75C1091.19 1432.47 1096.37 1421.62 1099.07 1415.96C1145.73 1416.46 1141.28 1420.68 1141.45 1464.43C1101.56 1496.75 1101.77 1541.42 1143.08 1572.23C1143.26 1615.91 1142.91 1659.58 1142.03 1703.25C1141.75 1737.3 1126.06 1730.85 1097.14 1731.79C1060.66 1733.03 1024.14 1733.22 987.642 1732.37C973.551 1732.11 935.208 1733.05 924.276 1726.94C918.114 1716.79 918.995 1680.68 918.972 1667.64L918.934 1605.69L918.906 1507.24C918.949 1483.25 919.051 1459.41 920.395 1435.44C921.35 1418.42 924.964 1418.06 940.656 1416.38Z"/><path fill="#090A12" transform="translate(-692 -1311)" d="M1069.5 1596.41C1078.33 1595.96 1092.85 1594.07 1100.15 1598.73C1106.84 1608.67 1104.48 1683.39 1104 1698.74C1105.61 1698.76 1107.22 1698.8 1108.83 1698.87C1112.89 1699.05 1115.67 1699.1 1118.57 1702.24L1118.03 1704.09C1109.17 1710.26 951.602 1709.69 941.092 1704.84L940.489 1703.15C944.119 1698.64 947.63 1699.24 953.152 1698.86C952.974 1685.82 953.068 1676.79 954.251 1663.83C960.232 1658.62 968.625 1659.26 976.038 1658.91C999.903 1657.79 994.409 1682.15 993.814 1699.16L1007.98 1699.07C1007.74 1690.49 1003.7 1639.63 1014.72 1634.19C1019.02 1632.07 1039.16 1632.91 1044.58 1635.25C1051.94 1643.11 1049.19 1685.82 1048.9 1699L1063.93 1699C1063.81 1669.73 1062.41 1636.85 1064.28 1607.55C1064.55 1603.44 1066.82 1599.53 1069.5 1596.41Z"/><path fill="#F8B34A" transform="translate(-692 -1311)" d="M1072.03 1605.11L1095.34 1605C1096.09 1623.65 1097.39 1682.18 1094.86 1698.93L1071.93 1698.93C1072.23 1666.89 1070.06 1637.44 1072.03 1605.11Z"/><path fill="#F8B34A" transform="translate(-692 -1311)" d="M1016.23 1641.89L1040.25 1641.7L1040.58 1699L1016.14 1699L1016.23 1641.89Z"/><path fill="#F8B34A" transform="translate(-692 -1311)" d="M965.235 1667.49L985.903 1667.49C986.09 1674.63 988.015 1694.8 982.96 1699.05L961.944 1699C961.608 1691.41 959.146 1671.69 965.235 1667.49Z"/><path fill="#090A12" transform="translate(-692 -1311)" d="M1080.52 1539.62L1081.16 1539.54C1083.34 1539.23 1088.1 1538.35 1090.12 1539.11C1102.11 1543.66 1097.27 1573.71 1087.97 1577.47L1086.27 1576.02C1083.97 1569.1 1085.17 1563.54 1086.12 1556.43C1073.75 1570.27 1043.31 1604.63 1028.47 1613.45C1019.02 1607.38 1012.89 1599.99 1005.39 1591.81L967.129 1630.37C963.635 1633.9 962.14 1635.96 957.037 1634.27L956.625 1632.03C961.517 1618.75 994.136 1588.87 1006.33 1580.03C1014.32 1585.52 1022.2 1594.6 1028.7 1601.88C1044.84 1584.61 1061.21 1567.54 1077.8 1550.69C1074.92 1551.11 1072.02 1551.44 1069.12 1551.68C1065.21 1552 1062.51 1552.01 1059.4 1549.38C1058.74 1541.35 1074.92 1540.26 1080.52 1539.62Z"/><path fill="#090A12" transform="translate(-692 -1311)" d="M1047.66 1500.97C1048.07 1500.96 1050.25 1501.4 1050.73 1501.49C1051.65 1503.26 1052.42 1504.97 1051.19 1506.89C1041.36 1522.27 1024.44 1518.9 1012.17 1513.54C1009.29 1511.25 1005.93 1508.81 1006.27 1504.9C1012.21 1501.99 1024.57 1508.19 1031.11 1508.18C1035.29 1508.18 1043.79 1503.15 1047.66 1500.97Z"/><path fill="#090A12" transform="translate(-692 -1311)" d="M1071.47 1480.47C1076.59 1479.7 1081.42 1483.05 1082.48 1488.11C1083.55 1493.18 1080.48 1498.19 1075.48 1499.54C1071.99 1500.49 1068.26 1499.42 1065.79 1496.77C1063.33 1494.12 1062.53 1490.33 1063.72 1486.91C1064.91 1483.49 1067.89 1481.02 1071.47 1480.47Z"/><path fill="#090A12" transform="translate(-692 -1311)" d="M978.833 1485.5C982.038 1483.95 985.836 1484.27 988.726 1486.36C991.616 1488.44 993.132 1491.93 992.676 1495.47C992.22 1499 989.864 1501.99 986.54 1503.27C981.69 1505.14 976.233 1502.85 974.166 1498.08C972.099 1493.31 974.157 1487.76 978.833 1485.5Z"/><path fill="#77BBF5" transform="translate(-692 -1311)" d="M982.804 1390.44C1027.92 1388.09 1075.5 1390.53 1120.67 1392.27C1129.67 1392.62 1149.89 1394.02 1155.98 1400.48C1167.32 1412.52 1165.66 1440.85 1166.06 1456.28C1161.68 1457.08 1156.43 1458.51 1152.03 1459.59C1151.69 1448.39 1152.28 1435.69 1149.03 1424.91C1147 1418.19 1142.93 1412.61 1136.58 1409.43C1127.68 1404.98 1101.61 1402.96 1093.34 1409.32C1087.5 1413.82 1086.43 1423.07 1078.37 1425.14C1068.76 1427.61 987.235 1427.53 980.999 1424.38C974.051 1420.88 972.928 1410.41 964.941 1407.12C953.896 1402.57 932.289 1406.63 921.792 1411.65C916.935 1413.97 914.117 1417.08 912.385 1422.19C906.196 1440.47 907.93 1542.17 907.935 1567.5C907.946 1614.21 905.765 1662.09 909.946 1708.65C910.741 1717.5 911.926 1725.45 915.682 1733.61C921.106 1736.82 927.126 1739.32 933.476 1740.02C965.232 1742.86 1001.29 1744 1033.06 1743.2C1060.61 1742.51 1125.58 1747.43 1146.84 1732.54C1156.19 1707.98 1153.95 1607.55 1153.7 1576.51L1168.36 1580.52C1168.86 1624.08 1168.49 1667.64 1167.25 1711.18C1166.63 1733.34 1166.22 1755.21 1163.81 1777.27C1161.53 1798.03 1148.42 1802.82 1129.33 1803.9C1067.56 1807.39 1005.26 1808.15 943.466 1805.72C908.621 1804.36 897.111 1799.68 896.176 1763.01C894.847 1739.4 894.385 1716.05 893.902 1692.42C892.854 1648.53 892.509 1604.63 892.868 1560.73C892.759 1530.43 893.249 1500.13 894.338 1469.85C894.826 1455.12 894.958 1440.76 896.498 1425.99C898.379 1406.63 904.881 1396.34 925.565 1393.38C944.353 1390.7 963.837 1391.18 982.804 1390.44Z"/><path fill="#090A12" transform="translate(-692 -1311)" d="M1025.75 1751.51C1038.13 1748.84 1050.33 1756.7 1053.02 1769.08C1055.71 1781.45 1047.87 1793.67 1035.5 1796.38C1023.1 1799.1 1010.84 1791.23 1008.15 1778.83C1005.45 1766.42 1013.34 1754.18 1025.75 1751.51Z"/><path fill="#77BBF5" transform="translate(-692 -1311)" d="M1027.29 1762.48C1033.56 1760.68 1040.13 1764.15 1042.16 1770.35C1044.19 1776.54 1040.95 1783.24 1034.83 1785.49C1030.67 1787.02 1026.01 1786.15 1022.67 1783.24C1019.34 1780.32 1017.86 1775.82 1018.82 1771.49C1019.79 1767.17 1023.03 1763.71 1027.29 1762.48Z"/><path fill="#090A12" transform="translate(-692 -1311)" d="M1007.4 1404.37C1017.49 1404.06 1054.97 1400.68 1058.71 1410.57C1057.05 1414.08 1058.22 1412.48 1054.22 1414.85C1045.24 1415.07 1003.68 1417.66 1001.42 1408.33C1003.45 1405.79 1004.45 1405.63 1007.4 1404.37Z"/><path fill="#F8B34A" transform="translate(-692 -1311)" d="M1185.08 1466.51C1213.04 1464.96 1237.02 1486.26 1238.78 1514.2C1240.54 1542.15 1219.44 1566.29 1191.5 1568.27C1163.26 1570.27 1138.8 1548.88 1137.01 1520.63C1135.23 1492.37 1156.81 1468.07 1185.08 1466.51Z"/><path fill="#090A12" transform="translate(-692 -1311)" d="M1180.61 1476.07C1185.43 1475.96 1187.27 1475.74 1191.65 1477.43L1191.84 1478.5C1178.2 1487.92 1158.16 1482.07 1153.91 1510.67C1152.36 1521.17 1155.14 1531.85 1161.62 1540.25C1169.64 1550.58 1177.72 1552.81 1189.67 1554.52C1190.52 1555.24 1190.02 1554.71 1190.72 1556.46L1189.03 1557.92C1172.84 1561.25 1156.19 1547.32 1150.09 1532.89C1145.9 1523.04 1145.93 1511.91 1150.17 1502.08C1156.31 1487.78 1166.88 1481.25 1180.61 1476.07Z"/><path fill="#090A12" transform="translate(-692 -1311)" d="M1210.4 1486.6C1222.93 1489.55 1225.52 1500.77 1225.72 1512.16C1221.12 1511.24 1212.91 1491.71 1210.4 1486.6Z"/><path fill="#090A12" transform="translate(-692 -1311)" d="M1219.87 1532.59C1222.65 1534.65 1221.7 1533.31 1222.51 1536.93C1220.66 1545.04 1212.39 1550.67 1205.76 1555.03C1204.32 1554.11 1204.94 1554.8 1204.36 1552.63C1206.83 1548.03 1215.92 1537.72 1219.87 1532.59Z"/><path fill="#77BBF5" transform="translate(-692 -1311)" d="M1180.06 1580.51C1234.81 1599.59 1291.37 1653.02 1223.06 1703.22C1218.12 1706.85 1199 1713.91 1202.75 1720.57C1206.37 1722.44 1207.51 1722.03 1211.78 1721.84C1212.77 1721.16 1213.13 1721.3 1214.47 1721.05L1215.6 1722.3C1217.79 1741.94 1191.92 1742.63 1178.08 1734.32C1177.83 1714.8 1179.08 1693.69 1179.98 1674.08C1213.14 1655.63 1216.27 1639.93 1180.05 1622.2L1180.06 1580.51Z"/><path fill="#77BBF5" transform="translate(-692 -1311)" d="M877.589 1582.89C878.865 1582.74 878.014 1582.74 880.058 1583.54C882.196 1589.29 881.095 1615.12 880.959 1622.54C843.557 1643.26 850.223 1653.68 881.936 1674.72C882.282 1693.48 884.405 1713.13 882.497 1731.78C881.401 1742.5 862.148 1739.83 855.049 1738.19C848.517 1732 844.517 1729.45 846.059 1720.21C850.887 1721.71 854.985 1723.81 859.492 1720.75C860.548 1713.79 848.955 1708.51 843.612 1705.51C817.51 1690.87 798.612 1664.78 812.06 1634C824.404 1605.73 850.661 1593.67 877.589 1582.89Z"/><path fill="#77BBF5" transform="translate(-692 -1311)" d="M1076.21 1817.56C1085.21 1816.94 1096.55 1817.02 1105.73 1816.83C1105.84 1829.25 1106.82 1841.66 1108.67 1853.95C1117.07 1858.05 1137.3 1866.02 1134.17 1877.12C1129.43 1882.48 1124.23 1882.57 1117.15 1883.98C1114.26 1884.24 1111.38 1884.45 1108.49 1884.61C1051.53 1887.58 1059.59 1864.35 1058.73 1818.05L1076.21 1817.56Z"/><path fill="#77BBF5" transform="translate(-692 -1311)" d="M953.221 1817.78L1002.2 1818.54C1002.05 1837.06 1002.36 1861.71 995.649 1878.62C988.149 1881.76 980.849 1882.66 972.896 1883.89C962.357 1884.58 928.898 1887.41 927.54 1872.65C931.107 1863.59 942.974 1859.13 951.533 1854.89C954.327 1841.93 953.602 1830.91 953.221 1817.78Z"/><path fill="#F8B34A" transform="translate(-692 -1311)" d="M1143.63 1473.91C1143.83 1476.62 1134.75 1489.95 1132.15 1496.71C1130.06 1502.2 1128.85 1507.99 1128.56 1513.85C1127.35 1536.05 1133.74 1546.93 1147.76 1562.82L1147.15 1563.71L1144.37 1562.56C1140.65 1559.52 1136.88 1556.17 1133.77 1552.51C1124.36 1541.64 1119.77 1527.43 1121.04 1513.11C1122.64 1495.91 1131.23 1484.59 1143.63 1473.91Z"/><path fill="#FDF1DF" fill-opacity="0.0078431377" transform="translate(-692 -1311)" d="M1180.47 1635.24C1189.43 1636.97 1197.76 1645.17 1189.87 1654.41C1186.39 1656.95 1184.48 1659.48 1180.68 1656.98C1178.71 1652.17 1180.15 1641.13 1180.47 1635.24Z"/><path fill="#090A12" transform="translate(-692 -1311)" d="M820.222 1360.89C829.981 1362.62 851.139 1376.15 856.793 1385.13C858.206 1387.38 856.939 1389.96 856.212 1392.13C845.481 1390.25 825.253 1377.64 819.431 1367.81C818.023 1365.43 819.369 1363.07 820.222 1360.89Z"/><path fill="#090A12" transform="translate(-692 -1311)" d="M808.861 1410.6C817.074 1410.52 841.82 1411.71 846.515 1418.61C846.487 1422.54 846.946 1420.63 844.357 1424.31C835.232 1425.49 814.081 1424.92 808.108 1417.39C807.268 1413.49 807.45 1414.84 808.861 1410.6Z"/><path fill="#090A12" transform="translate(-692 -1311)" d="M863.301 1332.48C873.645 1336.21 883.88 1360.54 880.914 1370.73C868.447 1370.12 858.85 1342.64 863.301 1332.48Z"/></g></svg>