<?xml version="1.0" encoding="utf-8" ?><svg xmlns="http://www.w3.org/2000/svg" xmlns:xlink="http://www.w3.org/1999/xlink" width="992" height="467" viewBox="0 0 992 467"><clipPath id="concepts-risk-vs-reward-cl_4b"><rect width="992" height="467"/></clipPath><g clip-path="url(#concepts-risk-vs-reward-cl_4b)"><path fill="#040403" transform="translate(-1056 -617)" d="M1751.05 855.048C1730.16 838.481 1715.9 828.697 1697.77 805.614C1670.86 771.365 1668.34 709.858 1721.33 699.492C1739.7 695.898 1756.61 710.065 1769.87 722.599C1790.91 700.384 1820.44 689.586 1845.1 714.212C1855.53 724.629 1861.34 738.794 1861.23 753.532C1860.74 793.065 1826.96 823.544 1797.42 844.838L1799.14 844.724C1821.99 843.106 1881.1 826.618 1897.73 840.335C1902.16 843.996 1905.26 850.664 1905.74 856.339C1906.24 862.411 1904.15 868.411 1899.98 872.856C1887.25 886.579 1814.65 894.784 1792.87 898.104L1639.1 920.918C1620.43 923.684 1597.23 926.189 1579.17 929.447L1587.37 981.48C1590.17 999.804 1598.74 1028.17 1587.91 1044.94C1582.23 1053.72 1567.59 1059.33 1557.21 1060.05C1433.56 1068.59 1440.39 1055.36 1458.33 948.23C1425.26 954.44 1392.09 959.34 1358.91 964.685C1293.2 975.316 1227.24 987.177 1161.09 994.373C1145.87 996.028 1134.88 988.779 1132.26 973.454C1129.23 955.66 1146.08 948.73 1159.95 945.141C1169.35 942.728 1183.15 940.785 1193.13 939.115C1174.22 931.209 1164.91 925.346 1150.62 910.418C1128.94 884.35 1117.24 856.239 1120.5 821.646C1123.43 791.259 1138.37 763.3 1162.02 743.99C1188.28 722.361 1228.8 712.142 1262.34 715.742C1291.21 718.997 1317.58 733.67 1335.56 756.488C1369.36 798.553 1369.4 863.582 1332.49 903.427C1326.63 909.751 1320.85 915.327 1314.5 921.167L1469.66 896.861C1485.8 867.667 1508.81 851.436 1543.47 866.721C1551.08 870.079 1557.39 877.211 1562.42 883.79C1589.24 878.88 1616.18 875.36 1643.12 871.322L1751.05 855.048Z"/><path fill="#FAB84F" transform="translate(-1056 -617)" d="M1239.26 726.539C1295.16 720.097 1345.64 760.35 1351.81 816.287C1357.98 872.223 1317.48 922.508 1261.51 928.4C1205.93 934.251 1156.07 894.092 1149.95 838.543C1143.82 782.993 1183.74 732.936 1239.26 726.539Z"/><path fill="#E28E2F" transform="translate(-1056 -617)" d="M1244.02 744.345C1294.85 738.955 1337.12 786.199 1331.44 835.716C1330.3 845.718 1329.14 862.536 1317.9 866.585C1315.3 865.068 1315.85 860.271 1316.59 857.765C1322.96 836.166 1324.8 816.771 1314.75 795.044C1306.75 777.896 1292.2 764.677 1274.37 758.352C1256.61 751.919 1237.01 752.975 1220.05 761.277C1197.78 772.064 1188.6 787.325 1180.69 809.634C1177.19 836.293 1181.25 859.725 1201.13 879.431C1211.82 890.033 1227.73 897.338 1242.48 899.935C1249.63 901.194 1267.38 895.528 1273.74 901.719L1272.94 903.466C1269.88 905.639 1262.69 909.293 1258.96 909.546C1215.22 912.51 1177.05 884.26 1170.16 840.866C1166.5 818.23 1172.11 795.073 1185.71 776.617C1200.69 756.551 1219.88 747.809 1244.02 744.345Z"/><path fill="#040403" transform="translate(-1056 -617)" d="M1266.43 828.156C1270.72 829.111 1270.49 829.017 1272.59 832.419C1273.15 840.551 1267.25 845.662 1260.07 848.518C1252.43 851.56 1247.31 849.335 1240.29 845.954C1237.07 842.733 1234.46 839.418 1236.56 834.845C1246.27 833.793 1256.94 853.975 1266.43 828.156Z"/><path fill="#040403" transform="translate(-1056 -617)" d="M1209.95 819.518C1214.59 818.727 1219.03 821.758 1219.99 826.374C1220.94 830.989 1218.07 835.531 1213.49 836.646C1210.38 837.403 1207.1 836.403 1204.95 834.039C1202.79 831.674 1202.1 828.321 1203.14 825.296C1204.18 822.271 1206.79 820.055 1209.95 819.518Z"/><path fill="#040403" transform="translate(-1056 -617)" d="M1286 805.501C1290.33 803.833 1295.2 805.925 1296.97 810.213C1298.75 814.502 1296.78 819.422 1292.53 821.3C1289.69 822.556 1286.4 822.175 1283.92 820.303C1281.44 818.431 1280.17 815.364 1280.6 812.289C1281.04 809.215 1283.1 806.616 1286 805.501Z"/><path fill="#FAB84F" transform="translate(-1056 -617)" d="M1512.75 871.099C1524.85 870.306 1536.8 872.291 1546.41 880.235C1568.19 898.251 1580.1 984.237 1582.35 1013.33C1583.03 1022.16 1583.92 1036.04 1577.48 1042.94C1566.8 1054.38 1542.5 1052.03 1528.19 1052.01C1510.73 1052.65 1487.58 1055.25 1471.16 1048.1C1465.82 1045.77 1462.34 1042.75 1460.47 1037.17C1452.55 1013.55 1471.42 915.638 1483.3 892.667C1489.47 880.728 1500.45 874.884 1512.75 871.099Z"/><path fill="#040403" transform="translate(-1056 -617)" d="M1514.11 895.495C1527.35 892.249 1540.71 900.402 1543.87 913.664C1547.04 926.926 1538.8 940.229 1525.52 943.312C1512.35 946.369 1499.19 938.221 1496.05 925.074C1492.92 911.927 1500.98 898.713 1514.11 895.495Z"/><path fill="#FAB84F" transform="translate(-1056 -617)" d="M1516.29 905.465C1523.9 903.386 1531.77 907.768 1534.01 915.328C1536.25 922.887 1532.04 930.852 1524.53 933.254C1519.53 934.855 1514.05 933.623 1510.21 930.036C1506.38 926.448 1504.78 921.066 1506.04 915.967C1507.3 910.868 1511.22 906.85 1516.29 905.465Z"/><path fill="#FC7E5E" transform="translate(-1056 -617)" d="M1718.79 709.087C1733.96 708.46 1747.19 711.483 1756.48 724.318C1757.54 725.788 1766.81 738.687 1768.81 737.172C1781.17 727.811 1793.01 710.391 1810.14 709.536C1832.46 708.422 1851.45 729.105 1851 750.935C1850.89 779.279 1834.87 799.223 1816.31 818.391C1800.89 833.295 1786.24 842.719 1767.05 851.799C1736.94 835.923 1708.74 812.335 1694.7 780.887C1680.8 749.76 1685.72 723.093 1718.79 709.087Z"/><path fill="#FBC19A" transform="translate(-1056 -617)" d="M1719.63 720.925L1721.34 720.929C1725.23 720.976 1726.65 721.244 1729.04 723.779C1727.92 730.661 1719.22 734.458 1715.14 739.923C1713.44 742.198 1711.08 746.954 1709.72 749.585C1705.81 750.682 1705.97 750.6 1701.88 750.203C1696.11 739.946 1711.79 725.925 1719.63 720.925Z"/><path fill="#040403" transform="translate(-1056 -617)" d="M1722.43 771.393C1728.87 771.586 1730.73 775.372 1735.65 775.436C1736.81 775.451 1740.78 772.293 1745.44 772.863C1747.53 775.46 1746.83 775.201 1747.06 779.337C1735.62 786.903 1725.12 787.443 1722.43 771.393Z"/><path fill="#040403" transform="translate(-1056 -617)" d="M1808.28 772.104C1810 772.526 1812.71 774.146 1813.29 775.872C1811.95 784.524 1799.46 784.425 1793.09 783.77C1790.85 781.275 1789.66 780.456 1789.1 777.154C1792.29 772.428 1799.23 777.996 1808.28 772.104Z"/><path fill="#040403" transform="translate(-1056 -617)" d="M1755.1 787.717C1760.72 788.005 1762.12 789.01 1767.17 791.319C1770.91 790.022 1775.05 787.842 1778.66 788.798C1780.54 791.829 1779.95 790.88 1779.6 795.222C1778.98 795.481 1778.36 795.727 1777.74 795.959C1766.94 800.083 1757.64 801.754 1755.1 787.717Z"/><path fill="#FAB84F" transform="translate(-1056 -617)" d="M1878.62 844.459C1886.25 843.452 1895.53 848.573 1896.46 856.307C1898.93 876.743 1852.11 879.286 1838.55 881.273L1782.19 889.623L1589.29 918.321L1576.81 920.332C1574.06 910.402 1571.81 902.574 1568.24 892.814C1630.14 883.715 1691.96 874.148 1753.71 864.114C1794.46 857.254 1837.56 848.123 1878.62 844.459Z"/><path fill="#FAB84F" transform="translate(-1056 -617)" d="M1461.09 909.398C1463.15 908.974 1462.06 908.905 1464.33 909.988C1466.11 915.69 1461.53 930.97 1459.93 937.467C1438.76 941.8 1417.82 944.814 1396.52 948.369L1292.89 965.48C1267.98 969.45 1170.2 987.582 1149.47 983.247C1137.22 971.382 1140.45 959.598 1157.33 956.23C1170.02 953.698 1182.46 952.023 1195.24 950.14L1259.12 940.515C1326.36 929.597 1393.68 919.224 1461.09 909.398Z"/><path fill="#FAB84F" transform="translate(-1056 -617)" d="M1165.38 754.014C1165.72 757.124 1154.72 771.355 1152.68 775.833C1128.09 829.718 1144.25 890.944 1194.41 923.398C1200.75 927.495 1208.23 931.236 1215.12 934.891L1206.78 933.142C1184.79 926.412 1167.17 916.011 1152.56 897.908C1135.16 876.268 1127.04 848.613 1129.99 821.002C1132.68 796.239 1145.71 769.647 1165.38 754.014Z"/><path fill="#040403" transform="translate(-1056 -617)" d="M1598.13 783.548C1595.2 777.974 1589.68 769.7 1591.68 763.424C1600.34 759.831 1614.66 789.116 1611.36 795.488C1606.78 804.334 1584.47 808.946 1576.05 805.737L1575.33 803.926C1577.61 799.998 1581.93 798.399 1586.07 796.84L1590.75 795.313L1591.53 793.711C1589.49 791.276 1585.86 790.419 1582.74 789.292C1524.21 769.884 1483.17 781.6 1430.81 806.693C1440.13 808.924 1445.49 809.032 1452.22 815.408L1452.88 817.721C1447.12 825.207 1425.44 817.907 1418.95 813.625C1409.85 807.622 1420.21 780.669 1429.11 778.087C1432.75 782.636 1428.69 792.899 1426.99 797.993C1478.94 768.685 1525.61 763.252 1582.64 779.024C1587.82 780.471 1592.98 781.979 1598.13 783.548Z"/><path fill="#FC7E5E" transform="translate(-1056 -617)" d="M1828.38 635.922C1838.44 634.359 1843.84 639.462 1850.1 646.593C1871.46 626.444 1883.26 649.416 1864.56 672.065C1860.53 675.74 1848.87 684.916 1843.92 683.596C1827.06 679.09 1813.73 649.317 1828.38 635.922Z"/><path fill="#FC7E5E" transform="translate(-1056 -617)" d="M1886.11 742.517C1893.41 742.595 1896.88 747.602 1902.04 752.746L1904.56 752.229C1926.48 747.531 1925.06 766.454 1908.61 777.957C1888.99 788.621 1878.83 781.179 1877.96 757.414C1877.75 751.675 1881.66 746.183 1886.11 742.517Z"/><path fill="#FAB84F" transform="translate(-1056 -617)" d="M1348.76 666.33C1354.91 669.164 1355.04 677.412 1358.93 680.545C1364.26 684.838 1368.85 687.081 1374.46 691.866L1375.47 692.734C1373.09 693.815 1370.73 694.937 1368.39 696.101C1355.78 702.451 1357.06 709.216 1351.73 720.305L1351.34 721.096C1346.82 717.739 1346.61 712.149 1345.44 707.77C1343.52 700.604 1329.92 695.657 1323.1 692.223C1339.48 683.211 1340.34 683.52 1348.76 666.33Z"/><path fill="#FC7E5E" transform="translate(-1056 -617)" d="M1673.29 809.587C1690.59 808.935 1693.76 841.286 1667.96 839.889C1661.62 836.815 1656.18 834.944 1652.84 828.708C1653.11 817.472 1666.45 820.545 1673.29 809.587Z"/><path fill="#A29B8C" fill-opacity="0.011764706" transform="translate(-1056 -617)" d="M1150.62 910.418C1164.91 925.346 1174.22 931.209 1193.13 939.115C1183.15 940.785 1169.35 942.728 1159.95 945.141C1157.52 943.983 1156.39 943.787 1154.09 942.257L1154.03 940.467C1156.21 939.411 1161.74 940.662 1165.58 940.721L1166.64 939.382C1163.87 933.803 1167.69 938.685 1165.78 934.034C1161.68 933.317 1158.28 932.633 1156.1 928.548C1152.91 922.555 1149.12 917.168 1150.62 910.418Z"/><path fill="#FAB84F" transform="translate(-1056 -617)" d="M1374.96 733.827C1383 740.756 1379.87 740.939 1391.76 748.514C1382.69 754.381 1381.17 753.28 1376.84 763.354C1373.45 761.846 1371.47 754.499 1360.62 749.752C1369.25 743.864 1370.59 743.22 1374.96 733.827Z"/><path fill="#FAB84F" transform="translate(-1056 -617)" d="M1291.32 659.621C1292.65 660.767 1301.45 671.187 1302.18 672.547C1302.17 673.726 1292.45 690.015 1291.66 690.491C1289.54 687.015 1287.98 683.32 1286.28 679.613L1276.07 674.684C1285.54 669.625 1286.21 669.026 1291.32 659.621Z"/><path fill="#FEF3DD" fill-opacity="0.047058824" transform="translate(-1056 -617)" d="M1582.74 789.292C1585.86 790.419 1589.49 791.276 1591.53 793.711L1590.75 795.313L1586.07 796.84L1582.74 789.292Z"/></g></svg>