<?xml version="1.0" encoding="utf-8" ?><svg xmlns="http://www.w3.org/2000/svg" xmlns:xlink="http://www.w3.org/1999/xlink" width="521" height="563" viewBox="0 0 521 563"><clipPath id="sectors-clean-energy-cl_2d"><rect width="521" height="563"/></clipPath><g clip-path="url(#sectors-clean-energy-cl_2d)"><path fill="#040202" transform="translate(-585 -461)" d="M732.554 858.87C677.955 835.639 655.404 784.035 661.801 727.38C669.211 661.738 717.126 624.959 752.673 574.372C764.665 557.306 765.369 541.44 774.29 525.259C784.261 524.256 809.907 543.76 818.2 549.868C865.053 584.376 889.941 625.163 911.193 678.207C932.263 678.643 953.552 679.016 974.557 680.456C981.25 680.96 989.392 685.69 985.778 693.716C975.223 717.156 961.561 739.587 951.975 763.539C962.06 763.945 973.96 764.869 983.937 764.906C1025.33 765.06 1007.05 783.284 988.293 802.108L994.185 810.77C994.592 821.792 994.701 828.689 987.625 837.871C971.81 858.394 959.615 839.355 947.929 851.56C941.292 858.491 933.037 868.695 926.833 876.085L887.838 922.181C883.033 927.817 871.662 943.367 864.985 944.066C861.232 943.37 858.642 940.633 855.637 938.138C844.616 938.212 821.672 940.075 812.498 933.809C801.967 926.616 810.618 876.616 803.399 871.661C795.304 876.975 796.988 927.552 768.065 909.023C765.439 895.544 775.226 876.013 772.327 870.558C768.611 869.523 768.011 869.66 764.289 869.785L762.447 870.884C760.801 878.532 760.85 900.763 760.163 910.478C759.98 914.967 760.229 935.165 754.638 936.231C728.396 941.235 697.433 940.504 670.717 938.313C667.567 938.055 666.358 935.835 665.012 933.525C662.488 918.89 678.011 898.563 691.298 893.784C705.818 888.561 714.403 892.098 727.481 897.261C729.016 884.52 730.855 871.606 732.554 858.87Z"/><path fill="#59B797" transform="translate(-585 -461)" d="M777.714 532.21C838.442 564.228 879.073 614.397 902.932 678.049C896.708 677.902 889.395 676.78 883.782 680.011C873.634 685.85 837.949 785.738 832.232 804.547C825.749 803.558 818.158 801.686 811.661 800.245C812.807 792.11 815.594 776.292 812.221 768.933L810.769 769.035C806.51 775.968 805.686 789.162 804.754 797.596C782.397 788.492 773.055 779.603 757.849 761.884C757.085 760.994 755.831 762.016 755.011 762.395C751.943 771.497 766.118 783.194 772.749 788.278C789.79 801.344 810.841 809.368 832.075 812.023C837.033 812.643 843.251 814.088 847.603 811.631C854.294 808.428 860.839 798.046 867.446 797.115C873.523 800.739 866.877 807.17 870.553 808.794C895.481 819.804 911.542 830.912 879.76 849.676C873.326 853.475 856.292 843.345 848.055 839.262C816.37 836.668 783.081 826.977 758.733 805.617C753.96 801.43 739.999 783.786 735.672 784.817C734.14 805.905 782.375 830.758 799.004 836.968C795.601 856.067 793.625 876.406 788.298 895.157C786.781 900.498 784.322 903.594 778.918 904.924C774.926 903.692 776.249 904.883 774.392 901.74C773.637 893.538 777.414 886.474 780.153 878.902C786.929 861.225 767.07 862.581 755.327 859.83C675.752 840.79 649.827 758.427 679.943 687.646C704.76 629.322 763.707 595.884 777.714 532.21Z"/><path fill="#040202" transform="translate(-585 -461)" d="M796.246 585.278C797.185 585.445 799.627 585.902 800.092 586.574C809.254 599.817 814.404 648.097 813.717 661.892C810.894 661.204 811.077 661.289 808.793 659.489C807.143 655.039 796.311 590.386 796.246 585.278Z"/><path fill="#040202" transform="translate(-585 -461)" d="M792.712 721.254C800.589 722.573 805.879 728.832 813.728 728.178C819.022 727.737 825.769 721.285 830.603 725.327L830.77 729.218C817.061 736.978 797.542 740.575 792.712 721.254Z"/><path fill="#040202" transform="translate(-585 -461)" d="M789.178 694.593C792.483 695.788 791.094 694.817 793.295 697.863C793.948 703.844 790.002 707.015 784.876 708.837C777.988 711.286 773.108 708.771 766.925 705.717C765.121 701.723 764.8 701.4 764.706 697.141L766.479 696.641C771.776 699.488 776.659 702.401 782.807 701.708C786.438 699.923 786.949 698.228 789.178 694.593Z"/><path fill="#040202" transform="translate(-585 -461)" d="M853.163 691.593C854.968 692.117 854.772 692.187 856.422 693.198C859.361 700.296 853.684 704.465 847.518 706.604C841.495 708.692 836.724 706.167 831.442 703.382C830.158 700.293 829.19 698.849 829.643 695.546L831.251 694.957C836.359 697.436 840.918 699.801 846.626 698.913C850.412 696.889 850.813 695.439 853.163 691.593Z"/><path fill="#FBB148" transform="translate(-585 -461)" d="M886.867 685.055C918.188 685.423 949.504 686.161 980.807 687.269C971.236 706.528 948.719 749.089 943.575 768.39C959.643 772.485 986.335 773.205 1003.66 774.071L982.67 799.234C953.502 792.94 943.974 815.348 947.773 840.608C924.123 869.532 900.003 898.068 875.422 926.205C874.377 924.998 872.454 922.078 871.444 920.646C878.601 897.682 884.344 873.998 892.397 851.446C893.833 847.425 901.969 841.941 902.857 834.909C904.046 825.491 902.591 821.115 897.384 813.271C891.438 810.368 884.248 807.273 878.601 804.345C867.505 772.579 857.066 797.262 840.433 807.2C845.364 783.864 875.677 708.574 886.867 685.055Z"/><path fill="#040202" transform="translate(-585 -461)" d="M882.938 774.246C888.787 775.065 890.827 778.13 895.862 780.537C901.116 783.048 906.237 778.248 911.989 777.227C914.381 778.933 913.618 778.596 914.288 782.54C901.451 790.246 886.645 791.832 882.938 774.246Z"/><path fill="#040202" transform="translate(-585 -461)" d="M875.545 748.829C881.934 749.298 894.063 753.43 887.071 761.107C883.471 760.444 884.452 760.387 881.408 756.745L879.026 756.401C875.676 757.893 871.129 760.428 867.75 758.756C868.315 753.37 871.481 751.906 875.545 748.829Z"/><path fill="#040202" transform="translate(-585 -461)" d="M917.647 754.899C925.414 754.944 929.712 754.85 932.614 762.903C932.249 766.521 933.011 765.125 930.643 767.423C927.399 766.886 928.504 767.191 925.841 763.834L924.901 762.161C920.246 760.92 917.131 765.447 912.002 764.608L911.641 762.897C912.675 758.703 914.235 757.956 917.647 754.899Z"/><path fill="#59B797" transform="translate(-585 -461)" d="M739.327 862.42C744.612 864.594 749.846 866.088 755.3 867.767C752.861 888.092 752.784 911.231 752.256 931.874C728.435 932.87 704.592 933.268 680.75 933.068C676.109 933.183 674.748 933.978 672.006 930.145C670.794 923.822 673.82 919.55 677.454 914.585C694.567 891.206 708.279 898.694 731.855 905.563C735.94 893.338 737.533 875.612 739.327 862.42Z"/><path fill="#59B797" transform="translate(-585 -461)" d="M824.549 866.187C835.445 864.117 830.61 893.833 836.896 902.701C843.114 904.766 857.772 898.884 868.22 898.38L869.902 898.309C867.178 908.494 864.288 918.632 861.233 928.722C860.843 930.334 860.741 930.123 859.792 931.598C851.844 934.143 825.342 931.491 816.046 930.868C815.062 910.122 814.331 889.366 813.856 868.602L824.549 866.187Z"/><path fill="#FDF4E7" transform="translate(-585 -461)" d="M857.455 853.228C868.226 857.228 870.571 857.256 881.881 856.951C878.706 868.637 875.341 880.271 871.785 891.848C867.451 891.245 862.798 891.088 858.407 890.833C852.505 892.136 847.061 894.005 841.318 895.864C839.953 884.713 838.499 873.573 836.959 862.445C844.023 859.663 850.593 856.473 857.455 853.228Z"/><path fill="#59B797" transform="translate(-585 -461)" d="M967.822 804.826C996.186 804.988 990.434 827.55 973.263 841.132C942.795 847.17 954.184 818.053 967.822 804.826Z"/><path fill="#59B797" transform="translate(-585 -461)" d="M806.6 839.412C822.52 842.741 836.381 845.139 852.525 847.703C847.911 849.848 843.106 851.94 838.452 854.028C825.53 858.718 815.017 861.199 801.729 863.912C803.234 855.46 804.663 847.766 806.6 839.412Z"/><path fill="#FBB148" transform="translate(-585 -461)" d="M866.664 937.317L871.444 920.646C872.454 922.078 874.377 924.998 875.422 926.205L866.664 937.317Z"/><path fill="#040202" transform="translate(-585 -461)" d="M971.809 603.735C978.768 618.452 982.078 616.024 996.238 622.455C977.279 633.116 973.901 632.068 966.792 654.175C959.537 634.175 958.455 632.691 939.245 623.33C949.06 617.764 956.545 617.004 961.078 606.046C963.857 608.855 962.235 607.9 966.214 608.852C970.099 607.616 968.843 607.959 971.809 603.735Z"/><path fill="#FBB148" transform="translate(-585 -461)" d="M967.12 608.571C970.664 613.926 974.984 618.469 979.246 623.286C972.513 629.471 971.062 630.943 967.053 638.772C961.721 628.552 961.479 631.207 956.029 623.448C956.33 620.684 964.437 611.965 967.12 608.571Z"/><path fill="#040202" transform="translate(-585 -461)" d="M918.582 546.649C920.049 548.074 919.648 547.503 920.669 549.21C927.687 560.943 930.493 562.847 941.971 568.599C928.966 573.864 926.86 574.766 920.126 587.25C917.791 587.335 917.817 586.609 916.097 582.697C912.951 575.542 905.551 572.202 898.618 567.793C911.57 559.375 911.87 562.104 918.582 546.649Z"/><path fill="#F17A5D" transform="translate(-585 -461)" d="M918.681 559.516C920.978 561.019 924.935 565.895 926.974 568.194C924.546 570.551 922.174 573.457 919.944 576.055L919.756 576.222C917.194 575.597 914.252 570.948 912.157 568.389C914.113 565.484 916.565 562.356 918.681 559.516Z"/><path fill="#FDF4E7" fill-opacity="0.011764706" transform="translate(-585 -461)" d="M760.163 910.478C760.85 900.763 760.801 878.532 762.447 870.884L764.289 869.785C768.011 869.66 768.611 869.523 772.327 870.558C775.226 876.013 765.439 895.544 768.065 909.023L763.821 907.862C762.229 909.34 762.148 909.653 760.163 910.478Z"/><defs><linearGradient id="sectors-clean-energy-gradient_0" gradientUnits="userSpaceOnUse" x1="964.17163" y1="597.44556" x2="966.87018" y2="608.51904"><stop offset="0" stop-color="#040202" stop-opacity="0.96862745"/><stop offset="1" stop-color="#040202"/></linearGradient></defs><path fill="url(#sectors-clean-energy-gradient_0)" transform="translate(-585 -461)" d="M961.078 606.046C962.561 601.389 963.424 596.68 967.438 594.002L969.213 594.739C971.014 598.139 971.124 600 971.809 603.735C968.843 607.959 970.099 607.616 966.214 608.852C962.235 607.9 963.857 608.855 961.078 606.046Z"/></g></svg>