<?xml version="1.0" encoding="utf-8" ?><svg xmlns="http://www.w3.org/2000/svg" xmlns:xlink="http://www.w3.org/1999/xlink" width="615" height="817" viewBox="0 0 615 817"><clipPath id="cl_17"><rect width="615" height="817"/></clipPath><g clip-path="url(#cl_17)"><path fill="#19181C" transform="translate(-790 -629)" d="M1058.06 807.503C1164.76 795.859 1268.87 877.341 1285.16 982.511C1291.48 1023.28 1288.86 1046.6 1279.11 1085.95C1285.32 1093.46 1290.66 1101.65 1295.72 1109.98C1323.85 1156.33 1333.45 1208.49 1320.07 1261.48C1312.51 1291.42 1298.5 1276.99 1291.93 1280.91C1289.81 1282.18 1288.8 1285.05 1286.21 1286.33C1277.3 1290.75 1273.95 1283.87 1266.25 1282.45C1260.79 1281.45 1256.31 1285.64 1250.43 1283.24C1233.95 1276.49 1243.85 1258.65 1240.48 1251.06C1230.12 1251.22 1220.86 1246.6 1222.58 1234.12C1224.14 1222.75 1236.87 1213.74 1246.11 1207.67C1246.6 1199.46 1246.88 1161.44 1240.56 1157.14C1235.62 1160.25 1232.12 1165.69 1227.99 1169.9C1206.07 1192.18 1180.04 1206.61 1152.64 1220.83C1151.19 1244.06 1148.3 1268.63 1145.82 1291.85C1165.7 1288.66 1180.31 1287.67 1200.65 1297.97C1217.23 1306.37 1240.09 1336.91 1231.94 1357.03C1229.99 1361.83 1213.05 1365.02 1207.28 1365.71C1178.88 1369.08 1114.09 1373.36 1091.15 1356.53C1085.6 1349.44 1083.68 1341.01 1083.61 1332.18C1083.36 1299.59 1087.55 1266.63 1089.15 1234.09C1079.32 1234.4 1069.48 1234.58 1059.65 1234.61C1063.21 1266.74 1065.49 1303.2 1065.49 1335.64C1065.49 1341.58 1061.89 1353.91 1056.16 1357.11C1024.66 1374.41 982.834 1368.46 948.183 1366.82C892.855 1364.18 917.966 1321.84 944.318 1300.57C960.822 1287.24 982.028 1289.25 1002.38 1292.55C1001.71 1276.66 998.769 1242.84 995.952 1228.07C964.926 1248.21 937.249 1259.6 899.665 1254.46C891.346 1253.32 880.916 1252.5 875.558 1245.66C874.927 1242.76 874.59 1239.69 877.052 1237.5C902.325 1214.99 911.483 1204.26 922.011 1171.55C885.374 1132.07 863.803 1088.78 860.122 1034.49C856.405 976.363 876.349 919.205 915.419 876.009C950.225 836.777 1005.73 810.896 1058.06 807.503Z"/><path fill="#7ABBF8" transform="translate(-790 -629)" d="M1063.16 818.416C1086.05 817.202 1106.51 819.011 1128.69 824.97C1179.93 838.906 1223.6 872.513 1250.18 918.478C1277.51 965.967 1284.72 1022.41 1270.19 1075.24C1255.52 1127.82 1220.3 1172.27 1172.48 1198.57C1123.09 1225.96 1066.88 1229.21 1013.22 1213.9L1001.02 1209.79C965.017 1237.79 932.966 1252.7 886.963 1242.51C912.772 1221.29 927.205 1200.69 933.911 1167.55C927.164 1159.64 920.65 1153.71 913.619 1144.84C889.006 1114.11 874.15 1076.73 870.961 1037.49C866.649 983.889 883.701 930.754 918.4 889.67C956.615 845.095 1005.14 822.634 1063.16 818.416Z"/><path fill="#19181C" transform="translate(-790 -629)" d="M1104.31 1030.77C1108.68 1032.61 1110.65 1034.45 1109.54 1039.15C1105.77 1043.9 1100.96 1046.1 1095.24 1047.93C1075.87 1054.15 1061.1 1052.45 1043.25 1043.63C1039.53 1040.64 1035.71 1036.62 1040.71 1032.83C1049.62 1032.14 1055.4 1037.22 1063.39 1040.04C1077.8 1045.13 1092.53 1038.37 1104.31 1030.77Z"/><path fill="#19181C" transform="translate(-790 -629)" d="M1017.35 988.525C1024.19 986.419 1031.45 990.212 1033.62 997.028C1035.79 1003.84 1032.07 1011.14 1025.28 1013.38C1020.83 1014.85 1015.92 1013.82 1012.44 1010.67C1008.96 1007.52 1007.44 1002.75 1008.46 998.17C1009.47 993.589 1012.87 989.906 1017.35 988.525Z"/><path fill="#19181C" transform="translate(-790 -629)" d="M1122.47 988.667C1129.18 986.218 1136.61 989.652 1139.1 996.35C1141.58 1003.05 1138.19 1010.5 1131.5 1013.02C1124.77 1015.56 1117.25 1012.14 1114.74 1005.39C1112.24 998.635 1115.7 991.134 1122.47 988.667Z"/><path fill="#7ABBF8" transform="translate(-790 -629)" d="M1141.84 1224.23C1144.88 1236.41 1132.26 1285.49 1135.13 1301.02C1134.77 1306.79 1144.29 1304.57 1148.73 1303.47C1188.24 1293.73 1215.85 1311.06 1223.5 1350.79C1212.93 1354.2 1200.49 1356.19 1189.48 1357.83C1170.16 1359.04 1150.78 1358.84 1131.49 1357.24C1122.26 1356.47 1103.9 1355.64 1097.84 1347.57C1088.71 1335.4 1099.32 1250.97 1100.83 1233.31C1116.38 1231.25 1126.98 1228.48 1141.84 1224.23Z"/><path fill="#7ABBF8" transform="translate(-790 -629)" d="M1006.66 1224.29C1021.89 1228.45 1033.24 1231.28 1048.72 1233.45C1049.41 1251.15 1059.49 1335.75 1051.16 1348.29C1043.48 1359.86 979.024 1359.13 961.752 1357.93C951.093 1357.33 936.315 1354.06 926.182 1350.61C929.852 1320.42 951.705 1299.78 982.67 1300.88C990.8 1301.17 1006.24 1306.4 1012.98 1303.56C1015.38 1298.73 1007.72 1235.56 1006.66 1224.29Z"/><path fill="#7ABBF8" transform="translate(-790 -629)" d="M1274.28 1100.37C1291.84 1111.31 1312.17 1170.48 1313.76 1191.52C1314.82 1205.46 1319.06 1267.57 1300.61 1269.54C1298.93 1263.43 1305.52 1255.46 1301.6 1247.25C1298.56 1245.37 1300.19 1245.84 1296.51 1245.93C1289.46 1250.34 1290.35 1262.32 1286.83 1269.32C1284.95 1273.07 1279.67 1277.4 1275.46 1275.11C1275.06 1272.7 1280.84 1255.99 1281.99 1248.82C1280.07 1245.29 1279.5 1244.79 1276.32 1243.76C1266.69 1247.81 1267.19 1274.15 1255.49 1273.94C1240.92 1265.09 1262.37 1242.94 1255.83 1231.88C1250.03 1229.83 1242.73 1237.05 1235.62 1239.62L1233.68 1238.62C1230.96 1227.69 1251.79 1219.83 1254.91 1211.5C1262.3 1191.75 1255.84 1164.56 1249.16 1146.21C1259.74 1129.44 1265.78 1118.21 1274.28 1100.37Z"/><path fill="#FCB046" transform="translate(-790 -629)" d="M1226.11 715.313C1253.21 717.095 1271.44 719.627 1295.88 732.345C1331.93 751.105 1358.92 782.355 1371.02 821.282C1374.39 832.106 1382.5 863.982 1376.47 873.523C1374.78 876.189 1371.5 876.461 1368.51 877.033C1356.08 874.324 1357.7 863.827 1356.82 852.579C1352.28 794.359 1306.02 747.896 1249.18 738.22C1242.54 735.691 1225.54 737.089 1220.12 734.402C1210.71 729.738 1216.51 717.539 1226.11 715.313Z"/><path fill="#FCB046" transform="translate(-790 -629)" d="M1223.17 760.294C1273.83 756.473 1321.13 793.702 1330.73 843.301C1333.05 855.255 1338.72 867.723 1328.13 876.807C1324.83 876.416 1318.97 875.943 1317.13 872.972C1313.23 866.7 1313.63 855.229 1311.47 847.287C1307.44 832.437 1302.06 820.31 1291.73 808.899C1283.47 799.653 1273.17 792.468 1261.64 787.919C1253.91 784.897 1239.13 780.98 1230.8 780.991C1215.47 781.012 1208.93 767.166 1223.17 760.294Z"/><path fill="#FCB046" transform="translate(-790 -629)" d="M1222 804.252C1224.31 804.059 1226.63 803.925 1228.95 803.849C1262.15 802.932 1308.97 851.205 1284.22 876.939C1263.13 879.169 1272 848.623 1258.23 835.782C1243.78 822.31 1231.08 830.397 1216.85 820.221C1211.24 816.209 1218.09 807.476 1222 804.252Z"/><path fill="#7ABBF8" transform="translate(-790 -629)" d="M862.106 795.264C868.207 797.249 867.863 809.759 871.64 816.457C876.278 824.682 897.168 828.775 896.995 835.813C893.49 838.978 888.041 839.193 883.189 841.596C871.726 847.272 869.301 861.508 865.252 872.75C858.657 869.667 857.401 849.75 849.511 844.798C841.911 840.028 833.604 837.501 825.379 833.77L827.971 832.692C855.59 821.155 851.486 820.576 861.332 797.083L862.106 795.264Z"/><path fill="#7ABBF8" transform="translate(-790 -629)" d="M1343.1 970.464C1347.05 972.638 1347.18 975.673 1348.47 980.191C1351.01 989.098 1360.26 991.184 1367.78 994.972C1368.8 1000.25 1355.79 1002.53 1351.9 1006.61C1347.26 1011.49 1349.3 1016.7 1345.52 1023.84C1337.9 1019.38 1341.14 1011.34 1334.71 1004.54C1329.97 999.527 1321.83 1000.66 1318.89 996.578C1322.34 992.879 1335.18 990.642 1338.54 984.615C1340.88 980.424 1341.96 975.03 1343.1 970.464Z"/><path fill="#7ABBF8" transform="translate(-790 -629)" d="M920.212 747.258C926.786 749.759 925.115 758.68 929.02 763.948C932.29 768.359 942.178 769.007 944.888 773.018C939.779 776.307 934.774 777.56 929.137 781.44C925.834 787.868 924.981 790.353 923.044 797.189L920.164 796.711C914.748 791.649 917.94 780.883 908.039 777.344C904.921 776.229 898.924 773.028 895.726 771.525C914.303 766.296 914.681 766.314 920.212 747.258Z"/></g></svg>