<?xml version="1.0" encoding="utf-8" ?><svg xmlns="http://www.w3.org/2000/svg" xmlns:xlink="http://www.w3.org/1999/xlink" width="674" height="760" viewBox="0 0 674 760"><clipPath id="sectors-consumer-staples-cl_24"><rect width="674" height="760"/></clipPath><g clip-path="url(#sectors-consumer-staples-cl_24)"><path fill="#0E0E10" transform="translate(-187 -1288)" d="M646.218 1375.73C657.722 1374.6 688.702 1380.85 695.747 1391.23C701.855 1400.23 685.079 1413.31 683.473 1421.18C681.202 1432.31 694.443 1443.43 694.065 1455.08C694.966 1471.19 690.496 1484.22 686.86 1499.75C699.111 1499.69 715.045 1498.45 726.514 1503.71C742.578 1511.08 746.451 1533.43 737.925 1547.93C732.845 1556.57 725.903 1558.81 716.526 1561.13L711.779 1590.92C737.17 1607.29 755.67 1613.88 772.214 1644.14C781.694 1661.48 784.302 1681.73 778.37 1700.78C773.193 1717.38 761.56 1731.21 746.087 1739.15C725.296 1749.88 703.046 1746.79 681.669 1740.04L681.359 1740.36C659.015 1762.75 644.682 1761.56 615.089 1761.78C613.389 1773.37 610.717 1785.86 608.474 1797.44C620.987 1803.66 646.198 1818.39 631.623 1833.84C616.843 1849.51 554.49 1847.05 539.92 1832.93C529.487 1822.82 530.15 1778.9 530.219 1763.97C525.273 1763.78 523.781 1763.63 518.989 1764.42C513.246 1771.29 523.529 1825.29 506.096 1835.13C488.698 1844.55 456.516 1846.93 437.029 1842.81C392.715 1833.45 414.013 1811.01 438.766 1797.14C437.927 1791.12 436.062 1783.32 434.775 1777.23C433.655 1772.16 432.568 1767.09 431.515 1762.01C425.862 1762.15 420.206 1762.21 414.55 1762.19C389.046 1761.98 378.479 1755.23 361.299 1737.79C341.228 1746.12 317.718 1749.09 296.892 1741.73C281.158 1736.23 268.303 1724.62 261.232 1709.52C241.116 1667.12 272.271 1617.59 310.16 1598.14C317.485 1594.38 324.905 1591.25 332.392 1587.86C331.618 1579.71 329.589 1570.62 327.111 1562.81C316.418 1560.76 313.679 1557.38 306.88 1549.46C296.775 1504.99 315.563 1500.53 353.351 1501.81C339.602 1475.76 312.655 1403.83 355.13 1390.59C388.18 1380.29 419.62 1422.65 436.305 1445.48C439.242 1449.5 443.752 1459.46 447.191 1461.24C470.397 1442.37 476.845 1360.32 523.2 1394.54C558.187 1360.1 583.78 1433.31 596.022 1457.84C599.536 1448.08 602.363 1439.89 609.238 1431.83C621.551 1417.39 632.261 1422.37 640.37 1404.6C639.05 1392.42 636.804 1384.96 646.218 1375.73ZM482.372 1500.51C497.102 1500.87 510.73 1500.22 525.25 1500.24C537.663 1500.24 551.164 1500.52 563.487 1500.2C558.358 1490.4 527.482 1429.53 522.725 1426.52C509.057 1451.06 495.605 1475.73 482.372 1500.51Z"/><path fill="#5EB794" transform="translate(-187 -1288)" d="M542.16 1562.5C595.211 1560.92 653.039 1562.02 706.425 1561.97C704.751 1573.83 695.91 1639.98 691.649 1646.03C684.375 1645.57 677.02 1618.3 664.787 1617.31C651.272 1616.21 649.545 1625.46 648.316 1635.91C641.918 1633.53 635.302 1631.46 627.949 1631.26C616.259 1630.96 619.334 1650.48 610.762 1657.15C610.496 1657.36 607.424 1660.96 607.14 1661.29C605.792 1665.76 606.557 1669.08 607.036 1673.76C595.191 1690.05 604.068 1699.96 618.497 1710.14C634.664 1721.55 652.406 1729.08 670.359 1737.1C665.816 1741.96 659.659 1747.51 653 1748.9C633.965 1752.89 613.241 1751.95 593.901 1752.19L515.276 1753.07L497.004 1753.01C475.816 1752.9 405.887 1754.61 389.703 1748.16C382.842 1745.42 377.641 1739.91 372.555 1734.76C389.626 1726.68 431.704 1709.18 435.454 1687.63C435.793 1685.68 431.119 1677.05 430.529 1674.08C428.846 1665.63 432.431 1658.43 423.331 1653.47C417.056 1649.92 419.262 1634.82 412.845 1632.01C406.666 1629.31 394.388 1633.59 388.311 1635.85C386.852 1626.24 383.028 1611.38 369.027 1618.58C358.926 1623.78 354.791 1634.79 351.777 1645.15C347.058 1630.73 340.826 1579.63 338.501 1562.93C406.386 1563.55 474.277 1563.41 542.16 1562.5Z"/><path fill="#0E0E10" transform="translate(-187 -1288)" d="M500.783 1619.32C510.205 1621.61 513.459 1628.56 522.023 1629.97C528.644 1631.05 539.225 1620.04 547.016 1621.87C549.139 1624.89 548.492 1623.17 548.298 1627.43C533.391 1642.16 499.734 1645.8 500.783 1619.32Z"/><path fill="#0E0E10" transform="translate(-187 -1288)" d="M574.513 1595.48C578.3 1594.99 582.055 1596.6 584.306 1599.68C586.557 1602.77 586.946 1606.83 585.322 1610.29C583.698 1613.75 580.318 1616.04 576.506 1616.28C570.882 1616.62 565.994 1612.45 565.456 1606.84C564.919 1601.23 568.925 1596.2 574.513 1595.48Z"/><path fill="#0E0E10" transform="translate(-187 -1288)" d="M466.357 1596.48C471.614 1594.19 477.733 1596.6 480.023 1601.86C482.312 1607.11 479.904 1613.23 474.645 1615.52C469.389 1617.8 463.276 1615.4 460.988 1610.14C458.7 1604.89 461.103 1598.77 466.357 1596.48Z"/><path fill="#5EB794" transform="translate(-187 -1288)" d="M576.095 1510.51C610.427 1509.94 644.767 1509.91 679.1 1510.43C685.321 1510.52 692.364 1510.39 698.138 1510.74C716.233 1511.84 731.09 1506.55 731.031 1531.04C731.006 1541.56 730.163 1550.49 716.898 1551.09C686.562 1552.48 655.726 1551.98 625.417 1552.09L466.424 1553.3C438.013 1553.76 409.597 1553.83 381.184 1553.54C363.849 1553.51 346.431 1553.79 329.148 1552.58C319.867 1551.93 315.017 1546.77 314.604 1537.54C314.291 1530.54 313.82 1521.23 318.653 1515.53C320.827 1512.97 326.255 1512.84 329.491 1512.4C353.173 1511.44 377.597 1511.41 401.265 1511.17C459.493 1510.57 517.886 1511.54 576.095 1510.51Z"/><path fill="#5EB794" transform="translate(-187 -1288)" d="M331.151 1598.98C335.471 1602.51 340.373 1641.98 341.485 1649.22C332.735 1652.13 311.783 1656.48 307.262 1663.73L307.898 1665.27C322.465 1670.41 346.776 1657.8 359.936 1651.23C361.914 1644.46 366.14 1629.15 373.802 1627.42C378.241 1631.49 376.526 1640.34 379.043 1647.73C389.805 1651.24 399.51 1634.18 409.239 1644.62C409.111 1653.67 392.932 1656.43 393.945 1664.24C402.09 1669.68 405.727 1661.68 416.023 1660.9C419.662 1662.23 418.252 1661.09 420.267 1664.59C420.305 1672.93 407.661 1673.46 404.185 1681.97C404.991 1685.17 404.18 1683.73 407.369 1686C412.164 1686.41 417.01 1683.59 421.81 1681.64C423.418 1683.42 425.477 1686.02 424.386 1688.45C420.238 1697.66 402.564 1708.29 394.176 1712.53C366.965 1726.29 333.756 1742.88 302.735 1733.4C289.071 1729.37 277.667 1719.9 271.193 1707.2C258.943 1683.17 266.065 1655.27 282.145 1635C295.375 1618.32 312.747 1608.73 331.151 1598.98Z"/><path fill="#5EB794" transform="translate(-187 -1288)" d="M710.827 1602.22C727.785 1609.66 742.701 1621.08 754.316 1635.5C772.061 1657.98 777.653 1685.11 763.039 1710.93C740.49 1750.77 687.131 1735.46 654.81 1718.65C642.559 1712.28 609.864 1699.02 612.504 1682.73C619.249 1682.08 624.912 1688.74 631.824 1685.1L631.905 1683.22C627.965 1676.83 616.205 1670.08 616.085 1664.24C622.78 1657.2 628.845 1665.26 637.111 1666.89C640.922 1665.86 639.341 1666.81 642.037 1663.94C642.217 1655.49 631.437 1656.87 627.388 1647.39C627.456 1643.27 626.711 1644.88 629.132 1642.16C638.414 1639.86 649.631 1648.85 656.108 1648.52C660.909 1644.06 657.886 1634.8 661.688 1628.02C669.837 1625.56 675.393 1646.28 677.008 1651.69C685.233 1655.91 722.307 1672.94 728.947 1663.48C725.845 1657.73 708.633 1653.36 702.423 1651.67C706.162 1636.53 708.552 1617.71 710.827 1602.22Z"/><path fill="#F77E61" transform="translate(-187 -1288)" d="M650.961 1405.76C659.661 1408.93 666.061 1410.79 675.043 1413.19C673.059 1427.5 673.475 1428.69 680.251 1442.32C684.168 1450.2 687.53 1458.7 684.501 1467.45C680.314 1470.15 663.773 1460.94 658.646 1465.9C661.403 1473.92 675.501 1475.62 682.744 1476.94C680.064 1487.75 680.041 1499.62 667.25 1499.7C650.542 1499.53 633.833 1499.53 617.126 1499.7L602.698 1471.34C608.278 1453.75 612.624 1434.84 631.125 1426.99C642.669 1422.08 645.788 1416.46 650.961 1405.76Z"/><path fill="#FBB44D" transform="translate(-187 -1288)" d="M364.028 1501.86C354.176 1479.21 317.256 1401.7 365.394 1397.58C379.445 1396.37 393.63 1409.96 403.141 1419.32C393.369 1423.61 365.4 1436.52 370.285 1450.38C380.785 1463.02 409.169 1445.99 420.083 1439.78C423.126 1443.72 426.114 1448.06 429.027 1452.13C420.418 1455.66 409.886 1460.27 403.004 1466.53C380.4 1487.09 391.762 1498.04 417.742 1487.61C427.282 1482.51 434.528 1478.37 443.761 1472.64L434.295 1490.06L428.662 1500.92C407.115 1501 385.569 1501.31 364.028 1501.86Z"/><path fill="#F8C269" transform="translate(-187 -1288)" d="M417.742 1487.61C427.282 1482.51 434.528 1478.37 443.761 1472.64L434.295 1490.06C434.169 1487.12 434.427 1485.5 432.732 1483.12C427.442 1482.37 426.097 1488.53 417.742 1487.61Z"/><path fill="#5EB794" transform="translate(-187 -1288)" d="M598.446 1762.53L601.973 1762.85L603.464 1764.64C604.787 1773.52 599.418 1795.33 597.444 1804.96C606.068 1807.98 621.277 1813.04 624.453 1822.25C622.671 1838.33 589.509 1834.26 577.733 1833.58C544.94 1831.29 542.192 1830.68 541.643 1796.08C541.472 1785.32 541.356 1773.89 541.299 1763.08C560.349 1763.11 579.4 1762.93 598.446 1762.53Z"/><path fill="#5EB794" transform="translate(-187 -1288)" d="M442.44 1762.92L506.831 1763.11C506.999 1777.94 508.524 1813.83 501.22 1826.84C498.221 1832.18 483.995 1832.71 477.765 1833.28C470.165 1833.98 462.534 1834.31 454.902 1834.25C445.917 1834.28 422.491 1834.32 423.726 1821.38C428.868 1812.9 441.293 1808.74 450.348 1804.97C447.985 1790.9 445.349 1776.88 442.44 1762.92Z"/><path fill="#5EB794" transform="translate(-187 -1288)" d="M499.668 1394.88C534.877 1395.87 507.752 1433.71 499.041 1449.83L472.135 1500.3L459.224 1500.3L440.261 1500.81C448.335 1485.81 456.239 1470.71 463.971 1455.53C473.341 1436.98 485.278 1408.87 499.668 1394.88Z"/><path fill="#5EB794" transform="translate(-187 -1288)" d="M537.529 1395C546.329 1394.59 552.508 1395.6 555.846 1404.35C563.667 1424.85 600.403 1480.74 604.144 1498.17L603.031 1499.54L598.25 1499.83L574.703 1499.95C566.814 1485.2 527.849 1418.17 529.386 1405.59C530.007 1400.5 533.77 1397.92 537.529 1395Z"/><path fill="#AF8E70" transform="translate(-187 -1288)" d="M650.577 1383.67C663.059 1387 675.448 1390.66 687.732 1394.65L684.235 1406.21L647.291 1395.44C648.007 1391.64 649.434 1387.42 650.577 1383.67Z"/><path fill="#FBB44D" transform="translate(-187 -1288)" d="M430.915 1458.86C434.575 1460.3 436.749 1464.24 439.023 1467.51C427.803 1474.05 419.288 1478.55 407.194 1483.19C404.423 1483.93 404.629 1483.95 401.867 1483.19C398.271 1473.81 424.47 1462.08 430.915 1458.86Z"/><path fill="#FBB44D" transform="translate(-187 -1288)" d="M405.919 1425.86C410.718 1426.21 413.046 1430.24 416.009 1433.75C406.358 1438.63 398.617 1442.5 388.56 1446.59C385.132 1447.41 383.141 1448.09 380.173 1446.21L380.141 1444.14C384.662 1436.04 397.934 1429.73 405.919 1425.86Z"/><path fill="#0E0E10" transform="translate(-187 -1288)" d="M639.074 846.485C681.557 845.524 759.312 846.219 791.152 876.157C798.03 882.621 803.234 890.659 806.318 899.579C814.346 922.074 819.008 998.75 819.747 1026.31C833.193 1015.24 842.877 1000.79 847.076 983.805C815.623 943.649 860.423 955.579 873.738 955.24C881.572 955.041 901.979 923.894 919.781 940.223C931.238 950.731 932.043 938.662 940.269 956.676C968.522 973.859 942.547 984.837 932.48 998.985C924.827 1009.74 920.65 1031.71 913.626 1044.99C891.289 1087.22 863.088 1111.45 817.847 1126.55C809.83 1173.16 788.993 1182.28 744.835 1188.59C743.353 1203.32 740.018 1221.68 737.647 1236.57C747.403 1241.68 765.131 1252.01 765.368 1263.61C765.95 1292.11 679.384 1286.58 669.006 1273.24C657.776 1258.8 660.201 1213.69 659.764 1194.14L646.727 1193.34C646.475 1210.38 648.496 1265.12 634.726 1275.33C620.56 1285.83 555.528 1290.03 543.137 1271.89C533.256 1257.43 557.064 1242.82 567.89 1236.62C565.573 1221.39 563.518 1206.13 561.724 1190.82C520.05 1188.42 492.309 1184.47 478.13 1140.53C421.336 1136.09 382.895 1094.59 357.234 1047.46C345.301 1041.25 321.689 1029.66 328.194 1013.21C332.816 1001.53 345.77 984.179 357.291 978.965C366.986 974.578 388.638 983.337 398.244 986.994C400.983 985.48 403.786 984.086 406.646 982.816C429.806 972.648 442.024 983.853 428.806 1007.21C440.741 1025.94 450.717 1037.6 471.645 1046.49C470.098 1007.75 472.003 935.383 483.99 898.333C500.827 846.293 593.286 848.704 639.074 846.485Z"/><path fill="#0E0E10" transform="translate(-187 -1288)" d="M749.542 1414.13C758.169 1416.51 758.473 1426.53 761.093 1433.93C764.941 1444.79 784.294 1442.94 787.059 1451.55C785.297 1454.74 779.724 1457.11 776.281 1458.98C759.889 1467.87 759.481 1472.85 754.946 1489.68C753.807 1489.84 752.222 1489.73 751.018 1489.71C745.323 1486.15 745.155 1476.99 743.31 1469.4C730.202 1457.39 724.291 1459.62 717.798 1454.13C715.724 1446.07 734.277 1443.07 738.346 1439.32C743.869 1434.23 744.849 1422.76 749.542 1414.13Z"/><path fill="#FBB44D" transform="translate(-187 -1288)" d="M750.662 1430.58C752.271 1431.87 751.853 1431.31 752.89 1433.01C760.274 1445.16 761.559 1446.31 773.45 1452.22C760.904 1458.37 758.653 1459.97 752.446 1472.38C751.359 1472.68 752.11 1472.58 750.241 1471.85C743.813 1460.06 741.821 1457.93 730.411 1451.98C742.77 1444.96 744.989 1443.55 750.662 1430.58Z"/><path fill="#0E0E10" transform="translate(-187 -1288)" d="M443.067 1339.77C449.457 1342.8 449.554 1348.02 451.183 1354.44C457.128 1359.68 464.002 1361.53 468.843 1368.65C467.255 1373.39 450.553 1380.99 449.041 1391C449.006 1391.23 446.86 1397.24 446.567 1398.08C436.985 1394.81 439.62 1384.33 434.891 1379.34C433.194 1377.56 423.926 1375.05 419.349 1370.57C418.421 1364.51 428.529 1364.81 433.816 1359.6C440.728 1352.78 438.006 1348.03 443.067 1339.77Z"/><path fill="#F77E61" transform="translate(-187 -1288)" d="M444.515 1355.57C450.491 1362.44 450.617 1363.96 457.973 1369.35C450.881 1374.3 449.889 1375.57 444.97 1382.33C441.878 1380.48 438.638 1374.36 432.388 1369.85C438.825 1364.43 440.28 1362.5 444.515 1355.57Z"/><path fill="#0E0E10" transform="translate(-187 -1288)" d="M281.831 1574.9C285.034 1577.07 284.157 1575.65 285.002 1578.99C282.699 1585.03 266.754 1591.59 260.69 1594.49C257.561 1591.13 257.972 1592.54 257.579 1588.66C261.194 1581.69 274.398 1577.73 281.831 1574.9Z"/><path fill="#0E0E10" transform="translate(-187 -1288)" d="M252.079 1545.56C261.091 1545.81 280.917 1547.6 279.66 1559.64C273.954 1559.77 258.936 1557.99 254.655 1553.61C251.61 1550.5 252.21 1549.28 252.079 1545.56Z"/></g></svg>