<?xml version="1.0" encoding="utf-8" ?><svg xmlns="http://www.w3.org/2000/svg" xmlns:xlink="http://www.w3.org/1999/xlink" width="632" height="817" viewBox="0 0 632 817"><clipPath id="cl_16"><rect width="632" height="817"/></clipPath><g clip-path="url(#cl_16)"><path fill="#19181D" transform="translate(-1384 -629)" d="M1669.18 755.625C1676.14 757.648 1683.65 766.934 1688.14 772.462C1746.28 844.051 1804.37 920.19 1837.13 1007.22C1845.87 1030.44 1848.1 1051.44 1849.01 1076.04C1856.57 1082.23 1862.71 1087.86 1868.8 1095.49C1899.81 1134.32 1914.55 1186.26 1908.69 1235.62C1907.16 1248.4 1905.31 1268.76 1894.29 1276.87C1888.01 1281.49 1883.92 1280.33 1876.86 1279.23C1863.49 1290.05 1865.19 1288.55 1850.95 1282.17C1848.6 1281.12 1841.18 1284.39 1838.42 1284.02C1820.68 1281.64 1824.34 1268.54 1825.43 1255.19C1824.37 1247.47 1802.79 1251.89 1805.38 1237.4C1807.76 1224.03 1820.98 1214.34 1830.83 1206.42C1831.42 1187.12 1830.23 1177.65 1827.12 1159C1798.86 1194.62 1788.11 1206 1748.09 1229.23C1746.54 1250.48 1744.56 1271.7 1742.14 1292.86C1783.97 1281.49 1828.12 1305.41 1830.65 1350.04C1832.06 1374.87 1696.63 1374.22 1685.07 1353.38C1673.25 1332.08 1683.12 1270.84 1686.07 1245.2L1674.08 1245.72L1656.12 1245.71C1662.03 1354.24 1690.03 1374.78 1547.32 1367.13C1539.82 1366.73 1515.91 1361.97 1513.45 1355.87C1506.37 1338.26 1524.29 1309.86 1539.79 1300.64C1560.77 1287.75 1576.91 1288.9 1599.17 1293.42C1597.49 1271.91 1595.61 1250.41 1593.53 1228.93C1557.03 1208.8 1539.29 1191.4 1515.64 1157.53C1511.16 1177.25 1510.83 1186.3 1511.86 1206.6C1514.23 1208.55 1516.58 1210.51 1518.92 1212.5C1527.4 1219.68 1544.33 1234.47 1532.62 1247.12C1529.55 1250.43 1524.06 1250.42 1519.83 1250.15C1513.68 1253.75 1519.71 1265.62 1516.87 1273.46C1511.21 1290.85 1499.39 1277.45 1488.88 1284.24C1483.34 1287.83 1475.68 1288.64 1470.94 1283.4C1465.37 1276.37 1460.5 1281.22 1454.53 1280.49C1440.66 1277.98 1437.63 1258.75 1435.73 1247.91C1425.86 1191.7 1443.61 1110.47 1494.15 1076.41C1493.47 972.113 1601.93 832.474 1669.18 755.625Z"/><path fill="#A39DF4" transform="translate(-1384 -629)" d="M1670.42 770.626C1673.95 772.464 1689.03 790.434 1692.37 794.957C1766.69 895.377 1906.76 1055.87 1796.63 1178.88C1762.57 1216.91 1721.51 1232.89 1672.54 1235.7C1632.18 1235.08 1596.56 1223.07 1565.05 1197.42C1531.06 1169.68 1509.48 1129.58 1505.04 1085.94C1495.9 987.126 1610.55 842.427 1670.42 770.626Z"/><path fill="#19181D" transform="translate(-1384 -629)" d="M1638.85 1080.48C1643.97 1081.84 1652.93 1088.36 1662.19 1090.43C1682.5 1094.97 1695.01 1080.68 1703.92 1081.18C1707.08 1082.71 1705.99 1081.57 1707.48 1084.52C1707.06 1089.27 1707.91 1087.2 1704.65 1090.88C1700.03 1094.27 1694.88 1096.87 1689.41 1098.57C1676.51 1102.7 1639.61 1102.64 1635.34 1086.8C1636.04 1082.67 1635.7 1084.05 1638.85 1080.48Z"/><path fill="#19181D" transform="translate(-1384 -629)" d="M1722.77 1037.43C1729.91 1036.7 1736.3 1041.87 1737.06 1049.01C1737.81 1056.15 1732.65 1062.55 1725.52 1063.33C1718.36 1064.11 1711.92 1058.92 1711.16 1051.76C1710.4 1044.59 1715.61 1038.17 1722.77 1037.43Z"/><path fill="#19181D" transform="translate(-1384 -629)" d="M1617.02 1037.52C1624.12 1036.8 1630.44 1041.99 1631.13 1049.09C1631.81 1056.19 1626.6 1062.49 1619.5 1063.15C1612.44 1063.8 1606.18 1058.63 1605.5 1051.57C1604.81 1044.51 1609.97 1038.23 1617.02 1037.52Z"/><path fill="#A39DF4" transform="translate(-1384 -629)" d="M1604.36 1234.29C1619.82 1239.83 1629.89 1242.45 1645.7 1245.49C1646.9 1273.24 1650.98 1301.38 1651.93 1329.33C1652.87 1357.16 1632.38 1355.79 1610.88 1357.67C1593.42 1359.19 1576.01 1358.79 1558.75 1357.94C1547.14 1357.69 1532.82 1354.06 1521.79 1350.58C1522.64 1345.31 1523.75 1340.04 1525.63 1335.02C1533.79 1313.16 1555.38 1299.3 1578.64 1300.97C1587.07 1301.52 1602.59 1306.57 1608.99 1303.63C1611.37 1299.12 1605.25 1244.17 1604.36 1234.29Z"/><path fill="#A39DF4" transform="translate(-1384 -629)" d="M1735.61 1234.99L1736.61 1235C1736.97 1235.31 1737.32 1235.62 1737.68 1235.93C1735.89 1257.53 1731.47 1279.75 1731.96 1301.36C1732.12 1308.39 1752.34 1301.87 1757.47 1301.29C1792.87 1297.24 1814.02 1317.79 1820.2 1350.76C1808.33 1354.42 1798.88 1356.17 1786.58 1357.64C1771.72 1359.44 1700.44 1359.81 1694.2 1347.67C1685.48 1330.7 1694.5 1265.14 1696.45 1245.45C1711.8 1242.5 1720.97 1240.33 1735.61 1234.99Z"/><path fill="#A39DF4" transform="translate(-1384 -629)" d="M1848.54 1089.37C1887.49 1120.96 1905.52 1194.4 1897.17 1241.66C1895.52 1251.02 1895.62 1267.32 1884.35 1270.51C1882.09 1263.17 1891.34 1253.31 1883.32 1245.73C1872.63 1243.63 1875.08 1271.14 1864.02 1277.08C1860.36 1276.37 1862 1277.15 1859.13 1274.27C1859.07 1270.16 1861.89 1264.41 1863.52 1260.36C1864.76 1255.8 1866.75 1250.62 1864.67 1246.5C1861.51 1243.93 1863.24 1244.63 1859.4 1244.07C1851.66 1247.85 1851.49 1264 1845.91 1270.29C1842.66 1273.95 1838.07 1275.24 1834.89 1270.86C1832.53 1257.69 1844.67 1241.07 1838.22 1232.53C1829.87 1230.58 1824.17 1242.44 1817.41 1239.13C1814.94 1229.56 1831.69 1219.15 1838.23 1214.58C1845.17 1192.71 1840.51 1167.23 1832.45 1146.3C1840.96 1128.35 1846.4 1109.11 1848.54 1089.37Z"/><path fill="#A39DF4" transform="translate(-1384 -629)" d="M1493.63 1090.71C1496.85 1112.77 1500.75 1126.49 1510.03 1146.57C1500.15 1167.49 1497.93 1191.22 1503.73 1213.61C1509.38 1218.02 1530.57 1231.68 1523.79 1239.84C1517.15 1239.58 1511.67 1232.24 1503.99 1232.1C1493.08 1239.82 1520.23 1266.88 1502.07 1273.9C1491.18 1271.77 1491.62 1251.49 1483.72 1244.54C1476.49 1243.47 1476.92 1248.59 1477.13 1253.64C1478.26 1259.4 1484.17 1271.97 1481.98 1276.05C1464.5 1277.86 1473.53 1245.99 1458.93 1244.97C1454.23 1251.13 1458.82 1260.05 1457.3 1269.17L1455.8 1269.96C1444.05 1263.68 1443.82 1226.43 1443.87 1214.33C1444.07 1165.61 1458.98 1125.25 1493.63 1090.71Z"/><path fill="#FCB046" transform="translate(-1384 -629)" d="M1789.03 711.226L1792.51 711.78C1798.77 716.084 1799.51 745.99 1807.59 756.586C1817.4 769.453 1837.13 771.219 1843.36 779.898C1840.22 783.185 1823.09 788.46 1816.48 793.486C1796.28 808.853 1798.28 828.737 1794.32 848.794C1786.11 846.916 1787.13 835.748 1785.63 828.345C1781.92 808.782 1777.38 795.046 1756.82 788.098C1752.21 786.541 1740.47 782.353 1740.09 776.672C1742.82 773.729 1757.13 772.673 1765.82 765.657C1783.59 751.306 1785.25 731.721 1789.03 711.226Z"/><path fill="#A39DF4" transform="translate(-1384 -629)" d="M1486.11 833.441C1492.99 837.218 1494.23 855.084 1501.69 861.17C1507.35 865.794 1518.62 867.093 1521.77 872.968C1518.07 876.231 1505.75 879.011 1501.18 883.172C1492.25 891.311 1495.27 902.768 1488.63 910.889C1480.57 903.804 1484.41 894.511 1477.17 885.571C1472.22 879.467 1454.65 876.819 1454.12 870.941C1456.77 868.236 1459.79 867.436 1463.4 866.163C1480.83 860.026 1480.01 847.279 1486.11 833.441Z"/><path fill="#A39DF4" transform="translate(-1384 -629)" d="M1876.56 918.182L1879.02 919.064C1883.31 923.417 1880.51 927.399 1885.83 934.076C1891.03 940.611 1901.92 942.188 1903.33 946.002C1897.78 954.582 1887.19 942.592 1878.61 973.807C1870.81 972.511 1875.54 961.671 1870.84 955.63C1867.48 951.317 1855.32 948.95 1852.5 945.364C1855.45 942.2 1862.99 939.139 1867.3 936.941C1870.92 932.139 1874.13 923.889 1876.56 918.182Z"/><path fill="#A39DF4" transform="translate(-1384 -629)" d="M1543.93 783.438C1548.87 787.029 1549.38 794.158 1552.45 799.513C1556.15 805.989 1561.29 804.602 1567.46 807.977C1567.74 810.564 1566.48 810.531 1563.14 812.576C1552 819.409 1551.44 821.672 1546.99 832.87C1546.41 832.954 1544.95 832.747 1544.29 832.683C1541.46 829.881 1539.68 821.807 1538.39 817.608C1534.72 814.861 1525.87 810.779 1521.42 808.5L1534.36 802.769C1540.18 795.591 1539.48 792.986 1543.11 785.169L1543.93 783.438Z"/></g></svg>