<?xml version="1.0" encoding="utf-8" ?><svg xmlns="http://www.w3.org/2000/svg" xmlns:xlink="http://www.w3.org/1999/xlink" width="1118" height="754" viewBox="0 0 1118 754"><clipPath id="sectors-financials-alt-cl_4d"><rect width="1118" height="754"/></clipPath><g clip-path="url(#sectors-financials-alt-cl_4d)"><path fill="#090A12" d="M652.925 164.5C666.081 164.099 709.411 161.959 719.921 166.575C757.172 182.932 798.365 210.748 834.045 231.468C859.445 246.218 882.577 260.684 906.421 277.057C916.577 284.031 914.42 310.936 909.175 320.605C906.503 325.695 899.432 326.908 894.324 328.428C894.956 348.277 894.452 351.662 876.092 359.765C878.465 375.845 879.742 392.067 879.915 408.321C882.069 408.163 884.222 407.985 886.373 407.787C908.651 405.698 922.077 399.158 936.187 382.02C935.017 361.721 944.508 338.394 965.831 358.252C972.89 353.229 976.489 350.194 985.339 348.775C993.77 347.441 1002.37 349.738 1009.01 355.098C1030.56 372.357 1017.29 404.012 1001.74 420.541C966.808 457.664 929.497 473.72 879.36 476.626C878.515 482.825 878.324 489.09 878.012 495.342C894.588 503.436 894.268 510.115 894.098 527.292C915.968 527.69 925.246 528.611 926.361 553.928C926.121 568.293 930.068 595.711 920.392 607.085C915.546 612.782 881.292 611.536 873.482 611.603L805.941 612.108L803.96 627.789C817.689 634.593 840.116 649.84 826.726 666.905C813.894 682.032 787.792 677.571 770.987 677.472C732.352 677.244 736.914 641.352 735.254 611.974C672.845 613.557 608.967 611.924 546.24 612.761C545.813 618.008 545.634 623.929 545.371 629.224C555.92 632.982 572.794 642.175 572.208 654.503C571.139 676.981 540.711 677.802 526.17 677.887C472.393 675.309 477.693 661.055 476.448 612.482L447.292 612.434C442.191 654.307 456.071 677.694 398.757 678.251C381.278 678.421 349.57 676.641 354.007 650.741C355.875 639.84 368.754 632.375 377.455 627.525C377.618 622.783 377.362 617.357 377.249 612.56C349.966 610.597 317.981 612.507 290.274 611.619C274.528 611.114 253.05 612.697 237.583 608.667C234.211 607.788 230.841 603.685 229.853 600.507C223.891 581.342 223.7 554.151 230.939 535.737C241.458 525.688 256.018 528.618 269.632 529.181C270.014 519.07 269.775 515.057 273.085 505.486C277.766 500.899 279.078 500.123 284.513 496.8C284.19 489.947 284.009 482.99 283.77 476.125C250.327 474.662 223.178 465.14 195.474 446.027C177.583 433.297 150.972 409.246 148.289 385.613C144.705 354.035 174.693 335.832 200.621 357.842C227.464 341.573 231.196 361.605 232.691 383.957C247.967 401.047 261.6 404.995 283.689 407.533C283.781 391.026 284.67 375.506 285.272 359.048C268.45 350.327 269.688 345.535 270.17 327.532C256.401 326.584 247.161 327.692 236.976 318.025C233.813 307.524 231.431 283.965 241.074 276.302C264.309 257.837 291.83 243.003 317.587 228.129C335.623 217.798 353.6 207.363 371.516 196.825C381.652 190.807 416.768 168.988 426.518 167.408C442.634 164.796 481.407 166.222 499.063 166.019C550.406 165.429 601.687 166.044 652.925 164.5Z"/><path fill="#F8B34A" d="M712.027 176.995C719.932 177.856 731.165 182.278 738.109 186.55C791.564 219.434 846.869 250.469 899.056 285.148C903.614 288.177 902.013 308.421 901.805 314.303C841.569 313.414 780.648 316.122 720.25 315.836L527.39 314.993C526.675 304.464 527.072 294.915 528.176 284.452C573.496 254.736 622.173 230.261 667.71 200.935C683.602 190.7 694.136 183.373 712.027 176.995Z"/><path fill="#090A12" d="M740.853 269.833C743.501 270.925 743.362 271.229 745.131 273.596C746.1 284.898 724.286 288.72 715.974 287.537C708.821 286.518 705.598 284.75 699.336 281.619C696.822 279.058 694.474 277.009 695.589 273.289C702.299 270.766 712.516 277.414 720.029 278.846C726.312 280.044 735.667 273.241 740.853 269.833Z"/><path fill="#090A12" d="M761.792 245.518C765.159 243.974 769.101 244.395 772.066 246.615C775.031 248.835 776.545 252.498 776.012 256.164C775.479 259.829 772.984 262.91 769.509 264.193C764.412 266.075 758.738 263.592 756.663 258.57C754.587 253.548 756.853 247.783 761.792 245.518Z"/><path fill="#090A12" d="M668.98 249.502C674.326 248.291 679.645 251.626 680.884 256.965C682.123 262.304 678.816 267.641 673.483 268.908C668.111 270.184 662.726 266.847 661.478 261.468C660.23 256.09 663.595 250.722 668.98 249.502Z"/><path fill="#F8B34A" d="M630.22 327.151C649.56 326.17 677.323 327.093 697.108 327.291C730.078 327.777 763.053 327.703 796.02 327.067C795.878 345.43 795.93 351.656 813.091 360.045C809.199 389.843 808.223 467.641 811.989 496.855C795.799 504.952 796.178 512.403 796.073 529.071L760.927 529.071C760.836 495.467 763.454 469.663 759.572 435.432C751.367 396.142 707.804 383.803 680.93 410.483C675.201 416.229 671.081 423.378 668.981 431.215C665.224 445.222 666.876 511.203 666.977 528.629C654.714 529.151 642.432 529.038 630.18 528.29C629.944 511.496 630.612 504.302 613.839 497.096C616.727 451.559 616.412 405.874 612.897 360.381C630.425 350.975 629.214 346.305 630.22 327.151Z"/><path fill="#5BB48C" d="M661.018 175.469L689.397 175.062C637.002 209.807 575.847 242.057 521.271 275.698C497.553 274.196 468.561 275.61 444.279 275.788L288.955 277.07L258.517 277.963C295.567 253.137 339.551 229.414 377.894 205.873C387.837 199.768 415.361 183.609 425.499 179.724C431.325 177.491 466.864 176.94 475.879 176.701C537.481 175.071 599.388 176.831 661.018 175.469Z"/><path fill="#77BBF5" d="M243.743 540.496L508.838 540.168C508.989 551.771 510.333 590.959 507.874 600.255C505.782 602.42 506.222 601.709 502.25 601.928C443.258 602.041 384.266 601.678 325.28 600.836L273.388 600.397C267.598 600.326 243.95 600.874 240.679 597.396C236.78 593.251 236.409 573.103 236.739 566.639C237.25 556.629 233.274 545.738 243.743 540.496Z"/><path fill="#F8B34A" d="M488.14 326.929L532.014 326.832C531.584 344.266 530.665 352.202 548.183 359.787C545.443 407.647 544.44 448.974 547.05 496.999C531.031 504.989 532.225 512.848 531.716 529.1C517.735 529.498 502.57 529.145 488.498 529.063C488.677 511.71 489.491 504.822 472.812 496.749C476.093 451.186 475.79 405.436 471.903 359.921C489.512 351.694 489.514 345.559 488.14 326.929Z"/><path fill="#F8B34A" d="M367.014 327L391.056 327C390.94 345.005 390.585 351.401 407.23 359.901C405.624 407.781 404.289 448.86 406.022 497.145C390.329 505.852 392.105 512.308 390.774 528.833L367.312 528.932C367.446 511.659 368.11 505.051 351.743 496.811C353.673 446.927 353.053 409.441 350.491 359.717C368.172 351.968 367.249 344.5 367.014 327Z"/><path fill="#5BB48C" d="M711.035 407.124C755.895 406.205 750.214 456.632 749.968 487.184L749.928 529L720.25 528.928L677.775 528.834C678.2 504.451 673.394 442.252 685.091 423.633C691.319 413.72 700.192 409.875 711.035 407.124Z"/><path fill="#5BB48C" d="M246.288 285.952C277.352 287.729 310.817 287.001 342.142 286.998C400.524 287.137 458.906 286.803 517.282 285.997C516.921 296.056 516.724 304.953 516.892 315.07C488.349 314.985 255.575 319.322 249.2 313.091C243.81 307.823 245.981 292.783 246.288 285.952Z"/><path fill="#5BB48C" d="M985.626 359.036C1016.39 358.59 1011.89 391.839 997.575 408.547C970.146 440.573 936.209 459.73 894.249 464.592C891.836 464.994 883.489 464.993 880.608 465.06C880.997 449.758 881.059 434.45 880.794 419.146C908.436 418.508 930.053 408.946 947.067 386.923C946.728 380.481 945.2 367.191 950.337 362.857C954.552 363.262 959.328 369.732 963.755 370.673C969.489 371.892 978.171 363.008 985.626 359.036Z"/><path fill="#5BB48C" d="M173.448 358.967C189.091 358.838 190.533 366.349 203.437 372.886C207.83 368.393 212.035 362.12 218.624 365.305C222.568 371.28 221.184 379.897 220.881 387.234C242.261 410.024 253.034 413.848 283.067 419.421C282.686 427.412 283.709 460.569 281.435 464.42L278.767 464.991C232.837 459.061 193.694 441.604 166.29 402.365C154.132 384.957 155.308 370.331 173.448 358.967Z"/><path fill="#F8B34A" d="M848.767 359.501L866.982 359.478C868.757 406.692 869.717 448.611 867.974 495.971L845.753 496.436C838.619 496.977 829.501 496.792 822.188 496.832C821.794 476.684 820.691 456.561 820.943 436.392C821.262 410.764 822.453 385.143 823.148 359.51L848.767 359.501Z"/><path fill="#F8B34A" d="M418.235 359.492C432.53 359.313 446.827 359.424 461.118 359.823C462.553 376.618 466.002 489.825 460.947 496.259C446.308 496.69 431.665 496.913 417.02 496.928C417.046 492.215 417.028 486.835 416.672 482.169C414.054 447.837 415.763 413.871 417.102 379.541C417.362 372.889 417.489 366.145 418.235 359.492Z"/><path fill="#F8B34A" d="M595.721 359.503C599.399 359.578 599.208 358.948 601.594 360.77C602.913 372.109 603.296 396.514 603.465 408.595C603.824 434.186 605.939 471.042 602.439 496.013C590.213 496.446 577.983 496.72 565.75 496.833C562.33 497.014 562.167 497.073 558.615 496.439C554.329 482.688 557.976 378.25 558.941 359.838C571.202 359.824 583.462 359.712 595.721 359.503Z"/><path fill="#F8B34A" d="M296.084 359.725L339.946 359.51C340.447 407.07 344.126 447.308 340.488 495.984L295.162 496.885L296.084 359.725Z"/><path fill="#77BBF5" d="M520.086 540.167L619.301 539.927C619.472 557.12 620.422 585.086 618.357 601.304L519.625 602.005L520.086 540.167Z"/><path fill="#77BBF5" d="M825.975 540.197C848.897 539.912 891.626 538.353 912.203 541.842C916.886 557.216 915.294 583.123 914.454 599.732C896.005 600.355 876.462 600.062 857.927 600.073C858.252 569.262 859.441 564.717 826.957 564.102C827.121 555.639 827.305 548.572 825.975 540.197Z"/><path fill="#77BBF5" d="M696.921 575.168C745.66 574.92 797.128 575.617 846.033 576.23C846.176 583.11 846.664 592.384 845.711 598.987L844.074 600.169L698.713 601.076C698.82 592.136 698.126 583.997 696.921 575.168Z"/><path fill="#77BBF5" d="M667.759 539.927L815.833 540.077L815.962 564.168L668.907 564.833C669.586 555.393 669.467 549.156 667.759 539.927Z"/><path fill="#5BB48C" d="M788.726 612.499C791.425 612.355 791.816 611.992 794.041 613.32C796.468 618.711 792.871 626.471 793.743 632.221C795.565 640.465 807.861 642.681 814.539 646.61C819.803 649.707 821.668 657.597 817.609 661.087C809.838 667.767 788.981 666.995 779.386 666.997C740.282 663.08 747.059 648.233 745.917 612.994L788.726 612.499Z"/><path fill="#5BB48C" d="M387.856 613.002L437.092 613.075C436.561 625.631 437.595 651.272 429.717 659.826C424.086 665.939 418.177 665.46 410.5 666.024C409.763 666.111 409.026 666.188 408.287 666.255C399.76 667.018 363.372 670.223 363.724 654.958C363.982 643.795 379.684 643.258 385.956 637.909C391.141 633.487 388.491 619.168 387.856 613.002Z"/><path fill="#5BB48C" d="M517.459 613.5L536.005 613.291C534.918 621.84 534.392 627.25 534.216 635.826C542.08 641.25 563.195 646.963 560.067 659.416C554.478 665.9 542.243 666.145 534.016 666.929C532.958 666.957 531.901 666.969 530.843 666.967C483.356 666.639 486.862 656.198 486.946 613.882C497.118 613.869 507.29 613.742 517.459 613.5Z"/><path fill="#77BBF5" d="M629.77 539.927L658.93 539.927C659.226 569.855 652.415 575.575 686.85 575.918L687.223 601.355C668.205 601.081 649.185 600.988 630.165 601.076C630.212 580.692 630.081 560.308 629.77 539.927Z"/><path fill="#F8B34A" d="M858.277 326.502C866.397 326.161 875.351 326.212 883.545 326.083L883.551 327.411C883.54 359.368 857.335 349.217 834.245 348.999C812.372 349.575 808.161 350.492 806.878 326.967L858.277 326.502Z"/><path fill="#F8B34A" d="M332.747 506.425C351.567 506.339 357.385 509.736 356.437 528.984C340.332 529.053 323.767 528.93 307.713 529.51C299.992 529.423 284.32 532.393 279.904 525.484C279.423 499.592 313.193 507.788 332.747 506.425Z"/><path fill="#F8B34A" d="M280.206 326.93L356.194 326.93C356.565 335.122 356.875 339.094 353.895 346.697C343.186 348.971 295.038 352.043 284.156 345.809C279.563 343.177 280.108 332.121 280.206 326.93Z"/><path fill="#F8B34A" d="M401.952 327L477.871 326.929C478.272 335.998 478.109 338.335 475.359 346.613C470.936 347.735 466.419 348.448 461.865 348.745C453.417 349.334 413.292 351.48 406.096 345.629C402.034 342.326 402.148 332.412 401.952 327Z"/><path fill="#F8B34A" d="M542.784 326.832L618.948 327.116C619.074 335.739 618.929 338.678 616.811 346.691C603.41 349.973 583.866 349.492 569.759 349.166C547.682 348.657 542.98 349.726 542.784 326.832Z"/><path fill="#F8B34A" d="M452.723 506.463C472.631 505.623 477.679 510.083 477.732 529.076L427.75 528.928C419.754 528.668 406.244 531.838 401.833 524.942C400.817 499.842 434.194 507.752 452.723 506.463Z"/><path fill="#F8B34A" d="M858.483 506.442C878.101 505.909 883.374 509.261 883.146 528.927L833.5 528.927L806.928 528.984C808.385 501.926 820.664 507.172 842.308 507.197C847.511 507.203 853.296 506.813 858.483 506.442Z"/><path fill="#F8B34A" d="M552.59 507.248C557.081 506.938 567.193 506.663 571.723 507.172C591.324 509.373 620.818 496.772 618.883 526.946C615.838 529.099 614.888 528.267 610.244 528.301C602.304 528.542 547.283 530.067 543.724 528.006C541.71 519.057 544.38 511.395 552.59 507.248Z"/><path fill="#090A12" d="M939.158 167.353C951.109 172.051 948.487 188.806 955.386 195.769C960.139 200.566 976.012 203.822 982.24 208.529C984.998 217.189 962.042 219.673 956.161 225.461C949.47 232.048 947.462 245.209 943.356 254.71C931.399 253.294 936.171 226.899 921.819 222.137C916.632 220.416 901.943 215.395 900.208 210.625C903.556 205.901 920.461 199.489 926.549 196.849C931.901 189.546 936.001 176.248 939.158 167.353Z"/><path fill="#F8B34A" d="M940.953 188.712C942.268 189.74 941.729 189.164 942.738 190.69C950.154 201.898 952.357 204.734 963.998 210.818C951.943 217.908 949.172 220.179 942.417 232.237L942.008 232.363C938.297 231.058 934.088 221.776 929.483 217.929C925.711 214.777 924.258 213.836 920.096 211.213C932.019 203.509 934.443 201.113 940.953 188.712Z"/><path fill="#090A12" d="M283.111 752.083C293.386 756.444 287.737 760.353 294.375 767.941C299.061 773.297 307.218 772.982 310.696 779.641C309.754 786.091 297.017 790.668 293.006 795.339C291.536 797.051 288.421 806.02 287.38 808.749C282.814 808.038 282.854 808.051 280.634 805.164C278.806 783.353 267.039 793.381 259.81 782.044C260.939 775.695 271.179 774.543 275.693 768.585C279.776 763.194 280.941 758.435 283.111 752.083Z"/><path fill="#090A12" d="M864.452 142.446C873.769 145.736 870.19 151.523 875.507 157.206C877.823 159.683 884.944 161.382 888.011 165.635L887.494 167.808C883.482 171.813 877.693 174.555 872.639 177.376C871.227 182.133 870.333 184.981 868.37 189.517C859.329 187.766 863.406 182.232 857.999 176.504C853.724 171.976 843.499 170.999 845.2 163.648C847.921 160.468 852.401 158.992 856.369 157.19C860.931 150.968 861.462 149.489 864.452 142.446Z"/></g></svg>