<?xml version="1.0" encoding="utf-8" ?><svg xmlns="http://www.w3.org/2000/svg" xmlns:xlink="http://www.w3.org/1999/xlink" width="775" height="652" viewBox="0 0 775 652"><clipPath id="sectors-financials-cl_26"><rect width="775" height="652"/></clipPath><g clip-path="url(#sectors-financials-cl_26)"><path fill="#0E0E10" transform="translate(-1260 -131)" d="M1615.54 206.181C1634.93 203.477 1652.98 219.95 1668.57 230.67C1690.57 245.548 1712.24 260.911 1733.56 276.747C1754.97 292.362 1777.5 307.432 1798.14 323.795C1806.21 330.623 1816.65 339.758 1816.66 351.129C1816.7 376.32 1780.49 372.957 1763.1 372.519C1768.74 392.612 1760.81 396.494 1743.68 404.753C1750.73 406.308 1758.21 407.325 1765.35 408.645C1800.77 415.197 1841.74 431.337 1858.52 466.09C1866.61 482.434 1867.72 501.364 1861.59 518.542C1852.77 543.28 1832.23 556.184 1809.91 566.884C1810.18 598.519 1789.75 601.657 1763.12 595.212C1764.74 603.084 1765.35 606.769 1765.87 614.753C1786.26 617.733 1786.23 624.969 1787.94 644.239C1793.55 644.789 1804.81 645.143 1808.38 649.714C1816.28 658.448 1818.84 686.597 1808.8 694.199C1802.82 698.719 1773.01 697.687 1764.68 698.121C1758.01 698.468 1749.58 698.521 1742.96 698.713C1692.03 699.964 1641.08 700.443 1590.13 700.149C1560.41 700.142 1530.69 699.987 1500.98 699.682C1482.13 699.488 1462.76 699.127 1443.92 697.674C1438.27 697.238 1436.17 695.4 1432.82 691.144C1427.64 681.83 1424.92 662.62 1432.64 653.955C1439.99 645.694 1447.67 645.824 1457.83 644.948C1456.19 623.476 1458.26 617.762 1479.31 613.886C1478.6 598.143 1481.49 592.375 1496.16 586.179L1496.04 570.042C1446.29 601.882 1397.36 575.537 1378.62 523.285C1362.51 520.726 1327.42 509.539 1326.26 489.41C1325.83 481.943 1333.22 478.175 1333.98 472.97C1335.6 461.856 1332.31 464.467 1340.78 456.089C1335.3 440.084 1333.83 423.306 1341.07 407.466C1346.83 394.877 1357.56 385.247 1370.7 380.88C1384.47 376.074 1399.59 377.04 1412.63 383.558C1444.23 399.721 1446.36 434.843 1430.77 462.904C1439.29 472.109 1440.56 481.25 1447.72 490.318C1453.36 497.461 1465.47 490.609 1469.93 485.262C1481.44 471.474 1493.01 450.956 1495.93 433.226C1497.18 425.582 1496.23 411.07 1496.08 403.149C1479.21 395.471 1479.02 389.739 1479.61 372.621C1459.75 373.499 1415 374.389 1429.17 341.695C1434.78 328.754 1470.49 304.488 1482.37 295.839C1507.16 277.755 1532.27 260.099 1557.67 242.88C1571.11 233.66 1601.98 211.164 1615.54 206.181ZM1584.67 402.475C1588.23 456.001 1590.05 508.207 1586.75 561.823C1586.25 569.982 1585.95 578.134 1586.19 586.308C1602.1 595.951 1601.57 598.364 1601.07 616.845C1610.99 616.665 1634.61 616.958 1643.7 615.994C1642.86 599.244 1642.17 593.464 1658.67 585.932C1654.97 518.77 1653.44 471.003 1659.84 403.037C1656.24 401.626 1653.11 400.459 1649.66 398.719C1642.49 389.376 1642.24 385.881 1642.25 374.401L1601.85 374.227C1601.61 391.232 1601.36 396.05 1584.67 402.475Z"/><path fill="#FBB44D" transform="translate(-1260 -131)" d="M1618.42 214.98C1622.08 215.017 1624.73 215.1 1627.94 216.947C1653.71 231.793 1680.32 251.255 1704.62 268.429C1724.07 282.216 1743.44 296.113 1762.72 310.119C1773.15 317.669 1803.87 335.977 1805.62 349.472C1806.72 357.926 1799.26 361.992 1790.96 362.044C1772.87 362.156 1754.54 362.103 1736.33 362.226L1626.82 363.684C1576.22 364.442 1525.5 362.446 1474.88 363.031C1466.26 363.001 1457.19 363.301 1448.7 361.82C1434.93 359.747 1435.27 344.867 1445.14 337.208C1473.94 314.853 1503.92 293.179 1533.9 272.371C1561.08 253.509 1589.98 231.575 1618.42 214.98Z"/><path fill="#0E0E10" transform="translate(-1260 -131)" d="M1645.45 318.038C1648.03 318.827 1649.24 320.323 1650.23 322.544C1648.67 326.191 1646.25 327.751 1642.58 329.184C1625.83 335.712 1614.13 334.064 1598.29 328.03C1595.21 326.031 1593.31 324.428 1593.76 320.637C1598.63 317.863 1609.25 321.708 1614.4 323.635C1625.46 327.772 1635.62 322.934 1645.45 318.038Z"/><path fill="#0E0E10" transform="translate(-1260 -131)" d="M1665.7 290.504C1668.9 289.325 1672.49 289.987 1675.05 292.23C1677.62 294.473 1678.76 297.938 1678.02 301.266C1677.28 304.593 1674.78 307.252 1671.51 308.198C1666.69 309.59 1661.63 306.918 1660.07 302.152C1658.51 297.386 1661 292.238 1665.7 290.504Z"/><path fill="#0E0E10" transform="translate(-1260 -131)" d="M1571.29 290.469C1574.51 289.468 1578.01 290.28 1580.45 292.592C1582.9 294.903 1583.91 298.355 1583.09 301.619C1582.27 304.884 1579.76 307.453 1576.51 308.339C1571.61 309.676 1566.55 306.842 1565.12 301.967C1563.7 297.093 1566.44 291.978 1571.29 290.469Z"/><path fill="#FBB44D" transform="translate(-1260 -131)" d="M1491.44 373.165C1504.86 373.138 1585.46 371.366 1591.3 377.096C1598.02 396.961 1568.97 391.801 1558.12 398.116L1557.88 399.616C1563.48 404.361 1567.37 403.371 1574.76 403.308C1582.7 450.111 1578 537.442 1575.83 585.507C1570.87 585.5 1559.27 585.092 1557.09 590.402C1565.59 597.529 1582.42 591.61 1591.61 601.829C1592.95 606.403 1592.41 609.667 1590.42 613.834C1585.44 617.763 1569.19 616.077 1561.75 615.935C1539.6 616.061 1517 616.792 1494.94 615.479C1490.39 615.207 1487.97 608.004 1488.53 603.903C1496.53 589.288 1532.64 598.765 1536.62 590.103L1534.91 587.972C1526.88 584.372 1515.16 585.702 1506.08 585.954C1505.67 559.402 1502.47 531.987 1502.46 504.897C1502.46 470.508 1504.46 437.257 1506.31 402.989C1515.03 403.62 1531.76 406.099 1537.07 397.976L1536.5 396.441C1520.99 388.556 1482.39 405.436 1491.44 373.165Z"/><path fill="#FBB44D" transform="translate(-1260 -131)" d="M1719.43 372.531C1726.67 372.179 1746.61 370.543 1752.33 374.163C1767.05 396.603 1729.08 391.736 1720.92 398.219L1721.36 399.946C1727.77 404.463 1730.14 403.62 1737.97 403.471C1738.61 442.836 1742.18 476.794 1741.61 518.178C1731.56 532.724 1727.15 549.749 1734.09 566.715C1735.91 571.166 1739.26 576.93 1739.87 581.355C1736.11 588.239 1728.46 584.283 1721.05 588.522L1720.62 590.528C1726.08 598.273 1754.88 590.982 1756.33 605.513C1756.81 610.295 1751.14 615.723 1745.42 615.838C1719.44 616.361 1693.27 615.561 1667.25 616.539C1664.53 616.639 1662.24 616.632 1659.31 616.487C1655.04 617.112 1648.96 607.183 1651.02 604.133C1660.38 590.274 1684.57 597.549 1699.59 591.593L1699.11 589.424C1688.02 583.632 1681.31 585.071 1669.18 585.888C1662.67 524.974 1664.46 463.968 1669.17 403.03C1678.23 403.66 1692.61 405.634 1698.79 397.978C1695.89 391.098 1666.77 396.722 1658.89 391.888C1652.1 387.724 1648.76 382.468 1653.17 375.216C1658.25 372.384 1710.26 372.629 1719.43 372.531Z"/><path fill="#78BCF7" transform="translate(-1260 -131)" d="M1641.51 655.5C1690.92 652.663 1746.8 656.907 1796.52 656.792C1807.8 656.766 1806.52 677.603 1803.66 685.084C1797.95 690.256 1736.87 689.845 1725.52 689.955L1602.5 690.7C1586.05 691.322 1566.44 690.932 1549.83 690.95C1513.8 691.168 1477.77 690.525 1441.77 689.021C1440.49 684.943 1439.49 680.778 1438.8 676.558C1438.14 672.612 1437.36 658.005 1443.62 657.337C1459.87 655.602 1476.81 655.935 1493.18 655.813L1641.51 655.5Z"/><path fill="#FBB44D" transform="translate(-1260 -131)" d="M1748.87 416.484C1769.74 418.289 1790.1 424.002 1808.87 433.326C1843.98 451.017 1857.5 470.401 1853.36 509.258C1848.61 553.756 1784.66 558.954 1778.79 570.573L1779.46 572.393C1787.56 575.745 1798.11 567.31 1801.46 576.538C1796.35 584.719 1789.82 589.829 1779.59 589.321C1758.55 588.276 1739.51 569.107 1741.05 547.555C1743.16 518.274 1771.26 504.888 1794.24 493.546C1798.6 491.375 1802.47 488.295 1802.54 483.082L1801.22 482.149C1792.62 481.703 1787.48 485.017 1779.48 488.577C1768.72 482.469 1763.74 481.091 1751.66 479.386C1750.42 458.753 1749.73 437.182 1748.87 416.484Z"/><path fill="#FBB44D" transform="translate(-1260 -131)" d="M1342.26 466.711C1363.45 466.356 1372.08 502.591 1421.21 472.241C1435.08 478.685 1435.72 492.627 1447.18 501.991C1465.11 516.652 1485.2 481.484 1493.11 468.691C1492.74 498.355 1492.34 526.833 1494.95 556.384L1488.53 561.606C1446.85 590.891 1409.84 565.37 1390.05 525.879C1393.79 523.258 1395.92 522.714 1396.23 518.037C1390.98 510.994 1351.6 511.405 1342.47 497.642C1341.15 495.66 1336.4 492.475 1336.43 488.082C1343.08 483.763 1355.87 493.164 1363.45 489.165L1363.61 486.79C1356.83 472.558 1343.79 483.702 1342.26 466.711Z"/><path fill="#78BCF7" transform="translate(-1260 -131)" d="M1468.29 625.998L1696.41 625.867L1747.61 625.968C1755.49 625.992 1764.15 625.763 1771.93 626.506C1779.3 627.208 1777.55 642.347 1775.57 646.953C1676.36 643.31 1567.69 646.169 1467.61 646.167C1466.68 638.05 1466.73 633.776 1468.29 625.998Z"/><path fill="#FBB44D" transform="translate(-1260 -131)" d="M1383.97 387.502C1408.11 384.926 1429.73 402.522 1432.11 426.687C1434.48 450.852 1416.7 472.321 1392.52 474.495C1368.62 476.644 1347.46 459.121 1345.11 435.239C1342.76 411.357 1360.11 390.048 1383.97 387.502Z"/><path fill="#0E0E10" transform="translate(-1260 -131)" d="M1382.1 398.092C1387.12 397.914 1393.32 397.542 1396.22 402.21C1393.56 406.2 1379.25 408.453 1373.82 409.666C1367.65 414.824 1366.76 418.852 1364.24 426.301C1363.36 430.327 1364.01 430.319 1361.66 432.996L1359.49 432.957L1357.49 430.751C1352.75 414.582 1369.93 404.057 1382.1 398.092Z"/><path fill="#0E0E10" transform="translate(-1260 -131)" d="M1414.84 427.214C1433.37 433.215 1408.84 456.499 1401.53 461.815C1398.86 461.384 1399.03 461.487 1397.02 459.689C1397.12 451.925 1409.18 448.856 1411.11 441.884C1412.41 437.179 1413.67 431.98 1414.84 427.214Z"/></g></svg>