<?xml version="1.0" encoding="utf-8" ?><svg xmlns="http://www.w3.org/2000/svg" xmlns:xlink="http://www.w3.org/1999/xlink" width="581" height="726" viewBox="0 0 581 726"><clipPath id="sectors-healthcare-cl_27"><rect width="581" height="726"/></clipPath><g clip-path="url(#sectors-healthcare-cl_27)"><path fill="#0E0E10" transform="translate(-740 -57)" d="M1427.74 357.213C1427.22 348.924 1427.38 340.938 1433.56 334.771C1450.46 317.896 1474.84 301.626 1494.1 287.764C1517.27 270.909 1540.74 254.457 1564.49 238.416C1577.4 229.559 1590.19 220.584 1603.53 212.359C1613.65 206.121 1625.26 202.683 1636.24 209.529C1652.16 219.453 1667.61 230.543 1683.11 241.162C1708.44 258.402 1733.44 276.115 1758.11 294.295C1773.49 305.47 1789.17 316.48 1803.67 328.893C1810.34 334.06 1817.23 343.209 1816.93 352.137C1816.1 376.093 1778.53 372.453 1763.35 372.213C1763.62 373.76 1763.87 375.31 1764.1 376.864C1765.33 385.176 1765.01 388.419 1760.1 394.965C1754.3 400.018 1750.23 401.914 1743.46 405.464L1755.96 406.929C1769.02 408.861 1781.88 411.981 1794.37 416.252C1820.83 425.312 1846.18 440.385 1858.74 466.492C1866.64 482.538 1867.72 501.092 1861.74 517.946C1852.76 543.238 1832.78 555.752 1809.96 566.705C1810.96 596.445 1789.19 603.72 1763.78 594.921L1765.76 615.052C1785.26 616.831 1786 621.458 1786.65 637.725C1788.18 648.414 1801.77 644.455 1807.7 649.191C1817.4 656.93 1820.26 694.833 1803.88 696.445C1788.48 697.961 1772.04 698.025 1756.51 698.317C1731.08 698.997 1705.64 699.486 1680.21 699.783C1635.65 700.15 1591.1 700.212 1546.54 699.971C1515.18 699.87 1483.56 700.095 1452.24 698.193C1448.13 697.731 1438.92 697.544 1435.89 694.776C1426.26 685.967 1425.76 660.561 1434.46 651.214C1439.9 645.358 1450.73 645.568 1458.12 645.278C1456.82 623.707 1457.27 617.606 1479.9 614.871C1478.93 597.824 1481.38 594.629 1495.97 587.001L1495.72 570.447C1448.55 602.677 1396.93 573.693 1379.17 523.749C1341.65 514.926 1312.23 497.501 1334.13 473.841C1337.46 470.243 1329.4 467.516 1340.97 456.998C1335.81 441.85 1334.02 425.822 1340.02 410.572C1345.1 397.737 1355.34 387.627 1368.24 382.708C1382.65 377.035 1398.76 377.565 1412.76 384.173C1425.02 390.119 1434.26 400.871 1438.31 413.876C1443.76 431.689 1438.64 447.411 1430.22 462.886L1432.02 465.097C1440.34 475.146 1440.98 481.278 1448.54 490.785C1449.96 492.649 1454.4 494.648 1456.59 494.054C1475.97 488.821 1492.14 452.176 1495.77 434.667C1497.17 427.902 1496.39 409.695 1496.43 403.401C1480.63 395.15 1480.06 389.274 1479.93 372.442C1460.22 372.498 1439.49 377.528 1427.74 357.213ZM1585.91 586.238C1602.56 596.46 1600.8 597.855 1600.49 617.305C1614.28 616.541 1628.09 616.266 1641.9 616.481C1648.09 606.451 1633.9 595.282 1658.81 585.979C1658.21 566.797 1656.56 547.641 1656.02 528.538C1654.74 486.749 1656.07 444.922 1660 403.298C1644.45 397.011 1641.7 390.434 1643.09 373.97C1629.64 373.842 1615.34 373.929 1601.97 373.392L1601.72 374.736C1598.54 393.013 1602.98 394.854 1583.76 402.644C1587.29 442.694 1588.73 482.901 1588.07 523.102C1587.77 542.31 1585.44 568.114 1585.91 586.238Z"/><path fill="#0E0E10" transform="translate(-740 -57)" d="M1023.8 214.41L1025.38 214.32C1045.5 213.336 1080.37 217.611 1095.24 232.413C1117.56 254.632 1116.19 303.232 1116.5 332.314C1141.84 332.25 1194.15 331.141 1212.81 349.199C1240.82 376.32 1240.2 457.459 1213.41 485.141C1195.66 503.489 1143.1 503.841 1117.59 503.685C1115.29 523.201 1116.71 545.05 1113.45 565.524C1111.87 575.423 1105.34 589.173 1104.76 594.895C1102.69 615.595 1101.12 634.171 1097.83 654.898C1101.92 657.083 1107.5 659.706 1111.15 662.428C1135.76 680.8 1120.23 695.73 1096.12 698.174C1032.75 704.594 1041.16 670.306 1037.42 622.575C1033.96 622.056 1027.76 622.251 1024.05 622.252C1022.92 640.708 1021.51 662.975 1017.52 680.597C1012.04 699.67 982.323 699.675 967.111 698.104C927.961 694.059 928.264 670.381 962.714 655.726C961.827 645.671 958.602 600.029 956.226 593.641C943.899 560.489 945.38 538.849 944.314 503.656C937.487 503.781 930.659 503.805 923.831 503.726C902.222 503.327 859.58 501.15 845.459 484.128C820.916 454.544 819.415 375.957 849.567 349.25C869.361 331.717 919.216 331.5 944.295 332.849C944.465 313.588 944.633 295.677 946.524 276.525C951.545 225.697 981.414 219.789 1023.8 214.41Z"/><path fill="#F77E61" transform="translate(-740 -57)" d="M1016.14 225.395C1040.55 221.059 1062.76 225.059 1086.27 237.883C1112.96 252.443 1102.73 335.807 1108.16 338.162C1130.55 347.866 1184.84 336.418 1204.72 355.157C1229.65 378.651 1230.16 448.653 1209.46 475.402C1191.06 496.729 1144.08 493.077 1118.45 493.991C1102.61 494.909 1107.31 506.037 1106.81 515.658C1103.88 572.311 1111.42 605.735 1042.87 611.584C1025.05 614.003 992.743 611.217 977.524 600.62C955.2 585.078 954.975 550.811 955.126 526.538C955.174 518.814 956.074 510.023 954.628 502.425C953.831 498.239 951.816 495.887 947.829 494.475C941.262 492.15 933.223 493.187 926.326 493.224C906.004 493.33 875.02 494.701 858.141 482.173C844.838 472.298 839.968 454.094 837.998 438.413C835.302 416.943 836.42 379.397 850.786 361.845C871.488 336.554 915.919 344.983 944.564 342.135C946.999 341.893 951.455 341.236 953.114 339.112C959.322 331.161 946.966 270.204 968.051 244.548C979.918 230.107 998.704 227.307 1016.14 225.395Z"/><path fill="#0E0E10" transform="translate(-740 -57)" d="M1042.36 425.682C1046.22 426.15 1044.65 425.388 1047.41 427.582C1048.05 429.998 1048.68 432.022 1047.31 434.317C1040 446.561 1026.28 442.963 1017.04 438.939C1014.32 435.016 1012.93 433.427 1014.31 428.494C1020.32 425.139 1025.85 434.864 1033.52 434.434C1037.74 431.997 1039.3 429.473 1042.36 425.682Z"/><path fill="#0E0E10" transform="translate(-740 -57)" d="M1076.9 397.521C1080.5 396.074 1084.59 396.736 1087.55 399.242C1090.5 401.748 1091.82 405.684 1090.98 409.463C1090.13 413.242 1087.26 416.242 1083.52 417.254C1078.2 418.694 1072.67 415.737 1070.92 410.506C1069.16 405.276 1071.79 399.584 1076.9 397.521Z"/><path fill="#0E0E10" transform="translate(-740 -57)" d="M977.17 397.495C982.62 395.735 988.464 398.73 990.219 404.182C991.973 409.634 988.972 415.475 983.519 417.224C978.072 418.971 972.241 415.976 970.489 410.531C968.737 405.087 971.727 399.252 977.17 397.495Z"/><path fill="#F77E61" transform="translate(-740 -57)" d="M967.673 607.235C984.588 616.681 995.18 618.867 1014.12 621.373C1013.73 634.635 1012.23 671.705 1005.27 683.741C1003.49 686.805 995.948 687.334 992.243 687.8C980.949 688.737 958.062 691.646 950.793 681.355C949.174 670.096 964.022 665.963 972.478 662.375C971.817 643.6 967.688 627.733 967.673 607.235Z"/><path fill="#F77E61" transform="translate(-740 -57)" d="M1092.07 608.905L1093.2 609.136C1095.68 614.775 1089.25 654.617 1088.13 662.393C1096.56 665.516 1109.63 669.386 1111.93 679.029C1108.88 690.881 1087.97 688.845 1078.34 688.225C1048.59 687.57 1052.54 679.338 1049.53 652.835C1048.34 642.432 1048.15 631.732 1047.84 621.258C1064.71 620.306 1077.44 617.108 1092.07 608.905Z"/><path fill="#0E0E10" transform="translate(-740 -57)" d="M1205.34 536.169C1225.06 534.8 1234.63 550.269 1229.45 568.341C1223.45 589.284 1202.65 609.376 1183.97 619.673C1178.05 615.377 1173.05 611.35 1167.4 606.701C1154.66 595.502 1142.1 582.919 1139.93 565.019C1138.33 552.472 1144.29 537.068 1158.92 537.03C1170.43 536.999 1177.51 542.792 1185.28 550.197L1186.09 549.357L1187.45 547.972C1194.48 540.735 1196.1 539.453 1205.34 536.169Z"/><path fill="#5EB794" transform="translate(-740 -57)" d="M1157.21 545.008C1171.4 544.239 1172.41 552.72 1181.92 559.579C1187.1 563.316 1207.84 537.119 1216.67 545.985C1229.5 558.864 1218.44 576.836 1209.21 588.376C1201.21 596.754 1194.32 602.316 1185.14 609.295C1166.96 596.474 1129.34 566.952 1157.21 545.008Z"/><path fill="#0E0E10" transform="translate(-740 -57)" d="M852.456 245.405C878.345 241.224 898.476 250.799 913.428 271.828C911.291 294.128 911.182 302.322 888.174 309.912C882.928 310.385 878.859 310.402 873.04 310.342C845.91 310.062 812.578 287.453 830.496 257.795C834.681 250.869 844.13 246.795 852.456 245.405Z"/><path fill="#FBB44D" transform="translate(-740 -57)" d="M856.268 253.249C868.211 252.778 909.35 260.921 904.015 277.455C899.449 282.278 894.413 282.918 888.075 284.262C871.147 284.723 848.28 281.196 836.713 265.991C835.327 264.17 836.525 262.185 837.296 260.444C843.222 255.273 848.769 254.555 856.268 253.249Z"/><path fill="#FBB44D" transform="translate(-740 -57)" d="M834.792 276.926C848.414 283.54 854.948 290.772 873.093 293.027C881.478 294.068 896.22 289.428 900.845 291.548C901.146 294.742 900.671 294.695 899.269 297.896C880.257 305.761 835.319 304.243 834.792 276.926Z"/><path fill="#0E0E10" transform="translate(-740 -57)" d="M853.788 534.162C882.448 532.211 920.388 546.921 917.844 582.641C917.607 585.965 916.003 596.223 916.702 598.583C919.237 607.142 926.939 611.118 919.595 621.217C914.016 617.894 910.917 607.701 908.469 601.568C890.222 601.109 871.403 595.83 860.482 580.083C853.46 569.961 841.549 543.072 853.788 534.162Z"/><path fill="#5EB794" transform="translate(-740 -57)" d="M857.569 541.966C875.708 542.667 898.759 547.384 907.495 565.558C909.621 569.983 911.388 578.293 909.68 582.976C901.46 584.407 896.073 556.608 877.654 563.615C885.791 574.935 894.528 578.056 904.909 593.915C870.755 589.543 860.243 575.237 857.569 541.966Z"/><path fill="#0E0E10" transform="translate(-740 -57)" d="M823.21 779.348C831.606 782.396 832.757 795.452 834.678 803.375C842.147 807.742 856.434 812.33 859.306 818.567C855.463 825.931 840.64 826.609 836.61 831.006C831.915 836.128 832.602 845.783 827.064 854.484C819.166 854.207 817.101 844.215 815.336 837.526C811.863 824.36 793.616 827.5 789.732 817.509C792.169 810.879 807.225 809.8 811.69 804.791C818.313 797.361 817.076 787.296 823.21 779.348Z"/><path fill="#0E0E10" fill-opacity="0.98431373" transform="translate(-740 -57)" d="M914.018 216.467C922.051 218.99 922.375 227.718 920.438 234.558C917.911 234.997 918.636 234.915 916.06 234.709C911.378 230.89 912.83 221.667 914.018 216.467Z"/><path fill="#0E0E10" fill-opacity="0.98431373" transform="translate(-740 -57)" d="M914.969 178.102C923.883 180.889 921.403 189.769 918.746 196.395C910.288 194.11 913.388 184.068 914.969 178.102Z"/><path fill="#0E0E10" fill-opacity="0.97647059" transform="translate(-740 -57)" d="M931.107 203.26C932.079 203.234 933.052 203.223 934.024 203.227C938.309 203.246 940.801 203.408 943.746 206.4C942.779 209.716 943.61 208.135 940.078 210.685C935.389 210.618 929.009 211.068 926.263 206.786C928.263 203.791 927.109 205.158 931.107 203.26Z"/><path fill="#0E0E10" fill-opacity="0.94901961" transform="translate(-740 -57)" d="M890.697 204.176C895.737 204.03 906.174 202.92 908.766 207.993L907.741 209.977C902.241 210.522 897.685 211.459 892.593 209.59C890.005 206.559 890.664 208.286 890.697 204.176Z"/></g></svg>