<?xml version="1.0" encoding="utf-8" ?><svg xmlns="http://www.w3.org/2000/svg" xmlns:xlink="http://www.w3.org/1999/xlink" width="468" height="563" viewBox="0 0 468 563"><clipPath id="sectors-materials-cl_2c"><rect width="468" height="563"/></clipPath><g clip-path="url(#sectors-materials-cl_2c)"><path fill="#040202" transform="translate(-1046 -461)" d="M1264.63 570.189C1267.79 569.785 1273.53 569.107 1276.4 570.299C1311.65 584.913 1376.7 616.741 1407.01 638.38C1418.08 662.736 1415.25 781.295 1409.21 807.727C1398.43 819.619 1354.15 840.934 1337.51 849.569C1338.01 861.277 1339.09 873.422 1339.96 885.142C1376.31 877.852 1396.58 882.745 1412.78 920.322C1415.49 926.602 1413.45 938.14 1405.6 938.939C1386.86 940.847 1315.2 944.407 1301.33 935.705C1296.34 926.838 1298.35 881.666 1298.45 868.92C1289.47 873.635 1284.77 875.299 1275.06 877.681C1263.43 878.431 1254.05 874.683 1243.69 870.021C1244 888.803 1246.57 909.443 1244.77 928.043C1244.48 931.098 1243.97 934.466 1241.33 936.362C1231.57 943.398 1155.54 942.326 1140.71 939.843C1137.43 939.294 1133.19 938.814 1131.38 935.608C1128.87 931.144 1129.62 925.152 1131.02 920.459C1135.27 906.058 1145.11 893.959 1158.34 886.863C1173.84 878.714 1187.51 881.749 1202.92 886.831C1205.01 874.535 1205.76 862.636 1206.37 850.23C1185.45 838.798 1145.54 823.638 1130.82 806.7C1126.02 782.414 1123.31 663.314 1131.81 643.732C1134.06 638.537 1140.37 634.224 1144.97 631.116C1158.63 621.898 1174.25 614.786 1188.85 607.146C1213.76 594.107 1238.31 580.212 1264.63 570.189Z"/><path fill="#F17A5D" transform="translate(-1046 -461)" d="M1401.69 648.922L1403.18 649.823C1410.02 665.035 1407.39 785.83 1402.32 804.902C1392.4 813.334 1372.05 823.81 1360.04 830.063C1333.02 844.091 1305.66 857.433 1277.96 870.076C1275.29 869.953 1276.46 870.42 1274.44 868.7C1272.3 853.09 1273.03 828.951 1273.26 812.949C1273.7 781.044 1275.05 749.431 1274.86 717.463C1286.61 707.007 1316.76 692.695 1331.86 684.964L1401.69 648.922Z"/><path fill="#F17A5D" transform="translate(-1046 -461)" d="M1137.38 648.208C1152.12 654.506 1179.46 669.063 1194.12 676.802C1213.64 687.111 1251.93 703.945 1266.5 718.046C1266.64 732.641 1268.33 865.237 1265.63 870.544C1245.33 862.866 1153.7 817.705 1137.68 804.15C1131.89 772.394 1133.43 680.244 1137.38 648.208Z"/><path fill="#040202" transform="translate(-1046 -461)" d="M1181.33 758.245C1189.64 760.997 1184.84 766.735 1190.96 772.438C1200.5 775.528 1199.2 766.08 1206.45 764.159C1209.07 766.342 1207.92 765.017 1209.04 769.171C1204.79 775.876 1199.93 781.057 1191.19 779.482C1187.54 778.841 1184.36 776.636 1182.47 773.447C1179.24 768.061 1179.9 763.933 1181.33 758.245Z"/><path fill="#040202" transform="translate(-1046 -461)" d="M1168.12 731.53C1171.43 729.514 1175.75 730.552 1177.78 733.852C1179.81 737.152 1178.79 741.472 1175.5 743.517C1172.19 745.575 1167.84 744.548 1165.79 741.228C1163.75 737.907 1164.8 733.559 1168.12 731.53Z"/><path fill="#040202" transform="translate(-1046 -461)" d="M1225.75 746.509C1229.27 745.369 1233.07 747.223 1234.34 750.705C1235.61 754.188 1233.9 758.052 1230.47 759.453C1228.13 760.407 1225.46 760.007 1223.51 758.41C1221.55 756.813 1220.62 754.275 1221.09 751.794C1221.56 749.313 1223.34 747.286 1225.75 746.509Z"/><path fill="#F17A5D" transform="translate(-1046 -461)" d="M1266.21 577.042C1283.13 576.706 1318.04 597.656 1333.83 605.97C1354.94 617.088 1379.62 629.22 1399.39 642.266C1372.13 656.902 1344.39 669.783 1316.95 684.026C1301.6 691.994 1286.15 699.005 1272.11 709.147L1270.74 710.529C1269.19 710.329 1244.9 695.321 1240.21 692.741C1207.62 675.062 1174.6 658.192 1141.18 642.147C1156.87 632.045 1175.51 622.92 1192.1 614.102C1216.65 601.043 1240.8 588.424 1266.21 577.042Z"/><path fill="#F17A5D" transform="translate(-1046 -461)" d="M1327.33 855.044L1328.08 855.412C1331.86 860.061 1332.13 886.104 1334.24 895.868C1347.57 892.738 1364.06 885.003 1377.54 891.041C1389.4 896.355 1411.66 917.379 1404.36 931.8C1401.21 933.749 1397.55 933.629 1393.79 933.93C1363.92 934.785 1335.75 933.716 1305.87 932.944C1305.09 912.325 1305.97 886.648 1306.17 865.562L1327.33 855.044Z"/><path fill="#F17A5D" transform="translate(-1046 -461)" d="M1214.31 854.579L1236.93 866.17C1236.73 888.508 1237.07 910.847 1237.95 933.169C1209.6 932.764 1183.14 935.745 1154.05 934.25C1149.52 934.197 1139.87 934.943 1137.74 930.233C1133.38 920.633 1144.82 908.46 1151.03 901.891C1170.02 881.829 1187.07 888.924 1208.8 897.512C1211.44 883.58 1212.25 868.806 1214.31 854.579Z"/><path fill="#040202" transform="translate(-1046 -461)" d="M1406.4 519.518C1414.69 524.614 1414.4 542.79 1421.46 550.893C1427.49 557.819 1443.02 559.036 1446.78 564.743L1446.24 566.887C1441.17 571.704 1433.44 573.147 1427.31 577.031C1414.74 584.992 1412.74 598.474 1409.65 611.843L1406.73 610.455C1405.02 608.052 1400.02 592.457 1399.67 589.342C1398.02 574.881 1371.5 573.405 1368.58 564.76C1378.47 558.821 1388.09 558.133 1397.03 550.322C1400.39 542.492 1403.85 528.216 1406.4 519.518Z"/><path fill="#75B7F6" transform="translate(-1046 -461)" d="M1408.03 538.579C1417.85 554.662 1413.26 556.01 1433.22 565.654C1417.62 573.981 1415.3 577.596 1408.63 593.315C1407.55 592.28 1408.06 592.921 1407.35 591.646C1399.23 577.123 1397.89 573.252 1383.13 565.934C1399 558.451 1402.08 554.932 1408.03 538.579Z"/></g></svg>