<?xml version="1.0" encoding="utf-8" ?><svg xmlns="http://www.w3.org/2000/svg" xmlns:xlink="http://www.w3.org/1999/xlink" width="674" height="783" viewBox="0 0 674 783"><clipPath id="sectors-technology-cl_3d"><rect width="674" height="783"/></clipPath><g clip-path="url(#sectors-technology-cl_3d)"><path fill="#0E0E10" transform="translate(-116 0)" d="M358.811 214.074C380.113 212.279 381.07 240.587 382.588 255.535C391.218 255.286 399.85 255.123 408.483 255.046C408.061 242.666 408.551 229.428 417.195 219.516C422.945 212.923 432.253 213.005 438.343 219.109C447.556 228.341 447.016 242.204 447.391 254.265C456.2 254.457 465.455 254.197 474.298 254.089C474.916 242.411 474.171 232.23 480.94 221.858C485.927 214.216 495.014 210.936 502.43 217.451C512.729 226.499 513.084 242.326 513.832 255.031C522.755 255.328 529.925 255.219 538.857 254.866C540.895 243.404 541.304 201.227 569.353 218.623C578.076 224.032 578.252 246.998 578.912 257.362C613.853 265.397 617.272 266.032 624.518 303.452C636.545 303.751 679.145 305.942 664.233 332.595C658.734 342.423 638.567 344.449 627.297 345.713C627.007 352.908 627.326 359.786 627.573 366.975C638.647 368.251 679.44 372.995 664.538 397.21C658.633 406.805 639.87 409.064 628.735 409.859C628.649 414.243 627.987 425.568 630.646 428.311C647.077 445.253 675.92 425.717 664.617 465.558C668.338 469.923 671.846 474.465 675.13 479.167C701.466 517.646 713.857 572.406 704.756 618.159C702.87 627.642 698.5 650.381 686.392 651.461C678.1 652.2 678.011 646.994 667.435 655.492C661.348 661.182 653.307 651.308 649.2 651.395C631.12 651.78 624.777 647.941 629.399 627.349C626.989 626.738 624.209 626.136 621.964 625.268C594.978 614.831 618.777 598.354 626.421 584.997C632.132 575.018 626.825 560.559 623.644 550.521C614.097 576.761 605.478 581.214 578.316 584.337C578.253 596.426 579.485 619.157 565.702 625.244C558.433 628.454 553.023 625.44 546.289 622.602C543.93 632.155 543.552 641.287 542.97 651.033C559.314 658.405 584.773 674.059 562.791 691.662C546.533 700.093 528.084 698.175 510.481 697.705C475.595 696.774 470.017 689.116 468.547 656.129L466.323 604.134C466.17 600.657 466.223 589.856 464.33 588.08C460.722 587.662 460.652 587.4 457.282 589.029C452.34 595.216 455.784 600.693 454.959 607.422C450.412 644.559 470.301 701.158 411.199 697.966C395.082 697.222 342.547 703.12 353.265 672.991C357.152 662.065 370.082 655.634 379.962 651.3C378.617 641.263 377.89 632.405 376.066 622.338C369.572 625.024 362.394 629.112 355.341 626.06C343.228 620.818 342.953 596.269 341.404 584.703C300.237 578.715 307.729 559.421 297.933 554.76C293.852 561.844 293.763 579.512 294.182 587.829C310.348 600.872 327.247 620.022 294.916 625.351C294.842 646.746 293.473 654.891 269.997 649.923C262.748 657.493 261.988 656.976 252.64 653.011C245.645 650.044 236.418 654.258 230.052 648.315C218.39 637.428 218.154 617.172 216.026 602.366C211.523 552.223 225.477 503.853 257.993 465.26C256.503 462.42 254.782 459.123 254.376 455.908C253.875 451.834 254.999 447.726 257.504 444.475C265.305 434.537 282.938 433.711 294.675 432.533C294.585 424.644 294.536 416.754 294.527 408.865C282.114 408.227 241.98 404.39 258.152 379.241C264.164 369.892 284.304 368.132 295.361 367.56C295.892 359.383 295.799 352.309 295.696 344.094C284.148 342.858 240.929 338.464 258.245 313.038C264.542 303.792 286.073 304.237 297.495 304.236C302.543 272.862 309.255 259.533 343.722 257.934C342.762 241.635 342.344 222.709 358.811 214.074Z"/><path fill="#78BCF7" transform="translate(-116 0)" d="M408.679 264.552C448.642 262.915 489.036 263.623 529.001 265.037C547.878 265.705 567.736 265.579 586.345 268.9C592.447 269.989 600.084 271.676 604.76 275.908C612.377 282.802 613.562 295.126 614.385 304.769C617.757 344.281 624.472 544.647 604.917 566.026C594.493 577.423 529.878 575.618 511.511 576.134C468.975 577.6 426.401 577.518 383.871 575.888C366.355 575.347 314.977 579.135 311.178 555.483C300.937 491.728 303.834 426.266 305.478 361.568C306.002 340.96 304.184 295.962 316.287 277.101C329.449 263.916 389.278 264.904 408.679 264.552Z"/><path fill="#0E0E10" transform="translate(-116 0)" d="M421.162 290.553C451.798 288.723 550.193 286.483 576.096 298.067C581.123 300.315 583.109 304.312 584.762 309.376C594.806 340.142 592.753 481.692 587.41 518.388C586.241 526.416 584.767 533.615 581.074 540.913C564.284 551.426 521.63 550.288 500.5 550.747C473.733 551.413 358.861 557.074 341.748 540.105C339.077 537.457 337.291 534.192 336.258 530.589C331.494 513.976 332.049 476.908 331.434 458.013C330.568 431.412 327.091 316.292 342.014 301.719C354.592 289.435 403.967 290.948 421.162 290.553Z"/><path fill="#78BCF7" transform="translate(-116 0)" d="M452.276 299.489C477.034 299.273 549.524 297.407 569.289 305.166C572.805 306.546 574.23 308.615 575.553 312.039C585.427 337.6 582.802 477.818 579.421 508.988C578.466 517.788 577.412 526.221 573.687 534.33C553.406 541.169 492.103 541.165 469.25 541.59C449.619 541.987 360.668 543.464 350.453 535.268C333.775 521.887 339.465 324.443 348.467 308.311C360.977 299.276 433.668 299.742 452.276 299.489Z"/><path fill="#0E0E10" transform="translate(-116 0)" d="M429.683 419.281C449.796 424.396 457.877 436.789 481.394 423.65C484.58 421.869 489.712 419.98 493.249 421.462C494.258 423.818 493.562 424.916 492.864 427.483C477.62 439.283 427.015 445.687 429.683 419.281Z"/><path fill="#0E0E10" transform="translate(-116 0)" d="M407.49 391.501C412.759 389.928 418.313 392.887 419.944 398.138C421.576 403.389 418.679 408.975 413.446 410.665C410.009 411.775 406.241 410.953 403.58 408.512C400.918 406.071 399.773 402.388 400.582 398.868C401.391 395.348 404.03 392.535 407.49 391.501Z"/><path fill="#0E0E10" transform="translate(-116 0)" d="M507.992 391.478C511.326 390.032 515.182 390.506 518.066 392.718C520.95 394.929 522.409 398.529 521.879 402.125C521.348 405.72 518.91 408.745 515.51 410.029C510.425 411.947 504.738 409.459 502.697 404.422C500.656 399.386 503.006 393.64 507.992 391.478Z"/><path fill="#78BCF7" transform="translate(-116 0)" d="M265.293 470.638C275.027 472.356 285.091 473.128 294.948 474.063C294.94 482.081 295.605 490.867 296.05 498.931C284.218 499.772 240.213 502.986 257.733 528.812C263.66 537.549 283.58 538.295 294.345 539.036C266.058 598.045 302.197 597.578 302.643 613.403C298.908 619.624 290.106 611.19 285.238 614.314C277.207 619.467 287.448 630.203 283.703 639.985C280.586 642.748 281.997 641.95 277.27 642.379C273.05 636.61 271.436 624.41 265.837 622.908C259.975 627.635 266.354 641.628 261.422 647.148L259.275 646.943C247.91 639.012 254.324 628.116 245.375 623.511L243.745 624.396C241.166 629.734 242.78 639.596 239.146 642.349C232.377 639.625 228.483 625.341 227.43 618.56C218.535 561.25 231.613 517.195 265.293 470.638Z"/><path fill="#78BCF7" transform="translate(-116 0)" d="M654.463 471.407L656.19 471.535C662.852 476.517 667.924 485.541 672.247 492.906C695.418 532.389 703.669 583.383 692.821 627.985C691.48 633.498 689.458 638.792 684.425 641.618C677.512 639.759 682.719 627.397 677.312 622.862C669.355 626.425 672.088 643.027 663.328 647.285C656.261 645.314 662.508 629.493 656.375 622.669L654.188 623.486C650.563 627.293 650.397 631.32 648.887 636.766C646.109 640.282 644.563 642.56 639.787 641.916C633.994 634.836 644.695 621.555 637.914 614.174C631.131 612.489 624.663 618.474 620.402 614.004C619.32 603.19 632.788 600.293 637.024 587.524C642.588 570.75 634.953 554.185 628.664 539.044C641.668 538.637 667.238 536.559 667.942 520.227C668.784 500.693 638.536 499.172 626.447 498.831L627.415 474.056C636.59 473.436 645.341 472.436 654.463 471.407Z"/><path fill="#78BCF7" transform="translate(-116 0)" d="M513.202 586.125L539.142 585.772C538.743 608.492 533.631 635.796 531.724 659.198C540.839 662.272 556.525 666.791 559.169 677.105C557.581 690.816 531.733 688.3 521.5 688.075C476.622 688.296 477.627 679.938 478.371 638.934C478.488 632.461 478.09 624.673 477.919 618.086C492.354 634.731 506.871 630.303 511.635 609.039C513.36 601.342 513.11 593.995 513.202 586.125Z"/><path fill="#78BCF7" transform="translate(-116 0)" d="M382.741 585.985C391.173 586.029 399.603 586.225 408.027 586.573C408.921 599.476 409.115 616.626 419.828 625.61C430.136 634.254 439.563 624.26 444.945 615.769C444.973 631.697 445.732 666.66 439.067 681.292C437.325 685.117 430.355 685.97 426.159 686.838C411.312 688.473 371.749 691.655 361.522 680.317C358.449 669.97 383.104 661.928 390.495 659.425C389.59 636.945 385.457 608.681 382.741 585.985Z"/><path fill="#FBB44D" transform="translate(-116 0)" d="M351.969 583.933L373.098 585.097C372.677 597.036 372.018 603.514 368.917 614.996C367.633 616.03 366.331 616.783 364.936 617.678C351.618 618.644 352.579 593.791 351.969 583.933Z"/><path fill="#FBB44D" transform="translate(-116 0)" d="M624.981 312.989C633.973 312.879 653.759 312.038 657.309 321.921C657.404 326.015 656.595 326.694 654.403 330.408C644.178 333.586 636.76 333.776 626.067 334.108C626.059 327.064 625.464 320.019 624.981 312.989Z"/><path fill="#FBB44D" transform="translate(-116 0)" d="M286.876 313.41L297.234 312.913L296.785 334.292C290.607 334.055 283.781 333.344 277.556 332.818C272.115 331.995 266.184 330.875 264.36 324.987C265.957 314.832 278.952 313.924 286.876 313.41Z"/><path fill="#FBB44D" transform="translate(-116 0)" d="M557.448 584.423L569.756 584.127C569.085 597.888 570.156 607.871 561.399 618.945C549.716 613.812 545.745 598.176 550 586.966C552.969 584.101 552.303 585.016 557.448 584.423Z"/><path fill="#FBB44D" transform="translate(-116 0)" d="M556.245 223.612C563.747 224.307 566.548 229.906 568.405 236.545C570.159 242.815 573.659 255.339 565.245 257.135C559.957 256.991 554.19 256.45 548.876 256.062C549.339 242.895 548.991 235.024 556.245 223.612Z"/><path fill="#FBB44D" transform="translate(-116 0)" d="M626.135 508.034C636.122 508.778 653.833 508.126 657.423 518.987C656.785 523.046 656.343 523.256 653.612 526.559C644.15 528.236 634.457 528.924 624.878 529.78C625.138 522.688 625.714 515.157 626.135 508.034Z"/><path fill="#FBB44D" transform="translate(-116 0)" d="M285.507 509.367L295.866 508.638C296.611 515.867 296.859 522.932 297.179 530.187L280.757 528.751C274.288 528.113 268.063 527.75 265.296 521.036C265.467 510.891 278.184 510.028 285.507 509.367Z"/><path fill="#FBB44D" transform="translate(-116 0)" d="M360.081 223.551C371.899 226.052 375.613 243.775 372.005 253.95C369.143 256.71 369.977 255.848 365.313 256.665L352.484 257.12C352.436 243.509 351.694 234.46 360.081 223.551Z"/><path fill="#FBB44D" transform="translate(-116 0)" d="M288.903 378.381C290.435 378.264 291.205 378.42 292.74 378.558C296.96 383.475 295.177 392.557 294.781 399.509C287.097 398.893 280.251 398.244 272.616 397.227C268.141 395.438 267.18 395.221 263.945 391.769C260.767 381.043 281.824 379.021 288.903 378.381Z"/><path fill="#FBB44D" transform="translate(-116 0)" d="M290.864 443.393C292.712 443.622 291.804 443.388 293.527 445.071C294.929 450.826 294.667 458.184 294.725 464.224C287.118 464.202 278.122 463.159 270.422 462.458C265.506 459.56 262.253 457.55 264.246 451.564C271.075 444.732 281.722 444.176 290.864 443.393Z"/><path fill="#FBB44D" transform="translate(-116 0)" d="M483.875 586.842C509.682 585.753 507.263 592.327 500.102 614.269C484.413 629.178 484.1 594.766 483.875 586.842Z"/><path fill="#FBB44D" transform="translate(-116 0)" d="M627.936 377.875C639.519 378.216 663.556 377.215 655.097 395.345C645.455 398.492 638.638 398.711 628.612 399.111C628.285 392.114 628.153 384.896 627.936 377.875Z"/><path fill="#FBB44D" transform="translate(-116 0)" d="M417.847 586.789L438.974 587.028C437.955 597.473 437.34 603.789 435.009 614.116C433.601 615.433 432.422 616.244 430.869 617.418C417.765 619.352 418.329 595.856 417.847 586.789Z"/><path fill="#FBB44D" transform="translate(-116 0)" d="M628.213 442.915C640.339 443.508 663.522 442.593 654.704 461.177C645.41 463.483 637.472 463.852 627.967 464.177L628.213 442.915Z"/><path fill="#FBB44D" transform="translate(-116 0)" d="M424.34 223.745C425.119 223.8 425.897 223.855 426.676 223.91C436.739 223.69 443.333 249.794 435.06 253.989L417.84 254.389C418.139 242.39 418.14 234.459 424.34 223.745Z"/><path fill="#FBB44D" transform="translate(-116 0)" d="M490.375 223.72C505.691 224.681 508.541 252.498 499.25 254.087L483.013 253.96C484.09 241.912 483.992 234.306 490.375 223.72Z"/><path fill="#0E0E10" transform="translate(-116 0)" d="M229.465 238.256C277.149 234.008 270.535 296.157 215.162 307.306C191.548 309.526 177.904 287.347 188.43 266.699C196.257 251.345 213.408 242.923 229.465 238.256Z"/><path fill="#FBB44D" transform="translate(-116 0)" d="M235.083 245.213C239.686 245.265 243.51 246.507 246.405 250.09C246.924 255.206 243.497 259.199 240.422 262.931C229.807 275.812 217.354 283.264 201.225 287.074C195.983 286.486 192.662 285.493 190.13 280.709C190.139 277.93 190.755 275.63 192.434 273.399C204.05 257.967 216.406 249.035 235.083 245.213Z"/><path fill="#FBB44D" transform="translate(-116 0)" d="M251.258 260.622C265.008 281.886 221.377 299.229 204.897 300.835C202.688 298.577 202.766 298.691 201.359 295.864C203.104 293.705 218.079 291.038 222.877 288.419C236.525 280.971 242.969 273.239 251.258 260.622Z"/><path fill="#0E0E10" transform="translate(-116 0)" d="M291.935 169.157C332.52 171.133 317.873 225.405 289.945 233.13C286.33 232.885 282.843 232.477 279.437 231.131C273.677 228.796 269.155 224.158 266.966 218.34C260.138 200.402 274.143 175.178 291.935 169.157Z"/><path fill="#FBB44D" transform="translate(-116 0)" d="M289.901 176.644C312.021 178.621 288.51 213.37 280.223 221.038C259.649 217.288 280.688 184.177 289.901 176.644Z"/><path fill="#FBB44D" transform="translate(-116 0)" d="M305.131 181.726C319.811 192.938 301.558 217.119 292.178 226.425L289.575 225.889C289.225 225.402 288.874 224.914 288.524 224.426C290.543 221.669 296.877 213.742 298.191 211.332C304.06 200.565 304.652 193.205 305.131 181.726Z"/><path fill="#0E0E10" transform="translate(-116 0)" d="M678.573 200.325C688.483 202.998 685.774 208.876 688.781 216.764C692.641 226.891 709.596 230.384 713.82 237.844C712.006 245.504 699.285 245.113 693.428 251.9C687.61 258.641 687.065 266.989 683.173 275.677C672.598 272.222 673.154 264.409 671.147 254.473C663.252 247.85 650.204 243.092 647.388 237.817C649.947 230.578 663.001 228.979 667.57 224.02C671.944 219.272 676.233 206.692 678.573 200.325Z"/><path fill="#FBB44D" transform="translate(-116 0)" d="M680.264 216.972C689.579 227.566 684.297 229.001 701.481 237.721C689.901 243.892 687.438 245.971 681.727 257.597C678.273 257.475 676.11 250.721 673.293 247.593C669.165 243.009 666.031 241.081 660.945 238.003C672.185 231.064 674.636 228.684 680.264 216.972Z"/><path fill="#0E0E10" transform="translate(-116 0)" d="M822.616 780.219C831.429 781.906 833.3 795.396 834.978 802.78C842.176 808.137 855.151 812.584 858.755 816.524C858.36 824.182 840.634 827.133 836.928 831.088C831.964 836.386 831.41 846.387 826.444 854.669C815.608 850.701 819.658 838.18 810.597 830.466C805.011 825.711 793.745 824.432 790.776 819.506C792.376 811.758 807.107 809.626 812.289 803.356C817.882 796.588 817.677 789.228 822.616 780.219Z"/><path fill="#0E0E10" transform="translate(-116 0)" d="M624.686 172.187C632.86 173.74 632.936 179.068 634.982 186.114C638.873 189.468 648.245 193.448 648.376 198.445C634.491 206.584 633.663 207.441 631.577 222.801C620 220.489 625.232 216.468 618.873 207.511C617.534 205.626 609.915 201.142 607.227 199.278C604.029 192.466 618.43 189.622 621.349 182.815C622.955 179.07 623.684 176.108 624.686 172.187Z"/><path fill="#FBB44D" transform="translate(-116 0)" d="M627.372 186.641L636.465 197.319C633.035 200.575 630.706 203.616 627.742 207.263C623.669 203.637 621.943 201.128 618.645 196.858C622.604 193.142 624.184 190.901 627.372 186.641Z"/></g></svg>