<?xml version="1.0" encoding="utf-8" ?><svg xmlns="http://www.w3.org/2000/svg" xmlns:xlink="http://www.w3.org/1999/xlink" width="507" height="563" viewBox="0 0 507 563"><clipPath id="sectors-utilities-cl_2b"><rect width="507" height="563"/></clipPath><g clip-path="url(#sectors-utilities-cl_2b)"><path fill="#040202" transform="translate(-1488 -461)" d="M1712.16 587.456C1722.67 586.748 1734.88 587.844 1745.11 590.193C1775.05 596.844 1801.02 615.328 1817.11 641.435C1842.13 681.623 1840.27 732.966 1812.42 771.242C1787.72 804.885 1778.98 791.474 1767.25 841.193C1775.17 851.312 1774.95 854.871 1768.6 865.488C1774.3 878.308 1774.03 881.169 1765.72 892.278C1770.14 910.899 1766.97 912.587 1749.96 918.659C1743.48 931.019 1738.71 934.903 1726.14 939.805C1706.75 942.751 1696.96 933.569 1687.63 917.893C1669.66 912.76 1671.54 908.344 1672.4 890.833C1661.26 874.316 1671.79 877.067 1669.86 864.108C1668.62 855.822 1658.63 857.704 1671.89 842.562C1665.3 813.924 1659.73 804.294 1638.29 784.065C1585.81 734.542 1594.5 646.892 1654.9 607.67C1673.44 595.632 1690.35 590.298 1712.16 587.456Z"/><path fill="#FBB148" transform="translate(-1488 -461)" d="M1708.11 595.357C1720.46 594.246 1731.91 594.612 1744.02 597.413C1771.78 603.757 1795.85 620.933 1810.88 645.119C1834.13 682.648 1833.72 733.812 1805.64 768.499C1795.14 781.465 1781.82 791.569 1772.98 805.216C1766.61 815.039 1763.96 828.135 1761.3 839.5L1734.25 839.302L1678.75 839.302C1669.18 813.564 1668.45 801.139 1646.36 781.925C1628.55 766.431 1615.87 742.978 1612.14 719.447C1607.81 691.132 1614.96 662.259 1632.02 639.246C1650.94 613.536 1676.96 599.946 1708.11 595.357Z"/><path fill="#040202" transform="translate(-1488 -461)" d="M1693.5 718.551C1702.15 719.574 1710.51 727.282 1721.04 727.496C1731.55 727.709 1735.58 718.665 1743.47 720.168C1744.87 722.91 1744.53 721.425 1743.72 724.866C1728.74 736.388 1700.25 740.976 1693.5 718.551Z"/><path fill="#040202" transform="translate(-1488 -461)" d="M1755.83 693.504C1760.08 692.546 1764.31 695.187 1765.32 699.425C1766.32 703.663 1763.73 707.92 1759.5 708.97C1756.72 709.66 1753.79 708.805 1751.82 706.732C1749.85 704.658 1749.15 701.686 1749.98 698.949C1750.81 696.212 1753.04 694.133 1755.83 693.504Z"/><path fill="#040202" transform="translate(-1488 -461)" d="M1679.28 693.551C1683.47 692.487 1687.74 694.972 1688.88 699.137C1690.02 703.303 1687.61 707.615 1683.47 708.832C1680.72 709.64 1677.75 708.9 1675.7 706.897C1673.65 704.895 1672.84 701.942 1673.58 699.175C1674.33 696.408 1676.51 694.257 1679.28 693.551Z"/><path fill="#75B7F6" transform="translate(-1488 -461)" d="M1697.68 846.499C1715.01 846.166 1746.23 843.97 1763.18 849.749C1764.59 850.227 1766.16 852.85 1766.35 854.568C1767.58 865.462 1751.14 863.557 1743.8 863.833C1733.02 863.952 1684.76 863.108 1675.89 861.349C1671.49 857.263 1672.82 852.024 1676.62 848.075C1682.55 845.829 1690.9 846.562 1697.68 846.499Z"/><path fill="#75B7F6" transform="translate(-1488 -461)" d="M1686.73 870.348C1704.55 869.417 1723.67 870.79 1741.64 870.087C1749.41 869.783 1769.86 869.754 1763.94 882.988C1760.76 885.917 1759.37 885.877 1754.99 886.989C1740.37 887.606 1678.53 891.315 1672.79 878.998C1673.57 871.781 1681.19 871.149 1686.73 870.348Z"/><path fill="#75B7F6" transform="translate(-1488 -461)" d="M1682.57 894.361C1697.19 893.991 1712.26 893.351 1726.85 893.676C1735.68 893.873 1759.69 892.558 1760.92 903.996C1759.73 907.435 1758.27 908.11 1755.41 910.366C1741.14 911.37 1725.71 911.455 1711.39 911.272C1702.22 911.155 1680.53 912.211 1677.98 901.369C1678.99 897.557 1679.82 897.111 1682.57 894.361Z"/><path fill="#75B7F6" transform="translate(-1488 -461)" d="M1697.95 918.182C1712.22 917.459 1728.36 917.859 1742.8 917.933C1740.48 921.459 1737.81 924.548 1735.14 927.818C1720.24 937.303 1706.01 934.328 1697.95 918.182Z"/><path fill="#040202" transform="translate(-1488 -461)" d="M1831.16 836.625C1847.64 840.466 1902.71 929.75 1835.5 940.356C1826.64 940.323 1815.37 938.145 1808.86 932.016C1779.73 904.6 1813.96 857.867 1831.16 836.625Z"/><path fill="#75B7F6" transform="translate(-1488 -461)" d="M1831.86 846.483C1840.78 850.169 1856.6 881.574 1859.47 891.613C1866.03 914.6 1857.35 926.796 1835.96 933.488C1804.96 932 1799.29 909.834 1809.58 884.198C1815.28 870.002 1823.07 858.785 1831.86 846.483Z"/><path fill="#FBB148" transform="translate(-1488 -461)" d="M1716.07 521.634C1720.81 522.161 1724.16 523.719 1725.12 528.792C1727.16 539.53 1728.42 557.226 1723.23 566.809C1721.51 567.1 1720.77 566.928 1719.01 566.846C1709.52 561.278 1712.12 529.655 1716.07 521.634Z"/><path fill="#FBB148" transform="translate(-1488 -461)" d="M1545.23 694.514C1553.1 694.274 1580.67 691.716 1579.91 703.456C1577.17 706.404 1577.96 705.494 1573.46 706.724C1563.94 706.657 1544.77 709.347 1538.07 702.633C1537.09 698.997 1537.13 700.814 1538.23 696.989C1540.02 694.964 1542.42 695.003 1545.23 694.514Z"/><path fill="#FBB148" transform="translate(-1488 -461)" d="M1842.53 570.64C1846.56 570.58 1847.02 570.685 1849.53 573.284C1850.81 582.069 1830.11 599.875 1823.69 605.783C1821.9 606.207 1821.61 605.949 1819.66 605.769C1810.64 598.378 1836.8 576.228 1842.53 570.64Z"/><path fill="#FBB148" transform="translate(-1488 -461)" d="M1863.13 695.381C1870.46 694.631 1902.87 691.419 1901.85 703.056C1899.49 706.485 1901.02 705.204 1896.91 706.789C1888.19 706.415 1860.01 709.679 1858.07 700.221C1859.76 697.21 1860.26 697.221 1863.13 695.381Z"/><path fill="#FBB148" transform="translate(-1488 -461)" d="M1590.57 569.368C1599.05 571.011 1614.66 589.049 1619.53 596.73C1621.14 599.268 1619.9 601.655 1619.12 604.132C1609.27 603.548 1595.04 587.133 1590.32 578.756C1588.17 574.932 1589.36 573.065 1590.57 569.368Z"/></g></svg>