<?xml version="1.0" encoding="utf-8" ?><svg xmlns="http://www.w3.org/2000/svg" xmlns:xlink="http://www.w3.org/1999/xlink" width="681" height="801" viewBox="0 0 681 801"><clipPath id="money-emergency-fund-cl_7"><rect width="681" height="801"/></clipPath><g clip-path="url(#money-emergency-fund-cl_7)"><path fill="#100E16" transform="translate(-723 0)" d="M1183.17 1028.61C1185.86 1020.63 1196.15 983.593 1194.28 978.267C1183.57 947.631 1177.27 923.649 1186.05 889.989C1194.24 858.647 1221.09 834.149 1249.86 818.966C1258.77 814.266 1289.45 796.505 1300.98 798.601C1313.35 806.127 1308.44 878.053 1306.81 888.509C1305.42 897.548 1303.01 906.401 1299.63 914.899C1282.67 957.295 1253.46 967.712 1215.3 984.298C1205.26 1011.01 1200.57 1042.23 1198.76 1070.65C1207.41 1064.12 1211.75 1060.42 1218.14 1051.69C1224.71 995.876 1273.69 972.785 1325.1 981.715C1331.34 982.8 1344.04 982.685 1348.34 986.963C1350.15 991.817 1348.6 996.23 1346.28 1000.69C1316.45 1058.04 1292.23 1076.99 1228.14 1067.68C1224.98 1072.69 1222.53 1077.46 1219.79 1082.69C1240.28 1082.33 1259.94 1097.83 1257.94 1120C1257.08 1129.55 1251.01 1134.89 1243.95 1140.42C1248.15 1142.11 1251.92 1143.43 1256.19 1144.88C1271 1151.88 1271.24 1167.16 1269.09 1181.72C1267.63 1191.6 1266.28 1195.69 1258.1 1201.62C1254.74 1218.94 1250.31 1270.35 1240.48 1282.07C1232.32 1291.81 1216.21 1293.78 1204.29 1294.97C1181.84 1297.21 1147.54 1297.31 1129.13 1282.33C1123.54 1270.23 1118.58 1244.14 1115.6 1230.18C1093.88 1229.87 1077.04 1228.28 1056.87 1220.32C1046.11 1226.91 1036.91 1231.22 1025.49 1236.55C1024.68 1243.76 1024.28 1251.45 1023.78 1258.74C1084.58 1286.9 997.4 1306.1 989.327 1280.44C987.707 1275.3 987.434 1253.47 986.956 1246.39C971.584 1247.06 959.325 1247.35 943.98 1246.95L943.996 1263.05C997.804 1284.82 928.738 1306.63 911.563 1290.56C903.694 1283.19 905.606 1250.65 905.487 1237.81C889.411 1231.65 876.177 1225.09 862.263 1214.83C823.42 1186.71 797.567 1144.1 790.558 1096.66C784.229 1052.58 799.384 1001.14 826.038 965.848C852.849 930.351 896.286 907.303 940.023 901.29C984.24 895.312 1029.04 906.881 1064.84 933.519C1058.8 906.902 1058.66 884.822 1060.01 858.141C1136.87 875.913 1184.42 911.307 1168.49 995.922C1172.85 1006.82 1177.51 1018.34 1183.17 1028.61ZM1128.64 1023.64C1139.06 1030.99 1140.58 1032.56 1147.85 1042.79C1155.31 1053.27 1157.28 1076.54 1168.59 1080.15C1173.34 1055.84 1160.71 1027.57 1153.2 1005.68C1141.09 1001.22 1132.88 997.282 1120.15 994.014C1120.25 999.701 1126.92 1015.37 1128.64 1023.64Z"/><path fill="#100E16" transform="translate(-723 0)" d="M1069.43 183.968C1089.19 181.49 1084.65 202.694 1083.77 215.626C1128.56 227.911 1168.91 252.728 1200.08 287.16C1238.2 330.095 1261.26 391.303 1261.12 449.725C1261.11 452.336 1260.31 453.13 1258.46 454.55C1250.64 454.317 1238.54 442.858 1230.79 437.937C1225.5 434.574 1219.83 431.848 1213.9 429.815C1181.37 418.707 1150.16 426.136 1120.33 440.981C1093.91 413.681 1079.71 404.833 1044.7 393.062C1038.73 438.645 1025.68 485.429 1018.67 531.101C1015.79 549.816 1011.85 572.064 1006.69 590.116L1013.41 597.131C1013.07 622.503 1004.9 663.44 985.217 681.952C959.912 705.752 926.603 696.915 905.286 672.749C893.648 657.081 885.426 607.338 920.346 610.613C935.029 611.99 929.576 649.94 942.421 654.456C963.916 653.704 963.893 614.331 968.537 598.718C971.453 588.914 981.101 584.22 981.325 583.109C994.345 518.51 1006.86 453.759 1019.66 389.102C987.379 383.983 962.907 390.865 933.78 404.507C925.848 396.411 919.797 388.847 910.924 381.176C888.766 361.95 859.371 353.255 830.319 357.334C821.563 358.543 808.153 364.379 800.951 363.54C794.453 352.804 830.031 303.145 837.839 293.464C879.819 241.409 944.571 211.63 1010.8 207.925C1025.67 207.093 1040.67 208.595 1055.47 210.055C1059.59 200.103 1060.85 190.461 1069.43 183.968Z"/><path fill="#A29CEA" transform="translate(-723 0)" d="M1065.12 220.017C1074.91 222.023 1086.63 237.013 1092.19 244.906C1131.82 301.174 1129.83 366.107 1119.44 430.33C1092.35 401.475 1070.57 392.275 1032.89 383.201C994.374 376.855 973.795 378.656 938.083 393.844C956.048 316.552 985.208 248.696 1065.12 220.017Z"/><path fill="#100E16" transform="translate(-723 0)" d="M1025.57 325.325C1034.3 326.467 1038.87 336.441 1046.79 336.062C1051.04 335.858 1055.37 332.883 1061.48 332.456C1064.82 334.098 1063.49 332.861 1065.16 336.747C1054.65 346.553 1027.12 345.507 1025.57 325.325Z"/><path fill="#100E16" transform="translate(-723 0)" d="M1085.46 313.563C1088.89 313.054 1092.14 315.259 1092.93 318.636C1093.73 322.013 1091.8 325.433 1088.5 326.502C1086.11 327.277 1083.48 326.641 1081.71 324.856C1079.94 323.072 1079.32 320.442 1080.11 318.056C1080.91 315.669 1082.98 313.932 1085.46 313.563Z"/><path fill="#100E16" transform="translate(-723 0)" d="M1010.28 298.533C1013.82 297.805 1017.3 300.039 1018.11 303.565C1018.92 307.091 1016.77 310.618 1013.26 311.511C1010.92 312.107 1008.44 311.388 1006.78 309.632C1005.12 307.876 1004.54 305.358 1005.27 303.054C1006 300.749 1007.91 299.019 1010.28 298.533Z"/><path fill="#A29CEA" transform="translate(-723 0)" d="M1083.52 224.928C1118.15 232.615 1154.26 253.848 1180.27 277.726C1226.85 320.487 1251.91 382.385 1254.2 445.146L1243.76 437.88C1235.99 432.671 1227.66 428.328 1218.94 424.929C1185.94 412.182 1156.9 417.031 1125.56 430.999C1128.52 415.713 1130.51 400.255 1131.52 384.719C1135.59 322.177 1125.28 272.581 1083.52 224.928Z"/><path fill="#A29CEA" transform="translate(-723 0)" d="M1005.26 216.406C1017.16 214.754 1039.45 216.486 1051.77 217.323C1023.43 231.864 1008.02 241.315 987.234 266.417C956.157 303.957 943.346 344.969 932.252 390.973C915.369 373.167 906.903 366.685 884.332 356.888C854.643 347.225 838.558 346.975 808.551 355.413C816.95 335.405 828.234 316.735 842.045 299.999C883.189 249.594 941.335 222.933 1005.26 216.406Z"/><path fill="#A29CEA" transform="translate(-723 0)" d="M980.465 592.024C983.616 591.964 986.769 592.014 989.916 592.176C999.062 592.739 1008.22 597.099 1005.83 607.94C1000.56 631.005 999.342 663.958 978.234 679.338C952.758 697.902 924.092 686.957 907.574 663.482C905.704 658.737 904.221 653.849 903.141 648.865C901.404 640.69 900.748 617.724 914.14 617.454C927.339 617.187 923.413 654.262 936.032 659.695C939.695 661.272 941.871 663.12 946.603 661.798C977.43 653.404 964.939 614.505 980.465 592.024Z"/><path fill="#100E16" transform="translate(-723 0)" d="M975.803 625.482C981.332 626.987 987.057 629.271 993.274 630.026C994.282 630.149 994.294 632.003 994.504 633.044C984.221 636.463 978.876 637.706 975.803 625.482Z"/><path fill="#FDF2E0" transform="translate(-723 0)" d="M1026.44 389.672L1039.06 392.432C1025.15 457.212 1013.86 521.732 1000.58 586.435C999.082 586.627 990.485 584.664 988.398 584.237C991.774 562.095 998.071 534.114 1002.44 511.752L1026.44 389.672Z"/><path fill="#FDF2E0" transform="translate(-723 0)" d="M1072.52 190.505C1078.78 195.135 1079.97 209.256 1072.65 213.168C1067.76 212.03 1067.67 212.178 1065.41 208.032C1065.02 201.046 1068.79 196.591 1072.52 190.505Z"/><path fill="#140C0D" transform="translate(-723 0)" d="M1113.65 506.923C1113.29 494.526 1112.93 484.667 1122.05 474.567C1127.99 468.041 1136.38 464.281 1145.2 464.186C1154.1 463.971 1162.7 467.375 1169.03 473.619C1176.66 481.144 1179.76 490.77 1180.83 501.169C1189.86 503.194 1200 505.694 1209.01 507.182C1222.25 500.353 1224.39 501.315 1230.6 514.978C1263.68 496.511 1264.43 515.145 1256.99 541.961C1266.08 556.21 1268.04 565.02 1275.12 577.954C1292.68 584.846 1302.59 598.651 1291.41 616.801C1285.77 625.967 1277.44 629.084 1267.9 632.544C1260.6 641.933 1254.74 648.952 1246.78 657.781C1246.73 679.232 1247.89 695.662 1219.52 693.828C1218.45 693.757 1217.39 693.674 1216.32 693.579C1200.98 714.082 1175.88 711.817 1168.97 685.553C1152.2 685.343 1139.85 683.924 1124.02 679.03C1119.44 694.236 1108.03 702.471 1091.94 697.534C1085.85 695.637 1080.77 691.403 1077.8 685.761C1074.35 679.123 1074.82 664.075 1072.09 657.191C1068.54 648.199 1061.95 638.857 1056.94 630.42C1048.25 615.774 1042.75 592.987 1047.07 576.163C1051.48 573.039 1052.09 569.332 1052.04 564.284C1052.19 561.068 1053.88 557.388 1055.08 554.272C1068.98 529.494 1086.83 516.416 1113.65 506.923Z"/><path fill="#FBB34E" transform="translate(-723 0)" d="M1178.01 508.503C1186.62 509.292 1191.96 510.838 1200.39 513.027C1195.65 517.91 1187.36 525.709 1188.55 533.275C1196.34 532.907 1208.99 508.882 1219.89 510.06C1224.05 514.464 1219.51 537.484 1225.67 540.157C1229.61 537.366 1228.97 530.48 1229.12 526.009C1250.55 543.889 1256.91 551.126 1266.12 577.237C1256.18 580.172 1247.8 583.894 1242.79 593.751C1239.61 599.976 1239.1 607.224 1241.37 613.832C1244.86 624.069 1251.88 627.84 1260.68 632.182C1254.68 639.945 1234.48 666.204 1221.29 665.171C1218.76 664.973 1219.14 664.517 1216.4 665.425C1206.63 676.583 1218.32 706.804 1186.49 699.382C1178.81 697.592 1175.35 682.628 1172.04 675.466L1170.31 674.857C1150.96 687.959 1113.22 664.742 1106.09 670.368L1106.61 672.226C1110.22 675.884 1112.64 676.7 1117.22 678.949C1111.5 695.059 1095.77 697.213 1085.35 683.587C1079.83 676.364 1082.28 661.839 1077.72 652.811C1073.09 643.649 1067.28 635.826 1062.15 627.017C1052.75 610.691 1050.38 591.246 1055.6 573.144C1061.66 551.306 1077.3 532.554 1096.85 521.249C1101.93 518.312 1112.09 513.95 1117.82 515.56C1117.69 520.254 1111.8 521.756 1111.57 526.936L1113.26 528.086C1117.78 528.312 1135.62 523.632 1142.23 522.404C1154.05 520.208 1175.06 526.075 1181.68 521.629C1181.09 515.818 1177.72 515.725 1178.01 508.503Z"/><path fill="#140C0D" transform="translate(-723 0)" d="M1216.96 611.747C1220.64 614.035 1221.45 621.591 1223.87 623.751C1227.98 627.422 1236.04 627.233 1240.47 631.235L1240.41 633.236C1237.77 635.233 1235.71 634.833 1232.34 634.873C1224.44 631.166 1220.74 627.097 1213.43 623.514C1208.89 623.759 1208.14 624.526 1205.84 620.608L1206.49 619.159C1210.95 616.633 1213.23 615.248 1216.96 611.747Z"/><path fill="#140C0D" transform="translate(-723 0)" d="M1205.91 568.954C1212.56 568.752 1219.71 569.083 1220 577.593L1218.36 578.876C1214.19 577.742 1214.74 577.184 1211.16 573.621C1207.03 577.148 1205.12 582.096 1199.16 581.077C1198.78 576.352 1202.97 572.156 1205.91 568.954Z"/><path fill="#140C0D" transform="translate(-723 0)" d="M1241.56 561.975C1248.09 561.765 1252.75 561.145 1254.09 568.823L1252.7 570.498C1249.13 570.424 1250.03 570.202 1246.51 567.386L1245.63 567.49C1242.34 570.219 1239.83 572.603 1235.51 572.931L1235.09 570.916C1237.02 565.965 1237.57 565.752 1241.56 561.975Z"/><path fill="#FBB34E" transform="translate(-723 0)" d="M1142.8 470.101C1163.83 469.013 1183.04 490.952 1171.27 511.277C1168.18 516.594 1156.89 515.839 1150.92 515.711C1141.55 516.039 1136.47 516.813 1127.14 518.413C1113.38 496.831 1116.51 476.991 1142.8 470.101Z"/><path fill="#140C0D" transform="translate(-723 0)" d="M1146.15 476.023C1160.78 476.933 1170.31 492.898 1166.16 506.749L1164.31 506.707C1161.89 503.284 1162.69 494.988 1161.46 490.403C1158.99 481.214 1147.63 483.942 1146.15 476.023Z"/><path fill="#FBB34E" transform="translate(-723 0)" d="M1263.74 584.146C1268.21 583.938 1272.09 583.659 1276.34 585.271C1281.47 587.162 1285.58 591.095 1287.69 596.132C1293.3 609.703 1284.07 620.853 1271.34 624.979C1241.58 626.395 1236.01 595.634 1263.74 584.146Z"/><path fill="#140C0D" transform="translate(-723 0)" d="M1258.83 597.956C1261.72 599.017 1261.52 598.92 1263.63 601.17C1265.03 604.836 1263.94 607.896 1263.16 611.817C1260.28 610.918 1260.5 610.894 1258.52 608.555C1257.24 604.539 1258.09 602.272 1258.83 597.956Z"/><path fill="#140C0D" transform="translate(-723 0)" d="M1274.91 597.191C1277.97 598.208 1277.83 598.022 1279.73 600.614C1280.77 604.487 1279.87 606.747 1279.05 610.832C1276.33 609.955 1276.52 610.04 1274.6 607.909C1273.19 604.093 1274.17 601.353 1274.91 597.191Z"/><path fill="#FBB34E" transform="translate(-723 0)" d="M1238.84 665.033C1240.95 668.305 1241.35 677.891 1238.49 681.248C1232.68 688.049 1227.42 687.782 1219.25 688.202C1212.76 677.001 1231.34 669.231 1238.84 665.033Z"/><path fill="#FBB34E" transform="translate(-723 0)" d="M1249.45 513.903L1252.96 514.322C1257.47 518.662 1257.1 530.086 1252.54 534.875C1249.28 534.789 1249.78 534.174 1246.57 531.19L1234.31 520.686L1249.45 513.903Z"/><path fill="#100E16" transform="translate(-723 0)" d="M874.935 177.572C876.083 177.615 877.147 178.029 878.31 178.355C883.095 183.888 884.416 199.569 883.758 206.935C881.74 229.492 878.825 240.85 854.624 238.74C826.155 222.226 860.866 190.217 874.935 177.572Z"/><path fill="#7EC2FB" transform="translate(-723 0)" d="M874.704 185.832C877.69 190.251 878.33 207.602 877.26 213.203C874.597 227.143 870.465 235.664 855.322 232.689C842.077 215.465 863.112 197.374 874.704 185.832Z"/><path fill="#100E16" transform="translate(-723 0)" d="M1194.94 171.641C1202.65 172.92 1204.04 192.192 1203.81 198.838C1203.16 217.92 1198.64 234.739 1176.5 233.727C1144.5 221.829 1181.94 183.226 1194.94 171.641Z"/><path fill="#7EC2FB" transform="translate(-723 0)" d="M1194.66 179.802C1197.04 183.287 1198.62 196.597 1198.18 201.165C1196.65 217.103 1193.85 229.311 1175.9 227.699C1161.36 210.527 1183.02 191.825 1194.66 179.802Z"/><path fill="#100E16" transform="translate(-723 0)" d="M1262.76 253.645C1273.3 261.124 1276.62 307.836 1246.72 305.042C1223.82 292.032 1249.87 263.69 1262.76 253.645Z"/><path fill="#7EC2FB" transform="translate(-723 0)" d="M1260.55 263.767C1262.38 266.195 1263.59 272.438 1263.73 275.394C1264.35 288.629 1261.56 298.48 1247.47 299.526C1236.97 284.718 1250.36 274.277 1260.55 263.767Z"/><path fill="#100E16" transform="translate(-723 0)" d="M971.727 138.465C983.583 141.774 988.217 189.984 958.493 188.5C935.093 174.568 959.929 150.7 971.727 138.465Z"/><path fill="#7EC2FB" transform="translate(-723 0)" d="M970.759 147.613C976.949 153.863 975.1 170.7 969.975 177.398C966.384 182.09 964.769 182.219 959.183 183.393C947.688 169.812 961.496 157.754 970.759 147.613Z"/><path fill="#100E16" transform="translate(-723 0)" d="M1254.37 153.547C1267.45 163.859 1266.51 204.972 1240.01 203.606C1215.52 192.704 1242.96 163.546 1254.37 153.547Z"/><path fill="#7EC2FB" transform="translate(-723 0)" d="M1252.81 162.652C1259.08 168.319 1258.89 196.631 1240.39 197.807C1227.89 186.688 1245.14 170.789 1252.81 162.652Z"/><path fill="#100E16" transform="translate(-723 0)" d="M1031.96 555.837C1030.19 550.14 1031.89 543.956 1038.3 542.497C1040.79 541.905 1043.42 542.524 1045.39 544.169C1048.88 547.069 1048.49 550.969 1048.54 555.199C1047.54 557.562 1046.26 560.827 1045.17 563.058C1044.53 562.847 1043.82 563.034 1043.14 563.067C1041.88 565.98 1042.66 565.104 1040.32 566.965C1036.44 566.186 1037.83 567.163 1035.64 564.553C1035.43 559.927 1036.34 557.542 1031.96 555.837Z"/><path fill="#100E16" fill-opacity="0.96470588" transform="translate(-723 0)" d="M1031.96 555.837C1036.34 557.542 1035.43 559.927 1035.64 564.553C1037.83 567.163 1036.44 566.186 1040.32 566.965C1042.66 565.104 1041.88 565.98 1043.14 563.067C1043.82 563.034 1044.53 562.847 1045.17 563.058C1048.12 565.237 1048.2 565.486 1052.04 564.284C1052.09 569.332 1051.48 573.039 1047.07 576.163L1046.66 574.03C1042.55 567.536 1025.43 570.771 1023.41 563.959L1024.4 562.44L1029.93 561.346C1032.67 558.786 1031.72 560.409 1031.96 555.837Z"/><path fill="#FDF2E0" fill-opacity="0.019607844" transform="translate(-723 0)" d="M1048.54 555.199C1051.46 555.508 1052.13 555.007 1055.08 554.272C1053.88 557.388 1052.19 561.068 1052.04 564.284C1048.2 565.486 1048.12 565.237 1045.17 563.058C1046.26 560.827 1047.54 557.562 1048.54 555.199Z"/></g></svg>