<?xml version="1.0" encoding="utf-8" ?><svg xmlns="http://www.w3.org/2000/svg" xmlns:xlink="http://www.w3.org/1999/xlink" width="600" height="596" viewBox="0 0 600 596"><clipPath id="money-monthly-saving-cl_44"><rect width="600" height="596"/></clipPath><g clip-path="url(#money-monthly-saving-cl_44)"><path fill="#090A12" transform="translate(-749 -715)" d="M930.228 794.876C950.766 792.339 955.574 812.011 956.925 827.972C976.528 826.842 999.29 827.234 1018.97 827.414C1019.16 818.353 1019.18 810.681 1024.65 802.848C1030.55 794.383 1041.56 791.203 1049.71 798.783C1058.24 806.721 1058.18 816.775 1058.48 827.598L1121.89 827.575C1122.64 814.94 1126.38 796.908 1141.32 795.716C1160.01 794.225 1163.33 815.91 1164.14 828.697C1165.34 828.651 1166.54 828.615 1167.74 828.59C1191.68 827.969 1212.01 831.15 1217.43 859.055C1220.2 873.317 1218.29 887.69 1218.72 902.111C1219.43 925.895 1219.86 949.68 1220.29 973.474C1245.22 978.913 1267.22 986.209 1283.68 1006.84C1299.47 1026.62 1300.94 1052.28 1289.4 1074.41C1281.08 1090.39 1269.23 1099.82 1255.26 1110.52C1255.76 1112.8 1256.23 1115.09 1256.65 1117.39C1259.64 1134.09 1255.86 1151.3 1246.13 1165.21C1220.75 1201.33 1170.69 1200.63 1137.09 1176.22C1132.51 1176.79 1127.23 1177.05 1122.58 1177.39C1121.1 1189.61 1119.83 1198.76 1119.74 1211.1C1135.17 1219.5 1152.73 1230.97 1141.43 1250.74C1132.28 1259.68 1122.9 1260.88 1110.68 1261.51C1040.31 1265.16 1049.08 1232.41 1047.7 1177.32C1041.87 1177.21 1035.49 1177.4 1029.62 1177.47C1027.73 1200.05 1029.02 1221.4 1025.17 1244.38C1021.05 1249.73 1018.02 1252.81 1011.42 1255.62C996.037 1261.88 963.614 1265.11 948.047 1257.59C917.113 1242.66 936.947 1221.31 958.731 1213.79L956.302 1176.01C934.19 1176.61 885.758 1180.23 870.36 1164.52C857.719 1151.62 857.859 1137.94 857.512 1121.74C845.586 1120.31 836.938 1119.28 825.759 1114.78C791.901 1101.16 774.636 1070.25 791.107 1034.95C804.898 1005.39 829.394 992.125 858.692 981.037C858.151 948.262 857.916 915.482 857.987 882.702C858.135 839.991 869.872 827.252 913.001 827.651C913.965 812.907 915.915 801.83 930.228 794.876Z"/><path fill="#77BBF5" transform="translate(-749 -715)" d="M869.845 914.83C982.552 915.888 1095.26 916.221 1207.98 915.83L1208.92 1042.68C1190.95 1043.04 1188.91 1045.94 1185.38 1062.49C1179.42 1064.45 1172.84 1064.51 1166.8 1065.76C1146.59 1069.96 1129.43 1084.24 1121.74 1103.4C1116.58 1116.23 1116.49 1125.99 1117.35 1139.36C1119.81 1150.36 1122.11 1155.23 1127.4 1165.22C1110.03 1164.88 1091.37 1165.82 1073.85 1165.96C1035.72 1166.19 997.589 1166.14 959.459 1165.84C938.081 1165.61 916.991 1165.83 895.69 1163.81C869.885 1161.36 870.006 1144.52 869.758 1123.03C891.034 1121.6 913.643 1118.47 923.009 1096C932.061 1074.27 915.72 1061.44 897.495 1054.46C896.738 1033.25 888.032 1033.82 870.097 1036.56C868.27 997.106 869.203 954.388 869.845 914.83Z"/><path fill="#090A12" transform="translate(-749 -715)" d="M1037.91 1009.29C1045.7 1002.48 1048.41 1001.09 1057.59 997.506C1099.6 1005.39 1081.41 1037.25 1061.1 1057.4C1053.35 1063.96 1047.79 1068.17 1039.44 1073.95C1020.02 1063.04 984.713 1036.65 998.142 1009.14C1001.19 1002.91 1007.53 1000.05 1013.99 998.349C1026.07 998.915 1029.47 1000.97 1037.91 1009.29Z"/><path fill="#F67A5F" transform="translate(-749 -715)" d="M1012.62 1006.97C1027.79 1006.89 1030.51 1012.34 1038.76 1023.99C1045.63 1013.82 1065.52 993.606 1072.61 1018.94C1074.88 1027.06 1066.13 1038.18 1060.86 1044.61C1053.73 1052.2 1046.42 1058.04 1038.04 1064.14C1022.64 1052.45 987.034 1025.68 1012.62 1006.97Z"/><path fill="#090A12" transform="translate(-749 -715)" d="M1030.75 946.372C1076.03 942.213 1103.44 965.756 1119.69 1005.95C1120.3 1004.27 1120.95 1002.61 1121.65 1000.97C1123.64 996.333 1125.46 991.865 1130.2 990.027L1131.48 991.572C1133.54 1004.19 1126.62 1017.42 1120.1 1027.8C1111.06 1024.38 1090.76 1013.2 1090.67 1002.58L1092.26 1001.41C1099.35 1001.88 1104.07 1006.25 1109.82 1010.41C1105.34 998.358 1103.08 992.868 1095.55 982.62C1088.71 975.514 1084.75 971.537 1076.07 966.526C1057.91 956.283 1036.4 953.731 1016.35 959.438C1000.71 963.839 987.057 973.368 977.813 986.76C973.102 993.584 969.31 1008.67 960.753 1011.09L959.513 1009.38C958.754 998.672 965.612 985.789 972.131 977.436C987.949 957.169 1006.09 949.589 1030.75 946.372Z"/><path fill="#090A12" transform="translate(-749 -715)" d="M956.571 1037.49C965.634 1038.71 987.204 1051.47 985.719 1061.46L983.881 1062.58C976.879 1061.8 973.282 1058.31 967.628 1054.12C970.17 1062.17 973.683 1069.61 978.659 1076.44C990.592 1092.63 1008.47 1103.42 1028.35 1106.43C1059.35 1111.1 1089.12 1097.65 1104.05 1069.74C1106.65 1064.87 1110.56 1050.89 1116.54 1053.1C1118.6 1056.17 1118.18 1057.45 1118.02 1061.17C1117.34 1063.04 1116.64 1064.89 1115.9 1066.73C1107.89 1087.09 1091.97 1103.34 1071.78 1111.76C1050.38 1120.45 1026.39 1120.24 1005.13 1111.2C979.392 1100.34 968.016 1083.46 957.877 1058.69C955.239 1064.72 953.017 1071.72 947.29 1075.37L945.897 1074.5C942.982 1062.65 951.081 1047.65 956.571 1037.49Z"/><path fill="#77BBF5" transform="translate(-749 -715)" d="M1059.82 837.298C1080.84 837.456 1101.86 837.985 1122.86 838.883C1122.75 848.387 1122.35 856.321 1128.36 864.448C1134.81 873.308 1147.25 874.754 1155.33 867.123C1163.8 859.116 1163.86 849.437 1164.03 838.711C1166.23 838.66 1168.44 838.647 1170.64 838.67C1214.52 838.912 1208.73 871.277 1207.51 904.168C1131.47 904.034 1055.73 905.368 979.653 904.304L870.02 904.705C869.519 896.521 869.26 888.323 869.242 880.123C869.379 845.36 880.937 837.718 913.946 837.92C913.783 847.835 913.445 856.892 919.884 864.899C931.899 879.842 950.583 871.016 954.1 854.175C955.331 848.277 955.09 843.597 955.052 837.83L1018.26 837.702C1018.28 847.892 1018.07 856.476 1024.36 865.284C1030.82 874.331 1042.27 875.578 1050.33 867.78C1059.29 859.11 1059.22 848.881 1059.82 837.298Z"/><path fill="#77BBF5" transform="translate(-749 -715)" d="M856.736 991.95C859.412 995.604 857.776 1026.69 858.148 1033.64C858.394 1038.25 857.509 1045.24 853.758 1048.84C848.217 1050.36 837.326 1042.39 830.581 1046.63C830.556 1049.15 830.455 1049.79 832.506 1052.12C837.269 1056.79 846.152 1059.67 852.481 1060.57C866.3 1062.52 870.084 1043.84 882.964 1045.29C889.803 1046.06 882.86 1057.88 887.206 1062.55C892.32 1069.09 906.627 1065.79 910.926 1073.24C919.571 1088.24 910.666 1099.43 899.485 1107.31C857.076 1121.87 779.245 1104.66 798.777 1042.86C806.443 1018.6 834.915 1002.14 856.736 991.95Z"/><path fill="#77BBF5" transform="translate(-749 -715)" d="M1220.35 984.194C1346.41 1012.58 1262.99 1125.19 1205.73 1114.79C1180.99 1100.62 1193.05 1087.62 1206.23 1070.8C1201.43 1066.32 1198.16 1064.41 1196.99 1058.02C1200.07 1049.18 1215.43 1054.3 1222.25 1056C1230.07 1051.41 1245.62 1039.79 1243.61 1029.37L1241.53 1028.65C1233.38 1031.08 1226.91 1038.99 1220.83 1045.18C1221.05 1024.8 1219.91 1005.04 1220.35 984.194Z"/><path fill="#F8B34A" transform="translate(-749 -715)" d="M1187.11 1074.09L1188.02 1074.27C1189.6 1084.16 1152.37 1101.78 1153.94 1125.21C1155.99 1155.53 1170.59 1169.77 1201.16 1170.51C1190.08 1163.02 1180.45 1165.38 1169.82 1153.36C1162.72 1145.46 1159.23 1134.97 1160.18 1124.4C1161.56 1109.96 1169.95 1101.01 1180.48 1092.45C1184.74 1110.05 1187.63 1119.94 1206.11 1126.12C1222.28 1128.26 1233.67 1122.87 1247.74 1116.26C1249.67 1129.25 1249.39 1140.28 1243.5 1152.45C1237.32 1165.29 1226.15 1175.05 1212.59 1179.44C1198.99 1183.8 1184.2 1182.48 1171.58 1175.78C1159.13 1169.32 1149.81 1158.12 1145.73 1144.71C1139.22 1123.21 1145.85 1097.09 1164.6 1083.79C1171.95 1078.57 1178.67 1076.54 1187.11 1074.09Z"/><path fill="#090A12" transform="translate(-749 -715)" d="M1230.36 1142.63C1238.29 1151.7 1219.73 1162.7 1213.19 1166.03C1212.27 1165.14 1212.76 1165.79 1212.37 1163.73C1220.38 1154.95 1223.33 1152.74 1230.36 1142.63Z"/><path fill="#77BBF5" transform="translate(-749 -715)" d="M1060.15 1177.08L1110.84 1177C1109.16 1191.46 1108.22 1205.99 1108.03 1220.55C1121.08 1225.38 1136.05 1228.39 1132.72 1245.36C1114.53 1253.14 1082 1252.26 1064.55 1242.57C1060.43 1225.61 1060.49 1195.04 1060.15 1177.08Z"/><path fill="#77BBF5" transform="translate(-749 -715)" d="M967.263 1176.96L1017.95 1178C1017.23 1199.6 1016.17 1221.18 1014.77 1242.74C1004.52 1247.66 1001.31 1248.37 990.241 1249.61C961.047 1255.91 916.426 1242 969.076 1220.81C969.274 1206.6 968.245 1191.14 967.263 1176.96Z"/><path fill="#77BBF5" transform="translate(-749 -715)" d="M1139.2 805.655C1157.67 807.001 1154.37 827.052 1154.14 840.728C1154.01 849.051 1152.15 854.983 1147.03 861.614C1131.63 863.841 1132.18 843.967 1132.48 833.796C1132.81 822.616 1132.96 815.255 1139.2 805.655Z"/><path fill="#77BBF5" transform="translate(-749 -715)" d="M930.598 805.567C945.338 806.016 945.638 820.233 945.633 832.025C945.628 842.873 945.606 852.916 938.384 861.632C916.351 862.969 922.76 816.667 930.598 805.567Z"/><path fill="#77BBF5" transform="translate(-749 -715)" d="M1034.74 805.634C1054 807.233 1049.38 830.022 1049.33 844.099C1049.31 851.127 1046.92 856.62 1042.38 861.921C1034.73 860.695 1030.16 858.013 1029.02 849.444C1027.2 835.863 1027.06 817.423 1034.74 805.634Z"/><path fill="#F8B34A" transform="translate(-749 -715)" d="M1145.8 1086.36L1145.46 1090.79C1123.45 1126.22 1133.33 1153.41 1159.83 1181.4C1122.93 1159.84 1112.69 1118.08 1145.8 1086.36Z"/><path fill="#F6A15C" transform="translate(-749 -715)" d="M1145.8 1086.36C1148.29 1084.31 1147.66 1084.05 1150.04 1083.76C1148.42 1086.49 1147.4 1088.2 1145.46 1090.79L1145.8 1086.36Z"/><path fill="#090A12" transform="translate(-749 -715)" d="M1265.26 785.799C1267.7 785.633 1267.18 785.721 1269.67 786.233C1274.61 794.661 1246.09 813.739 1239.88 818.228C1237.3 818.225 1238.01 818.221 1235.43 817.455C1230.66 809.068 1258.92 790.166 1265.26 785.799Z"/><path fill="#090A12" transform="translate(-749 -715)" d="M1273.52 834.271L1274.9 834.101C1279.71 833.54 1283.21 832.71 1287.12 835.785L1287.06 837.339C1281.97 844.309 1270.8 846.145 1262.74 847.944C1258.14 848.94 1251.83 850.907 1247.78 847.847L1248.09 846.203C1254.55 838.296 1264.21 836.402 1273.52 834.271Z"/><path fill="#090A12" transform="translate(-749 -715)" d="M1221.11 761.552C1234.86 764.844 1216.88 793.892 1212.75 800.489C1210.39 801.022 1211.6 800.996 1209.11 799.94C1204.46 791.973 1215.98 768.431 1221.11 761.552Z"/></g></svg>