<?xml version="1.0" encoding="utf-8" ?><svg xmlns="http://www.w3.org/2000/svg" xmlns:xlink="http://www.w3.org/1999/xlink" width="612" height="541" viewBox="0 0 612 541"><clipPath id="money-piggy-bank-cl_8"><rect width="612" height="541"/></clipPath><g clip-path="url(#money-piggy-bank-cl_8)"><path fill="#100E16" transform="translate(-109 -801)" d="M430.366 950.269L431.892 950.642C438.045 952.102 448.621 952.347 454.283 953.965C466.461 957.446 480.544 962.761 492.29 967.424C506.885 957.01 525.506 944.462 532.566 969.175C538.104 968.137 548.79 965.582 553.51 969.798C562.473 977.804 551.498 997.05 551.821 1006.52C552.191 1017.37 563.066 1036.74 569.894 1045.28C574.824 1050.96 582.02 1051.66 588.401 1054.37C600.917 1059.69 604.36 1076.48 604.171 1088.72C603.623 1124.28 595.588 1130.43 563.216 1136.37C555.759 1145.39 545.958 1156.42 539.843 1166.02C538.45 1195.58 544.825 1217.15 509.271 1222.25C502.864 1230.03 494.391 1234.36 484.429 1235.24C459.368 1237.45 452.438 1225.45 447.091 1204.62C434.31 1206.98 417.252 1206.73 403.962 1206.86C399.769 1215.65 398.522 1217.15 390.289 1222.07C381.665 1222.65 377.758 1222.32 369.059 1221.51C366.45 1224.11 363.756 1226.99 360.844 1229.2C303.581 1238.4 313.796 1209.51 303.399 1169.86C301.756 1163.6 290.84 1152.77 287.2 1147.18C268.528 1122.55 262.887 1097.38 264.489 1067.17C254.736 1063.47 245.821 1060.09 236.807 1054.77C216.885 1058.49 199.279 1039.66 232.091 1035.25C231.91 1029.94 231.516 1023.18 231.606 1017.95C244.545 995.293 265.77 1005.98 269.869 1028.06C267.387 1030.67 265.135 1038.43 265.074 1042.2L266.439 1043C269.9 1041.23 284.708 1015.02 290.811 1007.19C316.726 978.532 343.21 963.659 380.984 954.301C388.476 952.445 396.933 952.027 404.841 950.367L405.837 950.152C413.955 950.199 422.266 950.347 430.366 950.269Z"/><path fill="#F97D5E" transform="translate(-109 -801)" d="M412.744 958.471C440.188 957.51 461.774 962.848 486.651 973.483C482.4 978.108 472.787 988.854 474.373 995.276C480.89 993.815 503.644 960.967 516.645 963.403C530.957 966.085 515.803 1002.84 521.332 1010.16C525.626 1008.06 526.816 1001.98 527.804 997.774C536.742 1006.83 543.689 1013.82 549.923 1025.11C555.127 1034.53 558.344 1044.57 565.442 1052.76C570.108 1059.58 587.272 1060.18 591.149 1065.53C600.703 1078.71 597.54 1112.44 585.401 1123.55C583.774 1125.04 581.613 1125.02 579.863 1124.24C566.738 1118.42 569.338 1098.81 570.055 1087.12C570.692 1079 575.181 1068.72 578.085 1061.06L577.128 1059.33L575.331 1059.58C556.071 1076.06 563.605 1107.95 573.258 1127.46C558.315 1130.57 529.194 1129.87 524.003 1111.89C524.613 1108.98 524.781 1107.95 524.987 1105C522.781 1101.92 524.182 1102.67 521 1102.07C517.305 1104.73 518.712 1105.71 516.52 1109.21C513.327 1114.29 507.892 1109.72 504.718 1116.51L506.03 1118.35C509.623 1119.64 513.763 1118.11 517.653 1117.22C529.942 1129.83 536.813 1132.43 553.619 1135.42C545.132 1147.92 534.4 1159.69 522.235 1168.71C518.402 1171.56 507.928 1179.33 506.887 1183.51C503.97 1195.23 504.977 1206.8 502.102 1218.75C495.953 1229.76 472.863 1230.08 463.331 1224.26C457.007 1220.39 455.136 1204.35 453.759 1196.93C426.742 1199.04 400.574 1200.97 373.983 1193.92C368.832 1192.56 363.064 1188.38 358.79 1191.96L358.875 1194.06C361.84 1197.4 364.04 1197.95 368.241 1199.84C367.185 1204.36 365.847 1210.33 364.16 1214.54C360.531 1223.6 347.657 1224.42 339.402 1224.34C310.086 1224.06 318.737 1187.01 311.611 1168.61C308.975 1161.8 300.938 1154.92 296.917 1148.61C274.354 1119.55 270.318 1096.46 273.205 1060.58C258.32 1058.48 247.616 1056.64 239.777 1042.21C228.706 1021.82 254.469 994.826 263.882 1026.84C263.449 1027.91 263.001 1028.97 262.535 1030.03C260.787 1034.06 258.948 1037.69 254.803 1039.34L255.781 1039.47L254.999 1039.65C253.048 1032.81 260.18 1022.54 252.896 1016.96C250.818 1016.82 248.034 1016.54 246.405 1018.13C229.547 1034.57 266.814 1067.08 278.612 1042.83C285.153 1029.38 291.408 1017.54 302.049 1006.02C331.34 974.304 370.383 960.508 412.744 958.471Z"/><path fill="#100E16" transform="translate(-109 -801)" d="M407.732 968.419C417.706 967.24 447.322 967.287 452.94 976.997C450.993 989.537 413.603 983.075 400.843 984.113C389.781 986.021 373.192 993.283 364.14 992.51C360.306 989.618 358.095 984.069 362.023 980.67C372.973 971.195 394.041 969.774 407.732 968.419Z"/><path fill="#100E16" transform="translate(-109 -801)" d="M489.52 1053.52C492.84 1051.87 496.872 1053.22 498.527 1056.54C500.181 1059.86 498.832 1063.89 495.513 1065.55C492.192 1067.2 488.156 1065.85 486.501 1062.53C484.845 1059.21 486.197 1055.17 489.52 1053.52Z"/><path fill="#140C0D" transform="translate(-109 -801)" d="M538.005 1041.51C541.013 1040.02 544.66 1041.23 546.172 1044.23C547.685 1047.22 546.497 1050.88 543.512 1052.41C540.495 1053.97 536.792 1052.76 535.264 1049.73C533.735 1046.71 534.966 1043.01 538.005 1041.51Z"/><path fill="#100E16" transform="translate(-109 -801)" d="M577.132 1083.21C584.745 1086.83 582.294 1092.48 580.336 1098.97C576.049 1096.69 577.599 1098.25 575.167 1094.48C574.477 1090.42 575.915 1087.25 577.132 1083.21Z"/><path fill="#F97D5E" transform="translate(-109 -801)" d="M530.626 1171.83C533.669 1176.11 529.897 1203.34 527.698 1208.54C522.618 1213.22 518.942 1212.9 512.133 1213.44C508.451 1208.38 513.417 1190.06 514.795 1183.5C519.886 1178.92 524.974 1175.66 530.626 1171.83Z"/><path fill="#F97D5E" transform="translate(-109 -801)" d="M542.741 974.07C546.988 973.94 546.459 973.782 548.834 976.436C550.886 983.35 549.263 997.919 543.469 1002.49L541.32 1001.03L528.806 989.382L530.46 978.207L542.741 974.07Z"/><path fill="#F97D5E" transform="translate(-109 -801)" d="M374.68 1201.49C381.634 1202.03 391.269 1201.47 394.999 1207.94C394.956 1211.26 394.138 1212.02 392.375 1214.82C383.797 1216.52 379.646 1215.9 371.252 1214.74L374.68 1201.49Z"/><path fill="#F97D5E" transform="translate(-109 -801)" d="M220.134 1044.09C229.019 1043.53 231.815 1042.47 237.57 1050.02C229.048 1049.68 226.242 1049.77 220.134 1044.09Z"/><path fill="#100E16" transform="translate(-109 -801)" d="M394.318 881.216C402.594 885.473 403.234 910.139 400.88 918.311C390.204 915.01 391.991 889.763 394.318 881.216Z"/><path fill="#FDF2E0" fill-opacity="0.015686275" transform="translate(-109 -801)" d="M269.869 1028.06C281.11 1016.46 268.198 1012.09 290.811 1007.19C284.708 1015.02 269.9 1041.23 266.439 1043L265.074 1042.2C265.135 1038.43 267.387 1030.67 269.869 1028.06Z"/><path fill="#100E16" fill-opacity="0.96862745" transform="translate(-109 -801)" d="M477.655 909.739L479.999 910.338L480.98 911.997C480.372 917.989 470.804 927.464 466.456 932.389L465.149 932.032C459.092 926.04 473.221 914.042 477.655 909.739Z"/><path fill="#100E16" fill-opacity="0.96862745" transform="translate(-109 -801)" d="M316.768 927.86C326.097 927.981 339.421 935.06 340.735 945.207C332.688 944.71 320.052 935.023 316.768 927.86Z"/><path fill="#100E16" transform="translate(-109 -801)" d="M435.142 897.447C444.422 903.984 438.715 911.337 434.208 919.375C430.875 917.746 432.167 918.937 430.339 915.525C430.045 908.676 432.033 903.508 435.142 897.447Z"/><path fill="#100E16" fill-opacity="0.97254902" transform="translate(-109 -801)" d="M354.938 908.462C365.673 909.841 368.94 920.544 367.927 929.979C362.21 926.45 354.755 915.177 354.938 908.462Z"/><path fill="#FDF2E0" fill-opacity="0.011764706" transform="translate(-109 -801)" d="M405.837 950.152C410.732 945.093 425.134 945.613 430.366 950.269C422.266 950.347 413.955 950.199 405.837 950.152Z"/></g></svg>