<?xml version="1.0" encoding="utf-8" ?><svg xmlns="http://www.w3.org/2000/svg" xmlns:xlink="http://www.w3.org/1999/xlink" width="665" height="1385" viewBox="0 0 665 1385"><clipPath id="money-savings-jar-cl_4"><rect width="665" height="1385"/></clipPath><g clip-path="url(#money-savings-jar-cl_4)"><path fill="#100E16" transform="translate(-1383 0)" d="M1688.82 820.184C1713.6 823.598 1724.4 833.18 1727.14 858.382C1741.19 858.568 1769.31 861.819 1780.3 872.52C1784.58 876.689 1783.04 887.879 1782.63 893.667C1785.07 896.975 1787.47 900.304 1789.85 903.655C1788.84 907.027 1787.71 910.355 1786.6 913.697C1790.37 925.793 1791.29 926.248 1782.47 935.731C1787.06 949.741 1798.38 958.701 1806.94 967.855C1821.79 983.721 1823.1 1037.24 1823.53 1060.26C1824.17 1095.28 1826.53 1217.43 1805.92 1242.86C1784.81 1268.92 1704.47 1271.61 1670.59 1271.53C1637.3 1270.84 1598.62 1268.82 1568.18 1254.29C1555.6 1248.28 1548.6 1241.41 1544.04 1227.97C1530.97 1189.44 1527.92 1020.18 1541.88 982.644C1548.84 963.956 1565.9 956.042 1575.41 936.89C1565.45 925.853 1568.27 916.563 1568.37 902.113C1568.39 899.121 1571.92 896.709 1574.18 894.913C1574 888.317 1572.97 877.955 1577.54 873.039C1590.62 858.962 1632.23 857.715 1650.24 856.58C1660.74 837.354 1665.42 825.024 1688.82 820.184Z"/><path fill="#FDF2E0" transform="translate(-1383 0)" d="M1776.49 938.094C1781.4 957.648 1801 966.643 1808.92 984.802C1821.63 1013.96 1819.21 1199.93 1805.39 1231.88C1800.5 1243.19 1788.11 1247.77 1777.46 1251.9C1723.95 1268.49 1635.46 1269.75 1581.9 1252.21C1569.81 1248.25 1556.82 1241.7 1551.16 1229.64C1537.04 1199.59 1537.16 1019.83 1548.2 986.551C1554.42 967.824 1574.5 959.084 1581.16 940.139L1581.63 938.773C1627.47 955.692 1730.15 955.148 1776.49 938.094Z"/><path fill="#140C0D" transform="translate(-1383 0)" d="M1670.56 1074.27C1700.51 1072.28 1713.47 1074.86 1713.2 1108.27C1717.7 1108.98 1722.4 1109.92 1726.9 1110.74C1723.55 1098.6 1723.99 1092.26 1733.39 1083.17C1758.12 1059.25 1799.65 1102.86 1799.36 1128.46C1799.27 1136.64 1793.87 1140.1 1788.38 1144.95C1798.7 1169.01 1791.34 1175.89 1771.92 1189.9C1793.07 1198.42 1800.73 1219.37 1779.8 1234.1C1765.48 1244.18 1741.9 1240.82 1725.59 1237.01C1716.59 1244.39 1714.02 1245.76 1702.87 1248.68C1689.6 1251.07 1669.59 1251.41 1657.11 1245.71C1647.88 1241.49 1645.47 1237.67 1642.17 1228.83C1635.36 1228.27 1626.95 1228.26 1620 1228.07C1603.52 1242.96 1585.29 1240.93 1572.62 1223.06C1568.49 1225.68 1565.66 1228.68 1561 1226.6L1561 1224.43C1563.34 1220.8 1566.18 1219.88 1570.09 1217.87C1562.84 1192.32 1561.12 1177.06 1580.49 1156.25C1529.81 1128.52 1581.39 1090.23 1615.18 1081.4C1623.09 1084.4 1625.86 1087.17 1631.59 1092.93C1645.11 1078.93 1651.64 1077.68 1670.56 1074.27Z"/><path fill="#FBB34E" transform="translate(-1383 0)" d="M1582.56 1161.52C1608.38 1165.08 1609.28 1214.55 1593.97 1231.87C1565.82 1225.47 1567.35 1180.86 1582.56 1161.52Z"/><path fill="#FBB34E" transform="translate(-1383 0)" d="M1744.97 1080.79C1764.55 1081.57 1789.41 1104.3 1793.57 1123.59C1794.72 1128.94 1792.66 1132.36 1789.65 1136.61C1771.11 1137.89 1732.8 1102.51 1744.97 1080.79Z"/><path fill="#FBB34E" transform="translate(-1383 0)" d="M1611.8 1089C1620.41 1089.19 1628.55 1092.05 1622.45 1102.37C1612.56 1119.12 1595.77 1131.31 1577.24 1136.95C1569.23 1137.08 1559.43 1134.36 1565.32 1124.35C1575.47 1107.09 1593.12 1095.26 1611.8 1089Z"/><path fill="#FBB34E" transform="translate(-1383 0)" d="M1680.7 1079.48C1688.65 1079.53 1702.78 1079.87 1704.85 1089.07C1700.75 1104.56 1675.46 1108.74 1661.73 1109.21C1653.95 1109.23 1638.67 1109.19 1636.97 1099.73C1641.52 1084.02 1666.74 1080.22 1680.7 1079.48Z"/><path fill="#FBB34E" transform="translate(-1383 0)" d="M1751.09 1144.88C1760.67 1145.05 1764.35 1151.87 1781.65 1152.33C1769.88 1167.14 1763.83 1170.42 1746.53 1178.25C1738.61 1180.51 1726.58 1184.1 1719.36 1179.13C1713.02 1165.58 1741.81 1149.98 1751.09 1144.88Z"/><path fill="#FBB34E" transform="translate(-1383 0)" d="M1710.66 1114.08C1718.69 1114.96 1732.43 1116.17 1735.76 1124.83C1735.17 1139.67 1705.92 1141.79 1694.91 1142.34C1687.86 1142.03 1671.81 1141.38 1669.4 1133.56C1672.18 1129.23 1679.51 1127.94 1684.35 1126.73C1695.44 1123.97 1701.64 1121.16 1710.66 1114.08Z"/><path fill="#FBB34E" transform="translate(-1383 0)" d="M1631.52 1131.07C1644.23 1130.88 1649.06 1132.29 1660.98 1136.67C1663.45 1148.03 1664.11 1152.7 1675.08 1159.84C1678.24 1161.89 1681.07 1162.07 1683.97 1164.87C1682 1167.52 1680.88 1167.01 1676.85 1168.16C1663.44 1166.81 1619.14 1154.75 1623.66 1136.9C1626 1133.44 1627.63 1133.06 1631.52 1131.07Z"/><path fill="#FBB34E" transform="translate(-1383 0)" d="M1763.85 1194.05C1771.3 1195.28 1782.09 1198.9 1784.98 1206.48C1782.74 1219.88 1745.64 1218.47 1735.98 1217.88C1729.16 1216.43 1718.56 1206.89 1717.33 1200.76C1720.63 1195.92 1727.53 1200.17 1734.4 1200.55C1747.05 1201.25 1752.68 1198.53 1763.85 1194.05Z"/><path fill="#FBB34E" transform="translate(-1383 0)" d="M1690.03 1173.45C1695.62 1174.87 1704.82 1177.91 1705.08 1184.45C1697.38 1200.76 1661.43 1197.53 1646.74 1194.48C1640.78 1192.32 1636.28 1191.31 1634.32 1184.69L1635.17 1183.19C1653.8 1176.44 1669.09 1204.84 1690.03 1173.45Z"/><path fill="#FBB34E" transform="translate(-1383 0)" d="M1708.57 1205.91C1713.58 1207.89 1719.84 1211.22 1721.26 1216.79C1716.28 1231.56 1674.81 1228.22 1662.75 1225.8C1656.22 1223.83 1651.2 1220.46 1645.59 1216.78C1671.24 1218.75 1686.92 1222.51 1708.57 1205.91Z"/><path fill="#FBB34E" transform="translate(-1383 0)" d="M1594.88 1159.47C1607.31 1161.1 1613.71 1168.27 1617.29 1180.12C1622.03 1195.93 1620.39 1212.97 1612.71 1227.59C1609.88 1228.94 1608.78 1229.81 1605.66 1229.49C1605.17 1227.07 1608.17 1215.89 1608.64 1211.61C1611.12 1189.05 1608.95 1177.42 1594.88 1159.47Z"/><path fill="#FBB34E" transform="translate(-1383 0)" d="M1633.16 1194.81C1660.29 1206.2 1674.58 1204.95 1702.35 1196.08C1704.06 1199.09 1703.29 1199.26 1702.89 1203.54C1685.8 1214.94 1638.18 1221.13 1633.16 1194.81Z"/><path fill="#FBB34E" transform="translate(-1383 0)" d="M1736.45 1136.95C1738.56 1139.41 1738.92 1141.27 1738.5 1144.36C1729 1160.06 1687.69 1158.75 1672.35 1152.45C1670.48 1149.38 1669.67 1148.54 1669.27 1144.92C1674.06 1142.15 1687.76 1149.09 1698.65 1148.15C1715.09 1146.73 1722.05 1145.07 1736.45 1136.95Z"/><path fill="#FBB34E" transform="translate(-1383 0)" d="M1649.73 1226.18C1665.01 1233.45 1683.58 1236.47 1700.81 1233.71C1705.43 1232.97 1714.11 1227.88 1718.64 1228.08C1720.02 1230.83 1719.15 1232.85 1718.51 1235.97C1703.2 1245.28 1648.63 1251.81 1649.73 1226.18Z"/><path fill="#FBB34E" transform="translate(-1383 0)" d="M1706.52 1099.81C1710.9 1107.16 1703.98 1113.72 1697.61 1116.41C1680.33 1123.72 1659.79 1127.02 1641.78 1120.59C1639.48 1118.09 1639.64 1118.25 1638.55 1115.01C1640.5 1110.55 1657.2 1114.4 1663.3 1114.35C1680.71 1114.21 1692.49 1109.83 1706.52 1099.81Z"/><path fill="#FBB34E" transform="translate(-1383 0)" d="M1628.4 1101.79C1635.76 1109.27 1631.8 1116.86 1625.8 1123.94C1613.06 1138.98 1597.79 1147.9 1577.91 1149.5C1575.56 1147.17 1575.01 1146.97 1573.72 1143.88C1576.39 1141 1585.68 1139.86 1590.28 1138.15C1608.98 1131.19 1619.65 1118.66 1628.4 1101.79Z"/><path fill="#FBB34E" transform="translate(-1383 0)" d="M1617.84 1145.47C1630.86 1154.88 1632.6 1162.31 1651.51 1169.64C1662.68 1173.97 1676.23 1170.59 1681.21 1175.71L1680.03 1179.09L1678.84 1179.63C1663.31 1186.72 1637.07 1176.1 1625.22 1164.96C1618.73 1158.86 1617.65 1154.05 1617.84 1145.47Z"/><path fill="#FBB34E" transform="translate(-1383 0)" d="M1785.67 1155.83C1796.49 1169.1 1770.92 1183.49 1761.28 1188.22C1750.17 1193.67 1740.75 1195.42 1728.45 1194.6C1726.22 1191.84 1724.72 1190.6 1724.75 1187.72C1753.92 1182.55 1766.5 1181.41 1785.67 1155.83Z"/><path fill="#FBB34E" transform="translate(-1383 0)" d="M1733.51 1091.51C1736.62 1093.92 1748.03 1120.65 1756.11 1126.6C1761.34 1130.45 1779.63 1140.92 1781.34 1143.51L1780.31 1146.76C1757.83 1146.52 1722.73 1113.38 1733.51 1091.51Z"/><path fill="#FBB34E" transform="translate(-1383 0)" d="M1781.86 1217.97L1783.09 1218.31L1783.96 1219.94C1779.08 1239.52 1742.99 1234.41 1728.16 1231.83L1726.9 1231.1C1725.59 1228.22 1725.9 1227.68 1726.08 1224.53C1726.55 1223.91 1727.03 1223.29 1727.5 1222.66C1738.76 1221.82 1749.21 1225.56 1760.88 1223.98C1771.36 1222.56 1773.15 1221.94 1781.86 1217.97Z"/><path fill="#FBB34E" transform="translate(-1383 0)" d="M1714.71 1162.48L1715.32 1163.19C1714.55 1167.03 1712.79 1169 1712.02 1171.99C1710.38 1178.37 1715.16 1186.6 1717.93 1192.14C1715.41 1194.23 1713.8 1196.21 1710.69 1196.27C1708.86 1192.96 1709.71 1191.72 1709.92 1187.18C1708.07 1171.91 1700.04 1170.7 1687.29 1164.44L1714.71 1162.48Z"/><path fill="#FBB34E" transform="translate(-1383 0)" d="M1624.73 1212.8C1630.98 1212.55 1636.99 1211.31 1641.61 1215.35C1643.17 1219.64 1642.81 1218.01 1641.96 1222.88C1635.61 1223.15 1628.82 1223.06 1622.43 1223.08L1624.73 1212.8Z"/><path fill="#FBB34E" transform="translate(-1383 0)" d="M1616.85 1165.72C1620.36 1167.35 1627.1 1173.13 1630.42 1175.8C1627.12 1188.11 1626.48 1194.28 1630.13 1206.72C1629.25 1207.15 1628.49 1207.19 1627.48 1207.39C1625.57 1204.94 1625.28 1195.66 1624.86 1191.98C1623.52 1180.24 1621.89 1176.1 1616.85 1165.72Z"/><path fill="#FDF2E0" transform="translate(-1383 0)" d="M1609.53 1146C1610.36 1146.06 1609.8 1145.95 1610.95 1146.97C1611.08 1151.12 1611.33 1151.72 1609.66 1155.35C1606.03 1156.15 1600.96 1155.08 1597 1154.6C1596.56 1154.57 1595.35 1154.03 1594.87 1153.83C1597.27 1151.21 1605.85 1147.71 1609.53 1146Z"/><path fill="#140C0D" transform="translate(-1383 0)" d="M1678.17 969.086C1694.12 968.692 1709.56 974.399 1715 990.706C1718.06 1000.21 1717.23 1010.55 1712.68 1019.44C1704.63 1035.49 1691.22 1041.99 1675.24 1046.92C1643.56 1048.42 1626.39 1026.33 1640.56 995.734C1647.4 980.952 1663.04 973.527 1678.17 969.086Z"/><path fill="#FBB34E" transform="translate(-1383 0)" d="M1680.13 975.184C1724.27 973.577 1700.34 1020.83 1665.21 1030.86C1622.75 1034.31 1639.46 982.996 1680.13 975.184Z"/><path fill="#140C0D" transform="translate(-1383 0)" d="M1676.42 981.292C1682.42 980.805 1683.92 980.554 1689.94 981.836L1689.95 982.69C1670.91 990.452 1667.57 981.772 1654.1 1002.9C1651.05 1008.99 1650.04 1010.93 1645.92 1016.47C1649.15 996.623 1657.45 987.753 1676.42 981.292Z"/><path fill="#140C0D" transform="translate(-1383 0)" d="M1693.58 993.644C1698.82 1010.58 1669.29 1022.04 1656.35 1023.6L1656.39 1021.98C1659.57 1019.13 1666.75 1019.14 1671.25 1017.38C1683.05 1012.76 1688.06 1003.75 1693.58 993.644Z"/><path fill="#FBB34E" transform="translate(-1383 0)" d="M1709.36 994.619C1715.5 999.997 1712.71 1010.9 1708.42 1016.67C1695.67 1033.84 1680.81 1042.18 1659.12 1040.99C1656.92 1039.75 1657.52 1040.31 1656.09 1038.42C1658.51 1036.2 1673.68 1035.27 1681.88 1030.46C1698.26 1020.84 1704.06 1012.09 1709.36 994.619Z"/><path fill="#100E16" transform="translate(-1383 0)" d="M1582.31 968.871C1584.09 969.649 1583.23 969.042 1584.68 970.98C1584.41 973.981 1571.36 990.51 1568.05 999.586C1563.23 1012.82 1565.47 1061 1560.66 1067.24C1555.33 1058.31 1557.53 1033.2 1558.62 1022.27C1560.8 1000.3 1564.73 983.307 1582.31 968.871Z"/><path fill="#FDF2E0" transform="translate(-1383 0)" d="M1579.57 884.223C1580.32 884.602 1581.08 884.968 1581.84 885.319C1624.7 905.477 1731.61 902.411 1776.98 885.917C1776.31 899.843 1781.56 902.323 1780.91 908.333C1770.81 922.818 1724.42 924.913 1706.46 926.614C1697.08 927.503 1678.51 925.468 1670.63 929.976L1670.75 931.245C1683.05 936.788 1727.98 931.005 1742.94 928.714C1752.01 927.06 1774.15 919.944 1779.84 920.374L1781.54 922.382C1781.68 923.825 1782.09 924.778 1781.32 926.105C1778 931.882 1766.86 935.155 1760.55 936.656C1725.35 945.04 1609.96 949.796 1580.71 930.281C1577.73 928.288 1575.76 926.128 1575.03 922.595C1583.31 915.261 1613.31 930.538 1626.44 926.871L1626.68 925.389C1618.97 917.641 1588.3 920.259 1577.44 908.842C1576.29 904.986 1576.86 905.055 1578.52 900.33C1580.64 894.292 1579.99 890.526 1579.57 884.223Z"/><path fill="#100E16" transform="translate(-1383 0)" d="M1581.13 898.833C1591.59 899.937 1602.58 904.021 1612.98 906.12C1632.22 910.005 1652.17 911.7 1671.8 911.944C1679.46 912.039 1732.07 907.022 1735.32 909.017C1736.52 909.754 1736.57 911.186 1736.96 912.444C1698.91 920.848 1624.41 920.227 1587.46 905.922C1582.69 904.074 1582.61 902.733 1581.13 898.833Z"/><path fill="#FBB34E" transform="translate(-1383 0)" d="M1688.96 826.031C1711.38 827.384 1713.75 843.422 1705.78 861.331C1699.3 875.876 1688.75 884.789 1674.3 890.42C1670.7 890.99 1667.03 890.621 1663.62 889.349C1660.37 888.147 1656.22 885.155 1655.32 881.726C1648.39 855.296 1666.44 834.731 1688.96 826.031Z"/><path fill="#140C0D" transform="translate(-1383 0)" d="M1688.21 832.797L1690.38 834.363C1688.87 841.503 1663.44 833.884 1663.85 879.551C1648.21 861.304 1672.72 840.717 1688.21 832.797Z"/><path fill="#140C0D" transform="translate(-1383 0)" d="M1698.77 844.44L1700.37 845.978C1706.16 861.969 1684.36 878.798 1671.43 883.865L1670.61 882.199C1673.41 875.174 1691.53 881.934 1698.77 844.44Z"/><path fill="#FDF2E0" transform="translate(-1383 0)" d="M1644.77 863.402L1645.79 863.451C1646.32 863.873 1646.86 864.296 1647.4 864.718C1649.75 876.457 1648.41 880.502 1654.74 891.234C1635.37 890.907 1617.45 888.182 1598.56 884.25C1590.83 881.823 1587.67 880.299 1580.69 876.366C1603.43 866.816 1620.39 865.152 1644.77 863.402Z"/><path fill="#FDF2E0" transform="translate(-1383 0)" d="M1724.87 864.653C1735.74 865.27 1763.02 868.113 1770.67 876.131C1771.98 883.644 1760.08 884.882 1754.33 886.331C1738.33 889.086 1724.82 890.206 1708.74 891.239C1717.21 882.194 1720.51 876.009 1724.87 864.653Z"/><path fill="#FBB34E" transform="translate(-1383 0)" d="M1715.03 839.542C1731.47 852.167 1712.25 885.314 1694.52 892.408C1691.96 892.288 1691.7 892.529 1689.53 891.281C1690.55 887.938 1697.44 884.262 1700.86 880.604C1712.76 867.881 1714.76 855.823 1715.03 839.542Z"/><path fill="#100E16" transform="translate(-1383 0)" d="M1595.43 182.321C1612.77 182.327 1616.03 192.748 1619.91 207.426C1634.92 207.551 1649.92 207.473 1664.93 207.194C1668.32 194.532 1677.41 176.685 1694.21 185.179C1702.21 189.221 1704.71 199.352 1706.8 207.452C1721.95 207.19 1738.1 207.543 1753.33 207.61C1759.46 189.856 1762.65 180.396 1783.22 184.838C1791.42 191.922 1792.58 197.399 1794.73 207.61C1798.42 207.443 1802.11 207.369 1805.8 207.39C1821.52 207.6 1849.07 227.25 1850.47 242.419C1857.47 318.129 1852.96 396.996 1852.36 473.142C1852.29 482.958 1851.99 495.398 1844.82 501.347C1830.5 513.226 1806.7 511.183 1789.25 510.632C1768.68 510.305 1748.11 510.181 1727.53 510.261C1715.9 525.649 1702.56 541.548 1680.17 536.862C1666.21 533.938 1659.73 521.374 1653.1 510.019C1625.74 510.981 1588.37 512.547 1561.81 507.295C1544.8 503.932 1537.28 491.344 1529.33 477.508C1523.84 476.078 1517.18 474.555 1512.58 471.105C1509.39 468.719 1507.31 465.473 1506.81 461.495C1505.4 450.154 1517.74 412.723 1520.26 398.454C1524.67 373.397 1528.08 348.398 1529.62 322.98C1530.93 301.278 1525.85 233.556 1538.52 218.486C1547.44 207.872 1564.37 208.95 1577.01 208.227C1580.17 195.42 1582.34 187.669 1595.43 182.321ZM1841 308.909C1838.85 315.516 1840.5 341.827 1840.54 350.312C1840.69 384.301 1839.31 418.14 1837.6 452.088C1836.97 464.479 1837.14 482.891 1825.78 490.646C1810.42 501.124 1740.3 488.795 1731.75 498.802C1731.41 501.508 1731.01 500.33 1732.68 502.487L1734.75 502.7C1754.11 502.974 1829.48 506.463 1840.51 495.514C1843.91 492.144 1844.81 481.366 1845.19 476.532C1846.44 460.718 1848.16 321.296 1845.86 313.096C1845.09 310.351 1843.34 310.078 1841 308.909ZM1555.24 494.46L1553.75 495.647C1561.17 505.49 1636.15 502.618 1651.75 502.481L1653.59 500.609L1653.33 498.57C1648.64 495.417 1618.85 495.91 1611.36 496.11C1592.78 496.606 1573.53 494.365 1555.24 494.46ZM1586.07 207.965C1591.87 207.773 1598.23 207.714 1603.95 207.164C1608.6 206.729 1607.73 207.555 1610.22 204.938C1612.14 196.633 1603.26 190.16 1595.13 190.816C1589.48 196.945 1588.39 199.911 1586.07 207.965ZM1655.99 488.142L1657.5 483.988L1656.58 482.442C1647.5 481.4 1637.03 481.409 1627.76 481.365C1598.3 481.228 1568.74 479.145 1539.34 478.439C1539.73 480.434 1540.44 482.688 1542.53 483.242C1561.49 488.258 1638.88 490.216 1655.99 488.142ZM1691.25 206.909L1696.03 206.581C1700.95 199.514 1692.3 190.131 1683.42 190.104C1679.71 193.117 1675.36 197.302 1674.14 202.038C1676.15 209.111 1685.23 207.189 1691.25 206.909ZM1779.25 207.271C1784.2 207.042 1783.74 207.913 1786.32 205.311C1787.66 197.551 1778.31 191.191 1771 190.672C1767.13 194.388 1763.33 197.751 1762.65 203.214C1765.79 209.483 1773.08 207.625 1779.25 207.271Z"/><path fill="#FDF2E0" transform="translate(-1383 0)" d="M1537.48 299.691L1831.99 300.066C1832.06 330.04 1830.38 359.97 1823.77 389.238C1814.41 430.73 1780.84 398.658 1762.99 428.214L1762.38 429.232C1759.38 445.543 1763.61 456.823 1751.44 469.938C1712.18 482.065 1639.76 470.832 1597.48 471.902C1577.03 472.42 1552.26 469.989 1531.76 469.039C1518.46 468.423 1509.18 461.792 1515.12 448.507C1530.63 400.379 1535.45 349.956 1537.48 299.691Z"/><path fill="#100E16" transform="translate(-1383 0)" d="M1700.94 339.098C1734.47 337.684 1731.65 373.826 1716.35 393.123C1705.21 407.164 1692.28 417.678 1677.26 427.278C1669.63 422.389 1662.22 416.217 1655.09 410.559C1651.47 407.052 1647.91 403.485 1644.41 399.86C1631.88 386.653 1621.64 365.003 1633.68 347.973C1637.56 342.494 1644.73 339.634 1651.37 340.283C1662.7 341.389 1670.5 348.514 1677.53 356.759C1685.6 346.097 1688.99 343.808 1700.94 339.098Z"/><path fill="#F97D5E" transform="translate(-1383 0)" d="M1700.91 346.005C1715.21 346.924 1722.78 352.853 1720.44 368.883C1717.37 389.883 1692.73 407.839 1676.81 419.928L1654.59 401.095C1644.19 391.259 1633.81 377.617 1635.44 362.502C1636.47 352.974 1643.51 345.27 1653.62 347.699C1665 350.433 1671.06 359.842 1677.22 368.814C1685.17 357.44 1688.47 352.676 1700.91 346.005Z"/><path fill="#F97D5E" transform="translate(-1383 0)" d="M1761.15 216.917C1761.64 213.726 1761.05 215.154 1763.11 212.531C1773.17 208.479 1795.1 212.924 1805.61 215.76C1812.5 216.197 1820.65 217.047 1824.98 222.951C1836.14 238.181 1832.3 275.467 1832.11 293.302C1791.33 292.749 1750.77 294.228 1709.91 294.057C1652.32 293.816 1594.92 292.505 1537.32 293.505C1537.89 250.827 1522.79 218.388 1578.39 216.037C1580.33 227.048 1586.25 241.979 1597.52 246.193C1598.27 245.108 1599.69 243.693 1599.06 242.646C1591.8 230.611 1588.47 230.295 1585.55 216.065C1595.47 215.94 1662.92 214.169 1666.71 215.9L1667.02 217.748C1667.57 218.428 1667.29 218.024 1667.89 219.15L1668.39 220.105L1670.14 220.671C1670.33 222.157 1670.09 221.384 1671.04 222.925C1671.21 219.935 1670.94 217.725 1672.77 215.241C1699.89 214.805 1727.02 215.005 1754.12 215.842C1755.8 223.861 1762.33 245.71 1772.79 244.664L1774.89 242.762C1774.95 239.644 1774.96 239.101 1771.67 236.247C1763.26 228.966 1764.01 227.528 1761.15 216.917Z"/><path fill="#140C0D" transform="translate(-1383 0)" d="M1667.02 217.748C1667.57 218.428 1667.29 218.024 1667.89 219.15L1668.39 220.105L1670.14 220.671C1670.33 222.157 1670.09 221.384 1671.04 222.925C1671.21 219.935 1670.94 217.725 1672.77 215.241C1673.57 218.382 1674.28 221.434 1675.59 224.416C1677.74 229.307 1685.22 237.314 1684.06 242.637C1674.34 246.211 1667.57 224.773 1667.02 217.748Z"/><path fill="#140C0D" transform="translate(-1383 0)" d="M1761.15 216.917C1761.64 213.726 1761.05 215.154 1763.11 212.531C1773.17 208.479 1795.1 212.924 1805.61 215.76C1796.23 215.666 1767.75 214.571 1761.15 216.917Z"/><path fill="#FDF2E0" transform="translate(-1383 0)" d="M1832.36 380.903L1832.72 378.23L1833.47 378.305C1833.93 382.022 1834.29 393.507 1833.17 396.717C1832.89 410.563 1832.99 471.876 1826.46 480.219C1823.44 484.074 1817.38 485.659 1812.79 486.587C1804.59 488.243 1737.46 491.007 1733.76 488.591C1733.4 485.498 1732.56 481.715 1736.53 481.216C1775.97 476.252 1807.43 450.952 1823.25 414.718C1827.87 404.138 1830.01 392.916 1832.36 380.903Z"/><path fill="#605B56" transform="translate(-1383 0)" d="M1832.36 380.903L1832.72 378.23L1833.47 378.305C1833.93 382.022 1834.29 393.507 1833.17 396.717C1832.86 391.448 1832.59 386.176 1832.36 380.903Z"/><path fill="#BBB3A6" fill-opacity="0.015686275" transform="translate(-1383 0)" d="M1841 308.909C1843.34 310.078 1845.09 310.351 1845.86 313.096C1848.16 321.296 1846.44 460.718 1845.19 476.532C1844.81 481.366 1843.91 492.144 1840.51 495.514C1829.48 506.463 1754.11 502.974 1734.75 502.7L1732.68 502.487C1731.01 500.33 1731.41 501.508 1731.75 498.802C1740.3 488.795 1810.42 501.124 1825.78 490.646C1837.14 482.891 1836.97 464.479 1837.6 452.088C1839.31 418.14 1840.69 384.301 1840.54 350.312C1840.5 341.827 1838.85 315.516 1841 308.909Z"/><path fill="#FBB34E" transform="translate(-1383 0)" d="M1669.66 480.745C1671.66 480.816 1679.6 480.95 1680.77 481.598C1687.96 482.292 1698.39 481.332 1705.84 480.886L1709.76 481.397C1712.23 480.761 1712.07 480.864 1714.51 481.719C1723.5 495.571 1689.13 527.521 1672.46 523.229C1653.21 518.274 1655.38 490.498 1669.66 480.745Z"/><path fill="#140C0D" transform="translate(-1383 0)" d="M1705.84 480.886L1709.76 481.397C1704.21 502.542 1696.43 509.709 1676.63 517.473C1684.8 505.665 1700.65 507.071 1705.84 480.886Z"/><path fill="#140C0D" transform="translate(-1383 0)" d="M1669.66 480.745C1671.66 480.816 1679.6 480.95 1680.77 481.598C1671.34 483.443 1669.37 503.542 1665.98 507.533C1661.1 500.504 1671.24 489.189 1672.28 482.221L1669.66 480.745Z"/><path fill="#FDF2E0" transform="translate(-1383 0)" d="M1811.62 417.174L1813.48 416.89L1814.09 418.405C1809.22 435.864 1780.94 456.852 1766.18 466.11L1764.75 466.462L1764.08 464.639C1766.39 455.5 1767.3 449.99 1767.79 440.71C1769.08 416.038 1792.36 422.602 1811.62 417.174Z"/><path fill="#BBB3A6" fill-opacity="0.011764706" transform="translate(-1383 0)" d="M1539.34 478.439C1568.74 479.145 1598.3 481.228 1627.76 481.365C1637.03 481.409 1647.5 481.4 1656.58 482.442L1657.5 483.988L1655.99 488.142C1638.88 490.216 1561.49 488.258 1542.53 483.242C1540.44 482.688 1539.73 480.434 1539.34 478.439Z"/><path fill="#FDF2E0" fill-opacity="0.019607844" transform="translate(-1383 0)" d="M1555.24 494.46C1573.53 494.365 1592.78 496.606 1611.36 496.11C1618.85 495.91 1648.64 495.417 1653.33 498.57L1653.59 500.609L1651.75 502.481C1636.15 502.618 1561.17 505.49 1553.75 495.647L1555.24 494.46Z"/><path fill="#FBB34E" transform="translate(-1383 0)" d="M1722.97 480.22L1725.71 482.206C1728.35 487.92 1728.61 493.292 1725.88 499.088C1717.19 517.597 1702.97 530.661 1682.07 532.092L1679.16 530.492C1679.75 528.295 1712.74 524.966 1722.97 480.22Z"/><path fill="#E16D55" transform="translate(-1383 0)" d="M1838.04 247.739L1840.66 246.35C1843.68 247.723 1843.1 247.984 1845.32 251.214C1846.02 260.824 1850.41 294.455 1844.03 300.761L1842.01 300.262C1837.68 294.131 1838.19 257.332 1838.04 247.739Z"/><path fill="#F97D5E" transform="translate(-1383 0)" d="M1836.33 232.757C1841.91 238.787 1844.76 242.638 1845.32 251.214C1843.1 247.984 1843.68 247.723 1840.66 246.35L1838.04 247.739L1836.33 232.757Z"/><path fill="#140C0D" transform="translate(-1383 0)" d="M1628.7 546.289C1676.3 539.055 1704.94 610.644 1656.1 625.59C1608.33 629.446 1576.65 562.124 1628.7 546.289Z"/><path fill="#FBB34E" transform="translate(-1383 0)" d="M1629.93 551.24C1635.21 551 1638.87 550.674 1644.03 552.281C1656.1 556.134 1666.15 564.607 1671.98 575.849C1679.2 589.77 1678.9 604.162 1663.57 611.607C1628.9 610.355 1598.21 562.404 1629.93 551.24Z"/><path fill="#140C0D" transform="translate(-1383 0)" d="M1630.77 558.409C1654.17 555.31 1668.73 572.21 1670.13 594.511C1663.98 590.219 1663.06 572.067 1652.32 566.362C1644.65 562.292 1637.88 561.748 1630.77 558.409Z"/><path fill="#140C0D" transform="translate(-1383 0)" d="M1625.84 569.415C1631.04 572.264 1632.54 584.103 1637.43 589.029C1642.72 594.355 1651.06 598.812 1657.55 603.006C1641 603.61 1626.1 585.37 1625.84 569.415Z"/><path fill="#FBB34E" transform="translate(-1383 0)" d="M1609.29 567.578C1612.78 570.615 1617.38 596.696 1630.8 606.054C1641 613.173 1648.48 613.937 1656.37 618.151L1656.52 619.877C1629.15 621.922 1599.24 595.506 1609.29 567.578Z"/><path fill="#140C0D" transform="translate(-1383 0)" d="M1731.57 617.31C1784.53 615.307 1779.83 680.428 1729.25 697.814C1692.87 701.871 1680.95 664.161 1698.57 638.461C1706.28 627.266 1718.18 619.644 1731.57 617.31Z"/><path fill="#FBB34E" transform="translate(-1383 0)" d="M1733.12 622.302C1754.42 622.479 1759.14 636.945 1750.59 654.56C1743.31 669.551 1732.39 677.821 1717.06 683.134C1712.15 683.757 1705.72 683.928 1701.94 680.885C1686.33 668.316 1701.75 640.315 1714.36 630.848C1721.54 625.456 1725.05 623.905 1733.12 622.302Z"/><path fill="#140C0D" transform="translate(-1383 0)" d="M1734.2 629.162C1736.77 628.971 1736.63 629.048 1739.09 629.898L1738.7 631.001C1714.91 638.708 1712.37 641.083 1704.05 664.441C1703.92 664.793 1702.92 666.018 1702.64 666.375C1700.73 660.309 1704.34 650.892 1707.65 645.811C1714.46 635.365 1722.65 631.918 1734.2 629.162Z"/><path fill="#140C0D" transform="translate(-1383 0)" d="M1744.36 638.722C1746.97 642.574 1745.54 648.974 1743.57 652.856C1737.73 664.382 1726.99 672.249 1715.26 676.434L1714.72 675.816C1713.72 670.869 1724.86 669.128 1729.33 665.374C1737.54 658.494 1740.61 648.282 1744.36 638.722Z"/><path fill="#FBB34E" transform="translate(-1383 0)" d="M1759.36 636.555C1769.57 643.338 1764.48 659.117 1759.01 667.21C1748.4 682.933 1738.05 688.678 1720.12 692.617C1716.7 691.761 1717.69 692.674 1715.75 690.603C1718.12 687.811 1735.27 684.322 1744.02 674.706C1755.78 661.773 1758.63 653.912 1759.36 636.555Z"/><path fill="#140C0D" transform="translate(-1383 0)" d="M1640.6 716.275C1693.95 713.735 1713.48 786.193 1662.77 794.511C1612.33 793.767 1587.17 728.325 1640.6 716.275Z"/><path fill="#FBB34E" transform="translate(-1383 0)" d="M1637.23 722.392C1667.69 720.584 1685.48 736.312 1686.91 766.832C1682.05 774.271 1681.4 775.893 1673.1 779.246C1648.2 782.774 1604.15 738.761 1637.23 722.392Z"/><path fill="#140C0D" transform="translate(-1383 0)" d="M1639.1 728.474C1647.92 726.703 1657.08 728.436 1664.64 733.304C1674.81 739.862 1678.71 748.353 1681.07 759.551C1674.85 756.848 1672.1 743.132 1664.46 737.647C1656.29 731.778 1645.29 733.029 1639.1 728.474Z"/><path fill="#140C0D" transform="translate(-1383 0)" d="M1634.07 741.59C1640.03 744.512 1641.08 753.206 1646.24 757.694C1653.54 764.041 1663.41 765.605 1670.72 771.929C1652.43 771.092 1638.63 759.137 1634.07 741.59Z"/><path fill="#FBB34E" transform="translate(-1383 0)" d="M1618.29 740.659C1621.04 742.817 1626.58 758.65 1630.47 763.983C1639.67 776.605 1652.59 782.387 1667.46 785.244L1669.27 785.583L1669.89 787.502C1641.71 790.677 1613.01 771.296 1618.29 740.659Z"/><path fill="#140C0D" fill-opacity="0.96862745" transform="translate(-1383 0)" d="M1725.6 539.476C1734.68 544.824 1725.93 573.926 1732.05 580.826C1734.24 579.424 1734.11 579.457 1736.64 578.875L1737.71 580.016C1738.09 587.017 1733.01 594.9 1727.75 599.216C1721.76 595.404 1714.07 585.749 1716.45 578.233L1718.09 578.35C1720.46 580.485 1720.66 581.259 1723.48 581.955C1725.5 576.722 1721.23 547.581 1725.6 539.476Z"/><path fill="#100E16" fill-opacity="0.98039216" transform="translate(-1383 0)" d="M1646.52 644.294C1653.99 649.625 1649.3 675.777 1652.64 685.408C1654.94 683.082 1655.96 681.724 1658.95 680.314L1660.07 681.465C1660.55 688.472 1654.2 694.941 1649.82 701.013C1648.57 702.451 1649.16 701.818 1646.99 702.562C1644.3 697.436 1635.19 685.012 1636.62 679.924C1639.13 679.653 1640.63 681.361 1643.38 683.072L1644.34 682.531C1646.62 669.519 1643.01 658.898 1646.52 644.294Z"/><path fill="#100E16" fill-opacity="0.96470588" transform="translate(-1383 0)" d="M1724.14 792.517C1728.42 788.047 1722.19 744.346 1728.67 741.637L1729.15 742.444L1727.92 741.829C1732.93 746.749 1731.99 783.261 1732.13 792.83C1735.13 789.551 1736.93 786.858 1741.05 785.421L1742.4 786.435C1741.09 794.779 1737.53 798.684 1732.75 805.702C1732.8 798.901 1732.86 794.117 1724.72 794.01L1724.14 792.517Z"/><path fill="#100E16" transform="translate(-1383 0)" d="M1712.58 782.606C1716.26 785.367 1720.61 789.415 1724.14 792.517L1724.72 794.01C1732.86 794.117 1732.8 798.901 1732.75 805.702C1729.95 808.627 1729.67 808.723 1726.11 808.321C1718.74 803.368 1715.29 790.92 1712.58 782.606Z"/></g></svg>