<?xml version="1.0" encoding="utf-8" ?><svg xmlns="http://www.w3.org/2000/svg" xmlns:xlink="http://www.w3.org/1999/xlink" width="764" height="737" viewBox="0 0 764 737"><clipPath id="switzerland-protected-cl_42"><rect width="764" height="737"/></clipPath><g clip-path="url(#switzerland-protected-cl_42)"><path fill="#090A12" transform="translate(0 -1311)" d="M423.978 1380.33C451.914 1380.62 493.305 1401.84 520.698 1410.7C544.816 1418.5 608.571 1431.75 613.833 1459.98C620.924 1498.01 617.574 1544.43 615.491 1583.27C641.89 1601.87 663.481 1615.5 676.172 1648.44C682.412 1664.63 682.175 1684.83 674.464 1700.48C661.457 1726.87 639.491 1733.46 614.206 1742.59C606.311 1781.23 568.928 1772.72 548.14 1748.63C537.998 1760.3 524.944 1771.03 513.156 1781.13C515.345 1799.57 513.365 1827.63 512.118 1846.16C516.27 1847.92 520.796 1849.86 524.603 1852.31C553.446 1870.81 539.011 1894.59 508.227 1895.82C437.979 1898.62 443.49 1878.16 441.781 1819.52C437.53 1820.89 435.146 1821.48 430.755 1822.32C422.13 1822.89 418.196 1822.31 410.141 1820.38C409.946 1841.28 409.877 1860.24 405.105 1880.78C395.454 1891.19 387.969 1891.55 373.635 1895.07C350.114 1900.85 288.556 1890.1 323.404 1856.09C327.542 1852.06 334.381 1848.83 340.022 1846.21C338.592 1824.04 337.919 1801.83 338.003 1779.61C325.903 1770.32 314.9 1760.52 303.571 1750.32C290.876 1763.35 275.189 1775.09 255.275 1766.88C244.636 1762.49 240.992 1752.34 237.265 1742.25C197.728 1730.44 163.472 1709.4 172.293 1660.67C178.532 1626.21 208.788 1602.97 236.201 1584.29C233.03 1547.71 227.826 1482.18 243.832 1448.6C251.657 1432.18 304.473 1418.52 322.205 1413.12C354.574 1403.28 390.909 1386.65 423.978 1380.33Z"/><path fill="#5BB48C" transform="translate(0 -1311)" d="M420.373 1392.11C445.419 1390.86 477.179 1408.13 500.935 1415.95C527.487 1424.69 553.917 1432.62 580.132 1442.67C612.422 1455.04 605.495 1485.1 606.298 1512.71C607.119 1586.06 599.072 1666.94 552.848 1726.97C522.712 1766.11 477.057 1794.97 431.151 1810.9C419.588 1811.56 405.546 1806.37 395.242 1801.37C334.018 1771.65 288.741 1729.45 265.505 1664.48C259.527 1647.38 255.098 1629.78 252.27 1611.89C247.461 1582.47 239.031 1481.12 251.047 1457.78C254.044 1451.95 260.221 1448.6 265.873 1445.73C291.368 1432.8 320.295 1425.85 347.324 1416.91C371.781 1408.82 395.557 1399.16 420.373 1392.11Z"/><path fill="#090A12" transform="translate(0 -1311)" d="M496.459 1532.89C508.63 1535.66 533.688 1555.33 528.184 1569.93C526.526 1574.33 517.591 1584.68 514.098 1588.64C485.668 1620.87 457.883 1653.86 428.5 1685.21C424.903 1689.05 418.993 1693.08 414.133 1694.94C399.298 1693.9 381.04 1671.91 370.448 1661.25C357.627 1649.22 343.064 1637.3 336.125 1621.18C342.094 1604.23 352.227 1593.8 369.46 1588.31L370.503 1588.82C385.389 1595.99 398.276 1611.17 409.682 1623.17C429.989 1601.08 473.572 1543.81 496.459 1532.89Z"/><path fill="#F8B34A" transform="translate(0 -1311)" d="M495.004 1543.68C501.801 1544.51 509.02 1550.2 513.477 1555.13C515.859 1557.77 519.215 1562.54 518.371 1566.36C517.24 1571.49 432.835 1666.49 422.015 1677.2C418.888 1680.3 415.452 1682.66 411.758 1685.01C398.242 1676.74 383.376 1660.17 372.198 1648.57C362.531 1639.24 353.942 1630.72 345.351 1620.37C378.465 1576.83 379.272 1616.33 410.667 1634.96C420.019 1627.63 432.216 1612.95 440.434 1603.99C458.472 1584.32 476.101 1562.45 495.004 1543.68Z"/><path fill="#090A12" transform="translate(0 -1311)" d="M449.081 1487.83C452.076 1488.13 450.686 1487.7 453.119 1489.62C453.627 1491.93 454.17 1493.58 452.656 1495.76C440.566 1513.25 420.556 1509.49 405.389 1501.57C402.689 1498.95 400.365 1496.2 400.164 1492.41L401.592 1490.98C408.309 1489.86 420.061 1496.27 427.874 1498.72C438.363 1495.94 440.52 1494.08 449.081 1487.83Z"/><path fill="#090A12" transform="translate(0 -1311)" d="M473.282 1463.57C477.17 1461.94 481.637 1462.56 484.937 1465.18C488.237 1467.8 489.847 1472.02 489.138 1476.17C488.428 1480.33 485.512 1483.77 481.529 1485.15C475.634 1487.19 469.182 1484.18 466.955 1478.35C464.727 1472.52 467.528 1465.98 473.282 1463.57Z"/><path fill="#090A12" transform="translate(0 -1311)" d="M369.174 1468.52C374.923 1466.4 381.303 1469.29 383.514 1475C385.726 1480.71 382.953 1487.14 377.281 1489.45C373.524 1490.98 369.232 1490.37 366.057 1487.84C362.881 1485.31 361.316 1481.27 361.962 1477.27C362.608 1473.26 365.365 1469.92 369.174 1468.52Z"/><path fill="#5BB48C" transform="translate(0 -1311)" d="M614.371 1596.31C628.027 1603.11 644.368 1618.39 653.101 1630.05C688.204 1677.09 662.815 1723.48 607.747 1731.45C602.903 1732.15 588.513 1734.53 588.043 1740.2C590.517 1742.64 595.689 1743.61 599.224 1744.44L601.066 1744.85L601.853 1746.62C589.331 1768.66 568.809 1757.04 557.617 1740.36C572.444 1720.64 579.535 1707.96 590.542 1686.48C624.688 1677.41 634.01 1666.75 606.32 1638.83C609.68 1624.78 611.934 1610.55 614.371 1596.31Z"/><path fill="#5BB48C" transform="translate(0 -1311)" d="M235.981 1597.08C239.312 1601.62 243.924 1631.95 245.462 1639.66C216.789 1665.35 228.509 1679.19 261.117 1686.2C270.459 1707.46 281.259 1722.73 294.901 1740.97C293.714 1742.41 292.487 1743.82 291.222 1745.19C278.527 1759.17 265.313 1764.91 250.813 1750.08L250.245 1748.4C251.819 1740.58 260.147 1745.14 264.681 1740.43C263.317 1733.91 249.447 1732.61 243.285 1731.37C209.718 1724.62 177.291 1706.63 182.993 1666.57C187.464 1635.15 212.212 1614.97 235.981 1597.08Z"/><path fill="#5BB48C" transform="translate(0 -1311)" d="M500.536 1789.87C507.209 1792.4 499.729 1840.2 501.904 1849.05C504.527 1859.73 534.625 1864.75 528.652 1878.35C518.53 1886.17 496.079 1884.47 483.752 1883.86C454.052 1880.17 456.216 1877.64 454.656 1846.98C454.121 1836.45 454.091 1825.53 453.889 1814.96C470.201 1808.32 485.614 1799.15 500.536 1789.87Z"/><path fill="#5BB48C" transform="translate(0 -1311)" d="M348.988 1788.58C368.303 1799.58 377.829 1806.06 399.007 1815.49C398.803 1828.74 398.919 1865.45 393.122 1876.96C390.567 1882.04 376.134 1882.89 370.236 1883.61C364.81 1884.11 359.369 1884.42 353.921 1884.54C345.186 1884.72 331.015 1884.19 324.543 1877.95C320.653 1866.77 341.897 1858.59 350.247 1853.22C352.105 1836.9 349.43 1806.57 348.988 1788.58Z"/><path fill="#FDF1DF" transform="translate(0 -1311)" d="M603.997 1651.97C612.015 1659.4 614.959 1665.62 604.197 1671.96C591.768 1674.98 601.568 1656.99 603.997 1651.97Z"/><path fill="#FDF1DF" transform="translate(0 -1311)" d="M247.472 1652.69C250.711 1656.14 256.407 1668.62 252.536 1672.91L249.62 1672.75C236.594 1665.49 239.168 1663.12 247.472 1652.69Z"/><path fill="#090A12" transform="translate(0 -1311)" d="M597.259 1792.43C606.314 1794.08 606.392 1803.8 608.876 1811.73C615.027 1815.93 626.662 1820.47 630.935 1826.46C629.152 1830.63 613.752 1836.42 608.88 1845.04C605.862 1850.39 604.04 1854.77 601.575 1860.66L600.222 1860.88C593.296 1858.42 595.19 1850.5 590.377 1843.48C584.418 1834.79 574.788 1833.15 569.69 1826.67C569.616 1819.93 579.051 1821.28 585.189 1815.88C592.076 1809.82 593.09 1801.24 597.259 1792.43Z"/><path fill="#F8B34A" transform="translate(0 -1311)" d="M599.516 1812.51C603.671 1815.46 606.524 1820.84 615.548 1826.92C607.593 1831.98 605.417 1834.14 599.933 1841.3C598.445 1840.42 588.83 1830 585.054 1826.79C592.409 1821.7 594.313 1819.38 599.516 1812.51Z"/></g></svg>