<?xml version="1.0" encoding="utf-8" ?><svg xmlns="http://www.w3.org/2000/svg" xmlns:xlink="http://www.w3.org/1999/xlink" width="764" height="596" viewBox="0 0 764 596"><clipPath id="switzerland-swiss-coin-cl_45"><rect width="764" height="596"/></clipPath><g clip-path="url(#switzerland-swiss-coin-cl_45)"><path fill="#090A12" transform="translate(0 -715)" d="M591.012 765.519C608.243 763.91 625.282 766.445 640.43 775.09C657.935 785.019 670.734 801.546 675.966 820.978C681.433 841.608 678.324 863.571 667.348 881.873C653.859 904.404 636.964 912.502 612.617 918.756C632.218 968.563 635.318 995.905 624.933 1048.2C646.454 1083.32 663.308 1152.73 640.677 1191.52C632.229 1206 606.925 1208.65 594.024 1198.16C579.394 1186.26 584.078 1165.6 583.436 1149.01C583.23 1140.62 582.919 1134.17 581.873 1125.81C559.407 1149.29 548.303 1155.59 519.915 1170.53C518.522 1186.39 517.412 1202.27 516.586 1218.16C554.818 1242.54 540.112 1265.22 499.824 1266.06C437.511 1267.35 446.379 1232.61 446.256 1186.43L428.65 1186.66L428.771 1213.3C428.714 1262.66 413.64 1266.27 366.684 1265.49C354.462 1263.67 333.861 1259.13 337.064 1241.46C339.076 1230.36 350.085 1223.97 359.02 1218.42C358.462 1205.96 356.249 1192.24 355.479 1178.94C324.417 1171.08 292.553 1149.03 271.107 1125.48C270.584 1132.22 270.803 1137.67 270.999 1144.42C282.824 1159.13 292.202 1167.74 276.456 1183.41L265.04 1184.98C260.95 1196.07 254.827 1207.78 242.335 1211.09C223.117 1216.18 204.868 1195.56 201.349 1178.33C192.637 1135.67 206.754 1088.54 228.809 1052.03C223.833 1021.58 219.477 1004.45 224.383 972.744C237.322 887.525 305.945 825.787 391.21 817.758C434.346 813.696 484.656 809.552 523.582 833.136C525.078 828.449 526.292 823.553 527.772 818.805C536.897 789.543 560.442 769.442 591.012 765.519Z"/><path fill="#F8B34A" transform="translate(0 -715)" d="M431.644 826.384C463.824 822.395 494.907 831.136 523.706 844.775C527.703 892.806 555.758 912.79 600.585 920.398C609.392 939.055 615.422 956.2 618.232 976.787C624.494 1023.11 611.847 1070 583.143 1106.9C551.797 1147.39 512.545 1167.51 462.39 1173.86C420.111 1178.81 372.829 1163.98 339.462 1137.71C303.326 1108.72 280.166 1066.58 275.065 1020.53C269.449 974.493 282.604 928.131 311.564 891.901C341.169 854.824 384.443 831.213 431.644 826.384Z"/><path fill="#090A12" transform="translate(0 -715)" d="M436.626 852.405C438.564 852.216 440.51 852.134 442.457 852.158C460.31 852.449 500.32 857.07 513.319 870.609C514.208 874.131 514.482 872.586 512.923 875.46C505.916 877.784 485.59 866.53 474.089 864.878C458.575 862.65 451.098 861.003 434.902 862.506C398.289 865.904 364.554 883.795 341.203 912.199C317.683 940.755 306.454 977.477 309.98 1014.3C313.594 1050.86 330.467 1084.42 359.079 1107.72C387.987 1131.14 425.01 1142.13 462.016 1138.28C498.077 1134.15 531.001 1115.81 553.483 1087.31C580.099 1053.48 586.906 1018.64 581.826 976.779C579.17 963.24 566.704 936.121 568.357 928.306L569.784 927.469C578.611 931.302 583 949.22 585.771 957.579C601.226 1004.2 591.14 1056 560.28 1094.67C536.188 1124.67 501.235 1143.95 463.011 1148.32C423.574 1152.45 384.093 1140.94 353.057 1116.26C322.703 1091.61 303.396 1055.9 299.391 1017C295.129 977.418 306.742 937.762 331.681 906.732C359.471 872.289 393.583 856.986 436.626 852.405Z"/><path fill="#090A12" transform="translate(0 -715)" d="M474.462 979.867C477.28 979.939 475.955 979.66 478.366 981.109C478.891 983.293 479.465 985.381 478.109 987.42C465.999 1005.62 445.615 1001.65 430.519 993.439C427.915 990.852 425.087 988.572 426.368 984.745C432.244 981.669 447.311 989.902 454.207 990.207C460.744 990.496 469.501 983.673 474.462 979.867Z"/><path fill="#090A12" transform="translate(0 -715)" d="M501.832 951.471C508.056 950.471 513.915 954.699 514.926 960.921C515.938 967.143 511.72 973.01 505.5 974.033C499.264 975.058 493.379 970.828 492.365 964.589C491.351 958.351 495.592 952.474 501.832 951.471Z"/><path fill="#090A12" transform="translate(0 -715)" d="M392.505 962.489C398.007 960.074 404.427 962.546 406.888 968.027C409.349 973.508 406.93 979.949 401.469 982.455C395.944 984.991 389.412 982.537 386.922 976.991C384.432 971.446 386.939 964.933 392.505 962.489Z"/><path fill="#F67A5F" transform="translate(0 -715)" d="M592.985 775.483C629.644 770.882 663.136 796.75 667.949 833.381C672.763 870.012 647.09 903.654 610.487 908.679C573.583 913.747 539.603 887.816 534.75 850.883C529.897 813.95 556.025 780.121 592.985 775.483Z"/><path fill="#090A12" transform="translate(0 -715)" d="M593.93 797.361C595.205 797.282 596.481 797.227 597.758 797.195C620.37 796.653 619.163 804.043 619.089 824.072C626.24 823.833 635.977 822.984 642.56 825.146C649.082 830.67 647.688 850.074 643.43 857.249C639.499 860.75 624.905 859.226 618.889 859.016C620.36 870.13 623.009 881.189 611.198 886.915C584.103 887.615 582.726 886.855 582.999 859.489C575.211 859.565 567.412 860.212 560.146 857.563C553.578 851.886 555.151 833.392 559.377 826.399C564.548 822.61 576.184 824.031 583.112 824.269C582.889 812.981 579.798 799.365 593.93 797.361Z"/><path fill="#FDF1DF" transform="translate(0 -715)" d="M592.222 807.035L610.086 806.76C609.443 832.775 610.473 833.424 636.667 833.072L636.903 850.6C635.158 850.497 633.411 850.415 631.664 850.352C607.886 849.519 609.846 856.487 609.962 877.49C604.329 877.548 598.479 877.293 592.831 877.137C593.205 850.02 592.279 850.007 565.545 850.3L565.283 833.436C590.819 834.301 594.31 832.932 592.222 807.035Z"/><path fill="#F8B34A" transform="translate(0 -715)" d="M233.181 1008.29C242.352 1008.96 252.612 1008.79 261.887 1008.83C266.415 1062.04 279.614 1087.01 311.81 1128.71L288.186 1128.3C282.431 1122.69 279.62 1119.43 274.569 1113.14C275.852 1110.35 276.983 1107.49 277.954 1104.57C279 1101.39 279.736 1098.07 278.159 1094.99C266.795 1093.75 259.883 1123.53 259.572 1132.51C259.182 1143.75 260.443 1148.85 267.689 1157.01C271.152 1160.5 273.48 1162.84 274.686 1167.5C272.991 1175.34 263.055 1173.05 256.671 1172.61C254.436 1179.61 251.908 1188.37 248.894 1194.98C247.845 1197.14 243.584 1202.19 240.985 1201.91C185.733 1195.92 216.444 1100.65 228.776 1072.67C236.095 1056.05 247.139 1050.44 245.751 1037.08L244.362 1036.04C241.841 1036.88 240.649 1037.25 238.055 1037.8C234.65 1033.33 233.653 1014.34 233.181 1008.29Z"/><path fill="#F8B34A" transform="translate(0 -715)" d="M620.26 1062.82C629.86 1072.31 638.653 1114.78 640.071 1128.85C642.851 1156.43 644.58 1190.34 609.276 1194.65C585.398 1183.14 594.641 1161.54 593.966 1140.22C593.663 1130.63 592.777 1125.97 589.973 1116.84C605.125 1098.69 611.693 1084.26 620.26 1062.82Z"/><path fill="#090A12" transform="translate(0 -715)" d="M625.209 1147.1C645.423 1153.04 626.163 1196.15 606.023 1168.65C604.875 1164.29 602.686 1155.76 607.27 1153.05C612.619 1156.74 613.918 1165.73 619.655 1169.33L621.316 1168.85C624.494 1163.44 624.844 1153.39 625.209 1147.1Z"/><path fill="#F8B34A" transform="translate(0 -715)" d="M506.772 1176.14C511.87 1179.39 503.69 1212.81 505.538 1220.24C508.188 1230.89 525.324 1232.99 528.283 1243.56C526.809 1258.71 495.646 1255.25 485.355 1254.59C453.455 1249.73 456.421 1237.51 457.766 1209.46C458.122 1202.04 458.024 1193.67 457.944 1186.18C478.172 1185.2 487.825 1182.34 506.772 1176.14Z"/><path fill="#F8B34A" transform="translate(0 -715)" d="M366.673 1181.48C386.155 1186.62 397.462 1187.08 417.11 1187.32C417.792 1207.74 418.587 1226.08 415.47 1246.42C408.528 1250.57 403.284 1251.7 395.598 1253.62C385.019 1255.32 356.368 1257.5 348.5 1249.73C344.654 1238.95 361.598 1229.68 369.417 1224.16C370.597 1213.04 367.916 1193.11 366.673 1181.48Z"/><path fill="#F8B34A" transform="translate(0 -715)" d="M253.984 962.441L265.649 961.999C263.231 975.374 262.341 986.053 261.986 999.601L245.473 999.075L232.982 999.069C233.574 985.014 234.841 976.832 237.699 963.007L253.984 962.441Z"/><path fill="#F8B34A" transform="translate(0 -715)" d="M256.81 915.971L282.145 915.977C276.133 928.12 272.625 941.219 266.793 953.217L240.557 953.071C245.3 938.157 249.022 929.303 256.81 915.971Z"/><path fill="#F8B34A" transform="translate(0 -715)" d="M286.795 877.045C293.256 877.269 301.355 876.945 307.943 876.86C301.135 885.769 293.102 899.568 285.366 907.07L261.986 907.072C270.427 893.891 275.428 887.582 286.795 877.045Z"/><path fill="#F8B34A" transform="translate(0 -715)" d="M299.937 1138.12L322.184 1138C342.465 1156.15 350.378 1157.79 371.194 1171.06C348.206 1170.09 318.217 1150.99 299.937 1138.12Z"/><path fill="#F8B34A" transform="translate(0 -715)" d="M359.124 835.196C359.679 835.698 359.37 835.311 359.455 836.647C341.737 846.563 334.692 852.107 319.359 865.883L302.457 866.102L301.656 865.556C305.655 855.272 347.035 839.711 359.124 835.196Z"/><path fill="#090A12" transform="translate(0 -715)" d="M1018.62 827.24C1019.12 817.423 1019.07 809.805 1025.58 801.701C1032.13 793.536 1043.16 791.358 1050.82 799.476C1058.68 807.817 1058.49 816.64 1058.51 827.308C1079 826.712 1101.28 827.324 1121.9 827.601C1124.48 785.876 1161.83 783.665 1164.33 828.289C1224.61 826.572 1217.92 855.995 1218.79 903.197L1220.76 973.365C1244.17 978.07 1269.89 988.155 1284.64 1007.9C1294.74 1021.15 1298.93 1037.98 1296.22 1054.42C1292.31 1079.54 1274.75 1096.17 1255.28 1110.62L1256.31 1114.99C1257.17 1118.64 1257.67 1120.78 1257.84 1124.61C1258.7 1141.65 1252.66 1158.32 1241.09 1170.86C1216.06 1198.18 1165.04 1201.28 1138.18 1175.84C1133.01 1176.39 1127.29 1177.27 1122.09 1177.96C1120.64 1189.67 1119.56 1199.65 1118.81 1211.44C1135.72 1220.22 1154.19 1229.93 1140.55 1251.53C1130.59 1259.89 1119.62 1260.86 1107.18 1261.48C1039.63 1264.83 1048.7 1229.65 1048.19 1176.8L1029.7 1177.36C1027.76 1196.64 1029.5 1223.14 1025.41 1241.34C1019.77 1266.39 943.402 1269.92 933.937 1246.07C927.67 1230.28 944.793 1218.41 958.432 1212.8C957.495 1200.67 956.76 1188.52 956.228 1176.37C943.701 1176.45 930.131 1176.32 917.722 1176.45C873.836 1176.93 858.968 1167.14 857.42 1122.19C845.664 1120.53 836.465 1119.54 825.73 1115.13C759.573 1087.94 781.95 1016.95 834.914 991.047C842.888 987.147 850.231 984.264 858.371 981.158C857.866 959.32 858.194 936.64 858.073 914.683C858.88 896.807 856.135 877.888 859.984 860.305C866.895 828.727 887.3 827.772 913.454 827.617C914.944 812.585 915.997 800.425 932.11 795.085C951.792 796.194 954.86 811.225 956.48 827.988C976.269 827.072 998.9 827.091 1018.62 827.24Z"/><path fill="#090A12" transform="translate(0 -715)" d="M224.596 805.345C253.043 804.342 268.786 828.298 252.914 852.924C242.092 869.715 221.151 877.862 202.205 881.628C185.566 882.378 170.097 874.492 167.218 856.98C162.145 826.124 199.94 809.355 224.596 805.345Z"/><path fill="#F8B34A" transform="translate(0 -715)" d="M224.387 815.171C230.567 814.788 237.929 813.813 241.529 819.854C244.779 838.687 208.189 852.323 194.732 856.207C188.378 856.883 177.687 857.376 174.163 851.127C174.676 832.603 209.547 818.946 224.387 815.171Z"/><path fill="#F8B34A" transform="translate(0 -715)" d="M247.827 834.886C251.719 841.772 245.696 849.356 240.412 853.541C226.57 864.503 206.054 873.194 188.234 871.396L186.233 869.287C186.872 863.852 198.892 867.094 206.432 864.275C225.89 857 234.591 850.467 247.827 834.886Z"/><path fill="#090A12" transform="translate(0 -715)" d="M283.773 751.386C290.868 755.088 289.985 758.934 292.939 767.598C297.524 770.664 307.012 776.111 310.146 779.779C309.115 783.462 297.277 790.095 294.395 794.79C290.835 800.591 290.682 803.808 286.554 809.562C282.58 807.621 280.175 805.916 280.077 801.045C279.814 788.01 266.34 789.826 260.155 782.999C259.464 780.032 259.43 779.426 263.308 777.261C281.254 767.24 275.766 766.395 283.773 751.386Z"/><path fill="#F8B34A" transform="translate(0 -715)" d="M285.258 770.724C286.541 771.258 293.787 779.07 295.423 780.752C291.674 784.177 289.995 786.162 286.75 790.104L285.905 790.713C282.91 789.174 279.353 784.009 277.076 781.144C279.538 777.662 282.562 774.072 285.258 770.724Z"/></g></svg>