<?xml version="1.0" encoding="utf-8" ?><svg xmlns="http://www.w3.org/2000/svg" xmlns:xlink="http://www.w3.org/1999/xlink" width="803" height="659" viewBox="0 0 803 659"><clipPath id="characters-blue-waving-cl_22"><rect width="803" height="659"/></clipPath><g clip-path="url(#characters-blue-waving-cl_22)"><path fill="#0E0E10" transform="translate(-1141 -1330)" d="M1541.03 1423.43C1626.71 1418.43 1736.67 1457.35 1758.33 1549.61C1763.62 1572.14 1767.45 1592.69 1761.37 1615.51C1796.96 1658.77 1814.94 1712.51 1801.99 1768.67C1799.49 1779.5 1792.07 1811.46 1777.34 1811.15C1764 1810.88 1765.78 1808.84 1753.66 1816.35C1747.86 1817.03 1744.03 1813.28 1739.38 1809.83C1716.9 1817.04 1715.78 1801.41 1716.36 1783.81C1710.64 1783.25 1702.39 1782.07 1697.95 1778.18C1686.32 1767.99 1709.84 1751.74 1713.74 1745.73C1719.59 1736.71 1714.86 1710.46 1713.28 1701.24C1691.89 1718.48 1681.78 1725.76 1656.23 1735.77C1655.08 1752.67 1650.11 1781.03 1647.07 1798.11C1688.78 1817.25 1682.6 1840.94 1638.21 1844.04C1623.77 1845.05 1588.14 1843.38 1578.53 1833.72C1566.91 1822.04 1569.56 1768.75 1569.3 1753L1555.51 1753.39C1555.31 1773.56 1556.16 1812.39 1549.45 1830.26C1547.15 1833.67 1545.3 1835.83 1541 1837.5C1519.24 1845.99 1484.67 1845.88 1462.5 1839.2C1458.36 1837.63 1452.74 1833.54 1451.53 1829.08C1446.99 1812.41 1464.54 1802.95 1477.27 1799.01C1474.69 1781.79 1471.38 1765.72 1469.29 1748.3C1453.85 1759.6 1439.59 1769.53 1420.5 1774.01C1409.47 1776.59 1384.3 1778.57 1374.72 1772.75C1367.22 1761.17 1390.42 1746.98 1395.75 1735.53C1400.59 1725.12 1401.39 1721.76 1403.73 1710.46L1386.21 1696.5C1329 1738.42 1258.58 1719.79 1214.23 1668.21C1203.27 1655.47 1192.42 1638.56 1209.68 1626.13C1211.63 1612.72 1210.81 1610.05 1224.51 1606.27C1233.58 1585.61 1244.48 1588.48 1259.57 1601.96C1263.74 1594.94 1271.09 1582.8 1281.47 1590.21C1291.11 1597.09 1292.51 1611.93 1293.94 1622.87C1307.84 1628.88 1329.77 1635.67 1342.33 1622.81C1345.99 1618.61 1344.3 1607.55 1343.98 1602.51C1336.24 1481.93 1435.93 1428.36 1541.03 1423.43Z"/><path fill="#78BCF7" transform="translate(-1141 -1330)" d="M1549.92 1433.45C1633.04 1429.25 1737.77 1473.02 1751.54 1564.12C1754 1580.36 1753.89 1592.67 1752.76 1608.83C1748.91 1605.98 1743.07 1601.78 1738.31 1604.87C1739.09 1611.55 1760.19 1628.14 1767.85 1639.08C1784.45 1663 1794.13 1691.04 1795.82 1720.11C1796.82 1735.11 1793.46 1801.7 1773.48 1801.66C1769.64 1796.39 1773.25 1788.94 1770.48 1783.27C1760.36 1780.28 1764.83 1800.03 1755.11 1805.48C1750.89 1805.28 1752.55 1806.07 1749.72 1803.61C1747.12 1795.66 1753.54 1786.29 1746.76 1781.1C1740.42 1782.81 1739.73 1794.03 1733.75 1801.3C1730.27 1802.46 1731.91 1802.5 1728.71 1801.7C1723.52 1795.09 1731.05 1780.71 1726.82 1770.96C1719.81 1765.94 1717.28 1773.63 1709.56 1772.83C1707.11 1770.8 1708.04 1772.07 1707.13 1768.6C1708.29 1762.15 1716.17 1755.73 1721.28 1751.57C1739.23 1736.95 1714.79 1659.79 1695.09 1660.99C1690.39 1665.58 1695.42 1671.91 1698.26 1676.33L1709.42 1691.97C1643.75 1750.02 1550.18 1751.83 1468.94 1732.7C1466.58 1735.09 1464.17 1737.44 1461.72 1739.74C1435.9 1763.75 1417.34 1767.89 1383.14 1766.58C1403.97 1745.29 1410.05 1734.91 1414.44 1705.89C1375.52 1677.15 1354.85 1647.01 1353.01 1597C1351.29 1557.98 1365.14 1519.88 1391.51 1491.08C1431.52 1448.16 1493.61 1435.47 1549.92 1433.45Z"/><path fill="#0E0E10" transform="translate(-1141 -1330)" d="M1518.5 1586.37C1529.27 1589.51 1534.02 1595.47 1548.05 1596.62C1562.27 1597.79 1575.17 1585.91 1582.87 1588.62C1583.87 1592.19 1583.43 1591.36 1582.26 1595.54C1566.41 1606.91 1547.68 1607.61 1529.48 1602.49C1521.32 1600.2 1515.28 1595.52 1518.5 1586.37Z"/><path fill="#0E0E10" transform="translate(-1141 -1330)" d="M1493.21 1558.49C1498.46 1556.18 1504.59 1558.57 1506.88 1563.83C1509.18 1569.09 1506.77 1575.21 1501.51 1577.49C1496.26 1579.77 1490.16 1577.37 1487.88 1572.13C1485.59 1566.89 1487.97 1560.79 1493.21 1558.49Z"/><path fill="#0E0E10" transform="translate(-1141 -1330)" d="M1599.16 1558.48C1604.4 1556.39 1610.34 1558.89 1612.51 1564.1C1614.67 1569.31 1612.25 1575.29 1607.07 1577.52C1603.65 1579 1599.71 1578.52 1596.75 1576.27C1593.79 1574.02 1592.27 1570.36 1592.77 1566.67C1593.26 1562.99 1595.71 1559.86 1599.16 1558.48Z"/><path fill="#78BCF7" transform="translate(-1141 -1330)" d="M1273.98 1599.41C1284.93 1602.08 1283.64 1618.14 1284 1626.96C1303.8 1643.61 1326.02 1644.84 1347.96 1631.65C1353.84 1655.61 1363.91 1670.44 1379.27 1689C1373.66 1693.54 1367.58 1697.48 1361.13 1700.73C1333.19 1714.83 1305.61 1711.53 1276.97 1702.09C1257.11 1692.49 1210.12 1664.45 1211.61 1638.61L1212.96 1637.5C1219.63 1638.23 1226.79 1646.21 1231.74 1643.8C1232.73 1632.81 1217.91 1630.54 1221.32 1620.26C1230.07 1612.68 1233.94 1627.74 1244.03 1628.11L1245.75 1626.38C1247.54 1616.36 1230.32 1608.66 1238.52 1602.99C1247.88 1596.52 1254.09 1616.62 1265.38 1617.49C1271.68 1614.1 1269.64 1607.94 1273.98 1599.41Z"/><path fill="#78BCF7" transform="translate(-1141 -1330)" d="M1643.32 1741.15C1643.82 1741.58 1644.32 1742 1644.81 1742.43C1645.94 1751.94 1637.6 1790.75 1636.22 1804.29C1645.09 1809.02 1661.46 1814.65 1664.09 1825.14C1660.91 1837.99 1621.54 1834.04 1611.24 1833.31C1604.5 1833.01 1590.68 1832.77 1586.55 1827.99C1576.61 1816.47 1579.86 1768.73 1579.93 1752.86C1604.2 1750.27 1619.57 1747.81 1643.32 1741.15Z"/><path fill="#78BCF7" transform="translate(-1141 -1330)" d="M1478.95 1745.73C1504.03 1751.57 1519.63 1752.4 1544.88 1753.75C1545.08 1767.62 1547.62 1814.98 1539.91 1826.77C1536.74 1831.63 1523.49 1832.69 1517.32 1833.27C1506.1 1834.87 1472.24 1836.9 1463.89 1827.73C1454.68 1817.62 1482.32 1807.66 1488.36 1805.17C1485.94 1785.55 1482.24 1765.28 1478.95 1745.73Z"/><path fill="#0E0E10" transform="translate(-1141 -1330)" d="M1719.38 1384.36C1798.49 1377.87 1847.53 1487.57 1810.96 1501.24C1791.86 1499.11 1792.67 1480.3 1787.74 1465.17C1785.53 1458.36 1782.47 1451.85 1778.63 1445.81C1766.64 1426.93 1749.08 1418.59 1727.58 1415.76C1706.55 1412.99 1697.13 1394.4 1719.38 1384.36Z"/><path fill="#FBB44D" transform="translate(-1141 -1330)" d="M1719.18 1391.07C1720.36 1391.02 1721.54 1391 1722.73 1391.02C1772.08 1391.99 1813.34 1432.83 1815.49 1482.3C1815.76 1488.48 1813.7 1491.11 1809.46 1495.13C1794.97 1491.24 1800.12 1470.05 1793.96 1456.42C1784.02 1434.41 1767.46 1417.63 1743.87 1410.65C1734.84 1407.97 1717.69 1407.96 1714.53 1398.75C1715.13 1395 1716.63 1393.92 1719.18 1391.07Z"/><path fill="#0E0E10" transform="translate(-1141 -1330)" d="M1718.92 1426.25C1759.32 1423.73 1802.44 1479.74 1769.46 1500.51C1746.75 1503.5 1753.75 1480.02 1742.17 1467.05C1731.25 1454.83 1700.28 1459.65 1707.09 1435.92C1708.56 1430.81 1714.41 1427.98 1718.92 1426.25Z"/><path fill="#FBB44D" transform="translate(-1141 -1330)" d="M1720.72 1432.88C1744.29 1436.88 1768.64 1450.97 1773.52 1478.06C1774.69 1484.54 1771.61 1489.53 1767.4 1494.32C1752.72 1490.13 1757.53 1470.99 1747.54 1460.45C1739.09 1451.55 1716.46 1452.43 1714.56 1440.22C1715.82 1436.37 1717.43 1435.61 1720.72 1432.88Z"/><path fill="#0E0E10" transform="translate(-1141 -1330)" d="M1318.15 1460.19C1328.21 1462.95 1324.48 1473.8 1332.25 1480C1336.71 1483.56 1344.94 1483.31 1348.41 1489.02C1343.51 1498.08 1329.53 1493.31 1323.69 1516.68C1323.12 1517.66 1322.57 1517.77 1321.46 1518.5C1316.15 1516.51 1313.98 1507.23 1311 1500.89C1305.75 1497.36 1295.37 1495.24 1296.58 1488.18C1299.53 1484.56 1304.34 1482.93 1308.73 1480.87C1312.32 1475.63 1315 1466.75 1318.15 1460.19Z"/><path fill="#FBB44D" transform="translate(-1141 -1330)" d="M1319.82 1475.63C1322.89 1477.73 1324.86 1483.52 1332.73 1489.09C1326.13 1494.55 1324.74 1496.47 1320.87 1503.74C1315.82 1496.33 1314.88 1494.87 1307.9 1489.72C1314.29 1484.96 1316.03 1482.58 1319.82 1475.63Z"/></g></svg>