<?xml version="1.0" encoding="utf-8" ?><svg xmlns="http://www.w3.org/2000/svg" xmlns:xlink="http://www.w3.org/1999/xlink" width="691" height="627" viewBox="0 0 691 627"><clipPath id="characters-grape-cl_43"><rect width="691" height="627"/></clipPath><g clip-path="url(#characters-grape-cl_43)"><path fill="#090A12" transform="translate(-1357 -684)" d="M1630.68 791.584C1634.44 791.254 1638.21 791.049 1641.99 790.971C1684.23 790.162 1766 795.563 1796.4 826.473C1801.2 831.344 1804.89 836.992 1806.98 843.523C1813.61 864.27 1815.76 941.819 1815.89 966.654L1817.43 967.264C1844.23 978.205 1880.82 1003.33 1890.79 1031.46C1908.91 1082.63 1877.6 1106.86 1835.24 1123.57C1829.96 1146.38 1822.78 1147.91 1801.15 1149.27C1786.24 1175.44 1757.56 1185.32 1728.85 1188.49C1728.9 1198.64 1728.79 1208.79 1728.52 1218.93C1738.73 1222.65 1750.71 1228.68 1754.02 1240.01C1755.36 1244.52 1754.74 1249.38 1752.32 1253.4C1740.78 1272.94 1691.51 1269.14 1673.02 1260.17C1651.35 1249.65 1662.12 1199.93 1654.26 1195.54L1630.21 1195.28C1628.3 1211.38 1627.25 1229.41 1623.93 1245.14C1622.56 1251.62 1616.92 1258.22 1610.98 1260.95C1592.32 1269.52 1541.73 1272.48 1532.06 1250.14C1530.47 1246.51 1530.45 1242.39 1532.02 1238.76C1536.38 1228.49 1548.21 1222.91 1557.72 1218.84C1558.17 1209.33 1557.9 1196.84 1557.93 1187.11C1527.89 1182.78 1500 1177.64 1483.44 1149.89C1463.56 1148.14 1454.12 1143.45 1450.51 1122.83C1444.86 1120.67 1438.93 1118.51 1433.51 1116.04C1376.11 1089.86 1376.86 1031.15 1423.9 994.328C1439.9 981.809 1452.4 975.744 1470.37 966.533C1470.61 947.743 1472.39 928.356 1473.2 909.493C1474.23 890.108 1473.51 870.526 1477.94 851.497C1482.08 832.913 1494.04 819.745 1511.63 812.529C1547.7 797.742 1592.04 793.756 1630.68 791.584Z"/><path fill="#A49AEB" transform="translate(-1357 -684)" d="M1625.62 803.41C1647.21 801.155 1693.93 805.876 1716.52 809.025C1738.01 812.021 1777.11 818.267 1789.29 837.406C1804.31 861.021 1800.59 891.791 1801.54 918.134C1802.34 940.421 1804.42 948.015 1800.64 969.866C1810.28 977.122 1822.41 982.797 1833.63 988.919C1865.59 1005.74 1898.18 1042.67 1878.36 1080.3C1864.81 1106.04 1840.04 1110.08 1814.59 1114.78C1811.97 1115.27 1809.4 1117.11 1808.22 1119.56C1810.34 1122.59 1816.88 1123.08 1822.04 1127.13C1822.6 1128.75 1823.18 1129.05 1822.38 1130.48C1817.39 1139.16 1804.34 1139.36 1796.23 1135.61C1781.93 1129.19 1777.27 1109.44 1780.26 1095.35C1783.75 1077.24 1801.91 1071.14 1817.38 1065.96C1843.15 1057.33 1843.36 1044.11 1823.97 1026.96C1818.81 1022.39 1805.6 1013.3 1798.51 1016.64L1797.81 1018.88C1799.06 1023 1800.81 1024.15 1803.97 1027.34L1802.44 1059.03C1776.4 1070.2 1763.48 1087.21 1768.98 1117.06C1771.6 1131.31 1778.68 1138.14 1790.21 1145.76C1777.6 1163.72 1765.84 1167.98 1745.15 1173.23C1717.78 1180.17 1690.3 1182.01 1662.25 1183.92C1633.17 1184.95 1604.05 1183.32 1575.27 1179.06C1544.78 1174.65 1513.42 1171.46 1494.49 1146.18C1515.53 1132.78 1522.76 1111.55 1514.97 1086.98C1510.3 1072.21 1496.59 1064.25 1483.03 1058.15C1482.9 1047.85 1482.4 1037.19 1482.06 1026.87L1483.5 1025.43C1486.18 1022.69 1487.29 1021.29 1487.28 1017.72C1476.74 1010.48 1444.03 1039.19 1448.75 1049.81C1459.32 1073.63 1500.99 1063.84 1505.92 1097.31C1509.77 1123.49 1490.19 1150.09 1463.9 1131.64C1461.68 1130.08 1462.07 1129.55 1462.08 1127.35C1466.46 1123.12 1470.83 1124.29 1476.28 1120.22C1476.3 1118.45 1475.71 1117.56 1473.98 1116.77C1450.92 1106.19 1430.37 1110.76 1413.24 1088.2C1381.07 1045.8 1418.63 1006.13 1455.69 986.436C1464.33 981.845 1474.3 978.061 1482.35 972.469C1484.47 970.996 1484.5 969.595 1484.57 967.358C1483.73 966.17 1481.27 962.537 1481.42 961.331C1485.1 931.463 1481.35 871.733 1491.93 845.733C1507 808.735 1590.98 806.239 1625.62 803.41Z"/><path fill="#090A12" transform="translate(-1357 -684)" d="M1513.89 840.4C1565.63 871.597 1672.16 864.635 1731.17 856.505C1747.66 854.233 1760.53 843.576 1770.71 841.854C1773.71 842.948 1772.59 841.991 1774.11 844.9C1773.87 848.788 1773.68 848.657 1771.41 851.646C1763.88 857.621 1756.17 861.264 1747.03 864.102C1699.36 878.898 1563.97 879.738 1520.18 856.37C1516.62 854.47 1512.14 852.411 1511.27 848.033C1510.67 845.038 1512.37 842.777 1513.89 840.4Z"/><path fill="#090A12" transform="translate(-1357 -684)" d="M1665.06 947.819C1666.77 948.446 1667.52 949.29 1669.06 950.466C1669.89 952.464 1670.79 954.269 1669.2 956.279C1656.69 972.191 1635.8 969.744 1621.27 961.825C1618.66 959.496 1614.22 955.457 1616.46 951.94C1622.98 949.461 1636.51 957.135 1643.65 958.115C1650.25 959.022 1659.88 951.53 1665.06 947.819Z"/><path fill="#090A12" transform="translate(-1357 -684)" d="M1689.36 923.495C1695.13 920.968 1701.87 923.56 1704.46 929.307C1707.05 935.055 1704.54 941.819 1698.82 944.477C1695.06 946.223 1690.66 945.816 1687.29 943.41C1683.91 941.004 1682.09 936.97 1682.52 932.849C1682.95 928.728 1685.56 925.156 1689.36 923.495Z"/><path fill="#090A12" transform="translate(-1357 -684)" d="M1585.29 928.47C1591.03 926.609 1597.21 929.615 1599.28 935.276C1601.36 940.937 1598.58 947.225 1593 949.511C1589.21 951.068 1584.86 950.423 1581.67 947.83C1578.49 945.238 1576.98 941.112 1577.73 937.076C1578.49 933.039 1581.39 929.738 1585.29 928.47Z"/><path fill="#A49AEB" transform="translate(-1357 -684)" d="M1569.03 1190.61C1585.85 1192.18 1601.13 1194.11 1618.18 1195.23C1615.9 1210.88 1618.08 1235.04 1610.15 1247.57C1606.2 1253.81 1599.57 1254.07 1592.87 1254.99C1560.62 1260.34 1512.76 1248.45 1568.11 1225.96C1567.85 1214.7 1568.61 1201.98 1569.03 1190.61Z"/><path fill="#A49AEB" transform="translate(-1357 -684)" d="M1714.44 1191.55C1715.06 1191.55 1714.58 1191.44 1716.28 1192.77C1718.55 1200.71 1717.88 1217.56 1717.77 1226.42C1724.55 1228.84 1741.87 1234.73 1741.81 1243.45C1741.7 1259.37 1710.24 1256.24 1699.76 1255.64C1659.09 1249.9 1671.85 1228.19 1668.25 1197.42L1668.08 1196.01C1682.78 1194.13 1699.54 1192.94 1714.44 1191.55Z"/><path fill="#FDF1DF" transform="translate(-1357 -684)" d="M1469.79 1034.91C1472.4 1039.32 1472.36 1046.51 1470.46 1051.3C1467.72 1053.86 1468.98 1053.13 1464.27 1053.18C1456.19 1044.71 1463.17 1040.85 1469.79 1034.91Z"/><path fill="#FDF1DF" transform="translate(-1357 -684)" d="M1815.17 1035.32C1821.3 1038.18 1828.97 1044.84 1823.79 1051.85L1814.29 1055.55C1814.91 1049.3 1814.97 1041.7 1815.17 1035.32Z"/><path fill="#090A12" transform="translate(-1357 -684)" d="M1831.27 731.117C1840.6 733.25 1841.76 742.994 1843.07 750.777C1852.47 762.345 1867.94 765.893 1870.54 771.993C1867.76 779.624 1849.2 781.781 1844.1 791.771C1840.5 798.815 1839.6 806.115 1836.51 813.599C1826.39 810.821 1827.9 798.306 1821.2 787.364C1815.05 783.466 1798.94 777.87 1797.55 770.601C1800.05 767.324 1806.1 765.403 1810.09 763.211C1823.19 756.009 1827.33 744.371 1831.27 731.117Z"/><path fill="#A49AEB" transform="translate(-1357 -684)" d="M1833.6 752.967C1841.62 763.044 1843.24 765.363 1854.02 772.077C1843.17 778.654 1840.71 781.871 1834.16 792.062C1827.34 786.435 1829.52 781.335 1813.59 772.003C1824.47 765.765 1826.8 762.822 1833.6 752.967Z"/><path fill="#090A12" transform="translate(-1357 -684)" d="M1859.7 825.471C1867.31 825.952 1869.01 834.248 1871.42 840.397C1876.23 843.231 1881.55 845.692 1884.72 850.058C1885.78 857.603 1876.08 858.988 1871.29 864.742C1869 867.498 1866.65 872.699 1865.05 875.999L1861.57 875.64C1858.06 873.041 1856.78 867.468 1855.22 863.136C1850.21 858.997 1840.93 855.804 1840.55 849.53C1842.74 846.037 1847.33 844.677 1851.28 842.916C1854.56 838.621 1857.6 830.606 1859.7 825.471Z"/><path fill="#F6A15C" transform="translate(-1357 -684)" d="M1862.01 844.57C1864.55 845.73 1867.1 848.002 1868.24 850.629C1867.48 855.177 1867.3 854.1 1863.54 858.165C1860.62 857.79 1858.97 855.336 1857.77 853.001C1858.47 847.678 1858.22 849.362 1862.01 844.57Z"/></g></svg>