<?xml version="1.0" encoding="utf-8" ?><svg xmlns="http://www.w3.org/2000/svg" xmlns:xlink="http://www.w3.org/1999/xlink" width="653" height="573" viewBox="0 0 653 573"><clipPath id="characters-green-with-coin-cl_2a"><rect width="653" height="573"/></clipPath><g clip-path="url(#characters-green-with-coin-cl_2a)"><path fill="#040202" transform="translate(0 -1024)" d="M499.758 1136.38C529.77 1132.62 554.645 1148.82 560.022 1180.25C562.786 1196.41 555.577 1209.41 546.047 1221.93C546.739 1244.08 542.43 1251.6 524.338 1263.54C516.161 1300.56 492.698 1323.78 458.456 1337.29L458.097 1338.67C444.252 1389.98 422.175 1411.91 377.887 1437.32C379.009 1449.15 379.768 1458.31 379.957 1470.24C382.966 1469.31 385.996 1468.46 389.044 1467.67C421.491 1459.59 446.236 1477.39 453.756 1508.6C457.025 1522.17 449.714 1523.88 438.216 1524.06C421.301 1524.32 351.181 1529.22 340.064 1519.09C335.064 1507.59 337.958 1463.48 338.369 1448.48C323.833 1450.27 312.748 1450.04 298.29 1448.52C299.526 1467.65 302.501 1494.15 299.487 1512.75C299.048 1515.46 298.263 1520.32 295.63 1521.76C285.84 1527.12 197.225 1526.06 187.889 1522.61C185.895 1521.87 184.644 1520.66 183.93 1518.63C181.843 1512.7 184.781 1504.4 187.142 1498.97C191.823 1488.2 200.543 1474.62 211.919 1470.42C228.7 1464.21 239.685 1463.15 256.137 1470.96C256.96 1464.41 260.208 1440.33 256.641 1435.6C225.921 1421.93 202.715 1397.83 188.231 1367.79C178.677 1379.67 176.183 1391.89 175.733 1406.66C187.269 1420.62 199.199 1433.63 172.918 1440.39C169.831 1446 166.827 1452.04 161.918 1456.18C140.773 1474 113.985 1452.31 118.185 1427.45C119.994 1416.75 123.502 1411.71 131.79 1405.23L132.022 1403.24C136.114 1370.56 150.574 1346.5 176.314 1326.51C173.79 1289.01 178.506 1263.33 198.638 1230.68C238.261 1165.66 333.246 1146 395.909 1188.71C435.053 1215.38 452.389 1249.7 461.125 1294.89C503.096 1240.15 456.595 1260.74 474.274 1222.07C443.919 1189.69 458.376 1147.97 499.758 1136.38Z"/><path fill="#59B797" transform="translate(0 -1024)" d="M305.8 1173.53C380.026 1166.58 445.861 1221.05 452.947 1295.26C460.032 1369.47 405.693 1435.41 331.494 1442.63C257.097 1449.88 190.946 1395.36 183.842 1320.95C176.737 1246.54 231.377 1180.49 305.8 1173.53Z"/><path fill="#040202" transform="translate(0 -1024)" d="M302.278 1315.44C307.162 1317.82 310.373 1321.5 317.908 1325.04C323.098 1322.87 328.974 1318.24 333.943 1318.35L335.431 1319.95L335.186 1323.82C323.98 1332.62 299.297 1335.63 302.278 1315.44Z"/><path fill="#040202" transform="translate(0 -1024)" d="M282.831 1288.49C286.981 1286.73 291.775 1288.67 293.529 1292.82C295.282 1296.98 293.329 1301.77 289.169 1303.51C285.026 1305.24 280.26 1303.3 278.513 1299.16C276.766 1295.02 278.697 1290.25 282.831 1288.49Z"/><path fill="#040202" transform="translate(0 -1024)" d="M347.522 1288.53C350.216 1287.35 353.339 1287.73 355.669 1289.52C357.999 1291.32 359.167 1294.24 358.715 1297.15C358.262 1300.05 356.263 1302.48 353.497 1303.48C349.41 1304.96 344.885 1302.93 343.272 1298.9C341.659 1294.86 343.539 1290.27 347.522 1288.53Z"/><path fill="#FBB148" transform="translate(0 -1024)" d="M502.462 1143.46C526.208 1139.74 548.498 1155.9 552.357 1179.62C556.216 1203.35 540.194 1225.73 516.494 1229.74C492.592 1233.77 469.971 1217.58 466.079 1193.66C462.187 1169.73 478.512 1147.21 502.462 1143.46Z"/><path fill="#040202" transform="translate(0 -1024)" d="M499.43 1191.54C502.121 1193.06 505.829 1195.7 508.503 1197.47C512.401 1195.63 516.261 1193.18 520.172 1194.46C521.192 1197.73 520.837 1196.13 519.692 1200.2C513.117 1203.48 503.507 1206.09 498.554 1198.9C497.679 1195.11 498.012 1195.07 499.43 1191.54Z"/><path fill="#040202" transform="translate(0 -1024)" d="M527.742 1175.48C530.529 1174.55 533.535 1176.07 534.443 1178.86C535.351 1181.66 533.813 1184.65 531.015 1185.54C528.241 1186.43 525.274 1184.91 524.374 1182.14C523.474 1179.37 524.979 1176.39 527.742 1175.48Z"/><path fill="#040202" transform="translate(0 -1024)" d="M487.379 1175.5C490.063 1174.36 493.161 1175.61 494.303 1178.3C495.446 1180.98 494.204 1184.08 491.526 1185.23C488.837 1186.38 485.722 1185.13 484.575 1182.44C483.428 1179.75 484.685 1176.64 487.379 1175.5Z"/><path fill="#59B797" transform="translate(0 -1024)" d="M370.51 1440.15C375.233 1449.43 369.531 1467.48 375.79 1477.78C380.201 1479.15 393.241 1474.88 398.738 1474.28C429.45 1470.96 443.367 1490.1 446.579 1517.63L424.472 1518.1C400.599 1519.58 368.668 1517.47 344.074 1516.97C343.85 1492.36 344.729 1472.21 346.225 1447.7C354.706 1445.33 362.163 1442.96 370.51 1440.15Z"/><path fill="#59B797" transform="translate(0 -1024)" d="M265.404 1440.4C274.604 1443.43 281.539 1445.31 290.973 1447.57C293.118 1469.55 293.403 1495.03 293.299 1517C267.984 1517.1 241.776 1518.19 216.193 1518.45C209.095 1518.68 196.965 1520.26 191.928 1515.11C188.301 1504.88 201.517 1485.25 210.468 1480.04C228.091 1469.79 244.323 1474.91 262.417 1478.94C264.731 1466.95 264.974 1452.7 265.404 1440.4Z"/><path fill="#59B797" transform="translate(0 -1024)" d="M176.509 1334.99C178.955 1338.31 183.28 1354.58 184.678 1359.45C172.141 1377.71 168.851 1389.05 167.63 1410.86C173.163 1414.98 178.442 1419.01 181.027 1425.62C180.04 1431.84 173.754 1430.67 168.644 1430.36L167.218 1430.27C158.85 1444.71 168.064 1445.86 148.84 1455.34C118.392 1452.56 119.484 1425.14 138.438 1407.21C145.132 1372.89 151.512 1359.71 176.509 1334.99Z"/><path fill="#59B797" transform="translate(0 -1024)" d="M536.629 1229.91L538.07 1230.08C543.429 1240.85 526.135 1254.12 518.69 1259.36C517.736 1262.4 516.738 1265.43 515.697 1268.44C504.065 1301.91 490.873 1315.18 459.633 1330.4C460.103 1326.35 460.537 1322.3 460.936 1318.25L461.954 1302.45C479.624 1288.22 485.829 1274.44 488.546 1252.38C483.725 1248.33 472.771 1238.98 477.606 1232.27C489.305 1227.31 502.289 1247.68 536.629 1229.91Z"/><path fill="#040202" transform="translate(0 -1024)" d="M502.892 1390.14C514.03 1389.21 527.687 1391.1 532.109 1402.57C542.159 1428.64 519.476 1447.84 498.776 1455.79C460.113 1462.35 452.249 1406.8 502.892 1390.14Z"/><path fill="#FBB148" transform="translate(0 -1024)" d="M505.878 1396.01C512.14 1395.81 516.487 1396.27 520.181 1401.69C522.122 1416.88 498.746 1432.07 487.195 1437.86C481.333 1438.12 475.913 1438.12 472.77 1432.41C470.686 1417.03 493.92 1401.71 505.878 1396.01Z"/><path fill="#FBB148" transform="translate(0 -1024)" d="M526.528 1411.58C535.613 1419.89 520.107 1433.7 513.599 1438.33C504.948 1444.5 498.623 1447.26 488.295 1449.09L486.834 1448.01C485.507 1443.36 497.69 1442.03 502.288 1439.26C514.123 1432.14 520.031 1423.33 526.528 1411.58Z"/><path fill="#040202" transform="translate(0 -1024)" d="M454.202 1080.43C457.067 1080.21 462.835 1079.47 465.174 1081.01C476.283 1088.33 468.952 1110.92 463.538 1119.26C454.904 1132.55 443.559 1136.91 429.051 1139.76C426.419 1139.9 421.119 1140.4 419.034 1139.09C406.914 1131.5 414.753 1108.34 420.632 1099.76C429.291 1087.12 440.51 1083.27 454.202 1080.43Z"/><path fill="#59B797" transform="translate(0 -1024)" d="M457.477 1087.28L460.427 1087.39C462.453 1088.91 464.335 1090.74 464.218 1093.52C463.23 1117.14 449.563 1132.02 426.901 1133.42C413.043 1130.62 421.851 1109.91 427.332 1103.18C436.344 1092.12 444.27 1089.4 457.477 1087.28Z"/><path fill="#040202" transform="translate(0 -1024)" d="M214.315 1092.19C221.616 1095.74 220.112 1104.06 224.126 1113C228.468 1122.66 242.333 1125.94 252.392 1129.78C230.567 1144.9 227.312 1135.26 217.609 1166.54C208.685 1166.32 211.358 1152.47 206.778 1145.56C201.085 1136.98 188.116 1136.62 183.271 1131.58L183.475 1129.87C187.565 1125.98 191.725 1126.05 196.685 1123.25C208.734 1116.46 211.169 1104.33 214.315 1092.19Z"/><path fill="#F17A5D" transform="translate(0 -1024)" d="M215.629 1109.56C217.217 1110.93 216.755 1110.31 217.745 1111.94C224.571 1123.14 225.941 1125.06 237.256 1130.74C224.66 1137.03 222.639 1138.2 216.349 1150.5C209.732 1146.15 209.907 1138.31 195.486 1130.58C207.461 1124.17 209.433 1121.52 215.629 1109.56Z"/><path fill="#040202" transform="translate(0 -1024)" d="M367.252 1119.03C379.896 1119.17 388.339 1120.56 398.889 1128.45C408.706 1135.79 413.34 1152.43 404.702 1162.17C393.579 1162.5 386.113 1162.15 376.337 1155.69C364.962 1148.18 358.692 1130.64 367.252 1119.03Z"/><path fill="#59B797" transform="translate(0 -1024)" d="M370.998 1125.72C393.46 1128.5 400.476 1132.9 401.119 1156.27C377.603 1154.06 373.905 1148.47 370.998 1125.72Z"/><path fill="#040202" transform="translate(0 -1024)" d="M160.993 1167.66C168.82 1174.18 162.934 1178.28 180.103 1188.39L181.442 1189.16C179.898 1191.02 170.109 1197.2 167.236 1199.26C165.288 1204.14 164.466 1207.31 163.159 1212.31C159.088 1211.31 157.767 1202 152.648 1195.25C148.71 1193.63 146.021 1193 144.117 1189.71C145.345 1185.9 154.049 1181.41 156.577 1177.96C158.074 1175.91 160.07 1170.17 160.993 1167.66Z"/><path fill="#FBB148" transform="translate(0 -1024)" d="M161.559 1179.51C171.944 1188.28 169.384 1190.87 161.816 1200.09L153.734 1189.89C157.074 1186.1 158.723 1183.71 161.559 1179.51Z"/></g></svg>