<?xml version="1.0" encoding="utf-8" ?><svg xmlns="http://www.w3.org/2000/svg" xmlns:xlink="http://www.w3.org/1999/xlink" width="609" height="795" viewBox="0 0 609 795"><clipPath id="sky-balloon-cl_49"><rect width="609" height="795"/></clipPath><g clip-path="url(#sky-balloon-cl_49)"><path fill="#040403" transform="translate(0 -1253)" d="M344.26 1844.65C336.59 1846.85 329.686 1849.9 321.59 1848.92C296.242 1845.85 318.587 1813.01 319.764 1802.86C317.121 1800.51 305.061 1796.17 300.877 1794.29C241.781 1767.74 193.939 1706.84 170.781 1647.23C148.521 1589.94 145.046 1524.25 170.67 1467.57C190.449 1423.82 225.615 1388.46 270.818 1371.54C322.55 1351.58 380.134 1353.29 430.594 1376.27C475.885 1397.17 508.509 1434.86 525.064 1481.65C544.36 1536.19 539.794 1598.11 517.766 1651.18C510.481 1668.73 501.867 1683.14 493.199 1699.81C489.48 1706.96 487.483 1719.76 483.701 1727.3C475.454 1743.75 451.919 1743.84 440.443 1755.04C432.23 1763.06 432.632 1776.1 419.702 1782.95C405.732 1790.36 390.644 1793.86 375.8 1799.17C385.79 1806.11 395.114 1812.81 401.135 1823.4C422.815 1861.52 386.014 1881.76 378.671 1914.57C375.842 1927.22 387.326 1941.07 385.173 1949.49C382.846 1951.96 384.224 1951.28 380.957 1951.71C374.612 1948.36 370.539 1937.15 368.917 1930.53C361.179 1898.95 391.987 1879.36 396.299 1850.76C398.2 1838.15 393.843 1828.87 386.401 1819.17C380.892 1814.56 377.981 1812.48 371.92 1808.61C376.667 1820.93 379.769 1825.45 380.923 1838.88C371.186 1856.11 360.334 1850.07 344.26 1844.65Z"/><path fill="#7BC2FA" transform="translate(0 -1253)" d="M335.265 1367.39C374.345 1363.84 423.68 1379.03 454.464 1401.88C549.68 1472.54 543.631 1605.27 483.003 1696.55C478.673 1703.07 479.502 1717.94 472.467 1726C461.437 1738.63 447.45 1735.61 435.326 1745.8C426.353 1752.63 425.016 1772.6 412.952 1775.43C396.938 1779.19 373.12 1791.23 357.947 1793.03L356.557 1793.23C322.93 1797.56 291.273 1782.28 265.536 1761.55C170.826 1685.3 122.029 1532.44 205.554 1430.44C238.834 1389.8 284.429 1372.69 335.265 1367.39Z"/><path fill="#BCE1FC" transform="translate(0 -1253)" d="M249.451 1423.96C273.106 1424.1 258.808 1442 248.833 1449.13C237.655 1457.12 225.923 1479.31 220.483 1492.04C215.684 1503.26 215.457 1511.49 206.989 1522.11C206.05 1522.09 205.112 1522.06 204.174 1522.01C193.633 1521.38 192.968 1511.44 195.373 1503.29C205.912 1467.6 218.14 1444.12 249.451 1423.96Z"/><path fill="#040403" transform="translate(0 -1253)" d="M459.204 1681.46C464.65 1685.62 461.241 1694.84 460.051 1700.96C452.207 1711.37 441.173 1714.84 429.52 1720.52C415.49 1742.18 421.58 1747.41 392.46 1758.04C390.788 1755.92 390.89 1756.08 390.646 1753.38C393.442 1747.05 402.844 1743.94 409.537 1740.75C422.465 1717.11 417.042 1713.27 445.864 1705.84C453.293 1697.16 455.002 1692.04 459.204 1681.46Z"/><path fill="#BCE1FC" transform="translate(0 -1253)" d="M287.486 1398.98C310.497 1403.48 303.693 1415.82 287.012 1422.78C264.798 1420.91 271.501 1405.92 287.486 1398.98Z"/><path fill="#040403" transform="translate(0 -1253)" d="M282.526 1570.54C286.673 1568.8 291.441 1569.51 294.908 1572.37C298.374 1575.24 299.967 1579.78 299.045 1584.19C298.122 1588.59 294.837 1592.11 290.512 1593.34C284.353 1595.1 277.894 1591.75 275.777 1585.7C273.66 1579.66 276.619 1573.01 282.526 1570.54Z"/><path fill="#040403" transform="translate(0 -1253)" d="M398.358 1570.51C404.543 1567.99 411.595 1570.97 414.111 1577.15C416.628 1583.33 413.655 1590.39 407.472 1592.91C401.286 1595.42 394.229 1592.45 391.712 1586.26C389.194 1580.08 392.17 1573.02 398.358 1570.51Z"/><path fill="#040403" transform="translate(0 -1253)" d="M342.817 1589.93C351.621 1590.38 364.393 1594.99 366.042 1604.91L364.694 1606.58C358.031 1607.65 354.17 1603.49 348.519 1599.43C337.358 1600.77 337.256 1608.21 326.767 1608.47C322.397 1601.04 337.288 1592.54 342.817 1589.93Z"/><path fill="#040403" transform="translate(0 -1253)" d="M398.084 1536.33C406.032 1537.91 408.248 1541.63 414.069 1547.52C418.283 1548.03 421.732 1548.04 425.375 1550.11C427.621 1553.49 426.922 1552.46 427.195 1557.07C411.806 1557.28 398.412 1554.32 398.084 1536.33Z"/><path fill="#040403" transform="translate(0 -1253)" d="M283.803 1539.61C287.259 1539.92 288.037 1540.27 289.865 1542.87C288.76 1552.11 275.098 1558.01 267.328 1560.86C263.325 1559.3 263.256 1559.35 261.999 1556.49C264.168 1550.23 274.139 1550.04 282.808 1540.7L283.803 1539.61Z"/><path fill="#7BC2FA" transform="translate(0 -1253)" d="M335.158 1804.24C342.493 1805.13 348.418 1804.88 355.791 1804.76C356.699 1806 357.583 1807.26 358.441 1808.54C365.701 1819.25 380.935 1847.57 353.225 1837.57C341.723 1832.89 324.549 1841.99 319.782 1834.31C319.669 1826.02 330.459 1811.15 335.158 1804.24Z"/><path fill="#040403" transform="translate(0 -1253)" d="M529.725 1761.98C558.116 1758.88 570.276 1785.91 548.23 1804.87C550.683 1808.54 552.829 1812.03 553.835 1816.4C555.714 1824.28 554.366 1832.59 550.092 1839.47C546.069 1845.99 539.528 1850.55 532.023 1852.07C522.029 1854.01 515.916 1851.23 508.17 1845.88C492.315 1863.15 469.842 1864.04 463.03 1838.66C464.654 1834.9 463.389 1836.13 466.266 1834.23C471.34 1835.69 471.17 1843.89 478.206 1849.49C480.628 1851.45 483.802 1852.23 486.855 1851.6C494.874 1849.96 499.959 1842.17 504.249 1836.04C517.666 1840.67 546.394 1855.44 546.497 1826.14C546.535 1815.13 541.783 1810.28 534.336 1803.14C582.45 1776.29 526.799 1768.96 526.014 1768.13C526.607 1764.36 526.635 1765.36 529.725 1761.98Z"/><path fill="#7BC2FA" transform="translate(0 -1253)" d="M142.167 1657.25C143.869 1657.59 147.903 1658.75 148.553 1660.27C160.502 1688.16 172.749 1714.83 194.316 1736.99C199.584 1742.41 210.662 1753.63 210.468 1761.37C186.396 1761.35 138.982 1681.19 142.167 1657.25Z"/><path fill="#7BC2FA" transform="translate(0 -1253)" d="M497.625 1383.31C523.792 1385.4 566.238 1466.58 559.937 1490.27C551.989 1489.27 551.543 1481.86 548.967 1473.24C542.468 1449.87 532.369 1430.02 516.78 1411.43C509.385 1402.62 495.596 1394.63 497.625 1383.31Z"/><path fill="#7BC2FA" transform="translate(0 -1253)" d="M174.645 1337.2C182.064 1340.83 180.777 1351.47 186.356 1356.92C189.604 1360.09 199.297 1361.54 200.651 1366.29C197.213 1369.38 189.61 1372.34 184.539 1375.34C182.296 1380.6 179.993 1387.28 177.81 1392.79C172.898 1390.75 171.337 1383.48 168.715 1377.62C161.239 1372.49 156.029 1372.02 148.515 1365.15C151.223 1364.05 153.914 1362.91 156.586 1361.72C168.492 1356.38 170.284 1348.65 174.645 1337.2Z"/><path fill="#7BC2FA" transform="translate(0 -1253)" d="M555.102 1672.86C557.806 1675.39 560.43 1683.36 561.869 1687.17C565.75 1689.76 572.53 1692.22 573.161 1696.92C570.154 1699.57 563.387 1705.29 561.283 1708.26C558.816 1711.76 557.528 1717.57 554.327 1721.16C552.353 1718.39 551.482 1713.45 549.596 1709.67C545.087 1700.62 539.445 1699.85 530.425 1696.77C552.135 1687.09 545.703 1681.73 555.102 1672.86Z"/><path fill="#7BC2FA" transform="translate(0 -1253)" d="M247.522 1803.07C254.994 1802.42 261.614 1807.87 262.42 1815.32C263.226 1822.78 257.921 1829.51 250.483 1830.48C245.53 1831.12 240.618 1829.03 237.642 1825.02C234.667 1821.01 234.094 1815.7 236.144 1811.14C238.194 1806.59 242.546 1803.5 247.522 1803.07Z"/><path fill="#7BC2FA" transform="translate(0 -1253)" d="M134.39 1700.48C146.829 1703.44 146.599 1720 152.8 1728.8C156.339 1733.83 162.583 1739.28 166.354 1744.37C168.209 1746.87 167.028 1748.9 166.275 1751.89C150.612 1748.75 128.564 1714.9 134.39 1700.48Z"/><path fill="#7BC2FA" transform="translate(0 -1253)" d="M544.802 1392.06C558.064 1398.46 578.314 1432.57 569.207 1447.57C564.129 1445.93 561.347 1440.4 560.966 1435.57C559.708 1419.64 546.485 1409.21 542.08 1396.97C542.491 1393.41 541.87 1395.11 544.802 1392.06Z"/><path fill="#7BC2FA" transform="translate(0 -1253)" d="M136.248 1411.83C138.241 1413.58 138.849 1415.56 140.297 1417.89C144.266 1424.28 148.074 1426.39 154.233 1430.03C143.497 1434.89 142 1436.33 137.185 1446.46C133.188 1444.14 132.094 1440.11 130.328 1435.86L120.392 1430.58C128.741 1423.59 130.499 1421.01 136.248 1411.83Z"/><path fill="#040403" transform="translate(0 -1253)" d="M466.71 1769.03C473.642 1771.15 492.552 1790.42 497.35 1797.41C499.726 1800.87 499.258 1801.92 498.484 1805.36C489.631 1800.59 471.14 1785.33 466.084 1775.87C464.562 1773.02 465.705 1771.52 466.71 1769.03Z"/><path fill="#040403" transform="translate(0 -1253)" d="M452.389 1784.46C462.257 1786.36 483.681 1811.67 479.765 1823.43C473.907 1820.52 456.775 1796.47 452.054 1790.22C450.667 1788.39 451.759 1786.51 452.389 1784.46Z"/><path fill="#040403" fill-opacity="0.98431373" transform="translate(0 -1253)" d="M483.579 1753.18C489.447 1754.9 491.832 1759.05 496.672 1763.4C502.658 1768.79 509.751 1774.07 516.883 1778.05C520.184 1779.89 519.997 1781.43 520.579 1784.26C509.706 1784.22 497.486 1776.3 489.993 1768.75C484.596 1763.31 483.312 1760.49 483.579 1753.18Z"/><path fill="#FDF2DC" fill-opacity="0.015686275" transform="translate(0 -1253)" d="M371.92 1808.61C377.981 1812.48 380.892 1814.56 386.401 1819.17L382.337 1819.75C379.373 1824.22 382.604 1831.82 380.923 1838.88C379.769 1825.45 376.667 1820.93 371.92 1808.61Z"/></g></svg>