<?xml version="1.0" encoding="utf-8" ?><svg xmlns="http://www.w3.org/2000/svg" xmlns:xlink="http://www.w3.org/1999/xlink" width="504" height="414" viewBox="0 0 504 414"><clipPath id="sky-bird-cl_34"><rect width="504" height="414"/></clipPath><g clip-path="url(#sky-bird-cl_34)"><path fill="#191F27" transform="translate(-503 -1119)" d="M456.564 1535.38C479.417 1533.21 509.004 1540.39 528.164 1553.05C563.177 1576.19 576.896 1603.28 585.521 1643.02C627.561 1609.07 690.87 1619.25 721.469 1662.64C734.875 1681.65 737.951 1698.28 740.475 1720.99C780.567 1704.97 824.871 1715.56 846.38 1755.58C852.758 1767.45 853.933 1776.66 855.773 1789.84C864.815 1787.85 870.657 1787.02 879.79 1786.14C928.735 1781.42 962.777 1840.39 925.818 1876.25C900.617 1900.69 836.661 1897.19 801.383 1898.17C742.191 1900.01 682.969 1900.71 623.75 1900.26C534.191 1900.58 444.964 1897.33 354.88 1897.71C332.076 1897.58 309.273 1898.03 286.493 1899.06C240.224 1901.36 182.261 1910.68 147.428 1872.3C132.763 1856.14 126.474 1836.79 127.706 1815.1C128.965 1793.59 138.845 1773.5 155.112 1759.37C175.302 1741.56 198.005 1738.75 223.729 1740.28C218.479 1719.37 218.341 1699.45 226.699 1679.29C235.539 1658.27 252.41 1641.64 273.564 1633.11C302.022 1621.49 320.731 1625.78 347.61 1636.87C352.912 1612.33 358.141 1593.56 375.074 1573.83C395.336 1550.22 425.904 1537.53 456.564 1535.38ZM632.5 1886.64C690.011 1887.09 747.526 1886.33 805.006 1884.37C833.763 1883.54 898.657 1885.91 917.997 1865.92C924.682 1858.96 928.322 1849.63 928.115 1839.98C927.462 1805.32 884.091 1790.05 857.006 1804.51C852.494 1806.92 847.677 1809.22 843.145 1806.15C839.529 1800.47 841.012 1786.11 839.874 1778.95C834 1741.98 792.994 1719.59 757.946 1729.03C748.46 1731.59 738.294 1743.58 729.362 1738.9C726.528 1732.19 726.956 1717.95 725.965 1710.6C718.313 1653.75 661.372 1619.9 608.38 1643.79C600.797 1647.21 581.762 1660.98 576.795 1660.35C572.456 1653.06 571.081 1635.92 568.089 1627.47C554.64 1589.49 530.116 1561.66 490.995 1551.67C479.508 1548.63 467.594 1547.52 455.742 1548.38C392.897 1557.86 366.689 1591.86 358.231 1652.14C357.868 1654.72 357.077 1654.56 355.185 1655.19C349.796 1654.19 338.036 1648.65 332.982 1646.27C282.521 1622.58 226.92 1667.39 234.392 1721.27C235.476 1729.09 240.604 1747.11 238.73 1753.21C233.742 1756.63 214.235 1752.02 205.313 1752.53C174.272 1754.2 148.289 1776.65 142.121 1807.12C138.788 1824.27 142.511 1842.04 152.448 1856.42C183.311 1900.46 250.337 1885.99 296.491 1884.37C408.584 1880.44 520.491 1886.84 632.5 1886.64Z"/><path fill="#191F27" transform="translate(-503 -1119)" d="M669.702 1226.3C685.765 1224.09 701.438 1230.17 716.067 1236.14C744.813 1247.87 764.08 1270.15 781.796 1294.65C816.072 1269.79 855.749 1252.17 883.61 1298.27C891.745 1301.9 910.817 1306.77 914.451 1313.48C914.828 1324.63 896.265 1329.96 890.872 1337.48C887.163 1342.65 885.034 1354.35 882.044 1361.03C864.968 1399.16 838.504 1415.92 801.064 1430.39C795.062 1437.75 789.958 1445.89 783.505 1453.49C765.857 1474.28 742.562 1493.29 715.955 1500.91C706.345 1503.66 697.958 1504.18 689.297 1499.22C677.765 1485.91 688.009 1475.3 696.875 1464.58C669.349 1448.25 692.45 1442.93 696.781 1424.6C698.877 1415.72 674.745 1408.93 668.769 1405.01C659.875 1399.17 651.905 1392.13 643.833 1385.31C626.194 1388.05 521.914 1413.38 561.295 1363C528.396 1348.19 536.707 1329.79 569.566 1325.82C566.536 1320.7 564.178 1316.21 563.216 1310.31C562.624 1306.68 563.578 1302.23 566.005 1299.79C582.569 1283.12 630.898 1322.62 646.01 1327.87C655.65 1331.22 678.885 1329.53 688.827 1328.87C676.639 1317.01 673.67 1314.61 679.665 1298.25C665.638 1286.8 649.916 1277.05 672.645 1263.46C659.914 1252.05 643.251 1234.41 669.702 1226.3Z"/><path fill="#7FBEEF" transform="translate(-503 -1119)" d="M829.381 1282.1C854.167 1281.26 865.204 1290.41 877.404 1310.83C883.973 1312.68 890.856 1314.96 897.402 1317.02L880.11 1328.58C878.857 1332.92 877.543 1337.25 876.167 1341.56C862.42 1383.72 844.232 1397.62 806.12 1416.71C808.538 1408.7 818.833 1373.9 806.435 1371.82C796.969 1375.98 800.5 1386.87 798.999 1395.98C791.424 1441.93 749.438 1481.23 704.945 1491.49C701.91 1492.19 699.861 1491.54 697.555 1489.76C693.792 1472.55 732.382 1458.39 725.57 1445.87C717.769 1442.73 704.831 1453.44 697.947 1451.62L696.99 1449.61C700.226 1435.06 728.134 1428.39 729.376 1416.42C723.961 1411.01 711.298 1418.4 707.064 1413.22C709.02 1404.31 721.135 1394.86 728.165 1388.66C729.917 1386.38 729.794 1386.29 731.096 1383.69C730.822 1379.56 731.63 1381.13 729.496 1378.42C719.363 1375.45 701.327 1397.83 695.944 1405.04C674.575 1395.23 663.862 1387.23 645.266 1373.37C632.457 1375.6 570 1391 565.289 1378.61C569.212 1371.32 590.446 1369.81 595.031 1361.76C592.802 1352.51 571.573 1355.04 562.739 1350.64C554.72 1346.64 555.703 1347.38 549.074 1341.19C561.911 1338.35 568.375 1339.6 581.032 1340.76C587.457 1341.35 597.983 1342.8 603.148 1338.51C604.161 1326.53 573.119 1322.84 575.452 1308.43C586.916 1302.7 628.325 1336.06 645.791 1339.2C690.89 1347.31 740.552 1336.14 779.567 1312.73C799.631 1300.69 805.518 1288.8 829.381 1282.1Z"/><path fill="#191F27" transform="translate(-503 -1119)" d="M843.732 1306.48C847.912 1305.33 852.248 1307.71 853.532 1311.85C854.817 1315.98 852.588 1320.4 848.494 1321.82C845.722 1322.78 842.644 1322.16 840.467 1320.19C838.289 1318.22 837.358 1315.22 838.038 1312.37C838.718 1309.51 840.901 1307.25 843.732 1306.48Z"/><path fill="#7FBEEF" transform="translate(-503 -1119)" d="M668.915 1236.82C717.317 1238.88 746.369 1266.88 773.999 1302.56C755.725 1314.04 740.555 1318.55 720.22 1324.17C710.966 1326.83 692.386 1320.69 689.667 1311.12C692.717 1303.51 702.227 1309.57 707.598 1302.65C706.739 1291.02 668.63 1287.4 675.215 1276.06C682.566 1274.25 698.74 1280.31 702.256 1273.76C698.125 1257.01 668.721 1258.09 668.915 1236.82Z"/></g></svg>