<?xml version="1.0" encoding="utf-8" ?><svg xmlns="http://www.w3.org/2000/svg" xmlns:xlink="http://www.w3.org/1999/xlink" width="1089" height="474" viewBox="0 0 1089 474"><clipPath id="sky-cloud-wide-cl_35"><rect width="1089" height="474"/></clipPath><g clip-path="url(#sky-cloud-wide-cl_35)"><path fill="#191F27" transform="translate(0 -686)" d="M576.392 762.569C637.79 757.272 687.342 794.278 697.018 855.709C705.021 851.046 711.817 847.95 721.038 846.664C748.035 842.902 775.664 853.357 791.899 875.581C802.764 890.455 805.987 906.41 808.837 924.142C816.758 922.338 822.059 921.057 829.836 921.13C881.708 921.614 871.048 951.243 900.059 974.438C915.386 986.692 946.299 984.565 964.729 987.254C984.211 990.258 1000.58 992.567 1018.36 1001.8C1029.22 1005.14 1054.21 1024.6 1037.86 1036.18C1018.9 1049.61 966.864 1049.25 944.212 1050.13C904.044 1051.63 863.851 1052.35 823.655 1052.28C748.878 1052.65 664.9 1053.65 590.714 1050.46C518.261 1049.37 446.513 1045.14 373.98 1045.79C305.513 1046.4 235.16 1056.52 166.903 1047.23C154.828 1045.1 137.922 1041.83 130.328 1031.35C124.696 1023.58 129.13 1014.64 135.591 1009.08C169.575 979.822 221.247 991.541 259.171 972.4C281.861 960.949 288.008 927.469 310.751 914.891C332.736 902.165 349.571 903.64 373.057 909.218C373.685 898.274 373.895 891.647 377.107 881.251C382.989 862.715 396.035 847.299 413.343 838.431C440.003 824.552 460.112 829.031 486.557 837.449C487.49 836.946 488.834 835.963 489.128 834.913C500.953 792.667 532.226 770.465 576.392 762.569ZM580.75 1037.55C677.666 1039.61 774.611 1039.94 871.539 1038.55C911.762 1037.79 991.888 1037.31 1027.64 1026.77C991.174 988.542 928.537 1010.42 889.676 985.533C872.995 974.85 867.963 935.874 834.41 934.814C823.447 934.468 803.71 941.726 798.584 939.045C793.528 914.893 795.197 897.692 776.451 878.45C756.205 857.668 727.905 854.915 702.093 867.152C698.349 868.977 692.028 870.92 687.775 870.448C682.649 866.882 681.278 843.112 678.503 835.875C663.794 797.506 620.693 770.165 579.644 775.345C532.251 780.565 510.579 808.418 498.37 849.967C494.858 861.921 474.56 847.137 467.682 845.95C444.3 837.533 419.952 844.359 402.867 861.918C379.821 883.597 392.789 918.774 383.815 925.639C380.334 925.538 371.287 922.254 367.294 920.962C347.065 914.418 324.727 917.437 308.758 932.286C293.401 946.565 288.02 971.161 268.672 982.594C259.573 987.97 249.779 990.434 239.689 992.9C221.247 997.406 145.858 1002.96 142.475 1023.55C157.266 1049.47 347.483 1031.89 383.572 1032.56C447.914 1033.74 516.011 1035.01 580.75 1037.55Z"/></g></svg>