<?xml version="1.0" encoding="utf-8" ?><svg xmlns="http://www.w3.org/2000/svg" xmlns:xlink="http://www.w3.org/1999/xlink" width="630" height="557" viewBox="0 0 630 557"><clipPath id="sky-cloud-filled-cl_31"><rect width="630" height="557"/></clipPath><g clip-path="url(#sky-cloud-filled-cl_31)"><path fill="#191F27" transform="translate(-1418 0)" d="M1661.3 200.33C1707.23 196.265 1736.34 219.041 1755.56 258.931C1768.41 251.145 1779.09 247.275 1794.34 247.835C1812.78 248.666 1830.11 256.888 1842.43 270.646C1856.3 286.047 1858.6 301.429 1857.58 321.03C1918.4 330.04 1942.31 381.759 1902.97 429.104C1880.55 456.085 1804 454.593 1770.75 455.67C1720.33 456.713 1669.89 456.412 1619.49 454.767C1605.42 454.395 1590.85 453.895 1576.79 453.879C1533.78 453.83 1498.19 421.83 1501.23 376.715C1502.48 357.431 1511.41 339.453 1526.02 326.804C1542.73 312.497 1559.2 308.59 1580.6 310.282C1575.22 252.553 1603.45 211.369 1661.3 200.33Z"/><path fill="#FEF1E1" transform="translate(-1418 0)" d="M1666.62 214.347C1697.61 212.116 1726.43 228.409 1738.46 257.428C1743.79 270.263 1745.76 286.659 1762.99 272.674C1796.68 245.326 1847.84 273.42 1843.51 316.517C1843.23 319.338 1839.76 332.994 1842.96 333.676C1870.99 337.285 1905.25 342.434 1907.2 379.667C1910.71 446.709 1820.28 440.774 1774.22 441.238C1731.09 444.542 1681.39 441.417 1638 441.081C1608.32 440.85 1557.92 445.669 1535.53 425.894C1523.68 415.505 1516.54 400.762 1515.73 385.022C1514.2 354.401 1536.48 325.22 1567.96 324.597C1602.59 323.912 1596.37 332.602 1594.12 297.911C1592.82 279.172 1598.19 260.576 1609.28 245.416C1623.58 226.204 1643.53 217.6 1666.62 214.347Z"/></g></svg>