<?xml version="1.0" encoding="utf-8" ?><svg xmlns="http://www.w3.org/2000/svg" xmlns:xlink="http://www.w3.org/1999/xlink" width="863" height="746" viewBox="0 0 863 746"><clipPath id="sky-cloud-big-cl_3c"><rect width="863" height="746"/></clipPath><g clip-path="url(#sky-cloud-big-cl_3c)"><path fill="#191F27" d="M384.297 146.495C446.809 143.882 484.022 172.712 509.589 227.708C520.789 215.557 533.545 209.062 549.728 206.03C571.211 202.046 593.398 206.692 611.477 218.962C635.577 235.513 639.603 252.538 644.369 278.777C647.909 277.131 651.195 275.732 654.867 274.287C723.389 247.321 796.579 320.817 778.615 389.335C775.975 399.403 771.075 408.833 766.453 418.203C778.534 427.531 786.583 436.408 793.388 450.287C803.757 471.595 805.035 496.199 796.929 518.467C787.77 543.751 768.905 564.338 744.516 575.665C720.445 586.968 692.779 587.85 668.038 578.102C659.044 574.571 651.031 569.667 641.877 566.429C632.334 595.36 614.588 613.415 584.62 622.127C561.352 628.891 538.361 624.851 517.454 612.834C506.546 605.69 502.233 601.319 493.025 591.835C478.423 614.724 459.604 631.874 434.415 642.623C403.627 655.463 368.993 655.519 338.163 642.78C305.333 629.375 288.237 606.639 275.027 574.989C250.31 581.877 240.191 588.808 212.919 585.754C145.721 578.229 103.804 496.686 140.653 438.982C148.157 427.23 156.909 420.46 167.758 412.028C158.685 401.653 152.348 394.29 147.205 381.312C138.761 359.444 139.402 335.109 148.984 313.716C167.671 270.887 220.363 246.791 264.011 266.348C267.029 239.629 270.201 220.277 287.031 198.468C313.293 164.438 343.187 152.21 384.297 146.495ZM518.684 597.26C535.146 608.924 555.586 613.525 575.458 610.041C631.18 599.891 628.831 550.084 636.098 547.849C644.346 550.109 656.79 557.592 665.055 561.951C735.6 599.157 815.958 523.01 779.299 451.234C773.683 440.239 759.009 431.652 751.895 421.645C750.056 414.863 761.057 401.623 762.93 396.419C779.44 350.553 750.018 298.571 703.952 285.416C678.143 278.045 660.652 286.378 636.829 295.32C634.654 296.137 634.26 295.59 632.694 294.464C630.291 286.865 630.798 278.38 629.666 270.445C624.355 233.196 579.948 209.461 545.403 220.368C539.346 222.273 533.618 225.101 528.421 228.75C521.998 233.331 514 242.502 507.032 246.212C506.255 245.995 505.479 245.779 504.703 245.562C497.726 239.138 494.465 225.223 489.423 216.394C467.527 178.047 430.193 158.176 386.703 160.028C384.549 160.108 382.397 160.227 380.248 160.384C347.328 165.983 318.716 177.374 298.52 205.596C290.923 216.253 285.415 228.255 282.289 240.965C279.685 251.403 278.793 277.327 275.536 281.331C266.51 280.671 257.038 276.557 247.938 274.616C224.271 269.62 199.636 276.104 181.495 292.102C153.306 316.699 147.553 354.497 165.19 387.161C169.853 395.798 179.801 403.958 184.881 412.296C186.457 414.884 166.982 429.118 165.088 430.85C150.93 443.721 142.215 461.508 140.72 480.583C135.366 546.565 208.302 597.164 266.362 561.919C281.418 552.78 283.131 550.611 289.256 569.722C310.234 642.283 401.45 659.508 456.408 613.266C475.813 596.938 476.436 589.897 490.625 571.469C500.698 573.304 509.309 589.458 518.684 597.26Z"/></g></svg>