<?xml version="1.0" encoding="utf-8" ?><svg xmlns="http://www.w3.org/2000/svg" xmlns:xlink="http://www.w3.org/1999/xlink" width="605" height="933" viewBox="0 0 605 933"><clipPath id="sky-hot-air-balloon-cl_2f"><rect width="605" height="933"/></clipPath><g clip-path="url(#sky-hot-air-balloon-cl_2f)"><path fill="#191F27" transform="translate(-978 -1115)" d="M1264.34 1177.56C1269.3 1177.03 1273.49 1176.69 1278.51 1176.73C1348.47 1176.9 1415.4 1205.25 1464.18 1255.39C1509.14 1301.17 1533.87 1363.06 1532.84 1427.21C1531.85 1493.1 1498.58 1549.74 1458.28 1599.46C1435.88 1627.09 1408.37 1652.36 1392.12 1684.31C1385.51 1697.31 1382.34 1704.56 1371.81 1714.7C1365.89 1738.13 1357.3 1764.41 1353.22 1787.79C1373.35 1799.23 1375.57 1814.99 1356.98 1829.89C1348.37 1885.63 1362.4 1917.88 1292.78 1921.02C1222.71 1919.86 1205.25 1925.78 1201.63 1844.35C1201.45 1840.26 1200.7 1834.83 1200.14 1830.66C1182.09 1815.88 1182.73 1798.44 1203.97 1787.95C1198.6 1773.29 1189.57 1731.26 1185.38 1713.89C1173.78 1706.08 1167.72 1689.29 1160.58 1677.22C1155.89 1669.46 1150.81 1661.93 1145.36 1654.68C1135.21 1641.06 1117.78 1623.63 1106.4 1609.86C1062.7 1557 1028.13 1505.08 1024.25 1434.45C1020.73 1370.88 1042.83 1308.55 1085.61 1261.39C1131.02 1211.07 1196.85 1181.18 1264.34 1177.56ZM1301.73 1782.85C1304.75 1769.32 1309.9 1733.86 1310.56 1719.68C1289.6 1720.01 1266.66 1720.8 1245.94 1719.18C1248.89 1742 1252.14 1764.78 1255.7 1787.51C1263.55 1787.61 1296.21 1789.19 1300.91 1785.9C1301.54 1784.29 1301.68 1784.48 1301.73 1782.85ZM1217.83 1787.47C1225.82 1787.72 1233.81 1787.77 1241.8 1787.63C1241.91 1776.1 1235.66 1733.59 1233.85 1719.71C1222.62 1718.62 1211.41 1717.38 1200.22 1715.99C1202.21 1734.81 1211.26 1769.59 1217.83 1787.47ZM1324.17 1719.52C1323.08 1731.47 1312.64 1780.85 1316.62 1786.72L1318.75 1786.96C1324.88 1787.27 1332.78 1788.06 1338.64 1786.86C1343.29 1782.34 1355.6 1726.89 1356.35 1718.4L1355.4 1716.39L1353.5 1716.35C1343.79 1717.51 1333.7 1718.31 1324.17 1719.52Z"/><path fill="#F57F62" transform="translate(-978 -1115)" d="M1265.74 1194.11C1281.47 1194.1 1287.31 1209.89 1290.72 1223.28C1324.98 1357.7 1310.87 1500.42 1291.2 1636.06C1287.84 1659.27 1285.4 1682.75 1282.91 1706.07L1249.5 1706.07L1246.92 1695.21C1223.01 1587.13 1181.26 1484.39 1192.57 1371.4C1197.48 1322.31 1211.77 1211.34 1265.74 1194.11Z"/><path fill="#F7B54E" transform="translate(-978 -1115)" d="M1296.26 1197.34C1298.18 1197.84 1300.08 1198.41 1301.96 1199.05C1331.41 1208.87 1353.37 1236.98 1366.61 1263.8C1410.47 1352.61 1405.49 1453.3 1372.58 1544.51C1358.4 1583.79 1339.75 1621.82 1326.94 1660.53C1321.85 1676.38 1318.08 1689.64 1314.77 1705.85L1297.63 1706.14C1301 1656.15 1310.49 1605.49 1316.48 1557.58C1328.73 1459.68 1334.97 1288.25 1296.26 1197.34Z"/><path fill="#F57F62" transform="translate(-978 -1115)" d="M1184.53 1209.86L1185.87 1210.52C1184.18 1213.46 1172 1224.11 1168.18 1228.17C1153.12 1243.99 1140.5 1261.95 1130.71 1281.46C1082.94 1375.38 1093.13 1475.41 1138.86 1567C1152.63 1594.58 1169.02 1620.7 1182.92 1648.3C1192.56 1667.43 1198.47 1683.48 1205.12 1703.69L1189.51 1700.89C1184.19 1692.39 1179.95 1683.56 1175.47 1674.61C1157.69 1643.16 1135.67 1622.33 1112.88 1595.67C1092.25 1571.89 1074.8 1545.52 1060.98 1517.23C1035.05 1462.8 1029.46 1405.35 1050.32 1348.43C1075.97 1278.43 1119.09 1240.67 1184.53 1209.86Z"/><path fill="#F7B54E" transform="translate(-978 -1115)" d="M1225.98 1203.97C1225.92 1206.7 1221.48 1213.1 1219.73 1215.79C1199.87 1246.27 1192.33 1280.59 1185.17 1315.71C1157.21 1452.93 1202.56 1573.74 1234.68 1706.07C1229.99 1705.47 1224.91 1705.19 1220.16 1704.84C1217.39 1693.58 1213.86 1682.53 1209.59 1671.75C1195.3 1636.43 1174.99 1604.07 1157.34 1570.56C1117.94 1495.78 1099.67 1413.32 1126.73 1330.59C1145.24 1273.97 1172.03 1231.89 1225.98 1203.97Z"/><path fill="#7FBEEF" transform="translate(-978 -1115)" d="M1342.28 1206.07C1345.07 1206.9 1347.6 1207.77 1350.21 1209.06C1399.85 1233.63 1433.83 1277.87 1452.03 1328.94C1481.95 1412.9 1462.52 1495.2 1416.83 1568.37C1393.64 1605.49 1372.69 1633.71 1353.84 1673.39C1349.43 1683.66 1345.69 1693.55 1341.75 1703.99C1337.95 1704.67 1332.95 1704.87 1329.01 1705.14C1335.82 1678.69 1344.42 1652.74 1354.75 1627.46C1365.02 1601.8 1376.92 1575.88 1386.21 1549.99C1401.62 1507.96 1410.53 1463.82 1412.63 1419.11C1415.22 1358.14 1400.03 1285.26 1365.92 1234C1360.44 1225.75 1349.21 1213.63 1342.28 1206.07Z"/><path fill="#F57F62" transform="translate(-978 -1115)" d="M1401.5 1225.7C1403.85 1226.28 1405.74 1226.82 1407.82 1228.08C1456.75 1257.48 1493.96 1306.38 1509.96 1360.32C1535.25 1445.59 1503.15 1524.45 1448.59 1589.45C1421.11 1622.18 1397.54 1644.01 1377.04 1682.26C1374.33 1688.67 1368.37 1702.93 1360.08 1702.39C1353.4 1687.3 1425.31 1581.63 1436.99 1562.07C1444.37 1549.55 1450.96 1536.58 1456.71 1523.23C1471.89 1488.6 1480.08 1451.31 1480.79 1413.5C1481.75 1339.21 1452.58 1278.02 1401.5 1225.7Z"/><path fill="#F57F62" transform="translate(-978 -1115)" d="M1216.16 1801.5C1240.21 1800.72 1333.22 1798.06 1351.63 1803.32C1355.57 1806.18 1356.32 1811.37 1353.6 1815.4C1350.06 1817.45 1346.57 1817.29 1342.4 1817.64C1318.72 1818.53 1221.68 1822 1204.79 1816.03C1202.67 1813.85 1201.94 1812.42 1201.74 1809.41C1201.16 1800.91 1210.52 1801.74 1216.16 1801.5Z"/><path fill="#F57F62" transform="translate(-978 -1115)" d="M1278.44 1834.5C1285.8 1834.18 1293.82 1834.19 1301.24 1834.04L1299.8 1850.12C1292.4 1850.94 1285.19 1850.86 1277.75 1850.93C1272.19 1850.92 1265.42 1850.35 1259.75 1850L1258.02 1834.51L1278.44 1834.5Z"/><path fill="#F57F62" transform="translate(-978 -1115)" d="M1304.26 1860.58L1319.33 1859.73C1319.29 1865.81 1318.38 1871.77 1317.61 1877.8C1311.26 1878.78 1303.74 1879.29 1297.26 1879.89L1283.83 1880.11C1282.99 1873.46 1283.24 1868.07 1283.37 1861.39C1290.34 1861.17 1297.3 1860.9 1304.26 1860.58Z"/><path fill="#F57F62" transform="translate(-978 -1115)" d="M1238.58 1859.1C1249.34 1860.64 1262.22 1860.96 1273.12 1861.24L1273.17 1880.07C1262.85 1880.25 1251.26 1879.34 1240.86 1878.75C1239.91 1872.56 1239.28 1865.4 1238.58 1859.1Z"/><path fill="#F57F62" transform="translate(-978 -1115)" d="M1282.44 1890.52L1296.7 1889.99L1293.49 1907L1271.75 1906.9C1267.06 1906.76 1268.48 1907.41 1264.85 1905.13C1262.12 1901.01 1261.87 1895.76 1261.08 1890.7L1282.44 1890.52Z"/><path fill="#F57F62" transform="translate(-978 -1115)" d="M1214.71 1832.92C1225.84 1833.44 1236.98 1833.84 1248.12 1834.1L1250.15 1849.84C1238.83 1848.5 1227.52 1847.08 1216.22 1845.58C1215.66 1841.36 1215.15 1837.15 1214.71 1832.92Z"/><path fill="#F57F62" transform="translate(-978 -1115)" d="M1315.14 1833.6C1322.33 1833.14 1335.97 1831.01 1341.06 1835.03C1343.16 1841.3 1340.84 1843.94 1335.71 1846.52C1327.12 1847.69 1318.51 1848.64 1309.87 1849.36C1309.88 1843.29 1308.48 1835.61 1315.14 1833.6Z"/><path fill="#F57F62" transform="translate(-978 -1115)" d="M1326.75 1887.38C1330.49 1886.97 1330.78 1886.26 1333.39 1887.77C1335.64 1898.94 1322.61 1904.74 1313.56 1906.22C1309.2 1906.91 1307.92 1907.83 1304.87 1904.53C1303.73 1900.37 1305.52 1894.6 1306.46 1890.09C1312.99 1889.03 1320.15 1888.24 1326.75 1887.38Z"/><path fill="#F57F62" transform="translate(-978 -1115)" d="M1221.33 1886.84C1231.11 1888.1 1241.02 1888.92 1250.92 1890.21L1253.66 1906.3C1234.53 1905.68 1228.57 1905.39 1221.33 1886.84Z"/><path fill="#F57F62" transform="translate(-978 -1115)" d="M1216.8 1856.63C1231.09 1857.57 1229.61 1865.92 1230.33 1877.6C1224.37 1876.78 1224.37 1877.74 1220.14 1874.61C1217.8 1870.34 1217.67 1862.06 1216.8 1856.63Z"/><path fill="#F57F62" transform="translate(-978 -1115)" d="M1333.57 1855.87C1343.82 1859.8 1337.77 1871.31 1333.56 1877.63C1322.26 1875.39 1329.81 1861.43 1333.57 1855.87Z"/></g></svg>