<?xml version="1.0" encoding="utf-8" ?><svg xmlns="http://www.w3.org/2000/svg" xmlns:xlink="http://www.w3.org/1999/xlink" width="954" height="496" viewBox="0 0 954 496"><clipPath id="sky-rainbow-cl_30"><rect width="954" height="496"/></clipPath><g clip-path="url(#sky-rainbow-cl_30)"><path fill="#191F27" transform="translate(-1094 -616)" d="M1523.75 608.448C1543.08 607.537 1562.46 607.957 1581.74 609.705C1787.98 628.477 1906.4 817.405 1919.75 1008.14C1923.11 1056.2 1920.81 1046.7 1875.94 1047.35C1838.33 1047.78 1800.72 1047.96 1763.1 1047.9L1716.7 1047.91C1674.96 1047.95 1683.85 1050.41 1676.61 1010.41C1673.85 995.677 1670.02 981.165 1665.14 966.992C1646.34 912.607 1612 868.816 1552.25 860.04C1467.61 853.339 1420.53 921.037 1400.49 995.811C1396.09 1012.23 1396.17 1031.55 1390.85 1047.4C1381.05 1048.42 1364.93 1048.14 1354.76 1048.19L1295.37 1048.44C1272.24 1048.53 1173.94 1051.6 1156.94 1046.07C1150.34 1040.47 1154.88 1004.9 1155.74 995.452C1164.76 903.496 1199.94 816.049 1257.1 743.461C1311.82 675.036 1383.38 634.091 1468.85 616.138C1488.52 612.006 1503.89 610.682 1523.75 608.448Z"/><path fill="#60B591" transform="translate(-1094 -616)" d="M1529.43 622.421C1530.02 622.378 1530.61 622.334 1531.2 622.291C1620.44 617.999 1707.66 649.745 1773.27 710.395C1863.12 792.646 1901.83 915.063 1907.12 1033.93L1866.16 1034C1855.21 936.368 1838.34 847.278 1770.47 770.569C1708.86 700.941 1639.49 672.247 1548.07 666.157C1463.25 667.399 1389.6 693.828 1327.06 752.838C1251.57 824.069 1211.6 931.796 1208.57 1034.31L1167.29 1034.31C1174.08 869.489 1256.63 703.012 1418.97 644.109C1456.36 630.542 1490.04 625.464 1529.43 622.421Z"/><path fill="#F57F62" transform="translate(-1094 -616)" d="M1524.57 681.424L1526.42 681.265C1600.57 675.362 1676.75 703.807 1731.9 752.6C1814.74 825.903 1843.3 928.201 1851.21 1034L1809.19 1034C1806.92 1017.44 1805.93 1001 1803.3 984.359C1787.33 883.302 1733.59 783.26 1633.98 743.839C1605.31 732.492 1581.67 728.297 1551.17 725.07C1538.95 725.061 1527.79 725.45 1515.6 726.463C1362.46 739.175 1270.59 892.044 1264.92 1034.3L1222.97 1034.3C1223.53 951.41 1258.65 851.253 1313.09 788.598C1369.99 723.102 1438.8 688.379 1524.57 681.424Z"/><path fill="#F7B54E" transform="translate(-1094 -616)" d="M1279.06 1034.3C1281.54 1018.68 1281.98 1002.53 1284.9 985.826C1294.36 929.983 1317.64 877.392 1352.61 832.843C1394.18 780.02 1446.17 748.865 1513.22 741.1C1574.91 733.598 1637.02 751.228 1685.56 790.019C1761.51 850.452 1784.82 942.677 1795.27 1033.99L1751.23 1034.07C1750.21 986.769 1730.13 923.958 1705.48 883.693C1677.64 838.193 1632.96 803.718 1580.68 791.423C1532.5 780.14 1481.8 788.779 1440.08 815.384C1385.74 849.412 1346.52 913.008 1332.06 974.813C1333.18 983.25 1330.48 996.045 1328.59 1004.39L1328.46 1002.77C1327.03 1009.72 1324.68 1032.14 1323.63 1034.28L1279.06 1034.3Z"/><path fill="#1A1C20" transform="translate(-1094 -616)" d="M1332.06 974.813C1333.18 983.25 1330.48 996.045 1328.59 1004.39L1328.46 1002.77C1327.03 1009.72 1324.68 1032.14 1323.63 1034.28C1321.76 1017.61 1327.82 990.909 1332.06 974.813Z"/><path fill="#7FBEEF" transform="translate(-1094 -616)" d="M1528.58 801.409C1537.71 800.49 1548.44 800.598 1557.55 801.638C1674.21 814.943 1729.34 930.023 1737.27 1034L1693.36 1034C1687.36 948.507 1640.47 851.163 1544.25 845.713C1440.39 845.472 1389.79 942.687 1380.77 1034.52L1336.79 1034.52C1346.32 922.547 1407.22 813.709 1528.58 801.409Z"/><path fill="#191F27" transform="translate(-1094 -616)" d="M1135.86 544.189C1139.26 544.046 1145.53 543.313 1146.58 548.07C1147.84 555.803 1148.33 566.575 1147.86 574.428C1147.23 584.834 1149.73 607.47 1145.58 615.911C1142.03 616.367 1135.71 615.903 1135.21 611.778C1133.76 599.887 1132.13 553.013 1135.86 544.189Z"/></g></svg>