<?xml version="1.0" encoding="utf-8" ?><svg xmlns="http://www.w3.org/2000/svg" xmlns:xlink="http://www.w3.org/1999/xlink" width="497" height="782" viewBox="0 0 497 782"><clipPath id="sky-sparkles-cl_2e"><rect width="497" height="782"/></clipPath><g clip-path="url(#sky-sparkles-cl_2e)"><path fill="#191F27" transform="translate(-1551 -1266)" d="M1738.17 1548.29C1738.67 1548.34 1741.16 1548.55 1741.49 1548.82C1748.61 1556.22 1757.69 1592.98 1759.35 1603.16C1764.38 1633.93 1818.86 1630.14 1823.52 1645C1819.51 1652.44 1790.54 1659.06 1781.36 1662.46C1749.64 1674.17 1757.57 1712.25 1744.51 1740.57C1743.34 1740.65 1739.65 1741.12 1738.83 1739.71C1725.1 1716.34 1730.36 1671.75 1699.61 1661.31C1691.39 1658.52 1660.14 1651.96 1659.04 1642.61C1663.82 1636.78 1684.89 1631.39 1692.68 1629.29C1736.45 1617.5 1722.67 1578.22 1738.17 1548.29Z"/><path fill="#F7B54E" transform="translate(-1551 -1266)" d="M1741.17 1583.7C1744.35 1590.92 1746.75 1603.23 1750.91 1612.51C1760.66 1634.28 1775.38 1637.28 1795.63 1645.33C1793.88 1645.87 1792.14 1646.43 1790.39 1647.01C1765.06 1655.41 1754.45 1662.55 1746.29 1689.13C1744.89 1693.68 1742.82 1703.87 1740.6 1707.15C1731.06 1665.94 1726.2 1657.41 1686.12 1644.61C1728.61 1631.83 1728.67 1623.09 1741.17 1583.7Z"/><path fill="#191F27" transform="translate(-1551 -1266)" d="M1676.25 1385.4C1690.04 1388.33 1688.42 1435.54 1700.25 1445.4C1711.11 1454.45 1743.58 1454.56 1747.39 1467.6C1743.45 1477.98 1711.29 1479.28 1702.08 1488.24C1685.6 1504.27 1692.14 1531.46 1679.27 1548.46C1671.12 1546.16 1662.43 1508.76 1660.75 1500.42C1656.03 1477.16 1612.56 1480.89 1608.54 1466.65C1613.46 1457.88 1645.33 1452.95 1656.97 1444.56C1667.22 1422.95 1665.59 1402.42 1676.25 1385.4Z"/><path fill="#F7B54E" transform="translate(-1551 -1266)" d="M1677.28 1421.68C1681.49 1426.5 1685.03 1442.65 1687.36 1448C1691.61 1457.75 1711.34 1464.12 1720.77 1467.31C1690 1478.28 1687.89 1483.01 1678.18 1513.3C1675.21 1510.19 1671.55 1499.43 1670.75 1495.24C1667.49 1478.28 1650.41 1472.54 1635.55 1467.13C1665.74 1457.12 1667.88 1450.44 1677.28 1421.68Z"/><path fill="#191F27" transform="translate(-1551 -1266)" d="M1849.18 1672.29C1863.19 1678.91 1861.77 1715.92 1872.84 1729.22C1882.61 1740.96 1915.19 1743.07 1921.35 1753.14L1920.75 1755.3C1911.49 1764.12 1882.06 1766.13 1874.47 1774.57C1861.91 1788.51 1862.08 1815.6 1853.66 1833.61L1850.89 1833.37C1842.09 1828.32 1837.18 1794.28 1833.06 1782.69C1825.88 1762.5 1787.49 1767.32 1782.73 1752.57C1786.51 1742.78 1821.63 1739.41 1829.23 1730.37C1840.16 1717.37 1838.71 1684.72 1849.18 1672.29Z"/><path fill="#F7B54E" transform="translate(-1551 -1266)" d="M1850.69 1707.75C1854.75 1711.75 1857.4 1726.79 1859.89 1731.57C1866.06 1743.45 1881.81 1749.31 1893.19 1753.87C1863.53 1763.45 1860.75 1770.36 1851.85 1798.42L1850.67 1798.37C1837.26 1768.92 1846.19 1766.98 1809.38 1753.72C1838.67 1743.81 1843.08 1737.75 1850.69 1707.75Z"/><path fill="#191F27" transform="translate(-1551 -1266)" d="M1843.14 1463.62C1857.48 1465.31 1856.3 1488.87 1860.78 1501.08C1867.51 1519.39 1898.97 1514.33 1904.34 1528.65C1901.33 1536.16 1873.43 1540.28 1863.71 1549.26C1859.3 1562.49 1856.38 1578.21 1850.16 1590.37C1848.94 1590.46 1847.24 1590.7 1846 1590.51C1837.44 1589.19 1832.61 1555.08 1822.93 1543.81C1815.27 1540.9 1790.68 1535.83 1789.52 1528.84C1794.14 1519.04 1818.37 1516.81 1829.16 1508.89C1836.28 1496.14 1836.38 1474.03 1843.14 1463.62Z"/><path fill="#7FBEEF" transform="translate(-1551 -1266)" d="M1845.65 1496.68C1850.33 1501.83 1852.15 1512.72 1857.61 1517.97C1862.93 1523.09 1869.74 1525.83 1876.38 1528.73C1856.81 1536.38 1853.11 1540.81 1846.76 1560.38L1845.66 1560.39C1838.22 1539.72 1837.53 1537.61 1816.58 1528.48C1836.16 1521.26 1839.41 1515.92 1845.65 1496.68Z"/><path fill="#191F27" transform="translate(-1551 -1266)" d="M1691 1755.51C1692.56 1755.67 1693.81 1756.04 1695.35 1756.41C1703.9 1763.88 1706.99 1787.64 1711.12 1800.31C1724.09 1812.47 1735.12 1807.1 1748.22 1816.95C1750.37 1818.57 1750.03 1820.21 1749.89 1822.2C1743.02 1831.81 1716.11 1833.6 1711.28 1841.16C1704.77 1851.33 1703.48 1871.34 1698.23 1884.67C1678.58 1882.85 1686.2 1852.73 1676.25 1840.85C1668.4 1831.47 1644.88 1832.84 1638.61 1821.73C1638.57 1820.71 1638.53 1819.69 1638.49 1818.67C1644 1810.86 1668.55 1809.28 1674.41 1802.74C1685.34 1790.52 1680.59 1767.74 1691 1755.51Z"/><path fill="#7FBEEF" transform="translate(-1551 -1266)" d="M1693.28 1789.48C1704.11 1797.19 1692.31 1807.82 1723.75 1821.17C1701.55 1830.7 1703.75 1831.79 1694.33 1852.58C1693.12 1851.37 1693.09 1851.35 1692.4 1849.76C1683.46 1828.93 1682.71 1829.45 1663.26 1820.75C1666.41 1819.56 1669.54 1818.31 1672.63 1817C1686.02 1811.18 1688.39 1802.21 1693.28 1789.48Z"/></g></svg>