<?xml version="1.0" encoding="utf-8" ?><svg xmlns="http://www.w3.org/2000/svg" xmlns:xlink="http://www.w3.org/1999/xlink" width="605" height="628" viewBox="0 0 605 628"><clipPath id="sky-sun-cl_32"><rect width="605" height="628"/></clipPath><g clip-path="url(#sky-sun-cl_32)"><path fill="#191F27" transform="translate(-814 0)" d="M1523.47 608.423C1541.25 607.504 1559.07 607.739 1576.82 609.127C1782.6 626.474 1907.08 811.776 1919.47 1008.43C1920.2 1020.02 1927.44 1047.07 1909.85 1047.43C1895.01 1047.74 1879.05 1047.62 1864.01 1047.74C1830.44 1048.11 1796.87 1048.26 1763.29 1048.21C1738.57 1048.2 1713.2 1048.75 1688.57 1047.43C1678.75 1044.97 1678 1018.46 1676.42 1010.81C1661.35 937.776 1633 877.761 1554.83 860.22C1548.42 859.653 1541.85 859.072 1535.44 859.206C1454.7 860.905 1405.63 948.61 1396.32 1019.7C1395.18 1028.44 1393.88 1038.01 1391.25 1046.32C1391.13 1046.62 1391 1046.93 1390.88 1047.23C1347.01 1049.77 1301.33 1047.95 1257.33 1048.71C1228.09 1049.21 1198.47 1048.44 1169.21 1048.21C1166.66 1048.19 1159.07 1047.25 1156.63 1045.23C1150.23 1035.46 1155.37 999.291 1156.41 989.82C1166.11 900.487 1200.48 815.614 1255.67 744.698C1305.82 681.528 1376 637.334 1454.64 619.403C1479.92 613.404 1497.99 611.325 1523.47 608.423Z"/><path fill="#60B591" transform="translate(-814 0)" d="M1529.43 622.421C1530.02 622.378 1530.61 622.334 1531.2 622.291C1620.44 617.999 1707.66 649.745 1773.27 710.395C1863.12 792.641 1901.83 915.069 1907.12 1033.93L1866.16 1034.01C1855.21 936.368 1838.34 847.279 1770.47 770.569C1708.86 700.941 1639.49 672.247 1548.07 666.157C1463.25 667.399 1389.6 693.828 1327.06 752.838C1251.58 824.068 1211.6 931.796 1208.57 1034.3L1167.29 1034.31C1173.88 869.643 1256.87 702.844 1418.97 644.109C1456.39 630.552 1490.02 625.466 1529.43 622.421Z"/><path fill="#191F27" transform="translate(-814 0)" d="M1130.69 220.849C1214.08 216.107 1285.5 279.913 1290.14 363.306C1294.79 446.699 1230.91 518.048 1147.51 522.603C1064.24 527.151 993.032 463.388 988.39 380.127C983.749 296.866 1047.43 225.584 1130.69 220.849Z"/><path fill="#F7B54E" transform="translate(-814 0)" d="M1125.12 235.55C1200.49 227.556 1268.09 282.11 1276.19 357.464C1284.29 432.817 1229.84 500.496 1154.5 508.71C1079 516.94 1011.15 462.348 1003.03 386.839C994.91 311.33 1049.6 243.56 1125.12 235.55Z"/><path fill="#1A1C20" transform="translate(-814 0)" d="M1112.92 375.451C1123.22 376.662 1123.14 390.939 1135.27 393.387C1147.8 395.915 1159.84 375.894 1169.09 377.081L1170.27 379.15C1170.26 383.914 1170.25 384.665 1168.77 389.168C1163.66 397.022 1158.09 401.339 1148.86 403.807C1139.35 406.37 1129.21 404.972 1120.76 399.932C1110.93 394.158 1105.9 385.84 1112.92 375.451Z"/><path fill="#F57F62" transform="translate(-814 0)" d="M1055.91 377.187C1080.5 376.422 1091.64 397.443 1060.82 402.72C1034.78 400.956 1027.33 384.096 1055.91 377.187Z"/><path fill="#F57F62" transform="translate(-814 0)" d="M1215.59 377.104C1236.76 376.949 1255.02 390.726 1227.3 402.258C1202.9 402.839 1184.24 387.795 1215.59 377.104Z"/><path fill="#191F27" transform="translate(-814 0)" d="M1200.69 340.49C1205.08 338.945 1209.96 339.962 1213.37 343.133C1216.77 346.303 1218.13 351.101 1216.9 355.587C1215.67 360.072 1212.05 363.504 1207.51 364.494C1201.06 365.899 1194.63 362.045 1192.82 355.694C1191.02 349.343 1194.47 342.685 1200.69 340.49Z"/><path fill="#191F27" transform="translate(-814 0)" d="M1070.69 340.469C1075.03 339.04 1079.8 340.102 1083.12 343.234C1086.45 346.367 1087.79 351.068 1086.62 355.484C1085.46 359.9 1081.96 363.323 1077.52 364.402C1071.03 365.982 1064.44 362.15 1062.61 355.721C1060.77 349.292 1064.34 342.559 1070.69 340.469Z"/><path fill="#191F27" transform="translate(-814 0)" d="M1015.91 158.289C1025.42 161.917 1049.74 207.762 1055.48 218.337C1056.53 220.267 1053.54 224.509 1052.39 226.285C1049.95 226.043 1046.37 226.317 1044.27 223.27C1033.54 207.675 1015.29 182.516 1011.98 163.996C1011.56 161.645 1014.61 159.442 1015.91 158.289Z"/><path fill="#191F27" transform="translate(-814 0)" d="M932.541 367.463C942.038 367.042 962.162 363.9 967.337 372.557C967.615 376.817 968.089 374.936 966.189 378.478C959.03 383.459 943.754 381.516 934.25 381.204C925.014 381.197 900.314 383.239 894.585 375.895C893.619 363.929 922.751 367.654 932.541 367.463Z"/><path fill="#191F27" transform="translate(-814 0)" d="M926.578 248.476C936.326 249.97 985.512 275.995 987.981 284.933C987.82 288.328 986.814 289.204 984.868 291.987C976.049 291.819 926.752 263.384 923.815 255.563C923.877 252.037 924.644 251.395 926.578 248.476Z"/><path fill="#191F27" transform="translate(-814 0)" d="M1136.24 125.653C1139.8 127.209 1140.86 127.384 1143.41 130.399C1145.42 139.351 1146.68 193.106 1142.1 201.34C1132.77 199.482 1130.33 192.776 1131.09 184.295C1132.3 170.785 1126.82 134.801 1136.24 125.653Z"/><path fill="#191F27" transform="translate(-814 0)" d="M1138.31 543.798C1141.44 544.247 1147.27 545.141 1147.25 549.219C1147.16 564.427 1151.11 605.528 1143.87 617.263C1141.11 616.402 1138.28 615.662 1136.35 613.335C1131.85 607.921 1133.7 560.024 1134.37 550.966C1134.66 547.172 1135.44 546.287 1138.31 543.798Z"/><path fill="#191F27" transform="translate(-814 0)" d="M1227.05 519.341C1233.19 519.927 1235.26 522.291 1238.58 527.28C1248.96 542.892 1258.78 559.663 1267.02 576.497C1268.27 579.063 1265.81 582.564 1264.68 584.893C1259.53 584.745 1257.16 582.293 1254.35 578.19C1243.55 562.388 1232.85 545.598 1224.83 528.213C1223.57 525.485 1225.81 521.83 1227.05 519.341Z"/><path fill="#191F27" transform="translate(-814 0)" d="M1333.08 362.497C1343.83 362.412 1380.62 358.805 1383.95 369.32C1381.33 376.914 1375.26 375.98 1368.25 376.001C1352.84 376.084 1335.08 376.703 1319.72 375.559C1316.49 375.318 1314.05 374.085 1312.13 371.433C1311.46 367.214 1311.06 369.041 1312.71 365.659C1318.65 361.453 1325.7 362.433 1333.08 362.497Z"/><path fill="#191F27" transform="translate(-814 0)" d="M1254.56 156.823C1259.14 157.472 1260.01 157.025 1262.16 160.835C1261.59 169.656 1235.59 216.198 1228.43 222.891C1225.33 222.489 1224.69 222.701 1222.18 220.844C1218.43 212.313 1248.1 161.204 1254.56 156.823Z"/><path fill="#191F27" transform="translate(-814 0)" d="M1291.8 451.743C1301.73 452.401 1346.55 478.148 1353.12 486.224C1354.2 489.853 1352.85 491.957 1351.46 495.583C1346.06 495.693 1292.29 465.863 1289.92 459.653C1289.8 455.668 1290.04 455.458 1291.8 451.743Z"/><path fill="#191F27" transform="translate(-814 0)" d="M1048.24 521.466C1053.1 521.687 1055.58 521.392 1057.36 526.225C1055.49 536.39 1031.89 577.469 1025.47 585.972C1020.16 586.145 1018.27 585.908 1016.53 580.984C1018.68 569.57 1041.01 531.507 1048.24 521.466Z"/><path fill="#191F27" transform="translate(-814 0)" d="M986.746 455.789C991.001 457.088 991.251 457.892 991.439 461.856C986.879 471.515 942.43 497.326 931.673 501.263C929.741 499.871 924.836 495.832 927.116 493.557C939.661 481.039 970.746 461.893 986.746 455.789Z"/><path fill="#191F27" transform="translate(-814 0)" d="M1342.83 243.984C1347.17 243.649 1350.71 243.133 1351.4 247.976C1346.49 258.999 1308.49 279.783 1296.41 285.793C1291.98 286.287 1288.38 285.698 1287.61 280.98C1293.09 269.468 1329.64 251.257 1342.83 243.984Z"/></g></svg>