<?xml version="1.0" encoding="utf-8" ?><svg xmlns="http://www.w3.org/2000/svg" xmlns:xlink="http://www.w3.org/1999/xlink" width="694" height="706" viewBox="0 0 694 706"><clipPath id="scenes-goal-reached-cl_38"><rect width="694" height="706"/></clipPath><g clip-path="url(#scenes-goal-reached-cl_38)"><path fill="#43B682" transform="translate(0 -1342)" d="M377.63 1667.01C378.618 1639.14 372.532 1492.96 379.587 1479.84C381.714 1475.88 384.837 1472.81 389.266 1471.64C396.074 1469.84 401.056 1471.98 406.875 1475.35L412.149 1483.36C460.611 1498.87 508.06 1516.82 556.871 1531.3C563.56 1533.28 572.204 1536.24 572.247 1543.79C565.213 1559.98 437.117 1595.3 412.821 1608.98L412.442 1666.92C510.026 1681.8 549.279 1747.59 620.839 1805.08C626.96 1810 635.112 1815.36 636.001 1823.75C633.344 1830.86 629.592 1829.72 623.696 1828.36C607.332 1837.1 584.091 1849.49 565.87 1854.6C458.343 1884.76 328.111 1883.39 220.398 1854.41C198.067 1848.4 183.263 1839.92 164.209 1829.35C159.654 1829.72 156.261 1828.85 153.652 1824.91C152.671 1812.6 187.038 1791.63 196.568 1782.27C250.572 1729.19 297.831 1677.17 377.63 1667.01Z"/><path fill="#08262B" transform="translate(0 -1342)" d="M377.63 1667.01C378.618 1639.14 372.532 1492.96 379.587 1479.84C381.714 1475.88 384.837 1472.81 389.266 1471.64C396.074 1469.84 401.056 1471.98 406.875 1475.35L412.149 1483.36C460.611 1498.87 508.06 1516.82 556.871 1531.3C563.56 1533.28 572.204 1536.24 572.247 1543.79C565.213 1559.98 437.117 1595.3 412.821 1608.98L412.442 1666.92C510.026 1681.8 549.279 1747.59 620.839 1805.08C626.96 1810 635.112 1815.36 636.001 1823.75C633.344 1830.86 629.592 1829.72 623.696 1828.36C612.608 1816.32 591.063 1802.21 577.825 1789.57C526.693 1740.74 480.138 1686.29 404.023 1682.81C343.673 1680.05 300.375 1706.29 257.441 1746.39C238.755 1763.84 221.217 1781.76 201.997 1798.84C194.793 1805.25 167.527 1825.56 164.209 1829.35C159.654 1829.72 156.261 1828.85 153.652 1824.91C152.671 1812.6 187.038 1791.63 196.568 1782.27C250.572 1729.19 297.831 1677.17 377.63 1667.01Z"/><path fill="#F5795C" transform="translate(0 -1342)" d="M414.225 1499.42C459.086 1511.79 504.522 1530.25 549.575 1544.05C540.166 1548.24 522.465 1553.99 512.216 1557.67C479.054 1569.19 445.981 1580.98 413.001 1593.02C412.983 1561.81 413.39 1530.61 414.225 1499.42Z"/><path fill="#F5795C" transform="translate(0 -1342)" d="M392.912 1484.4C396.804 1485.73 399.182 1486.55 399.305 1491.02C400.854 1547.35 398.804 1603.99 398.967 1660.38C398.979 1664.51 398.561 1665.1 396.337 1668.27C394.525 1667.54 391.367 1665.83 391.464 1663.71C392.648 1637.64 384.241 1498.6 392.912 1484.4Z"/><path fill="#08262B" transform="translate(0 -1342)" d="M333.978 1401.35C344.025 1406.52 344.214 1422.62 350.488 1434.49C356.322 1438.84 373.564 1445.73 374.872 1451.13C371.835 1458.64 352.527 1465.55 349.098 1471.03C342.864 1481 348.27 1491.74 337.523 1502.42C327.031 1495.63 328.413 1488.33 325.297 1476.63C321.382 1461.95 313.01 1464.13 301.696 1456.91C297.921 1454.49 297.496 1454.16 296.524 1450.48C299.303 1445.14 314.63 1438.51 321.24 1434.64C328.972 1422.09 325.399 1411.47 333.978 1401.35Z"/><path fill="#FAAD2A" transform="translate(0 -1342)" d="M335.527 1432.52C341.32 1436.98 341.697 1443 353.887 1451.17C344.66 1458.44 342.68 1460.41 336.716 1470.45C329.689 1464.11 328.399 1458.82 318.496 1451.5C327.346 1444.37 329.413 1441.82 335.527 1432.52Z"/></g></svg>