<?xml version="1.0" encoding="utf-8" ?><svg xmlns="http://www.w3.org/2000/svg" xmlns:xlink="http://www.w3.org/1999/xlink" width="690" height="651" viewBox="0 0 690 651"><clipPath id="mascot-arms-out-cl_18"><rect width="690" height="651"/></clipPath><g clip-path="url(#mascot-arms-out-cl_18)"><path fill="#01090A" transform="translate(-658 -726)" d="M933.439 793.762C948.438 796.676 956.615 820.542 967.485 829.954C1005.62 862.975 1045.68 892.315 1075.27 933.986C1090.16 954.972 1099.24 974.556 1110.01 997.877C1127.15 994.355 1145.51 986.892 1162.6 983.524C1175.04 952.991 1195.94 940.979 1224.53 962.712C1242.15 956.333 1265.3 947.533 1284.32 951.688C1295.28 954.082 1308.27 964.626 1303.27 977.099C1297.78 990.77 1280.44 997.094 1267.93 1002.94C1273.23 1024.42 1270.2 1056.7 1245.45 1064.22C1239.03 1067.13 1233.15 1063.89 1227.12 1064.05C1208.23 1064.56 1201.71 1066.01 1184.21 1056.97C1162.79 1064.06 1142.68 1072.89 1120.56 1079.14L1119.79 1082.6C1104.15 1152.2 1093.14 1164.7 1034.67 1201.69C1033.44 1212.25 1032.35 1227.14 1032.39 1237.59C1047.34 1243.37 1075.93 1256.98 1068.41 1278.14C1058.76 1305.29 1016.19 1298.37 994.975 1290.9C961.699 1279.19 980.636 1243.42 969.079 1218.45C958.916 1219.64 959.165 1227.37 958.94 1235.84C957.849 1276.96 957.212 1293.25 911.844 1298.65C854.23 1305.52 842.578 1261.05 899.402 1240.38C898.735 1229.89 897.482 1221.24 895.619 1210.94C883.396 1207.12 869.308 1199.2 858.463 1192.62C847.883 1201.66 837.961 1208.02 823.562 1206.75C799.088 1204.59 790.699 1194.47 792.324 1171.67C757.585 1155.5 722.775 1134.25 737.795 1087.6C748.743 1053.59 786.859 1030.8 817.313 1015.82C827.605 994.316 834.651 976.033 846.171 953.611C788.096 963.481 760.417 934.655 740.799 883.115C739.081 878.604 719.098 869.915 734.03 858.559C736.691 856.535 744.243 855.034 747.795 853.863C804.977 835.015 854.265 860.417 865.866 920.842C883.502 898.412 904.785 868.825 916.383 842.999C923.949 826.152 921.031 804.48 933.439 793.762Z"/><path fill="#3FB584" transform="translate(-658 -726)" d="M940.101 826.371C947.236 831.137 958.066 846.242 966.366 853.149C1002.73 883.41 1042.17 912.39 1067.66 953.08C1077.95 969.516 1085.43 988.586 1093.98 1005.86C1095.44 1008.83 1099.09 1014.19 1102.34 1014.49C1120.8 1016.17 1160.45 1002.71 1175.12 994.562C1178.38 987.044 1180.51 981.377 1185.78 975.217C1202.42 955.762 1223.67 977.862 1222.13 997.364C1221.86 1000.91 1221.96 1000.65 1219.5 1002.77C1209.17 1003.03 1198.69 983.272 1192.23 990.325C1189.46 1003.55 1197.11 1009.06 1206.32 1016.17C1204.54 1031.15 1204.18 1034.98 1208.61 1049.47C1200.56 1046.74 1191.43 1043 1183.41 1039.93C1169 1043.97 1119.59 1060.64 1105.68 1068.8C1100.73 1078.29 1099.46 1095.4 1097.07 1105.46C1086.61 1149.71 1055.45 1168.81 1021.02 1191.86C1015.88 1195.3 1013.61 1236.79 1014.23 1248.51C1024.21 1254.21 1050.46 1261.14 1052.17 1272.95C1046.76 1284.67 1014.96 1279.63 1005.53 1277.07C969.714 1266.42 1014.24 1192.85 962.921 1200.59C937.895 1204.37 943.044 1217.59 941.235 1238.86C941.023 1249.36 939.508 1262.64 938.586 1273.29C924.637 1280.81 893.304 1289.51 880.781 1277.69C869.515 1267.06 909.015 1255.14 914.633 1250.9C919.091 1238.09 914.091 1212.65 911.451 1199.37C894.467 1189.87 888.421 1192.6 869.087 1178.05C886.673 1108.72 828.166 1110.29 824.283 1097.07C827.928 1090.98 846.936 1090.91 843.044 1076.75C831.741 1068.22 798.411 1088.86 801.148 1101.09C804.973 1110.9 823.675 1119.29 833.266 1122.97C865.652 1135.38 863.846 1178.34 833.618 1190.52C828.273 1192.68 808.447 1190.07 806.819 1180.74C810.18 1174.15 823.192 1175.61 824.384 1167.88C820.325 1159.44 796.769 1155.2 788.245 1151.57C715.944 1120.81 763.821 1057.34 813.173 1036.67C822.083 1032.93 841.464 1029.97 842.187 1019.89C835.68 1007.03 843.421 1000.49 848.854 988.615C875.488 930.375 921.278 888.564 940.101 826.371Z"/><path fill="#01090A" transform="translate(-658 -726)" d="M936.244 985.321C949.117 986.991 957.538 998.324 974.208 1000.63C987.502 1002.47 1009.7 989.57 1015.22 999.504C1015.06 1003.58 1014.22 1004.44 1012.17 1008.15C992.831 1017.3 949.589 1019.33 934.958 997.069C932.741 993.695 934.783 988.933 936.244 985.321Z"/><path fill="#01090A" transform="translate(-658 -726)" d="M951.379 948.532C957.592 946.081 964.619 949.093 967.129 955.282C969.639 961.471 966.695 968.527 960.53 971.096C954.281 973.7 947.108 970.706 944.564 964.433C942.02 958.16 945.082 951.016 951.379 948.532Z"/><path fill="#01090A" transform="translate(-658 -726)" d="M1014.5 940.546C1020.69 938.818 1027.15 942.195 1029.25 948.258C1031.36 954.322 1028.39 960.979 1022.47 963.461C1018.3 965.209 1013.51 964.497 1010.02 961.612C1006.54 958.727 1004.95 954.147 1005.89 949.723C1006.83 945.299 1010.15 941.763 1014.5 940.546Z"/><path fill="#3FB584" transform="translate(-658 -726)" d="M774.622 866.269C813.901 862.604 837.555 881.495 846.117 919.038C837.23 911.912 813.226 891.001 802.316 901.767C800.071 909.439 804.139 912.932 809.785 917.02C818.918 922.825 829.879 930.482 838.168 937.302C773.869 942.834 780.182 911.892 754.159 870.76C761.552 868.778 767.071 867.624 774.622 866.269Z"/><path fill="#3FB584" transform="translate(-658 -726)" d="M1239.71 1004.1C1261.38 1002.88 1258.03 1028.55 1250.37 1041.42C1246.51 1047.92 1242.75 1049.02 1235.59 1050.37C1235.28 1050.27 1234.98 1050.17 1234.67 1050.08L1233.14 1049.56C1215.73 1043.73 1218.98 1032.82 1220.78 1017.35L1222.16 1016.67C1230.97 1012.36 1232.03 1009.25 1239.71 1004.1Z"/><path fill="#3FB584" transform="translate(-658 -726)" d="M1269.27 967.266C1276.07 966.492 1281.19 965.977 1286.41 970.915C1288.67 981.26 1258.9 988.164 1251.77 990.07L1236.75 992.105C1235.86 987.343 1234.23 981.602 1233.01 976.828C1245.69 973.224 1256.28 969.831 1269.27 967.266Z"/></g></svg>