<?xml version="1.0" encoding="utf-8" ?><svg xmlns="http://www.w3.org/2000/svg" xmlns:xlink="http://www.w3.org/1999/xlink" width="714" height="768" viewBox="0 0 714 768"><clipPath id="mascot-catching-star-cl_36"><rect width="714" height="768"/></clipPath><g clip-path="url(#mascot-catching-star-cl_36)"><path fill="#08262B" transform="translate(-1334 -1280)" d="M1807.06 1497.94C1818.77 1496.39 1821.03 1510.19 1825.04 1519.05C1832.14 1534.76 1834.18 1549.4 1834.72 1566.46C1845.15 1563.59 1856.04 1562.83 1866.76 1564.23C1878.24 1565.61 1900.45 1571.58 1908.17 1580.81C1916.26 1592.35 1901.1 1598.02 1897.15 1603.44C1870.39 1640.1 1855.57 1652.82 1808.23 1644.03C1825.15 1671.66 1833.16 1705.27 1834.62 1737.39C1842.13 1746.83 1846.48 1754.87 1850.07 1767.18C1854.46 1782.26 1853.58 1810.41 1834.33 1814.93C1824.84 1817.16 1816.25 1812.49 1808.37 1807.27C1792.72 1822.12 1784.45 1826.29 1765.68 1836.41C1768.85 1846.75 1772.56 1865.98 1769.57 1876.43C1762.32 1901.76 1722.66 1921.4 1705.39 1893.68C1705.31 1877.79 1710.07 1870.38 1718.98 1858.27C1717.8 1851.17 1717.6 1849.38 1714.74 1842.68C1708.98 1842.03 1702.66 1840.98 1696.87 1840.14C1697.66 1847.55 1698.63 1854.93 1699.81 1862.28C1692.16 1878.5 1686.37 1886.75 1670.44 1895.66C1657.98 1901.45 1637.99 1900.33 1634.57 1883.84C1631.97 1871.29 1642 1857.33 1648.73 1847.37C1645.93 1839.52 1643.92 1828.7 1641.41 1820.03C1600.29 1795.56 1575.53 1743.71 1586.88 1696.57C1587.88 1692.44 1588.54 1687.91 1589.27 1683.7C1577.22 1664.51 1563.03 1648.08 1551.55 1627.63C1542.78 1612 1537.5 1587.16 1558.34 1577.24C1569.57 1571.91 1580.24 1580.62 1589.24 1585.61C1591.13 1586.65 1604.01 1583.38 1607.12 1586.27C1618 1593.39 1610.73 1614.09 1615.06 1627.79L1616.53 1628.3C1623.16 1624.03 1643.82 1601.23 1653.3 1593.69C1675.16 1576.29 1698.1 1562.36 1718.69 1543.73C1728.5 1534.86 1734.17 1525.33 1742.68 1515.69C1744.23 1513.94 1747.22 1514.54 1749.22 1514.79C1757.93 1520.49 1759.4 1543.54 1763.74 1556.05L1764.33 1557.73C1772.98 1529.69 1783.18 1515.87 1807.06 1497.94Z"/><path fill="#43B682" transform="translate(-1334 -1280)" d="M1740.68 1544.86C1745.61 1551.57 1750.47 1571.09 1755.36 1580.03C1781.93 1628.55 1804.72 1664.08 1818.06 1718.93C1811.78 1712.84 1801.55 1700.54 1792.52 1708.56C1790.85 1719.5 1836.03 1752.83 1836.85 1773.12C1838.28 1778.23 1839.59 1791.8 1835.62 1796.26C1817.96 1815.44 1807.36 1768.68 1801.34 1757.8C1797.01 1749.98 1783.69 1725.32 1772.35 1736.9C1771.26 1745.58 1784.61 1754.18 1789.99 1766.4C1794.98 1777.71 1796.21 1781.92 1799.7 1793.8C1792.37 1801.34 1788.05 1804.89 1779.53 1810.58C1772.06 1815.57 1757.21 1818.22 1753.45 1823.76C1747.04 1833.22 1753.68 1863.57 1755.54 1874.86C1748.75 1882.09 1734.86 1896.28 1724.17 1891.84C1717.22 1883.06 1730.23 1870.13 1735.86 1863.24C1734.53 1853.25 1733.08 1839.79 1728.45 1830.82C1726.65 1827.32 1725.51 1827.51 1722.34 1826.5C1676.3 1818.65 1674.41 1816.81 1683.39 1863.44C1678.97 1868.84 1669.57 1879.81 1662.59 1882.51C1650.54 1887.17 1648.21 1875.8 1654.52 1867.7C1658.03 1863.2 1662.37 1857.63 1666.01 1852.63C1663.36 1838.39 1659.13 1823.3 1654.93 1809.44C1618.93 1784.94 1597.78 1755.36 1601.28 1709.44C1602.1 1698.64 1608.01 1688.74 1603.18 1677.91C1591.68 1652.14 1563.46 1632.22 1560.48 1603.04C1560.12 1598.45 1561.68 1594.8 1564.94 1591.65C1577.02 1588.77 1578.81 1610.55 1599.03 1599.55L1600.26 1598.86C1597.52 1611.82 1597.17 1651.02 1618.15 1653.44C1625.87 1654.32 1637.05 1632.27 1642.68 1626.53C1673.23 1595.41 1710.19 1576.77 1740.68 1544.86Z"/><path fill="#08262B" transform="translate(-1334 -1280)" d="M1661.88 1649C1674.78 1648.8 1675.14 1651.22 1686.93 1654.11C1698.93 1657.13 1717.11 1656.75 1726.8 1665.1C1738.37 1675.07 1723.06 1689.84 1716.26 1696.89C1681.57 1724.17 1639.37 1679.41 1661.88 1649Z"/><path fill="#F5795C" transform="translate(-1334 -1280)" d="M1669.57 1661.61C1686.1 1668.67 1699.98 1670.63 1717.41 1673.34L1709.62 1684.18C1686.44 1702.56 1670.99 1687.37 1669.57 1661.61Z"/><path fill="#08262B" transform="translate(-1334 -1280)" d="M1724.3 1626.47C1729.77 1624.55 1735.78 1627.32 1737.86 1632.74C1739.95 1638.15 1737.35 1644.23 1732.01 1646.48C1728.4 1647.99 1724.26 1647.43 1721.19 1645C1718.13 1642.57 1716.63 1638.67 1717.27 1634.82C1717.92 1630.96 1720.61 1627.76 1724.3 1626.47Z"/><path fill="#08262B" transform="translate(-1334 -1280)" d="M1674.29 1613.48C1679.74 1611.96 1685.42 1615.02 1687.14 1620.41C1688.87 1625.79 1686.02 1631.58 1680.7 1633.5C1677.08 1634.81 1673.03 1634.04 1670.15 1631.49C1667.27 1628.93 1666.01 1625.01 1666.88 1621.25C1667.74 1617.5 1670.58 1614.52 1674.29 1613.48Z"/><path fill="#43B682" transform="translate(-1334 -1280)" d="M1851.41 1580.31C1866.96 1580.06 1872.66 1582.1 1886.69 1588.03C1873.85 1608.03 1859.03 1631.37 1831.95 1629.98C1826.2 1629.69 1820.68 1629.66 1816.58 1625.25C1822.89 1622.1 1844.43 1615.83 1845.84 1611.86C1854.07 1588.56 1815.02 1606.49 1811.08 1608.21C1812.63 1605.54 1814.32 1602.95 1816.12 1600.44C1825.91 1586.59 1835.69 1583.03 1851.41 1580.31Z"/><path fill="#43B682" transform="translate(-1334 -1280)" d="M1805.42 1521.1C1810.37 1526.09 1811.49 1530.74 1813.93 1536.74C1827.55 1570.09 1806.39 1577.11 1793.83 1604.58L1792.85 1605.79L1791.3 1605.02C1785.86 1595.25 1783.61 1582.29 1782.91 1571.3C1781.42 1548.12 1791.64 1536.98 1805.42 1521.1Z"/><path fill="#08262B" transform="translate(-1334 -1280)" d="M1513.45 1406.22C1529.64 1404.45 1547.17 1433.59 1558 1444.96C1572.96 1442.87 1600.29 1438.25 1613.89 1442.86C1631.86 1448.96 1600.71 1490.45 1596.09 1499.44L1595.53 1500.56C1599.4 1518.46 1616.3 1539.19 1611.74 1555.94C1605.58 1578.6 1560.96 1550.8 1549.9 1556.66C1540.73 1564.6 1530.11 1575.75 1520.52 1581.86C1479.12 1608.24 1492.95 1553.83 1487.57 1533.27C1486.12 1527.73 1474.45 1521.72 1469.57 1519.19C1411.67 1489.16 1457.29 1474.34 1492.6 1462.24C1497.85 1444.89 1496.53 1415 1513.45 1406.22Z"/><path fill="#FAAD2A" transform="translate(-1334 -1280)" d="M1515.86 1420.33C1529.74 1425.82 1537.92 1448.77 1554.84 1458.4C1567.13 1458.43 1578.66 1455.85 1590.83 1454.9C1595.79 1454.52 1601.09 1453.98 1603.43 1458.79C1602.68 1466.06 1585.16 1492.16 1580.12 1501.97C1585.22 1513.84 1590.83 1525.72 1595.62 1537.73C1597.35 1542.1 1599.18 1546.63 1595.76 1550.31C1588.06 1552.1 1558.79 1542.48 1545.95 1542.34C1532.28 1552.88 1520.03 1566.2 1505.8 1576.05C1502.09 1562.74 1501.72 1538.94 1500.16 1523.96C1492.44 1517.59 1459.82 1499.83 1458.51 1493.17C1461.7 1488.04 1494.79 1476.08 1504.26 1471.2C1509.39 1453.95 1509.7 1437.12 1515.86 1420.33Z"/><path fill="#08262B" transform="translate(-1334 -1280)" d="M1553.38 1500.56C1556.9 1500.63 1556.89 1500.85 1559.92 1502.42C1561.15 1504.13 1562.78 1505.92 1561.9 1508.21C1555.46 1525.05 1539.3 1525.86 1525.21 1523.55C1520.48 1520.75 1516.92 1518.23 1518.43 1512.03C1523.88 1508.09 1532.17 1512.79 1540.98 1513.06C1546.41 1510.99 1550.04 1505.22 1553.38 1500.56Z"/><path fill="#08262B" transform="translate(-1334 -1280)" d="M1547.82 1475.48C1551.46 1474.05 1555.56 1475.78 1557.09 1479.37C1558.61 1482.96 1557.01 1487.12 1553.46 1488.74C1551.07 1489.84 1548.28 1489.55 1546.17 1487.99C1544.06 1486.43 1542.96 1483.85 1543.31 1481.25C1543.65 1478.65 1545.38 1476.44 1547.82 1475.48Z"/><path fill="#08262B" transform="translate(-1334 -1280)" d="M1515.26 1484.46C1518.93 1484.1 1522.24 1486.65 1522.83 1490.28C1523.42 1493.91 1521.09 1497.38 1517.51 1498.2C1514.97 1498.79 1512.32 1497.91 1510.64 1495.93C1508.95 1493.96 1508.5 1491.2 1509.47 1488.79C1510.44 1486.38 1512.68 1484.71 1515.26 1484.46Z"/><path fill="#08262B" transform="translate(-1334 -1280)" d="M1297.99 1678.65C1313.95 1676.05 1329.01 1686.87 1331.63 1702.83C1334.26 1718.79 1323.46 1733.86 1307.51 1736.51C1291.52 1739.16 1276.41 1728.34 1273.78 1712.34C1271.15 1696.35 1281.99 1681.26 1297.99 1678.65Z"/><path fill="#08262B" transform="translate(-1334 -1280)" d="M1670.66 1328.85C1674.96 1328.53 1678.09 1328.36 1680.13 1332.52C1678.48 1342.56 1645.16 1358.39 1634.13 1369.36C1616.39 1387 1607.63 1394.95 1593.95 1416.78C1589.82 1416.97 1588.23 1416.5 1585.26 1413.96C1582.51 1405.43 1591.35 1397.47 1596.57 1391.15C1617.57 1365.68 1642.9 1346.26 1670.66 1328.85Z"/><path fill="#08262B" transform="translate(-1334 -1280)" d="M1599.8 1339.72C1603.15 1341.35 1603.07 1341.16 1605.15 1344.51C1605.4 1346.76 1605.76 1348.31 1603.99 1350.22C1590.02 1365.34 1577.78 1381.17 1565.19 1397.43C1559.35 1399.22 1558.72 1392.35 1559.81 1388.92C1564.93 1372.89 1585.9 1348.12 1599.8 1339.72Z"/><path fill="#08262B" transform="translate(-1334 -1280)" d="M1665.04 1382.03C1666.59 1382.16 1667.59 1382.54 1669.11 1382.96C1671.38 1385.51 1670.72 1384.04 1670.98 1387.6C1668.36 1393.47 1661.33 1398.11 1656.14 1401.78C1646.07 1408.9 1638.12 1416.69 1629.51 1425.42C1625.95 1424.74 1625.9 1424.95 1623.15 1422.37C1618.53 1408.05 1653.9 1386.84 1665.04 1382.03Z"/></g></svg>