<?xml version="1.0" encoding="utf-8" ?><svg xmlns="http://www.w3.org/2000/svg" xmlns:xlink="http://www.w3.org/1999/xlink" width="1033" height="811" viewBox="0 0 1033 811"><clipPath id="mascot-celebrating-cl_3b"><rect width="1033" height="811"/></clipPath><g clip-path="url(#mascot-celebrating-cl_3b)"><path fill="#08262B" transform="translate(-1015 0)" d="M1439.06 303.918C1441.24 304.153 1444.57 305.069 1445.54 307.196C1453.28 324.13 1460.32 344.74 1456.2 363.401C1452.44 380.421 1442.02 387.849 1428.85 396.502C1438.07 405.943 1444.01 413.867 1451.81 424.56C1462.59 408.185 1472.11 392.321 1477.02 373.219C1476.83 372.862 1476.64 372.504 1476.45 372.147L1475.53 370.356C1465.39 350.929 1469.95 341.063 1490.65 337.597C1510.06 314.604 1527.3 315.984 1541.7 342.031C1568.59 346.657 1553.46 366.479 1543.47 380.437C1546.54 389.857 1547.35 395.124 1548.88 405.019C1575.32 379.29 1612.18 365.317 1649.1 371.677C1676.73 376.436 1702.25 390.179 1718.29 413.633C1724.01 421.992 1727.8 431.463 1733.72 439.453C1743.58 431.393 1750.72 424.38 1755.99 412.688C1755.89 411.8 1755.8 410.911 1755.72 410.022C1754.53 397.189 1755.36 392.856 1763.6 383.008C1771.01 383.81 1772.4 383.957 1779.38 386.61C1792.4 377.066 1804.39 373.282 1816.33 387.608C1821.17 393.429 1823.41 400.987 1822.5 408.506C1821.31 418.945 1815.93 423.926 1808.73 430.808C1784.93 453.57 1764.3 474.648 1738.31 495.282C1731.19 547.024 1706.58 564.011 1662.88 584.97L1662.64 586.055C1660.07 598.285 1659.18 602.062 1666.05 612.403L1665.65 628.49C1678.35 631.08 1717.06 634.389 1721.79 646.178C1721.39 656.923 1700.92 664.931 1694.96 671.876C1686.2 682.07 1719.56 705.868 1707.78 717.429C1702.66 718 1697.55 717.406 1692.46 716.767C1680.16 715.223 1608.67 707.597 1604.11 701.408C1599.62 695.322 1601.74 685.68 1602.8 678.739L1501.6 670.403C1465.87 669.296 1404.1 673.345 1369.65 678.782C1370.34 684.292 1373.54 700.49 1368.87 702.716C1355.45 709.11 1328.34 709.715 1313.84 711.259C1299.94 712.74 1276.74 718.544 1265.52 716.908C1259.13 708.355 1274.52 684.3 1279.05 675.709C1271.02 665.845 1260.7 660.691 1252.44 651.431C1250.03 648.736 1250.38 647.901 1250.81 645.323C1259.19 635.311 1295.46 631.181 1308.16 629.778C1307.44 620.353 1305.22 609.689 1316.17 605.582C1322.49 603.212 1334.53 601.813 1341.52 600.664C1340.53 595.074 1340.21 589.421 1339.76 583.757C1295.21 574.285 1278.67 549.861 1269.82 507.514C1236.11 498.575 1210.03 482.745 1181.38 463.875C1178.58 462.032 1164.91 458.247 1160.52 456.529C1142.21 449.359 1135.92 434.86 1142.78 416.527C1145.9 408.749 1153.64 404.738 1161.56 401.834L1176.08 405.165C1197.54 384.27 1206.17 408.523 1210.73 427.482C1227.97 442.351 1252.89 455.587 1274.95 461.359C1278.1 450.641 1280.86 441.479 1283.09 430.512C1248.1 438.398 1235.29 423.866 1214.05 398.429C1194.1 374.54 1195.71 370.259 1229.35 362.421C1240.12 359.911 1252.12 361.344 1263.03 364.38C1281.99 369.655 1289.56 384.567 1297.94 400.89C1307.39 385.423 1316.32 368.99 1320.14 351.039C1322.19 341.403 1317.73 326.344 1327.36 320.763C1329.47 320.634 1332.17 320.236 1333.82 322.041C1353.09 343.104 1374.33 357.941 1398.26 373.266C1398.77 368.585 1399.43 363.922 1400.26 359.287C1405.2 332.146 1417.13 319.11 1439.06 303.918ZM1317.81 614.898C1319.73 632.183 1321.81 659.087 1326.6 674.943C1389.48 662.174 1453.71 657.323 1517.79 660.503C1547.84 662.601 1577.83 665.342 1607.76 668.725C1616.2 669.642 1638.39 673.254 1645.3 673.192C1651.08 666.889 1650.65 646.181 1652.71 637.663C1653.75 633.371 1656.6 620.369 1655 616.427C1635.44 604.034 1486.4 596.816 1458.01 598.401C1407.44 602.357 1367.82 605.824 1317.81 614.898ZM1431.66 563.72C1448.01 600.106 1445.08 588.047 1480.57 588.098C1502.23 587.991 1516.95 588.647 1538.55 590.492C1542.06 580.363 1546.27 570.625 1550.4 560.738C1518.4 524.551 1510.93 505.899 1520.22 458.182C1518.02 452.907 1507 425.282 1504.53 422.758C1495.06 437.418 1483.94 455.885 1471.21 467.554C1475.47 511.495 1468.48 537.018 1431.66 563.72ZM1305.58 640.318C1291.77 643.094 1280.09 645.358 1266.58 649.231C1302.4 677.446 1294.8 666.736 1276.06 705.136L1288.84 703.848C1303.96 702.675 1329.24 700.722 1343.94 698.341C1335.24 693.975 1318.88 687.458 1316.23 678.293C1313.24 667.884 1312.63 650.142 1309.01 640.616C1306.83 640.024 1307.6 639.927 1305.58 640.318ZM1707.38 648.769C1693.16 645.567 1678.9 643.264 1664.66 640.201C1659.55 653.204 1660.52 670.215 1654.39 682.56C1651.4 688.59 1636.83 691.963 1634.43 696.395C1639.34 701.038 1680.98 705.084 1689.81 706.388L1694.09 705.831C1698.28 697.802 1677.26 678.375 1682.61 669.311C1687.57 660.929 1699.91 655.08 1707.38 648.769Z"/><path fill="#F5795C" transform="translate(-1015 0)" d="M1513.81 333.91C1532.55 334.045 1522.89 345.344 1532.16 356.467C1536.4 357.784 1537.43 356.07 1542.95 355.335L1544.12 356.547C1544.48 362.142 1537.3 369.169 1533.61 374.894C1533.82 386.009 1539.93 437.973 1552.95 439.006C1559.61 434.617 1556.4 428.033 1554.64 421.551C1565.36 406.856 1577.97 396.636 1594.97 389.843C1618.92 380.314 1645.68 380.723 1669.33 390.979C1697.91 403.412 1711.14 422.35 1722.03 450.349C1717.6 453.652 1707.01 460.163 1709.54 466.492C1726.03 472.759 1760.51 431.065 1767.27 418.129C1767.02 413.594 1764.36 397.107 1770.35 396.805C1784.04 412.823 1785.49 393.049 1798.33 390.901C1803.14 390.095 1810.75 397.182 1810.95 402.862C1811.54 418.921 1794.31 425.85 1784.55 435.53C1780.01 439.988 1776.38 444.172 1772.35 449.018C1765.96 455.856 1759.12 462.254 1751.87 468.169C1743.7 474.884 1722.24 489.699 1717.69 497.432C1717.68 501.485 1718.39 500.952 1721.44 505.068C1722.31 510.083 1719.67 518.829 1717.43 523.323C1701.81 554.598 1680.5 563.7 1650.3 574.768C1649.17 583.528 1648.76 593.495 1648.2 602.394L1628.04 598.457C1628.28 591.007 1629.33 583.079 1625.99 576.504C1619.14 571.648 1593.33 568.427 1584.07 567.237C1578.81 574.714 1576.37 583.439 1573.5 592.074C1566.35 591.543 1559.18 591.109 1552.02 590.771C1562.49 569.378 1571.5 561.329 1552.72 542.819C1529.74 520.182 1524.58 493.582 1534.16 463.163C1530.73 449.13 1524.47 435.615 1520.09 421.827C1517.21 412.774 1501.77 353.327 1502.84 347.652C1504.1 340.937 1508.57 337.705 1513.81 333.91Z"/><path fill="#08262B" transform="translate(-1015 0)" d="M1597.54 441.816C1607.36 442.705 1616.29 447.638 1625.91 450.164C1634.94 452.535 1651.76 453.082 1659.03 459.292C1670.39 468.993 1655.33 483.211 1648.11 490.391C1609.57 514.044 1575.55 472.413 1597.54 441.816Z"/><path fill="#F5795C" transform="translate(-1015 0)" d="M1604.41 455.227C1622.84 462.639 1631.64 464.162 1650.91 466.667C1647.7 472.692 1646.66 474.199 1642.54 479.515C1619.23 497.562 1605.4 479.582 1604.41 455.227Z"/><path fill="#08262B" transform="translate(-1015 0)" d="M1659.7 421.052C1692.11 420.279 1686.25 448.863 1675.25 449.595C1672.04 447.445 1673.39 448.824 1671.57 444.839C1671.48 441.549 1671.7 439.528 1670.36 436.505C1662.7 430.969 1655.01 440.377 1647.79 438.781C1642.71 429.952 1653.7 424.548 1659.7 421.052Z"/><path fill="#08262B" transform="translate(-1015 0)" d="M1602.18 406.054C1632.64 404.758 1627.1 433.483 1615.14 432.407C1612.14 429.564 1613.37 431.238 1612 426.739C1611.6 424.947 1611.18 423.159 1610.76 421.374C1604.15 416.599 1595.56 427.598 1587.98 424.613C1584.47 415.649 1596.13 409.419 1602.18 406.054Z"/><path fill="#43B682" transform="translate(-1015 0)" d="M1354.81 597.903C1352.7 565.957 1352.94 576.284 1325.19 565.192C1309.95 559.101 1294.53 545.218 1288.87 529.717C1286.8 524.062 1283.09 514.025 1285.58 508.041C1286.77 505.551 1286.45 506.882 1286.94 503.652C1283 496.125 1253.92 490.775 1245.08 486.765C1232.21 480.926 1220.51 474.193 1208.51 466.651C1202.46 463.517 1196.94 457.429 1190.6 454.871C1173.82 448.096 1144.09 446.652 1153.93 419.588C1158.36 407.405 1174.79 424.292 1184.83 420.452C1187.56 417.982 1187.62 416.03 1188.57 412.401L1188.94 410.947L1190.51 410.214C1198.28 413.518 1197.23 429.749 1202.12 435.415C1215.52 450.933 1266.17 479.992 1287.96 472.525C1291.59 471.281 1291.84 450.438 1296.13 440.794C1310.6 408.298 1327.52 381.143 1335.46 345.855C1362.57 368.595 1393.61 383.536 1419.2 407.86C1429.84 417.981 1436.72 430.074 1446.24 441.376C1468.29 433.226 1480.74 399.023 1488.08 378.661C1485.41 371.554 1481.83 358.487 1483.77 350.979L1485.32 349.829C1491.01 352.607 1496.06 376.406 1497.34 383.188C1498.55 386.459 1500.35 396.157 1501.16 400.09C1490.47 428.753 1476.1 443.838 1456.59 466.608C1461.81 514.023 1454.47 527.828 1418.36 558.025C1420.87 569.571 1423.53 578.442 1426.98 589.723C1421.17 589.902 1415.52 590.605 1409.74 591.22C1404.04 563.882 1397.73 563.94 1372.02 573.345C1370.51 581.6 1370.2 587.237 1369.88 595.592L1354.81 597.903Z"/><path fill="#52B48C" transform="translate(-1015 0)" d="M1488.08 378.661C1485.41 371.554 1481.83 358.487 1483.77 350.979L1485.32 349.829C1491.01 352.607 1496.06 376.406 1497.34 383.188C1495.86 381.343 1491.94 373.767 1491.14 371.537C1488.09 375.034 1489.25 374.61 1488.08 378.661Z"/><path fill="#08262B" transform="translate(-1015 0)" d="M1396.61 446.004C1419.92 446.77 1407.63 516.746 1355.68 491.924C1333.76 475.72 1331.33 460.479 1361.99 455.292C1373.22 453.393 1385.9 449.93 1396.61 446.004Z"/><path fill="#F5795C" transform="translate(-1015 0)" d="M1393.31 459.281C1397.33 461.931 1395.48 469.466 1393.62 473.047C1390.75 478.556 1385.78 482.674 1379.83 484.47C1372.1 486.785 1367.41 484.51 1360.71 480.941C1356.73 477.519 1353.21 475.995 1354.67 470.728C1361.5 465.12 1381.12 463.286 1391.86 459.764L1393.31 459.281Z"/><path fill="#08262B" transform="translate(-1015 0)" d="M1387.07 410.194C1388.04 410.078 1389.02 409.977 1389.99 409.892C1402.46 408.839 1416.83 420.288 1407.81 429.882C1400.38 430.799 1400.27 425.806 1393.77 421.408C1384.43 425.789 1390.05 434.17 1379.08 435.949C1377.9 435.478 1376.27 435.207 1375.97 434.113C1372.81 422.631 1379.01 415.079 1387.07 410.194Z"/><path fill="#08262B" transform="translate(-1015 0)" d="M1336.57 421.991C1345.5 422.676 1363.8 431.744 1356.79 440.919C1345.66 444.339 1346.93 435.452 1335.76 434.238C1331.09 440.438 1334.46 449.475 1325.77 449.513C1320.82 445.836 1320.97 440.013 1322.71 434.579C1325.04 427.318 1330.21 425.059 1336.57 421.991Z"/><path fill="#43B682" transform="translate(-1015 0)" d="M1220.34 379.863C1245.16 370.65 1261.73 372.318 1278.37 394.131L1273.37 398.448C1265.68 394.972 1260.87 391.652 1252.91 396.425C1249.15 405.06 1272.16 415.22 1278.89 418.849C1243.02 419.136 1237.21 407.901 1220.34 379.863Z"/><path fill="#43B682" transform="translate(-1015 0)" d="M1435.95 324.619C1437.59 325.477 1437.56 325.513 1438.41 327.221C1450.39 351.052 1443.7 371.346 1421.39 383.443C1413.68 383.509 1413.58 369.208 1413.68 363.14C1413.97 345.979 1424.26 335.719 1435.95 324.619Z"/><path fill="#FCFEFD" transform="translate(-1015 0)" d="M1591.21 581.566C1601.06 583.197 1616.28 582.774 1614.75 595.438L1613.13 596.517L1587.17 593.375C1588.25 589.644 1589.91 585.293 1591.21 581.566Z"/><path fill="#FCFEFD" transform="translate(-1015 0)" d="M1385.56 582.853C1389.8 583.11 1392.71 583.242 1395.61 586.77C1395.76 590.646 1396.14 588.763 1393.78 592.441C1388.92 593.088 1386.49 594.229 1383.31 590.139C1383.03 586.721 1383.88 585.848 1385.56 582.853Z"/><path fill="#52B48C" transform="translate(-1015 0)" d="M1278.37 394.131C1280.15 397.628 1281.67 398.934 1281.13 401.981C1277.96 401.676 1276.11 400.138 1273.37 398.448L1278.37 394.131Z"/><path fill="#08262B" transform="translate(-1015 0)" d="M1316.62 170.781C1322.56 171.88 1330.94 174.287 1336.57 176.88C1345.47 180.975 1336.79 192.795 1340.41 198.79C1346.9 209.655 1360.91 216.582 1363.26 229.9C1364.98 239.69 1362 262.425 1349.7 264.489C1330.95 257.588 1322.01 258.165 1330.35 238.57C1332.8 232.806 1317.37 219.688 1313.33 215.095C1300.14 200.117 1301.53 184.022 1316.62 170.781Z"/><path fill="#FAAD2A" transform="translate(-1015 0)" d="M1318.79 180.458C1322.64 181.794 1326.55 183.319 1330.38 184.753C1330.1 189.809 1330.22 195.373 1330.22 200.476C1344.11 221.376 1364.61 224.363 1349.62 254.835L1336.56 250.867C1349.05 209.959 1302.53 224.052 1318.79 180.458Z"/><path fill="#08262B" transform="translate(-1015 0)" d="M1650.38 270.929C1657.73 271.443 1675.3 273.622 1676.95 281.482C1681.49 303.063 1659.41 311.683 1643.69 317.849C1634.44 321.474 1633.51 327.735 1630.57 335.509C1617.5 337.942 1599.99 330.742 1604.98 314.305C1611.69 292.178 1629.79 294.825 1645.48 284.354C1646.81 279.024 1647.26 275.442 1650.38 270.929Z"/><path fill="#43B682" transform="translate(-1015 0)" d="M1655.8 281.361C1660.72 281.937 1664.47 282.415 1667.87 286.238C1671.07 299.36 1639.28 310.609 1629.58 315.077C1627.74 317.863 1625.44 322.838 1623.87 325.968C1619.98 324.944 1615.85 323.548 1611.99 322.328C1624.26 290.811 1643.23 310.346 1655.8 281.361Z"/><path fill="#08262B" transform="translate(-1015 0)" d="M1782.5 493.994C1785.22 493.573 1785.04 493.641 1787.69 494.509C1793.31 499.208 1796.65 510.563 1802.09 514.363C1809.95 519.862 1827.5 518.966 1818.55 535.383C1815.27 541.4 1811.72 547.442 1804.79 549.831C1802.27 549.281 1799.76 548.645 1797.28 547.927C1783.04 543.706 1759.09 526.55 1764.65 508.275C1766.9 500.887 1775.96 497.218 1782.5 493.994Z"/><path fill="#43B682" transform="translate(-1015 0)" d="M1780.89 504.806C1785.8 507.356 1785.01 512.377 1789.79 517.146C1795.8 523.142 1801.98 525.532 1809.53 528.831C1807.34 532.838 1805.17 536.862 1803.04 540.903C1785.43 534.799 1779.19 527.792 1772.44 510.918L1780.89 504.806Z"/><path fill="#08262B" transform="translate(-1015 0)" d="M1776.96 264.652C1791 264.968 1805.91 315.674 1741.31 301.453C1727.79 296.566 1725.87 290.45 1729.07 276.41C1732.46 261.533 1752.45 272.176 1762.53 270.322C1769 269.133 1771.15 267.873 1776.96 264.652Z"/><path fill="#A4A0E1" transform="translate(-1015 0)" d="M1775.65 277.164C1778.54 280.624 1778.9 286.527 1779.51 291.011C1763.13 297.709 1757.16 297.55 1740.34 292.383C1738 290.7 1738.76 291.477 1737.31 288.898C1737.22 284.406 1737 283.874 1738.76 279.903C1739.43 279.415 1740.11 278.927 1740.78 278.439C1756.81 281.138 1760.59 282.819 1775.65 277.164Z"/><path fill="#08262B" transform="translate(-1015 0)" d="M1223.57 288.01C1237.63 286.515 1255.12 292.971 1265.49 302.428C1278.75 314.529 1271.47 324.305 1261.67 334.141C1260.73 334.766 1258.62 335.812 1257.53 336.396C1247.1 336.317 1246.65 326.265 1237.48 322.522C1232.06 320.425 1219.25 322.389 1215.52 317.191C1209.08 308.224 1216.2 293.822 1223.57 288.01Z"/><path fill="#FAAD2A" transform="translate(-1015 0)" d="M1226.76 297.521C1227.48 297.544 1228.2 297.576 1228.92 297.618C1245.88 298.642 1253.56 303.783 1264.45 315.877L1259.1 323.422C1255.57 327.272 1252.61 323.057 1249.88 320.121C1242.82 312.544 1233.42 312.258 1223.4 310.648L1226.76 297.521Z"/><path fill="#08262B" transform="translate(-1015 0)" d="M1244.23 549.074C1255.44 547.068 1269.56 558.216 1268.9 569.816C1268.45 576.276 1259.79 577.379 1255.6 580.915C1246.23 588.813 1248.57 598.738 1238.64 606.322C1232.62 605.851 1229.37 603.047 1224.38 600.27C1196.78 584.875 1230.36 559.464 1244.23 549.074Z"/><path fill="#A4A0E1" transform="translate(-1015 0)" d="M1247.96 558.702L1251.31 559.555C1254.87 562.488 1255.78 565.103 1257.87 569.188C1243.23 576.442 1241.75 580.819 1235.14 595.042C1231.35 592.84 1227.22 590.136 1223.46 587.795C1229.92 571.062 1233.31 567.94 1247.96 558.702Z"/><path fill="#08262B" transform="translate(-1015 0)" d="M1534.81 149.01C1542.44 148.401 1546.83 152.786 1551.13 158.511C1562.85 174.14 1546.21 179.581 1535.45 185.411C1530.14 193.067 1530.12 199.53 1522.45 206.093C1504.27 194.748 1488.78 189.387 1509.69 166.324C1517.39 157.836 1524.07 153.327 1534.81 149.01Z"/><path fill="#FAAD2A" transform="translate(-1015 0)" d="M1537.49 156.953C1539.58 159.374 1543.49 166.159 1545.36 169.195C1539.19 172.427 1533.44 175.07 1528.35 179.962C1524.52 183.648 1522.63 192.351 1519.06 194.249L1509.08 187.092C1515.39 170.335 1522.47 164.764 1537.49 156.953Z"/><path fill="#08262B" transform="translate(-1015 0)" d="M1413.77 224.139C1421.17 224.071 1428.57 225.592 1435.89 226.837C1452.76 242.65 1440.63 265.417 1427.29 278.941C1417.89 283.73 1401.96 277.129 1400.07 266.353C1399.44 262.807 1407.8 254.237 1410.42 250.703C1411.54 242.775 1410.8 230.733 1413.77 224.139Z"/><path fill="#A4A0E1" transform="translate(-1015 0)" d="M1421.17 234.364C1446.68 237.434 1432.58 259.067 1422.87 271.18L1421 271.65C1416.59 270.925 1414.36 269.01 1410.61 266.576C1419.78 254.051 1420.88 249.664 1421.17 234.364Z"/><path fill="#08262B" transform="translate(-1015 0)" d="M1635.47 186.703C1646.64 186.914 1664.25 210.495 1647 216.901C1635.76 221.071 1634.04 234.376 1624.51 242.813C1619.09 240.69 1608.07 232.988 1605.92 227.689C1597.78 207.597 1621.17 193.365 1635.47 186.703Z"/><path fill="#A4A0E1" transform="translate(-1015 0)" d="M1634.54 196.898L1637.35 197.444C1640.96 200.027 1642.11 202.917 1644.32 206.802C1631 214.747 1629.59 216.798 1623.11 230.931C1618.39 228.397 1615.98 226.12 1611.91 222.728C1618.38 208.284 1621.19 205.342 1634.54 196.898Z"/><path fill="#08262B" transform="translate(-1015 0)" d="M1426.15 124.733C1443.56 123.899 1460.32 177.888 1422.15 178.412C1419.13 173.82 1418.42 169.187 1416.25 164.611C1412.37 156.405 1396.34 142.146 1406.68 133.698C1411.01 130.161 1420.99 126.737 1426.15 124.733Z"/><path fill="#43B682" transform="translate(-1015 0)" d="M1427.46 135.111C1433.07 142.491 1439.39 162.862 1429.71 168.917C1426.76 168.135 1428.07 168.914 1426.17 165.698C1422.03 155.025 1419.64 151.33 1412.9 141.975C1417.74 139.761 1422.64 137.386 1427.46 135.111Z"/><path fill="#08262B" transform="translate(-1015 0)" d="M1183.21 503.291C1206.5 501.25 1209.67 526.664 1189.86 536.921C1187.45 538.167 1176.93 547.323 1174.69 549.368L1173.71 550.275L1170.54 550.18C1165.51 547.815 1157.72 538.111 1155.67 533.016C1148.4 514.932 1169.92 508.076 1183.21 503.291Z"/><path fill="#FAAD2A" transform="translate(-1015 0)" d="M1185.96 513.837C1190.08 513.974 1190.95 514.122 1191.74 517.917C1189.37 524.624 1177.94 533.389 1172.17 538.384C1169.25 534.482 1165.89 529.221 1163.1 525.094C1170.37 520.518 1178.12 517.328 1185.96 513.837Z"/><path fill="#08262B" transform="translate(-1015 0)" d="M1238.98 201.637C1256.22 199.698 1286.09 249.973 1252.63 252.165C1248.04 249.27 1243.39 245.621 1238.99 242.761C1212.44 225.524 1219.24 218.983 1238.98 201.637Z"/><path fill="#43B682" transform="translate(-1015 0)" d="M1241.85 212.658C1244.32 214.155 1246.59 215.985 1248.57 218.098C1253.18 223.062 1258 230.377 1257.9 237.395C1256.34 240.602 1257.54 239.68 1254.82 240.958L1252.51 239.708C1244.61 232.668 1239.28 229.754 1230.06 224.752C1233.57 220.886 1238.13 216.458 1241.85 212.658Z"/><path fill="#08262B" transform="translate(-1015 0)" d="M1732.82 564.021C1737.52 564.401 1758.84 574.965 1762.6 578.104C1774.07 587.682 1762.31 600.386 1754.89 608.27C1737.34 612.104 1701.49 581.561 1732.82 564.021Z"/><path fill="#A4A0E1" transform="translate(-1015 0)" d="M1732.92 574.364C1741.28 578.976 1748.97 582.617 1757.57 586.675L1751.91 596.439C1750 598.67 1751.18 598.019 1748.22 598.389C1738.68 594.728 1728.31 585.381 1732.92 574.364Z"/><path fill="#08262B" transform="translate(-1015 0)" d="M1740.01 329.806C1748.38 329.672 1755.79 342.42 1757.03 349.701C1760.05 367.484 1737.38 369.211 1724.96 370.462C1715.27 370.436 1706.47 366.658 1707.09 354.856C1707.75 342.463 1728.84 338.664 1738.88 330.72L1740.01 329.806Z"/><path fill="#FAAD2A" transform="translate(-1015 0)" d="M1740.51 340.91C1743.87 344.486 1745.94 351.256 1747.7 355.993C1738.41 358.824 1732.41 360.06 1722.85 361.669C1719.37 360.349 1718.81 359.964 1717.85 356.796C1720.4 350.755 1734.04 344.611 1740.51 340.91Z"/><path fill="#08262B" transform="translate(-1015 0)" d="M1531.71 236.23C1542.38 234.269 1547.42 243.655 1549.29 252.647C1552.79 269.502 1548.93 281.76 1531.67 285.288C1528.44 284.75 1525.88 284.359 1524.22 281.003C1520.07 272.592 1510.51 254.913 1512.66 245.705C1516.9 240.549 1525.25 238.465 1531.71 236.23Z"/><path fill="#43B682" transform="translate(-1015 0)" d="M1533.29 246.915L1534.74 247.153C1540.69 251.356 1541.07 264.021 1538.62 270.248C1537.35 273.446 1534.49 274.372 1531.63 275.686C1529.45 265.308 1527.68 261.022 1522.61 251.723L1533.29 246.915Z"/><path fill="#08262B" transform="translate(-1015 0)" d="M1717.3 185.959C1725.98 186.114 1732.01 193.105 1736.26 199.983C1745.43 214.803 1726.29 223.819 1716.14 229.652C1711.06 231.462 1702.25 232.904 1699.16 228.125C1689.5 213.204 1707.49 193.131 1717.3 185.959Z"/><path fill="#FAAD2A" transform="translate(-1015 0)" d="M1719.59 196.61C1723.06 199.698 1727.04 204.921 1730.08 208.62L1712.43 220.672L1710.91 221.256C1706.94 220.806 1705.51 219.48 1705.14 215.789C1707.97 209.315 1714.85 202.192 1719.59 196.61Z"/></g></svg>