<?xml version="1.0" encoding="utf-8" ?><svg xmlns="http://www.w3.org/2000/svg" xmlns:xlink="http://www.w3.org/1999/xlink" width="697" height="769" viewBox="0 0 697 769"><clipPath id="mascot-cheering-cl_17"><rect width="697" height="769"/></clipPath><g clip-path="url(#mascot-cheering-cl_17)"><path fill="#01090A" transform="translate(-656 0)" d="M946.912 253.788C972.801 231.734 1002.45 204.879 1019.95 175.51C1024.44 167.976 1029.45 153.208 1036.42 148.609C1038.05 148.361 1040.16 147.966 1041.62 148.852C1051.39 154.792 1056.14 177.779 1062.28 188.753C1081.81 223.651 1108.24 250.182 1127.46 285.391C1139.73 307.859 1145.84 329.238 1156.85 351.661C1165.99 344.376 1175.12 333.232 1181.16 323.22C1171.62 294.188 1172.02 264.817 1211.44 276.681C1213.95 273.46 1218.03 268.332 1221.16 265.899C1227.16 261.234 1234.83 259.284 1242.32 260.518C1267.29 264.642 1290.29 297.538 1285.6 322.891C1281.2 346.707 1260.73 352.687 1245.7 367.406C1237.28 375.645 1229.55 388.007 1221.48 396.861C1203.1 419.405 1189.71 428.095 1166.01 443.254C1155.85 498.324 1147.39 527.478 1101.03 561.253C1104.66 572.003 1108.86 581.934 1113.39 592.305C1129.85 590.827 1155.46 588.731 1164.82 606.514C1182.73 640.518 1123.93 660.819 1100.53 665.678C1089.07 668.058 1077.43 666.619 1070.44 655.954C1056.02 633.737 1043.77 609.468 1031.07 586.145C1006.42 586.864 995.628 586.466 971.49 582.496C957.496 604.218 943.271 638.489 923.156 655.431C918.155 659.643 909.321 660.176 902.949 658.557C880.437 652.559 853.071 642.933 839.267 622.941C829.733 609.133 834.123 595.55 848.469 587.817C863.063 579.95 873.764 581.114 888.895 585.441C892.82 579.296 899.156 563.625 902.618 556.079C859.558 523.957 836.191 482.23 843.899 427.48C818.131 405.147 802.549 384.697 782.117 358.159C773.343 349.983 764.969 345.929 756.137 337.334C725.649 307.663 756.099 253.863 793.969 252.24C804.015 251.809 814.025 261.19 820.624 269.027C858.61 254.659 857.788 289.367 850 314.291C848.574 318.853 859.073 331.167 862.22 335.254C865.317 339.092 868.242 343.006 871.85 346.348L878.08 336.344C890.055 318.145 906.22 296.612 921.98 281.881C862.886 275.583 844.161 244.201 837.147 189.299C836.554 184.655 823.09 167.561 830.379 162.534C838.105 157.205 857.54 158.794 866.979 158.738C922.022 163.064 951.21 202.695 946.912 253.788Z"/><path fill="#3FB584" transform="translate(-656 0)" d="M1037.75 182.607C1040.89 184.775 1052.4 208.813 1056.29 214.39C1083.47 253.414 1113.68 287.026 1129.85 332.839C1133.4 339.617 1138.78 374.586 1145.21 376.532C1163.48 382.066 1194.85 334.558 1199.57 324.256C1197.85 319.061 1196.18 313.85 1194.56 308.624C1193.07 303.681 1191.07 297.689 1193.55 293.022C1200.18 289.029 1204.88 300.106 1210.71 299.739C1223.1 299.187 1224.68 273.825 1238.47 276.795C1254.84 280.319 1271.53 302.503 1268.71 319.46C1265.47 338.92 1246.43 341.563 1235.94 353.044C1213.38 377.721 1194.77 407.025 1164.74 423.451C1159.91 426.084 1154.43 430.103 1149.82 433.39C1142.83 467.566 1138.29 504.043 1112.12 528.697C1102.85 537.428 1092.92 545.223 1083.35 553.724C1083.72 559.482 1084.81 565.42 1086.56 571.056C1089.05 579.063 1097.15 604.701 1103.65 609.785C1115.15 616.245 1132.29 602.753 1143.46 609.777C1163.63 622.468 1133.35 636.447 1123.36 640.718C1111.86 645.644 1102.21 648.713 1090.31 650.158C1070.29 636.184 1061.57 595.914 1046.39 576.764C1036.93 564.832 1025.48 568.508 1012.27 568.578C1006.45 568.608 1000.71 568.238 994.774 567.783C988.706 566.589 971.928 562.8 967.665 564.565C941.16 578.042 937.215 624.587 913.093 640.404C902.464 647.374 856.228 623.686 853.485 612.496C847.054 586.257 893.83 608.414 899.136 603.224C908.673 593.895 919.149 565.539 922.564 552.14L922.902 550.786C912.385 539.264 899.08 532.291 888.85 521.1C860.833 490.45 859.875 459.541 861.288 420.905C860.844 420.33 860.399 419.755 859.954 419.18C848.079 405.547 832.843 395.547 821.104 381.475C811.307 369.73 804.555 355.883 793.63 345.153C786.529 338.207 777.313 335.035 770.015 327.887C763.362 321.978 761.829 316.443 761.152 307.5C760.056 293.023 778.064 269.102 793.102 268.452C802.528 268.044 807.553 282.597 813.23 288.538C819.886 295.505 829.459 283.828 837.066 284.555C838.688 284.682 838.363 284.95 839.54 286.514C839.8 294.096 833.31 306.529 830.049 313.911C836.903 334.608 856.358 362.088 878.143 368.23C882.304 364.326 885.34 360.462 888.239 355.567C897.947 339.17 908.178 324.33 920.592 309.84C934.992 293.238 950.152 277.31 966.023 262.108C996.144 233.517 1014.37 217.909 1037.75 182.607Z"/><path fill="#01090A" transform="translate(-656 0)" d="M979.439 352.091C994.039 351.304 1003.66 355.665 1018.27 357.727C1028.85 359.218 1057.09 349.008 1059.04 367.737C1060.18 378.571 1052.08 388.919 1045.38 396.818C1001.49 426.227 956.475 376.378 979.439 352.091Z"/><path fill="#3FB584" transform="translate(-656 0)" d="M990.769 369.551C1014.19 373.117 1017.63 375.548 1042.22 373.096L1035.81 383.104C1017.38 398.358 1000.24 388.663 990.769 369.551Z"/><path fill="#01090A" transform="translate(-656 0)" d="M1060.6 310.208C1064.58 310.863 1067.53 312.393 1070.53 313.018C1082.38 315.494 1093.87 339.75 1078.9 344.466C1070.1 343.537 1069.1 335.467 1066.89 328.284C1066.14 328.204 1065.39 328.138 1064.64 328.087C1054.42 327.472 1044.69 346.939 1036.92 337.463C1033.56 322.928 1048.3 313.374 1060.6 310.208Z"/><path fill="#01090A" transform="translate(-656 0)" d="M973.033 302.115C987.91 301.382 1005.7 304.894 1004.04 324.91C1003.73 328.68 1001.37 331.413 998.324 333.482C991.267 334.451 990.21 330.374 988.386 324.52L988.002 323.252C981.12 310.93 968.72 331.237 957.67 328.456C950.696 316.531 965.004 307.333 973.033 302.115Z"/><path fill="#3FB584" transform="translate(-656 0)" d="M852.649 176.929C901.045 176.824 929.279 197.939 929.9 248.219C920.173 235.541 908.82 215.489 890.539 218.625C888.327 235.807 906.186 250.491 916.853 262.805C906.049 261.377 896.614 258.705 887.21 253.206C857.921 236.081 860.244 206.158 852.649 176.929Z"/><path fill="#FEF3E1" fill-opacity="0.0078431377" transform="translate(-656 0)" d="M862.22 335.254C867.724 335.742 872.738 337.246 878.08 336.344L871.85 346.348C868.242 343.006 865.317 339.092 862.22 335.254Z"/></g></svg>