<?xml version="1.0" encoding="utf-8" ?><svg xmlns="http://www.w3.org/2000/svg" xmlns:xlink="http://www.w3.org/1999/xlink" width="727" height="706" viewBox="0 0 727 706"><clipPath id="mascot-coin-trail-cl_37"><rect width="727" height="706"/></clipPath><g clip-path="url(#mascot-coin-trail-cl_37)"><path fill="#08262B" transform="translate(-672 -1342)" d="M895.177 1461.75C903.702 1462.84 909.147 1471.06 913.227 1478.1C928.496 1504.46 950.74 1520.15 973.225 1540.5C978.436 1511.72 980.696 1502.37 1005.68 1482.35C1013.54 1476.98 1028.42 1463.7 1038.43 1465.55C1046.08 1468.22 1046.58 1489.04 1047.58 1495.43C1054.32 1538.51 1041.15 1556.1 1003.67 1573.34C1048.04 1624.24 1058.96 1700.91 1010.38 1752.41C997.577 1765.99 984.591 1772.74 968.601 1781.87C1013.54 1800.14 1014.55 1834.02 961.188 1837.32C950.898 1837.95 934.384 1832.67 924.64 1829.16C920.753 1817.39 920.229 1807.12 916.812 1795.43C916.156 1793.18 915.077 1793.35 913.237 1792.8C910.109 1794.14 911.209 1793.04 909.891 1796.25C908.477 1805.4 907.221 1826.18 896.597 1828.88C883.057 1832.24 856.059 1840.16 843.084 1832.6C810.081 1813.36 831.306 1791.29 856.948 1783.93C839.249 1775.15 825.805 1768.08 812.679 1753C778.626 1713.87 788.087 1662.63 809.011 1619.66C811.849 1613.83 822.617 1595.82 822.971 1590.93C822.384 1590.28 821.798 1589.62 821.211 1588.97C816.414 1588.88 809.469 1588.62 804.921 1588.2C797.988 1587.53 791.204 1585.77 784.82 1582.98C763.103 1573.51 752.092 1554.09 744.099 1532.9C742.725 1526.94 735.877 1523.12 733.417 1518C728.825 1508.45 739.101 1502.73 745.991 1500.82C768.505 1494.58 789.555 1493.18 810.61 1504.55C834.119 1517.25 838.026 1535.11 845.042 1558.48C858.914 1539.63 873.312 1519.47 882.155 1497.7C887.189 1485.31 884.658 1470.56 895.177 1461.75Z"/><path fill="#43B682" transform="translate(-672 -1342)" d="M901.922 1494.39C906.549 1498.65 911.186 1505.3 915.822 1510.03C920.888 1515.49 926.012 1521.08 931.563 1526.05C975.027 1564.94 1023.18 1606.76 1025.06 1669.85C1026.19 1707.7 1007.69 1741.79 973.891 1759.62C966.72 1763.4 958.192 1766.08 952.034 1771.29C948.972 1773.81 949.056 1795.45 951.241 1797.01C958.101 1801.92 984.772 1803.7 985.015 1814.11C978.75 1823.38 953.809 1822.01 944.858 1818.37C927.807 1811.44 938.235 1790.37 930.222 1773.75C887.36 1772.21 896.927 1775.62 889.361 1813.98C876.588 1817.33 853.114 1824.85 843.459 1812.3C843.289 1800.31 873.184 1802.35 878.087 1797.31C881.611 1793.69 879.118 1778.66 878.336 1773.22C874.497 1770.98 864.618 1767.14 860.297 1766.01C841.243 1761.01 821.368 1740.27 813.468 1722.01C784.244 1654.44 856.091 1579.82 887.763 1525.43C894.433 1513.97 897.422 1506.62 901.922 1494.39Z"/><path fill="#08262B" transform="translate(-672 -1342)" d="M970.119 1633.83C971.49 1633.92 973.527 1634.26 974.952 1634.45C976.853 1635.87 978.701 1637.06 978.909 1639.64C980.027 1653.54 961.277 1664.32 950.754 1666.36C933.693 1669.68 922.097 1664.73 908.956 1656C904.362 1651.53 898.633 1643.38 904.014 1637.59C927.064 1631.97 925.588 1674.2 970.119 1633.83Z"/><path fill="#08262B" transform="translate(-672 -1342)" d="M964.969 1595.49C970.653 1594.76 975.899 1598.65 976.848 1604.3C977.797 1609.96 974.11 1615.35 968.498 1616.51C964.672 1617.31 960.718 1615.95 958.193 1612.96C955.667 1609.98 954.974 1605.86 956.387 1602.21C957.8 1598.57 961.093 1595.99 964.969 1595.49Z"/><path fill="#08262B" transform="translate(-672 -1342)" d="M911.932 1599.5C917.678 1598.49 923.152 1602.34 924.142 1608.09C925.131 1613.84 921.258 1619.3 915.503 1620.26C909.781 1621.22 904.359 1617.38 903.375 1611.66C902.392 1605.94 906.217 1600.5 911.932 1599.5Z"/><path fill="#43B682" transform="translate(-672 -1342)" d="M767.559 1514.27C800.398 1510.45 817.656 1525.23 827.42 1555.57C820.213 1549.81 796.425 1530.49 789.81 1543.97C790.152 1547.73 791.524 1549.04 793.696 1552.14C801.78 1559.4 810.251 1563.94 818.707 1572C775.178 1568.98 771.099 1553.19 756.467 1516.66C759.858 1515.64 764.033 1514.96 767.559 1514.27Z"/><path fill="#43B682" transform="translate(-672 -1342)" d="M1027.15 1487.82L1028.57 1488.65C1037.56 1517.55 1034.42 1535.43 1009.04 1553.09C1012.3 1545.01 1024.34 1522.43 1012.61 1518.43C997.885 1525.93 996.794 1537.81 993.439 1552.45C990.258 1517.47 999.623 1506.25 1027.15 1487.82Z"/><path fill="#08262B" transform="translate(-672 -1342)" d="M1298.1 1678.62C1314.14 1676.13 1329.14 1687.2 1331.48 1703.27C1333.82 1719.33 1322.61 1734.23 1306.52 1736.42C1290.64 1738.59 1275.98 1727.55 1273.67 1711.69C1271.36 1695.83 1282.26 1681.07 1298.1 1678.62Z"/><path fill="#74BDF6" transform="translate(-672 -1342)" d="M1297.5 1692.53C1305.86 1689.74 1314.89 1694.28 1317.66 1702.65C1320.42 1711.02 1315.86 1720.04 1307.48 1722.78C1299.14 1725.51 1290.16 1720.97 1287.41 1712.63C1284.65 1704.29 1289.17 1695.3 1297.5 1692.53Z"/><path fill="#08262B" transform="translate(-672 -1342)" d="M1205.37 1774.88C1221.27 1773.92 1234.98 1785.95 1236.11 1801.84C1237.24 1817.73 1225.37 1831.58 1209.49 1832.88C1199.06 1833.73 1188.98 1828.92 1183.09 1820.27C1177.2 1811.63 1176.41 1800.48 1181.02 1791.09C1185.63 1781.7 1194.92 1775.51 1205.37 1774.88Z"/><path fill="#74BDF6" transform="translate(-672 -1342)" d="M1201.71 1789.53C1210.01 1786.66 1219.06 1791.08 1221.89 1799.39C1224.73 1807.71 1220.26 1816.73 1211.94 1819.53C1203.67 1822.31 1194.71 1817.88 1191.9 1809.62C1189.08 1801.36 1193.47 1792.38 1201.71 1789.53Z"/><path fill="#08262B" transform="translate(-672 -1342)" d="M1072.3 1775.83C1087.6 1771.23 1103.75 1779.84 1108.45 1795.11C1113.15 1810.37 1104.65 1826.57 1089.41 1831.38C1074.03 1836.22 1057.65 1827.62 1052.9 1812.21C1048.16 1796.8 1056.86 1780.47 1072.3 1775.83Z"/><path fill="#74BDF6" transform="translate(-672 -1342)" d="M1075.3 1789.51C1083.55 1786.67 1092.54 1791.06 1095.36 1799.32C1098.18 1807.58 1093.75 1816.56 1085.49 1819.35C1077.26 1822.13 1068.33 1817.72 1065.53 1809.51C1062.72 1801.29 1067.09 1792.35 1075.3 1789.51Z"/><path fill="#08262B" transform="translate(-672 -1342)" d="M1141.45 1731.31C1156.8 1729.16 1193.66 1745.4 1187.97 1763.36C1180.64 1767.92 1167.57 1752.27 1159.33 1748.79C1152.25 1745.8 1152.57 1745.91 1145.08 1744.72C1120.27 1743.75 1115.14 1764.2 1102.87 1765.32C1099.24 1763.67 1100.73 1764.88 1098.42 1761.33C1096.45 1745.99 1128.01 1733.06 1141.45 1731.31Z"/><path fill="#08262B" transform="translate(-672 -1342)" d="M1254.76 1720.63C1258.45 1720.29 1260.58 1720.56 1262.82 1723.48C1262.46 1732.85 1244.99 1740.34 1239.91 1746.05C1236.67 1749.7 1233.86 1758.66 1229.02 1764.71C1224.59 1764.58 1224.04 1764.84 1220.8 1762.12C1214.21 1747.54 1243.8 1726.48 1254.76 1720.63Z"/><path fill="#08262B" transform="translate(-672 -1342)" d="M1041.31 1738.45C1054.16 1740.29 1073.87 1753.02 1064.85 1768.56C1064.85 1768.56 1062.27 1768.26 1061.93 1768.04C1054.53 1763.45 1043.2 1753.94 1039.76 1746.01C1038.66 1743.48 1040.38 1740.39 1041.31 1738.45Z"/></g></svg>