<?xml version="1.0" encoding="utf-8" ?><svg xmlns="http://www.w3.org/2000/svg" xmlns:xlink="http://www.w3.org/1999/xlink" width="679" height="614" viewBox="0 0 679 614"><clipPath id="mascot-holding-sign-cl_1b"><rect width="679" height="614"/></clipPath><g clip-path="url(#mascot-holding-sign-cl_1b)"><path fill="#01090A" transform="translate(-1308 -763)" d="M1588.24 793.579C1603.26 794.96 1608.68 816.025 1619.28 826.813C1645.25 853.265 1674.93 873.874 1702.34 898.965C1704.92 864.716 1703.99 792.166 1755.23 797.164C1815.01 802.994 1875.5 809.072 1934.84 818.362C1939.29 819.059 1948.1 821.83 1951.21 825.32C1965.26 843.704 1963.3 869.533 1960.46 891.128C1957.12 912.831 1957.2 935.552 1950.24 956.494C1939.24 989.549 1904.44 981.696 1878.05 978.951L1844.52 975.685C1844.02 982.593 1843.05 988.605 1841.99 995.438C1865.61 1015.36 1868.09 1042.24 1854.52 1069.57C1849.26 1080.17 1840.7 1083.28 1830.02 1086.26C1829.84 1088.4 1828.73 1097.09 1828.86 1099.81C1829.96 1123.05 1812.84 1134.89 1792.57 1122.21C1785.35 1117.69 1786.38 1106.53 1787.03 1097.8C1781.32 1099.34 1775.59 1100.83 1769.86 1102.28C1769.69 1102.95 1769.52 1103.62 1769.34 1104.28C1755.46 1156.67 1733.73 1175.66 1688.62 1201.69L1686.26 1237.32C1707.06 1244.55 1744.25 1266.2 1712.15 1290.5C1698.93 1300.51 1672.3 1297.1 1656.43 1293.59C1640.45 1288.32 1634.49 1287.32 1630.25 1269.45C1627.77 1259.03 1629.69 1228.58 1624.55 1221.63C1620.91 1219.99 1622.8 1220.3 1618.64 1220.91C1609.36 1227.86 1614.95 1262.55 1608.06 1277.01C1593.01 1308.62 1498.26 1311.61 1521.14 1260.25C1526.21 1248.88 1542.33 1244.15 1553.19 1241.27C1552.23 1230.63 1551.56 1221.7 1549.35 1211.19C1535.31 1205.7 1526.07 1200.53 1512.97 1193.25C1498.9 1206.31 1483.48 1211 1465 1204.96C1443.09 1197.8 1439.29 1185.16 1445.73 1165.04C1372.67 1122.56 1405.89 1059.96 1467.63 1029.08C1475.07 1002.83 1488.45 977.872 1501.15 953.809C1443.16 960.898 1418.26 938.113 1397.89 887.229C1395.69 881.734 1377.96 870.697 1385.17 861.698C1392.32 852.776 1410.94 851.596 1421.61 848.751C1472.56 839.33 1514.26 872.145 1520.88 920.612C1538.67 895.632 1557.16 872.185 1570.7 844.322C1579.84 825.506 1575.86 805.633 1588.24 793.579ZM1802.7 970.223C1785.12 967.936 1767.53 965.83 1749.91 963.906C1752.35 971.9 1757.47 983.283 1760.71 991.619C1764.15 1000.5 1767.12 1013.11 1770.46 1021.09C1780.43 1017.7 1784.69 1015.83 1793.21 1009.5C1800.5 1000.5 1802.47 981.558 1802.7 970.223ZM1812.63 1111.08C1814.2 1101.06 1815.63 1091.01 1816.91 1080.94C1812.59 1079.31 1808.25 1077.58 1803.84 1076.25C1802.76 1084.55 1794.52 1119.34 1812.63 1111.08ZM1813.86 997.798C1817.41 996.49 1821.28 995.169 1824.73 993.68C1829.3 990.77 1829.36 979.733 1830.36 974.068L1818.18 973.183C1816.55 981.354 1815.11 989.561 1813.86 997.798Z"/><path fill="#3FB584" transform="translate(-1308 -763)" d="M1595.79 826.568C1604.3 834.469 1612.29 845.498 1621.08 853.209C1643.72 873.054 1670.06 891.833 1690.65 913.735C1709.88 934.181 1697.43 944.099 1725.82 959.932C1738.15 982.4 1745.96 1003.94 1754.19 1028.05C1758.71 1041.32 1778.39 1034.91 1788.03 1032.03C1787.28 1052.17 1791.95 1054.78 1788.74 1079.29C1778.37 1081.81 1768.81 1083.6 1758.55 1086.89C1751.69 1097.39 1749.41 1110.37 1745.17 1122.03C1738.08 1141.52 1724.11 1158.35 1707.22 1170.2C1697.47 1177.05 1685.34 1181.29 1677.84 1190.83C1673.53 1196.31 1671.4 1203.92 1670.56 1210.81C1669.89 1221.52 1668.95 1233.35 1669.61 1244.02C1670.44 1257.4 1692.25 1255.73 1700.21 1262.35C1704.49 1265.92 1704.95 1268.3 1705.71 1273.5C1699.58 1287.25 1662.1 1278.46 1651.04 1273.82C1639.43 1254.03 1650.39 1226.17 1639.11 1206.13C1636.39 1196.92 1605.08 1201.07 1602.83 1205.14C1594.92 1219.43 1594.11 1257.77 1592.68 1273.78C1581.24 1278.83 1540.42 1291.17 1534.11 1275.47C1534.65 1269.24 1538.42 1266.81 1543.01 1262.8C1561.1 1252.9 1573.27 1261.68 1570.22 1231.54C1568.96 1219.09 1568.46 1210.81 1563.14 1199.05C1547.73 1190.81 1537.31 1188.91 1522.7 1177.75C1534.25 1135.95 1515.34 1123.65 1484.25 1102.57C1490.29 1099.68 1496.79 1096.68 1498.95 1089.93C1497.91 1084.94 1494.64 1083.78 1489.72 1083.92C1479.76 1084.22 1467.09 1091.93 1468.15 1103.29C1469.74 1120.36 1489.81 1122.74 1499.99 1133.25C1506.65 1140.04 1510.49 1146.13 1510.32 1155.96C1510.2 1167.8 1505.16 1178.33 1496.89 1186.55C1486.64 1196.74 1464.65 1191.48 1456.48 1181.17C1455.44 1171.41 1474.23 1175.43 1479.78 1167.47C1479.35 1164.25 1477.89 1161.24 1475.15 1159.68C1461.1 1151.92 1446.99 1148.1 1434.89 1136.88C1401.06 1105.51 1435.36 1064.63 1466.23 1048.94C1474.81 1044.58 1485.22 1041.36 1492.35 1034.97C1494.42 1033.11 1494.35 1031.27 1494.28 1028.83C1493.58 1027.81 1491.42 1024.4 1490.94 1023.58C1488.61 1017.58 1496.64 1003.74 1498.93 998.6C1518.93 953.634 1548.9 915.866 1574.61 874.41C1583.91 859.427 1590.18 843.315 1595.79 826.568Z"/><path fill="#01090A" transform="translate(-1308 -763)" d="M1673.24 986.747C1676.1 987.026 1680.58 987.765 1681.22 990.872C1684.29 1005.81 1658.69 1017.97 1648.04 1021.26C1622.01 1029.3 1599.86 1024.35 1576.61 1012.43C1571.29 1008.5 1568.39 1004.56 1570.95 997.858C1572.79 996.468 1577.35 995.486 1579.22 996.648C1614.32 1018.37 1644.4 1015.15 1673.24 986.747Z"/><path fill="#01090A" transform="translate(-1308 -763)" d="M1650.83 948.504C1654.97 946.97 1659.61 947.792 1662.97 950.653C1666.33 953.515 1667.88 957.969 1667.02 962.298C1666.17 966.627 1663.04 970.155 1658.84 971.521C1652.53 973.576 1645.74 970.206 1643.55 963.938C1641.37 957.671 1644.61 950.811 1650.83 948.504Z"/><path fill="#01090A" transform="translate(-1308 -763)" d="M1590.35 954.461C1596.64 952.851 1603.09 956.472 1604.99 962.685C1606.9 968.898 1603.58 975.511 1597.47 977.705C1593.25 979.219 1588.54 978.289 1585.21 975.284C1581.88 972.28 1580.47 967.689 1581.55 963.335C1582.62 958.982 1586 955.572 1590.35 954.461Z"/><path fill="#FEF3E1" transform="translate(-1308 -763)" d="M1742.92 812.192C1759.01 810.974 1803.19 816.774 1820.61 818.646C1844.28 821.103 1867.92 823.836 1891.53 826.846C1901.1 828.079 1938.7 831.279 1943.3 840.012C1953.92 860.195 1945.73 889.001 1943.08 910.475C1940.44 931.903 1943.5 954.473 1922 966.808C1897.06 967.786 1871.04 963.008 1846.28 960.168C1810.08 956.014 1772.95 952.744 1737.23 945.571C1730.6 944.24 1724.25 941.974 1720.53 935.856C1709.99 918.521 1723.91 845.075 1729 822.713C1733.73 817.252 1736.78 815.48 1742.92 812.192Z"/><path fill="#3FB584" transform="translate(-1308 -763)" d="M1435.5 865.419C1474.5 862.626 1492.72 886.101 1502 919.994C1491.23 910.51 1471.34 893.595 1456.13 901.033C1450.87 908.708 1462.31 915.256 1468.04 918.895C1476.6 923.85 1485.2 930.398 1492.71 936.819C1473.99 937.51 1455.06 937.608 1440.25 924.015C1424.81 909.834 1421.1 888.773 1409.61 871.884L1408.77 870.671C1418.52 867.459 1425.38 866.439 1435.5 865.419Z"/><path fill="#3FB584" transform="translate(-1308 -763)" d="M1822.52 1011.08C1850.85 1011.69 1850.97 1033.98 1843.55 1056.8C1841.44 1063.3 1835.69 1067.66 1829.27 1069.81C1798.61 1061.14 1793.86 1026.09 1822.52 1011.08Z"/><path fill="#01090A" transform="translate(-1308 -763)" d="M934.061 793.645C934.503 793.801 934.94 793.969 935.373 794.148C950.983 800.524 955.526 819.957 966.596 829.014C1031.41 882.041 1075.97 918.371 1109.54 997.973C1126.7 994.139 1144.85 987.479 1162.48 983.307C1164.48 978.388 1167 973.692 1169.98 969.295C1186.8 944.832 1203.93 946.942 1225.29 963.259C1243.63 955.084 1269.97 946.779 1289.9 953.665C1299.7 957.049 1308.41 964.858 1303.58 975.967C1297.1 990.866 1281.7 996.741 1267.92 1002.85C1270.96 1017.3 1271.2 1033.3 1264.96 1047.26C1260.46 1057.32 1249.86 1064.75 1238.56 1065.53C1234.74 1065.6 1229.82 1063.85 1226.13 1063.96C1207.3 1064.48 1201.12 1066.02 1183.95 1056.78C1162.95 1064.38 1141.5 1072.46 1120.21 1079.05C1106.7 1146.62 1093.68 1165.47 1034.96 1201.34C1033.47 1213.02 1032.38 1225.62 1031.39 1237.36C1044.4 1243 1071.73 1255.23 1069.09 1273.63C1062.99 1302.72 1025.5 1298.1 1004.78 1293.99C956.597 1284.43 983.725 1241.49 968.05 1217.69C960.876 1218.99 959.802 1223.96 959.126 1230.06C955.512 1262.63 963.221 1294.13 919.536 1297.12C908.8 1298.9 888.946 1302.74 879.056 1296.26C841.985 1271.97 875.021 1248.14 900.687 1240.25C899.472 1230.96 898.106 1219.7 895.424 1210.89C879.892 1203.66 873.249 1201.44 858.061 1192.16C848.134 1201.77 837.696 1208.25 823.459 1206.93C799.129 1204.66 790.128 1194.28 792.576 1171.17L789.188 1169.7C768.061 1160.42 745.411 1148.87 737.454 1125.82C719.957 1075.12 778.493 1031.64 817.697 1016.72C828.759 991.232 832.307 979.921 846.091 953.903C801.825 960.104 771.459 947.653 750.971 906.134C747.483 899.065 744.866 891.542 741.493 884.452C739.513 880.287 731.988 875.926 730.121 871.185C725.337 857.492 742.619 854.674 751.564 852.308C809.87 836.886 852.432 860.866 866.093 920.118C882.733 901.032 908.738 861.555 918.257 837.894C924.282 822.916 921.046 803.321 934.061 793.645Z"/></g></svg>