<?xml version="1.0" encoding="utf-8" ?><svg xmlns="http://www.w3.org/2000/svg" xmlns:xlink="http://www.w3.org/1999/xlink" width="733" height="778" viewBox="0 0 733 778"><clipPath id="mascot-jumping-cl_12"><rect width="733" height="778"/></clipPath><g clip-path="url(#mascot-jumping-cl_12)"><path fill="#062025" transform="translate(-1284 -33)" d="M807.702 884.215C828.876 856.982 849.35 814.882 859.138 781.79C862.087 771.822 860.302 724.299 882.426 743.245C891.266 750.815 900.688 767.835 909.778 776.628C930.083 796.27 954.799 820.472 978.739 835.243C983.027 805.501 987.387 788.336 1013.52 768.603C1027.89 759.776 1049.87 743.002 1066.9 742.788C1076.04 743.777 1072.94 760.805 1074.12 766.632C1085.64 823.603 1073.02 854.448 1019.35 878.662C1032.67 896.8 1039.37 907.992 1049.87 927.481C1121.11 872.168 1214.57 864.91 1291.77 913.208C1293.42 914.242 1297.86 920.58 1300.32 922.894C1305.29 926.408 1312.29 931.663 1316.37 936.204C1341.62 947.826 1366.07 990.735 1375.32 1015.62C1394.78 1068.11 1392.62 1126.17 1369.31 1177.07C1346.12 1226.98 1301.14 1266.34 1249.58 1284.78C1198.42 1302.9 1142.18 1300.15 1093.02 1277.14C1073.11 1267.68 1050.9 1253.25 1035.43 1237.5C1029.72 1231.54 1024.09 1225.5 1018.52 1219.41C1010.46 1209.06 1005.03 1200.98 998.405 1189.63C996.736 1200.58 995.291 1211.56 994.071 1222.56C997.558 1223.88 1002.2 1225.84 1005.7 1226.72C1015.57 1231.83 1020.07 1234.17 1028.24 1241.89L1029.07 1242.81C1032.95 1247.2 1035.84 1251.13 1035.11 1257.23C1030.57 1295.04 982.648 1286.4 957.134 1282.4C930.273 1300.15 894.658 1299.95 865.651 1285.21C848.681 1276.58 857.696 1244.49 857.252 1229.39C856.903 1217.48 855.38 1207.62 852.76 1195.39C844.44 1192.02 832.998 1187.47 825.25 1183.44C792.748 1166.51 765.604 1134.4 754.864 1099.35C736.381 1039.02 754.378 981.596 782.098 928.059C763.266 930.335 749.203 930.828 730.91 924.347C711.681 917.393 695.72 903.545 686.125 885.488C682.856 879.239 678.465 867.441 674.906 862.325C662.255 844.139 641.231 835.978 675.131 824.094C704.372 813.844 734.661 811.647 763.263 826.136C787.098 838.21 799.799 859.436 807.702 884.215ZM932.093 1234.04C934.322 1226.44 937.869 1207.17 930.053 1201.97C927.444 1201.89 926.082 1201.81 923.458 1202.06C923.291 1211.3 920.542 1224.93 924.029 1231.47C926.561 1233.48 928.862 1233.49 932.093 1234.04Z"/><path fill="#062025" transform="translate(-1284 -33)" d="M1491.89 236.781C1498.71 236.357 1507.01 240.068 1513.42 242.276C1533.12 249.103 1550.81 256.7 1565.63 271.839C1583.83 290.418 1585.55 310.694 1585.22 335.458C1623.31 310.685 1655.22 282.589 1683.65 247.802C1686.82 243.911 1697.55 240.637 1699.78 246.255C1705.3 260.166 1703.36 278.03 1708.81 292.596C1715 311.668 1722.03 326.927 1732.39 344.107C1746.89 277.539 1810.26 257.527 1868.79 284.008C1875.51 290.229 1870.16 296.985 1865.18 302.193C1860.08 307.503 1856.2 316.888 1853.36 323.694C1833.61 371.058 1800.89 387.856 1750.47 379.729C1766.68 411.855 1773.81 426.44 1785.6 460.47C1813.69 440.64 1800.42 439.617 1810.68 411.066C1815.94 396.454 1830.08 402.915 1838.98 409.946C1840.12 409.09 1841.27 408.257 1842.44 407.449C1882.72 379.783 1914.04 439.572 1882.54 469.385C1869.35 480.837 1857.12 484.657 1844.54 497.812C1830.15 512.859 1810.98 528.889 1793.63 539.641L1793.67 541.647C1794.76 592.281 1769.53 620.257 1737.66 653.56C1744.36 667.266 1748.08 678.247 1752.67 692.582L1753.74 692.254L1755.52 691.734C1762.01 689.804 1762.89 689.732 1769.51 689.305C1785.33 689.816 1803.95 695.33 1804.42 714.814C1805.12 743.699 1742.95 776.304 1720.42 759.327C1714.49 754.859 1701.47 728.677 1696.02 720.529C1686.66 706.514 1676.69 693.228 1665.06 680.48C1634.76 685.573 1600.77 679.121 1572.79 667.15C1560.02 678.146 1546.8 688.908 1535.25 701.557C1527.35 710.198 1512.17 737.007 1501.43 739.629C1477.48 745.477 1437.48 717.804 1429.57 695.205C1424.37 680.349 1429.47 667.867 1444.59 663.735C1458.92 659.815 1469.86 661.175 1482.72 668.26C1491.25 649.582 1498.57 639.78 1513.34 625.664L1512.77 624.859C1487.97 589.295 1474.09 554.735 1481.88 510.667C1471.89 502.073 1457.04 489.933 1449.38 479.744C1444.86 473.724 1441.5 464.148 1435.6 457.315C1422.42 441.909 1403.62 431.622 1398.89 410.392C1394.59 391.076 1406.78 366.978 1427.17 362.85C1437.7 360.719 1448.75 368.609 1457.08 374.632C1462.9 373.541 1468.94 372.004 1474.85 373.392C1492.21 377.47 1490.3 399.923 1486.37 413.542C1491.82 420.973 1496.44 426.573 1502.46 433.59C1518.46 408.084 1528.85 392.265 1548.51 369.338C1508.25 352.966 1484.52 333.484 1484.91 286.526C1485.03 272.1 1487.06 260.201 1485.38 245.626C1487.46 241.994 1489.22 240.044 1491.89 236.781Z"/><path fill="#3EB682" transform="translate(-1284 -33)" d="M1685.47 275.829C1687.62 280.237 1691.13 294.187 1692.73 299.643C1696.19 311.559 1700.44 323.23 1705.45 334.58C1718.1 362.788 1734.42 388.96 1748.08 416.708C1757.59 436.028 1763.19 452.429 1769.09 472.833C1761.65 476.604 1752.74 481.859 1754.36 491.799C1767.08 505.823 1821.61 460.687 1822.93 443.55C1823.53 435.889 1823.3 429.348 1824.53 421.436C1841.62 438.917 1844.06 429.422 1860.14 418.525C1866.58 414.163 1875.95 425.711 1876.76 432.063C1879.93 457.109 1863.72 463.028 1845.54 473.341C1828.99 486.713 1817.91 500.447 1800.59 513.579C1790.73 521.061 1772.02 527.759 1764.44 536.779C1760.05 542.008 1770.94 547.534 1775.29 549.61C1773.72 578.095 1759.27 608.24 1738.47 627.622C1729.05 636.404 1721.85 637.316 1713.72 649.649C1718.71 662.657 1730.78 680.799 1732.68 691.433C1739 726.849 1748.96 711.446 1773.41 707.644C1778.38 706.872 1784.94 710.638 1786.74 716.626C1785.07 730.481 1749.65 746.99 1736.76 746.593C1728.87 746.35 1719.68 724.9 1715.91 718.351C1709.19 706.539 1701.61 695.23 1693.25 684.514C1685.58 674.52 1674.11 660.042 1660.61 662.336C1645.34 664.932 1639.35 664.878 1623.77 662.805C1609.51 660.801 1585.47 653.316 1570.83 649.112C1555.15 656.703 1530.84 679.021 1519.33 692.584C1510.15 703.392 1505.7 714.792 1493.06 723.861C1479.71 720.081 1444.78 702.005 1445.47 686.604C1452.52 670.113 1476.22 687.446 1489.21 690.152C1496.67 681.324 1503.53 668.266 1510.2 658.429C1517.87 647.126 1527.23 636.774 1533.14 624.568C1527.59 610.937 1516.77 599.359 1509.52 585.913C1494.02 557.174 1501.28 530.045 1497.68 503.619L1497.44 501.985C1489.22 492.886 1478.9 486.133 1470.9 476.22C1457.87 460.869 1450.03 441.87 1433.03 429.927C1417.18 418.792 1406.96 395.865 1426.72 382.2C1438.13 374.304 1446.15 395.98 1455.29 397.654C1460.6 398.626 1464.27 395.558 1468.76 392.67L1470.37 393.192C1472.7 397.856 1469.51 408.389 1468.33 413.812C1472.98 425.944 1479.69 437.188 1488.14 447.055C1492.43 452.12 1499.92 460.276 1506.89 460.701C1509.92 460.886 1511.05 460.158 1512.86 457.435C1517.63 450.263 1521.19 441.453 1525.24 433.628C1533.51 417.638 1542.54 405.695 1554.05 392.042C1580.41 360.757 1613.73 338.28 1645.3 312.864C1659.21 301.668 1672.8 288.448 1685.47 275.829Z"/><path fill="#062025" transform="translate(-1284 -33)" d="M1599.39 431.997C1614.18 431.086 1625.23 437.789 1639.43 439.382C1654.43 441.065 1686.49 430.95 1686.88 455.456C1687.07 467.341 1677.35 477.136 1669.34 484.757C1657.82 492.243 1647.06 496.113 1632.5 494.777C1610.13 492.725 1588.04 469.793 1590.11 446.707C1590.74 439.581 1593.87 436.239 1599.39 431.997Z"/><path fill="#062025" transform="translate(-1284 -33)" d="M1680.72 390.044C1688.59 390.069 1696.98 391.681 1703.13 396.943C1707.65 400.834 1710.37 406.415 1710.66 412.375C1710.92 419.194 1708.15 425.959 1700.2 425.051C1695.46 422.046 1695.04 419.021 1693.76 413.607L1693.46 412.275C1681.69 400.361 1676.9 417.637 1665.79 418.988C1662.49 417.652 1661.81 417.08 1660.26 413.812C1654.67 402.058 1672.67 393.275 1680.72 390.044Z"/><path fill="#062025" transform="translate(-1284 -33)" d="M1602.75 378.11C1612.59 379.437 1621.58 382.673 1626.69 391.918C1630.33 398.508 1630.92 408.966 1622.85 412.53C1613.99 412.895 1612.55 404.951 1610.02 398.154C1598.08 393.521 1595.12 408.069 1583.71 407.465C1581.11 405.609 1581.45 406.411 1580.29 403.142C1579.17 399.972 1579.47 396.473 1581.11 393.539C1586.66 383.815 1592.83 381.065 1602.75 378.11Z"/><path fill="#3EB682" transform="translate(-1284 -33)" d="M1807.6 292.198C1823.74 291.24 1831.07 292.466 1846.78 295.759C1823.43 337.912 1821.79 366.47 1762.4 363.448C1766.02 359.719 1771.36 355.055 1775.3 351.434C1780.67 348.098 1798.62 337.955 1798.78 334.644C1800.14 305.761 1757.25 341.427 1752.78 345.184C1762.51 312.903 1774.66 299.88 1807.6 292.198Z"/><path fill="#3EB682" transform="translate(-1284 -33)" d="M1504.26 258.931C1553.01 277.019 1569.67 288.057 1567.56 342.5C1558.85 327.349 1556.15 318.982 1541.54 308.744C1519.72 310.793 1546.35 343.407 1551.14 350.476C1500.73 328.53 1501.28 309.344 1504.26 258.931Z"/><path fill="#FB8062" transform="translate(-1284 -33)" d="M1379.56 282.044C1397.95 284.935 1412.44 295.07 1426.22 307.035C1438.14 317.389 1429.11 322.672 1420.66 330.287C1418.52 332.045 1419.41 331.447 1416.5 332.184C1411.91 331.198 1409.14 326.324 1403.12 322.879C1394.75 317.38 1378.54 316.035 1371.26 309.645C1366.15 305.158 1374.78 285.919 1379.56 282.044Z"/><path fill="#FB8062" transform="translate(-1284 -33)" d="M1826.47 583.654C1840.1 584.334 1866.43 609.865 1867.33 624.458C1867.65 629.614 1857.78 635.721 1853.65 638.713C1849.13 641.602 1847.78 642.934 1842.58 641.062C1840.08 638.474 1838.45 635.036 1837.57 631.541C1832.36 610.956 1800.12 605.069 1826.47 583.654Z"/><path fill="#FB8062" transform="translate(-1284 -33)" d="M1528.28 138.18C1535.77 137.648 1541.33 141.641 1544.19 148.31C1555.05 173.653 1557.17 181.326 1533.07 192.608C1531.73 192.742 1530 192.689 1528.62 192.697C1521.46 188.065 1524.56 177.225 1521.67 173.596C1506.82 154.937 1503.65 150.97 1528.28 138.18Z"/><path fill="#72C4E4" transform="translate(-1284 -33)" d="M1917.15 344.386C1925.49 343.508 1934.72 343.124 1937.23 353.636C1943.96 381.817 1920.03 370.917 1902.17 374.508L1900.71 374.811L1899.71 375.19C1897.87 375.862 1896.02 376.548 1894.2 377.226C1889.33 379.039 1880.81 373.626 1880.39 368.432C1878.95 350.699 1904.55 346.813 1917.15 344.386Z"/><path fill="#F8A61E" transform="translate(-1284 -33)" d="M1850.31 174.11C1857.91 175.879 1861.85 181.285 1865.12 188.164C1871.3 201.133 1847.43 204.492 1842.2 212.264C1839.35 216.516 1837.94 222.23 1836.2 227.156C1801.96 221.557 1824.86 183.353 1850.31 174.11Z"/><path fill="#F8A61E" transform="translate(-1284 -33)" d="M1431.83 539.495C1437.97 540.77 1439.1 544.387 1442.1 549.398C1455.65 572.091 1428.11 584.726 1411.63 592.422C1406.04 588.784 1401.63 583.601 1399.43 577.195C1393.75 560.607 1413.14 563.061 1421.86 555.587C1426.43 551.668 1429.11 544.999 1431.83 539.495Z"/><path fill="#72C4E4" transform="translate(-1284 -33)" d="M1610.17 180.059C1627.07 188.887 1638.76 242.363 1607.36 238.395C1599.84 231.952 1603.03 225.823 1604.52 217.073C1592.9 194.725 1581.81 196.251 1610.17 180.059Z"/><path fill="#F8A61E" transform="translate(-1284 -33)" d="M1892.39 508.787C1893.19 508.806 1893.99 508.843 1894.79 508.898C1909.81 509.973 1922.11 521.945 1931.51 532.65C1926.15 538.504 1920.87 544.428 1915.67 550.423C1908.31 549.342 1899.3 538.225 1891.97 532.237C1887.81 532.235 1881.64 533.115 1879.21 529.169C1873.86 520.447 1885.63 511.928 1892.39 508.787Z"/><path fill="#F8A61E" transform="translate(-1284 -33)" d="M1688.02 125.815C1690.14 127.18 1691.46 128.383 1692.59 130.694C1705.02 156.151 1702.11 167.339 1676.44 179.867C1671.06 174.279 1666.19 161.534 1663.67 154.192L1668.61 150.074C1680.43 140.424 1679.65 136.739 1687.5 126.481L1688.02 125.815Z"/><path fill="#72C4E4" transform="translate(-1284 -33)" d="M1386.6 477.242C1390.3 476.595 1395.46 476.019 1398.37 478.872C1412.95 493.167 1382.47 505.388 1372.52 512.594C1371.47 512.676 1369.96 513.1 1369.23 512.34C1344.79 486.973 1362.92 480.833 1386.6 477.242Z"/><path fill="#F8A61E" transform="translate(-1284 -33)" d="M1431.8 215.629C1433.48 215.822 1433.67 216.073 1435.29 216.714C1439.11 221.37 1442.06 226.449 1445.59 231.284C1452.77 241.12 1462.04 254.724 1442.24 255.697C1436.03 253.816 1426.86 248.856 1422.54 243.928C1412.01 231.932 1424.11 222.772 1431.8 215.629Z"/><path fill="#72C4E4" transform="translate(-1284 -33)" d="M1757.52 203.977C1764.96 203.288 1775.59 205.375 1778.11 213.437C1777.55 221.288 1767.38 226.283 1760.9 235.452L1760.06 236.648C1757.6 240.365 1756.5 242.256 1752.38 243.817C1750.2 243.623 1748.02 243.706 1746.81 241.566C1738.99 227.753 1747.36 212.101 1757.52 203.977Z"/><path fill="#FB8062" transform="translate(-1284 -33)" d="M1923.73 260.598C1931.12 261.972 1941.32 268.561 1940.68 277.05C1936.86 283.957 1925.04 288.256 1917.38 291.959C1912.4 294.2 1908.2 296.123 1903.89 291.943C1900.67 279.619 1914.8 266.914 1923.73 260.598Z"/></g></svg>