<?xml version="1.0" encoding="utf-8" ?><svg xmlns="http://www.w3.org/2000/svg" xmlns:xlink="http://www.w3.org/1999/xlink" width="718" height="718" viewBox="0 0 718 718"><clipPath id="mascot-jumping-alt-cl_1d"><rect width="718" height="718"/></clipPath><g clip-path="url(#mascot-jumping-alt-cl_1d)"><path fill="#01090A" d="M263.871 279.501C282.434 258.033 303.214 221.883 315.255 195.772C320.201 185.047 322.144 157.159 328.538 151.391C337.242 148.33 342.368 156.126 346.653 162.511C377.725 208.798 430.999 234.111 463.939 279.869C476.504 297.323 484.973 310.99 495.392 329.62C504.662 319.384 514.307 308.278 519.869 295.335C525.539 282.799 516.585 275.473 511.575 263.414C505.967 249.915 508.087 238.375 522.707 231.82C528.774 229.1 537.007 232.517 542.888 235.393C553.142 209.715 566.028 181.113 591.443 214.787C612.793 208.609 618.511 213.844 620.551 235.94C630.846 242.129 639.29 249.244 636.707 262.956C632.295 286.376 610.93 300.493 596.278 317.218C589.556 324.89 585.958 337.816 580.534 346.613C563.492 375.578 544.394 391.625 517.769 410.394C522.583 483.708 501.195 529.682 433.733 563.336C432.912 575.474 432.139 586.068 432.304 598.238C440.327 601.347 453.774 606.498 459.508 612.811C484.846 640.703 459.932 658.351 431.897 658.695C420.991 658.876 410.119 657.424 399.643 654.387C367.102 645.246 375.819 620.668 371.018 593.407C370.273 589.181 370.854 585.418 367.651 582.261C364.35 582.118 361.176 583.458 360.336 586.956C356.784 601.542 358.816 622.158 353.956 636.013C345.267 660.785 297.441 664.857 276.419 656.799C262.513 651.469 256.476 636.577 263.827 623.392C271.581 609.482 282.601 605.828 296.678 601.674C296.984 593.803 295.803 581.349 295.075 573.467C269.242 563.792 252.823 554.306 234.502 534.04C231.806 530.836 229.161 526.834 225.39 525.454L223.78 526.337C222.991 530.931 225.342 534.858 227.526 538.943C242.07 562.58 236.276 587.378 205.082 579.834C201.454 589.629 196.695 603.19 185.472 605.821C162.416 611.227 131.628 594.609 125.011 571.52C121.978 560.938 122.872 550.668 125.731 540.432C127.693 528.471 143.045 519.066 146.756 509.538C156.477 484.58 163.29 460.484 178.082 437.501C186.493 424.434 200.22 414.507 207.64 401.753C212.677 393.094 215.216 375.7 220.014 366.159C227.701 347.308 236.351 331.412 245.87 313.512C188.546 321.584 161.31 298.888 139.107 246.938C136.186 240.105 119.397 226.825 127.067 222.182C155.758 204.812 202.883 201.261 230.168 222.079C251.706 238.511 259.772 256.391 263.871 279.501Z"/><path fill="#3FB584" d="M337.733 183.488C347.39 191.959 355.401 203.023 364.79 210.991C406.507 246.397 453.68 280.936 475.726 332.941C478.308 339.03 481.173 346.671 484.9 351.922C497.337 356.122 514.261 334.181 520.198 326.673C535.333 307.535 548.913 287.054 530.372 264.917C526.957 260.839 523.337 252.237 528.113 247.408C538.082 247.11 542.505 264.901 553.695 261.418C562.273 252.662 558.625 223.592 570.869 217.427C583.429 218.676 562.424 253.57 577.59 256.093C586.799 252.129 594.884 227.921 602.048 229.558C604.933 237.764 590.816 258.222 594.572 268.088C603.06 272.762 609.853 257.634 618.018 256.286L619.718 257.931C623.208 275.796 593.446 293.317 584.041 305.595C576.948 315.12 572.399 326.925 566.839 337.381C553.544 362.588 531.498 380.722 508.375 396.464C497.07 404.16 499.819 413.218 500.636 425.318C503.426 466.601 486.267 509.493 451.599 533.35C442.031 539.935 430.531 544.627 420.812 552.209C414.853 567.877 414.989 581.824 413.747 597.565C408.589 620.669 444.402 615.41 450.058 626.949C461.883 651.075 405.978 638.416 400.513 637.071C381.481 627.502 396.611 579.656 383.504 565.3C379.092 560.467 354.129 564.282 347.054 565.545C336.127 587.66 344.068 608.032 337.147 629.87C332.557 644.354 291.878 647.26 280.786 641.192C279.295 639.152 278.619 638.206 278.671 635.528C279.03 617.021 307.132 621.457 312.465 613.283C319.042 603.203 312.135 572.692 309.924 562.529C301.974 557.517 292.348 554.018 283.967 549.623C259.613 536.853 244.891 523.311 232.792 498.954C236.852 490.096 250.455 473.776 248.54 466.122C246.071 463.073 246.147 462.682 242.38 461.34C223.192 461.523 207.278 517.241 204.46 532.281C208.601 540.83 219.789 554.114 218.725 563.02C213.396 567.117 204.126 558.123 197.525 558.424C186.558 558.926 190.661 583.641 181.243 589.611C178.105 591.961 173.038 592.158 169.277 590.918C147.987 583.9 134.369 569.102 141.413 545.886C142.666 535.399 157.496 526.35 160.827 518.686C171.724 493.62 176.245 471.631 191.644 447.936C198.263 437.75 222.706 414.773 225.147 408.138C234.204 383.514 240.383 363.507 252.421 339.695C262.349 320.264 273.313 301.379 285.266 283.123C309.991 244.985 324.816 228.831 337.733 183.488Z"/><path fill="#01090A" d="M396.916 345.69C422.584 346.903 393.022 396.78 340.484 370.307C335.7 366.746 329.743 359.591 334.093 353.768C356.086 346.384 361.359 386.578 396.916 345.69Z"/><path fill="#01090A" d="M332.292 309.508C338.569 307.516 345.295 310.853 347.507 317.055C349.719 323.258 346.621 330.098 340.501 332.527C336.345 334.176 331.62 333.425 328.18 330.569C324.74 327.713 323.134 323.207 323.99 318.819C324.847 314.431 328.031 310.86 332.292 309.508Z"/><path fill="#01090A" d="M393.291 302.511C399.618 300.448 406.433 303.832 408.613 310.12C410.793 316.408 407.535 323.284 401.289 325.581C397.143 327.104 392.498 326.271 389.141 323.401C385.784 320.532 384.239 316.073 385.099 311.741C385.959 307.409 389.092 303.879 393.291 302.511Z"/><path fill="#3FB584" d="M170.497 226.214C211.343 222.421 235.468 238.505 244.805 278.743C237.618 273.229 203.226 246.583 198.715 265.223C199.755 270.544 203.149 273.392 207.399 276.34C219.215 283.102 225.77 288.077 236.294 296.775C174.847 301.618 177.433 274.368 152.852 232.209L151.987 230.742C158.093 228.811 164.243 227.583 170.497 226.214Z"/><path fill="#FDF2E0" fill-opacity="0.019607844" d="M227.526 538.943C225.342 534.858 222.991 530.931 223.78 526.337L225.39 525.454C229.161 526.834 231.806 530.836 234.502 534.04C231.416 537.319 231.637 537.298 227.526 538.943Z"/></g></svg>