<?xml version="1.0" encoding="utf-8" ?><svg xmlns="http://www.w3.org/2000/svg" xmlns:xlink="http://www.w3.org/1999/xlink" width="939" height="1184" viewBox="0 0 939 1184"><clipPath id="cl_4"><rect x="-0.00048828125" width="939" height="1184"/></clipPath><g clip-path="url(#cl_4)"><path fill="#092228" transform="translate(-1042 -414)" d="M1494.33 592.485C1488.7 567.343 1493.28 540.995 1507.08 519.236C1521.38 496.865 1543.23 482.925 1566.11 470.508C1573.38 466.565 1586.11 456.914 1594.55 463.544C1600.88 469.225 1599.54 480.899 1601.78 488.004C1607.88 507.377 1614.66 525.309 1614.24 545.972C1613.3 592.455 1589.64 613.933 1552.81 636.137C1608.39 684.136 1647.34 729.387 1669.52 801.614C1689.84 804.556 1708.93 811.16 1725.74 822.067C1757.33 842.564 1772.11 880.223 1754.78 915.066C1747.85 928.993 1740.06 935.751 1728.52 945.959C1740.53 966.151 1737.07 985.047 1715.83 997.58C1695.16 1009.78 1673.11 1000.8 1653.84 990.534C1631.56 1030.29 1605.33 1049.05 1567.2 1071.45C1566.56 1079.35 1564.18 1098.58 1568.01 1105.15C1573 1108.42 1579.64 1108.75 1585.28 1110.78C1612.49 1120.57 1623.11 1140.91 1615.28 1169.01C1642.44 1177.21 1659.2 1183.54 1684.86 1195.19L1737.22 1048.64C1743.59 1031.14 1749.29 1013.29 1755.69 995.925C1757.66 988.115 1768.09 984.942 1774.97 988.853C1805.09 1005.98 1829.83 1034.44 1853.44 1059.58C1866.98 1073.99 1911.07 1098.85 1899.2 1121.04C1897.25 1124.67 1893.93 1127.37 1889.98 1128.52C1881.07 1131.17 1862.18 1129.99 1852.4 1130.49C1828.53 1131.73 1804.2 1131.28 1780.42 1131.82C1767.76 1132.11 1747.02 1131.28 1735.11 1132.38C1730.73 1143.45 1711.01 1198.54 1712.34 1206.93C1717.54 1214.9 1740.2 1226.67 1748.82 1233.1C1754.45 1237.31 1759.73 1241.46 1765.26 1245.99C1821 1291.94 1866.25 1349.29 1897.99 1414.18C1912.73 1444.33 1924.15 1476.72 1935.9 1508.11C1938.28 1514.48 1941.53 1523.03 1939.99 1530.11C1935.73 1544.48 1922.97 1542.13 1913.62 1535.8L1127.51 1534.89C1121.82 1535.06 1116.8 1535.21 1111.1 1535.02C1098.28 1545.92 1085.62 1539.03 1090.93 1520.98C1130.36 1386.92 1204.75 1270.43 1330.15 1203.09C1337.11 1199.32 1344.21 1195.81 1351.44 1192.58C1328.2 1151.96 1358.58 1129.44 1395.28 1121.14C1395.5 1111.66 1395.83 1102.19 1395.45 1092.72C1367.65 1087.16 1337.96 1075.68 1315.74 1057.75C1302.1 1069.67 1288.66 1077.04 1269.94 1075.48C1241.8 1073.14 1235.79 1057.16 1238.2 1032.79C1224.32 1028.45 1211.43 1024.87 1199.84 1015.54C1160.98 984.258 1180.91 926.246 1212.22 897.682C1217.91 892.487 1224.08 887.615 1230.02 882.72C1229.02 832.294 1243.38 794.435 1263.22 749.078C1229.29 756.145 1200.56 760.339 1169.97 740.299C1146.95 725.213 1137.66 703.014 1120.97 682.587C1115.37 675.734 1104.53 669.382 1102.44 660.566C1101.72 657.52 1101.83 654.082 1103.62 651.409C1109.71 642.272 1168.14 624.321 1180.78 622.997C1208.43 620.101 1238.41 628.552 1260.06 646.13C1274.9 658.184 1284.7 673.274 1292 690.781C1315.45 643.23 1339.77 591.59 1335.02 537.18C1334.1 526.672 1330.89 513.489 1342.55 509.504C1348.6 507.436 1354.62 510.494 1360.06 513.38C1373.21 520.348 1386.2 528.366 1399 536.005L1455.97 570.033C1466.38 576.347 1483.61 587.713 1494.33 592.485ZM1478.25 1160.02L1489.12 1159.78C1489.62 1145.94 1491.48 1111.04 1489.97 1099.2C1487.88 1097.46 1486.29 1097.77 1483.14 1098.1C1481.98 1098.23 1480.82 1098.37 1479.66 1098.54C1475.78 1099.26 1474.07 1098.98 1471.29 1101.22C1470.45 1107.18 1466.07 1157.24 1467.02 1159.6C1471.57 1160.74 1473.47 1160.33 1478.25 1160.02Z"/><path fill="#40B887" transform="translate(-1042 -414)" d="M1111.12 1534.17C1117.39 1511.77 1126.87 1489.15 1135.78 1467.77C1175.97 1371.98 1239.07 1285.74 1330.93 1234.15C1395.51 1197.88 1455.72 1185.5 1529.18 1186.49C1673.29 1188.44 1790.01 1278.66 1858.79 1401.45C1882.13 1443.99 1900.53 1489.07 1913.62 1535.8L1127.51 1534.89C1122.06 1534.5 1116.59 1534.26 1111.12 1534.17Z"/><path fill="#76C0F9" transform="translate(-1042 -414)" d="M1718.06 1331.09C1732.43 1330.93 1736.01 1337.41 1739.27 1349.94C1747.82 1350.07 1758.24 1350.19 1763.6 1357.79C1772.48 1370.36 1762.35 1379.65 1753.38 1386.2C1756.56 1395.49 1759.41 1404.24 1752.2 1412.8C1749.47 1416.09 1745.5 1418.1 1741.24 1418.35C1733.45 1418.74 1728.19 1415.16 1722.75 1410.39C1701.45 1429.05 1679.97 1417.06 1690.86 1389.74C1683.02 1385.2 1675.21 1379.77 1675.72 1369.43C1675.95 1365.08 1677.95 1361.02 1681.25 1358.19C1688.55 1351.83 1694.63 1352.97 1703.3 1353.78C1705.01 1341.17 1705.5 1335.98 1718.06 1331.09Z"/><path fill="#7D73CE" transform="translate(-1042 -414)" d="M1717.31 1362.46C1722.71 1360.84 1728.56 1362.27 1732.61 1366.2C1736.65 1370.13 1738.24 1375.94 1736.78 1381.38C1735.32 1386.82 1731.02 1391.04 1725.55 1392.41C1717.36 1394.46 1709.04 1389.6 1706.8 1381.46C1704.56 1373.33 1709.23 1364.89 1717.31 1362.46Z"/><path fill="#76C0F9" transform="translate(-1042 -414)" d="M1308.89 1311.24C1323.81 1310.57 1326.73 1316.93 1330.99 1329.44C1359.48 1327.99 1367.91 1348.39 1344.99 1365.4C1348.44 1374.3 1351.2 1383.21 1344.6 1391.57C1341.81 1395.14 1337.65 1397.37 1333.13 1397.72C1325.26 1398.24 1320.06 1394.62 1314.61 1389.73C1305.25 1397.34 1289.91 1405.61 1280.63 1389.82C1277.2 1383.99 1279.78 1375.72 1282.21 1369.66C1257.51 1354.9 1264.99 1329.96 1294.68 1333.19C1296.6 1320.74 1297.18 1316.78 1308.89 1311.24Z"/><path fill="#7D73CE" transform="translate(-1042 -414)" d="M1308.26 1342.39C1316.36 1339.59 1325.2 1343.87 1328.03 1351.96C1330.86 1360.06 1326.6 1368.91 1318.51 1371.76C1310.4 1374.62 1301.5 1370.34 1298.66 1362.21C1295.83 1354.09 1300.13 1345.21 1308.26 1342.39Z"/><path fill="#76C0F9" transform="translate(-1042 -414)" d="M1471.89 1390.06C1488.69 1388.9 1483.48 1394.35 1492.2 1402.93C1498.13 1405.97 1505.97 1406.26 1511.14 1410.94C1520.06 1419.01 1511.09 1429.46 1503.05 1436.11C1506.1 1443.49 1508.39 1448.91 1503.14 1456.15C1496.77 1464.93 1486.88 1462.12 1479.51 1456.84C1478.49 1456.3 1479.24 1456.63 1477.07 1456.41C1457.94 1469.82 1443.89 1461.97 1450.28 1438.14C1424.26 1419.19 1444.91 1409.42 1460.39 1406.18C1462.86 1405.66 1461.84 1396.6 1471.89 1390.06Z"/><path fill="#7D73CE" transform="translate(-1042 -414)" d="M1475.74 1414.66C1482.88 1414.09 1489.16 1419.32 1489.91 1426.45C1490.66 1433.57 1485.59 1439.99 1478.49 1440.92C1473.73 1441.54 1469.01 1439.53 1466.16 1435.67C1463.3 1431.81 1462.77 1426.71 1464.76 1422.34C1466.75 1417.98 1470.95 1415.04 1475.74 1414.66Z"/><path fill="#76C0F9" transform="translate(-1042 -414)" d="M1551.1 1228.06C1565.41 1228.5 1561.41 1232.97 1567.89 1240.44C1574.39 1244.22 1583.21 1244.66 1588.78 1250.29C1596.97 1258.57 1587.14 1268.13 1579.58 1273.77C1590 1295.48 1573.15 1306.26 1554.68 1293.87C1552.43 1294.62 1550.9 1296.12 1548.9 1297.32C1529.7 1308.91 1522.23 1293.56 1527.11 1276.53L1525.94 1275.7C1502.44 1259.35 1517.17 1249.13 1537.43 1244.71C1544.39 1238 1536.11 1233.28 1551.1 1228.06Z"/><path fill="#7D73CE" transform="translate(-1042 -414)" d="M1549.95 1253.48C1556.86 1251.52 1564.04 1255.56 1565.96 1262.49C1567.88 1269.41 1563.79 1276.57 1556.86 1278.44C1549.98 1280.3 1542.9 1276.26 1541 1269.4C1539.1 1262.53 1543.1 1255.43 1549.95 1253.48Z"/><path fill="#40B887" transform="translate(-1042 -414)" d="M1360.7 544.554C1387.25 558.634 1416.25 576.773 1442.13 592.335C1528.44 644.249 1606.31 700.19 1641.03 799.489C1670.44 880.643 1658.7 975.116 1586.31 1029.51C1575.02 1037.99 1551.05 1046.97 1545.25 1057.3C1541.74 1063.56 1535.87 1126.3 1543.96 1128.56C1557.24 1132.29 1608.26 1133.32 1589.39 1160.47C1586.25 1161.8 1525.26 1157.85 1514.78 1157.74C1515.3 1139.51 1520.09 1088.95 1513.68 1074.73C1512.56 1072.24 1511.04 1070.08 1508.28 1069.3C1503.61 1067.97 1457.35 1074.2 1454.22 1076.42C1451.57 1078.31 1450.07 1080.62 1449.07 1083.69C1446.11 1092.78 1446.01 1103.44 1445.13 1112.94C1443.54 1130.25 1442.29 1147.49 1438.48 1164.49C1425.95 1167.61 1383.15 1181.92 1373.1 1177.53C1370.89 1176.56 1368.91 1174.97 1368.36 1172.51C1367.19 1167.33 1370.2 1161.69 1372.96 1157.55C1390 1141 1404.61 1147.74 1415.94 1140.95C1423.09 1131.89 1420.63 1100.07 1420.88 1087.9C1420.94 1085.12 1418.98 1074.91 1417.51 1074.04C1404.24 1066.52 1388.22 1066.02 1373.77 1060.25C1358.16 1054.03 1342.82 1047.61 1330.11 1036.22C1346.84 953.271 1277.33 968.183 1277.89 951.792C1282.54 944.716 1307.97 937.402 1296.76 921.726C1294.15 920.014 1291.4 919.001 1288.26 919.796C1270.1 924.382 1249.37 937.978 1253.59 959.498C1257.72 980.611 1284.92 979.754 1298.92 990.576C1314.69 1002.77 1310.61 1025.61 1299.32 1039.2C1291.91 1048.67 1273.31 1057.11 1261.94 1048.18C1255.9 1043.44 1279.74 1029.39 1277.74 1021.21C1274.04 1006.03 1250.77 1010.1 1239.04 1005.79C1231.26 1003.91 1217.73 999.224 1212.71 992.924C1186.69 960.271 1219.97 917.207 1248.98 899.911C1259.5 893.642 1266.89 888.983 1275.56 881.219C1278.42 878.656 1279.46 875.191 1279.21 871.808C1274.54 862.679 1264.2 864.983 1256.48 867.293C1261.72 757.171 1363.57 666.421 1360.7 544.554Z"/><path fill="#092228" transform="translate(-1042 -414)" d="M1542.9 775.015C1563.38 774.724 1556.53 796.258 1549.91 807.415C1540.45 823.497 1525.01 835.177 1506.96 839.897C1484.69 845.566 1464.84 841.497 1445.49 829.915C1439.43 825.806 1431.13 818.645 1433.08 811.336C1437.39 795.161 1466.12 816.875 1474.04 818.222C1493.9 821.597 1515.55 817.207 1527.5 800.293C1534.39 790.532 1531.59 781.603 1542.9 775.015Z"/><path fill="#092228" transform="translate(-1042 -414)" d="M1430.51 731.312C1451.59 730.97 1475.73 756.87 1460.19 770.693C1442.38 776.786 1441.84 748.689 1424.48 759.763L1423.5 760.399C1420.2 766.233 1421.34 775.197 1420.12 776.975C1402.78 802.21 1390.41 760.239 1404.51 745.803C1413.1 737.006 1415.39 733.661 1430.51 731.312Z"/><path fill="#092228" transform="translate(-1042 -414)" d="M1527.86 708.16C1532.07 707.877 1536.38 707.764 1540.51 708.779C1549.03 710.889 1556.32 716.371 1560.72 723.968C1570.47 740.588 1560.08 756.888 1543.58 741.822C1537.99 736.72 1537.55 732.841 1530.03 731.229L1529.15 731.682C1516.64 737.911 1523.33 751.378 1511.38 757.05C1509.66 757.089 1508.77 757.236 1507.15 756.455C1503.77 754.852 1501.28 751.822 1500.37 748.193C1495.42 728.372 1509.27 712.73 1527.86 708.16Z"/><path fill="#40B887" transform="translate(-1042 -414)" d="M1181.51 648.206C1220.41 645.68 1247.98 658.944 1264.54 695.135C1253.92 689.909 1185.05 659.074 1191.31 689.867C1192.6 696.21 1224.74 703.965 1232.45 706.971C1242.98 710.457 1249.85 714.905 1258.16 721.927C1243.59 727.637 1226.81 732.014 1211.11 729.914C1172.64 724.77 1158.58 689.437 1137.1 662.281C1152.34 655.813 1165.21 650.915 1181.51 648.206Z"/><path fill="#F87B5A" transform="translate(-1042 -414)" d="M1773.78 1018.34C1794.78 1031.61 1812.84 1053.56 1830.14 1071.18C1841.4 1082.64 1853.28 1093.2 1865.34 1103.79L1834.11 1105.81L1744.01 1107.56L1773.78 1018.34Z"/><path fill="#40B887" transform="translate(-1042 -414)" d="M1677.2 828.865C1714.43 839.154 1754.9 866.522 1728.83 909.275C1720.41 923.08 1688.57 936.251 1693.22 952.824C1695.27 960.106 1706.48 957.235 1710.1 968.329C1700.55 985.071 1680.2 976.82 1667.44 969.011C1673.6 950.172 1676.9 938.666 1680.48 919.188C1693.09 909.996 1709.6 896.861 1701.39 877.938C1698.03 870.18 1690.05 866.471 1682.48 863.578C1681.63 852.107 1679.36 840.179 1677.2 828.865Z"/><path fill="#40B887" transform="translate(-1042 -414)" d="M1576.66 493.771C1585.42 522.659 1596.61 549.216 1581.3 577.967C1572.3 594.877 1559.88 604.462 1543.07 612.816C1547.42 597.688 1552.23 582.909 1558.93 568.779C1562.39 561.487 1568.23 548.103 1556.95 544.88C1541.7 540.522 1531.2 575.09 1526.4 584.46C1525.22 589.304 1523.49 595.003 1522.13 599.876C1516.34 578.528 1513.99 565.084 1522.52 543.983C1532.08 519.058 1555.02 506.707 1576.66 493.771Z"/><path fill="#55C098" transform="translate(-1042 -414)" d="M1522.52 543.983C1522.79 560.271 1513.46 569.33 1521.73 588.011C1525.3 587.107 1523.56 586.251 1526.4 584.46C1525.22 589.304 1523.49 595.003 1522.13 599.876C1516.34 578.528 1513.99 565.084 1522.52 543.983Z"/></g></svg>