<?xml version="1.0" encoding="utf-8" ?><svg xmlns="http://www.w3.org/2000/svg" xmlns:xlink="http://www.w3.org/1999/xlink" width="584" height="720" viewBox="0 0 584 720"><clipPath id="mascot-relaxing-deckchair-cl_b"><rect width="584" height="720"/></clipPath><g clip-path="url(#mascot-relaxing-deckchair-cl_b)"><path fill="#09262C" transform="translate(-1414 -839)" d="M1751.99 929.324C1779.68 929.391 1775.89 947.214 1798.22 956.965C1806.65 959.865 1816.37 957.051 1824.97 958.396C1871.61 965.688 1863.94 1024.24 1859.46 1056.56C1880.29 1070.13 1893.46 1082.74 1904.46 1105.11C1973.63 1119.07 1956.99 1140.64 1932.71 1188.92L1899.78 1254.88C1890.94 1272.74 1882.26 1290.69 1873.75 1308.72C1866.7 1323.74 1860.17 1339.25 1851.43 1353.32C1851.63 1370.85 1853.49 1431.01 1844.68 1442.57C1840.63 1447.97 1834.45 1451.35 1827.72 1451.85C1801.82 1453.97 1802.67 1394.71 1802.55 1376.81C1790.36 1379.13 1767.85 1386.61 1755.35 1390.37C1727.09 1398.64 1698.95 1407.31 1670.93 1416.37C1654.91 1421.51 1621.46 1430.66 1607.44 1436.6C1604.08 1459.75 1608.15 1486.85 1598.8 1508.72C1593.23 1521.75 1575.17 1521.9 1565.9 1512.94C1561.28 1508.46 1559.99 1502.82 1558.62 1496.74C1557.67 1477.54 1557.78 1456.65 1557.62 1437.38C1534.94 1428.37 1512.59 1418.55 1490.62 1407.94C1475.4 1400.7 1457.81 1391.82 1442.31 1385.86C1442.43 1401.75 1443.2 1462.97 1410.47 1452.18C1404.71 1449.47 1400.02 1441.14 1398.58 1435.31C1391.81 1407.84 1397.37 1375.77 1394.4 1347.64C1392.77 1332.3 1416.49 1326.18 1427.65 1323.64C1437.73 1321.34 1449.69 1318.05 1460.56 1315.23C1457.16 1294.42 1455.8 1249.5 1494.11 1258.19C1504.74 1260.6 1512.78 1274.77 1516.9 1284.77C1524 1280.88 1529.39 1279.14 1537.02 1276.66C1512.88 1221.87 1532.57 1172.49 1575.34 1134.2C1558.73 1088.42 1565.2 1057.05 1616.55 1042.32C1560.7 981.345 1631.93 974.794 1678.76 984.473C1695.28 965.312 1726.87 933.126 1751.99 929.324Z"/><path fill="#41B685" transform="translate(-1414 -839)" d="M1688.37 1037.73C1732.81 1045.02 1777.78 1066.36 1815.41 1090.65C1820.83 1113.78 1824.82 1137.23 1827.36 1160.85C1821.22 1162.86 1806.01 1167.76 1807.88 1176.07C1823.77 1185.53 1863.42 1162.08 1852.08 1150.19C1848.66 1149.92 1847 1150.03 1843.86 1148.56C1841.96 1146.23 1840.26 1143.4 1842.07 1140.59C1861.23 1142.02 1860.14 1142.99 1880.36 1140.61C1898.84 1179.43 1870.99 1205.72 1835.82 1214.66C1826.78 1216.96 1807.78 1217.19 1804.24 1227.54C1807.55 1236.11 1818.74 1234.88 1825.79 1233.78C1814.91 1277.43 1798.78 1309.82 1756.55 1331.21C1727.9 1345.73 1703.15 1342.51 1673.06 1348.5C1654.4 1352.65 1637.1 1364.8 1619.54 1371.29C1601.03 1378.14 1583.07 1394.08 1571.95 1370.57C1567.94 1359.52 1559.23 1332.95 1569.77 1323.35C1586.83 1307.82 1592.72 1340 1603.19 1350.84C1614.87 1345.14 1655.12 1330.56 1650.06 1316.32C1641.93 1310.89 1618.32 1323.88 1609.8 1327.96C1594.74 1301.15 1571.23 1290.22 1552.02 1319.98C1538.62 1323.23 1503.07 1336.43 1491.58 1333.68C1476.64 1330.09 1465.72 1278.65 1484.7 1271.87C1496.25 1274.04 1500.98 1294.97 1509.59 1301.42C1516.59 1302.6 1552 1291.59 1559.01 1287.49C1556.6 1273.29 1547.48 1261 1544.87 1247.06C1531.73 1176.93 1596.13 1139.91 1639.72 1099.04C1659.34 1080.64 1674.14 1059.98 1688.37 1037.73Z"/><path fill="#09262C" transform="translate(-1414 -839)" d="M1684.18 1104.24C1697.64 1110.56 1707.6 1129.16 1724.19 1130.08C1732.45 1130.54 1748.11 1118.81 1753.82 1127.04C1753.73 1131.1 1753.55 1130.98 1751.55 1134.67C1729.54 1152.88 1668.59 1134.39 1684.18 1104.24Z"/><path fill="#09262C" transform="translate(-1414 -839)" d="M1742.38 1083.31C1745.45 1084.31 1748.85 1086.26 1749.76 1089.45C1753.48 1102.5 1773.19 1090.05 1776.63 1099.08C1775.8 1103.04 1774.15 1104.36 1771.46 1107.59C1753.89 1114.06 1728.79 1104.5 1742.38 1083.31Z"/><path fill="#09262C" transform="translate(-1414 -839)" d="M1686.39 1063.35C1695.14 1064.44 1692.43 1065.1 1696.37 1071.55C1700.8 1078.82 1716.11 1071.31 1719.9 1078.63C1719.38 1082.64 1717.73 1083.96 1715.11 1087.28C1696.61 1093.67 1678.01 1085.09 1686.39 1063.35Z"/><path fill="#78C3F4" transform="translate(-1414 -839)" d="M1789.96 1330.69C1803.03 1336.88 1816.15 1342.95 1829.32 1348.91C1819.15 1352.03 1806.96 1356.65 1796.75 1360.23L1675.28 1397.74C1647.83 1406.38 1608.79 1419.92 1580.43 1424.09C1560.51 1427.02 1502.16 1392.98 1482.34 1385.61C1471.11 1381.43 1414.16 1356.18 1411.15 1348.97L1411.99 1347.33C1421.47 1340.15 1450.72 1334.17 1463.04 1331.23C1469.03 1333.17 1472.03 1343.75 1482.15 1348.91C1500.06 1358.05 1529.47 1344.59 1547.98 1338.14C1549.48 1360.95 1552.83 1393.81 1580.74 1398.71C1601.12 1402.29 1621.27 1388.03 1638.87 1379.54C1648.26 1375.02 1658.01 1371.33 1668.03 1368.5C1696.89 1360.51 1722.56 1362.33 1750.43 1352.5C1766.3 1346.9 1776.42 1340.02 1789.96 1330.69Z"/><path fill="#F6A921" transform="translate(-1414 -839)" d="M1628.98 996.21C1666.51 994.302 1703.87 1002.5 1739.08 1014.46C1789.18 1031.48 1839.63 1055.49 1878.07 1092.45C1882.53 1096.74 1891.32 1108.01 1890.16 1114.13C1886.77 1132.09 1851.26 1125.43 1838.46 1123.62C1837.84 1118.42 1837.19 1113.22 1836.51 1108.03C1840.81 1108.49 1842.26 1109.04 1846.1 1107.47C1848.53 1104.63 1847.84 1106.25 1848.07 1102.38C1842.77 1089.08 1815.83 1073.06 1803.43 1065.93C1767.27 1044.71 1727.68 1029.98 1686.45 1022.41C1679.55 1021.2 1661.43 1016.61 1658.07 1026.3C1656.48 1030.9 1664.16 1031.04 1666.72 1037.57C1666.17 1044.48 1661.41 1048.04 1656.55 1053.15C1641.88 1043.47 1620.03 1029.55 1612.61 1012.82C1607.39 1001.03 1621.2 998.001 1628.98 996.21Z"/><path fill="#78C3F4" transform="translate(-1414 -839)" d="M1905.18 1121.58C1913.56 1123.75 1932.15 1128.53 1936.9 1136.92C1938.52 1139.8 1934.9 1147.25 1933.36 1150.61C1926.12 1166.41 1917.31 1181.6 1909.63 1197.26C1886.6 1243.52 1864.09 1290.04 1842.09 1336.8L1834.75 1333.49L1802.9 1318.58C1827.57 1291.76 1837.71 1266.85 1842.37 1230.62C1843.26 1230.32 1844.15 1230 1845.04 1229.69C1892.87 1212.52 1914.2 1184.48 1895.9 1133.77C1899.44 1129.93 1902.16 1125.84 1905.18 1121.58Z"/><path fill="#F6A921" transform="translate(-1414 -839)" d="M1752.76 944.095C1768.79 946.781 1768.61 953.165 1779.66 964.018C1790.69 975.488 1803.71 973.234 1818.19 973.206C1854.76 973.134 1848.11 1023.6 1846.76 1048.11C1835.89 1041.36 1825.12 1035.35 1813.96 1029.08C1770.36 1007.21 1743.77 999.349 1697.55 986.292C1713.8 969.357 1730.18 951.633 1752.76 944.095Z"/><path fill="#41B685" transform="translate(-1414 -839)" d="M1624.59 1057.16L1634.07 1056.57L1647.28 1066.13C1630.19 1084.88 1618.26 1096.77 1598.51 1112.75L1587.69 1121.39C1587.09 1119.17 1586.54 1116.94 1586.03 1114.69C1578.17 1079.4 1590.95 1064.69 1624.59 1057.16Z"/><path fill="#F6A921" transform="translate(-1414 -839)" d="M1833.82 1365.17C1834.27 1365.69 1835.29 1366.75 1835.3 1367.41C1835.5 1383.32 1837.88 1419.98 1830.23 1432.81C1826.89 1434.97 1828.68 1434.54 1824.68 1434.07C1819.58 1412.91 1819.33 1392.18 1818.75 1370.53L1833.82 1365.17Z"/><path fill="#F6A921" transform="translate(-1414 -839)" d="M1573.82 1441.31L1590.19 1441.01C1589.95 1457.69 1588.69 1484.48 1585.51 1500.44L1582.93 1501.71C1581.04 1501.56 1579.01 1501.75 1578 1499.53C1572.88 1488.24 1572.89 1452.93 1573.82 1441.31Z"/><path fill="#F6A921" transform="translate(-1414 -839)" d="M1410.08 1370.62L1427.01 1379.07C1426.39 1397.1 1424.65 1413.44 1422.45 1431.29C1420.28 1434.27 1421.66 1433.46 1418.43 1434.19L1416.31 1432.65C1410.12 1421.62 1410.23 1384.58 1410.08 1370.62Z"/><path fill="#09262C" transform="translate(-1414 -839)" d="M992.179 938.295C992.052 935.907 991.947 933.518 991.867 931.128C991.105 909.156 994.813 894.637 1010.66 878.328C1018.39 870.367 1045.14 847.029 1055.5 846.709C1064.75 850.004 1061.99 857.702 1064.13 865.063C1069.83 884.957 1074.99 904.162 1068.34 924.497C1060.7 947.838 1044.23 959.549 1023.28 970.289C1066.81 1019.51 1080.2 1058.65 1080.75 1123.37C1088.35 1115.69 1097.51 1106.21 1103.9 1097.7C1154.04 1030.96 1158.93 1032.6 1210.51 1095.77C1221.72 1081.67 1277.29 987.576 1280.55 972.877C1279.13 970.242 1257.43 961.063 1249.26 954.725C1228.57 938.679 1224.58 910.791 1216.55 887.838C1213.13 878.033 1239.84 881.484 1246.67 882.621C1275.22 887.371 1289.92 899.673 1305.99 922.958C1324.59 877.433 1358.41 866.117 1405.58 867.263C1408.43 867.332 1410.93 869.484 1412.35 871.779C1414.17 880.914 1407.68 885.612 1406.16 893.048C1394.54 949.743 1389.3 958.16 1333.09 971.503C1319.86 1002.73 1251.6 1152.69 1232.13 1170.37C1227.61 1174.47 1222.03 1177.29 1215.8 1176.68C1197.32 1174.88 1168.6 1136.15 1156 1121.54C1139.71 1141.53 1123.75 1161.79 1108.14 1182.32C1098.45 1195.12 1079.88 1227.23 1061.35 1227.79C1052.68 1228.05 1041.08 1214.86 1035.28 1208.62C1027.98 1212.17 1019.31 1217.2 1011.79 1221.08C1010.93 1230.51 1010.31 1239.96 1009.93 1249.43C1027.89 1257.49 1058.39 1274.89 1029.51 1296.67C1021.06 1303.04 1005.47 1302.14 995.171 1300.96C980.062 1299.22 969.325 1297.63 961.467 1283.09C958.54 1272.33 960.054 1247.49 955.82 1240.82L954.411 1240.69C950.941 1246.62 952.111 1272.36 948.989 1284.49L948.607 1286C948.523 1286.3 948.439 1286.6 948.355 1286.91C933.556 1306.28 900.403 1311.79 878.763 1300.28C868.669 1294.91 868.148 1285.87 870.991 1275.97C874.1 1259.81 894.266 1260.78 901.902 1250.59C906.649 1240.13 898.589 1235.06 891.444 1232.33C794.185 1195.15 806.423 1089.06 843.418 1013.96C793.398 1024.27 774.736 1006.3 749.476 965.17C741.621 954.119 723.278 946.452 743.436 935.828C796.992 907.601 840.371 924.483 861.571 979.887C871.635 957.036 885.044 935.418 892.464 911.364C896.644 897.815 893.161 882.439 899.176 869.699C901.83 865.442 907.694 864.848 911.112 868.182C936.397 892.844 964.486 916.727 992.179 938.295Z"/></g></svg>