<?xml version="1.0" encoding="utf-8" ?><svg xmlns="http://www.w3.org/2000/svg" xmlns:xlink="http://www.w3.org/1999/xlink" width="1061" height="1121" viewBox="0 0 1061 1121"><clipPath id="cl_5"><rect width="1061" height="1121"/></clipPath><g clip-path="url(#cl_5)"><path fill="#092228" transform="translate(0 -477)" d="M738.839 553.136C745.537 552.475 747.369 553.298 753.767 554.902C767.238 567.965 762.417 574.129 766.548 590.774C768.497 598.628 771.864 607.442 773.984 615.527C781.524 644.278 783.079 673.398 773.227 701.814C758.767 743.633 735.359 756.817 698.336 775.503C718.751 799.89 737.582 825.562 754.713 852.359C759.415 852.88 761.85 849.488 765.524 846.567C795.714 823.758 786.58 777.528 816.893 755.814C836.317 741.899 868.71 743.032 882.666 763.776C894.607 781.523 894.241 806.732 890.326 826.626C881.74 870.245 854.649 909.199 822.282 938.702C811.92 948.015 798.326 957.183 786.781 965.123C787.565 986.402 788.164 996.387 786.127 1018.12C819.459 1008.96 849.881 991.068 884.113 982.906C912.708 974.587 943.478 1004.35 932.539 1032.33C921.614 1060.28 870.519 1075.43 845.168 1087.09C859.167 1134.63 872.683 1187.18 885.707 1235.49C938.466 1240.92 989.137 1269.53 1014.29 1316.96C1031 1348.48 1023.08 1377.29 989.704 1392.54C996.462 1428.62 993.315 1455.51 974.575 1488.02C958.841 1515.67 932.677 1535.87 901.937 1544.08C869.126 1552.89 834.147 1548.07 804.941 1530.72C772.894 1511.65 756.163 1485.3 747.226 1449.74C659.26 1450.84 571.264 1454.24 483.216 1452.79C454.373 1452.32 424.912 1452.43 396.172 1450.77C386.945 1476.84 378.976 1489.96 358.732 1509.26C340.118 1526.37 316.784 1537.47 291.77 1541.12C226.06 1550.19 170.07 1510.27 161.225 1443.85C155.838 1444.29 150.616 1444.79 145.317 1444.15C119.761 1441.03 105.454 1416.1 109.362 1391.78C111.481 1378.59 114.495 1370.73 119.307 1358.55C133.38 1322.91 156.613 1299.56 186.314 1276.56L184.994 1275.38C167.196 1259.25 162.919 1231.72 180.072 1216.22C213.581 1185.92 291.887 1200.75 332.949 1199.15C317.325 1174.74 306.76 1168.46 294.587 1137.31C261.837 1053.52 282.322 966.33 316.14 886.725C324.37 867.353 333.929 849.31 342.063 830.261C311.049 836.662 287.429 836.744 258.35 824.322C216.298 806.359 193.097 773.838 175.081 733.554C173.488 729.992 170.928 724.861 168.883 721.494C161.169 708.798 142.056 701.205 150.638 683.336C156.077 672.204 180.095 667.975 190.775 662.515C228.261 649.579 271.604 650.133 307.229 668.411C351.734 691.534 363.37 722.349 377.851 766.325C410.097 716.628 445.659 660.666 450.641 599.909C451.456 589.973 451.161 580.158 459.561 573.151C468.739 564.283 482.046 572.411 487.514 581.365C515.601 627.36 557.995 658.422 600.529 690.063C610.376 697.389 623.726 708.319 634.906 714.291C630.821 648.783 661.943 604.762 716.595 571.559C723.739 567.218 729.158 558.444 738.839 553.136ZM760.768 1116.76C739.351 1160.79 714.103 1192.45 673.267 1220.75C662.151 1228.45 651.8 1233.6 640.954 1240.66C643.516 1258.76 647.862 1277.91 643.787 1295.6C667.096 1299.48 689.201 1307.03 697.612 1331.77C698.499 1335.85 698.948 1338.22 699.398 1342.36C699.943 1347.38 697.351 1358 699.209 1361.12C706.812 1361.42 708.618 1343.82 712.096 1337.3C731.698 1300.55 758.934 1268.63 798.359 1252.77C797.123 1241.67 776.776 1118.34 774.518 1114.73L771.507 1114.24L760.768 1116.76ZM396.517 1285.23C410.463 1304.15 423.954 1330.26 433.207 1351.72C436.144 1358.38 437.085 1360.56 444.047 1363.61C456.373 1362.18 451.596 1260.44 423.638 1254.49C416.425 1271.21 411.863 1275.93 396.517 1285.23Z"/><path fill="#40B887" transform="translate(0 -477)" d="M481.243 631.523C486.636 636.074 492.78 643.808 498.351 648.984C565.859 711.711 642.682 754.637 699.734 829.533C743.46 886.904 762.51 959.34 752.666 1030.8C730.334 1038.34 708.198 1045.72 685.436 1051.86C638.488 1006.66 593.678 1037.75 540.049 1024.87C522.787 1020.72 506.686 1012.17 492.728 1001.29C485.18 995.397 476.984 985.852 467.75 983.074C466.739 982.769 465.51 982.49 464.445 982.529C461.951 982.619 460.05 983.315 458.445 985.307C455.852 988.523 454.991 993.267 455.846 997.244C458.102 1007.74 470.58 1017.28 478.671 1023.55C554.156 1082.04 610.306 1033.49 657.011 1064.4C665.272 1069.87 671.195 1077.5 672.998 1087.39C674.268 1094.34 673.927 1102.27 669.674 1108.2C666.558 1112.55 661.797 1115.15 656.552 1115.96C640.446 1118.48 624.711 1102.39 608.851 1099.69C591.013 1096.65 572.828 1102.4 555.003 1103.17C521.82 1104.6 484.31 1090.56 458.094 1070.35C449.043 1063.37 441.788 1053.58 432.213 1047.37C429.104 1045.35 426.134 1044.88 422.529 1045.7C419.872 1046.3 417.594 1047.79 416.316 1050.27C414.083 1054.59 415.165 1060.26 416.986 1064.51C426.957 1087.78 476.49 1114.15 499.5 1122.71C522.574 1130.63 544.705 1133.09 568.875 1130.34C578.63 1129.23 593.418 1127.27 602.718 1128.79C620.107 1131.62 633.055 1146.74 652.184 1146.27C663.1 1146.1 673.616 1141.25 684.121 1139.25C694.274 1137.3 704.14 1135.52 714.26 1133.25C675.492 1193.4 610.082 1228.25 539.664 1234.7C530.501 1235.54 506.77 1226.01 505.015 1241.65C503.413 1255.93 511.27 1270.57 511.427 1285.89C511.528 1295.8 506.965 1315.51 512.613 1324.72C525.466 1335.88 548.425 1325.01 559.983 1340.34C564.42 1346.23 565.384 1357.35 557.914 1360.86C537.413 1370.48 509.543 1367.62 487.978 1363.29C485.249 1362.67 480.422 1360.89 480.158 1357.54C477.158 1319.42 481.071 1286.41 461.629 1250.88C446.239 1222.76 426.164 1222.83 400.229 1209.17C373.763 1195.23 348.347 1167.66 333.978 1141.48C279.791 1040.6 333.806 917.92 382.935 826.229C401.618 791.36 424.168 758.463 442.646 724.511C458.829 694.998 471.77 663.82 481.243 631.523Z"/><path fill="#092228" transform="translate(0 -477)" d="M624.801 871.245C673.063 878.056 594.047 977.944 511.68 913.879C496.234 900.846 498.485 884.054 510.968 883.102C532.079 881.492 538.16 906.964 569.968 905.779C610.063 904.286 604.469 875.883 624.801 871.245Z"/><path fill="#092228" transform="translate(0 -477)" d="M518.794 816.676C528.685 814.418 538.551 820.538 540.922 830.401C543.293 840.265 537.286 850.2 527.449 852.684C520.986 854.315 514.145 852.347 509.536 847.531C504.928 842.714 503.264 835.792 505.18 829.407C507.096 823.022 512.296 818.16 518.794 816.676Z"/><path fill="#092228" transform="translate(0 -477)" d="M603.969 806.167C613.374 805.512 621.446 807.805 625.671 817.143C627.687 821.502 627.846 826.494 626.11 830.972C623.817 836.941 619.954 839.553 614.513 842.212C587.871 845.124 583.065 816.412 603.969 806.167Z"/><path fill="#F87B5A" transform="translate(0 -477)" d="M833.853 1029.97C845.21 1036.33 844.024 1047.5 843.804 1058.91C838.023 1061.45 831.242 1063.81 826.106 1067.49C822.427 1070.13 818.399 1074.71 817.876 1079.41C816.789 1089.17 852.017 1223.54 858.419 1242.72C859.771 1246.77 861.963 1254.23 865.191 1256.94C873.862 1264.22 888.719 1264.63 899.525 1266.82C930.51 1273.1 958.58 1288.83 978.656 1313.6C987.029 1323.93 995.547 1338.5 993.627 1352.29C993.07 1356.3 991.157 1359.81 987.904 1362.24C965.726 1378.84 940.43 1334.13 925.934 1322.75C913.109 1312.68 897.106 1306.79 881.054 1304.52C851.413 1300.48 821.387 1308.45 797.645 1326.65C768.388 1348.89 752.412 1385.03 747.655 1420.76C631.641 1424.15 517.793 1427.41 401.647 1424.19C401.075 1396.79 398.023 1376.75 382.085 1353.51C365.598 1329.47 341.643 1315.55 313.132 1310.64C278.285 1304.64 248.249 1313.76 219.842 1333.81C202.135 1348.01 191.388 1364.95 182.141 1385.44C178.343 1393.85 174.337 1405.06 167.589 1411.6C163.378 1415.68 157.138 1417.45 151.368 1416.94C147.063 1416.57 142.816 1414.7 140.26 1411.11C135.905 1404.99 136.984 1396.43 138.44 1389.55C146.284 1352.47 171.532 1318.77 203.188 1298.27C208.95 1294.54 216.424 1289.92 223.237 1288.6C231.446 1287.02 352.238 1288.6 361.882 1290.72L363.728 1291.13C380.722 1294.87 402.905 1357.68 411.157 1372.67C414.751 1379.9 421.93 1389.98 431.257 1390.1C461.35 1390.5 490.991 1395.36 520.859 1397.52C534.884 1398.53 549.854 1393.41 563.595 1393.41C597.836 1393.43 631.911 1393.13 666.136 1392.51C674.593 1392.36 716.456 1392.86 721.76 1387.27C726.816 1381.94 734.064 1358.63 738.136 1349.93C742.686 1340.09 748.193 1330.72 754.577 1321.96C767.717 1304.18 781.378 1292.65 800.73 1282.21C814.19 1274.96 829.204 1270.51 826.662 1252.34C823.606 1230.5 819.363 1208.74 815.771 1186.87L806.261 1130.66C797.722 1078.89 800.463 1074.99 749.837 1092.73C749.22 1079.43 748.038 1074.15 742.079 1062.58C772.947 1051.31 802.233 1042.15 833.853 1029.97Z"/><path fill="#40B887" transform="translate(0 -477)" d="M864.306 1333.44C920.55 1333.61 917.147 1373.5 958.62 1392.26C960.922 1398.77 962.19 1403.84 963.117 1410.68C966.331 1436.25 959.358 1462.05 943.707 1482.51C926.297 1505.36 904.909 1515.3 877.09 1518.95C815.291 1519.96 765.542 1477.93 779.291 1413.56C789.116 1367.56 816.049 1337.17 864.306 1333.44Z"/><path fill="#092228" transform="translate(0 -477)" d="M868.688 1372.18C897.011 1371.78 920.251 1394.5 920.476 1422.83C920.701 1451.15 897.825 1474.25 869.5 1474.29C841.429 1474.33 818.588 1451.71 818.365 1423.64C818.142 1395.57 840.62 1372.59 868.688 1372.18Z"/><path fill="#FDAC24" transform="translate(0 -477)" d="M864.675 1398.9C877.998 1396.34 890.89 1405.01 893.559 1418.31C896.227 1431.61 887.673 1444.57 874.395 1447.35C860.958 1450.17 847.803 1441.49 845.103 1428.03C842.402 1414.57 851.192 1401.49 864.675 1398.9Z"/><path fill="#40B887" transform="translate(0 -477)" d="M283.563 1338.38C404.213 1331.32 398.214 1505.02 277.268 1513.21C225.259 1513.75 193.582 1483.55 186.508 1432.67C206.489 1414.12 207.382 1390.77 224.686 1369.99C240.479 1351.03 259.228 1341.04 283.563 1338.38Z"/><path fill="#092228" transform="translate(0 -477)" d="M278.278 1372.27C290.004 1370.96 299.365 1371.63 310.02 1377.39C322.142 1383.97 330.976 1395.31 334.406 1408.67C342.797 1441.02 320.507 1468.78 289.418 1476.05C276.907 1476.69 266.864 1475.82 255.569 1469.44C244.158 1463.13 235.743 1452.52 232.202 1439.97C228.571 1426.84 230.344 1412.8 237.124 1400.99C245.236 1387.15 263.197 1376.46 278.278 1372.27Z"/><path fill="#FDAC24" transform="translate(0 -477)" d="M278.006 1394.91C311.801 1394.66 322.516 1436.67 287.992 1450.25C272.099 1451.67 256.757 1442.89 256.288 1425.34C255.874 1409.84 267.852 1404.68 277.188 1395.71L278.006 1394.91Z"/><path fill="#40B887" transform="translate(0 -477)" d="M243.417 687.434C263.334 686.574 283.033 691.869 299.836 702.597C324.033 718.226 334.536 736.829 340.354 764.287C328.142 755.447 283.669 722.991 269.149 744.222C258.926 759.17 284.083 769.989 294.585 775.687C305.584 782.229 314.234 788.687 323.197 797.727C264.31 808.351 226.558 770.258 207.439 719.846C204.833 712.975 197.384 702.204 193.167 695.987C210.879 691.333 225.094 688.655 243.417 687.434Z"/><path fill="#40B887" transform="translate(0 -477)" d="M843.246 775.285C883.361 775.807 858.59 841.861 848.638 861.502C833.435 891.507 813.161 911.218 787.32 931.776C783.954 934.036 785.516 933.954 782.521 933.459C778.153 915.405 772.995 897.55 767.064 879.948C789.225 864.074 805.495 846.155 813.619 819.648C818.983 802.147 823.288 780.504 843.246 775.285Z"/><path fill="#FDAC24" transform="translate(0 -477)" d="M233.639 1226.33C257.918 1223.85 292.161 1227.47 316.998 1228.22C328.147 1228.56 352.406 1229.02 362.675 1230.53C369.996 1231.64 377.102 1233.87 383.745 1237.14C389.25 1239.9 392.779 1241.74 394.691 1247.48C393.825 1262.57 371.452 1260.33 360.547 1260.25C315.118 1259.77 268.075 1261.86 222.572 1258.52C215.707 1258.01 198.273 1252.85 197.765 1244.56C196.859 1229.8 223.932 1227.6 233.639 1226.33Z"/><path fill="#40B887" transform="translate(0 -477)" d="M732.049 598.716L733.31 599.322C754.658 643.865 752.435 699.359 711.929 731.671C710.21 733.042 709.357 732.555 707.66 732.04C699.315 717.562 739.231 667.465 703.111 666.69C679.728 677.091 676.064 710.497 673.469 732.756C669.595 715.576 666.488 702.744 668.687 684.913C673.554 645.447 702.773 621.391 732.049 598.716Z"/><path fill="#40B887" transform="translate(0 -477)" d="M613.844 1252.06C623.514 1262.87 611.334 1303.06 614.622 1315.04C620.622 1322.55 631.672 1322.99 640.41 1324.15C653.956 1325.95 682.575 1335.74 667.566 1353.64C660.531 1362.03 651.803 1361.7 641.705 1362.83C630.567 1363.3 613.272 1362.85 602.119 1360.64C591.65 1358.57 592.6 1343.05 589.336 1334.72C587.111 1329.04 584.918 1325.41 581.727 1319.94C583.678 1297.16 583.612 1285.21 582.651 1262.34C593.958 1258.99 602.796 1256.21 613.844 1252.06Z"/><path fill="#FDAC24" transform="translate(0 -477)" d="M891.897 1008.29C902.397 1008.06 909.621 1014.31 906.161 1025.53C903.249 1034.98 882.704 1042.17 873.261 1046.3C871.39 1047.16 872.404 1046.99 870.198 1046.66C868.365 1034.77 866.279 1028.98 858.667 1019.84C870.287 1014.43 879.349 1010.5 891.897 1008.29Z"/><path fill="#FDAC24" transform="translate(0 -477)" d="M714.338 1072.07C715.268 1072.06 716.138 1072.5 717.119 1072.84C723.29 1079.66 727.453 1090.33 722.589 1098.87C719.546 1104.22 713.866 1104.55 708.398 1105.78C705.856 1106.37 703.849 1107.18 701.438 1106.41L701.77 1101.95C702.641 1090.79 702.065 1087.23 699.378 1076.3L714.338 1072.07Z"/><path fill="#FAF1DE" transform="translate(0 -477)" d="M543.84 1267.55C547.404 1267.13 548.361 1266.96 552.055 1267.28C559.172 1271.78 557.327 1298.67 555.151 1304.11L553.565 1304.42C549.431 1303.46 544.92 1302.71 540.72 1301.92C540.981 1293.81 538.242 1273.08 540.253 1268.35L543.84 1267.55Z"/></g></svg>