<?xml version="1.0" encoding="utf-8" ?><svg xmlns="http://www.w3.org/2000/svg" xmlns:xlink="http://www.w3.org/1999/xlink" width="862" height="527" viewBox="0 0 862 527"><clipPath id="mascot-thinking-bubble-cl_39"><rect width="862" height="527"/></clipPath><g clip-path="url(#mascot-thinking-bubble-cl_39)"><path fill="#08262B" transform="translate(-1096 -753)" d="M1439.54 829.823C1443.24 829.828 1448.15 830.266 1449.83 834.11C1458.05 852.848 1462.71 880.102 1458.03 900.075C1452.54 923.506 1436.67 930.723 1418.39 941.521C1423.91 948.8 1434.21 959.226 1438.66 966.918C1450.9 988.067 1453.78 1000.88 1471.2 1018.59C1488.49 990.033 1491.62 978.25 1521.89 993.586C1524.76 995.041 1536.38 993.615 1542.02 996.279C1546.7 998.508 1550.23 1002.6 1551.74 1007.56C1558.09 1028.3 1527.58 1034.35 1513.64 1038.41C1502.66 1066.24 1494.17 1083.37 1460.3 1074.82C1446.77 1116.12 1436.62 1125.74 1401.69 1148.88C1399.78 1156.71 1398.13 1170.29 1396.85 1178.64C1403.87 1181.73 1410.44 1184.6 1416.04 1189.84C1437.62 1210.04 1415.39 1230.85 1392.07 1230.11C1374.65 1229.56 1358.22 1227 1345.53 1214.56C1344.56 1204.96 1349.33 1173.94 1345.34 1169.15L1343.71 1169.93C1336.39 1181.77 1338.96 1203.64 1333.9 1216.11C1326.9 1233.36 1287.35 1236.61 1272.12 1229.81C1260.2 1224.49 1256.94 1211.44 1263.33 1200.37C1269.86 1188.84 1279.53 1186.43 1291.17 1183.03L1290.47 1162.22C1281.59 1160.18 1275.92 1157.62 1267.51 1154.07C1242.02 1141.65 1228.33 1125.93 1218.88 1099.7C1188.35 1103.99 1180.03 1087.88 1166.99 1064.22C1153.57 1063.51 1114.05 1058.72 1129.25 1031.92C1133.5 1024.42 1146.18 1022.73 1154.66 1022.17C1179.65 1003.66 1192.45 1019.91 1207.04 1040.87C1219.09 1025.6 1220.64 1011.97 1227.49 994.121C1231.34 984.084 1234.53 977.683 1239.7 968.337C1229.41 969.677 1218.97 969.44 1208.75 967.634C1178.11 961.992 1166.11 941.792 1153.75 915.849C1151.71 911.431 1138.83 903.142 1142.57 897.299C1154.48 878.734 1199.36 876.482 1216.93 885.078C1240.16 896.439 1248.95 914.165 1257.02 935.563C1264.12 923.276 1288.7 888.415 1290.05 877.559C1300.24 795.035 1317.8 862.644 1349.79 883.372C1354.1 886.163 1380.07 909.045 1385.56 909.008C1387.26 906.03 1386.14 902.032 1386.57 898.158C1390.65 861.565 1415.84 849.724 1439.54 829.823Z"/><path fill="#43B682" transform="translate(-1096 -753)" d="M1310.22 868.542C1318.15 874.702 1325.96 885.956 1332.49 891.196C1368.42 919.888 1407.14 946.113 1430.44 986.984C1453.08 1026.68 1454.85 1077.35 1422.69 1112.4C1412.08 1123.96 1402.36 1129.46 1388.92 1136.95C1386.6 1145.49 1377.43 1181.7 1381.11 1190.42C1382.47 1193.65 1404.69 1197.93 1408.61 1207.02C1404.96 1221.17 1370.9 1210.92 1361.85 1208.29C1361.93 1194.13 1368.64 1158.46 1362.43 1148.96C1357.34 1145.63 1337.17 1150.1 1330.6 1151.39C1324.49 1164.76 1321.7 1195.31 1319.56 1211.24C1311.72 1214.45 1301.33 1217.72 1292.93 1218.66C1283.06 1219.76 1276.46 1218.31 1276.48 1207.26C1285.88 1198.91 1300.78 1200.45 1305.98 1191.57C1310.51 1183.83 1305.51 1158.58 1303.28 1150.06C1297.51 1146.76 1286.19 1143.6 1279.68 1141.02C1252.04 1130.04 1243.86 1116.75 1232.22 1091.02C1239.21 1084.5 1257.23 1067.15 1253.54 1056.82C1244.84 1049.22 1231.45 1071.46 1224.42 1077.57C1197.41 1101.03 1189.84 1070.99 1176.43 1053.13C1168.22 1042.19 1151.61 1054.54 1142.8 1045.47C1141.71 1041.94 1141.4 1043.41 1142.64 1040.75C1147.69 1037.23 1153.31 1036.89 1156.88 1034.93C1184.15 1019.99 1182.7 1038.74 1199.49 1053.19C1213.32 1065.1 1234.67 1027.42 1241.17 1016.85C1241.04 1015.16 1240.58 1009.2 1241.04 1007.72C1251.87 972.806 1275.79 941.907 1293.06 910.142C1301.24 895.107 1305.6 884.02 1310.22 868.542Z"/><path fill="#08262B" transform="translate(-1096 -753)" d="M1383.96 995.621C1407.16 1004.91 1364.92 1048.85 1317.12 1022.63C1313.31 1019.04 1309.6 1014.47 1311.47 1008.9C1321.26 1001.6 1330.2 1018.74 1347.09 1017.39C1364.83 1015.97 1372.25 1007.45 1383.96 995.621Z"/><path fill="#08262B" transform="translate(-1096 -753)" d="M1369.69 960.776C1385.44 962.281 1385.7 974.491 1374.39 983.254C1358.29 979.431 1359.71 970.905 1369.69 960.776Z"/><path fill="#08262B" transform="translate(-1096 -753)" d="M1317.3 969.492C1322.45 967.82 1327.99 970.621 1329.7 975.764C1331.41 980.908 1328.65 986.467 1323.52 988.213C1318.33 989.976 1312.7 987.181 1310.98 981.985C1309.25 976.789 1312.09 971.181 1317.3 969.492Z"/><path fill="#43B682" transform="translate(-1096 -753)" d="M1182.68 897.232C1213.75 895.33 1227.58 906.734 1238.3 934.795C1230.1 929.291 1212 916.337 1203.01 924.185C1200.03 931.925 1203.67 933.793 1209.34 938.365C1216.64 942.343 1224.27 946.195 1230.21 952.07C1186.73 952.84 1183.24 933.132 1164.95 901.391C1171.45 899.511 1176.02 898.51 1182.68 897.232Z"/><path fill="#43B682" transform="translate(-1096 -753)" d="M1501.74 1001.75C1505.98 1002.57 1511.88 1004.9 1516.28 1006.08C1522.16 1007.66 1533.11 1007.94 1536.8 1012.77C1534.21 1021.33 1511.13 1021.15 1506.97 1024.79C1498.81 1031.92 1494.43 1048.24 1487.6 1058.31C1461.17 1077.06 1463.77 1049.16 1463.42 1030.91C1484.82 1043.45 1485.6 1013.51 1501.74 1001.75Z"/><path fill="#43B682" transform="translate(-1096 -753)" d="M1405.76 916.842C1399.76 885.186 1412.76 869.756 1437.19 852.761C1444.5 875.726 1450.79 894.116 1431.34 913.329C1428.52 916.196 1424.97 918.949 1421.83 921.523L1425.19 907.948C1427.44 901.479 1432.66 889.778 1423.88 886.786C1411.45 889.191 1407.85 906.207 1405.76 916.842Z"/><path fill="#52B48C" transform="translate(-1096 -753)" d="M1425.19 907.948C1427.65 911.588 1427.42 911.567 1431.34 913.329C1428.52 916.196 1424.97 918.949 1421.83 921.523L1425.19 907.948Z"/><path fill="#08262B" transform="translate(-1096 -753)" d="M1728.82 958.044C1735.49 959.658 1744.93 962.884 1744.73 970.977C1742.1 974.652 1743.09 973.473 1738.43 975.503C1731.71 974.214 1722.89 971.222 1722.71 963.252C1725.13 959.346 1724.36 960.562 1728.82 958.044Z"/><path fill="#08262B" transform="translate(-1096 -753)" d="M1756.58 970.457C1767.26 971.73 1778.8 978.596 1771.96 990.749C1762.03 988.122 1749.33 982.488 1756.58 970.457Z"/><path fill="#08262B" transform="translate(-1096 -753)" d="M1497.42 1108.23C1503.38 1108.13 1511.85 1108.7 1511.1 1116.56C1508.62 1119.97 1507.77 1120.15 1503.97 1122.3C1498.71 1123.84 1495.29 1124.79 1490.87 1120.64C1488.34 1113.82 1492.02 1111.49 1497.42 1108.23Z"/><path fill="#08262B" transform="translate(-1096 -753)" d="M1534.8 1175.48C1544.97 1176.4 1551.83 1188.95 1546.24 1198.29C1534.75 1196.88 1528.26 1185.94 1534.8 1175.48Z"/><path fill="#08262B" transform="translate(-1096 -753)" d="M1558.39 1199.93C1565.63 1199.78 1574.03 1202.65 1576.58 1210.05C1576.15 1214.28 1576.5 1212.77 1573.72 1216.53C1566.54 1216.29 1557.48 1214.14 1555.06 1206.49C1555.8 1201.98 1555.21 1203.64 1558.39 1199.93Z"/><path fill="#08262B" transform="translate(-1096 -753)" d="M1640.05 962.288C1644.15 963.162 1644.37 963.555 1646.08 966.043L1645.56 968.774C1641.24 974.65 1636.83 976.906 1630.49 980.122C1626.94 979.534 1626.94 979.231 1624.16 977.082C1621.65 968.864 1633.96 964.176 1640.05 962.288Z"/><path fill="#08262B" transform="translate(-1096 -753)" d="M1783.22 991.671C1794.21 993.288 1802.98 1000.29 1796.93 1011.78C1786.39 1012.06 1778.22 1001.4 1783.22 991.671Z"/><path fill="#08262B" transform="translate(-1096 -753)" d="M1663.48 954.125C1669.21 953.422 1671.92 953.317 1676.5 956.794C1678.15 960.123 1677.99 958.465 1677.24 961.908C1674.81 965.097 1673.67 965.236 1669.84 966.939C1664.4 967.983 1662.13 968.465 1657.55 965.506C1655.51 962.121 1655.94 963.929 1656.4 959.848C1658.51 956.353 1659.69 956.14 1663.48 954.125Z"/><path fill="#08262B" transform="translate(-1096 -753)" d="M1626.64 1212.04C1632.53 1211.9 1644.12 1212.34 1642.87 1220.82C1640.82 1223.93 1639.67 1224.12 1636.32 1225.69C1630.57 1225.42 1621.4 1224.31 1620.66 1217.41C1622.14 1214.1 1623.45 1213.8 1626.64 1212.04Z"/><path fill="#08262B" transform="translate(-1096 -753)" d="M1608.52 978.976C1611.19 979.49 1611.39 979.803 1613.8 981.151C1618.45 988.434 1609.09 994.491 1603.57 998.114C1598.35 997.725 1595.99 996.609 1595.71 991.481C1598.72 984.986 1602.71 982.865 1608.52 978.976Z"/><path fill="#08262B" transform="translate(-1096 -753)" d="M1492.04 1125.48C1497.94 1127.77 1505.39 1131.86 1507.21 1138.29C1506.4 1142.48 1506.9 1141 1503.66 1144.48C1494.1 1143.5 1480.21 1135.35 1492.04 1125.48Z"/><path fill="#08262B" transform="translate(-1096 -753)" d="M1591.75 1210.08C1598.32 1209.55 1608.27 1209.82 1610.94 1216.92C1610.35 1220.49 1610 1220.48 1607.7 1223.17C1600.68 1222.84 1592.48 1223.37 1588.67 1216.67C1589.23 1212.39 1588.89 1213.87 1591.75 1210.08Z"/><path fill="#08262B" transform="translate(-1096 -753)" d="M1569.31 1034.27C1571.98 1034.78 1571.78 1034.82 1573.84 1036.66C1576.76 1044.34 1573.36 1054.29 1566.88 1059.11C1565 1058.42 1564.69 1058.06 1562.97 1056.99C1557.98 1049.51 1564.35 1040.09 1569.31 1034.27Z"/><path fill="#08262B" transform="translate(-1096 -753)" d="M1659.99 1212.15C1666.18 1211.86 1674.49 1211.52 1677.36 1217.91C1676.82 1221.54 1675.77 1222.1 1673.18 1224.71C1666.43 1226.57 1658.7 1226.03 1656.03 1218.55C1657.11 1214.24 1656.61 1215.69 1659.99 1212.15Z"/><path fill="#08262B" transform="translate(-1096 -753)" d="M1817.72 1152.84L1822.19 1154.82C1828.15 1162.16 1821.71 1169.7 1816.32 1175.1L1811.63 1173.42C1805.86 1166.33 1812.04 1157.91 1817.72 1152.84Z"/><path fill="#08262B" transform="translate(-1096 -753)" d="M1826.3 1119.33C1838.24 1123.91 1834.28 1135.22 1827.67 1142.57C1814.52 1139.26 1820.34 1126.41 1826.3 1119.33Z"/><path fill="#08262B" transform="translate(-1096 -753)" d="M1695.83 953.02C1701.93 953.317 1711.85 953.983 1710.51 962.44C1708.11 965.631 1707.73 965.613 1703.9 967.225C1698.16 966.852 1689.87 965.123 1689.62 958.144C1691.32 954.858 1692.51 954.662 1695.83 953.02Z"/><path fill="#08262B" transform="translate(-1096 -753)" d="M1528.38 1096.08C1532.92 1095.61 1539.1 1094.3 1540.26 1099.78C1538.88 1104.44 1535.7 1107.19 1532.37 1110.9C1528.15 1112.42 1526.03 1113.42 1522.21 1110.67C1519.65 1104.53 1523.99 1099.74 1528.38 1096.08Z"/><path fill="#08262B" transform="translate(-1096 -753)" d="M1552.18 1067.61C1554.53 1067.72 1555.09 1067.91 1557.41 1068.37C1564.21 1074.85 1558.51 1082.64 1553.58 1088.43C1550.89 1088.15 1551.52 1088.22 1548.92 1087.31C1542.22 1080.81 1546.68 1072.98 1552.18 1067.61Z"/><path fill="#08262B" transform="translate(-1096 -753)" d="M1729.69 1208.3C1734.98 1208.12 1744.57 1206.44 1744.14 1214.14C1741.95 1217.52 1741.25 1217.72 1737.79 1220.03C1731.67 1221.7 1722.97 1222.81 1723.28 1213.75C1725.35 1210.21 1725.83 1210.21 1729.69 1208.3Z"/><path fill="#08262B" transform="translate(-1096 -753)" d="M1585.85 1004.36C1597.42 1009.7 1587.66 1021.57 1581.98 1027C1568.47 1020.59 1578.71 1010.53 1585.85 1004.36Z"/><path fill="#08262B" transform="translate(-1096 -753)" d="M1694.48 1211.18C1700.6 1210.78 1709.44 1210.45 1710.05 1218.27C1708.64 1221.7 1707.32 1222.23 1704.31 1224.39C1698.45 1224.3 1690.34 1224.39 1689.22 1217.25C1690.57 1213.78 1691.54 1213.41 1694.48 1211.18Z"/><path fill="#08262B" transform="translate(-1096 -753)" d="M1797.46 1182.41C1800.01 1182.46 1801.41 1183.36 1803.73 1184.42C1808.32 1190.73 1800.5 1196.43 1796.01 1201C1793.01 1200.94 1792.88 1200.72 1789.98 1199.72C1783.68 1192.9 1791.92 1186.45 1797.46 1182.41Z"/><path fill="#08262B" transform="translate(-1096 -753)" d="M1515.79 1147.58C1525.97 1147.01 1534.56 1155.66 1529.11 1165.82C1518.16 1165.03 1511.34 1158.71 1515.79 1147.58Z"/><path fill="#08262B" transform="translate(-1096 -753)" d="M1817.71 1051.35C1829.38 1053.62 1830.87 1063.79 1827.25 1073.62C1814.55 1072.36 1813.75 1061.28 1817.71 1051.35Z"/><path fill="#08262B" transform="translate(-1096 -753)" d="M1764.86 1200.86C1769.27 1200.84 1772.45 1200.71 1776.22 1202.81C1777.9 1205.54 1777.57 1204.05 1776.81 1207.52C1774.32 1211.03 1771.7 1211.95 1767.82 1214.02C1763.56 1214.96 1761.45 1215.41 1757.82 1212.82C1755.16 1206.43 1760.06 1203.85 1764.86 1200.86Z"/><path fill="#08262B" transform="translate(-1096 -753)" d="M1826 1084.89C1836.98 1088.92 1836.52 1099.69 1830.14 1107.84C1819.7 1102.5 1818.08 1093.46 1826 1084.89Z"/><path fill="#08262B" transform="translate(-1096 -753)" d="M1805.44 1020.38C1816.43 1021.58 1819.49 1031.61 1814.51 1040.53C1803.3 1039.02 1799.6 1029.65 1805.44 1020.38Z"/></g></svg>