<?xml version="1.0" encoding="utf-8" ?><svg xmlns="http://www.w3.org/2000/svg" xmlns:xlink="http://www.w3.org/1999/xlink" width="651" height="694" viewBox="0 0 651 694"><clipPath id="mascot-thumbs-up-cl_1a"><rect width="651" height="694"/></clipPath><g clip-path="url(#mascot-thumbs-up-cl_1a)"><path fill="#01090A" transform="translate(-1322 -69)" d="M1586.09 159.853C1586.74 160.026 1587.38 160.198 1588.03 160.37C1599.72 164.697 1605.86 181.251 1616.88 192.579C1647.96 224.505 1682.62 245.894 1711.25 280.297C1728.98 301.605 1738.1 315.933 1750.96 340.156C1762.22 316.95 1757.41 297.768 1757.29 273.087C1757.18 250.154 1770.14 236.396 1793.65 238.716C1820.46 241.361 1834.11 264.779 1838.35 288.93C1841.23 304.799 1839.14 318.901 1837.37 334.658C1880.18 330.234 1925.32 339.546 1909.71 394.99C1926.81 421.335 1924.18 435.443 1907.03 460.639C1912.16 490.26 1898.08 510.136 1870.21 519.089C1847.01 526.543 1833.97 523.165 1810.93 520.19C1787.32 517.142 1780.9 519.051 1759.54 507.919C1753.62 515.307 1748.63 523.533 1742.69 531.123C1727.46 550.579 1709.14 560.221 1688.49 572.777C1688.17 584.232 1687.35 593.909 1686.29 605.297C1691.7 607.378 1697.04 609.42 1702.31 612.003C1730.33 626.069 1733.88 655.545 1700.18 664.435C1690.56 667.426 1679.02 665.657 1669.92 665.161C1623.19 662.612 1630.17 632.706 1626.94 597.802C1626.67 594.865 1624.77 593.409 1622.24 592.042C1616.98 592.467 1618.29 591.645 1614.45 594.332C1613.34 606.981 1611.67 638.319 1607.46 647.566C1599.48 665.115 1548.34 674.337 1531.53 664.049C1517.55 655.497 1509.67 644.535 1517.85 629.346C1524.9 616.235 1539.14 611.514 1552.1 607.637C1551.86 599.781 1550.52 590.795 1549.54 582.903C1528.05 574.188 1516.26 568.52 1499.27 552.888C1497.4 556.531 1494.85 561.187 1492.5 564.563C1485.07 575.429 1473.53 582.791 1460.55 584.944C1429.39 589.833 1390.97 565.66 1417.56 532.291C1385.75 512.351 1373.16 478.757 1389.6 443.925C1405.8 409.593 1436.97 395.548 1471.02 383.611C1478.91 361.092 1488.11 342.694 1499.1 321.682C1491.72 322.788 1484.6 323.812 1478.29 323.663C1432.84 322.592 1411.15 295.911 1395.75 256.455C1391 244.298 1360.18 233.09 1399.36 221.441C1428.98 212.638 1450.72 211.586 1477.82 226.126C1503.55 240.859 1511.11 260.176 1518.64 287.092C1537.32 266.066 1560.22 228.996 1570.31 202.81C1575.91 188.27 1573.78 168.263 1586.09 159.853Z"/><path fill="#3FB584" transform="translate(-1322 -69)" d="M1592.85 192.676C1652.02 255.696 1703.26 274.247 1739.37 361.101C1730.43 381.761 1725.69 403.43 1733.29 425.338C1735.33 431.221 1741.61 443.539 1749.27 441.094C1756.84 431.372 1744.53 405.977 1747.5 391.281C1752.97 366.988 1768.45 350.966 1775.29 326.508C1780.64 307.397 1767.28 271.888 1782.43 256.819C1790.53 248.755 1810.78 264.884 1815.43 273.331C1827.04 294.396 1821.53 318.938 1816.29 341.118C1781.7 349.368 1762.37 376.459 1788.43 407.621C1771.78 429.292 1771.07 442.918 1789.28 463.557C1781.53 479.368 1780.68 484.366 1785.81 501.252C1768.98 494.86 1763.85 493.05 1756.84 476.019C1754.58 470.529 1749.58 462.512 1742.86 462.727C1730.6 470.063 1740.31 485.519 1745.08 494.52C1734.42 516.656 1719.41 534.61 1698.31 547.133C1686.78 554.84 1674.01 555.761 1672.2 571.595C1670.44 586.981 1668.79 600.914 1669.04 616.239C1675.55 621.297 1686.27 625.303 1694.14 628.288C1711.29 633.973 1709.42 647.023 1691.89 648.968C1679.96 650.291 1662.02 649.635 1652.16 642.05C1646.94 638.03 1646.86 633.254 1646.34 627.262C1645.92 617.785 1645.95 570.903 1632.57 571.185C1609.08 571.459 1594.09 571.083 1595.31 600.741C1596.93 640.078 1591.5 652.536 1549.22 651.706C1544.45 651.612 1526.88 646.686 1532.17 639.052C1538.01 630.618 1558.31 624.61 1568.13 621.041C1571.32 604.306 1569.55 583.638 1562.18 568.182C1541.41 558.928 1530.81 558.681 1511.55 540.7C1485.94 516.789 1477.68 495.35 1475.78 461.338C1481.38 458.411 1484.04 457.044 1486.76 451.38C1484.76 434.694 1410.77 457.125 1460.16 490.409C1467.35 512.393 1472.59 520.867 1484.99 540.086C1484.24 542.321 1483.44 544.537 1482.58 546.733C1472.75 571.696 1438.18 577.643 1425.59 553.271C1421.26 544.883 1444.36 544.765 1448.76 537.183C1447.46 523.647 1410.6 514.616 1403.65 493.6C1387.26 444.066 1434.75 411.551 1476.67 400.419C1488.54 397.266 1497.11 367.603 1501.93 357.957C1520.56 314.653 1552.66 279.49 1574.31 237.83C1582.24 222.627 1587.2 208.76 1592.85 192.676Z"/><path fill="#01090A" transform="translate(-1322 -69)" d="M1672.72 347.637C1674.52 347.839 1676.31 348.235 1678.08 348.576C1692.56 360.44 1659 380.359 1648.43 383.867C1621.33 392.867 1601.01 388.872 1575.96 377.361C1570.96 374.298 1565.09 367.766 1567.84 361.643C1575.65 356.423 1586.64 366.631 1594.19 368.997C1627.51 379.446 1649.11 371.622 1672.72 347.637Z"/><path fill="#01090A" transform="translate(-1322 -69)" d="M1648.81 310.516C1653.14 309.303 1657.79 310.541 1660.94 313.747C1664.1 316.954 1665.26 321.621 1663.97 325.93C1662.69 330.239 1659.16 333.51 1654.77 334.466C1648.24 335.887 1641.77 331.862 1640.16 325.382C1638.55 318.903 1642.38 312.316 1648.81 310.516Z"/><path fill="#01090A" transform="translate(-1322 -69)" d="M1587.52 317.527C1593.91 315.674 1600.6 319.317 1602.5 325.689C1604.41 332.06 1600.82 338.778 1594.47 340.739C1588.04 342.725 1581.22 339.086 1579.29 332.637C1577.36 326.188 1581.06 319.403 1587.52 317.527Z"/><path fill="#3FB584" transform="translate(-1322 -69)" d="M1852.89 350.396C1890.49 348.182 1901.79 363.778 1891 399.05C1909.24 425.963 1907.19 432.185 1888.3 457.812C1888.72 459.396 1889.12 460.987 1889.5 462.583C1902.87 520.453 1801.52 513.826 1799.66 486.403C1799.44 482.709 1800.79 479.094 1803.38 476.45C1804.59 475.203 1807.07 473.688 1808.57 473.776C1822.21 474.573 1832.53 476.235 1846.4 475.829C1854.13 474.798 1864.34 473.35 1866.06 464.222C1856.71 450.585 1800.12 469.763 1793.41 438.471C1792.48 434.291 1793.42 429.915 1795.97 426.476C1810.25 407.608 1846.5 430.736 1859.61 411.608C1861.11 409.422 1860.38 408.054 1859.72 405.87C1850.47 396.633 1819.24 403.785 1803.27 398.27C1772.42 363.63 1829.1 353.54 1852.89 350.396Z"/><path fill="#3FB584" transform="translate(-1322 -69)" d="M1432.71 233.481C1472.97 233.627 1488.7 250.066 1499.36 287.019C1488.44 278.128 1468.84 262.049 1454.11 268.907C1448.66 276.144 1459.97 282.768 1465.42 286.301C1474.45 291.993 1481.68 296.839 1489.43 304.223C1478.81 305.043 1470.8 305.7 1460.33 303.322C1423.75 295.011 1422.95 264.262 1406.94 239.324L1406.07 237.989C1416.26 235.178 1422.26 234.179 1432.71 233.481Z"/></g></svg>