<?xml version="1.0" encoding="utf-8" ?><svg xmlns="http://www.w3.org/2000/svg" xmlns:xlink="http://www.w3.org/1999/xlink" width="842" height="612" viewBox="0 0 842 612"><clipPath id="mascot-watering-cl_21"><rect width="842" height="612"/></clipPath><g clip-path="url(#mascot-watering-cl_21)"><path fill="#01090A" transform="translate(-1206 -1347)" d="M1731.12 1383.92C1743.75 1384.35 1744.27 1390.89 1748.17 1401.37C1760.12 1433.54 1787.84 1459.75 1810.94 1484.76C1815.74 1424.85 1851.79 1396.37 1912.35 1401.44C1925.31 1402.53 1940.87 1405.51 1928.02 1422.86C1922.73 1430 1921.83 1440.15 1919.08 1448.56C1906.39 1492.72 1885.16 1510.03 1840.31 1516.65C1855.22 1537.12 1869.89 1556.75 1881.38 1579.4C1920.56 1656.65 1912.25 1748.22 1829.95 1790.69C1827.29 1814.6 1829.54 1835.22 1829.11 1858.82C1828.55 1889.15 1781.85 1893.35 1759.58 1891.2C1748.84 1890.17 1742.37 1883.22 1736.7 1875.05L1734.91 1875.63C1711.56 1883.19 1686.03 1889.64 1662.82 1877.92C1647.33 1870.08 1651.73 1853.51 1659.29 1841.47C1668.15 1833.39 1672.02 1832.65 1683.23 1828.52C1682.47 1816.18 1681.12 1806.34 1679.24 1794.17C1668.06 1789.62 1662.75 1787.12 1652.58 1780.63L1651.33 1782.23C1647.23 1787.54 1645.23 1789.97 1639.39 1793.86C1618.26 1807.97 1589.2 1797.46 1578.52 1775.33C1574.66 1767.34 1574.11 1761.44 1573.35 1752.71C1559.95 1757.81 1546.31 1763.53 1532.51 1767.3C1515.02 1772.09 1503.37 1769.26 1497.12 1751.49C1473.67 1735.29 1450.08 1719.3 1426.36 1703.51C1419.42 1706.39 1399.38 1715.03 1397.19 1703.69C1392.05 1677.17 1422.87 1612 1440.37 1673.48C1454.89 1678.78 1466.62 1684.59 1480.67 1690.89C1466.68 1654.48 1465.48 1629.57 1501.81 1605.67C1521.2 1592.91 1529.15 1622.19 1535.07 1635.86C1554.09 1627.69 1573.42 1620.27 1593.02 1613.62C1603.38 1551.36 1635.62 1510.89 1674.64 1463.47C1686.15 1449.48 1699.01 1435.79 1710.02 1421.45C1718.23 1410.76 1720.26 1393.28 1731.12 1383.92ZM1744.51 1843.64C1749.38 1841.37 1754.44 1838.87 1759.45 1836.98C1761.38 1835.61 1762.82 1834.74 1762.71 1832.04C1761.8 1810.48 1766.35 1807.07 1744.45 1806.75C1744.47 1817.87 1745.04 1832.9 1744.51 1843.64Z"/><path fill="#3FB584" transform="translate(-1206 -1347)" d="M1733.41 1416.03C1741.48 1423.15 1749.31 1443.08 1757.36 1452.17C1818.2 1520.95 1905.37 1596.98 1883.25 1699.43C1876.38 1731.25 1857.88 1755.99 1829.39 1771.49C1825.27 1773.73 1818.46 1779.05 1815.85 1783.21C1805.21 1809.31 1816.27 1836.75 1809.97 1865.76C1796.8 1872.61 1763.26 1882.18 1753.03 1868.57C1743.83 1856.35 1780.92 1852.26 1780.37 1840.77C1779.92 1826.83 1780.87 1804.13 1773.65 1792.28C1771.27 1788.38 1735.45 1787.88 1731.23 1793.83C1719.13 1810.58 1737.02 1845.02 1723.39 1860.74C1716.59 1868.57 1668.89 1875.69 1669.51 1857.04C1673.41 1847.47 1689.39 1843.81 1699.7 1838.94C1702.76 1821.78 1697.93 1798.81 1692.31 1782.55C1652.93 1761.25 1643.62 1759.71 1620.77 1716.8L1630 1706.77C1645.87 1700.33 1670.92 1712.36 1686.76 1716.99C1694.62 1719.26 1702.66 1720.85 1710.79 1721.76C1744.19 1725.43 1778.18 1716.8 1805.16 1696.61C1810.17 1692.86 1814.15 1686.02 1808.83 1680.78C1806.89 1680.5 1804.04 1680.45 1802.51 1681.51C1764.43 1707.84 1725.87 1715.54 1681.42 1700.2C1673.36 1697.42 1664.18 1692.2 1655.39 1690.31C1645.05 1688.08 1631.07 1691.73 1621.09 1686.88C1610.71 1681.06 1614.88 1667.61 1613.33 1659.2C1612.7 1655.79 1610.08 1655.07 1611.13 1649.03C1615.37 1642.98 1626.53 1646.52 1632.18 1642.89C1636.11 1640.36 1634.06 1636.06 1637.97 1632.17C1648.17 1631.06 1662.86 1646.48 1672.17 1652.5C1678.69 1656.65 1685.75 1659.9 1693.14 1662.16C1718.22 1669.81 1747.73 1664.77 1768.57 1648.17C1774.79 1643.22 1782.5 1637.04 1777.57 1628.49C1768.28 1625.44 1755.33 1642.24 1742.14 1646.84C1720.69 1655.14 1696.31 1651.35 1677.52 1638.17C1660.07 1625.92 1648.04 1610.25 1624.49 1620.54L1610.33 1615.07C1622.91 1564.59 1641.99 1527.05 1677 1488.14C1699.2 1463.48 1716.74 1445.5 1733.41 1416.03Z"/><defs><linearGradient id="mascot-watering-gradient_0" gradientUnits="userSpaceOnUse" x1="1711.5892" y1="1615.493" x2="1686.8889" y2="1591.007"><stop offset="0" stop-color="black"/><stop offset="1" stop-color="#041614"/></linearGradient></defs><path fill="url(#mascot-watering-gradient_0)" transform="translate(-1206 -1347)" d="M1717.01 1594.62C1721.26 1594.86 1721.54 1594.94 1724.45 1597.26C1725.42 1599.31 1726.09 1601.88 1724.97 1603.98C1715.05 1622.58 1696.3 1622.16 1680.14 1615.1C1675.35 1611.02 1671.13 1606.31 1675.34 1600.1C1682.55 1597.78 1690.65 1605.92 1699.44 1607.05C1707.45 1604.81 1711.18 1600.36 1717.01 1594.62Z"/><path fill="#01090A" transform="translate(-1206 -1347)" d="M1659.38 1558.56C1665.53 1556.15 1672.47 1559.13 1674.96 1565.25C1677.45 1571.36 1674.57 1578.34 1668.49 1580.92C1664.48 1582.63 1659.87 1582.04 1656.41 1579.38C1652.96 1576.73 1651.2 1572.42 1651.82 1568.1C1652.43 1563.79 1655.32 1560.14 1659.38 1558.56Z"/><path fill="#01090A" transform="translate(-1206 -1347)" d="M1724.24 1553.45C1728.38 1552.24 1732.85 1553.37 1735.92 1556.39C1739 1559.4 1740.21 1563.85 1739.09 1568.01C1737.97 1572.17 1734.7 1575.41 1730.52 1576.47C1724.21 1578.08 1717.77 1574.33 1716.06 1568.05C1714.34 1561.76 1717.98 1555.26 1724.24 1553.45Z"/><path fill="#F7795D" transform="translate(-1206 -1347)" d="M1509.9 1614.72C1523.39 1620.01 1513.1 1659.05 1550.02 1642.89C1573.63 1632.57 1590.04 1620.37 1615.86 1630.01C1606.88 1634.44 1604.37 1634.91 1594.53 1635.11C1557.4 1635.87 1586.72 1689.33 1598.67 1704.45C1602.74 1702.18 1606.24 1699.65 1610.07 1697.01L1618.64 1701.47C1612.61 1706.36 1607.27 1709.66 1600.7 1713.84L1603.08 1723.94C1581.23 1740.96 1546.34 1752.23 1519.22 1758.72C1510.07 1756.99 1509.55 1752.58 1506.95 1744.79C1480.15 1726.04 1454.15 1707.14 1426.06 1690.38C1420.93 1693.61 1414.98 1698.35 1409.05 1695.58C1404.38 1687.68 1417.14 1665.02 1422.95 1658.41C1426.56 1666.44 1427.89 1672.23 1429.79 1680.76C1440.8 1685.97 1481.33 1706.74 1491.98 1704.34C1505.72 1691.37 1452.6 1652.68 1509.9 1614.72Z"/><path fill="#3FB584" transform="translate(-1206 -1347)" d="M1891.73 1418.39C1898.19 1417.66 1903.8 1418.53 1910.25 1419.21C1901.1 1437.08 1901.28 1457.94 1889.21 1474.17C1876.45 1491.32 1861.81 1494.68 1842.4 1497.58C1849.67 1486.89 1856.98 1479.74 1866.45 1471.08C1870.41 1465.9 1871.49 1461.68 1869.4 1455.5C1859.41 1446.58 1835.23 1476.49 1829.68 1483.37C1835.36 1441.34 1847.61 1423.97 1891.73 1418.39Z"/><path fill="#3FB584" transform="translate(-1206 -1347)" d="M1608.98 1733.88C1615.07 1740.19 1619.17 1751.59 1612.56 1758.51C1607.83 1754.65 1607.09 1747.43 1601.04 1745.78C1593.8 1749 1594.29 1758.33 1598.07 1763.9C1609.54 1780.76 1616.68 1769.84 1626.79 1762.85C1630.88 1762.52 1628.93 1762.05 1632.62 1765.09L1641.07 1772.36C1623.41 1791.53 1602.93 1789.27 1590.7 1764.15C1588.88 1760.43 1588.58 1752.5 1588.22 1748.1C1598.53 1743.28 1601.07 1742.15 1608.98 1733.88Z"/><path fill="#01090A" transform="translate(-1206 -1347)" d="M1295.93 1731.23C1301.68 1730.71 1307.47 1731.12 1313.09 1732.46C1327.8 1736.1 1334.35 1746.03 1341.31 1758.04C1349.28 1747.14 1364.97 1736.6 1376.85 1737.67C1407.53 1740.46 1381.18 1780.79 1362.47 1783.23C1359.52 1783.62 1348.67 1786.88 1347.48 1787.87C1342.97 1802.64 1355.02 1799.7 1365.23 1799.35C1387.63 1798.6 1411.73 1798.23 1403.44 1828.98C1402.09 1834.01 1397.38 1836.01 1393.07 1838.12C1389.69 1852.81 1386.45 1867.53 1383.33 1882.27C1381.98 1886.29 1379.98 1892.94 1374.88 1893.97C1362.03 1896.58 1347.76 1896 1334.7 1896.25C1327.39 1896.37 1308.33 1896.07 1302.52 1891.56C1293.37 1884.44 1288.71 1849.44 1285.39 1838.08L1278.34 1833.05C1257.53 1779.88 1321.4 1806.6 1332.66 1798.1C1333.49 1793.9 1334.56 1789.46 1331.44 1786.29C1309.78 1783.36 1292.75 1770.47 1284.99 1749.61C1281.02 1738.98 1286.08 1734 1295.93 1731.23Z"/><path fill="#F9AA27" transform="translate(-1206 -1347)" d="M1298.81 1838.24C1321.08 1837.7 1360.76 1836.83 1381.78 1839.24L1372.79 1878.78C1371.7 1882.96 1372.81 1881.55 1370.26 1884C1355.12 1885.52 1324.13 1884.95 1308.62 1884.26C1306.54 1875.02 1299.05 1845.41 1298.81 1838.24Z"/><path fill="#F9AA27" transform="translate(-1206 -1347)" d="M1287.13 1811.17L1393.01 1811.25L1393 1826.02L1287.04 1825.99L1287.13 1811.17Z"/><path fill="#3FB584" transform="translate(-1206 -1347)" d="M1295.41 1742.89C1318.98 1742.28 1331.57 1750.33 1334.18 1774.59C1308.75 1772.37 1304.05 1765.63 1295.41 1742.89Z"/><path fill="#3FB584" transform="translate(-1206 -1347)" d="M1371.73 1750.2C1375.15 1750.29 1376.2 1749.99 1378.84 1752.14C1381.79 1762.31 1361.75 1771.94 1354.27 1775.07C1349.98 1775.18 1349.06 1775.14 1347.15 1771.52C1347.98 1760.44 1361.95 1752.53 1371.73 1750.2Z"/><path fill="#7CBFFA" transform="translate(-1206 -1347)" d="M1337.67 1686.87C1349.93 1691.84 1338.25 1713.03 1324.29 1714.5C1307.37 1703.6 1326.46 1690.97 1337.67 1686.87Z"/><path fill="#7CBFFA" transform="translate(-1206 -1347)" d="M1370.8 1654.2C1375.29 1654.98 1379.85 1655.25 1383.48 1657.75C1385.39 1660.86 1384.94 1659.18 1384.6 1663.03C1381.02 1668.85 1375.87 1671.39 1370 1674.7C1364.57 1675.41 1359.1 1675.36 1356.01 1670.19C1354.36 1660.5 1363.18 1656.45 1370.8 1654.2Z"/><path fill="#7CBFFA" transform="translate(-1206 -1347)" d="M1374.74 1693.81C1376.38 1693.8 1375.74 1693.64 1377.29 1694.28C1378.98 1694.97 1379.37 1696.11 1379.93 1697.86C1381.73 1703.49 1378.54 1712.44 1375.14 1716.89C1372.29 1720.62 1369.12 1721.25 1364.65 1721.85C1347.61 1713.22 1366.03 1699.64 1374.74 1693.81Z"/></g></svg>