<?xml version="1.0" encoding="utf-8" ?><svg xmlns="http://www.w3.org/2000/svg" xmlns:xlink="http://www.w3.org/1999/xlink" width="672" height="706" viewBox="0 0 672 706"><clipPath id="mascot-with-clock-plant-cl_5"><rect width="672" height="706"/></clipPath><g clip-path="url(#mascot-with-clock-plant-cl_5)"><path fill="#100E16" transform="translate(-711 -1342)" d="M942.435 1630.62L943.01 1629.11C944.398 1625.37 948.705 1610.88 947.879 1607.95C943.902 1593.86 936.511 1583.81 933.652 1568.62C920.254 1506.24 961.349 1463.42 1015.24 1440.2C1023.69 1436.56 1047.02 1425.49 1056.2 1426.46C1061.79 1427.05 1063.37 1449.82 1063.87 1454.89C1067.07 1487.01 1067.17 1522.52 1051.94 1551.86C1034.04 1585.56 1005.57 1597.04 972.751 1611.28C967.072 1620.16 961.821 1639.44 961.992 1649.67C958.083 1666.98 959.113 1712.98 962.614 1730.5L967.455 1709.69C969.471 1701.77 973.472 1693.52 978.39 1687.02C989.059 1672.91 1004.8 1664.22 1022.29 1662.07C1033.58 1660.69 1063.88 1659.12 1072.37 1667.71C1073.45 1668.8 1074.43 1670.2 1074.36 1671.77C1074.07 1678.68 1066.59 1688.88 1063.04 1694.96C1026.26 1757.9 992.692 1725.54 974.734 1742.52C960.504 1755.97 967.424 1781.91 968.205 1798.85C968.595 1807.3 967.719 1815.78 967.779 1824.23C967.863 1836.03 973.315 1842.08 981.176 1849.87C998.732 1840.38 1009.47 1846.29 1020.37 1861.41L1031.58 1857.63C1038.94 1859.7 1053.67 1865.52 1053.02 1875.13C1042.46 1878.47 1041.11 1855.41 1016.7 1871.71C1005.01 1852.01 1000.08 1848.39 979.275 1860.45C954.382 1835.39 947.552 1833.22 919.344 1856.3C898.392 1844.84 883.178 1848.61 877.132 1873.34C866.632 1869.77 864.122 1869.74 853.42 1869.68C849.449 1872.44 846.647 1875.62 841.921 1873.82L841.544 1871.9C847.669 1861.73 861.457 1863.47 871.307 1864.64C885.282 1845.26 892.831 1836.75 917.031 1846.11C925.007 1840.92 931.103 1837.09 939.457 1832.56C940.934 1801.89 942.342 1771.64 938.903 1741.02C924.933 1616.64 900.278 1692.23 841.896 1645.08C837.048 1641.17 832.338 1636.58 828.799 1631.43C821.232 1620.41 799.764 1579.52 798.417 1567C799.958 1564.22 802.182 1563.04 805.337 1562.35C870.508 1548.12 916.442 1568.93 933.457 1636.41C934.761 1644.08 936.046 1648.05 938.456 1655.5C940.091 1648.63 941.521 1637.77 942.435 1630.62Z"/><path fill="#5BB48F" transform="translate(-711 -1342)" d="M950.811 1598.72C938.36 1568.58 931.82 1542.91 944.861 1511.13C958.607 1477.64 991.702 1458.74 1023.17 1444.68C1032.21 1440.64 1044.86 1435.89 1053.34 1431.54C1066.99 1494.61 1062.43 1568.17 992.731 1595.43C986.268 1597.96 977.383 1601.11 971.764 1605.34C947.703 1627.89 951.353 1715.04 957.529 1743.57L957.752 1744.55C970.287 1728.9 975.413 1722.85 991.251 1710.08C1001.12 1702.13 1022.71 1695.57 1026.05 1690.14L1025.02 1688.89C1013.06 1688.41 989.963 1703.52 981.292 1710.73C978.749 1707.74 978.746 1707.01 977.706 1703.32C998.312 1662.02 1028.63 1664.85 1068.17 1671.85C1056.55 1694.29 1046.44 1719 1020.35 1727.23C1001.92 1733.05 974.731 1725.96 964.45 1744.67C956.075 1759.92 961.395 1790.06 961.708 1807.6C961.883 1817.44 962.048 1826.34 961.956 1836.17C955.439 1834.79 952.386 1834.08 945.71 1833.77C947.81 1794.41 951.957 1700.06 926.078 1666.73C910.996 1647.3 865.012 1667.56 837.204 1631.2C820.532 1609.4 815.969 1591.3 803.674 1569.26C868.155 1556.27 913.576 1571.64 926.682 1640.72C927.146 1643.06 927.535 1645.42 927.848 1647.79C911.693 1627.47 893.877 1611.59 870.481 1600C865.358 1597.46 859.092 1592.74 853.15 1593.89L852.471 1595.27C858.8 1602.74 893.793 1618.88 904.101 1630.17C912.812 1639.71 922.832 1649.23 930.629 1660.55C932.611 1663.43 938.177 1672.63 940.479 1673.88C942.118 1672.47 942.769 1671.75 943.062 1669.41C945.041 1653.62 947.214 1638.75 950.876 1623.18C958.045 1591.49 969.748 1561.01 985.621 1532.67C990.624 1524.1 995.949 1515.73 1001.59 1507.57C1006.42 1500.69 1019.47 1487.37 1020.96 1480.97L1020.07 1480.07C1009.33 1482.9 987.124 1518.17 981.536 1527.9C969.537 1548.79 957.39 1575.52 950.811 1598.72Z"/><path fill="#68AD8F" transform="translate(-711 -1342)" d="M971.828 1719.39C973.648 1713.75 975.556 1708.83 977.706 1703.32C978.746 1707.01 978.749 1707.74 981.292 1710.73L971.828 1719.39Z"/><path fill="#140C0D" transform="translate(-711 -1342)" d="M839.413 1680.49C879.981 1675.6 916.855 1704.47 921.839 1745.03C926.823 1785.58 898.035 1822.52 857.489 1827.59C816.817 1832.68 779.738 1803.79 774.739 1763.1C769.74 1722.42 798.719 1685.4 839.413 1680.49ZM855.524 1810.88C887.032 1806.75 909.122 1777.72 904.691 1746.25C900.259 1714.79 871.008 1692.98 839.587 1697.72C808.598 1702.39 787.156 1731.16 791.527 1762.19C795.898 1793.22 824.449 1814.94 855.524 1810.88Z"/><path fill="#FBB34E" transform="translate(-711 -1342)" d="M837.77 1687.51C874.57 1681.77 909.051 1706.96 914.774 1743.76C920.496 1780.56 895.292 1815.03 858.487 1820.74C821.706 1826.44 787.265 1801.26 781.546 1764.48C775.827 1727.7 800.995 1693.25 837.77 1687.51ZM855.524 1810.88C887.032 1806.75 909.122 1777.72 904.691 1746.25C900.259 1714.79 871.008 1692.98 839.587 1697.72C808.598 1702.39 787.156 1731.16 791.527 1762.19C795.898 1793.22 824.449 1814.94 855.524 1810.88Z"/><path fill="#100E16" fill-opacity="0.97647059" transform="translate(-711 -1342)" d="M845.942 1712.8C854.302 1719.63 851.571 1744.55 851.175 1754.82C845.719 1760.79 838.604 1765.45 831.995 1770.15C829.424 1771.05 830.553 1771.21 828.455 1770.44L828.5 1768.33C832.173 1762.85 839.337 1756.71 844.337 1751.96C844.184 1736.86 844.675 1727.86 845.942 1712.8Z"/><path fill="#140C0D" transform="translate(-711 -1342)" d="M1193.18 1520.45C1233.68 1514.35 1271.42 1542.33 1277.34 1582.86C1283.26 1623.38 1255.11 1661 1214.56 1666.74C1174.26 1672.44 1136.94 1644.5 1131.06 1604.23C1125.18 1563.97 1152.94 1526.52 1193.18 1520.45ZM1212.49 1650.63C1244 1645.94 1265.74 1616.59 1261.06 1585.08C1256.37 1553.57 1227.03 1531.83 1195.52 1536.52C1164.01 1541.2 1142.26 1570.55 1146.95 1602.06C1151.64 1633.57 1180.98 1655.31 1212.49 1650.63Z"/><path fill="#FBB34E" transform="translate(-711 -1342)" d="M1195.99 1526.51C1233.06 1522.08 1266.67 1548.62 1270.96 1585.7C1275.26 1622.79 1248.6 1656.3 1211.5 1660.46C1174.59 1664.6 1141.29 1638.11 1137.01 1601.21C1132.74 1564.32 1159.11 1530.92 1195.99 1526.51ZM1212.49 1650.63C1244 1645.94 1265.74 1616.59 1261.06 1585.08C1256.37 1553.57 1227.03 1531.83 1195.52 1536.52C1164.01 1541.2 1142.26 1570.55 1146.95 1602.06C1151.64 1633.57 1180.98 1655.31 1212.49 1650.63Z"/><path fill="#100E16" fill-opacity="0.98039216" transform="translate(-711 -1342)" d="M1195.52 1536.52C1227.03 1531.83 1256.37 1553.57 1261.06 1585.08C1265.74 1616.59 1244 1645.94 1212.49 1650.63C1180.98 1655.31 1151.64 1633.57 1146.95 1602.06C1142.26 1570.55 1164.01 1541.2 1195.52 1536.52ZM1200.41 1593.65C1200.44 1586.89 1202.31 1547.06 1201.43 1542.72C1198.19 1541.43 1196.55 1541.95 1193.09 1542.34C1165.31 1550.15 1145.43 1577.44 1153.33 1606.41C1157.1 1619.86 1166.1 1631.25 1178.32 1638.04C1191.29 1645.32 1206.66 1646.97 1220.88 1642.62C1242.67 1635.95 1255.85 1615.44 1255.72 1593.19C1253.49 1576.58 1250.3 1564.46 1236.33 1553.01C1229.03 1547.02 1217.25 1541.81 1207.74 1542.45C1205.11 1544.59 1208.16 1582.67 1207.96 1590.51C1211.71 1595.39 1221.62 1606.06 1221.14 1611.09C1215.38 1610.33 1204.47 1598.26 1200.41 1593.65Z"/><path fill="#5BB48F" transform="translate(-711 -1342)" d="M1193.28 1758.57C1198.12 1737.02 1193.59 1722.11 1210.9 1702.94C1223.58 1688.9 1241.31 1681.26 1260.12 1680.3C1268.29 1679.89 1281.39 1678.73 1287.57 1684.27C1286.85 1689.69 1274.03 1727.83 1270.79 1732.23C1265.82 1733.01 1265.21 1733.74 1261.38 1737.12C1250.19 1750.51 1241.59 1755.67 1223.92 1757.8C1194.22 1761.39 1200.1 1792.42 1201.3 1813.91C1201.58 1819.22 1203.66 1832.81 1202.45 1837.8C1199.36 1839.73 1199.06 1839 1194.68 1838.98L1192.36 1837.85C1191.47 1838.93 1191.13 1839.58 1189.88 1840.24C1185.28 1824.77 1188.06 1799.22 1185.17 1783.99C1181.76 1778.63 1161.26 1776.26 1154.26 1776.48C1136.46 1777.04 1103.76 1735.04 1106.2 1723.07C1108.2 1713.3 1147.49 1712.72 1159.11 1718.85C1179.01 1729.34 1184.05 1736.39 1193.28 1758.57Z"/><path fill="#100E16" transform="translate(-711 -1342)" d="M1193.28 1758.57C1198.12 1737.02 1193.59 1722.11 1210.9 1702.94C1223.58 1688.9 1241.31 1681.26 1260.12 1680.3C1268.29 1679.89 1281.39 1678.73 1287.57 1684.27C1286.85 1689.69 1274.03 1727.83 1270.79 1732.23C1265.82 1733.01 1265.21 1733.74 1261.38 1737.12C1269.64 1720.39 1273.14 1704.01 1280.55 1687.61C1258.44 1686.47 1236.94 1688.17 1219.66 1703.83C1208.83 1713.79 1202.51 1727.71 1202.13 1742.42C1202.05 1745.66 1202.04 1748.89 1202.08 1752.13C1211.93 1738.08 1230.81 1709.58 1249.54 1709.52L1250.39 1710.49C1247.71 1714.26 1237.52 1720.39 1233.15 1723.92C1214.81 1738.72 1203.16 1759.29 1194.71 1780.89C1183.21 1762.63 1171.61 1753.65 1152.08 1744.48C1149.28 1743.17 1147.16 1742.19 1147.68 1739.37C1154.32 1738.68 1170.31 1747.89 1176.2 1751.66C1178.03 1749.38 1178.38 1748.62 1179.84 1746.13C1162.63 1718.07 1141.65 1718.31 1112.94 1724.94C1134.69 1765.77 1135.56 1768.28 1181.74 1772.26C1203.9 1788.43 1187.78 1816.18 1194.68 1838.98L1192.36 1837.85C1191.47 1838.93 1191.13 1839.58 1189.88 1840.24C1185.28 1824.77 1188.06 1799.22 1185.17 1783.99C1181.76 1778.63 1161.26 1776.26 1154.26 1776.48C1136.46 1777.04 1103.76 1735.04 1106.2 1723.07C1108.2 1713.3 1147.49 1712.72 1159.11 1718.85C1179.01 1729.34 1184.05 1736.39 1193.28 1758.57Z"/><path fill="#68AD8F" transform="translate(-711 -1342)" d="M1179.84 1746.13C1182.77 1751.6 1184.45 1755.16 1186.83 1760.89C1183.82 1758.4 1178.69 1754.4 1176.2 1751.66C1178.03 1749.38 1178.38 1748.62 1179.84 1746.13Z"/><path fill="#100E16" fill-opacity="0.98823529" transform="translate(-711 -1342)" d="M1261.38 1737.12C1265.21 1733.74 1265.82 1733.01 1270.79 1732.23C1260.75 1758.8 1238.63 1760.19 1215.25 1766.36C1200.89 1790.78 1205.82 1809.24 1210.36 1836.61L1230.26 1848.99C1253.33 1844.33 1262.12 1844.35 1275.47 1865.52C1283.35 1865.6 1305.12 1863.22 1304.43 1874.75C1301.06 1876.62 1297.76 1876.14 1294.14 1874.89C1283.12 1871.1 1282.77 1871.27 1271.99 1875.09C1259.24 1855.65 1252.23 1848.61 1229.18 1860.3C1209.68 1840.19 1191 1838.74 1174.77 1864.27C1156.29 1855.04 1148.27 1853.91 1138.01 1874.78L1136.88 1874.1C1123.85 1866.4 1117.81 1874.81 1108.3 1872.37C1109.34 1861.16 1127.82 1864.25 1135.56 1865.86C1146.82 1849.13 1154.94 1845.71 1173.27 1854.89C1178.06 1849.58 1183.34 1843.29 1189.88 1840.24C1191.13 1839.58 1191.47 1838.93 1192.36 1837.85L1194.68 1838.98C1199.06 1839 1199.36 1839.73 1202.45 1837.8C1203.66 1832.81 1201.58 1819.22 1201.3 1813.91C1200.1 1792.42 1194.22 1761.39 1223.92 1757.8C1241.59 1755.67 1250.19 1750.51 1261.38 1737.12Z"/><path fill="#FDF2E0" fill-opacity="0.15294118" transform="translate(-711 -1342)" d="M962.614 1730.5C959.113 1712.98 958.083 1666.98 961.992 1649.67C963.244 1661.98 959.251 1705.47 963.522 1714.31L967.455 1709.69L962.614 1730.5Z"/><path fill="#FDF2E0" fill-opacity="0.070588239" transform="translate(-711 -1342)" d="M933.457 1636.41C936.394 1638.6 934.834 1638.23 938.039 1638.54C940.134 1635.74 940.95 1633.73 942.435 1630.62C941.521 1637.77 940.091 1648.63 938.456 1655.5C936.046 1648.05 934.761 1644.08 933.457 1636.41Z"/></g></svg>