<?xml version="1.0" encoding="utf-8" ?><svg xmlns="http://www.w3.org/2000/svg" xmlns:xlink="http://www.w3.org/1999/xlink" width="691" height="839" viewBox="0 0 691 839"><clipPath id="mascot-with-globe-cl_e"><rect width="691" height="839"/></clipPath><g clip-path="url(#mascot-with-globe-cl_e)"><path fill="#09262C" transform="translate(-1357 0)" d="M1832.2 252.374C1841.33 251.508 1849.39 251.455 1858.52 252.851C1882.12 256.489 1903.24 269.547 1917.04 289.037C1936.81 316.641 1937.82 355.076 1921.91 384.579C1912.62 401.814 1901.33 411.442 1885.65 422.442C1898.49 452.133 1875.87 464.356 1851.22 471.532C1849.9 477.108 1848 482.53 1845.56 487.71C1832.5 515.911 1812.22 530.199 1784.03 540.761C1784.03 598.609 1760.04 632.529 1712.2 661.656C1709.45 670.59 1708.36 683.228 1707.35 692.748C1714.09 694.381 1721.07 695.93 1726.85 699.823C1736.63 706.406 1748.05 723.994 1739.25 735.252C1734.04 741.922 1722.7 747.13 1713.98 747.641C1697.8 748.592 1676 746.918 1662.54 736.896C1648.28 724.724 1654.16 703.05 1653.58 687.049C1653.48 684.453 1652.67 684.299 1651.08 683.022L1648.82 683.423C1642.85 690.716 1648.56 722.283 1639.7 734.625C1634.63 743.295 1624.14 747.333 1614.55 749.342C1598.91 752.425 1580.04 755.166 1565.94 745.92C1552.64 737.2 1552.24 724.403 1561.27 712.26C1568.88 702.02 1580.64 699.244 1592.51 697.266C1592.14 689.799 1591.34 682.334 1590.62 674.889C1559.91 660.381 1546.86 658.182 1525.95 628.096C1513.44 649.304 1492.47 664.685 1472.06 640.316C1461.52 627.739 1462.72 613.493 1464.28 598.213C1467.78 580.627 1477.16 550.74 1488.04 536.789C1503.05 517.541 1503.69 513.081 1510.24 489.069C1514.93 471.904 1524.53 449.451 1533.92 434.103C1482.25 446.026 1457.98 424.313 1432.97 380.981C1428 372.364 1417.86 368.012 1415.49 359.105C1413.9 348.841 1425.71 345.922 1432.73 342.865C1456.09 332.686 1483.47 329.48 1507.32 339.598C1531.21 349.735 1547.88 373.104 1553.26 397.858C1572.84 369.281 1586.76 347.877 1595.7 313.053C1599.14 305.161 1597.61 287.341 1600.87 280.767C1608.24 265.939 1632.89 300.871 1636.82 304.303C1679.15 341.219 1721.73 378.136 1749.9 427.595C1755.39 437.238 1763.94 455.483 1771 463.033C1787.64 467.105 1796.85 435.21 1804.93 424.562L1805.87 423.324C1801.86 421.017 1797.78 418.717 1794 416.037C1725.43 367.355 1749.36 266.302 1832.2 252.374Z"/><path fill="#41B685" transform="translate(-1357 0)" d="M1614.2 305.522C1623.42 311.336 1630.5 321.276 1638.66 328.176C1681.15 364.099 1721.18 403.171 1745.82 453.908C1753.59 469.911 1755.67 490.893 1778.36 481.516C1796.88 473.86 1803.56 461.851 1811.29 444.576C1814.12 438.24 1817.76 435.273 1823.68 432.324C1844.24 434.201 1856.12 429.961 1869.79 430.916C1886.99 445.122 1849.28 456.325 1841.05 459.543C1828.78 480.242 1825.22 502.917 1799.97 516.021C1790.22 521.081 1779.87 524.12 1770.68 530.031L1769.45 530.834C1769.36 531.734 1769.27 532.633 1769.16 533.531C1764.75 571.683 1761.28 603.375 1729.35 630.038C1719.57 638.204 1707.39 645.376 1696.78 653.752C1693.77 664.516 1689.28 691.168 1691.19 701.975C1695.82 710.764 1723.59 708.88 1726 723.095C1723.87 729.251 1718.52 732.172 1712.05 731.643C1700.92 730.731 1682.91 732.456 1674.29 724.43C1668.03 718.611 1669.75 706.556 1670.08 698.751C1671.36 665.237 1668.99 655.051 1632.6 667.875C1630.07 676.536 1627.23 703.995 1628.31 712.633C1631.55 738.546 1581.47 740.991 1573.58 730.857C1569.32 714.872 1593.17 713.362 1602.44 709.775C1614.75 705.017 1606.6 672.212 1603.01 663.327C1602.64 662.396 1590.86 657.61 1588.83 656.891C1560.81 646.96 1544.89 630.234 1531 604.704C1534.79 594.392 1545.73 580.539 1542.49 570.335C1521.53 554.869 1514.08 627.522 1502.2 633.391C1494.82 637.04 1486.73 635.697 1483.29 628.473C1471.41 603.554 1486.82 572.807 1498.9 550.972C1516.1 526.32 1518.59 519.397 1527.67 490.524C1531.09 479.876 1535.27 469.482 1540.15 459.419C1568.3 401.205 1598.55 373.759 1614.2 305.522Z"/><path fill="#09262C" transform="translate(-1357 0)" d="M1694.48 444.711L1699.11 445.009C1714 455.956 1681.71 476.453 1671.15 479.659C1647.93 486.708 1631.22 481.841 1610.3 471.746C1605.77 467.7 1602.55 464.014 1603.96 457.686C1618.04 448.587 1646.97 495.694 1694.48 444.711Z"/><path fill="#09262C" transform="translate(-1357 0)" d="M1621.71 418.531C1627.51 416.458 1633.88 419.493 1635.93 425.298C1637.98 431.103 1634.92 437.467 1629.1 439.489C1623.32 441.499 1617.01 438.46 1614.97 432.69C1612.94 426.92 1615.95 420.591 1621.71 418.531Z"/><path fill="#09262C" transform="translate(-1357 0)" d="M1678.52 409.506C1684.45 408.98 1689.69 413.348 1690.23 419.274C1690.78 425.2 1686.43 430.45 1680.5 431.014C1674.55 431.581 1669.27 427.205 1668.72 421.252C1668.18 415.299 1672.57 410.034 1678.52 409.506Z"/><path fill="#78C3F4" transform="translate(-1357 0)" d="M1810.14 270.047C1814.65 268.182 1817.84 266.605 1822.67 265.754C1833.22 271.109 1828.81 286.839 1838.53 290.777C1849.63 290.692 1862.18 275.682 1865.72 266.014C1870.83 267.889 1877.35 271.159 1882.44 273.537C1878.64 277.9 1877.83 279.552 1875.11 284.546C1875.96 285.725 1881.45 293.114 1880.51 293.967C1874.5 299.415 1868.28 302.209 1865.45 310.349C1867.01 319.552 1881.04 317.019 1887.86 316.012L1889.82 318.704C1853.57 324.045 1852.21 356.857 1890.81 366.735C1890.75 373.502 1889.18 389.767 1892.94 393.916C1894.57 395.703 1894.76 395.818 1895.45 398.824C1892.08 417.86 1845.19 421.259 1829.8 419.879C1835.79 403.671 1849.77 392.915 1851.61 376.566C1852.48 368.881 1834.34 359.777 1828.17 353.496L1807.04 348.58L1806.82 348.31C1801.32 341.441 1797.7 338.563 1790.94 332.755C1814.52 339.498 1810.14 334.52 1820.07 315.664C1846.21 304.159 1836.65 285.666 1809.95 293.254C1821.9 282.818 1827.76 278.152 1810.14 270.047Z"/><path fill="#41B685" transform="translate(-1357 0)" d="M1467.21 349.282C1507.77 343.897 1528.28 369.803 1538.3 405.073C1526.48 396.438 1491.92 369.532 1478 377.67C1474.6 384.67 1493.56 391.829 1498.5 394.014C1513.04 402.114 1521.37 408.24 1534.32 418.276C1473.91 436.459 1466.83 396.381 1438.29 359.582L1437.2 358.19C1448.48 353.768 1455.33 351.394 1467.21 349.282Z"/><path fill="#41B685" transform="translate(-1357 0)" d="M1798.78 277.171C1803.51 278.097 1809.22 278.762 1814.06 279.456C1809.16 283.311 1801.81 287.825 1803.17 294.692C1807.86 299.569 1818.37 299.278 1825.71 300.467L1826.8 302.063C1825.08 305.577 1816.74 308.823 1813.78 312.021C1809.93 316.193 1807.24 322.851 1804.92 328.043C1792.21 324.198 1784.83 325.713 1786.62 340.627C1792.56 345.104 1797.39 349.633 1802.88 354.659C1807.9 358.159 1817.25 359.378 1823.4 360.399C1830.86 366.777 1836.93 370.421 1844.26 376.118C1841.47 384.302 1828.19 409.385 1821.44 412.666C1814.77 407.863 1816.34 389.304 1812.8 387.052C1793.64 374.849 1803.57 375.549 1798.65 358.584L1782.26 345.248C1777.14 340.406 1770.66 329.789 1766.58 323.466C1773.96 302.162 1780.41 290.616 1798.78 277.171Z"/><path fill="#41B685" transform="translate(-1357 0)" d="M1889.48 277.449C1895.33 281.417 1900.51 286.291 1904.83 291.886C1917.15 307.891 1924.68 331.42 1921.49 351.636C1920.19 359.846 1912.93 394.238 1901.17 390.566C1895.97 380.036 1903.31 363.738 1889.26 356.981C1879.46 355.125 1870.76 354.135 1871.69 341.714C1873.43 318.49 1901.54 335.613 1913.04 326.107C1916.07 323.595 1915.93 313.948 1912.17 311.923C1897.13 303.824 1885.7 306.928 1870.26 311.364C1876.17 307.416 1888.61 300.327 1890.82 293.566C1891.82 290.495 1888.22 286.655 1886.21 283.929C1886.48 280.125 1886.64 281.078 1889.48 277.449Z"/><path fill="#78C3F4" transform="translate(-1357 0)" d="M1765.02 337.623C1765.91 338.315 1765.72 338.087 1766.44 339C1774.79 349.702 1780.11 354.592 1791.27 362.156C1791.39 380.387 1791.79 382.488 1807.63 392.129C1808.35 399.65 1810 406.991 1811.5 414.394C1781.07 402.634 1764.51 368.959 1765.02 337.623Z"/><path fill="#41B685" transform="translate(-1357 0)" d="M1843 262.447C1848.01 262.688 1855.75 262.034 1856.28 268.17C1853.6 273.444 1850.18 274.936 1845.1 278.509C1843.65 279.877 1842.13 281.162 1840.62 282.467C1838.17 281.748 1839.1 275.39 1838.2 272.341C1837.1 268.611 1836.45 267.244 1834.35 263.965L1834.87 263.08L1843 262.447Z"/><path fill="#78C3F4" transform="translate(-1357 0)" d="M1887.86 316.012C1893.5 315.765 1899.94 314.466 1904.11 318.821L1903.94 320.586C1899.03 323.103 1894.58 320.884 1889.82 318.704L1887.86 316.012Z"/><path fill="#09262C" transform="translate(-1357 0)" d="M1755.38 275.571L1757.81 276.675C1761.83 284.881 1749.21 296.849 1746 305.41C1742.01 316.028 1746.17 339.009 1736.9 345.209C1724.05 326.268 1742.41 290.257 1755.38 275.571Z"/><path fill="#09262C" transform="translate(-1357 0)" d="M1946.97 343.16C1951.28 344.471 1953.74 347.507 1953.94 352.088C1954.85 373.541 1944.2 394.053 1931.29 410.476C1928.61 411.223 1929.67 411.12 1926.85 410.596C1924.37 405.57 1937.03 389.47 1939.08 382.672C1943.03 369.556 1944.76 356.605 1946.97 343.16Z"/><path fill="#09262C" transform="translate(-1357 0)" d="M1729.09 285.614C1733.28 291.529 1726.87 310.602 1724.75 317.54C1723.66 321.086 1722.62 321.355 1719.6 322.664C1712.8 311.299 1720.18 293.79 1729.09 285.614Z"/><path fill="#09262C" fill-opacity="0.98823529" transform="translate(-1357 0)" d="M1963.08 365.145L1966.45 366.105C1975.32 374.665 1963.13 393.003 1958.04 401.048C1955.19 401.236 1956.5 401.528 1953.97 400.047C1952.67 396.595 1961.46 372.073 1963.08 365.145Z"/></g></svg>