<?xml version="1.0" encoding="utf-8" ?><svg xmlns="http://www.w3.org/2000/svg" xmlns:xlink="http://www.w3.org/1999/xlink" width="577" height="671" viewBox="0 0 577 671"><clipPath id="mascot-with-magnifier-cl_15"><rect width="577" height="671"/></clipPath><g clip-path="url(#mascot-with-magnifier-cl_15)"><path fill="#062025" transform="translate(-711 -1322)" d="M991.371 1352.64C1002.03 1353.75 1006.83 1368.25 1012.15 1377.13C1029.91 1406.74 1056.7 1429.32 1082.39 1451.85C1130.52 1494.06 1162.11 1540.16 1178.45 1602.54C1210.44 1620.44 1261.17 1670.55 1242.49 1714.27C1237.02 1727.06 1223.28 1732.35 1210.67 1736.32C1209.8 1738.23 1208.91 1740.14 1208.01 1742.05C1194.12 1772.11 1172.91 1770.99 1147.81 1756.18C1129.68 1777.61 1117.72 1784.44 1094.48 1798.97C1092.8 1813.09 1089.44 1829.2 1087.4 1843.68C1097.45 1846.07 1105.46 1847.96 1113.62 1854.35C1140.99 1875.82 1125.64 1903.29 1094.23 1905.11C1074.25 1906.27 1046.96 1904.9 1030.97 1892.03C1023.6 1871.81 1024.1 1847.59 1022.65 1826.3C1022.43 1823.09 1022.27 1820.45 1020.1 1818.63C1016.48 1818.3 1016.61 1818.17 1013.06 1819.65C1011.61 1821.63 1008.51 1865.34 1007.9 1872.25C1005.59 1890.92 1002.91 1896.93 982.833 1901.23C961.835 1905.73 937.167 1909.19 917.765 1897.58C904.283 1889.51 905.041 1873.14 913.296 1861.51C921.687 1849.63 934.707 1847.25 948.097 1845.02C944.841 1832.18 943.181 1820.22 941.724 1807.06C909.015 1795.62 886.653 1776.02 867.01 1747.97C864.46 1749.3 861.853 1750.53 859.197 1751.64C823.983 1766.23 791.767 1737.61 796.014 1701.31C797.511 1688.51 801.602 1679.21 807.004 1667.63C795.766 1640.02 793.523 1622.98 821.012 1604.9C813.333 1576.81 814.125 1557.13 822.373 1529.22C794.5 1509.61 793.682 1496.92 778.283 1466.84C775.809 1461.94 765.214 1448.12 764.891 1443.14C763.928 1428.3 805.784 1425 813.549 1424.44C849.861 1421.87 868.58 1431.39 895.056 1454.11C911.38 1447.66 930.79 1446.67 948.104 1446.71C959.023 1427.75 970.177 1409.42 976.691 1388.32C981.572 1372.52 975.151 1361.97 991.371 1352.64Z"/><path fill="#3EB682" transform="translate(-711 -1322)" d="M830.751 1620.84C862.567 1625.79 861.332 1659.29 853.568 1683.06C850.824 1691.47 841.175 1715.48 851.908 1719.61C857.382 1719.12 861.415 1717.29 863.813 1712.06C869.275 1700.15 872.376 1686.66 875.7 1674.05C930.131 1701.95 975.738 1697.86 1022.44 1657.56C1028.62 1662.57 1037.15 1667.84 1043.93 1672.29C1052.49 1702.35 1105.31 1728.72 1132.26 1746.34C1123.71 1755.11 1115.99 1762.32 1105.87 1769.41C1097.61 1775.19 1087.46 1780.45 1080.09 1787.09C1077.91 1793.54 1063.44 1850.34 1069.39 1857.78C1073.2 1862.55 1133.25 1872.34 1098.18 1886.76C1077.86 1887.77 1065.1 1885.77 1045.73 1880.33C1043.89 1867.85 1042.78 1855.27 1042.38 1842.66C1042.1 1834.65 1043.43 1803.83 1035.85 1800.46C1026.97 1796.5 1006.75 1799.48 997.259 1802.65C986.853 1830.78 997.134 1851.93 987.589 1879.73C974.673 1886.18 939.665 1892.19 928.017 1882.46C917.169 1861.4 963.846 1868.06 966.159 1857.55C969.033 1844.49 960.949 1807.84 957.019 1796.09C936.882 1783.52 911.699 1772.99 895.873 1755.33C888.29 1746.87 883.006 1736.38 874.768 1727.36L873.818 1726.34C861.886 1730.59 844.81 1740.2 832.84 1736.04C798.996 1724.3 819.737 1686.06 825.671 1665.29C818.074 1645.45 809.659 1633.54 830.751 1620.84Z"/><path fill="#72C4E4" transform="translate(-711 -1322)" d="M933.852 1464.43C956.602 1463.77 979.811 1470.23 998.391 1483.52C1020.82 1499.81 1035.77 1524.42 1039.89 1551.84C1044.32 1579.87 1037.36 1608.51 1020.57 1631.38C1000.54 1658.53 977.392 1667.96 945.25 1672.93C918.226 1673.69 901.103 1668.11 878.901 1653.34C874.805 1626.74 865.079 1614.83 840.641 1603.88C838.265 1595.44 836.311 1587.55 835.375 1578.8C832.32 1551.53 840.399 1524.18 857.782 1502.94C878.764 1477.27 901.796 1467.73 933.852 1464.43Z"/><path fill="#062025" transform="translate(-711 -1322)" d="M925.472 1482.54C972.857 1475.64 1016.86 1508.46 1023.78 1555.84C1030.69 1603.22 997.892 1647.24 950.513 1654.17C903.106 1661.11 859.057 1628.29 852.14 1580.88C845.223 1533.47 878.06 1489.43 925.472 1482.54Z"/><path fill="#3EB682" transform="translate(-711 -1322)" d="M935.539 1500.44C973.106 1498.99 1004.72 1528.31 1006.09 1565.88C1007.46 1603.45 978.077 1635 940.504 1636.29C903.043 1637.58 871.609 1608.3 870.239 1570.84C868.87 1533.38 898.083 1501.89 935.539 1500.44Z"/><path fill="#062025" transform="translate(-711 -1322)" d="M935.644 1539.18C939.801 1539.05 943.97 1539.34 947.979 1540.55C955.339 1542.79 961.405 1548.04 964.674 1555.01C972.95 1572.73 962.947 1589.73 946.154 1597.23C941.956 1597.41 937.14 1597.53 933.09 1596.29C925.871 1594.05 919.912 1588.9 916.651 1582.08C907.492 1562.82 917.775 1547.1 935.644 1539.18Z"/><path fill="#D4E4D1" transform="translate(-711 -1322)" d="M912.785 1516C918.827 1515.73 925.883 1515.68 928.597 1521.74C926.89 1532.96 912.223 1533.23 903.464 1546.63L902.71 1547.8C900.633 1549.9 899.72 1550 896.974 1551.1C889.23 1550.01 889.584 1542.58 891.568 1536.55C895.074 1525.89 903.44 1521 912.785 1516Z"/><path fill="#3EB682" transform="translate(-711 -1322)" d="M995.04 1388.41C1002.32 1394.24 1014.33 1413.89 1022.6 1422.11C1062.48 1461.8 1108.82 1495.44 1136.29 1545.88C1143.71 1559.51 1151.04 1574.11 1156.35 1588.79C1158.93 1595.92 1157.25 1606.71 1161.93 1612.91C1165.63 1617.82 1174.8 1622.6 1180.25 1626.42C1196.94 1638.1 1215.03 1654.51 1223.27 1673.5C1227.02 1682.15 1230.74 1696.2 1226.71 1704.93C1223 1712.95 1216.32 1715.76 1208.83 1718.83C1198.91 1702.41 1184.65 1693.19 1168.02 1684.38C1160.06 1686.42 1153.8 1690.99 1146.01 1692.89C1126.21 1697.72 1113.25 1688.96 1108.56 1670.05C1112.4 1654.28 1117.3 1651.92 1131.66 1645.33C1165.87 1639.93 1183.2 1679.24 1203.59 1677.04C1204.74 1676.19 1205.79 1675.85 1205.81 1674.48C1206.12 1650.59 1167.69 1632.31 1148.73 1627.84C1130.35 1623.5 1117.42 1630.67 1104.41 1639.26C1091.39 1631.28 1089.33 1629.89 1074.33 1630.01C1066.09 1624.86 1058.15 1619.17 1050.19 1613.6C1066.04 1611.96 1090.08 1605.59 1095.07 1586.64C1095.66 1584.41 1094.2 1583.14 1092.82 1581.81C1080.94 1578 1070.62 1590.05 1058.15 1593.64C1068.99 1525.87 1034.99 1469.22 968.901 1449.41C982.122 1426.51 989.111 1414.25 995.04 1388.41Z"/><path fill="#062025" transform="translate(-711 -1322)" d="M1080.39 1527.82C1099.35 1528.43 1102.14 1544.89 1087.27 1556.64C1067.39 1555.84 1064.87 1538.41 1080.39 1527.82Z"/><path fill="#72C4E4" transform="translate(-711 -1322)" d="M1078.66 1648.81C1086.17 1649.02 1088.18 1650.75 1094.38 1654.98C1085.86 1682.27 1096.17 1702.97 1125.12 1711.73C1140.06 1716.25 1152.27 1712.24 1165.43 1704.67C1181.67 1715.36 1200.88 1724.18 1185.39 1744.94C1180.77 1747.01 1173.3 1750.6 1168.37 1747.43C1137.42 1727.55 1106.4 1707.31 1076.44 1685.95C1073.44 1683.81 1062.94 1676.53 1063.21 1672.9C1063.86 1664.14 1072.85 1654.82 1078.66 1648.81Z"/><path fill="#3EB682" transform="translate(-711 -1322)" d="M813.733 1443.35C840.707 1441.2 854.813 1446.6 876.33 1462.47C868.657 1467.59 862.261 1472.58 855.006 1478.21C849.971 1474.21 836.705 1462.07 829.738 1465.38C822.066 1469.02 824.299 1475.52 827.629 1481.38C834.289 1485.15 837.167 1487 842.896 1491.94C838.632 1497.55 833.572 1505.68 829.583 1511.69C801.129 1487.62 808.337 1474.86 790.081 1447.69C798.305 1445.96 805.431 1444.62 813.733 1443.35Z"/><path fill="#72C4E4" transform="translate(-711 -1322)" d="M1043.09 1631.92C1047.54 1634.27 1054.66 1639.09 1059.13 1641.93L1050.82 1653.42C1045.9 1651.06 1039.33 1646.69 1034.55 1643.7C1037.18 1639.83 1040.31 1635.73 1043.09 1631.92Z"/></g></svg>