<?xml version="1.0" encoding="utf-8" ?><svg xmlns="http://www.w3.org/2000/svg" xmlns:xlink="http://www.w3.org/1999/xlink" width="758" height="745" viewBox="0 0 758 745"><clipPath id="concepts-balance-cl_9"><rect width="758" height="745"/></clipPath><g clip-path="url(#concepts-balance-cl_9)"><path fill="#100E16" transform="translate(0 -1303)" d="M404.602 1385.89C426.435 1383.56 424.139 1415.39 423.892 1429.36L426.673 1431.34C432.631 1435.56 433.649 1436.69 438.697 1441.98C454.488 1438.1 506.102 1436.11 523.289 1435.49C545.031 1434.62 566.751 1433.25 588.431 1431.39C593.878 1425.17 598.086 1419.21 607.083 1418.71C610.944 1418.47 614.724 1419.89 617.479 1422.61C620.153 1425.3 621.636 1428.95 621.597 1432.75C621.437 1449.4 601.842 1450.08 590.015 1449.57C594.392 1459.71 602.55 1473.18 607.528 1483.68C619.479 1508.89 632.79 1533.87 644.859 1559.01C651.674 1573.48 658.149 1588.1 664.278 1602.88C667.553 1610.58 670.926 1618.71 674.604 1626.25C675.309 1628.09 677.769 1629.72 679.784 1630.31C690.364 1633.38 688.773 1645.13 684.776 1654.22C674.674 1677.19 648.995 1695.54 626.139 1704.38C585.105 1720.25 535.367 1710.68 503.001 1680.9C491.125 1670.01 477.232 1654.94 481.775 1637.32C482.928 1632.84 491.379 1631.86 493.028 1627.54C496.191 1620.24 499.13 1612.85 502.233 1605.53C507.855 1592.45 513.657 1579.45 519.639 1566.53C537.653 1527.43 555.931 1491.7 574.818 1453.17C562.817 1453.97 541.014 1458.1 528.23 1460.06C500.452 1464.47 472.579 1468.26 444.631 1471.43C439.46 1487.2 437.465 1489.44 424.333 1498.98C426.688 1521.3 426.046 1553.86 426.834 1577.42C428.751 1654 429.974 1730.6 430.503 1807.2C444.4 1805.17 468.041 1803.85 480.977 1810.14C493.276 1816.12 496.9 1823.97 501.282 1835.7C510.87 1836.26 527.428 1838.9 530.191 1850.16C531.653 1856.11 534.123 1864.74 531.192 1870.41C523.081 1873.61 422.417 1873.64 406.5 1873.81C368.623 1874 326.389 1873.73 288.749 1871.49C281.481 1871.06 276.375 1838.87 314.485 1837.69C326.751 1800.27 352.371 1805.69 385.261 1805.99L391.573 1499.23C384.675 1492.42 380.518 1488.2 374.516 1480.69C329.8 1488.12 287.754 1488.88 242.543 1496.52C244.805 1503.28 252.877 1518.63 256.282 1525.38C264.779 1542.01 273.131 1558.72 281.338 1575.5C296.462 1606.95 311.78 1645.66 327.421 1675.32C341.147 1677.92 342.001 1686.54 336.913 1697.86C325.498 1723.26 303.423 1741.05 277.591 1750.52C246.364 1762.01 211.853 1760.6 181.662 1746.62C158.528 1735.79 141.343 1718.36 132.043 1694.08C130.712 1690.6 130.193 1687.34 131.641 1683.76C133.672 1678.75 142.688 1676.91 144.636 1672.33C147.54 1665.5 150.202 1658.44 153.137 1651.56C159.393 1637.2 165.813 1622.91 172.394 1608.7C189.536 1571.82 208.272 1535.9 225.517 1499.37C217.56 1500.03 194.56 1500.84 193.715 1488.05C192.28 1466.35 211.625 1469.09 225.67 1479.13C251.11 1476.09 284.747 1466.71 310.201 1461.5C331.473 1457.15 352.204 1453.36 373.562 1449.5C379.263 1438.63 381.828 1435.21 392.045 1428.54C391.773 1412.33 390.786 1397.14 404.602 1385.89ZM151.844 1676.92C164.148 1676.72 221.206 1677.95 227.2 1674.59C228.251 1672.03 228.618 1670 229.223 1667.33C227.13 1663.03 219.999 1663.02 214.918 1659.68C197.377 1648.16 197.245 1623.41 203.805 1605.9C206.359 1599.08 223.126 1559 227.095 1556.89C231.412 1557.26 234.297 1560.08 237.847 1562.75C262.633 1583.48 285.603 1619.2 261.301 1650.62C254.818 1659 245.979 1662.47 236.771 1666.83C234.627 1670.19 233.073 1672.6 231.292 1676.15C259.926 1675.81 288.644 1675.09 317.249 1675.82C309.776 1656.96 242.323 1505.66 233.186 1501.58C210.242 1544.98 188.942 1589.23 169.332 1634.24C164.591 1645 154.228 1666.23 151.844 1676.92ZM500.561 1631.68L543.644 1631.8C537.907 1619.95 532.853 1607.63 534.15 1594.18C536.839 1566.3 564.227 1550 590.62 1553.81C608.338 1556.38 617.646 1563.94 628.108 1577.28C638.392 1597.88 638.141 1607.75 626.983 1628.27C635.442 1631.05 656.215 1629.42 665.836 1628.99C652.836 1594.56 635.168 1557.73 619.241 1524.51C608.632 1502.39 595.68 1475.19 583.107 1454.01C576.311 1465.18 558.815 1500.52 552.965 1513.11C536.201 1549.19 513.293 1594.65 500.561 1631.68Z"/><path fill="#7EC2FB" transform="translate(0 -1303)" d="M230.257 1683.5C242.919 1682.98 323.434 1681.62 329.888 1684.71C331.262 1686.56 333.132 1689.5 332.11 1692.04C303.228 1763.72 188.419 1770.26 146.751 1708.6L144.595 1704.74C149.501 1700.79 265.541 1707.07 273.45 1700.39L272.898 1699.01C264.05 1696.54 231.613 1697.83 220.877 1697.89C194.166 1698.08 167.454 1698.06 140.744 1697.81L137.007 1684.81C160.191 1682.55 205.301 1683.66 230.257 1683.5Z"/><path fill="#100E16" transform="translate(0 -1303)" d="M296.833 1697.36C301.526 1697.1 309.862 1695.71 311.962 1700.43L310.716 1703.04C305.98 1702.92 298.09 1703.77 295.435 1699.63L296.833 1697.36Z"/><path fill="#7EC2FB" transform="translate(0 -1303)" d="M598.158 1637.5C619.701 1637.27 641.248 1637.02 662.792 1636.88C667.767 1636.85 676.974 1635.77 679.747 1640.15C680.069 1643.44 679.195 1647.52 677.885 1650.46C646.784 1720.06 536.363 1721.77 495.043 1661.62C493.924 1659.99 494.72 1658.97 495.363 1657.65L498.75 1657.06C524.426 1657.45 550.212 1657.54 575.887 1657.13C583.908 1657 619.685 1658.67 622.852 1653.95C615.377 1646.85 510.964 1654.93 493.387 1650.34C489.816 1649.4 489.127 1648.33 487.597 1645.52C487.748 1642.16 487.503 1642.23 489.338 1639.49C494.375 1636.98 584.317 1637.59 598.158 1637.5Z"/><path fill="#100E16" transform="translate(0 -1303)" d="M641.943 1651.37C644.601 1651.07 647.267 1650.85 649.938 1650.71C655.569 1650.44 657.896 1649.95 661.837 1653.58L661.754 1656.45C654.995 1656.9 644.41 1658.95 641.943 1651.37Z"/><path fill="#7EC2FB" transform="translate(0 -1303)" d="M397.518 1499.65C406.199 1501.26 409.509 1501.03 418.405 1500.92C420.434 1575.96 422.017 1651.02 423.152 1726.08C423.328 1736.76 425.239 1798.68 423.11 1805.48L420.25 1806.3L391.966 1806.3L397.518 1499.65Z"/><path fill="#7EC2FB" transform="translate(0 -1303)" d="M486.453 1843.5C496.426 1843.47 507.962 1843.22 517.432 1846.6C522.51 1848.41 525.89 1857.86 523.656 1862.89C514.35 1867.89 352.623 1866.18 331.75 1865.99C323.865 1865.83 294.816 1868.82 291.393 1861.58C292.743 1851.46 296.08 1846.04 306.927 1845.46C327.434 1844.36 348.352 1844.92 368.89 1844.95C408.084 1845.38 447.282 1844.9 486.453 1843.5Z"/><path fill="#FBB34E" transform="translate(0 -1303)" d="M553.376 1630.96C514.208 1581.14 578.127 1531.78 611.244 1579.43C613.279 1582.36 615.996 1590.54 617.309 1594.2C618.787 1596.09 618.855 1596.65 619.319 1599L620.323 1600.12L619.898 1597.63L621.635 1596.88C621.732 1595.58 621.817 1593.54 622.058 1592.24C625.886 1613.76 618.182 1615.1 613.526 1630.23C610.617 1629.8 606.376 1630.46 603.121 1630.44C593.867 1629.25 564.75 1630.78 553.376 1630.96Z"/><path fill="#140C0D" transform="translate(0 -1303)" d="M617.309 1594.2C618.787 1596.09 618.855 1596.65 619.319 1599L620.323 1600.12L619.898 1597.63L621.635 1596.88C621.732 1595.58 621.817 1593.54 622.058 1592.24C625.886 1613.76 618.182 1615.1 613.526 1630.23C610.617 1629.8 606.376 1630.46 603.121 1630.44C615.466 1618.16 616.382 1611.27 617.309 1594.2Z"/><path fill="#140C0D" transform="translate(0 -1303)" d="M571.638 1568.84L573.491 1570.31C571.886 1572.93 570.67 1572.7 567.827 1574.15C545.314 1585.71 550.146 1604.75 560.083 1622.69C546.778 1617.68 545.503 1602.59 549.701 1590.74C553.734 1579.37 561.394 1573.82 571.638 1568.84Z"/><path fill="#140C0D" transform="translate(0 -1303)" d="M602.891 1582.92C617.091 1591.23 607.768 1612.32 600.471 1622.29L598.525 1622.06C598.263 1618.31 604.313 1612.06 605.161 1605.84C606.259 1597.8 604.226 1590.9 602.891 1582.92Z"/><path fill="#7EC2FB" transform="translate(0 -1303)" d="M448.99 1813.54C473.849 1812.91 483.716 1812.45 494.712 1836.99C451.73 1837.8 408.74 1838.13 365.75 1838L321.68 1838.07C326.385 1826.41 331.993 1815.41 345.887 1814.52C379.844 1812.35 414.978 1814.74 448.99 1813.54Z"/><path fill="#5BB48F" transform="translate(0 -1303)" d="M228.589 1563.63C264.164 1587.76 285.501 1632.5 238.284 1659.8C242.299 1643.82 242.225 1635.55 242.3 1619.39C246.79 1614.77 251.129 1609.85 251.09 1603.22L249.749 1602.6C246.027 1604.53 244.197 1607.9 241.66 1611.4C240.763 1605.89 238.775 1591.92 233.776 1589.34C232.638 1592.28 232.924 1590.73 233.396 1594.22C235.836 1610.31 237.12 1622.88 236.326 1639.1C232.192 1634.94 221.883 1623.52 216.636 1623.38C216.832 1630.09 230.099 1641.78 234.927 1646.37L232.421 1661.2C183.268 1636.34 215.933 1602.63 228.025 1565.4L228.589 1563.63Z"/><path fill="#7EC2FB" transform="translate(0 -1303)" d="M400.835 1434.53C417.1 1430.4 433.638 1440.21 437.818 1456.46C441.998 1472.71 432.245 1489.28 416.007 1493.52C399.693 1497.77 383.027 1487.96 378.827 1471.63C374.628 1455.3 384.493 1438.67 400.835 1434.53Z"/><path fill="#7EC2FB" transform="translate(0 -1303)" d="M605.115 1424.73C618.282 1426.9 617.943 1438.96 606.351 1440.97C590.07 1443.79 573.574 1445.86 557.216 1448.33L452.441 1464.56C448.225 1465 449.985 1465.53 446.814 1463.69C443.951 1459.03 443.602 1453.61 442.689 1448.08C489.091 1441.67 547.849 1447.04 593.367 1435.09C595.411 1434.56 603.048 1426.78 605.115 1424.73Z"/><path fill="#7EC2FB" transform="translate(0 -1303)" d="M365.507 1458.39C368.938 1457.93 367.564 1457.48 370.171 1458.74C371.509 1462.45 371.668 1470.73 372.286 1475.67C332.968 1478.07 293.464 1483.94 254.251 1487.7C240.114 1489.06 217.125 1494.31 204.274 1491.52C201.652 1488.87 200.477 1486.14 200.733 1482.42C206.259 1474.86 215.801 1480.59 221.603 1484.35C251.75 1484.59 280.527 1475.76 309.493 1468.83C327.951 1464.29 346.653 1460.81 365.507 1458.39Z"/><path fill="#140C0D" transform="translate(0 -1303)" d="M607.665 1564.27C614.048 1569.63 620.396 1574.19 623.45 1582.03C624.634 1581.72 625.576 1581.56 626.776 1581.34L628.108 1577.28C638.392 1597.88 638.141 1607.75 626.983 1628.27C624.728 1627.94 620.258 1628.61 617.716 1628.76C615.789 1629.57 615.545 1629.77 613.526 1630.23C618.182 1615.1 625.886 1613.76 622.058 1592.24C621.222 1581.91 613.573 1572.74 607.665 1564.27Z"/><path fill="#FBB34E" transform="translate(0 -1303)" d="M607.665 1564.27C614.048 1569.63 620.396 1574.19 623.45 1582.03C629.443 1601.16 630.832 1611.82 617.716 1628.76C615.789 1629.57 615.545 1629.77 613.526 1630.23C618.182 1615.1 625.886 1613.76 622.058 1592.24C621.222 1581.91 613.573 1572.74 607.665 1564.27Z"/><path fill="#7EC2FB" transform="translate(0 -1303)" d="M406.152 1392.51C416.816 1395.28 421.284 1416.38 416.13 1425.7C412.488 1427.84 412.82 1427.04 407.754 1426.84C405.533 1426.88 400.784 1427.53 398.379 1427.8C398.942 1413.64 397.867 1404.74 406.152 1392.51Z"/></g></svg>