<?xml version="1.0" encoding="utf-8" ?><svg xmlns="http://www.w3.org/2000/svg" xmlns:xlink="http://www.w3.org/1999/xlink" width="1046" height="617" viewBox="0 0 1046 617"><clipPath id="concepts-diversification-cl_4c"><rect width="1046" height="617"/></clipPath><g clip-path="url(#concepts-diversification-cl_4c)"><path fill="#040403" transform="translate(-1002 0)" d="M1769.53 211.331C1853.25 201.176 1891.52 283.873 1892.05 355.297C1912.15 368.088 1909.38 380.969 1893.91 396.321C1881.71 469.425 1865.88 501.788 1788.65 508.119C1699.23 512.795 1675.27 477.996 1662.37 395.219C1644.85 381.829 1644.2 366.468 1663.99 355.458C1665.65 317.977 1672.45 279.686 1696.88 249.895C1714.98 227.863 1741.14 213.979 1769.53 211.331Z"/><path fill="#FC7E5E" transform="translate(-1002 0)" d="M1672.38 401.783C1738.01 426.619 1817.96 425.934 1883.86 401.858C1878.73 426.725 1876.17 439.969 1864.5 462.535C1851.67 481.396 1839.09 490.809 1816.34 495.358C1786.04 501.416 1737.72 501.381 1710.98 483.745C1684.74 466.437 1677.94 430.194 1672.38 401.783Z"/><path fill="#FBC19A" transform="translate(-1002 0)" d="M1772.88 278.085C1819.16 277.724 1832.96 341.703 1834.04 377.682C1817.66 379.708 1801.21 381.112 1784.72 381.891C1763.72 381.704 1742.77 380.049 1722.01 376.941C1721.78 361.218 1724.16 345.566 1729.07 330.626C1737.33 305.978 1749.67 289.701 1772.88 278.085Z"/><path fill="#040403" transform="translate(-1002 0)" d="M1770.58 336.037C1777.24 337.527 1782.92 335.514 1786.45 338.997L1786.2 342.329C1780.87 343.796 1777.37 344.912 1772.43 342.111C1770.02 338.634 1770.72 340.551 1770.58 336.037Z"/><path fill="#040403" transform="translate(-1002 0)" d="M1749.54 328.541C1751.02 327.407 1752.99 327.167 1754.7 327.914C1756.4 328.662 1757.56 330.278 1757.73 332.132C1757.89 333.986 1757.04 335.782 1755.49 336.819C1753.2 338.353 1750.11 337.796 1748.51 335.561C1746.9 333.325 1747.36 330.218 1749.54 328.541Z"/><path fill="#040403" transform="translate(-1002 0)" d="M1801.84 327.514C1804.53 326.819 1807.28 328.416 1808.01 331.096C1808.74 333.777 1807.17 336.546 1804.5 337.31C1802.74 337.813 1800.85 337.33 1799.55 336.047C1798.24 334.764 1797.73 332.879 1798.2 331.112C1798.68 329.346 1800.07 327.971 1801.84 327.514Z"/><path fill="#FEF3DD" transform="translate(-1002 0)" d="M1772.21 243.336C1788.49 241.498 1807.47 246.273 1820.78 255.854C1848.89 276.104 1855.45 311.116 1860.63 342.925C1852.81 340.013 1846.93 338.742 1838.76 336.849C1828.65 303.913 1818.61 282.477 1785.39 269.541C1745.54 266.3 1728.34 304.872 1717.75 336.364C1710.65 338.011 1702.96 340.534 1695.94 342.68C1704.29 292.223 1715.85 251.777 1772.21 243.336Z"/><path fill="#FC7E5E" transform="translate(-1002 0)" d="M1776.52 220.44C1855.75 216.879 1881.6 296.014 1883.26 361.347L1872.08 367.083C1869.98 326.999 1864.69 278.779 1830.97 252.027C1815.59 239.824 1800.27 236.242 1781.36 233C1704.78 235.121 1688.02 302.177 1684.67 367.11L1673.01 361.308C1676.85 290.749 1696.53 227.721 1776.52 220.44Z"/><path fill="#FC7E5E" transform="translate(-1002 0)" d="M1663.03 366.397C1666.12 367.357 1671.12 370.387 1674.61 371.941C1683.34 375.84 1691.18 379.605 1700.6 382.222C1751.97 396.499 1811.13 392.86 1862.83 381.302C1871.19 379.434 1884.45 368.448 1892.91 368.701C1894.36 368.744 1894.79 369.986 1895.87 371.384C1897.08 377.766 1896.61 379.461 1893.28 385.016C1888.09 388.555 1882.52 391.495 1876.66 393.78C1819.73 416.602 1733.51 414.199 1675.83 392.87C1662.66 388.002 1656.04 379.693 1663.03 366.397Z"/><path fill="#FC7E5E" transform="translate(-1002 0)" d="M1712.71 347.201L1713.51 347.996C1714.6 353.445 1713.21 369.565 1712.86 375.825L1698.21 372.053C1695.59 370.871 1696.48 371.466 1694.52 369.299C1692.92 364.247 1693.82 359.158 1694.23 353.756C1700.73 350.839 1705.91 349.312 1712.71 347.201Z"/><path fill="#FC7E5E" transform="translate(-1002 0)" d="M1841.57 347.451C1849.63 348.859 1854.03 350.28 1861.81 352.901C1862.96 360.525 1864.13 364.157 1861.04 371.287L1843.19 375.964C1843.89 366.32 1843.03 356.969 1841.57 347.451Z"/><path fill="#040403" transform="translate(-1002 0)" d="M1491.59 211.348C1518.02 209.072 1547.39 218.777 1567.1 236.597C1601.17 267.387 1608.9 311.703 1611.15 355.4C1630.57 368.495 1627.33 381.692 1612.76 396.404C1601.28 470.985 1581.43 505.112 1502.47 508.376C1477.43 509.453 1441.37 504.37 1420.96 488.736C1393.3 467.565 1385.81 429.609 1381.19 397.246C1366.02 382.088 1362.89 369.796 1381.8 356.107C1381.96 347.336 1383.56 339.287 1384.68 330.685C1392.68 269.168 1424.55 217.214 1491.59 211.348Z"/><path fill="#FC7E5E" transform="translate(-1002 0)" d="M1391.33 402.081C1462.98 426.149 1531.22 426.291 1602.39 402.156C1596.9 427.547 1594.64 439.795 1582.91 462.945C1572.38 478.874 1557.59 491.444 1538.51 494.743C1506.48 500.281 1460.04 503.256 1432.01 484.677C1404.52 466.453 1397.29 431.735 1391.33 402.081Z"/><path fill="#FBC19A" transform="translate(-1002 0)" d="M1491.92 278.036C1538.76 278.281 1551.46 341.388 1553.07 377.67C1536.32 380.05 1520.68 381.061 1503.83 381.921C1481.19 381.502 1463.3 380.689 1440.91 376.845C1440.74 338.573 1453.85 294.076 1491.92 278.036Z"/><path fill="#040403" transform="translate(-1002 0)" d="M1487.07 342.8C1492.81 343.639 1500.24 342.899 1504.87 345.051C1506.03 345.59 1505.92 347.464 1506.26 349.275C1496.68 351.895 1490.1 353.858 1487.07 342.8Z"/><path fill="#040403" transform="translate(-1002 0)" d="M1521.45 334.496C1524.08 334.281 1526.46 336.071 1526.98 338.661C1527.5 341.25 1525.99 343.817 1523.48 344.629C1521.57 345.245 1519.48 344.712 1518.11 343.26C1516.73 341.808 1516.3 339.694 1517.02 337.824C1517.73 335.954 1519.46 334.66 1521.45 334.496Z"/><path fill="#040403" transform="translate(-1002 0)" d="M1470.16 334.479C1472.68 333.461 1475.56 334.598 1476.7 337.065C1477.84 339.531 1476.85 342.461 1474.44 343.725C1472.78 344.601 1470.76 344.487 1469.2 343.429C1467.65 342.37 1466.8 340.54 1467 338.667C1467.2 336.794 1468.41 335.184 1470.16 334.479Z"/><path fill="#FEF3DD" transform="translate(-1002 0)" d="M1489.59 243.228C1506.86 241.448 1526.94 245.951 1540.82 256.551C1568.46 277.653 1574.26 310.592 1579.01 342.566C1572.64 340.049 1564.2 338.139 1557.42 336.404C1547.73 305.388 1537.03 282.045 1505.35 269.881C1466.59 262.719 1445.9 307.053 1436.06 336.825C1428.93 338.618 1421.82 340.51 1414.74 342.501C1423.06 291.613 1433.81 253.808 1489.59 243.228Z"/><path fill="#FC7E5E" transform="translate(-1002 0)" d="M1495.59 220.433C1574.12 216.813 1601.26 296.007 1602.06 361.319L1591.09 366.893C1586.01 324.303 1584.56 276.933 1546.34 248.663C1532.17 238.184 1518.14 235.735 1501.14 233.044C1421.69 233.604 1409.3 302.469 1402.82 366.921L1391.86 360.907C1392.27 290.46 1418.64 227.707 1495.59 220.433Z"/><path fill="#FC7E5E" transform="translate(-1002 0)" d="M1383.15 366.469C1423.74 389.334 1463.22 392.232 1508.87 391.183C1539.05 390.49 1572.74 386.458 1600.22 373.308C1604.53 371.247 1605.63 368.839 1611.03 368.099C1614.74 369.316 1613.4 368.181 1615.23 371.574C1615.36 378.263 1614.62 380.654 1610.87 386.192C1563.43 415.289 1474.38 413.622 1420.87 400.792C1405.49 397.104 1366.94 389.586 1383.15 366.469Z"/><path fill="#FC7E5E" transform="translate(-1002 0)" d="M1560.5 347.314C1566.14 348.399 1574.23 351.187 1579.92 352.968C1581.49 359.867 1582.98 366.156 1578.41 371.995L1562.03 375.826C1561.97 366.198 1561.2 356.901 1560.5 347.314Z"/><path fill="#FC7E5E" transform="translate(-1002 0)" d="M1429.43 348.044L1431.63 348.444C1433.98 352.033 1431.72 370.367 1431.29 375.695L1418.27 372.382C1409.55 370.125 1412.61 359.837 1413.56 353.132C1418.46 351.375 1424.39 349.643 1429.43 348.044Z"/><path fill="#040403" transform="translate(-1002 0)" d="M1209.12 211.398C1294.13 203.922 1328.51 281.653 1330.24 354.403C1352.1 368.111 1346.57 381.565 1331.3 397.332C1323.59 469.385 1299.62 502.662 1225.78 508.141C1190.2 509.494 1148.25 503.759 1125.6 473.104C1109.38 451.164 1106.09 426.009 1100.77 400.185C1099.33 395.879 1095.38 391.259 1092.76 387.721C1081.69 372.789 1090.25 363.826 1102.3 354.988C1103.73 286.537 1133.24 218.583 1209.12 211.398Z"/><path fill="#FC7E5E" transform="translate(-1002 0)" d="M1111.7 402.249C1183.67 426.939 1249.59 425.492 1321.57 402.139C1318.32 426.718 1313.41 442.38 1301.87 464.001C1299.4 467.756 1296.66 471.332 1293.69 474.702C1264.17 507.642 1174.08 506.56 1141.75 477.488C1125.25 462.657 1112.29 423.939 1111.7 402.249Z"/><path fill="#FBC19A" transform="translate(-1002 0)" d="M1211.28 278.041C1257.15 277.037 1271.58 342.425 1272.18 377.726C1255.71 379.615 1239.19 381.016 1222.63 381.925C1200.57 381.986 1182.25 379.882 1160.43 377.183C1161.57 337.484 1172.33 295.886 1211.28 278.041Z"/><path fill="#040403" transform="translate(-1002 0)" d="M1207.36 335.754C1213.14 337.733 1222.5 336.654 1225.21 339.011L1225.33 342.312C1219.98 344.215 1214.56 345.68 1209.51 342.482C1206.91 338.554 1207.7 340.681 1207.36 335.754Z"/><path fill="#040403" transform="translate(-1002 0)" d="M1238.92 328.47C1240.59 327.634 1242.59 327.762 1244.14 328.807C1245.7 329.852 1246.57 331.652 1246.43 333.519C1246.28 335.387 1245.15 337.034 1243.45 337.831C1240.88 339.044 1237.8 337.957 1236.56 335.393C1235.32 332.83 1236.37 329.743 1238.92 328.47Z"/><path fill="#040403" transform="translate(-1002 0)" d="M1189.35 328.491C1191.94 327.495 1194.86 328.714 1195.97 331.257C1197.08 333.801 1195.98 336.766 1193.49 337.985C1191.78 338.822 1189.75 338.653 1188.2 337.543C1186.65 336.433 1185.83 334.562 1186.07 332.671C1186.31 330.781 1187.57 329.175 1189.35 328.491Z"/><path fill="#FEF3DD" transform="translate(-1002 0)" d="M1207.53 243.175C1272.44 237.758 1290.42 288.054 1298.63 342.88C1292.1 340.349 1283.77 338.314 1276.9 336.443C1275.24 330.533 1273.3 324.707 1271.08 318.987C1262.19 296.35 1249.22 280.027 1226.8 270.259C1185.64 262.944 1166.6 304.466 1156.24 336.443L1134.53 341.88C1139.59 292.565 1155.72 253.906 1207.53 243.175Z"/><path fill="#FC7E5E" transform="translate(-1002 0)" d="M1212.74 220.43C1236.46 218.692 1263.94 228.244 1281.13 244.697C1313.7 275.869 1320.32 318.72 1321.71 361.492L1310.08 367.12C1310.39 303.725 1292.04 243.276 1221.62 233.364C1201.77 231.754 1179.53 238.367 1164.38 251.311C1130.35 280.38 1126.43 325.815 1122.85 366.991C1119.08 365.034 1115.31 362.969 1111.57 360.962C1113.1 292.376 1136.17 228.179 1212.74 220.43Z"/><path fill="#FC7E5E" transform="translate(-1002 0)" d="M1101.5 366.384C1108.4 370.149 1118.85 376.191 1126.73 378.488C1187.8 396.284 1257.36 397.047 1317.21 374.491C1322.12 372.641 1325.1 368.347 1330.55 367.866C1333.91 369.279 1332.54 368.207 1334.68 371.345C1335.49 377.385 1334.23 379.807 1331.05 384.963C1280.21 419.075 1162.99 415.116 1109.39 389.945C1097.61 384.418 1095.76 377.087 1101.5 366.384Z"/><path fill="#FC7E5E" transform="translate(-1002 0)" d="M1148.55 347.934C1150.59 348.078 1149.6 347.896 1151.53 349.173C1153.56 355.961 1151.6 368.3 1150.75 375.478L1140.4 372.72C1137.16 372.024 1135.71 372.015 1133.17 369.864C1130.83 364.901 1132.41 358.689 1133.08 352.979L1148.55 347.934Z"/><path fill="#FC7E5E" transform="translate(-1002 0)" d="M1280.05 347.111C1286.94 348.82 1293.05 351.044 1299.75 353.373C1301 360.033 1302.98 366.488 1297.74 371.649L1281.51 375.8C1281.59 366.675 1280.66 356.311 1280.05 347.111Z"/><path fill="#040403" transform="translate(-1002 0)" d="M1633.26 462.198C1674.14 454.545 1677.03 541.237 1625.88 543.693C1571.31 534.01 1592.4 477.103 1633.26 462.198Z"/><path fill="#FBC19A" transform="translate(-1002 0)" d="M1635.03 468.965C1667.53 470.235 1664.45 533.447 1623.46 536.532C1580.81 520.785 1606.57 483.489 1635.03 468.965Z"/><path fill="#040403" transform="translate(-1002 0)" d="M1625.18 495.829C1629.83 497.156 1634.11 500.206 1637.49 503.627C1633.47 504.146 1633.2 504.312 1629.48 503.037C1626.42 500.478 1626.48 499.81 1625.18 495.829Z"/><path fill="#040403" transform="translate(-1002 0)" d="M1344.03 460.192C1349.7 459.957 1354 460.556 1359.37 462.481C1372.95 467.452 1383.96 477.674 1389.93 490.847C1399.64 512.199 1392.73 530.232 1371.46 539.731C1321.37 552.692 1309.23 476.154 1344.03 460.192Z"/><path fill="#FBC19A" transform="translate(-1002 0)" d="M1345.59 466.878C1373.91 468.048 1405.66 509.063 1371.55 532.493C1333.11 544.309 1319.61 489.559 1345.59 466.878Z"/><path fill="#040403" transform="translate(-1002 0)" d="M1359.56 496.779C1360.36 496.833 1359.76 496.715 1361.78 497.589C1360.53 500.867 1359.25 501.18 1356.23 503.662C1354.04 502.78 1354.17 502.893 1352.92 500.893C1354.8 498.234 1356.1 498.36 1359.56 496.779Z"/><path fill="#FC7E5E" transform="translate(-1002 0)" d="M1357 212.534C1362.02 217.647 1361.02 224.937 1367.4 232.741C1372.42 234.547 1376.17 235.578 1380.61 238.567C1380.56 240.494 1377.49 241.311 1375.11 242.763C1363.85 249.62 1362.58 251.559 1358.38 263.504C1349.68 260.617 1354.41 253.634 1348.08 248.088C1344.16 244.645 1336.1 244.537 1333.82 240.304C1336.29 236.113 1343.53 234.768 1347.77 229.554C1352.32 223.949 1353.72 219.03 1357 212.534Z"/><path fill="#FC7E5E" transform="translate(-1002 0)" d="M1696.49 516.28L1698.94 517.577C1704.61 527.742 1706.68 529.574 1716.76 534.553C1706.7 540.092 1703.33 541.985 1698.31 552.142L1696.83 551.549C1691.12 543.311 1686.56 540.416 1678.34 535.158L1691.07 529.558L1696.49 516.28Z"/><path fill="#FC7E5E" transform="translate(-1002 0)" d="M1088.25 469.324C1092.07 471.473 1092.96 474.662 1094.95 478.763C1099.46 481.622 1104.83 483.945 1109.7 486.246C1096.59 491.505 1094.73 493.637 1091.22 506.691C1085.29 505.964 1086.94 498.021 1082 493.612C1078.61 490.597 1073.94 488.722 1069.85 486.784C1072.3 485.734 1074.72 484.644 1077.13 483.513C1084.84 479.844 1085.56 476.87 1088.25 469.324Z"/><path fill="#FC7E5E" transform="translate(-1002 0)" d="M1887.01 196.63C1895.52 202.953 1892.02 207.258 1907.51 214.243C1901.73 216.2 1898.28 217.126 1893.05 220.432C1891.5 224.78 1890.52 228.506 1887.82 232.221L1880.1 219.401C1875.89 217.322 1870.66 215.334 1866.26 213.525C1871.43 211.885 1876 210.108 1881.03 208.158C1882.99 205.234 1885.38 199.946 1887.01 196.63Z"/><path fill="#FC7E5E" transform="translate(-1002 0)" d="M1127.77 517.617C1131.44 516.061 1135.67 516.638 1138.78 519.12C1141.9 521.602 1143.4 525.591 1142.71 529.513C1142.01 533.435 1139.22 536.66 1135.44 537.916C1129.91 539.754 1123.92 536.899 1121.86 531.448C1119.8 525.997 1122.41 519.893 1127.77 517.617Z"/><path fill="#FC7E5E" transform="translate(-1002 0)" d="M1396.41 185.641C1400.54 190.271 1406.23 192.931 1404.31 198.946C1400.58 202.144 1399.8 203.232 1397.53 207.597L1396.86 207.952C1393.98 207.629 1391.88 202.023 1388.22 197.731L1387.48 196.874C1390.52 193.183 1393.5 189.438 1396.41 185.641Z"/><path fill="#FC7E5E" transform="translate(-1002 0)" d="M1907.7 263.794C1911.93 262.44 1916.45 264.791 1917.76 269.029C1919.08 273.266 1916.68 277.763 1912.44 279.041C1908.24 280.301 1903.81 277.946 1902.51 273.763C1901.21 269.579 1903.53 265.13 1907.7 263.794Z"/></g></svg>