<?xml version="1.0" encoding="utf-8" ?><svg xmlns="http://www.w3.org/2000/svg" xmlns:xlink="http://www.w3.org/1999/xlink" width="785" height="834" viewBox="0 0 785 834"><clipPath id="concepts-dividends-cl_1f"><rect width="785" height="834"/></clipPath><g clip-path="url(#concepts-dividends-cl_1f)"><path fill="#100E16" d="M287.958 208.629C293.46 189.105 299.58 174.506 315.976 161.278C333.083 147.626 354.972 141.45 376.692 144.146C403.403 147.409 419.152 161.905 435.062 182.1C448.712 173.51 462.729 168.665 479.031 168.599C497.952 168.407 516.161 175.804 529.589 189.135C547.156 206.659 551.394 223.821 551.336 247.66C575.315 256.07 594.912 266.191 609.748 287.542C624.438 308.47 630.059 334.441 625.336 359.57C618.66 394.629 599.066 412.396 571.113 431.381C576.679 461.822 567.053 478.8 548.835 501.869L549.058 502.276C554.007 511.13 556.026 517.847 553.274 528.4C551.137 536.86 545.602 544.062 537.978 548.306C529.699 552.854 518.653 553.704 509.785 550.708C495.648 545.931 491.027 538.359 484.798 526.238C476.691 526.088 469.398 525.66 461.346 524.205C454.467 522.962 440.166 514.262 434.515 516.134C430.362 521.561 430.813 531.159 429.985 538.026C425.362 576.373 430.151 607.127 434.789 644.608C448.367 644.275 458.943 645.322 471.874 649.243C474.045 613.171 470.161 594.618 516.162 595.42C528.366 595.633 536.12 598.217 547.072 603.654C557.948 611.53 554.872 621.519 553.063 633.519C565.947 627.955 577.628 625.973 591.651 626.54C630.307 628.103 627.339 646.588 625.221 677.259C645.742 678.623 660.014 683.408 658.32 707.856C656.139 739.327 591.013 734.978 578.104 716.473C577.316 711.306 578.001 703.037 576.36 699.94L574.565 699.682C570.36 703.389 569.826 712.564 567.033 716.49C553.679 735.267 510.862 730.005 494.915 719.378C492.615 709.642 489.11 696.447 484.492 687.661C484.3 692.777 484.534 704.118 483.678 708.16C478.977 723.053 464.923 726.696 450.463 728.329C437.666 729.774 419.873 727.461 409.678 719.248C402.769 713.683 403.497 706.081 403.228 697.887C396.488 701.923 389.044 707.989 382.38 712.445C362.019 726.061 360.365 716.164 361.392 697.421C349.547 700.068 326.416 706.225 315.404 701.134C314.797 700.408 314.19 699.682 313.583 698.956C317.658 686.244 338.954 669.894 341.796 656.735C349.923 619.107 350.81 572.134 348.843 534.504C334 534.253 325.646 528.758 314.624 519.805C287.339 538.32 261.804 545.442 231.953 525.419C212.046 512.065 207.928 493.484 203.828 471.134C198.263 468.474 192.781 465.641 187.392 462.64C125.097 427.459 134.822 329.268 196.99 299.829C210.166 293.59 218.329 291.031 232.398 287.198C229.965 280.488 227.384 271.539 226.935 264.43C225.971 250.662 230.744 237.109 240.125 226.984C253.959 211.848 268.985 209.498 287.958 208.629Z"/><path fill="#5BB48F" d="M356.482 151.157C393.662 148.202 413.091 162.386 433.694 191.96C451.618 180.177 468.431 173.453 490.36 177.096C507.927 179.883 523.613 189.675 533.833 204.233C544.692 219.838 546.085 236.723 542.702 254.767C547.687 255.697 554.441 257.135 559.239 258.658C581.387 265.509 599.824 281.026 610.357 301.679C621.161 322.909 622.948 347.598 615.315 370.163C606.117 397.763 588.765 413.334 563.515 425.911C564.101 428.478 564.57 431.071 564.923 433.68C568.346 459.804 561.121 474.44 545.518 494.616C537.897 487.269 530.064 481.902 519.187 480.952C510.398 480.113 501.642 482.856 494.904 488.561C485.138 496.925 483.398 506.3 482.521 518.135C463.221 517.895 454.172 515.481 437.008 507.01C447.636 481.194 459.622 469.264 477.891 448.515C488.03 450.612 513.44 451.943 517.581 439.957C513.573 437.134 496.848 442.644 490.762 443.097C466.631 444.892 466.777 424.98 455.691 416.196L453.741 417.005C452.053 421.489 454.921 427.499 456.64 431.901C445.996 445.428 431.723 457.557 418.367 468.362C417.416 448.082 419.642 428.9 422.258 408.873C429.759 407.227 447.315 401.734 451.098 394.833C450.261 391.637 451.139 392.966 447.93 391.034C443.139 392.045 434.652 397.58 428.476 400.176L427.173 400.714C385.169 408.332 387.72 378.54 372.729 378.935C368.586 385.276 383.51 397.578 388.06 401.543C384.99 418.221 379.953 442.954 370.298 456.746C363.538 466.403 338.809 435.596 334.333 430.408C335.794 424.375 339.744 411.267 333.934 407.38C326.846 409.678 331.962 427.657 320.937 440.528C305.267 458.822 293.198 448.79 283.68 458.417L284.349 460.58C291.634 465.908 308.149 458.046 315.492 454.489C338.874 478.088 345.296 496.077 349.317 528.176C331.369 525.034 327.061 521.487 314.741 509.176C302.362 521.428 287.766 529.734 269.968 530.28C255.166 530.805 240.793 525.255 230.184 514.92C215.531 500.744 211.938 484.356 211.625 464.856C200.855 461.639 193.547 459.142 184.253 452.46C167.242 440.053 155.87 421.384 152.649 400.577C149.018 376.241 155.239 351.462 169.935 331.728C189.406 305.461 211.271 298.421 241.828 294.066C234.077 271.741 227.524 248.668 247.809 228.964C260.959 216.191 277.215 216.286 294.411 217.157C295.522 205.304 299.334 193.863 305.555 183.713C317.674 164.357 335.011 156.016 356.482 151.157Z"/><path fill="#100E16" d="M315.868 226.793C337.162 227.283 348.633 236.95 353.138 257.256C387.38 274.236 385 310.099 352.768 327.413C337.299 332.183 319.887 328.438 311.349 313.612C306.382 304.93 305.133 294.61 307.885 284.995C311.571 271.94 319.058 266.253 329.982 260.107C318.398 250.11 312.388 242.262 315.868 226.793Z"/><path fill="#FBB34E" d="M341.77 263.16C355.698 262.099 366.964 269.678 370.006 283.516C371.889 292.217 370.256 301.31 365.465 308.813C359.804 317.62 352.427 321.476 342.531 323.661C336.34 323.477 332.17 322.921 326.622 319.811C319.953 316.098 315.143 309.762 313.359 302.341C308.628 282.713 323.612 267.449 341.77 263.16Z"/><path fill="#140C0D" d="M363.444 289.714L364.748 291.507C365.806 306.603 352.261 315.997 338.379 317.024L337.509 315.941C338.674 314.243 350.834 309.994 354.273 308.458C357.461 303.879 360.664 295.326 363.444 289.714Z"/><path fill="#140C0D" d="M341.846 268.969L343.416 270.229L342.989 271.712C327.131 279.58 324.425 282.279 321.265 299.575L319.444 298.551C314.363 284.975 330.638 273.047 341.846 268.969Z"/><path fill="#5BB48F" d="M321.06 233.247C336.604 238.056 341.66 240.472 347.156 256.222C328.318 255.491 325.106 251.218 321.06 233.247Z"/><path fill="#100E16" d="M248.979 365.506C268.454 361.787 287.26 374.55 290.995 394.023C294.729 413.495 281.981 432.311 262.512 436.061C243.02 439.816 224.178 427.05 220.439 407.555C216.7 388.061 229.482 369.229 248.979 365.506Z"/><path fill="#FBB34E" d="M254.164 371.122C292.833 369.687 296.355 417.939 258.963 430.315C216.414 431.648 215.182 380.064 254.164 371.122Z"/><path fill="#140C0D" d="M277.009 396.509C285.597 405.126 265.972 424.986 251.271 424.616C249.573 423.07 249.921 423.979 249.82 422.082C274.898 414.085 265.654 416.976 277.009 396.509Z"/><path fill="#140C0D" d="M254.632 375.765C255.894 376.177 257.833 377.198 259.097 377.804C259.19 379.989 259.367 379.103 255.393 380.853C242.692 386.445 241.133 387.753 234.82 399.276C234.049 400.863 234.573 400.104 233.161 401.49C232.35 389.243 244.578 380.216 254.632 375.765Z"/><path fill="#100E16" d="M479.766 278.145C485.977 278.075 491.562 278.843 497.364 281.199C507.252 285.202 515.049 293.109 518.912 303.053C528.47 327.154 515.228 342.561 493.487 350.736C450.222 353.712 429.269 292.517 479.766 278.145Z"/><path fill="#FBB34E" d="M477.433 285.171C483.081 284.44 487.734 284.526 493.145 286.545C502.193 289.921 509.411 296.936 513.045 305.884C520.005 323.096 511.452 337.826 494.677 343.928C488.609 344.397 483.514 344.226 477.846 341.838C469.063 338.158 462.187 331.018 458.839 322.103C452.695 305.292 460.9 290.747 477.433 285.171Z"/><path fill="#140C0D" d="M462.853 309.435C468.938 312.798 468.002 322.908 472.924 327.648C478.127 332.66 485.066 332.926 491.227 336.981C475.027 341.984 463.301 324.327 462.853 309.435Z"/><path fill="#140C0D" d="M484.03 292.186C499.319 289.541 510.158 306.395 508.792 320.36L506.68 318.286C502.82 302.066 498.363 299.25 484.03 292.186Z"/><path fill="#5BB48F" d="M394.49 404.547C400.866 406.774 408.657 408.118 415.373 409.478C414.584 413.935 413.959 418.419 413.499 422.921C412.175 434.997 407.62 462.757 414.679 471.56C427.173 479.105 453.382 446.112 461.096 437.235C464.307 440.078 468.359 443.044 471.8 445.699C463.537 455.403 450.602 468.43 443.644 478.719C412.487 524.795 420.041 594.702 428.924 646.529C401.849 654.726 404.756 662.945 406.191 688.061L403.379 689.695C390.922 696.777 383.149 704.165 371.48 711.316L369.458 711.928C362.706 709.064 372.201 697.627 367.796 689.525C361.898 688.119 327.295 696.102 318.453 697.759C321.886 694.885 328.92 689.031 331.906 685.98C356.968 660.376 356.068 597.609 357.102 563.346C358.554 515.295 354.732 485.722 320.733 450.867L331.414 437.54C377.677 493.666 384.729 452.173 394.49 404.547Z"/><path fill="#FBB34E" d="M514.463 487.146C550.466 486.046 563.391 540.451 523.556 547.957C486.393 543.306 472.381 495.242 514.463 487.146Z"/><path fill="#140C0D" d="M497.214 510.71C500.591 519.138 501.38 530.411 511.46 533.92C515.506 535.329 522.658 536.352 523.332 540.608C509.53 543.345 491.909 525.655 497.214 510.71Z"/><path fill="#140C0D" d="M518.465 493.176C533.346 497.316 542.873 507.144 542.245 523.346C536.673 520.223 538.203 509.396 533.407 504.569C528.867 500.001 519.164 499.96 518.465 493.176Z"/><path fill="#FBB34E" d="M507.014 660.076C519.893 660.909 526.416 659.265 538.845 656.371C540.401 658.306 540.94 659.487 543 660.582C546.305 662.143 545.139 660.92 546.449 664.525C545.371 668.894 544.411 669.438 541.338 672.628L537.832 676.424L538.421 678.288C545.684 680.999 548.357 677.805 554.429 684.088C589.541 707.063 507.222 714.464 498.925 695.044C499.489 688.686 501.239 688.29 506.603 685.114C509.707 682.262 509.001 683.851 510.009 680.532L508.234 679.308C503.484 679.214 502.466 678.98 498.281 676.732L486.246 672.069L485.203 661.85C493.732 664.387 497.518 665.43 506.246 666.297C508.203 665.047 507.641 665.653 508.784 663.572L507.014 660.076Z"/><path fill="#FBB34E" d="M507.014 660.076C519.893 660.909 526.416 659.265 538.845 656.371C540.401 658.306 540.94 659.487 543 660.582C546.305 662.143 545.139 660.92 546.449 664.525C545.371 668.894 544.411 669.438 541.338 672.628C525.985 675.71 513.929 677.536 498.281 676.732L486.246 672.069L485.203 661.85C493.732 664.387 497.518 665.43 506.246 666.297C508.203 665.047 507.641 665.653 508.784 663.572L507.014 660.076Z"/><path fill="#140C0D" d="M507.014 660.076C519.893 660.909 526.416 659.265 538.845 656.371C540.401 658.306 540.94 659.487 543 660.582C531.121 666.341 519.348 667.986 506.246 666.297C508.203 665.047 507.641 665.653 508.784 663.572L507.014 660.076Z"/><path fill="#140C0D" d="M498.281 676.732C513.929 677.536 525.985 675.71 541.338 672.628L537.832 676.424L538.421 678.288C545.684 680.999 548.357 677.805 554.429 684.088C534.562 680.309 526.503 679.802 506.603 685.114C509.707 682.262 509.001 683.851 510.009 680.532L508.234 679.308C503.484 679.214 502.466 678.98 498.281 676.732Z"/><path fill="#FBB34E" d="M579.781 633.374C616.509 630.233 636.775 653.203 591.232 658.701C580.53 659.571 557.423 658.775 554.455 645.974C555.85 635.387 571.352 634.575 579.781 633.374Z"/><path fill="#FBB34E" d="M439.776 651.377C450.474 650.268 473.437 651.409 476.559 664.106C475.441 674.844 459.932 675.718 451.596 676.936C441.571 677.125 411.773 675.732 415.055 660.511C420.719 653.055 430.764 652.65 439.776 651.377Z"/><path fill="#FBB34E" d="M615.741 683.447C650.073 680.655 668.11 703.988 621.169 708.628C610.79 709.542 592.782 708.151 587.264 698.025C586.544 684.757 606.208 684.29 615.741 683.447Z"/><path fill="#FBB34E" d="M504.258 602.254C517.169 600.913 538.31 601.729 546.481 613.33C548.092 622.711 533.825 624.535 526.775 626.111C513.902 628.113 489.624 627.656 482.378 615.163C481.978 605.528 496.855 603.768 504.258 602.254Z"/><path fill="#FBB34E" d="M551.16 658.63L552.626 657.177C566.338 659.413 573.097 666.566 590.045 664.625C596.444 663.892 616.799 657.828 618.346 658.156C622.614 672.26 601.457 672.448 593.059 675.196C590.956 679.122 592.497 679.012 591.44 681.203C571.797 698.182 570.887 683.512 551.843 677.273L550.686 676.906L548.881 675.604C548.636 671.842 549.779 674.058 552.462 669.136C551.415 664.786 551.102 663.077 551.16 658.63Z"/><path fill="#140C0D" d="M550.686 676.906L548.881 675.604C548.636 671.842 549.779 674.058 552.462 669.136C551.415 664.786 551.102 663.077 551.16 658.63C558.969 677.571 575.497 674.728 593.059 675.196C590.956 679.122 592.497 679.012 591.44 681.203C571.797 698.182 570.887 683.512 551.843 677.273L550.686 676.906Z"/><path fill="#FBB34E" d="M550.686 676.906L551.562 673.996C555.118 673.174 564.051 679.471 568.748 680.154C576.121 681.225 584.023 681.034 591.44 681.203C571.797 698.182 570.887 683.512 551.843 677.273L550.686 676.906Z"/><path fill="#FBB34E" d="M507.014 660.076C498.235 659.582 477.392 656.315 480.422 643.43C483.187 641.638 498.713 648.629 507.098 649.545C517.977 650.734 541.459 644.223 545.507 645.08C548.467 649.529 542.432 654.22 538.845 656.371C526.416 659.265 519.893 660.909 507.014 660.076Z"/><path fill="#FBB34E" d="M546.342 624.875C547.501 625.179 547.684 625.626 548.747 626.544C552.222 645.955 498.567 646.54 484.572 636.653C481.945 633.583 481.418 631.911 480.894 628.148L482.161 626.674C487.363 626.762 491.116 628.9 496.17 630.3C514.126 635.276 530.058 633.398 546.342 624.875Z"/><path fill="#FBB34E" d="M475.86 704.123L476.962 705.137C479.752 725.816 427.356 724.107 412.89 714.237C410.481 711.272 409.879 710.313 409.924 706.982C412.909 704.68 420.825 707.787 425.686 709.023C446.389 714.289 456.589 710.536 475.86 704.123Z"/><path fill="#FBB34E" d="M649.689 707.057C651.626 707.083 650.655 706.93 652.667 708.913L652.713 708.701C652.378 714.553 647.123 719.553 641.636 720.985C622.477 725.986 605.917 725.649 587.71 717.682C585.224 715.013 585.25 714.123 584.362 710.64C584.631 710.032 584.9 709.424 585.169 708.816C589.502 708.084 603.924 712.816 607.683 713.37C624.515 715.847 634.766 713.808 649.689 707.057Z"/><path fill="#FBB34E" d="M496.991 704.575C516.267 711.979 531.688 715.603 551.672 708.631C554.496 707.646 561.892 705.205 564.287 705.434C565.438 709.384 564.847 708.791 563.742 713.429C549.628 724.27 514.944 725.495 500.556 714.35C497.487 711.972 497.28 708.074 496.991 704.575Z"/><path fill="#FBB34E" d="M477.678 675.065L479.407 675.571C481.569 685.059 473.898 687.484 466.665 689.895C450.444 695.303 429.757 692.456 414.707 684.995C412.885 682.792 412.755 681.316 412.042 678.565C412.285 677.933 412.527 677.302 412.77 676.67C417.101 676.116 430.058 681.042 434.501 681.713C451.41 684.268 462.672 681.861 477.678 675.065Z"/><path fill="#FBB34E" d="M410.329 690.767C445.746 702.278 438.896 700.176 474.429 694.655L474.796 695.846L473.239 698.207C463.249 703.263 451.539 705.867 440.356 705.233C431.651 704.739 407.383 703.564 410.329 690.767Z"/><path fill="#FBB34E" d="M485.506 678.474C489.91 679.586 494.689 679.735 496.35 684.113L494.787 687.094C491.149 688.963 489.837 689.549 486.526 687.321C484.798 683.662 485.197 682.7 485.506 678.474Z"/><path fill="#100E16" d="M1195.85 978.952C1174.81 932.082 1176.43 882.437 1214.5 844.825C1220.74 838.66 1227.58 833.124 1234.91 828.298C1250.3 818.054 1280.15 802.299 1298.66 798.126C1307.12 796.221 1308.2 825.526 1308.59 830.558C1313.02 887.815 1302.28 945.32 1244.91 971.397C1235.54 975.67 1224.51 980.21 1215.2 985.061C1204.8 1014.26 1199.11 1039.37 1199.91 1070.57C1229.45 1047.83 1215.01 1026.59 1243.92 1000.61C1260.25 984.382 1287.79 978.953 1310.08 980.408C1318.9 980.984 1342.53 981.394 1348.18 987.616C1348.54 988.741 1348.85 989.934 1348.47 991.139C1340.78 1015.4 1323.45 1041.93 1303.18 1056.77C1281.39 1072.72 1255.16 1072.29 1230.18 1068L1220.05 1081.89C1233.44 1084.54 1243.18 1087.05 1251.85 1098.41C1265.33 1116.08 1259.23 1129.58 1243.24 1141.12L1252.24 1143.63C1275.19 1147.92 1270.72 1180.3 1265.25 1196.11L1258.76 1201.11C1252.25 1224.49 1251 1254.7 1243.1 1282.26C1220.27 1300.5 1151.62 1300.71 1129.48 1282.51C1122.91 1267.89 1118.83 1245.42 1116.92 1229.34C1097.89 1230.69 1073.77 1227.38 1056.37 1219.47C1047.03 1227.1 1037.48 1231.56 1026.22 1235.5L1024.23 1259.05C1078.58 1282.26 1016.74 1300.58 993.841 1288.05C987.241 1284.44 987.792 1255.07 987.152 1246.71C971.408 1246.99 960.281 1247.28 944.593 1246.57C944.084 1251.94 944.244 1258.02 944.232 1263.47C945.661 1264.15 947.213 1264.71 948.663 1265.36C994.238 1285.93 928.98 1303.71 911.174 1291.21C903.755 1279.9 905.589 1252.63 904.449 1237.4C848.061 1216.01 801.383 1165.97 792.133 1104.92C768.305 947.651 932.491 842.459 1066.58 934.492C1058.79 909.957 1058.55 884.467 1060.28 859.09C1074.77 860.591 1086.07 865.122 1099.82 870.264C1141.09 885.695 1169.11 914.713 1172.44 959.964C1173.35 972.381 1168.54 986.006 1169.93 996.813C1170.83 1003.89 1179.31 1021.91 1182.49 1029.37C1186.54 1019.47 1193.2 990.253 1195.85 978.952ZM1130.18 1024.48C1139.88 1031.91 1142.47 1034.29 1148.87 1044.74C1155.06 1054.86 1158.11 1076.72 1169.01 1081.17C1172.1 1056.99 1163.26 1027.18 1152.27 1005.87C1142.25 1001.23 1130.76 995.963 1119.88 993.719C1119.93 998.856 1128.03 1018.74 1130.18 1024.48Z"/><path fill="#100E16" d="M640.276 444.364C678.276 441.992 668.333 456.652 653.52 481.821C646.867 493.126 632.866 500.58 619.952 502.638C588.29 506.652 587.072 490.282 601.312 466.983C610.378 452.149 624.446 447.543 640.276 444.364Z"/><path fill="#5BB48F" d="M640.794 451.28C647.126 450.807 653.533 451.137 659.894 451.298C649.939 484.073 639.395 498.803 602.749 495.908C609.805 489.556 615.213 484.813 623.327 479.924C626.569 477.883 634.256 473.161 633.394 468.855C624.583 468.748 606.168 484.36 598.758 490.036C606.168 466.957 615.942 454.76 640.794 451.28Z"/><path fill="#100E16" d="M148.185 230.288C171.552 228.671 193.705 233.59 205.635 257.558C210.181 266.69 204.79 273.599 195.973 277.181C175.372 279.918 158.103 275.363 145.916 257.432C141.19 250.478 136.357 242.917 139.933 234.396C142.577 231.471 144.382 231.372 148.185 230.288Z"/><path fill="#5BB48F" d="M149.196 237.378C176.197 235.972 187.769 237.825 199.637 264.355C192.537 259.931 175.513 248.564 167.818 249.859L166.755 251.696L167.967 253.928C179.556 258.673 187.19 263.901 197.548 270.723C181.006 271.882 163.597 271.655 152.859 256.592C150.075 252.686 145.242 243.995 146.022 239.158L149.196 237.378Z"/><path fill="#100E16" d="M305.315 566.269C327.206 566.136 320.484 620.588 277.236 631.527C266.455 634.436 264.953 619.691 265.316 612.473C266.661 585.704 281.107 572.643 305.315 566.269Z"/><path fill="#5BB48F" d="M298.531 574.957C299.862 575.295 299.102 574.962 300.527 576.441C297.231 584.07 285.36 595.236 287.007 603.291C291.435 601.998 301.919 584.548 307.786 578.317L309.005 577.036C309.884 587.561 309.812 593.927 306.418 604.091C270.936 655.659 252.527 597.856 298.531 574.957Z"/><path fill="#989187" fill-opacity="0.019607844" d="M547.072 603.654C546.039 599.618 546.096 599.664 543.972 596.111L544.377 594.51C549.13 594.499 549.377 593.734 552.863 595.765L552.815 597.605C552.774 599.72 552.777 600.054 553.345 602.159C559.594 605.756 559.205 604.435 559.398 612.052C559.499 616.069 558.1 621.929 560.692 624.675C572.824 622.108 604.492 621.307 615.056 625.017L619.075 628.993C620.489 628.25 621.888 627.477 623.27 626.676L624.661 627.211C630.249 642.751 634.023 656.69 629.523 673.467C660.979 677.227 661.691 679.209 663.251 711.193C663.503 716.346 656.554 724.978 652.318 727.587C627.632 742.622 597.741 733.918 572.741 724.299C572.011 723.265 571.28 722.232 570.55 721.198C564.787 725.254 559.796 729.77 552.869 731.214C531.427 735.684 510.313 734.808 491.035 723.537C484.225 719.555 486.952 713.862 483.678 708.16C484.534 704.118 484.3 692.777 484.492 687.661C489.11 696.447 492.615 709.642 494.915 719.378C510.862 730.005 553.679 735.267 567.033 716.49C569.826 712.564 570.36 703.389 574.565 699.682L576.36 699.94C578.001 703.037 577.316 711.306 578.104 716.473C591.013 734.978 656.139 739.327 658.32 707.856C660.014 683.408 645.742 678.623 625.221 677.259C627.339 646.588 630.307 628.103 591.651 626.54C577.628 625.973 565.947 627.955 553.063 633.519C554.872 621.519 557.948 611.53 547.072 603.654Z"/><path fill="#140C0D" d="M586.383 167.865L587.119 168.965C588.262 170.699 587.837 170.035 588.996 172.057C594.028 174.134 592.977 171.829 596.722 169.454C599.206 175.086 599.801 176.136 603.568 180.993C608.882 182.578 613.73 183.491 617.989 186.889L618.683 188.72C613.598 196.04 599.609 192.339 594.704 210.065C593.056 208.964 592.761 209.078 591.758 207.38L590.31 207.162C590.33 210.692 590.405 211.784 587.578 214.035C586.578 211 585.784 205.411 585.204 202.079L583.85 200.946C577.111 195.227 571.956 194.989 564.79 190.415C563.94 187.902 563.602 188.935 565.832 187.704C578.915 180.477 580.509 180.677 586.383 167.865Z"/><path fill="#FBB34E" d="M590.423 173.473C597.67 179.842 594.719 182.234 606.084 188.253C598.872 193.455 596.39 195.904 591.926 203.322L590.778 203.635C585.991 196.397 583.846 193.698 576.781 189.048C584.911 183.453 585.847 181.811 590.423 173.473Z"/><path fill="#100E16" fill-opacity="0.96470588" d="M204.536 191.612C209.966 190.355 215.401 193.686 216.747 199.095C218.093 204.504 214.852 209.993 209.465 211.428C205.901 212.377 202.103 211.33 199.528 208.69C196.953 206.049 196.002 202.226 197.039 198.687C198.077 195.148 200.943 192.443 204.536 191.612Z"/><path fill="#FBB34E" d="M627.276 240.397C630.809 238.482 635.225 239.759 637.189 243.265C639.154 246.77 637.939 251.203 634.461 253.217C632.168 254.545 629.337 254.536 627.053 253.192C624.769 251.849 623.385 249.379 623.431 246.73C623.477 244.08 624.946 241.66 627.276 240.397Z"/><path fill="#FBB34E" d="M233.778 667.478C237.068 665.405 241.413 666.36 243.531 669.621C245.65 672.881 244.756 677.239 241.526 679.403C239.395 680.83 236.661 681 234.371 679.847C232.08 678.694 230.588 676.397 230.465 673.836C230.342 671.274 231.608 668.845 233.778 667.478Z"/><path fill="#140C0D" fill-opacity="0.97647059" d="M591.886 567.364C594.446 568.234 593.635 567.73 595.478 569.653C596.439 576.618 588.799 583.835 583.879 587.958C581.6 587.434 582.439 587.742 580.477 586.289C580.356 580.233 587.734 572.605 591.886 567.364Z"/><path fill="#140C0D" fill-opacity="0.94117647" d="M605.08 592.15C608.489 591.772 609.096 591.396 612.288 592.652L612.293 594.043C608.504 597.481 603.264 599.643 598.587 601.956C594.618 603.353 596.46 603.436 592.875 602.281L592.695 600.126C596.652 594.426 598.628 594.403 605.08 592.15Z"/><defs><linearGradient id="concepts-dividends-gradient_0" gradientUnits="userSpaceOnUse" x1="593.58344" y1="160.87941" x2="589.61127" y2="172.54848"><stop offset="0" stop-color="#140C0D" stop-opacity="0.96470588"/><stop offset="1" stop-color="#140C0D"/></linearGradient></defs><path fill="url(#concepts-dividends-gradient_0)" d="M586.383 167.865C587.174 162.901 588.623 158.835 590.124 154.056C593.351 159.607 595.618 162.969 596.722 169.454C592.977 171.829 594.028 174.134 588.996 172.057C587.837 170.035 588.262 170.699 587.119 168.965L586.383 167.865Z"/><path fill="#140C0D" fill-opacity="0.95294118" d="M564.511 561.519C571.675 564.721 567.848 576.978 565.512 582.312C558.892 577.464 562.346 568.035 564.511 561.519Z"/><path fill="#140C0D" fill-opacity="0.96862745" d="M205.216 571.348C207.965 572.356 207.012 571.777 209.021 574.043C210.619 579.804 210.009 583.955 208.169 589.658C205.599 588.352 206.442 588.96 204.514 586.824C202.495 580.622 203.057 577.569 205.216 571.348Z"/><path fill="#140C0D" fill-opacity="0.95294118" d="M204.99 537.777C209.214 542.516 210.173 551.145 206.11 556.258C200.384 551.48 200.622 543.426 204.99 537.777Z"/><path fill="#140C0D" fill-opacity="0.94901961" d="M187.867 560.385C191.768 560.204 196.422 559.658 199.371 562.332C199.238 565.181 199.549 563.759 197.001 566.522C193.228 566.511 186.912 566.824 184.18 564.079C184.988 561.168 184.302 562.56 187.867 560.385Z"/><path fill="#100E16" fill-opacity="0.94509804" d="M215.659 559.865C219.993 559.722 223.076 559.217 227.081 560.815C229.414 563.808 228.85 562.131 228.631 566.084C224.532 566.144 219.41 566.738 215.914 564.981C214.35 562.078 214.692 563.688 215.659 559.865Z"/><path fill="#140C0D" fill-opacity="0.98039216" d="M587.578 214.035C590.405 211.784 590.33 210.692 590.31 207.162L591.758 207.38C592.761 209.078 593.056 208.964 594.704 210.065C594.076 214.39 594.299 216.755 591.455 219.703L589.646 219.134C588.469 216.719 588.213 216.578 587.578 214.035Z"/></g></svg>