<?xml version="1.0" encoding="utf-8" ?><svg xmlns="http://www.w3.org/2000/svg" xmlns:xlink="http://www.w3.org/1999/xlink" width="879" height="390" viewBox="0 0 879 390"><clipPath id="concepts-stocks-vs-bonds-cl_4a"><rect width="879" height="390"/></clipPath><g clip-path="url(#concepts-stocks-vs-bonds-cl_4a)"><path fill="#040403" transform="translate(-604 -1084)" d="M1648.94 1468.49C1805.16 1457.16 1867.5 1556.17 1880.54 1695.79C1912.59 1709.43 1904.73 1736.15 1880.98 1753.95C1877.47 1800.03 1867.4 1856.26 1835.61 1891.15C1798.02 1932.41 1742.01 1936.53 1690.29 1939.56C1637.81 1940.98 1567.26 1939.38 1522.75 1909.21C1469.12 1872.86 1464.89 1809.88 1454.02 1753.17C1432.17 1734.74 1425.26 1707.11 1457.58 1696.53C1457.75 1609.39 1497.5 1513.88 1584.74 1481.84C1607.35 1473.54 1625.32 1471.18 1648.94 1468.49ZM1551.73 1635.03C1553.68 1630.97 1556.9 1621.64 1561.85 1621.73C1564.31 1626.65 1560.51 1643.62 1559.61 1650.27C1566.2 1645.55 1568.9 1643.66 1576.12 1640.19C1568.39 1618.65 1570.09 1611.36 1583.7 1593.7C1579.55 1589.03 1576.53 1585.94 1575.27 1579.83C1577.43 1574.52 1584.17 1577.71 1589.03 1574.99C1592.94 1572.8 1590.96 1567.98 1595 1563.49C1603.23 1559.58 1604.56 1567.37 1614.02 1568.1C1617.26 1566.84 1618.46 1566.09 1621.96 1566.29C1624.46 1567.62 1624.33 1567.47 1625.77 1569.9C1625.98 1574.23 1624.18 1577.78 1622.64 1581.93C1640.28 1589.97 1645.91 1592.97 1653.91 1611.25C1660.23 1592.37 1662.8 1580.88 1675.14 1565.22C1672.54 1557.27 1670.2 1550.96 1675.22 1543.25C1679.32 1536.96 1687.16 1536.53 1692.44 1541.5C1699.52 1548.16 1699.12 1556.16 1699.25 1565.06C1700.3 1565.83 1701.34 1566.62 1702.35 1567.44C1715.94 1578.49 1716.08 1595.09 1717.83 1611.32C1728.2 1608.29 1736.02 1605.84 1746.9 1604.7C1751.75 1604.19 1750.49 1590.3 1753.21 1584.31C1755.82 1582.04 1754.38 1582.52 1757.52 1582.45C1760.58 1586.2 1758.31 1589.4 1760.98 1594.4C1771.41 1592.58 1778.72 1588.18 1790.6 1591.9C1793.97 1592.61 1803.82 1598.45 1804.58 1601.89C1806.99 1612.95 1783.87 1621.19 1778.46 1623.39C1780.11 1627.55 1783.39 1632.52 1785.77 1636.45C1795.58 1637.81 1797.1 1638.96 1804.69 1644.73C1822.36 1632.97 1822.84 1641.96 1826.9 1656.44L1829.97 1657.62C1832.04 1656.53 1831.31 1657.03 1832.87 1655.17C1834.1 1640.69 1814.6 1594.98 1807.37 1581.28C1762.51 1496.28 1620.72 1487.06 1554.62 1550.01C1530.46 1573.02 1517.06 1602.19 1508.74 1634.02C1503.36 1642.22 1499.59 1675.76 1499.35 1686.61C1501.38 1682.66 1503.34 1679.34 1504.56 1675.06C1505.81 1672.02 1508.9 1667.09 1510.65 1664.08C1515.64 1659.4 1519.4 1657.14 1525.13 1653.42C1507.72 1621.06 1527.65 1613.08 1551.73 1635.03Z"/><path fill="#040403" transform="translate(-604 -1084)" d="M821.092 1114.28C831.165 1112.84 841.435 1113.73 851.113 1116.87C882.411 1126.86 906.372 1152.93 921.203 1181.41C941.32 1183.15 956.303 1189.6 970.079 1204.95C994.004 1231.62 1000.65 1272.75 965.616 1293.59C960.871 1296.41 953.966 1300.05 949.845 1303.57C947.714 1315.53 956.539 1317.88 965.981 1324.57C978.367 1333.35 994.111 1355.75 978.017 1367.76C971.806 1372.4 956.071 1365.72 949.925 1363.12C954.166 1375.82 955.402 1391.19 938.806 1393.5C922.978 1395.7 898.239 1370.51 886.159 1361.1C864.443 1368.38 838.92 1368.85 816.446 1365.34C813.844 1367.65 811.204 1369.91 808.528 1372.13C791.965 1385.68 780.895 1387.16 760.241 1385.21C749.764 1384.28 714.703 1431.36 712.728 1381.1C700.562 1387.51 678.374 1393.63 678.298 1370.79C678.254 1357.76 692.77 1336.6 701.854 1327.47C709.399 1319.88 717.714 1319.52 727.839 1320.03C728.488 1311.12 728.787 1303.19 728.957 1294.25C728.046 1293.72 727.14 1293.17 726.242 1292.62C718.703 1287.96 713.639 1281.45 711.793 1272.64C710.179 1264.89 711.737 1256.81 716.118 1250.22C728.049 1232.2 746.053 1238.88 760.231 1249.32C795.276 1231.67 811.871 1234.93 848.606 1245.29C850.342 1236.09 851.69 1229.19 854.844 1220.41C822.248 1215.17 786.967 1220.24 760.802 1195.04C740.681 1175.65 758.368 1157.02 780.057 1152C790.3 1149.63 796.77 1149.89 807.358 1150.32C800.223 1132.68 801.501 1120.93 821.092 1114.28Z"/><path fill="#9F94E2" transform="translate(-604 -1084)" d="M801.623 1157.45C824.306 1156.12 855.546 1169.01 873.094 1182.97C878.869 1187.56 885.012 1194.44 891.083 1197.86C895.826 1196.98 896.985 1192.56 899.792 1191.72C934.782 1181.29 969.7 1204.78 980.177 1237.82C995.135 1284.98 934.623 1309.88 898.29 1294.26C894.739 1292.73 887.928 1290.33 884.159 1291.33L883.457 1293.22C887.683 1308.17 928.586 1306.85 941.149 1304.96C936.594 1319.91 934.236 1324.24 922.881 1335.29C918.757 1331.54 912.454 1324.29 907.082 1328.35C906.647 1335.41 932.746 1352.37 938.309 1360.58C956.49 1387.39 933.675 1391.89 913.884 1373.4C904.86 1364.97 879.787 1345.18 868.672 1342.78L867.529 1344.73C868.504 1349.77 871.91 1351.85 875.761 1355.16C857.968 1359.78 847.553 1360.25 829.215 1359.78C814.128 1358.22 809.023 1356.88 794.625 1351.87C799.085 1344.69 809.302 1330.81 802.4 1323.38L800.447 1323.57C796.001 1328.43 795.95 1334 792.989 1339.44C777.133 1368.59 747.952 1366.43 723.123 1353.84C716.454 1362.79 701.837 1385.65 688.993 1378.46C680.147 1365.12 704.02 1336.08 714.381 1327.63C728.314 1331.3 735.335 1330.95 736.547 1314.21C738.176 1291.69 743.317 1270.29 763.493 1257.07C791.076 1239.01 820.876 1246.42 850.616 1252.82C851.396 1256.99 853.092 1267.48 858.189 1268.25C861.641 1261.6 856.151 1242.24 858.992 1231.98C863.261 1216.55 865.565 1226.85 871.81 1221.53C867.132 1209.19 818.094 1209.12 805.744 1206.9C792.076 1204.44 762.276 1195.42 760.581 1179.08C760.232 1175.68 761.259 1172.28 763.435 1169.64C771.379 1159.86 789.912 1158.45 801.623 1157.45Z"/><path fill="#040403" transform="translate(-604 -1084)" d="M799.312 1170.31C824.174 1170.49 852.032 1181.01 872.071 1196.55C874.916 1198.76 876.253 1202.02 876.277 1205.66L874.799 1206.56C870.968 1205.73 869.294 1204.13 865.983 1201.84C850.527 1191.47 843.378 1187.17 825.81 1181.55C813.775 1177.7 789.908 1181.08 783.862 1177.17L783.721 1175.56C787.084 1171.94 794.511 1171.01 799.312 1170.31Z"/><path fill="#040403" transform="translate(-604 -1084)" d="M950.329 1242.95C952.882 1243.45 952.76 1243.58 954.903 1245.14C955.781 1249.87 954.225 1250.55 952.928 1256.08L954.113 1257.69C959.408 1258.42 959.563 1256.15 964.607 1255.86L965.804 1257.39C965.292 1266.98 954.147 1263.64 946.368 1266.78C942.211 1270.27 932.633 1267.05 932.098 1262.97C935.486 1259.78 940.381 1261.64 945.449 1258.54C945.611 1252.55 939.688 1253.23 941.29 1246.84C944.169 1243.89 946.1 1243.93 950.329 1242.95Z"/><path fill="#040403" transform="translate(-604 -1084)" d="M914.998 1238.5C916.963 1237.67 919.222 1237.96 920.913 1239.26C922.604 1240.56 923.466 1242.67 923.168 1244.78C922.871 1246.89 921.46 1248.68 919.476 1249.46C916.459 1250.65 913.046 1249.2 911.82 1246.19C910.594 1243.19 912.011 1239.76 914.998 1238.5Z"/><path fill="#040403" transform="translate(-604 -1084)" d="M906.109 1224.09C915.606 1223.42 921.77 1223.36 925.298 1232.96C915.884 1232.42 910.754 1233.32 906.109 1224.09Z"/><path fill="#040403" transform="translate(-604 -1084)" d="M962.529 1229.53C964.29 1228.52 966.464 1228.56 968.188 1229.63C969.911 1230.71 970.902 1232.65 970.768 1234.67C970.634 1236.7 969.395 1238.49 967.545 1239.32C964.868 1240.54 961.711 1239.43 960.371 1236.82C959.032 1234.2 959.981 1231 962.529 1229.53Z"/><path fill="#9F94E2" transform="translate(-604 -1084)" d="M820.571 1122.19C864.725 1120.47 891.213 1145.96 913.45 1181.63C909.247 1181.95 904.464 1182.83 900.249 1183.49L889.07 1186.85C869.573 1167.49 852.031 1159.42 825.524 1152.54C808.095 1148.02 806.504 1132.78 820.571 1122.19Z"/><path fill="#9F94E2" transform="translate(-604 -1084)" d="M788.503 1358.93C794.376 1360.22 800.645 1362.78 806.334 1364.9C804.616 1366.16 802.864 1367.38 801.08 1368.55C782.723 1380.62 771.24 1379.48 751.174 1375.3C746.106 1383.78 744.291 1386.37 736.7 1392.37C733.558 1394.07 728.301 1395.04 724.902 1393.73C718.159 1386.1 726.387 1373.93 730.647 1366.71C754.825 1374.24 767.027 1372.76 788.503 1358.93Z"/><path fill="#9F94E2" transform="translate(-604 -1084)" d="M944.673 1320.25C955.275 1325.49 996.6 1356.91 965.453 1361.67C953.946 1355.13 942.308 1347.41 931.103 1340.23C936.744 1333.46 940.381 1327.86 944.673 1320.25Z"/><path fill="#9F94E2" transform="translate(-604 -1084)" d="M736.248 1246.11C741.373 1246.68 744.342 1246.7 748.07 1250.13C751.681 1259.91 741.574 1267.16 737.085 1275.36C735.06 1279.06 733.784 1282.3 732.222 1286.18C731.036 1285.97 729.871 1285.66 728.742 1285.24C718.859 1281.47 717.178 1268.11 721.17 1259.52C725.139 1250.98 728.004 1249.55 736.248 1246.11Z"/><path fill="#040403" transform="translate(-604 -1084)" d="M1146.86 1210.47C1202.25 1206.19 1240.73 1228.21 1265.21 1277.68C1274.68 1278.85 1276.95 1280.07 1283.38 1286.85C1298.29 1256.24 1328.88 1234.61 1359.36 1261.94C1368.77 1270.29 1374.24 1282.21 1374.43 1294.79C1375.1 1341.54 1320.03 1350.92 1284.5 1350.44C1289.89 1365.65 1293.42 1371.66 1288.96 1387.55C1279.25 1398.66 1269.58 1397.86 1255.86 1398.27C1246.46 1407.08 1244.78 1408.75 1230.97 1410.08C1201.07 1410.53 1196.85 1400.06 1201.73 1373.24C1176.86 1380.24 1166.94 1379.71 1141.89 1377.88C1141.99 1381.13 1142.14 1384.73 1141.41 1387.9C1140.35 1392.33 1137.53 1396.12 1133.59 1398.41C1124.97 1403.3 1111.91 1400.64 1102.82 1398.21C1086.04 1409.32 1058.03 1412.07 1045.97 1391.32C1040.23 1381.47 1050.87 1368.15 1055.13 1358.53L1055.64 1357.36C1042.18 1355.73 1016.01 1352.75 1009.83 1338.75C1009.97 1327.75 1027.5 1326.84 1036.01 1325.42C1035.06 1313.06 1033.55 1307.77 1046.84 1303.39C1063.88 1247.89 1089.29 1220.5 1146.86 1210.47Z"/><path fill="#65B78E" transform="translate(-604 -1084)" d="M1326.24 1259.14C1362.69 1257.59 1379.24 1296.58 1355.14 1322.5C1338.52 1340.37 1307.36 1342.72 1284.25 1343.42C1274.99 1343.16 1259.49 1339.72 1252.59 1343.65L1250.97 1344.59C1247.75 1342.89 1245.24 1338.82 1242.95 1335.8C1263.06 1322.56 1284.91 1301.69 1296.5 1280.57C1304.44 1266.08 1310.72 1263.03 1326.24 1259.14Z"/><path fill="#040403" transform="translate(-604 -1084)" d="M1328.87 1299.89C1337.12 1303.14 1346.01 1300.77 1349.32 1302.74L1349.32 1306.34C1343.24 1309.19 1334.82 1311.84 1329.35 1306.59C1327.79 1302.37 1328.03 1304.52 1328.87 1299.89Z"/><path fill="#040403" transform="translate(-604 -1084)" d="M1351.24 1282.48C1353.76 1281.41 1356.67 1282.55 1357.8 1285.04C1358.94 1287.53 1357.88 1290.47 1355.42 1291.67C1353.77 1292.48 1351.81 1292.32 1350.31 1291.27C1348.8 1290.21 1347.99 1288.42 1348.18 1286.6C1348.38 1284.77 1349.55 1283.19 1351.24 1282.48Z"/><path fill="#040403" transform="translate(-604 -1084)" d="M1319.54 1283.55C1321.98 1282.36 1324.94 1283.33 1326.21 1285.74C1327.48 1288.15 1326.61 1291.13 1324.24 1292.48C1322.64 1293.39 1320.67 1293.36 1319.1 1292.39C1317.53 1291.43 1316.61 1289.68 1316.7 1287.84C1316.79 1286 1317.88 1284.36 1319.54 1283.55Z"/><path fill="#65B78E" transform="translate(-604 -1084)" d="M1174.44 1268.56L1186.56 1268.01C1195.77 1282.67 1204.04 1298.76 1211.86 1314.2C1188.45 1323.94 1170.19 1325.37 1145.3 1326.54C1132.34 1325.97 1121.19 1324.32 1108.44 1322.44C1114.25 1303.93 1120.64 1289.05 1128.25 1271.2C1143.64 1270.14 1159.03 1269.26 1174.44 1268.56Z"/><path fill="#65B78E" transform="translate(-604 -1084)" d="M1264.44 1285.86C1268.06 1286.11 1269.61 1286.32 1272.22 1288.78C1277.94 1305.66 1230.62 1334.83 1216.82 1339.57C1162.18 1357.94 1102.52 1354.12 1050.66 1328.95C1045.59 1325.65 1042.68 1323.1 1041.05 1317.13C1042.75 1311.56 1050.94 1312.59 1055.53 1313.62C1063.86 1315.62 1071.66 1319.41 1079.73 1322.32C1128.22 1339.82 1189.32 1338.94 1233.79 1311.13C1244.46 1304.46 1253.09 1293.12 1264.44 1285.86Z"/><path fill="#65B78E" transform="translate(-604 -1084)" d="M1154.49 1218.4C1175.45 1216.64 1191.8 1222.21 1210.74 1230.26L1187.66 1259.95C1177.64 1261.32 1165.01 1261.62 1154.75 1262.1L1126.49 1263.5C1117.24 1255.11 1108.37 1245.93 1099.56 1237.06C1118.3 1224.49 1132.43 1220.69 1154.49 1218.4Z"/><path fill="#65B78E" transform="translate(-604 -1084)" d="M1235.51 1340C1247.68 1347.73 1257.31 1385.07 1246.27 1396.63C1239.83 1403.37 1217.83 1404.65 1211.19 1396.97C1202.07 1386.44 1216.51 1367.06 1208.63 1357.54C1204.84 1356.38 1206.46 1356.12 1203.5 1357.34C1202.16 1360.19 1201.8 1361.95 1201.02 1364.95C1197.29 1369.28 1180.58 1370.14 1174.25 1370.88C1158.39 1371.74 1126.34 1371.46 1110.04 1363.98C1109.02 1363.51 1109.21 1361.89 1109.07 1360.45C1110.99 1358.42 1113.53 1357.08 1116.35 1357.34C1160.4 1361.37 1194.12 1359.92 1235.51 1340Z"/><path fill="#65B78E" transform="translate(-604 -1084)" d="M1092.82 1241.72C1100.13 1247.11 1113.82 1261.99 1120.66 1269.2C1113.48 1285.9 1106.71 1303.76 1100 1320.72L1085.25 1316.96C1073.76 1312.62 1066.11 1309.24 1055.25 1303.89C1061.15 1278.58 1074.22 1259.25 1092.82 1241.72Z"/><path fill="#65B78E" transform="translate(-604 -1084)" d="M1217.77 1233.99C1237.7 1246.79 1247.34 1259.98 1258.66 1280.43C1249.36 1287.3 1239.77 1296.64 1230.14 1304.15L1219.31 1310.82C1210.73 1295.58 1202.24 1280.29 1193.84 1264.95C1201.43 1254 1209.4 1244.33 1217.77 1233.99Z"/><path fill="#65B78E" transform="translate(-604 -1084)" d="M1066.6 1346.09C1078.11 1349.4 1088.86 1352.01 1100.51 1354.78C1101.67 1372.43 1102.67 1386.97 1087.25 1398.72C1079.19 1399.33 1061.54 1399.35 1056.68 1391.98C1049.99 1381.84 1061.35 1367.55 1064.3 1357.65C1065.54 1353.48 1066.02 1350.32 1066.6 1346.09Z"/><path fill="#65B78E" transform="translate(-604 -1084)" d="M1254.17 1349.95C1261.05 1349.79 1269.62 1350.81 1276.65 1351.44C1281.4 1362.64 1287.69 1375.46 1279.34 1386.17C1271.91 1389.23 1266.73 1389.78 1258.92 1390.75C1259.5 1371.9 1258.06 1368.24 1254.17 1349.95Z"/><path fill="#65B78E" transform="translate(-604 -1084)" d="M1109.43 1373.68C1118.06 1374.83 1131.77 1374.76 1134.17 1384.34C1133.44 1388.56 1132.6 1389.16 1129.93 1392.74C1120.01 1393.54 1114.7 1393.26 1105.07 1391.54C1107.01 1385.55 1108.12 1379.83 1109.43 1373.68Z"/><path fill="#65B78E" transform="translate(-604 -1084)" d="M1040.31 1334.47L1041.74 1334.17C1047.24 1335.86 1058.81 1339.5 1055.77 1347.23C1050.87 1350.47 1046.12 1348.96 1040.22 1348.18C1037.79 1347.49 1035.38 1346.7 1033.01 1345.83C1028.73 1344.29 1024.17 1343.04 1022.24 1338.94L1023.71 1337.15C1028.98 1334.72 1034.42 1334.87 1040.31 1334.47Z"/><path fill="#040403" transform="translate(-604 -1084)" d="M1324.49 1138.1C1333.45 1140.46 1344.45 1147.14 1353.92 1147.38C1370.99 1147.82 1388 1141.39 1405.36 1141.38C1418.93 1141.38 1424.56 1151.79 1436.28 1146.46C1438.1 1145.63 1437.84 1145.96 1439.82 1146.56C1442.07 1157.4 1425.47 1280.83 1422.1 1295.74C1420.9 1298.96 1421.92 1297.74 1418.84 1299.44L1417.34 1298.8C1412.37 1290.47 1422.22 1235.92 1424.04 1223.55C1394.02 1210.59 1386.54 1218.34 1355.55 1221.91C1338.94 1223.83 1327.5 1219.59 1314.87 1209.08C1315.76 1195.99 1321.62 1149.06 1324.49 1138.1Z"/><path fill="#FEF3DD" transform="translate(-604 -1084)" d="M1387.11 1170.27L1388.5 1171.63C1388.76 1177.95 1387.56 1183.3 1386.53 1189.53L1369.22 1192.85L1368.21 1192.66C1365.36 1188.86 1367.59 1179.85 1368.32 1174.71L1387.11 1170.27Z"/><path fill="#FEF3DD" transform="translate(-604 -1084)" d="M1343.42 1196.85C1349.85 1196.98 1356.77 1196.79 1363.24 1196.73C1363.1 1202.19 1362.33 1208.27 1361.77 1213.75C1352.71 1214.6 1350.58 1214.78 1341.51 1213.92C1341.8 1206.78 1342.07 1203.85 1343.42 1196.85Z"/><path fill="#FEF3DD" transform="translate(-604 -1084)" d="M1364.76 1155.42L1366.54 1155.37L1367.95 1156.96C1368.72 1162.37 1367.46 1167.42 1366.57 1172.88L1350.74 1174.13C1344.66 1169.96 1347.52 1162.27 1348.61 1155.85C1353.91 1155.89 1359.45 1155.6 1364.76 1155.42Z"/><path fill="#FEF3DD" transform="translate(-604 -1084)" d="M1396.86 1149.11L1414 1150.12C1413.48 1156.14 1414.23 1163.56 1409.01 1167C1402.91 1166.9 1397.53 1167.25 1391.46 1167.62C1391.82 1161.17 1391.07 1153 1396.86 1149.11Z"/><path fill="#FEF3DD" transform="translate(-604 -1084)" d="M1413.52 1170.41C1419.5 1172.56 1424.68 1175.07 1430.42 1177.77C1429.83 1183.86 1428.89 1190.27 1428.08 1196.36C1422.2 1193.48 1416.75 1191.77 1410.56 1189.66C1411.36 1182.95 1412.34 1177.06 1413.52 1170.41Z"/><path fill="#FEF3DD" transform="translate(-604 -1084)" d="M1327.27 1167.61C1332.64 1170.61 1338.61 1172.38 1344.44 1174.38L1341.47 1193.72C1337.48 1192.66 1328.92 1189.17 1324.69 1187.56C1325.8 1181.8 1326.55 1173.63 1327.27 1167.61Z"/><path fill="#FEF3DD" transform="translate(-604 -1084)" d="M1388.57 1190.83L1408.37 1190.93L1405.97 1208.39C1399.65 1207.82 1392.95 1208.02 1386.58 1208.04L1388.57 1190.83Z"/><path fill="#040403" transform="translate(-604 -1084)" d="M1433.25 1322.42L1439.01 1322.3C1441.78 1323.81 1440.91 1322.71 1441.83 1325.59C1434.77 1335.48 1406.1 1329.71 1399.69 1336.91C1400.6 1341.83 1412.01 1346.98 1411.67 1353.31C1410.72 1370.57 1371.17 1367.82 1364.94 1375.81C1364.96 1381.58 1370.81 1387.74 1371.61 1393.7C1374.01 1411.69 1345.26 1413.67 1333.1 1414.95C1331.5 1415.09 1329.23 1415.02 1327.57 1415.02C1324.45 1413.09 1325.16 1414.37 1324.39 1411.61C1328.67 1406.79 1345.79 1406.01 1352.68 1403.77C1372.45 1397.36 1359.74 1390.58 1357.15 1379.89C1351.58 1356.98 1392.75 1368.12 1400.74 1355.73C1401.26 1350.63 1393.92 1344.86 1392.9 1340.39C1389.13 1323.88 1423.05 1323.43 1433.25 1322.42Z"/><path fill="#9F94E2" transform="translate(-604 -1084)" d="M985.39 1166.18C990.405 1162.14 993.503 1155.5 997.658 1152.98C1003.46 1154.42 1004.15 1160.31 1007.16 1165.14L1017.38 1170.35C1007.25 1176.73 1004.34 1178.63 999.138 1189.95L997.368 1190.48C990.244 1185.72 992.915 1180.13 983.013 1173.99C982.633 1170.95 984.017 1169.02 985.39 1166.18Z"/><path fill="#9F94E2" transform="translate(-604 -1084)" d="M707.162 1164.49C708.647 1165.21 708.798 1164.98 709.541 1166.11C715.28 1174.8 720.728 1177.29 729.912 1181.1C719.553 1184.37 714.68 1184.7 709.934 1195.16C709.682 1197.35 710.144 1196.4 708.46 1197.97C705.744 1196.14 703.709 1190.68 702.17 1187.45C698.465 1185.4 693.994 1183.26 690.164 1181.31C694.457 1179.13 698.608 1176.49 702.732 1173.98L707.162 1164.49Z"/><path fill="#040403" transform="translate(-604 -1084)" d="M624.599 1278.4C633.577 1278.22 676.796 1274.65 678.505 1283.24L676.764 1285.27C667.421 1286.32 627.677 1289.65 623.586 1281.08L624.599 1278.4Z"/><path fill="#65B78E" transform="translate(-604 -1084)" d="M1231.6 1172C1248.05 1171.09 1247.98 1183.97 1237.04 1192.49C1220.87 1194.65 1219.5 1180.2 1231.6 1172Z"/><path fill="#040403" transform="translate(-604 -1084)" d="M644.043 1300.41C651.878 1300.21 678.962 1298.06 683.792 1303.45C683.749 1306.77 684.272 1305.28 681.846 1307.93C674.152 1308.76 645.074 1312.15 642.528 1303.08L644.043 1300.41Z"/><path fill="#040403" transform="translate(-604 -1084)" d="M653.396 1255.43C662.63 1255.65 687.776 1253.39 693.32 1258.56C692.86 1261.99 693.534 1260.36 690.226 1263.16C681.612 1263.36 656.075 1265.31 650.596 1259.43L650.901 1257.17L653.396 1255.43Z"/><path fill="#65B78E" transform="translate(-604 -1084)" d="M1272.52 1203.87C1285.05 1202.57 1286.59 1213.53 1278.38 1221.19C1264.55 1220.52 1264.43 1212.88 1272.52 1203.87Z"/><path fill="#9F94E2" transform="translate(-604 -1084)" d="M954.139 1127.51C967.829 1135.75 959.133 1142.28 955.564 1150.56L955.098 1151.67C950.982 1145.88 949.857 1144.14 944.533 1139.34C949.407 1134.47 950.353 1133.28 954.139 1127.51Z"/><path fill="#9F94E2" fill-opacity="0.98431373" transform="translate(-604 -1084)" d="M985.39 1166.18C984.017 1169.02 982.633 1170.95 983.013 1173.99C979.759 1173.08 979.648 1173.17 976.664 1171.27L976.513 1169.48C979.08 1167.08 981.867 1166.94 985.39 1166.18Z"/></g></svg>