<?xml version="1.0" encoding="utf-8" ?><svg xmlns="http://www.w3.org/2000/svg" xmlns:xlink="http://www.w3.org/1999/xlink" width="661" height="620" viewBox="0 0 661 620"><clipPath id="concepts-time-in-market-cl_6"><rect width="661" height="620"/></clipPath><g clip-path="url(#concepts-time-in-market-cl_6)"><path fill="#100E16" transform="translate(-719 -765)" d="M1195.9 978.101C1162.72 913.371 1191.03 845.938 1253.87 816.618C1263.03 812.344 1292.62 795.358 1301.36 797.901C1312.55 808.131 1308.87 876.403 1306.28 891.106C1296.51 946.61 1262.33 963.824 1215.84 983.988C1206.16 1004.87 1199.89 1046.8 1199.81 1069.86C1229.5 1046.69 1216.21 1027.77 1240.88 1003.4C1262.81 981.759 1292.25 977.29 1321.74 981.256C1329.41 982.287 1343.54 982.381 1349 987.991C1350.35 993.037 1345.22 1001.22 1343.01 1005.82C1333.33 1026.13 1320.15 1044.5 1301.68 1057.63C1281.63 1071.9 1252.87 1073.34 1229.46 1068.49C1226.02 1073.19 1222.6 1078.2 1219.23 1082.98C1248.58 1081.68 1273.44 1116.94 1248.66 1136.3L1242.89 1140.81L1251.26 1143.63C1258.7 1146.33 1261.49 1148.79 1267.07 1154.07C1271.26 1169.64 1268.86 1178.45 1266.93 1194.25C1263.66 1197.14 1261.26 1199.39 1257.57 1201.83C1256.14 1212.88 1254.38 1225.75 1252.39 1236.61C1250.08 1249.24 1248.09 1278.36 1236.95 1285.29C1211.77 1300.98 1156.49 1298.78 1131.27 1284.63C1122.39 1270.77 1119.89 1245.74 1116.14 1229.23C1100.6 1229.76 1070.7 1228.79 1057.66 1218.99C1054.9 1220.6 1052.16 1222.26 1049.45 1223.95C1041.98 1228.58 1033.74 1232.27 1025.95 1236.98C1024.33 1244.44 1024.05 1250.73 1023.51 1258.33C1026.27 1259.76 1029.02 1261.22 1031.76 1262.7C1075.21 1286.31 1008.11 1300.65 991.695 1286.53C987.164 1282.64 987.165 1253.47 986.89 1246.86C972.851 1247.83 958.761 1247.83 944.722 1246.86L944.156 1262.52C951.274 1266.75 962.17 1270.98 964.978 1277.84C965.205 1295 920.183 1301.25 911.134 1290.6C903.895 1282.07 905.184 1249.87 904.825 1237.82C851.607 1219.02 809.834 1173.17 795.306 1118.77C783.371 1074.16 789.824 1026.64 813.22 986.829C860.76 905.803 957.139 876.897 1042.08 919.161C1050.02 923.113 1057.51 927.714 1065.13 932.254C1059.35 905.248 1058.1 886.054 1060.61 858.836C1063.08 859.068 1065.55 859.407 1068 859.854C1098.32 865.635 1138.46 884.24 1155.44 910.986C1174.51 941.042 1174.4 964.152 1168.19 996.997C1172.99 1006.72 1178.59 1021.33 1182.26 1031.45C1187.13 1016.65 1193.41 993.123 1195.9 978.101ZM993.39 1173.98C992.711 1168.82 992.382 1164.82 994.961 1160.04C996.854 1156.49 1000.16 1153.9 1004.06 1152.92C1011.83 1150.95 1018.79 1155.23 1025.33 1158.9C1033.38 1163.19 1040.7 1168.37 1048.24 1173.48C1077.64 1148.78 1094.48 1115.6 1094.22 1077.21C1090.79 1070.99 1089.2 1069.67 1083.71 1065.21C1075.99 1066.39 1072.65 1067.62 1065.41 1064.81L1064.69 1063.19C1067.45 1059.7 1073.85 1059.26 1078.33 1058.48C1073.4 1051.95 1059.29 1032.58 1059.51 1023.45C1059.63 1018.9 1075.83 1015.85 1080.33 1015.11C1058.6 978.681 1038.51 958.786 996.566 947.152C928.166 927.906 855.237 970.554 837.226 1039.32C818.768 1109.79 859.962 1182.2 930.472 1201.15C945.384 1205.15 998.32 1206.5 1007.92 1195.17C1007.38 1192.35 1007.12 1192.94 1004.4 1190.58C998.645 1184.63 996.124 1182.03 993.39 1173.98ZM1128.91 1024.93C1137.92 1031.6 1139.24 1032.12 1145.87 1041.12C1153.96 1052.1 1156.92 1076.48 1170.25 1080.76C1170.88 1053.37 1165.25 1031.24 1152.7 1006.77C1139.68 1000.28 1132.71 996.418 1118.17 993.86C1121.76 1002.92 1127.22 1015.65 1128.91 1024.93Z"/><path fill="#100E16" transform="translate(-719 -765)" d="M954.886 985.73C955.719 986.236 956.145 986.445 956.9 987.149C964.555 994.295 966.967 1047.97 968.514 1060.9C974.323 1065.53 974.752 1066.34 977.974 1073.25C988.315 1075.05 1025.28 1079.15 1026.53 1092.04C1024.12 1094.19 1025.57 1093.53 1021.76 1093.39C1007.39 1088.36 992.181 1083.64 977.236 1080.77C969.736 1079.32 961.482 1086.48 955.919 1076.56C955.073 1070.69 958.866 1066.68 962.245 1061.94C958.37 1045.3 950.184 1000.64 954.886 985.73Z"/><path fill="#100E16" fill-opacity="0.96078432" transform="translate(-719 -765)" d="M986.128 1102.72L987.726 1103.99L987.911 1106.44C980.566 1120.34 959.795 1115.65 948.326 1110.54C945.825 1107.56 946.239 1109.12 945.706 1105.85L947.011 1104.81C964.051 1106.39 969.171 1114.47 986.128 1102.72Z"/><path fill="#100E16" fill-opacity="0.96862745" transform="translate(-719 -765)" d="M1022.71 1041.42C1025.25 1041.56 1025.08 1041.5 1027.11 1043.03C1028.86 1049.55 1023.97 1054.44 1018.38 1056.9C1013.58 1059.02 1009.24 1056.99 1004.71 1055.11C1001.87 1052.06 1000.03 1050.94 1000.89 1046.68C1005.63 1042.38 1006.99 1051.29 1016.67 1049.84C1020.2 1047.66 1020.78 1045.33 1022.71 1041.42Z"/><path fill="#100E16" fill-opacity="0.96078432" transform="translate(-719 -765)" d="M920.619 1058.36C931.835 1067.11 916.199 1083.16 898.753 1071.84C898.203 1069.03 897.477 1067.32 898.747 1064.83C904.371 1064.41 905.739 1070.76 913.834 1069.79C917.469 1066.56 916.975 1062.45 920.619 1058.36Z"/><path fill="#100E16" transform="translate(-719 -765)" d="M859.157 1080.21C861.96 1080.47 863.083 1080.62 864.586 1082.79L863.968 1084.54C859.109 1088.97 855.68 1089.43 849.318 1090.55C846.182 1090.23 846.401 1090.21 843.726 1088.48C842.953 1082.07 854.411 1080.95 859.157 1080.21Z"/><path fill="#100E16" fill-opacity="0.96862745" transform="translate(-719 -765)" d="M973.963 1171.53C981.889 1175.95 978.407 1191.18 977.448 1198.78L975.317 1197.86C971.128 1192.17 970.487 1177.56 973.963 1171.53Z"/><path fill="#100E16" transform="translate(-719 -765)" d="M950.907 951.248C960.673 954.573 958.429 966.914 957.068 974.827L953.621 973.707C948.543 967.16 950.083 959.283 950.907 951.248Z"/><path fill="#140C0D" fill-opacity="0.90196079" transform="translate(-719 -765)" d="M893.21 976.425C894.82 976.787 895.772 977.167 897.329 977.707C901.28 981.789 902.528 984.345 903.335 990.078C896.218 989.31 892.887 983.097 893.21 976.425Z"/><path fill="#140C0D" fill-opacity="0.90980393" transform="translate(-719 -765)" d="M1059.68 1119.11C1065.99 1120.44 1070.54 1121.48 1070.33 1128.71C1065.42 1128.14 1059.74 1126.61 1058.25 1121.54L1059.68 1119.11Z"/><path fill="#100E16" fill-opacity="0.95294118" transform="translate(-719 -765)" d="M1013.85 965.531C1016.94 967.134 1015.84 965.987 1017.37 968.983C1017.16 973.06 1015.12 975.773 1013.08 979.417C1009.62 977.061 1010.74 978.594 1009.46 974.764C1010.12 970.41 1011.3 969.322 1013.85 965.531Z"/><path fill="#140C0D" fill-opacity="0.9137255" transform="translate(-719 -765)" d="M915.842 1170.45C919.127 1172.43 918.139 1171.07 919.207 1174.44C918.623 1178.71 917.305 1180.21 915.038 1184.03C910.26 1178.7 912.419 1175.77 915.842 1170.45Z"/><path fill="#140C0D" fill-opacity="0.90588236" transform="translate(-719 -765)" d="M855.173 1024.09C862.246 1023.67 866.034 1024.68 867.628 1032.1C861.995 1032.24 857.237 1029.33 855.173 1024.09Z"/><path fill="#140C0D" fill-opacity="0.85490197" transform="translate(-719 -765)" d="M1057.42 1002.67L1059.65 1003.04L1060.63 1004.45C1059.9 1007.73 1056.36 1010.78 1053.93 1013.38C1051.81 1012.26 1052.79 1012.97 1051.42 1010.51C1052.2 1007.04 1054.77 1005.25 1057.42 1002.67Z"/><path fill="#FBB34E" transform="translate(-719 -765)" d="M911.594 1233.13C866.856 1217.27 828.919 1183.98 810.056 1140.19C792.442 1099.2 791.934 1052.87 808.644 1011.5C825.458 970.259 857.896 937.344 898.883 919.931C940.302 902.84 986.819 902.934 1028.17 920.191C1038.93 924.655 1067.28 939.456 1072.36 949.423C1081.71 967.75 1087.99 973.483 1104.33 986.685C1109.73 991.047 1117.78 1012.54 1120.94 1020.26C1107.1 1015.72 1102.78 1015.76 1087.85 1015.12C1064.19 976.171 1043.85 951.792 996.847 940.1C961.269 931.239 923.63 936.8 892.134 955.57C860.567 974.741 838.045 1005.81 829.649 1041.78C821.024 1077.74 827.09 1115.65 846.501 1147.13C865.802 1178.13 896.74 1200.08 932.375 1208.06C956.093 1213.4 993.207 1213.83 1014.48 1200.41C1027.66 1204.43 1034.12 1211.62 1044.9 1215.46L1047.5 1217.13L1046.9 1218.41C1018.94 1238.79 972.482 1242.22 939.287 1238.89C937.611 1248.73 937.157 1259.45 936.615 1269.45C942.332 1270.71 957.843 1274.17 956.666 1281.63C947.276 1291.33 925.937 1288.07 913.859 1285.6C911.956 1270.64 911.913 1248.47 911.594 1233.13Z"/><path fill="#FBB34E" transform="translate(-719 -765)" d="M993.39 1173.98C992.711 1168.82 992.382 1164.82 994.961 1160.04C996.854 1156.49 1000.16 1153.9 1004.06 1152.92C1011.83 1150.95 1018.79 1155.23 1025.33 1158.9L1022.83 1160.45C1023.88 1168.76 1043.95 1178.14 1051.24 1181.85C1054.54 1180.83 1053.34 1181.8 1055.53 1179.57L1054.99 1175.95C1067.25 1181.02 1075.93 1184.92 1089.44 1184.35L1087.99 1188.04L1089.26 1189.88C1093.27 1190.36 1094.85 1189.7 1096.65 1191.99L1096.75 1192.73C1116.67 1194.14 1123.54 1193.5 1140.53 1181.95L1143.05 1181.86L1144.47 1183.28C1144.47 1187.09 1142.68 1190.08 1141.07 1193.56C1146.7 1194.16 1158.55 1194.55 1162.77 1196.62L1163.56 1198.01C1158.99 1202.59 1149.86 1200.88 1149.48 1205.4C1154.2 1208.54 1159.75 1208.61 1162.18 1211.46L1161.58 1213.39C1156.67 1215.6 1152.1 1213.21 1148.55 1215.64C1149.22 1219.32 1154.44 1222.87 1157.58 1225.53C1131.49 1225.27 1081.65 1223.33 1058.19 1214.06L1057.66 1218.99C1054.9 1220.6 1052.16 1222.26 1049.45 1223.95L1046.9 1218.41L1047.5 1217.13L1044.9 1215.46C1034.12 1211.62 1027.66 1204.43 1014.48 1200.41L1017.77 1197.31C1018.4 1194.02 1018.2 1195.07 1016.07 1191.32L1009.64 1185.81C1008.31 1187.07 1005.77 1189.62 1004.4 1190.58C998.645 1184.63 996.124 1182.03 993.39 1173.98Z"/><path fill="#140C0D" transform="translate(-719 -765)" d="M1016.07 1191.32C1033.84 1203.09 1040.81 1204.75 1057.29 1213.76L1058.19 1214.06L1057.66 1218.99C1054.9 1220.6 1052.16 1222.26 1049.45 1223.95L1046.9 1218.41L1047.5 1217.13L1044.9 1215.46C1034.12 1211.62 1027.66 1204.43 1014.48 1200.41L1017.77 1197.31C1018.4 1194.02 1018.2 1195.07 1016.07 1191.32Z"/><path fill="#161114" transform="translate(-719 -765)" d="M1044.9 1215.46C1044.07 1210.54 1042.8 1215.61 1042.23 1210.72C1048.16 1210.95 1050.79 1214.04 1057.29 1213.76L1058.19 1214.06L1057.66 1218.99C1054.9 1220.6 1052.16 1222.26 1049.45 1223.95L1046.9 1218.41L1047.5 1217.13L1044.9 1215.46Z"/><path fill="#140C0D" transform="translate(-719 -765)" d="M1051.24 1181.85C1054.54 1180.83 1053.34 1181.8 1055.53 1179.57L1054.99 1175.95C1067.25 1181.02 1075.93 1184.92 1089.44 1184.35L1087.99 1188.04L1089.26 1189.88C1093.27 1190.36 1094.85 1189.7 1096.65 1191.99L1096.75 1192.73C1074.06 1188.85 1075.49 1191.87 1051.24 1181.85Z"/><path fill="#140C0D" transform="translate(-719 -765)" d="M993.39 1173.98C999.501 1174.09 1005.19 1181.29 1009.64 1185.81C1008.31 1187.07 1005.77 1189.62 1004.4 1190.58C998.645 1184.63 996.124 1182.03 993.39 1173.98Z"/><path fill="#FBB34E" transform="translate(-719 -765)" d="M1100.29 1078.14C1108.14 1080.55 1127.89 1083.01 1130.72 1086.89C1131.33 1090.09 1131.21 1093.46 1133.92 1094.68C1139.99 1097.42 1152.04 1095.25 1158.18 1094.52C1161.14 1101.01 1164.02 1107.55 1166.8 1114.12C1149.32 1115.91 1139.94 1116.58 1122.96 1121.46C1119.55 1131.29 1117.24 1137.49 1112.87 1146.95L1103.45 1153.49C1101.76 1174.11 1093.06 1172.54 1089.44 1184.35C1075.93 1184.92 1067.25 1181.02 1054.99 1175.95C1081.11 1153.19 1097.23 1121.08 1099.9 1086.53C1100.09 1083.74 1100.22 1080.94 1100.29 1078.14Z"/><path fill="#FDF2E0" transform="translate(-719 -765)" d="M1251.26 1143.63C1246.25 1144.16 1202.28 1139.45 1199.87 1137.11C1198.43 1131.43 1199.16 1126.32 1203.98 1122.56C1213.53 1121.34 1226.92 1138.09 1242.89 1140.81L1251.26 1143.63Z"/><path fill="#5BB48F" transform="translate(-719 -765)" d="M1295.11 804.93L1296.98 805.092C1297.15 805.368 1297.31 805.644 1297.48 805.92C1310.28 862.322 1304.08 937.027 1244.49 964.313C1231.08 970.455 1221.39 973.835 1211.29 979.661L1210.07 980.376C1202.6 1000.14 1184.99 1071.68 1193.03 1090.34L1194.92 1091.09C1197.35 1089.78 1204.07 1078.37 1207.35 1074.64C1213.21 1067.96 1216.6 1065.12 1223.54 1059.39C1227.8 1035.88 1234.88 1015.96 1254.9 1001.26C1281.15 981.987 1312.03 986.842 1341.98 991.437C1327.61 1022.27 1310.87 1054.52 1274.38 1062.32C1258.35 1065.75 1243.72 1063.31 1227.71 1061.25C1225.31 1063.31 1223.01 1065.46 1220.8 1067.72C1192.73 1096.49 1192.4 1126.61 1192.97 1164.3L1178.16 1164.3C1178.79 1126.13 1176.57 1103.47 1150.22 1075.11C1098.72 1080.25 1088.1 1067.91 1064.98 1025.58C1079.05 1022.64 1088.07 1021.76 1102.23 1023.05C1129.82 1026.69 1140.8 1039.92 1149.39 1065.27C1142.06 1059.47 1119.56 1041.7 1109.4 1044.59C1112.83 1050.11 1125.44 1054.72 1131.23 1058.35C1143.05 1065.77 1154.21 1074.03 1163.63 1084.41C1167.85 1089.06 1171.2 1095.01 1176.23 1098.69C1189.6 1092.67 1163.27 1013.59 1158.48 1000.94C1137.35 990.683 1111.82 986.766 1094.74 969.664C1067.64 942.536 1066.25 901.882 1065.78 866.21C1091.86 874.385 1116.49 881.883 1137.51 900.295C1166.74 925.901 1170.34 961.525 1161.58 997.5C1166.43 1007.59 1178.64 1044.74 1185.7 1047.84C1187.89 1045.35 1201.36 987.825 1204.04 977.823C1202.81 975.326 1201.61 972.813 1200.44 970.284C1180.8 927.425 1185.33 881.004 1221.26 848.203C1243.85 827.581 1267.66 817.229 1295.11 804.93Z"/><path fill="#100E16" transform="translate(-719 -765)" d="M1266.28 847.61L1268.09 848.999C1268.78 854.633 1261.76 863.54 1258.25 868.322C1234.49 900.671 1221.58 934.646 1207.23 971.849C1193.91 958.3 1254.4 862.225 1266.28 847.61Z"/><path fill="#100E16" transform="translate(-719 -765)" d="M1101.45 909.721C1118.84 913.349 1153.2 970.449 1157.05 988.294C1150.91 984.991 1133.66 949.442 1126.75 941.718C1120.39 934.609 1103.87 918.184 1101.45 909.721Z"/><defs><linearGradient id="concepts-time-in-market-gradient_0" gradientUnits="userSpaceOnUse" x1="1259.2019" y1="1027.713" x2="1262.7822" y2="1033.8384"><stop offset="0" stop-color="#090E12"/><stop offset="1" stop-color="#0C2026"/></linearGradient></defs><path fill="url(#concepts-time-in-market-gradient_0)" transform="translate(-719 -765)" d="M1293.11 1010.93C1293.77 1010.96 1295.77 1011.33 1296.5 1011.45L1296.76 1013.2C1292.57 1018.13 1279.08 1022.31 1272.38 1025.73C1255.88 1034.16 1244.93 1042.59 1231.02 1054.27C1229.81 1055.15 1230.57 1054.82 1228.6 1054.84L1228.14 1053.25C1235.55 1035.49 1275.6 1018.35 1293.11 1010.93Z"/><path fill="#5BB48F" transform="translate(-719 -765)" d="M1248.22 1203.28C1252.45 1205.23 1241.24 1271.98 1236.91 1276.96C1220.27 1296.15 1152.7 1289.93 1134.65 1279.21C1129.21 1266.4 1125.75 1243.43 1123.4 1229.41C1150.14 1234.87 1162.2 1237.92 1168.55 1211.95C1169.83 1206.72 1198.37 1208.59 1203.99 1208.47C1219.35 1208.14 1232.89 1206.49 1248.22 1203.28Z"/><path fill="#5BB48F" transform="translate(-719 -765)" d="M1110.31 1163.62C1151.36 1174.51 1221.71 1174.83 1262.17 1162.93C1262.02 1177.34 1266.65 1188.48 1251.81 1195.31C1227.43 1202.01 1198.18 1204.23 1173.17 1200.52C1161.39 1182.77 1160.08 1194.26 1150.98 1186.05C1150.14 1181.99 1150 1178.14 1146.98 1175.64C1140.31 1175.24 1132.27 1179.85 1126.18 1182.78C1119.01 1186.23 1117.94 1186.09 1110.06 1187.22C1109.88 1179.47 1110.16 1171.4 1110.31 1163.62Z"/><path fill="#FBB34E" transform="translate(-719 -765)" d="M1016.49 1239.12L1018.19 1239.78C1019.85 1244.65 1018.09 1260.63 1017.65 1266.27C1023.2 1267.12 1040.88 1270.32 1034.96 1280.74C1032.28 1285.46 1022.1 1284.94 1017.17 1285.01C1010.52 1284.87 1002.85 1283.99 996.145 1283.38L994.1 1244.68C1002.56 1243.04 1008.2 1241.57 1016.49 1239.12Z"/><path fill="#FBB34E" transform="translate(-719 -765)" d="M1211.54 1093.89C1228.18 1070.87 1276.3 1127.31 1238.86 1132.77L1237.25 1131.84C1237.37 1129.31 1238.45 1128 1239.76 1125.81L1239.39 1124.31C1232.3 1121.65 1232.87 1127.98 1226.99 1127.99L1225.42 1126.92C1225.62 1121.78 1229.57 1120.19 1229.2 1115.98L1227.87 1114.96C1222.05 1116.69 1223.13 1118.84 1218.2 1118.72L1215.43 1116.71C1215.2 1114.15 1215.86 1113.1 1216.81 1110.71L1217.18 1109.79L1215.32 1105.61C1212.68 1109.74 1211.37 1113.05 1206.29 1113.73L1205.21 1112.11C1205.22 1103.35 1207.13 1101.46 1211.54 1093.89Z"/><path fill="#140C0D" transform="translate(-719 -765)" d="M1215.05 1094.8C1219.29 1096.48 1220.72 1096.67 1223.73 1099.88C1226.28 1107.54 1218.95 1110.64 1215.43 1116.71C1215.2 1114.15 1215.86 1113.1 1216.81 1110.71L1217.18 1109.79L1215.32 1105.61L1216.42 1104.39C1216.77 1099.05 1213.26 1101.91 1212.67 1096.64L1215.05 1094.8Z"/><path fill="#FDF2E0" transform="translate(-719 -765)" d="M1159.51 1121.39L1168.39 1120.98C1169.62 1126.45 1170.57 1133.37 1171.47 1138.99C1156.39 1138.94 1147.09 1139.79 1132.23 1142.41L1121.67 1144.73L1128.64 1126.33C1137.8 1123.73 1149.94 1122.44 1159.51 1121.39Z"/><path fill="#5BB48F" transform="translate(-719 -765)" d="M1156.73 1146.42C1160.49 1145.91 1167.95 1146.04 1172 1145.99L1172 1164.06C1158.88 1164.09 1143.89 1162.35 1130.88 1160.7C1123.72 1159.96 1116.94 1158.15 1109.94 1156.49C1128 1149.1 1137.52 1148.2 1156.73 1146.42Z"/><path fill="#5BB48F" transform="translate(-719 -765)" d="M1199.05 1145.95C1207.03 1146.55 1256.79 1148.54 1256.82 1157.26L1253.8 1158.87C1236.4 1163.05 1217.92 1163.49 1200.08 1164.02L1199.05 1145.95Z"/><path fill="#FDF2E0" transform="translate(-719 -765)" d="M1101.8 1177.53C1104.53 1179.66 1103.53 1178.3 1104.46 1182.06C1103.4 1185.85 1103.02 1185.78 1100.14 1188.35C1097.92 1186.99 1098.56 1187.63 1097.25 1185.45C1097.48 1182.33 1099.78 1180.14 1101.8 1177.53Z"/><path fill="#100E16" transform="translate(-719 -765)" d="M822.635 855.446C831.207 860.436 827.048 868.486 833.781 876.627C839.419 883.444 851.956 884.414 854.675 889.5C847.418 899.598 833.807 887.386 826.637 922.199C824.222 922.308 825.128 922.351 822.727 921.466C818.173 914.7 824.444 911.081 815.505 902.345C809.862 896.83 797.579 893.035 795.281 887.977C796.928 885.453 798.631 884.918 801.668 884.486C819.046 882.01 816.303 869.665 822.635 855.446Z"/><path fill="#FBB34E" transform="translate(-719 -765)" d="M824.158 872.955C829.303 880.67 831.457 883.198 838.258 889.015C831.709 894.14 829.305 897.86 824.843 904.577C819.778 898.662 816.049 894.561 810.495 889.133C817.942 883.346 819.848 880.933 824.158 872.955Z"/><path fill="#FDF2E0" fill-opacity="0.015686275" transform="translate(-719 -765)" d="M789.642 929.761C793.487 935.218 789.597 938.174 792.379 942.507L794.914 942.873C792.821 946.254 793.063 944.548 793.655 948.069C794.374 948.83 795.983 950.62 796.716 951.233L792.391 951.531C788.907 956.96 794.471 960.723 789.344 966.182C789.398 961.779 789.997 954.802 787.149 951.638C783.829 953.081 785.386 952.059 783.046 955.938L782.014 951.887C780.409 951.654 779.527 951.492 777.915 951.112L776.492 950.764C780.244 949.609 781.786 949.278 782.655 945.615L781.039 943.043L784.426 941.998C787.294 942.936 785.921 942.993 788.684 941.864C790.331 938.574 789.726 933.627 789.642 929.761Z"/><path fill="#FBB34E" transform="translate(-719 -765)" d="M879.862 855.278C883.23 854.515 886.574 856.643 887.309 860.017C888.044 863.391 885.889 866.718 882.509 867.425C879.167 868.125 875.887 865.999 875.161 862.664C874.434 859.329 876.532 856.032 879.862 855.278Z"/><path fill="#140C0D" fill-opacity="0.98431373" transform="translate(-719 -765)" d="M776.492 950.764C771.879 948.908 771.358 949.292 769.221 945.723L770.311 943.973C774.341 941.966 776.324 942.638 781.039 943.043L782.655 945.615C781.786 949.278 780.244 949.609 776.492 950.764Z"/><path fill="#100E16" fill-opacity="0.98431373" transform="translate(-719 -765)" d="M784.426 941.998C783.921 937.69 782.826 931.463 785.042 927.753L787.206 927.487L789.642 929.761C789.726 933.627 790.331 938.574 788.684 941.864C785.921 942.993 787.294 942.936 784.426 941.998Z"/><path fill="#140C0D" fill-opacity="0.94509804" transform="translate(-719 -765)" d="M783.046 955.938C785.386 952.059 783.829 953.081 787.149 951.638C789.997 954.802 789.398 961.779 789.344 966.182C787.207 966.826 788.037 966.655 785.671 966.353C783.35 963.826 783.438 959.577 783.046 955.938Z"/><path fill="#140C0D" fill-opacity="0.98823529" transform="translate(-719 -765)" d="M794.914 942.873C799.197 943.338 800.717 943.129 804.173 945.404L805.099 947.447C802.687 950.485 800.96 950.473 796.716 951.233C795.983 950.62 794.374 948.83 793.655 948.069C793.063 944.548 792.821 946.254 794.914 942.873Z"/></g></svg>