<?xml version="1.0" encoding="utf-8" ?><svg xmlns="http://www.w3.org/2000/svg" xmlns:xlink="http://www.w3.org/1999/xlink" width="982" height="1075" viewBox="0 0 982 1075"><clipPath id="cl_5"><rect width="982" height="1075"/></clipPath><g clip-path="url(#cl_5)"><path fill="#1C1A1B" transform="translate(-980 0)" d="M1461.15 203.348C1659.73 189.212 1832.12 338.849 1846.05 537.445C1859.98 736.042 1710.16 908.277 1511.55 921.999C1313.23 935.701 1141.31 786.154 1127.4 587.85C1113.49 389.546 1262.86 217.464 1461.15 203.348ZM1508.55 830.367C1656.26 818.202 1766.29 688.815 1754.56 541.067C1742.82 393.319 1613.76 282.918 1465.98 294.218C1317.58 305.565 1206.62 435.282 1218.41 583.642C1230.19 732.002 1360.23 842.581 1508.55 830.367Z"/><path fill="#FB7B5E" transform="translate(-980 0)" d="M1478.33 220.285C1667.48 215.553 1824.66 365.048 1829.41 554.202C1834.16 743.357 1684.67 900.548 1495.52 905.31C1306.35 910.072 1149.13 760.569 1144.39 571.394C1139.64 382.219 1289.15 225.018 1478.33 220.285ZM1508.55 830.367C1656.26 818.202 1766.29 688.815 1754.56 541.067C1742.82 393.319 1613.76 282.918 1465.98 294.218C1317.58 305.565 1206.62 435.282 1218.41 583.642C1230.19 732.002 1360.23 842.581 1508.55 830.367Z"/><path fill="#1C1A1B" transform="translate(-980 0)" d="M1478.74 276.225C1637.06 271.867 1768.86 396.822 1772.94 555.146C1777.03 713.471 1651.84 845.056 1493.51 848.867C1335.57 852.669 1204.37 727.858 1200.3 569.92C1196.22 411.982 1320.81 280.572 1478.74 276.225ZM1508.55 830.367C1656.26 818.202 1766.29 688.815 1754.56 541.067C1742.82 393.319 1613.76 282.918 1465.98 294.218C1317.58 305.565 1206.62 435.282 1218.41 583.642C1230.19 732.002 1360.23 842.581 1508.55 830.367Z"/><path fill="#1C1A1B" transform="translate(-980 0)" d="M1468.12 348.736C1586.1 338.347 1690.08 425.742 1700.14 543.744C1710.21 661.747 1622.53 765.49 1504.5 775.232C1386.93 784.936 1283.67 697.67 1273.65 580.124C1263.62 462.579 1350.6 359.085 1468.12 348.736ZM1500.47 687.81C1570.19 680.153 1620.38 617.247 1612.37 547.567C1604.35 477.887 1541.19 428.022 1471.55 436.398C1402.42 444.713 1352.99 507.318 1360.95 576.492C1368.91 645.665 1431.26 695.411 1500.47 687.81Z"/><path fill="#FB7B5E" transform="translate(-980 0)" d="M1483.09 365.45C1591.72 363.416 1681.44 449.825 1683.49 558.458C1685.53 667.091 1599.13 756.818 1490.5 758.876C1381.85 760.935 1292.11 674.519 1290.06 565.869C1288.01 457.219 1374.44 367.485 1483.09 365.45ZM1500.47 687.81C1570.19 680.153 1620.38 617.247 1612.37 547.567C1604.35 477.887 1541.19 428.022 1471.55 436.398C1402.42 444.713 1352.99 507.318 1360.95 576.492C1368.91 645.665 1431.26 695.411 1500.47 687.81Z"/><path fill="#1C1A1B" transform="translate(-980 0)" d="M1479.57 418.36C1558.93 414.289 1626.58 475.296 1630.7 554.655C1634.82 634.014 1573.86 701.701 1494.5 705.873C1415.07 710.05 1347.31 649.019 1343.19 569.588C1339.06 490.158 1400.13 422.435 1479.57 418.36ZM1500.47 687.81C1570.19 680.153 1620.38 617.247 1612.37 547.567C1604.35 477.887 1541.19 428.022 1471.55 436.398C1402.42 444.713 1352.99 507.318 1360.95 576.492C1368.91 645.665 1431.26 695.411 1500.47 687.81Z"/><path fill="#1C1A1B" transform="translate(-980 0)" d="M1485.19 473.93C1502.96 477.2 1508.72 505.573 1518.21 519.68C1557.2 526.114 1596.26 525.199 1547.81 567.645C1544.24 570.769 1540.44 574.578 1536.93 577.866C1550.71 644.322 1546.04 644.947 1488.07 615.009C1473.55 621.307 1452.57 634.921 1437.59 636.125C1423.19 637.282 1435.68 586.999 1436.4 579.214L1436.5 577.941C1409.25 551.124 1376.65 527.443 1439 522.378C1443.91 521.979 1450.27 520.715 1455.22 519.962C1465.08 506.167 1468.65 482.802 1485.19 473.93Z"/><path fill="#FDB74F" transform="translate(-980 0)" d="M1486.46 496.801C1491.97 503.116 1500.76 523.724 1503.78 530.019C1507.05 536.845 1541.72 540.12 1551.26 541.459C1513.97 577.73 1516.7 563.476 1526.32 616.349C1514.45 610.116 1500.33 602.273 1488.15 597.327C1478.57 599.114 1457.82 611.038 1447.81 616.237C1450.53 602.421 1453.9 586.857 1454.04 572.887C1448.75 565.045 1430.41 548.358 1423 541.309C1436.37 540.323 1453.77 538.197 1466.31 534.367C1472.59 526.028 1481.58 506.675 1486.46 496.801Z"/></g></svg>