<?xml version="1.0" encoding="utf-8" ?><svg xmlns="http://www.w3.org/2000/svg" xmlns:xlink="http://www.w3.org/1999/xlink" width="1086" height="1075" viewBox="0 0 1086 1075"><clipPath id="cl_6"><rect width="1086" height="1075"/></clipPath><g clip-path="url(#cl_6)"><path fill="#1C1A1B" d="M544.108 202.377C550.564 201.921 557.034 201.684 563.506 201.665C607.117 201.575 649.136 213.766 681.147 244.89C719.747 282.421 727.012 356.459 727.864 407.987C728.523 447.813 718.744 503.468 696.023 535.884C686.397 549.618 676.038 560.009 663.984 571.972C679.459 590.599 690.937 594.555 713.948 601.336C756.93 614.003 804.3 615.658 838.735 647.754C849.593 658.075 858.404 670.352 864.707 683.942C879.316 715.827 890.797 782.577 892.906 818.013C897.801 900.246 817.252 900.055 757.369 907.324C699.123 914.394 640.002 920.324 580.5 921.545L571.588 921.733C497.839 922.943 428.375 917.168 355.343 907.562C334.857 904.867 303.588 901.825 284.633 895.538C272.507 891.418 261.457 884.634 252.296 875.685C216.252 840.216 236.492 778.147 244.045 734.724C250.524 703.405 259.448 676.738 281.405 652.858C331.987 597.847 409.511 625.625 461.733 572.368C424.081 535.3 407.702 498.355 400.555 446.25C384.205 327.037 413.067 222.507 544.108 202.377Z"/><path fill="#72BDF8" d="M649.033 581.845C650.622 582.483 650.275 582.13 651.368 583.551C692.006 636.189 768.932 617.228 818.773 654.369C838.407 669 848.762 686.946 855.563 710.31C863.753 735.22 868.647 763.824 872.997 788.833C883.668 850.197 868.287 877.094 804.556 884.284C788.44 886.102 767.226 888.328 750.194 890.419C751.521 863.34 749.382 836.262 747.83 809.032C747.475 802.81 746.703 780.857 732.027 790.167C727.011 794.24 729.492 809.158 730.036 814.768C732.611 841.331 732.898 866.909 732.277 893.556C675.367 898.877 620.753 904.835 563.218 904.98C526.909 905.072 491.715 903.557 455.5 901.02C434.723 899.48 413.992 897.373 393.331 894.699C392.324 864.28 392.598 834.642 395.435 804.374C396.175 796.474 397.395 785.047 386.39 784.765C384.543 785.519 383.48 786.063 382.132 787.602C372.411 798.705 374.896 875.493 375.23 892.374C348.885 889.314 324.677 886.787 298.152 880.99C227.548 865.557 251.044 793.549 260.342 743.121C263.782 724.457 269.751 703.474 278.851 686.125C320.317 607.069 423.688 648.137 474.547 582.241C488.044 590.525 501.179 596.555 516.534 600.514C561.411 612.406 609.189 605.674 649.033 581.845Z"/><path fill="#72BDF8" d="M552.534 219.409C587.23 215.899 630.875 226.556 658.846 248.367C694.529 275.938 703.577 321.796 708.622 364.264C720.993 468.388 693.32 575.388 572.896 588.345C538.741 591.982 498.359 580.94 472.221 558.252C432.865 523.571 418.525 467.563 414.919 417C407.728 316.166 440.022 228.259 552.534 219.409Z"/></g></svg>