<?xml version="1.0" encoding="utf-8" ?><svg xmlns="http://www.w3.org/2000/svg" xmlns:xlink="http://www.w3.org/1999/xlink" width="842" height="715" viewBox="0 0 842 715"><clipPath id="money-piggy-bank-coin-cl_46"><rect width="842" height="715"/></clipPath><g clip-path="url(#money-piggy-bank-coin-cl_46)"><path fill="#090A12" transform="translate(-1083 0)" d="M1482.52 207.472C1528.29 206.912 1567.12 238.45 1547.21 287.095C1560.42 290.341 1573.42 294.369 1586.15 299.16C1633.81 317.481 1672.63 346.199 1693.79 393.741C1699.53 406.651 1701.23 419.349 1705.57 429.044C1708.61 430.714 1710.95 430.284 1713.63 428.292C1713.97 422.118 1708.88 414.916 1708.48 408.839C1706.25 374.456 1753.34 363.25 1762.7 398.621C1765.26 408.304 1762.73 412.395 1763.66 420.235C1771.27 417.131 1778.77 411.455 1786.28 417.243C1790.81 427.276 1779.81 440.09 1771.5 444.669C1763.52 449.065 1755.92 448.403 1747.53 445.759C1734.03 458.672 1725.26 460.853 1707.46 462.02C1702.6 507.051 1697.32 535.501 1664.21 570.304C1657.63 577.108 1645.8 584.084 1642.87 593.469C1629.21 637.239 1646.78 681.931 1578.87 672.953C1567.71 671.478 1562.37 668.393 1555.23 658.957C1544.38 660.652 1525.51 661.959 1516.04 655.933C1506.63 649.938 1505.14 642.181 1502.66 632.366C1496.44 633.127 1490.02 633.24 1483.75 633.483C1478.52 633.614 1442.53 632.351 1441.66 633.014C1434.05 638.802 1438.71 663.114 1425.12 672.296C1412.58 680.767 1395.26 678.658 1380.98 676.938C1369.14 675.513 1364.18 670.651 1357.83 661.968C1301.46 669.749 1301.93 639.411 1293.87 595.578C1284.77 590.494 1266.2 577.149 1261.47 569.55C1239.16 533.673 1220.83 540.837 1189.03 527.747C1158.03 514.987 1157.29 441.787 1186.22 424.6C1192.61 419.237 1216.1 418.426 1220.39 411.922C1227.93 400.488 1235.12 380.863 1242.3 368.572C1235.55 351.508 1229.75 327.11 1226.48 309.08C1224.45 297.914 1233.11 288.792 1244.57 289.025C1266.78 289.476 1286.14 300.55 1302.07 315.233C1310.49 310.458 1320.81 306.456 1329.7 302.036C1331.18 264.876 1352.26 274.295 1374.6 288.434C1391.45 285.405 1410.38 283.181 1427.39 281.271C1427.01 279.025 1426.72 276.766 1426.51 274.499C1422.79 238.465 1446.54 210.547 1482.52 207.472Z"/><path fill="#F67A5F" transform="translate(-1083 0)" d="M1343.49 287.504C1366.12 290.48 1381.48 310.53 1389.37 330.497C1391.93 336.979 1392.13 354.844 1401.04 354.966C1414.69 342.306 1392.24 309.46 1384.3 298.529C1398.64 295.369 1416.78 293.421 1431.36 292.887L1437.57 303.18C1402.46 308.952 1413.14 340.178 1450.84 331.222C1467.43 327.28 1497.78 328.198 1515.43 331.019C1528.92 333.175 1566.3 346.874 1563.77 320.149C1562.71 313.692 1544.95 308.857 1537.8 306.768L1543.89 298.216C1634.13 320.061 1706.3 377.99 1694.1 479.015C1691.22 504.6 1681.71 528.99 1666.5 549.768C1656.53 563.29 1660.27 560.213 1646.35 560.893C1630.24 569.361 1625.07 637.38 1619.41 653.368C1616.15 662.574 1574.72 668.779 1567.74 653.745C1561.68 640.684 1561.56 603.922 1551.63 598.203C1548.43 600.699 1547.85 606.271 1547.47 610.049L1547.36 611.214C1548.1 613.56 1547.95 612.366 1547.37 614.854C1530.54 622.711 1459.58 622.134 1440.63 621.737C1441.83 614.729 1444.28 606.961 1438.93 601.4L1437.29 601.518C1423.05 616.819 1433.23 663.642 1410.6 666.526C1361.48 672.789 1368.28 652.015 1362.24 614.779C1361.43 609.795 1357.05 594.597 1352.48 591.649C1345.57 593.941 1348.03 601.876 1349.05 607.285C1325.31 599.592 1297.44 587.318 1278.53 570.787C1253.14 548.596 1258.67 536.116 1223.47 526.109C1233.05 515.285 1239.05 502.747 1241.35 488.472C1242.83 479.253 1246.15 466.775 1235.42 462.416C1230.41 464.098 1230.08 486.372 1229.02 492.066C1226.68 504.694 1220.24 520.652 1204.82 521.035C1170.03 521.901 1169.11 455.797 1188.03 437.266C1202.24 423.35 1211.71 436.977 1225.39 437.23L1226.39 436.062C1225.53 432.21 1223.22 430.426 1220.47 427.477L1221.34 426.804C1234.93 416.372 1234.09 411.785 1240.56 395.774C1257.34 354.278 1288.96 331.906 1328.46 314.724C1326.14 320.757 1319.71 335.762 1323.17 341.524C1338.03 344.475 1342.1 297.034 1343.49 287.504Z"/><path fill="#090A12" transform="translate(-1083 0)" d="M1337.07 469.243C1347.47 471.495 1344.56 478.555 1349.88 484.659C1352.72 487.921 1360.88 486.865 1364.71 493.122C1364.67 496.763 1365.24 495.218 1363.14 497.988C1357.5 500.216 1352.17 497.89 1346.61 496.022C1337.8 506.411 1333.57 509.314 1321.65 514.619C1313.6 516.466 1301.11 520.066 1296.02 511.266C1298.72 502.902 1314.91 505.846 1322.64 501.956C1330.55 497.97 1332.65 495.248 1338.72 489.076L1338.42 488.282L1337.92 486.952C1334.74 478.522 1334.66 478.1 1337.07 469.243Z"/><path fill="#090A12" transform="translate(-1083 0)" d="M1321.72 407.037C1332.86 407.204 1350.64 410.764 1346.71 425.977C1344.22 428.7 1345.72 427.949 1342.1 428.365C1338.92 427.137 1338.44 425.877 1336.47 423.069L1335.78 422.068C1323.89 416.11 1314.89 425.3 1308.08 420.639L1307.92 418.468C1311.46 411.472 1314.67 410.735 1321.72 407.037Z"/><path fill="#090A12" transform="translate(-1083 0)" d="M1258.1 397.135C1265.52 398.604 1270.71 400.865 1270.84 409.527C1269.02 412.843 1270.33 411.762 1266.83 412.957C1262.94 412.311 1261.93 410.986 1258.9 408.46C1253.19 410.676 1250.64 412.828 1244.88 409.901C1241.43 401.479 1252.22 398.508 1258.1 397.135Z"/><path fill="#090A12" transform="translate(-1083 0)" d="M1209.9 462.448C1223.21 466.463 1219.39 479.142 1214.86 488.704C1202.12 484.421 1204.9 471.952 1209.9 462.448Z"/><path fill="#090A12" transform="translate(-1083 0)" d="M1187.54 462.446C1199.98 465.139 1197.22 477.732 1193.73 486.672C1193.37 486.699 1193.01 486.727 1192.65 486.754C1190.36 486.725 1188.24 485.543 1187 483.611C1183.37 478 1185.95 468.364 1187.54 462.446Z"/><path fill="#F8B34A" transform="translate(-1083 0)" d="M1488.49 218.523C1515.04 213.966 1540.24 231.867 1544.67 258.441C1549.11 285.016 1531.1 310.132 1504.5 314.449C1478.08 318.739 1453.15 300.863 1448.75 274.458C1444.34 248.053 1462.1 223.05 1488.49 218.523Z"/><path fill="#090A12" transform="translate(-1083 0)" d="M1491.76 227.154C1496.29 227.132 1496.51 226.412 1499.89 228.313L1499.54 229.924C1493.98 233.921 1486.69 233.308 1479.74 237.678C1471.88 242.622 1466.99 248.416 1464.9 257.6C1462.76 267.145 1464.58 277.151 1469.94 285.33C1477.25 296.519 1485.62 299.397 1497.6 302.175C1497.63 304.445 1497.85 303.341 1496.41 305.385C1462.2 311.953 1434.52 242.74 1491.76 227.154Z"/><path fill="#090A12" transform="translate(-1083 0)" d="M1519.3 237.644C1530.26 240.836 1532.96 252.456 1532.77 262.499C1527.4 260.357 1521.7 243.476 1519.3 237.644Z"/><path fill="#090A12" transform="translate(-1083 0)" d="M1526.65 281.559L1528.48 283.391C1529.26 291.218 1520.26 297.04 1514.64 301.302L1512.93 300.823L1512.54 299.24C1514.74 294.968 1523.08 285.847 1526.65 281.559Z"/><path fill="#F67A5F" transform="translate(-1083 0)" d="M1241.35 301.063C1260.62 301.206 1277.39 308.131 1291.65 320.944C1284.13 325.927 1276.28 332.127 1269.02 337.608C1261.53 344.219 1256.85 349.665 1250.58 357.377C1246.15 343.184 1239.77 322.08 1238.19 307.404C1237.84 304.138 1239.44 303.117 1241.35 301.063Z"/><path fill="#F67A5F" transform="translate(-1083 0)" d="M1306.84 603.321C1321.57 608.417 1336.39 614.968 1351.61 620.257L1356.39 651.92C1309.36 653.474 1316.01 644.885 1306.84 603.321Z"/><path fill="#F67A5F" transform="translate(-1083 0)" d="M1730.77 386.048C1740.33 385.63 1751.86 388.776 1755.01 398.646C1762.41 421.877 1741.23 444.795 1720.14 451.208C1717.16 452.115 1709.08 454.001 1706.5 452.655C1703.98 438.198 1715.79 440.421 1726.55 437.2C1738.2 431.007 1753.27 408.136 1742.62 399.132C1718.47 378.715 1731.27 421.021 1726.73 425.707C1717.77 422.713 1715.52 407.484 1717.62 399.547C1719.42 392.72 1725.14 389.437 1730.77 386.048Z"/><path fill="#F67A5F" transform="translate(-1083 0)" d="M1547.03 627.403L1547.71 627.571C1551.23 630.591 1551.81 643.851 1552.39 648.98C1539.7 649.296 1534.49 649.283 1522.18 646.605C1515.48 642.271 1515.72 640.162 1513.91 632.482L1547.03 627.403Z"/><path fill="#F8B34A" transform="translate(-1083 0)" d="M1453.4 227.009C1453.56 228.688 1444.35 242.886 1442.5 249.984C1437.92 267.623 1439.4 281.478 1448.66 297.221C1451.22 301.578 1454.36 304.219 1456.57 308.476L1454.74 308.406C1428.42 285.276 1425.18 250.702 1453.4 227.009Z"/><path fill="#F67A5F" transform="translate(-1083 0)" d="M1529.16 314.894C1535.39 315.431 1551.65 318.983 1553.43 325.707C1550.67 327.911 1552.29 327.054 1547.77 327.124C1538.13 325.052 1528.47 323.109 1518.79 321.297L1529.16 314.894Z"/><path fill="#F67A5F" transform="translate(-1083 0)" d="M1435.78 313.317L1448.27 312.431L1459.03 320.302L1449.48 321.357C1442.02 322.378 1434.81 324.224 1427.88 320.501L1427.36 318.621C1429.54 315.432 1432.15 314.852 1435.78 313.317Z"/><path fill="#F67A5F" transform="translate(-1083 0)" d="M1777.52 423.917L1778.82 424.16C1778.71 433.493 1765.63 437.473 1758.24 439.608L1756.46 438.587L1756.23 436.593C1759.1 431.399 1769.69 428.473 1776.36 424.598L1777.52 423.917Z"/><path fill="#090A12" transform="translate(-1083 0)" d="M1584.75 179.363C1593.01 184.622 1592.11 188.583 1593.78 198.055C1600.96 202.323 1607.85 204.378 1613.62 210.912C1612.95 213.909 1606.29 216.749 1603.2 218.403C1590.96 224.959 1593.31 235.959 1585.94 242.979C1577.78 235.506 1580.6 231.996 1574.52 224.231C1571.35 220.181 1561.68 215.306 1556.87 212.523L1557.08 210.773C1562.32 206.398 1568.39 204.088 1574.65 200.572C1579.94 193.016 1579.49 186.673 1584.75 179.363Z"/><path fill="#F8B34A" transform="translate(-1083 0)" d="M1585.23 199.849C1589.78 203.881 1592.5 207.732 1596.15 212.507C1591.35 216.421 1590.1 218.154 1586.37 222.873L1574.38 210.876C1580.23 206.316 1580.8 205.529 1585.23 199.849Z"/><path fill="#090A12" transform="translate(-1083 0)" d="M1483.35 119.548C1491.42 123.885 1491.86 175.845 1484.56 185.239C1474.57 174.74 1477.83 131.987 1483.35 119.548Z"/><path fill="#090A12" transform="translate(-1083 0)" d="M1443.05 153.509C1452.32 159.573 1450.84 188.453 1446.5 197.541C1443.53 195.873 1441.6 194.876 1440.65 190.902C1438.24 180.746 1438.54 162.683 1443.05 153.509Z"/><path fill="#090A12" transform="translate(-1083 0)" d="M1514.51 146.397C1524.6 151.909 1519.88 177.411 1517.45 186.771C1506.36 183.884 1511.62 154.61 1514.51 146.397Z"/></g></svg>