<?xml version="1.0" encoding="utf-8" ?><svg xmlns="http://www.w3.org/2000/svg" xmlns:xlink="http://www.w3.org/1999/xlink" width="533" height="497" viewBox="0 0 533 497"><clipPath id="cl_d"><rect y="-0.00390625" width="533" height="497"/></clipPath><g clip-path="url(#cl_d)"><path fill="#1F1D22" transform="translate(-1388 -1401)" d="M1669.67 1426.45C1701.64 1426.36 1732.81 1435.09 1757.01 1456.68C1787.45 1483.85 1799.34 1529.55 1800.62 1569.02C1800.98 1580.19 1799.11 1591.78 1799.96 1602.79C1800.01 1603.47 1800.04 1606.31 1800.39 1606.89C1802.07 1609.72 1819.63 1615.8 1824.36 1619.98C1827.18 1622.49 1829.94 1625.76 1831.29 1629.33C1836.44 1642.9 1837.76 1680.59 1838.49 1696.74C1839.73 1724.24 1840.66 1818.5 1822.6 1836.71C1818.26 1841.09 1810.92 1843.03 1805.01 1844.29C1790.03 1847.48 1773.87 1847.88 1758.61 1848.78C1730.98 1850.29 1703.34 1851.43 1675.68 1852.2C1643.27 1852.47 1546.78 1856.03 1524.01 1839.19C1513.72 1831.59 1510.23 1821.75 1508.71 1809.55C1504.99 1779.53 1498 1640.79 1515.58 1619.56C1522.26 1611.49 1531.73 1610.41 1541.48 1609.33C1541.11 1557.86 1538.12 1512.29 1575.19 1470.05C1601.23 1440.38 1631.53 1429.01 1669.67 1426.45ZM1604.26 1605.62C1626.9 1604.86 1649.56 1604.45 1672.22 1604.38L1737.71 1604.03C1740.2 1552.9 1737.71 1490.39 1671.11 1489.41C1669.85 1489.39 1668.58 1489.38 1667.32 1489.38C1613.02 1492.74 1599.69 1543.11 1603 1589.35L1604.26 1605.62Z"/><path fill="#7AB2E0" transform="translate(-1388 -1401)" d="M1640.07 1617.54C1666.56 1616.27 1799.09 1614.58 1814.51 1627.13C1825.35 1635.96 1825.51 1686.93 1826.15 1701.78C1827.12 1724.3 1826.86 1815.11 1814.23 1827.44C1802.86 1838.54 1720.13 1838.88 1700.24 1839.69C1671.71 1840.42 1546.11 1843.32 1529.68 1828.94C1523.98 1823.95 1521.65 1813.17 1520.57 1805.9C1516.35 1777.44 1510.33 1645.28 1526.15 1627.03C1533.98 1617.99 1623.63 1617.99 1640.07 1617.54Z"/><path fill="#7AB2E0" transform="translate(-1388 -1401)" d="M1662.41 1439.34C1696.48 1435.84 1737.73 1449.79 1759.16 1477.12C1786.2 1511.59 1791.53 1566 1787.31 1608.16C1775.33 1606.92 1763.31 1606.11 1751.27 1605.72C1754.16 1548.37 1748.23 1487.69 1681.42 1477.06C1654.53 1475.75 1631.69 1481.16 1613.2 1502.22C1588.33 1530.54 1588.98 1571.36 1591.07 1606.79C1579.18 1607.03 1566.15 1607.91 1554.17 1608.49C1548.98 1526.34 1568.63 1451.29 1662.41 1439.34Z"/></g></svg>