<?xml version="1.0" encoding="utf-8" ?><svg xmlns="http://www.w3.org/2000/svg" xmlns:xlink="http://www.w3.org/1999/xlink" width="567" height="531" viewBox="0 0 567 531"><clipPath id="cl_e"><rect y="-0.00390625" width="567" height="531"/></clipPath><g clip-path="url(#cl_e)"><path fill="#1F1D22" transform="translate(-735 -1367)" d="M946.689 1432.47L948.299 1432.41C978.184 1431.35 1008.42 1433.36 1038.4 1432.4C1070.7 1431.36 1103.31 1433.71 1135.53 1435.55C1163.99 1437.17 1171.3 1437.75 1172.15 1468.68C1191.49 1466.86 1213.97 1467.64 1231.27 1477.3C1269.72 1498.78 1259.71 1550.75 1242.02 1581.93C1223.48 1614.95 1192.65 1639.32 1156.25 1649.75C1143.83 1653.4 1131.36 1654.73 1119.18 1658.21L1117.99 1658.57C1100.55 1678.17 1082.51 1689.2 1064.02 1706.54C1057.72 1712.45 1059.94 1735.84 1060.66 1744.33C1063.96 1774.78 1089.67 1771.09 1110.26 1785.4C1123.25 1794.42 1131.2 1821.4 1122.95 1836.51C1120.27 1841.42 1107.5 1841.9 1101.75 1842.38C1070.74 1847.44 954.277 1847.3 924.942 1838.96C922.16 1825.4 921.438 1819.95 924.214 1806.1C931.869 1767.91 981.224 1783.7 987.81 1747.14C989.343 1738.63 990.17 1718.49 986.237 1711.04C978.796 1696.94 959.801 1688.34 948.336 1677.75C939.658 1669.88 937.29 1666.91 930.568 1657.36C888.2 1651.38 856.812 1641.11 826.492 1609.86C792.29 1574.62 766.412 1499.82 824.688 1473.73C841.793 1466.07 858.494 1467.68 876.645 1468.09C881.021 1439.91 887.304 1436.34 915.592 1434.63C925.662 1434.02 936.558 1433.17 946.689 1432.47ZM1150.92 1603.42C1158.84 1599.5 1165.57 1596.31 1172.55 1590.82C1190.31 1577.31 1205.8 1557.21 1209.04 1534.75C1212.15 1513.07 1188.2 1514.36 1174.25 1515.52L1171.39 1516.44C1169.61 1520.64 1169.61 1533.89 1168.38 1540.26C1165 1557.84 1158.29 1587.25 1150.92 1603.42ZM839.585 1524.26C839.43 1558.47 856.169 1577.18 883.313 1595.38L897.728 1603.86C885.696 1569 879.802 1552.84 877.27 1515.14C872.081 1514.83 865.893 1514.3 860.78 1514.37C850.919 1516.29 846.289 1516.41 839.585 1524.26Z"/><path fill="#FCB546" transform="translate(-735 -1367)" d="M960.288 1445.52C982.339 1444.99 1147.42 1444.42 1155.31 1451.36C1159.69 1455.21 1159.81 1466.07 1159.98 1471.6C1162.08 1539.44 1146.47 1612.05 1098.29 1662.49C1085.76 1675.61 1068.24 1683.02 1056.3 1696.25C1047.01 1706.55 1046.07 1720.92 1046.53 1734.13C1047.55 1763.26 1057.62 1775.75 1084.37 1786.26C1091.47 1789.05 1098.75 1791.86 1104.25 1797.36C1113.24 1806.35 1113.27 1817.37 1113.02 1829.19C1105.45 1830.4 1095.83 1831.1 1088.08 1831.88C1043.93 1833.87 978.458 1836.13 935.2 1828.99C933.358 1777.06 970.244 1797.15 993.104 1767.47C1003.84 1753.53 1005.93 1716.57 995.827 1701.45C986.903 1688.1 971.313 1681.64 959.794 1671.67C922.653 1639.53 900.984 1588.4 892.956 1540.49C890.144 1523.71 884.475 1466.09 894.661 1451.87C899.195 1445.55 948.625 1445.85 960.288 1445.52Z"/><path fill="#FCB546" transform="translate(-735 -1367)" d="M845.365 1481.25C855.503 1480.52 866.515 1480.79 876.743 1480.82C876.46 1487.96 876.648 1495.66 876.695 1502.86C829.977 1499.81 814.671 1519.6 835.565 1562.44C849.508 1591.03 874.92 1609.35 904.847 1618.93C907.651 1624.82 910.688 1630.02 913.925 1635.68C915.72 1638.42 916.689 1640.14 918.204 1643.06L917.474 1643.79C865.384 1636.53 815.989 1597.34 804.875 1544.78C797.663 1510.68 809.532 1487.59 845.365 1481.25Z"/><path fill="#FCB546" transform="translate(-735 -1367)" d="M1172.07 1481.01C1189.28 1480.77 1206.31 1478.74 1222.34 1486.63C1256.05 1503.2 1247.08 1546.91 1232.53 1573.62C1213.91 1607.8 1185.8 1628.54 1148.89 1639.64C1142.67 1641.39 1135.89 1642.62 1129.51 1643.91C1135 1635.18 1139.51 1627.25 1144.5 1618.28C1164.83 1612.01 1179.65 1604.26 1195.07 1587.88C1210.37 1571.63 1235.41 1530.39 1213.7 1510.21C1203.44 1500.69 1185.19 1502.17 1171.91 1503.09L1172.07 1481.01Z"/></g></svg>