<?xml version="1.0" encoding="utf-8" ?><svg xmlns="http://www.w3.org/2000/svg" xmlns:xlink="http://www.w3.org/1999/xlink" width="969" height="943" viewBox="0 0 969 943"><clipPath id="cl_3"><rect width="969" height="943"/></clipPath><g clip-path="url(#cl_3)"><path fill="#1C1A1B" transform="translate(-993 -1075)" d="M1332.38 1199.45C1363.88 1197.81 1397.88 1201.03 1429.25 1203.51C1512.13 1210.08 1594.39 1223.8 1675.21 1243.13C1710.86 1251.66 1754.67 1259.46 1785.92 1279.13C1812.84 1296.07 1829.43 1329.57 1835.78 1359.82C1850.17 1428.45 1846.45 1500.12 1842.44 1569.75C1839.23 1605.47 1846.5 1649.63 1826.85 1681.2C1814.19 1701.54 1785.99 1711.92 1765.02 1721C1723.94 1738.81 1680.07 1756.16 1636.25 1765.6C1576.91 1776.42 1524.12 1767.36 1465.13 1758.62L1351.91 1742.04L1248.99 1727.12C1221.33 1722.98 1178.72 1719.93 1156.21 1701.57C1150.93 1697.26 1143.33 1685.5 1141.55 1678.49C1129.4 1630.89 1132.25 1579.27 1128.69 1530.45C1123.53 1432.4 1130.78 1328.87 1200.26 1252.66C1236.94 1212.43 1279.5 1201.06 1332.38 1199.45Z"/><path fill="#FDB74F" transform="translate(-993 -1075)" d="M1146.05 1434.47C1154.74 1435.49 1163.92 1436.93 1172.58 1438.3C1219.16 1445.71 1266.68 1450.27 1313.1 1458.41C1287.49 1477.85 1259.89 1524.07 1279.02 1556.32C1288.3 1571.98 1314.08 1597.46 1332.3 1601.69C1381.58 1613.15 1431.57 1563.72 1443.42 1519.29C1447.99 1501.89 1444.76 1490.09 1435.6 1475.32C1460.08 1479.64 1486.52 1482.66 1511.27 1486.52C1541.15 1491.17 1571.74 1496.2 1601.69 1499.68C1601.9 1527.2 1602.26 1554.73 1602.77 1582.25C1603.03 1616.75 1603.54 1651.25 1604.29 1685.74C1604.66 1704.9 1606.01 1733.77 1603.8 1752.17C1565.65 1756.74 1505.89 1746.83 1467.68 1741.21C1428.92 1735.66 1390.2 1729.9 1351.5 1723.92C1316.77 1719.23 1282.07 1714.3 1247.41 1709.12C1227.96 1706.22 1207.77 1703.81 1189.04 1698.91C1170.6 1694.09 1159.8 1684.54 1156.25 1665.76C1151.75 1641.93 1150.45 1616.79 1149.06 1592.73C1146.02 1540.08 1143.05 1487.15 1146.05 1434.47Z"/><path fill="#FDB74F" transform="translate(-993 -1075)" d="M1827 1429.09C1834.4 1436.81 1823.35 1622.94 1821.32 1644.98C1817.68 1684.54 1786.9 1691.77 1756.45 1705.52C1710.33 1726.33 1670.4 1740.67 1620.93 1750.19C1622.95 1723.3 1621.58 1690.13 1621.3 1662.61L1618.92 1499.13C1669.67 1487.8 1719.23 1470.18 1768.2 1452.8C1787.91 1445.8 1808.19 1438.23 1827 1429.09Z"/><path fill="#FDB74F" transform="translate(-993 -1075)" d="M1563.19 1238.99C1608.58 1246.04 1660.99 1257.62 1705.53 1268.89C1613.99 1301.79 1603.61 1397.3 1601.19 1481.27C1596.61 1481 1591.42 1480.28 1586.81 1479.75C1576.73 1479.46 1545.77 1473.54 1535.13 1471.76C1505.12 1466.76 1475 1462.4 1444.81 1458.68C1456.2 1371.22 1467.29 1274 1563.19 1238.99Z"/><path fill="#FDB74F" transform="translate(-993 -1075)" d="M1332.64 1217.44C1359.34 1216.65 1388.35 1218.8 1415.12 1220.49C1340.8 1267.23 1322.57 1358.84 1316.78 1440.36C1292.41 1436.18 1264.82 1432.56 1240.24 1429.57L1148.56 1417.4C1158.86 1341.89 1193.9 1253.68 1271.86 1226.44C1291.16 1219.69 1312.36 1218.51 1332.64 1217.44Z"/><path fill="#FDB74F" transform="translate(-993 -1075)" d="M1730.19 1282.38C1749.95 1280.86 1766.96 1286 1782.59 1298.27C1814.98 1323.68 1821.76 1371.93 1826.35 1410.38C1792.08 1426.97 1733.07 1446.64 1695.53 1458.66C1670.27 1467.27 1644.59 1474.62 1618.6 1480.68C1619.13 1402.91 1635.32 1294.25 1730.19 1282.38Z"/><path fill="#FB7B5E" transform="translate(-993 -1075)" d="M1449.77 1224.01C1463.68 1223.33 1515.68 1231.77 1531.47 1234.13C1522.94 1238.51 1514.9 1243.8 1507.49 1249.91C1447.66 1298.9 1434.92 1384.04 1427.7 1455.97L1415.34 1454.37C1388.39 1450.37 1361.4 1446.65 1334.37 1443.19C1339.41 1359.39 1361.06 1255.76 1449.77 1224.01Z"/><path fill="#FDB74F" transform="translate(-993 -1075)" d="M1337.8 1461.86C1351.01 1462.22 1385.74 1468.24 1400.54 1470.41C1408.82 1506.95 1378.47 1538.97 1348.99 1555.45C1274.75 1588.11 1273.37 1503.01 1337.8 1461.86Z"/><path fill="#FDB74F" transform="translate(-993 -1075)" d="M1419.88 1486.31C1445.21 1506.55 1406.88 1556.65 1388.22 1569.45C1371.13 1581.16 1358.43 1587.56 1337.45 1584.79C1334.08 1583.92 1329.9 1582.15 1326.58 1580.87C1362.99 1576.15 1396.92 1547.27 1412.37 1514.77C1416.93 1505.18 1418.45 1496.71 1419.88 1486.31Z"/></g></svg>