<?xml version="1.0" encoding="utf-8" ?><svg xmlns="http://www.w3.org/2000/svg" xmlns:xlink="http://www.w3.org/1999/xlink" width="1017" height="943" viewBox="0 0 1017 943"><clipPath id="cl_4"><rect width="1017" height="943"/></clipPath><g clip-path="url(#cl_4)"><path fill="#1C1A1B" transform="translate(0 -1075)" d="M545.545 1285.41C563.561 1284.42 581.628 1284.82 599.583 1286.62C692.658 1295.53 775.087 1341.91 834.031 1413.93C881.048 1471.73 910.588 1541.75 919.179 1615.76C920.98 1631 925.715 1681.6 914.596 1686.69C896.434 1695 826.41 1686.51 800.816 1687.86C795.451 1688.14 764.103 1687.09 763.159 1683.02C759.385 1666.75 764.676 1646.77 762.072 1629.81C752.06 1521.65 683.537 1456.08 577.28 1442.4C543.261 1439.99 509.189 1446.28 478.267 1460.66C402.301 1496.47 360.808 1568.12 362.108 1650.39C362.251 1659.44 364.571 1675.46 361.701 1683.45C356.679 1687.12 313.354 1688.2 304.928 1688.48C276.482 1689.44 246.875 1692.54 218.583 1689.91C204.541 1688.61 202.565 1669.78 202.508 1658.98C199.769 1566.46 233.784 1474.13 296.033 1405.58C359.921 1333.95 449.706 1290.71 545.545 1285.41Z"/><path fill="#FDB74F" transform="translate(0 -1075)" d="M539.912 1303.42C550.024 1302.15 573.217 1302.56 583.657 1303.16C671.752 1308.57 754.043 1348.92 812.263 1415.26C872.604 1483.05 908.983 1582.91 903.591 1673.75C861.753 1673.21 820.563 1670.7 778.957 1669.94C784.325 1613.51 768.22 1549.55 733.382 1504.66C699.089 1460.47 641.965 1432.89 587.241 1426.24C575.698 1424.84 562.414 1424.61 550.842 1425.19C493.434 1427.98 439.515 1453.57 401.057 1496.29C356.142 1546.72 341.485 1603.94 345.177 1670C303.622 1670.83 263.62 1675.6 221.326 1673.44C214.344 1584.12 242.858 1495.66 300.681 1427.23C362.411 1353.75 444.526 1311.81 539.912 1303.42Z"/><path fill="#1C1A1B" transform="translate(0 -1075)" d="M664.755 1526.21C667.951 1525.91 670.2 1525.6 673.314 1526.73C676.843 1528.04 679.64 1530.8 680.995 1534.31C683.801 1541.73 680.604 1549.69 677.583 1556.51C664.136 1586.88 611.2 1675.29 580.94 1686.77C565.878 1692.48 551.925 1690.37 537.633 1683.99C505.678 1661.91 505.998 1624.24 535.478 1600.41C554.945 1584.68 577.415 1571.78 599.006 1559.12C618.684 1547.59 642.918 1532.65 664.755 1526.21Z"/><path fill="#FB7B5E" transform="translate(0 -1075)" d="M661.962 1544.93L662.887 1545.7C661.845 1555.86 621.969 1618.87 613.082 1630.64C602.243 1644.99 586.989 1671.25 567.611 1672.64C555.502 1673.52 550.476 1672.15 541.041 1665.35C538.468 1662.53 536.472 1660.01 534.713 1656.56C530.813 1648.94 530.223 1640.04 533.082 1631.97C542.17 1606.1 636.518 1557.87 661.962 1544.93Z"/></g></svg>