<?xml version="1.0" encoding="utf-8" ?><svg xmlns="http://www.w3.org/2000/svg" xmlns:xlink="http://www.w3.org/1999/xlink" width="1060" height="811" viewBox="0 0 1060 811"><clipPath id="scenes-welcome-cl_3e"><rect width="1060" height="811"/></clipPath><g clip-path="url(#scenes-welcome-cl_3e)"><path fill="#08262B" d="M519.979 400.037C521.151 388.931 523.553 374.115 529.674 364.538C536.737 353.488 569.102 320.103 582.355 329.462C585.474 334.916 584.569 336.613 586.096 342.271C589.94 356.512 594.321 373.697 591.074 388.484C585.63 413.273 571.863 421.416 553.159 433.677C560.987 446.257 569.043 458.589 576.827 471.233C604.644 451.168 588.018 455.036 594.095 424.658C596.028 414.995 608.297 416.953 615.738 420.097C623.114 412.565 632.116 407.007 642.92 409.304C660.727 413.088 666.647 432.897 662.662 448.795C659.322 462.12 652.335 464.336 643.928 473.424C638.91 479.664 634.223 486.242 629.409 492.651C618.512 507.159 607.521 515.978 592.077 525.399C591.021 576.333 574.058 612.27 526.136 633.145C524.824 642.804 524.102 648.369 524.073 658.022C586.031 688.204 536.6 723.072 492.543 705.664C483.123 701.942 480.599 698.279 477.012 689.385C474.019 676.098 478.519 660.097 473.623 649.795L472.255 649.115C467.581 655.335 471.2 680.557 466.191 696.107C455.829 710.593 433.315 712.99 416.738 711.437C405.219 710.358 388.874 699.885 392.259 686.306C395.802 672.094 409.317 667.609 420.149 660.386C420.021 653.413 419.594 648.976 418.746 642.029C399.154 636.235 394.155 633.44 377.415 621.777C379.139 645.656 376.659 648.658 353.461 651.209C341.635 663.786 332.536 668.676 316.932 657.614C293.128 640.74 315.403 614.686 323.439 597.841C331.606 580.723 335.475 570.263 345.941 554.606C344.734 520.465 358.108 484.708 376.073 456.183C330.899 456.352 315.377 447.827 294.133 406.647C292.566 403.355 278.489 384.223 282.721 381.056C305.435 364.056 346.155 361.722 366.38 378.992C388.116 397.552 389.962 407.564 393.218 427.223C403.495 408.348 417.409 391.683 425.424 371.168C430.295 360.76 429.811 344.52 434.306 334.705C442.989 315.746 458.051 346.586 462.378 351.549C479.296 370.956 498.218 386.715 519.979 400.037Z"/><path fill="#43B682" d="M446.625 360.631C452.788 365.588 458.383 374.078 464.56 379.322C492.846 403.336 524.311 425.156 546.577 455.31C551.331 461.747 561.912 475.515 562.449 483.384C560.835 487.757 559.405 488.911 561.666 492.992C563.53 494.131 565.646 495.857 568.26 495.107C582.415 491.043 600.698 472.71 606.177 459.585C608.389 454.286 606.264 437.357 605.721 431.305C624.577 447.262 621.409 429.569 637.719 423.582C646.664 420.299 648.371 437.509 648.723 443.442C643.524 456.363 619.257 476.812 611.446 491.284C607.471 498.65 582.549 515.688 574.903 521.248C575.466 552.911 572.09 579.612 546.641 601.414C535.72 610.77 524.144 616.12 512.542 624.234C496.192 691.851 524.627 664.123 534.576 685.199C534.569 689.483 535.131 687.588 533.009 691.146C528.768 694.128 511.088 694.587 506.31 693.175C477.082 684.538 503.349 652.854 486.764 629.59C479.782 630.066 465.107 630.265 459.399 633.54C446.249 643.743 456.491 666.211 452.453 682.186C448.072 699.516 414.835 700.305 408.794 689.07C410.551 678.232 430.841 680.913 435.126 672.818C440.552 662.569 435.118 639.276 432.609 628.812C407.269 621.553 396.005 618.594 378.869 598.169C383.846 591.693 396.787 577.61 390.21 569.654C373.722 565.817 361.346 603.107 358.585 614.999C360.882 622.53 362.618 628.859 364.435 636.515C362.065 635.459 354.966 631.812 353.27 632.211C343.744 634.451 339.677 649.495 328.602 649.458C322.943 646.947 318.664 636.807 321.402 632.083C333.458 611.085 342.675 588.925 354.534 567.905C358.352 561.138 377.828 543.517 374.494 537.013C370.533 535.007 366.544 535.42 361.983 535.316C368.648 488.793 410.682 433.292 433.158 393.176C438.914 382.903 442.839 371.755 446.625 360.631Z"/><path fill="#08262B" d="M500.059 476.745C503.754 476.984 504.348 476.852 507.709 478.649C518.664 492.171 491.692 509.547 479.355 510.651C460.883 512.304 452.851 509.643 438.255 499.514C433.742 494.322 428.574 487.21 435.369 481.32C445.593 479.233 457.269 492.714 467.437 496.758C485.352 494.703 488.779 490.247 500.059 476.745Z"/><path fill="#08262B" d="M492.48 439.898C509.352 440.62 509.815 450.25 499.489 461.197C481.958 460.473 482.561 450.985 492.48 439.898Z"/><path fill="#08262B" d="M443.681 444.532C447.058 442.928 451.044 443.311 454.054 445.527C457.065 447.744 458.614 451.436 458.085 455.137C457.557 458.839 455.037 461.95 451.526 463.235C446.432 465.1 440.772 462.631 438.674 457.629C436.576 452.627 438.781 446.859 443.681 444.532Z"/><path fill="#43B682" d="M324.481 384.322C352.702 383.317 367.354 396.413 375.355 422.599C366.81 415.983 348.808 403.449 338.851 413.194C336.988 419.648 342.538 422.291 347.4 425.29C351.997 427.752 362.833 433.545 364.852 437.94L363.93 439.079C327.769 443.91 318.198 412.593 304.791 388.496C312.433 386.351 316.612 385.537 324.481 384.322Z"/><path fill="#43B682" d="M569.112 348.784L570.478 349.439C574.941 361.585 576.109 372.681 574.576 385.553C572.911 399.543 565.755 405.999 554.854 414.096C558.895 402.515 563.789 392.054 560.894 379.915C547.276 376.723 541.107 398.696 538.169 408.015C536.826 374.927 543.839 367.856 569.112 348.784Z"/><path fill="#08262B" d="M403.402 154.513C446.728 149.469 473.132 178.585 481.978 215.032C482.376 216.67 501.156 216.477 505.21 217.44C511.638 218.971 517.642 221.92 522.783 226.072C548.14 246.579 543.048 291.064 510.07 297.551C485.718 302.341 453.649 300.122 428.289 300.11C405.444 300.247 382.604 300.87 359.786 301.979C332.226 302.751 304.205 302.296 276.623 301.937C262.112 301.749 243.056 299.828 232.432 288.915C215.287 271.304 233.463 242.604 254.175 238.47C261.127 237.05 265.35 237.651 272.092 238.282C281.423 200.578 307.481 179.174 346.594 196.782C361.23 168.39 371.908 160.131 403.402 154.513Z"/><path fill="#FCFEFD" d="M407.576 168.304C434.065 166.768 457.935 181.747 464.946 208.064C466.031 212.136 467.939 229.037 469.489 229.69C483.489 235.59 500.316 224.131 516.201 238.204C522.032 243.37 523.986 249.632 524.565 256.89C525.242 265.382 524.121 272.289 518.302 278.482C514.227 282.818 503.591 285.507 497.707 286.072C479.064 287.862 459.277 286.564 440.423 286.609C410.88 286.689 381.344 287.481 351.839 288.986C329.66 289.182 260.66 292.695 245.872 282.272C242.728 280.056 240.652 277.197 240.076 273.355C239.383 268.728 241.107 261.801 244.152 258.198C252.373 248.469 267.101 253.081 277.806 252.095C290.604 250.916 286.362 225.686 296.967 214.383C318.609 191.315 336.203 214.724 351.295 213.593C358.552 213.049 364.27 192.833 368.339 187.361C377.769 174.679 392.736 170.495 407.576 168.304Z"/><path fill="#08262B" d="M807.71 414.538C847.983 408.321 871.132 428.496 881.071 466.07C896.158 468.117 906.972 468.745 919.547 479.414C938.287 495.314 939.311 523.083 921.862 540.864C901.223 561.896 864.67 556.281 837.698 556.182L779.855 556.252C760.052 556.374 740.237 556.599 720.434 556.642C702.457 556.68 679.285 558.805 665.127 545.58C659.904 540.781 656.869 534.056 656.726 526.964C656.396 512.547 666.478 498.684 680.375 494.866C685.936 493.338 690.982 493.627 696.68 493.685C697.443 490.93 698.236 488.183 699.06 485.444C708.891 453.007 731.19 444.442 762.406 454.081C772.521 431.092 783.018 420.882 807.71 414.538Z"/><path fill="#FCFEFD" d="M809.975 428.109C875.984 425.614 856.917 471.223 871.706 480.854C882.916 488.154 897.643 477.76 910.102 489.987C915.996 495.771 919.968 505.087 919.895 513.362C919.84 519.727 917.078 525.341 912.587 529.775C906.121 536.158 897.184 539.569 888.401 541.261C871.044 544.606 852.438 542.619 834.844 542.449C814.395 542.374 793.946 542.495 773.5 542.812C744.652 543.412 711.132 546.408 683.193 539.171C673.573 536.679 667.383 528.124 672.322 518.392C680.689 501.91 692.192 511.594 705.228 507.618C715.299 504.546 713.825 486.07 717.987 478.473C727.696 449.293 764.869 475.937 769.539 471.283C782.743 458.123 772.23 440.955 809.975 428.109Z"/><path fill="#08262B" d="M723.045 174.802C769.977 169.465 812.3 203.309 817.414 250.266C822.528 297.222 788.482 339.384 741.502 344.275C694.836 349.133 653.018 315.365 647.939 268.723C642.859 222.081 676.428 180.103 723.045 174.802Z"/><path fill="#FAAD2A" d="M721.306 188.467C760.812 181.993 798.075 208.804 804.491 248.32C810.907 287.836 784.041 325.059 744.516 331.417C705.073 337.761 667.944 310.963 661.541 271.53C655.139 232.097 681.882 194.928 721.306 188.467Z"/><path fill="#08262B" d="M689.158 263.183C705.131 268.316 708.734 287.673 729.711 287.408C740.684 287.269 760.498 274 766.18 280.601C766.886 283.981 765.861 285.356 764.468 288.554C758.201 292.5 743.721 299.694 736.524 299.788C717.753 300.033 680.359 288.105 689.158 263.183Z"/><path fill="#08262B" d="M754.362 243.506C758.863 241.685 763.994 243.783 765.928 248.237C767.862 252.69 765.893 257.873 761.49 259.918C758.541 261.287 755.083 260.95 752.454 259.037C749.826 257.124 748.441 253.937 748.838 250.71C749.234 247.484 751.349 244.726 754.362 243.506Z"/><path fill="#08262B" d="M707.273 234.476C711.975 233.475 716.619 236.395 717.756 241.066C718.892 245.736 716.108 250.464 711.472 251.735C708.352 252.591 705.013 251.682 702.756 249.364C700.499 247.045 699.681 243.683 700.62 240.587C701.56 237.49 704.108 235.149 707.273 234.476Z"/><path fill="#08262B" d="M809.782 145.796C828.192 150.171 802.016 175.352 796.065 180.816C791.705 180.611 793.553 181.314 790.199 178.982C786.454 168.976 802.566 151.822 809.782 145.796Z"/><path fill="#08262B" d="M739.911 123.423C741.461 123.622 744.532 123.702 745.543 124.631C754.411 132.785 748.549 154.607 743.703 162.462C727.771 162.336 735.961 131.789 739.911 123.423Z"/><path fill="#08262B" d="M821.567 308.405C830.868 308.744 847.056 317.696 851.31 326.188C853.015 329.592 851.223 332.949 849.773 335.993C841.08 334.642 825.382 325.044 820.923 317.289C819.171 314.241 820.464 311.349 821.567 308.405Z"/><path fill="#08262B" d="M781.277 346.499C786.357 348.929 789.543 351.81 792.51 356.591C797.795 365.111 805.128 373.41 798.301 382.604C787.324 379.509 779.674 364.789 777.996 354.061C777.431 350.451 779.057 348.986 781.277 346.499Z"/><path fill="#08262B" d="M675.379 133.457C685.966 135.593 698.297 159.574 691.931 169.942C678.443 168.022 670.117 143.698 675.379 133.457Z"/><path fill="#08262B" d="M600.217 235.109C608.687 235.788 631.321 236.58 633.428 246.413C632.083 249.95 631.821 249.821 628.893 252.05C620.301 251.903 599.9 248.923 596.263 240.548C597.287 236.926 596.988 238.041 600.217 235.109Z"/><path fill="#08262B" d="M667.762 337.624C670.615 337.964 669.814 337.836 672.544 338.919C679.058 348.02 663.353 363.18 656.904 369.602C653.452 369.918 653.665 370.049 650.685 368.332C645.691 358.706 660.937 343.554 667.762 337.624Z"/><path fill="#08262B" d="M723.284 357.447C736.7 360.627 729.808 388.326 724.693 396.654C710.301 395.184 718.099 365.468 723.284 357.447Z"/><path fill="#08262B" d="M623.052 174.563C633.966 175.193 654.658 186.714 650.836 200.46C640.952 200.493 617.867 188.034 623.052 174.563Z"/><path fill="#08262B" d="M847.75 194.062C852.16 193.33 852.255 193.702 854.905 195.56C859.658 206.341 838.154 213.758 829.996 217.255C827.556 217.498 825.996 216.706 823.668 215.903C822.103 213.679 822.544 214.931 822.932 211.887C827.854 204.628 839.887 198.598 847.75 194.062Z"/><path fill="#08262B" d="M839.22 254.203C846.764 253.727 868.141 252.467 871.403 260.333C870.064 264.144 870.205 263.145 866.738 266.199C859.786 266.678 834.574 268.142 833.314 258.829C835.061 255.768 836.023 255.66 839.22 254.203Z"/><path fill="#08262B" d="M631.926 295.239C635.763 295.498 636.996 295.636 639.504 297.835L639.356 300.257C634.257 307.537 622.423 311.9 614.254 314.779C610.852 314.949 609.305 315.093 606.548 313.301C603.539 304.007 624.77 296.445 631.926 295.239Z"/><path fill="#A8A5A0" fill-opacity="0.015686275" d="M466.191 696.107C471.2 680.557 467.581 655.335 472.255 649.115L473.623 649.795C478.519 660.097 474.019 676.098 477.012 689.385C473.605 693.011 473.283 697.539 470.608 699.352C467.808 698.397 468.01 698.466 466.191 696.107Z"/></g></svg>