<?xml version="1.0" encoding="utf-8" ?><svg xmlns="http://www.w3.org/2000/svg" xmlns:xlink="http://www.w3.org/1999/xlink" width="706" height="617" viewBox="0 0 706 617"><clipPath id="cl_12"><rect width="706" height="617"/></clipPath><g clip-path="url(#cl_12)"><path fill="#0C0B19" transform="translate(0 -707)" d="M540.889 954.459C548.746 954.299 556.771 954.217 564.62 954.606C572.427 954.992 582.192 956.935 587.327 963.45C599.938 979.449 594.395 1175.65 592.585 1209.46C597.488 1209.13 606.888 1207.98 610.91 1210.4C615.71 1213.3 614.425 1218.26 611.344 1221.8C607.593 1223.58 604.415 1223.68 600.252 1223.74L312.465 1225.2L229.338 1225.38C216.185 1225.37 201.394 1225.79 188.341 1224.6C184.432 1224.24 183.476 1223.03 181.608 1220.37C180.803 1208.45 193.81 1210.59 201.974 1210.59C199.598 1191.09 194.405 1127.19 206.531 1109.59C215.557 1100.31 272.382 1099.08 277.266 1110.47C286.992 1133.16 285.751 1187.95 282.379 1211.47L304.116 1211.78C303.937 1200.6 303.586 1189.42 303.063 1178.25C301.856 1152.45 296.809 1028.97 309.452 1014.66C314.368 1009.09 324.608 1008.03 331.602 1007.79C344.033 1007.38 369.757 1004.98 379.167 1014.8C393.342 1029.6 386.349 1182.83 385.637 1211L408.535 1210.43L407.548 1193.22C406.407 1172.81 401.002 1083 413.134 1070.72C421.93 1061.81 444.549 1063.56 456.383 1063.65C464.604 1063.71 476.708 1064.56 482.536 1071.07C496.209 1086.34 490.135 1185.44 489.46 1209.44C496.395 1209.93 504.995 1209.9 512.068 1210.06C512.119 1142.55 504.187 1074.69 509.766 1006.71C512.343 975.31 502.35 958.966 540.889 954.459Z"/><path fill="#FDB748" transform="translate(0 -707)" d="M533.378 970.447C541.641 969.563 570.763 967.184 574.51 972.147C580.316 979.84 580.787 1038.29 581.022 1047.42L581.512 1070.79C581.856 1116.87 580.665 1162.96 577.94 1208.96C568.654 1208.97 535.599 1209.72 527.678 1208.55C525.846 1206.26 526.289 1204.11 526.291 1201.06C523.116 1136.89 521.133 1073.71 524.207 1009.44C524.219 1000.65 524.272 980.335 527.697 973.024C530.881 970.366 529.097 971.277 533.378 970.447Z"/><path fill="#FDB748" transform="translate(0 -707)" d="M329.944 1022.24C339.574 1021.52 352.703 1020.92 362.139 1022.41C364.019 1022.71 368.529 1024.29 368.844 1025.86C375.146 1057.35 375.778 1186.76 370.409 1210.14C367.259 1211.54 364.125 1211.13 360.5 1211.16L319.076 1211.47C316.107 1159.67 313.872 1108.41 316.931 1056.55C317.431 1048.09 317.302 1032.46 320.279 1025.31C323.115 1022.83 326.109 1022.85 329.944 1022.24Z"/><path fill="#FDB748" transform="translate(0 -707)" d="M435.8 1078.4C450.309 1077.76 458.311 1077.58 472.548 1079.76C478.85 1114.32 476.564 1173.92 474.719 1209.65L459.055 1209.93C446.951 1210.07 434.849 1210.31 422.749 1210.65C421.567 1190.75 415.648 1094.65 424.121 1080.88C427.905 1078.54 431.279 1078.76 435.8 1078.4Z"/><path fill="#FDB748" transform="translate(0 -707)" d="M230.353 1117.34C237.091 1116.65 263.013 1115.88 264.894 1119.42C272.633 1133.96 269.093 1197.35 267.949 1211.66L251.75 1211.7C239.962 1211.73 227.944 1211.49 216.14 1211.35C214.935 1196.91 209.765 1131.15 217.445 1120.68C221.462 1118.09 225.523 1118.03 230.353 1117.34Z"/><path fill="#0C0B19" transform="translate(0 -707)" d="M574.414 822.453C579.361 822.284 584.082 822.113 588.329 825.061C591.421 827.208 592.305 829.523 592.865 833.087C594.949 846.363 587.557 907.586 580.629 916.668C578.293 919.731 575.269 921.6 571.401 921.862C563.302 922.41 554.095 911.168 549.03 905.793C533.108 922.225 515.737 937.45 499.705 954.787C483.831 970.876 468.397 987.426 452.056 1003.02C430.861 1023.25 411.812 1001.85 394.6 989.072C377.924 976.693 361.809 962.01 344.738 950.7L343.527 949.905C336.235 956.653 327.65 966.061 320.362 973.356C303.759 989.821 287.283 1006.41 270.932 1023.13C259.766 1034.58 245.455 1050.75 232.474 1059.92C228.701 1062.58 222.753 1061.1 218.63 1059.83C183.012 1034.78 197.432 1027.7 221.763 1003.28L256.662 968.361C272.442 952.52 288.305 936.762 304.251 921.088C314.34 911.213 333.899 886.294 349.642 894.742C378.676 910.322 402.959 935.892 430.382 954.156C444.648 941.865 460.185 925.299 473.36 911.609C486.064 898.406 499.936 884.832 512.26 871.471C507.53 864.365 496.305 857.005 495.37 848.365C495.018 845.117 496.028 842.109 498.068 839.612C506.61 829.156 558.398 824.484 574.414 822.453Z"/><path fill="#FC7F60" transform="translate(0 -707)" d="M573.5 837.339C577.367 836.897 577.547 836.166 580.16 837.769C580.489 844.918 572.739 896.233 571.39 906.6C565.495 901.355 558.528 892.116 551.424 888.891C548.89 887.741 547.336 887.849 544.877 889.189C537.679 893.114 529.973 903.682 524.146 909.746C510.145 924.315 445.826 994.157 434.749 997.225C432.275 997.911 430.73 997.669 428.455 996.581C421.719 993.362 415.287 987.561 409.305 983.027C397.028 973.774 384.89 964.338 372.895 954.722C364.685 948.183 352.537 937.97 343.716 932.976L342.47 932.281C327.305 944.19 232.972 1045.39 225.98 1047.89L223.525 1046.3C219.341 1042.33 215.389 1038.16 211.391 1034.02C236.801 1006.54 264.304 980.419 290.794 953.973C302.184 942.601 325.292 916.744 337.622 909.321C351.272 901.103 414.612 968.272 431.93 971.196C434.422 971.617 437.461 968.651 439.196 967.157C454.876 953.648 471.006 934.519 485.702 919.341C498.478 906.146 516.385 890.07 527.584 875.96C529.052 874.11 529.773 872.726 529.61 870.254C529.147 863.247 515.542 853.088 510.704 847.813C531.542 843.778 552.48 840.285 573.5 837.339Z"/></g></svg>