<?xml version="1.0" encoding="utf-8" ?><svg xmlns="http://www.w3.org/2000/svg" xmlns:xlink="http://www.w3.org/1999/xlink" width="723" height="763" viewBox="0 0 723 763"><clipPath id="cl_13"><rect width="723" height="763"/></clipPath><g clip-path="url(#cl_13)"><path fill="#0C0B19" transform="translate(-1325 0)" d="M1596.52 188.345C1676.15 182.659 1746.62 228.864 1769.74 306.25C1787.23 364.778 1777.71 401.257 1750.61 453.639C1761.11 460.948 1777.47 476.12 1788.16 485.079C1810.05 503.209 1830.23 520.229 1850.9 539.881C1880.33 567.854 1857.39 613.305 1819.84 612.178C1796.32 611.471 1772.35 580.653 1757.25 563.604C1738.28 541.905 1721.37 520.692 1703.17 498.519C1681.61 511.916 1662.53 520.105 1637.24 524.372C1592.72 531.872 1547.03 521.446 1510.17 495.37C1397.87 414.399 1423.44 248.984 1549.22 199.805C1565.73 193.351 1579.27 190.884 1596.52 188.345Z"/><path fill="#FDB748" transform="translate(-1325 0)" d="M1757.72 404.032C1732.85 483.733 1649.54 529.626 1568.88 508.053C1488.23 486.48 1438.95 405.124 1457.19 323.648C1475.42 242.173 1554.69 189.59 1636.84 204.463C1719 219.336 1774.8 296.369 1763.31 379.067C1766.06 386.775 1767.88 399.37 1760.47 404.985L1757.72 404.032Z"/><path fill="#120D17" transform="translate(-1325 0)" d="M1763.31 379.067C1766.06 386.775 1767.88 399.37 1760.47 404.985L1757.72 404.032C1760.27 395.878 1762.14 387.528 1763.31 379.067Z"/><path fill="#0C0B19" transform="translate(-1325 0)" d="M1534.72 252.793C1589.66 213.918 1665.28 224.025 1708.08 275.962C1750.88 327.899 1746.35 404.063 1697.69 450.558C1649.04 497.054 1572.75 498.121 1522.81 453.006C1472.87 407.891 1466.2 331.884 1507.53 278.769C1515.27 268.824 1524.43 260.072 1534.72 252.793Z"/><path fill="#74BBF8" transform="translate(-1325 0)" d="M1598.37 244.25C1660.86 238.426 1716.31 284.206 1722.41 346.668C1728.52 409.131 1682.99 464.78 1620.55 471.165C1557.72 477.592 1501.64 431.707 1495.49 368.847C1489.35 305.986 1535.49 250.111 1598.37 244.25Z"/><path fill="#0C0B19" transform="translate(-1325 0)" d="M1605.56 270.343C1620.28 269.241 1635.03 272.021 1648.34 278.406C1658.44 283.28 1687.95 302.318 1680.46 315.745L1677.79 316.47C1668.63 314.665 1666.26 310.326 1659.7 303.263C1643.24 289.287 1623.33 280.957 1601.15 285.596C1597.68 286.208 1582 292.1 1579.33 290.132C1559.87 275.777 1600.73 270.976 1605.56 270.343Z"/><path fill="#FDB748" transform="translate(-1325 0)" d="M1741.86 464.757C1760.99 480.316 1779.99 496.035 1798.85 511.91C1812.32 523.2 1845.13 547.96 1849.88 565.635C1853.69 579.815 1839.5 595.588 1824.55 598.713C1823.08 598.733 1821.66 598.655 1820.21 598.443C1792.35 594.371 1734.49 514.874 1715.84 490.144C1726.04 481.717 1733.18 474.7 1741.86 464.757Z"/></g></svg>