<?xml version="1.0" encoding="utf-8" ?><svg xmlns="http://www.w3.org/2000/svg" xmlns:xlink="http://www.w3.org/1999/xlink" width="682" height="763" viewBox="0 0 682 763"><clipPath id="cl_15"><rect width="682" height="763"/></clipPath><g clip-path="url(#cl_15)"><path fill="#0C0B19" d="M390.019 205.191C417.641 201.079 450.288 235.347 471.127 252.205C471.613 243.008 470.828 231.599 478.288 224.553C488.595 211.861 533.883 211.355 542.49 224.974C554.086 243.321 551.501 300.073 550.193 320.655C572.629 346.28 641.43 386.883 593.426 422.719C583.483 430.142 566.428 427.412 555.208 424.298C557.992 471.327 560.963 527.04 550.278 572.886C541.521 598.218 498.736 596.403 477.596 596.276C466.55 596.209 437.619 598.504 436.8 585.812C434.55 550.941 443.338 505.664 431.333 471.875C421.789 452.61 384.066 459.98 367.616 464.922C345.584 489.116 368.462 580.23 356.839 591.025C348.697 598.587 324.107 596.743 313.037 596.665C295.589 596.542 264.948 597.245 252.012 583.321C247.721 578.703 244.808 572.991 243.059 566.965C239.696 555.38 239.236 542.29 238.495 530.282C236.288 494.53 237.546 459.323 238.287 423.574C228.247 426.409 218.639 428.618 208.184 425.508C186.24 419.944 174.901 392.047 190.876 373.799C237.7 320.313 296.145 274.388 350.701 228.89C362.091 219.391 375.62 207.565 390.019 205.191Z"/><path fill="#74BBF8" d="M393.432 218.133C422.188 216.79 463.404 277.133 480.187 275.486C492.093 274.317 481.029 244.832 488.875 235.15C492.244 230.992 498.789 229.9 503.784 229.658C510.77 229.318 526.701 228.66 531.465 234.419C538.854 243.351 536.69 311.832 536.831 326.973C537.003 327.196 537.176 327.419 537.349 327.642C553.303 345.671 573.055 360.089 588.848 378.511C601.737 393.545 595.759 413.334 574.903 412.901C566.057 412.717 558.748 409.642 550.061 408.335C541.732 407.081 539.677 412.604 539.874 419.696C542.153 462.724 545.191 506.062 540.764 549.059C540.222 555.603 537.674 570.768 531.767 574.581C512.923 586.747 471.082 583.239 450.104 581.814C451.383 552.331 456.619 476.834 437.571 455.315C419.074 442.867 366.953 440.672 355.061 457.511C338.171 481.428 344.557 551.966 345.757 581.99C326.416 583.79 280.384 586.381 264.874 575.755C246.578 563.219 250.881 473.785 251.961 450.949C252.415 441.361 255.665 421.266 252.665 412.776C249.164 402.871 220.908 416.739 206.909 410.704C203.368 409.178 200.858 406.635 199.512 403.013C197.651 398.007 197.466 391.909 199.844 387.078C212.931 360.49 347.084 247.42 377.331 226.636C382.568 223.037 387.45 220.307 393.432 218.133Z"/></g></svg>