<?xml version="1.0" encoding="utf-8" ?><svg xmlns="http://www.w3.org/2000/svg" xmlns:xlink="http://www.w3.org/1999/xlink" width="697" height="763" viewBox="0 0 697 763"><clipPath id="cl_14"><rect width="697" height="763"/></clipPath><g clip-path="url(#cl_14)"><path fill="#0C0B19" transform="translate(-652 0)" d="M1014.12 189.436C1130.18 183.887 1228.85 273.279 1234.76 389.321C1240.67 505.363 1151.58 604.313 1035.56 610.579C919.026 616.872 819.548 527.31 813.615 410.76C807.682 294.209 897.551 195.008 1014.12 189.436Z"/><path fill="#FEF3E1" transform="translate(-652 0)" d="M1017.2 313.217C1065.39 309.537 1107.45 345.623 1111.13 393.819C1114.82 442.016 1078.73 484.074 1030.54 487.761C982.336 491.448 940.274 455.361 936.59 407.16C932.906 358.959 968.996 316.898 1017.2 313.217Z"/><path fill="#61B891" transform="translate(-652 0)" d="M1002.66 206.399C1005.39 205.981 1013.05 205.835 1016.16 205.688C1015.93 236.854 1016.22 268.022 1017.01 299.179C991.948 301.836 974.08 307.116 954.895 324.577C934.008 343.588 923.356 365.855 921.8 393.87C896.882 392.494 868.843 392.568 843.75 392.313L826.741 392.362C827.34 349.125 842.766 307.406 870.437 274.18C903.592 234.088 951.215 211.236 1002.66 206.399Z"/><path fill="#FDB748" transform="translate(-652 0)" d="M1205.13 327.131C1205.34 327.369 1205.55 327.608 1205.76 327.847C1220.2 362.171 1226.72 401.098 1219.31 437.926C1208.08 493.728 1180.18 533.761 1133.52 565.397L1119.5 542.535C1107.71 522.672 1095.6 503.244 1083.82 483.19C1123.27 454.231 1135.03 411.707 1120.38 365.73C1148.26 352.625 1177.05 339.918 1205.13 327.131Z"/><path fill="#74BBF8" transform="translate(-652 0)" d="M967.729 485.614C1001.29 505.802 1035.61 507.153 1070.96 491.092C1085.78 516.297 1105.26 548.675 1121.32 572.614C1103.18 581.883 1091.12 586.133 1071.25 590.805C1010.43 603.834 963.185 590.557 911.416 559.887L967.729 485.614Z"/><path fill="#FC7F60" transform="translate(-652 0)" d="M1030.91 205.652C1052.7 206.858 1071.96 209.958 1092.65 217.295C1139.46 234.323 1177.74 269.017 1199.27 313.937L1174.72 325.273C1154.39 334.186 1134.13 343.231 1113.92 352.408C1111.43 348.373 1108.79 344.433 1106.01 340.596C1086.5 313.831 1062.89 303.667 1031.3 298.708L1030.91 205.652Z"/><path fill="#A58BD9" transform="translate(-652 0)" d="M827.07 406.324C858.672 407.102 890.282 407.519 921.894 407.574C924.563 437.163 934.395 456.421 956.036 476.676L924.396 518.596L899.694 551.323C898.628 550.492 897.589 549.629 896.577 548.733C852.871 510.665 831.207 463.95 827.07 406.324Z"/></g></svg>