<?xml version="1.0" encoding="utf-8" ?><svg xmlns="http://www.w3.org/2000/svg" xmlns:xlink="http://www.w3.org/1999/xlink" width="618" height="724" viewBox="0 0 618 724"><clipPath id="cl_f"><rect width="618" height="724"/></clipPath><g clip-path="url(#cl_f)"><path fill="#0C0B19" transform="translate(-754 -1324)" d="M971.411 1435.46C1001.88 1433.96 1048.14 1433.61 1078.52 1439.81C1080.87 1440.29 1086.64 1444.26 1088.9 1446.46C1119.4 1476.08 1153.11 1508.6 1179.48 1541.7C1181.48 1544.21 1182.11 1550.93 1182.33 1554.1C1187.57 1629.7 1188.2 1704.77 1183.01 1780.42C1180.83 1796.15 1183.51 1816.22 1179.34 1831.31C1170.88 1861.88 1137.93 1859.94 1115.43 1860.58L1080.25 1861.79C1030.06 1862.52 981.819 1864.01 931.5 1860.86C898.826 1858.81 869.583 1858.23 866.969 1816.56C860.954 1720.25 860.275 1623.68 864.937 1527.3C869.034 1450.91 862.607 1437.1 951.321 1436.2C957.449 1436.13 965.102 1435.67 971.411 1435.46Z"/><path fill="#FEF3E1" transform="translate(-754 -1324)" d="M967.419 1449.5C999.921 1447.45 1036.54 1449.35 1069.07 1451.33L1068.85 1462.07C1067.16 1559.47 1074.07 1555.94 1167.94 1553.75C1170.36 1585.53 1172.01 1617.35 1172.89 1649.21C1173.57 1684.65 1171.85 1719.82 1170.18 1754.7C1165.38 1855.14 1174.66 1843.76 1080.3 1847.71C1050.03 1848.91 909.147 1852.43 892.469 1840.07C886.312 1835.5 882.564 1829.07 881.437 1821.52C879.529 1808.74 880.042 1794.77 879.469 1781.8C878.003 1751.55 876.853 1721.27 876.02 1690.99C875.398 1657.65 874.253 1478.25 887.321 1462.29C897.588 1449.76 950.261 1450.49 967.419 1449.5Z"/><path fill="#0C0B19" transform="translate(-754 -1324)" d="M1072.73 1604.13C1086.53 1604.68 1098.66 1615.14 1098.56 1629.41C1098.49 1633.82 1097.26 1638.12 1095 1641.91C1091.51 1647.74 1086.08 1653.77 1081.57 1658.87C1065.68 1676.82 1049.83 1694.77 1033.26 1712.11C1027.41 1718.24 1016.08 1728.87 1007.22 1728.68C995.346 1728.41 986.095 1717.09 978.279 1709.15C964.572 1695.15 936.791 1674.91 955.95 1653.8C960.615 1648.68 967.217 1645.76 974.142 1645.74C987.843 1645.68 997.844 1656.94 1006.51 1666.01C1016.54 1654.98 1026.5 1643.75 1036.68 1632.87C1047.41 1621.4 1056.8 1607.84 1072.73 1604.13Z"/><path fill="#61B891" transform="translate(-754 -1324)" d="M1072.21 1618.78C1074.7 1619 1077.03 1619.41 1079.16 1620.79C1081.44 1622.26 1083.28 1624.48 1083.68 1627.24C1084.24 1631.13 1082.55 1633.96 1080.44 1637.02C1072.52 1648.53 1016.75 1713.02 1007.2 1713.93C1000.67 1714.55 983.621 1694.32 978.929 1689.5L977.502 1688.1C972.739 1683.41 963.862 1676.48 964.578 1669.05C964.899 1665.71 967.608 1662.27 970.477 1660.63C982.508 1653.74 994.583 1680.29 1005.25 1682.44C1015.51 1684.52 1057.06 1627.23 1072.21 1618.78Z"/><path fill="#FEF3E1" transform="translate(-754 -1324)" d="M1083.31 1461.58C1092.77 1467.12 1150.14 1528 1159.83 1539.63C1147.36 1539.85 1134.89 1540 1122.41 1540.08C1086.89 1540.16 1082.86 1527.8 1083.08 1494.54C1083.15 1483.77 1083.2 1472.38 1083.31 1461.58Z"/></g></svg>