<?xml version="1.0" encoding="utf-8" ?><svg xmlns="http://www.w3.org/2000/svg" xmlns:xlink="http://www.w3.org/1999/xlink" width="326" height="349" viewBox="0 0 326 349"><clipPath id="cl_a"><rect x="0.00054931641" y="-0.00030517578" width="326.45746" height="348.86151"/></clipPath><g clip-path="url(#cl_a)"><path fill="#0E131E" transform="matrix(0.640113 0 0 0.640113 -901.278 -478.805)" d="M1757.12 807.2C1782.01 806.137 1784.51 826.402 1785.28 846.01C1801.17 848.449 1825.05 847.706 1835.56 861.139C1853.67 884.29 1850.28 939.62 1850.34 967.007L1850.07 1074.92C1880.23 1097 1898.56 1127.59 1892.1 1166.1C1887.91 1189.69 1874.54 1210.66 1854.92 1224.42C1836.13 1237.59 1812.84 1242.64 1790.28 1238.46C1762.94 1233.61 1746.54 1220.33 1731.09 1198.24C1714.1 1197.45 1691.72 1198.57 1674.47 1199.01C1649.9 1199.65 1625.33 1200 1600.75 1200.05C1571.35 1200.22 1504.55 1205.33 1484.43 1185.23C1478.69 1179.41 1474.61 1172.16 1472.6 1164.24C1468.57 1148.62 1470.37 1121.45 1469.63 1104.51C1468.82 1085.93 1468.02 1066.58 1467.69 1047.99C1467.32 1017.73 1467.34 987.463 1467.75 957.203C1468 938.665 1469.01 920.799 1470.05 902.479C1472.52 858.47 1493.27 848.125 1534.54 848.384C1535.59 837.927 1536.1 827.346 1542.04 818.234C1548.94 807.65 1561.37 801.71 1572.18 810.82C1583.23 820.126 1584.21 832.397 1585.72 845.713L1734.94 845.213C1735.79 827.84 1736.97 811.446 1757.12 807.2Z"/><path fill="#7AC3FA" transform="matrix(0.640113 0 0 0.640113 -901.278 -478.805)" d="M1478.98 943.644C1523.9 945.226 1569.03 944.387 1613.96 943.39C1689.39 941.716 1763.64 939.999 1839.1 941.369C1839.16 947.955 1839.4 953.536 1839.84 960.109C1840.29 954.946 1840.61 949.771 1840.78 944.592C1842.26 948.879 1840.51 958.138 1842.02 960.365L1843.05 960.459C1843.64 967.315 1841.48 1069.19 1840.71 1070.61C1839.36 1065 1841.12 1047.32 1839.83 1038.75C1839.01 1048.68 1839.31 1060.72 1839.32 1070.83C1818.56 1062.47 1795.43 1062.14 1774.45 1069.91C1752.39 1078.38 1734.63 1095.32 1725.13 1116.95C1714.58 1140.89 1715.37 1162.95 1724.54 1186.91C1665.15 1187.64 1605.49 1190.88 1546.11 1189.44C1521.25 1188.39 1483.53 1189.42 1482.1 1155.37C1479.18 1085.57 1476.76 1013.34 1478.98 943.644Z"/><path fill="#10121A" transform="matrix(0.640113 0 0 0.640113 -901.278 -478.805)" d="M1839.84 960.109C1840.29 954.946 1840.61 949.771 1840.78 944.592C1842.26 948.879 1840.51 958.138 1842.02 960.365L1843.05 960.459C1843.64 967.315 1841.48 1069.19 1840.71 1070.61C1839.36 1065 1841.12 1047.32 1839.83 1038.75C1839.23 1032.83 1839.66 1018.49 1839.66 1012.04C1839.64 994.73 1839.7 977.419 1839.84 960.109Z"/><path fill="#0E131E" transform="matrix(0.640113 0 0 0.640113 -901.278 -478.805)" d="M1531.51 1105.29C1541.24 1104.58 1560.7 1103.85 1569.53 1106.78C1576.17 1112.35 1575.95 1146.7 1570.23 1153.84C1568.67 1155.78 1565.22 1155.95 1562.9 1156.22C1553.64 1157.03 1529.32 1158.37 1521.87 1154.22C1515.99 1150.94 1517.09 1113.89 1520.89 1108.02C1524.12 1105.86 1527.62 1105.8 1531.51 1105.29Z"/><path fill="#7AC3FA" transform="matrix(0.640113 0 0 0.640113 -901.278 -478.805)" d="M1539.48 1113.45C1547.7 1113.24 1556.75 1113.79 1565.03 1114.12C1565.11 1125.06 1564.91 1136.25 1564.83 1147.2L1555.18 1147.62C1545.78 1147.64 1536.38 1147.54 1526.98 1147.32C1526.59 1136.42 1526.77 1125.03 1526.78 1114.09L1539.48 1113.45Z"/><path fill="#0E131E" transform="matrix(0.640113 0 0 0.640113 -901.278 -478.805)" d="M1535.51 1037.4C1541.83 1036.88 1572.19 1034.88 1572.52 1043.05C1573.02 1055.69 1577.95 1073.39 1570.86 1084.75C1568.44 1088.63 1562.64 1088.41 1558.51 1088.77C1547.88 1089.09 1531.55 1090.19 1522 1086.69C1515.9 1082.13 1516.63 1047.88 1520.58 1040.62C1522 1038.01 1532.45 1037.64 1535.51 1037.4Z"/><path fill="#7AC3FA" transform="matrix(0.640113 0 0 0.640113 -901.278 -478.805)" d="M1526.61 1046.2C1539.08 1045.63 1552.63 1045.83 1565.1 1046.28C1565.23 1057.3 1565.04 1068.75 1564.99 1079.8C1552.3 1080.11 1539.6 1080.1 1526.91 1079.77C1526.59 1068.86 1526.69 1057.18 1526.61 1046.2Z"/><path fill="#0E131E" transform="matrix(0.640113 0 0 0.640113 -901.278 -478.805)" d="M1686.55 1037.38C1695.13 1037.14 1711.75 1036.28 1719.31 1038.41C1729.19 1041.19 1726.08 1078.98 1722.93 1085.92C1719.81 1088.38 1716.08 1088.37 1712.06 1088.88C1702.13 1089.04 1682.69 1090.24 1674.35 1087.08C1667.83 1084.6 1668.44 1046.61 1672.46 1040.62C1674.3 1037.89 1683.47 1037.64 1686.55 1037.38Z"/><path fill="#7AC3FA" transform="matrix(0.640113 0 0 0.640113 -901.278 -478.805)" d="M1678.14 1046.18C1691.14 1045.77 1704.14 1045.83 1717.13 1046.37C1717.14 1057.52 1716.99 1068.66 1716.68 1079.8C1703.9 1080.21 1691.12 1080.18 1678.35 1079.74L1678.14 1046.18Z"/><path fill="#0E131E" transform="matrix(0.640113 0 0 0.640113 -901.278 -478.805)" d="M1687.68 969.393C1695.99 969.186 1713.53 968.236 1720.44 970.882C1728.97 974.153 1726.3 1011.52 1722.67 1018.22C1719.19 1020.54 1715.89 1020.43 1711.64 1020.89C1704.12 1020.95 1675.47 1022.38 1672.3 1016.47C1668.37 1009.12 1668.92 982.165 1671.24 974.069C1675.05 969.569 1681.75 969.906 1687.68 969.393Z"/><path fill="#7AC3FA" transform="matrix(0.640113 0 0 0.640113 -901.278 -478.805)" d="M1678.19 978.33C1691.12 977.888 1704.05 977.911 1716.97 978.398C1717.11 989.568 1717.06 1000.74 1716.82 1011.91C1704.08 1012 1691.24 1011.51 1678.5 1011.15C1678.08 1000.51 1678.24 989.035 1678.19 978.33Z"/><path fill="#0E131E" transform="matrix(0.640113 0 0 0.640113 -901.278 -478.805)" d="M1607.69 1105.28C1616.71 1104.58 1638.35 1103.9 1644.8 1106.74C1651.26 1109.59 1651.77 1147.61 1646.03 1153.64C1643.38 1156.42 1640.61 1156.04 1637.49 1156.52C1627.48 1157.07 1606.89 1157.98 1598.01 1154.54C1591.95 1148.15 1591.08 1115.48 1597.86 1108.28C1600.46 1105.52 1604.17 1105.62 1607.69 1105.28Z"/><path fill="#7AC3FA" transform="matrix(0.640113 0 0 0.640113 -901.278 -478.805)" d="M1617.86 1113.46C1624.98 1113.27 1633.59 1113.87 1640.84 1114.19C1640.9 1125.38 1641.09 1136.17 1640.39 1147.34C1636.61 1147.62 1632.05 1147.64 1628.2 1147.75C1619.46 1147.78 1611.65 1147.45 1602.91 1147C1602.57 1136.03 1602.56 1125.05 1602.88 1114.08L1617.86 1113.46Z"/><path fill="#0E131E" transform="matrix(0.640113 0 0 0.640113 -901.278 -478.805)" d="M1761.04 969.337C1765.39 969.004 1770.95 969.087 1775.07 969.042C1798.49 968.339 1802.89 970.054 1801.52 994.772C1800.55 1012.16 1805.34 1019.24 1786.25 1020.57C1777.08 1021.26 1758.14 1021.62 1749.97 1018.52C1743.58 1012.93 1744.24 981.067 1748.17 972.982C1749.47 970.31 1758.1 969.682 1761.04 969.337Z"/><path fill="#7AC3FA" transform="matrix(0.640113 0 0 0.640113 -901.278 -478.805)" d="M1754.16 978.241C1766.45 977.813 1780.7 977.787 1792.88 978.582C1793.04 989.612 1792.88 1000.64 1792.4 1011.66C1779.73 1012.05 1767.05 1011.91 1754.39 1011.26C1754.01 1000.43 1754.17 989.109 1754.16 978.241Z"/><path fill="#0E131E" transform="matrix(0.640113 0 0 0.640113 -901.278 -478.805)" d="M1611.64 1037.4C1618.51 1036.89 1641.79 1036.23 1645.94 1039.81C1651.28 1044.4 1650.4 1080.36 1646.27 1086.31C1641.96 1088.41 1637.37 1088.36 1632.49 1088.77C1622.83 1089.06 1606.03 1090.1 1597.65 1086.45C1593.03 1081.22 1593.25 1066.01 1593.63 1059.11C1594.67 1040.16 1593.61 1038.67 1611.64 1037.4Z"/><path fill="#7AC3FA" transform="matrix(0.640113 0 0 0.640113 -901.278 -478.805)" d="M1603.09 1046.26C1615.96 1045.89 1627.93 1046.01 1640.82 1046.22C1640.94 1057.35 1640.81 1068.47 1640.43 1079.59C1627.75 1080.16 1615.52 1079.92 1602.84 1079.76C1602.57 1067.79 1602.39 1058.22 1603.09 1046.26Z"/><path fill="#0E131E" transform="matrix(0.640113 0 0 0.640113 -901.278 -478.805)" d="M1610.34 969.376C1620.34 968.709 1635.18 968.477 1644.81 970.951C1650.19 973.349 1649.92 991.155 1649.54 995.612C1647.86 1015.3 1653.04 1018.93 1632.61 1020.61C1624.02 1021.33 1605.94 1021.44 1598.15 1018.37C1591.74 1013.23 1592.03 980.425 1596.53 972.687C1598 970.155 1607.34 969.672 1610.34 969.376Z"/><path fill="#7AC3FA" transform="matrix(0.640113 0 0 0.640113 -901.278 -478.805)" d="M1602.23 978.16C1615.08 977.831 1627.94 977.866 1640.79 978.265C1640.85 989.493 1641 1000.28 1640.32 1011.51C1627.5 1011.84 1615.72 1011.71 1602.89 1011.44C1602.17 1000.83 1602.32 988.89 1602.23 978.16Z"/><path fill="#7AC3FA" transform="matrix(0.640113 0 0 0.640113 -901.278 -478.805)" d="M1633.33 856.537C1666.03 855.257 1702.61 856.043 1735.62 856.164C1735.47 868.731 1734.81 881.42 1743.76 891.52C1752.22 901.064 1766.36 901.746 1775.37 892.593C1784.72 883.092 1784.98 870.302 1785.15 857.902C1841.44 858.602 1836.64 883.538 1838.6 930.297C1786.24 929.488 1733.86 929.75 1681.5 931.08C1614.04 932.883 1546.56 933.582 1479.07 933.178C1479.44 915.278 1478.87 883.509 1491.6 870.588C1503.15 858.858 1520.12 859.045 1535.17 858.733C1535.2 870.564 1535.61 882.378 1544.08 891.746C1552.7 901.271 1566.9 901.676 1575.8 892.258C1585.09 882.42 1584.95 869.878 1584.92 857.249L1633.33 856.537Z"/><path fill="#FCB652" transform="matrix(0.640113 0 0 0.640113 -901.278 -478.805)" d="M1795.26 1076.6C1837.32 1070.94 1876 1100.49 1881.59 1142.57C1887.17 1184.65 1857.56 1223.27 1815.47 1228.79C1773.48 1234.3 1734.96 1204.77 1729.39 1162.79C1723.81 1120.81 1753.29 1082.24 1795.26 1076.6Z"/><path fill="#10121A" transform="matrix(0.640113 0 0 0.640113 -901.278 -478.805)" d="M1803.09 1097.46C1810.21 1099.22 1810.99 1102.64 1811.13 1109.69C1811.39 1122.62 1811.1 1136.12 1811.05 1149.02C1818.95 1156.33 1834.25 1163.24 1838.5 1171.6C1838.39 1175.65 1838.58 1174.24 1835.87 1178.06C1827.79 1175.7 1800.64 1160.67 1800.31 1151.83C1799.87 1140.33 1796.85 1106.18 1803.09 1097.46Z"/><path fill="#7AC3FA" transform="matrix(0.640113 0 0 0.640113 -901.278 -478.805)" d="M1555.78 817.987C1575.89 816.167 1574.51 838.56 1574.75 852.881C1574.97 865.47 1575.79 880.755 1563.63 887.559C1545.18 888.354 1545.08 868.326 1545.32 854.676C1545.54 841.884 1544.2 825.945 1555.78 817.987Z"/><path fill="#7AC3FA" transform="matrix(0.640113 0 0 0.640113 -901.278 -478.805)" d="M1755.28 818.122C1756.45 818.017 1760.71 817.603 1761.6 817.77C1774.11 820.102 1774.53 840.627 1774.63 850.125C1774.73 858.591 1774.85 864.602 1773.46 872.25C1772.05 880.022 1770.4 883.239 1764.37 887.395C1745.05 890.195 1745.62 866.818 1746.17 853.735C1746.69 841.016 1744.42 826.793 1755.28 818.122Z"/></g></svg>