<?xml version="1.0" encoding="utf-8" ?><svg xmlns="http://www.w3.org/2000/svg" xmlns:xlink="http://www.w3.org/1999/xlink" width="333" height="409" viewBox="0 0 333 409"><clipPath id="cl_c"><rect x="0.00025177002" y="0.0025024414" width="333.49878" height="409.0321"/></clipPath><g clip-path="url(#cl_c)"><path fill="#0E131E" transform="matrix(0.640113 0 0 0.640113 -71.6924 -455.758)" d="M362.658 813.081C382.97 811.087 397.311 827.612 413.778 837.708C441.932 854.97 473.354 867.083 505.838 873.428C527.844 877.726 547.276 880.255 550.775 907.113C557.27 961.725 552.111 1030.34 533.77 1081.68C526.116 1102.97 515.58 1123.11 502.456 1141.54C475.4 1180.2 419.813 1227.17 372.067 1235.43C354.747 1236.74 332.224 1225.55 317.722 1217.32C258.286 1183.84 214.636 1128.06 196.427 1062.32C184.991 1019.81 180.329 975.767 182.616 931.809C184.938 884.339 191.776 878.987 236.591 872.628C263.463 868.815 298.491 851.951 322.147 838.232C335.292 830.61 347.008 816.896 362.658 813.081Z"/><path fill="#6DC28E" transform="matrix(0.640113 0 0 0.640113 -71.6924 -455.758)" d="M366.41 823.126C374.971 824.045 379.873 828.06 386.402 833C422.624 860.449 464.795 878.144 509.489 885.998C527.523 889.167 538.159 890.957 540.158 912.162C545.278 966.47 540.97 1030.73 521.829 1082C514.59 1100.94 504.856 1118.83 492.883 1135.19C466.334 1171.81 415.093 1217.29 369.241 1224.78C357.096 1224.69 342.831 1218.04 332.287 1212.6C275.798 1183.41 228.972 1130.22 209.994 1069.29C196.94 1027.38 192.031 976.464 194.422 932.552C195.053 920.956 194.858 908.224 200.266 897.508C205.94 886.265 227.22 886.296 239.647 883.617C274.079 876.195 305.159 862.579 334.859 843.771C345.417 837.084 354.619 826.489 366.41 823.126Z"/><path fill="#0E131E" transform="matrix(0.640113 0 0 0.640113 -71.6924 -455.758)" d="M405.105 960.092C415.614 959.226 425.279 960.616 433.96 966.468C463.394 986.311 454.912 1022.79 436.932 1047.69C421.982 1068.39 394.834 1097.42 370.436 1106.94C364.349 1109.32 339.107 1088.72 332.742 1083.84C309.564 1064.92 283.722 1039.07 282.973 1007.01C282.392 982.105 301.61 960.039 327.392 961.785C345.476 963.01 356.754 972.024 368.207 984.932C379.842 970.951 387.033 964.67 405.105 960.092Z"/><path fill="#FB8060" transform="matrix(0.640113 0 0 0.640113 -71.6924 -455.758)" d="M408.579 971.342C434.217 971.899 447.054 992.281 439.692 1016.01C430.338 1046.15 395.593 1080.57 368.452 1095.56C354.123 1085.52 341.508 1076.79 328.484 1065.02C308.483 1046.11 282.208 1013.6 300.723 985.613C310.518 970.809 331.463 969.348 345.465 979.372C355.629 986.649 358.929 995.599 367.313 1002.14C368.201 1002.31 369.089 1002.49 369.977 1002.66C383.87 988.268 385.872 975.235 408.579 971.342Z"/></g></svg>