<?xml version="1.0" encoding="utf-8" ?><svg xmlns="http://www.w3.org/2000/svg" xmlns:xlink="http://www.w3.org/1999/xlink" width="705" height="584" viewBox="0 0 705 584"><clipPath id="sectors-consumer-discretionary-cl_23"><rect width="705" height="584"/></clipPath><g clip-path="url(#sectors-consumer-discretionary-cl_23)"><path fill="#0E0E10" transform="translate(-1222 -746)" d="M1558.41 796.466C1569.05 796.093 1577.3 800.018 1587.43 801.585C1591.47 802.211 1599.76 801.621 1604.2 801.602C1617.55 801.54 1630.41 806.643 1640.08 815.844C1660.5 835.113 1665.51 866.07 1666.51 892.701C1691.87 894.46 1715.83 903.251 1735.53 919.336C1747.69 917.295 1761.03 917.841 1773.12 920.074C1785.75 930.576 1823.08 965.594 1827.66 979.431C1826.2 991.657 1786.97 1029.18 1774.56 1031.51C1765.01 1029.7 1748.86 1011.44 1741.55 1004.08C1742.68 1013.99 1743.6 1023.92 1744.32 1033.86C1746.2 1035.34 1748.06 1036.84 1749.91 1038.35C1772.53 1056.9 1790.02 1086.57 1779.12 1116.38C1774.62 1128.68 1767.11 1137.28 1758.75 1147.15C1763.12 1179.2 1761.17 1188.91 1729.45 1199.86C1697.94 1210.73 1668.78 1208.86 1636.26 1206.79C1634.53 1217.94 1633.02 1229.13 1631.74 1240.34C1643.44 1246.54 1670.7 1265.07 1648.44 1277.38C1632.53 1286.16 1594.87 1284.64 1577.82 1279.66C1553.71 1266.37 1567.1 1221.71 1559.99 1204.57C1558.37 1203.79 1554.04 1203.08 1553.11 1204.58C1542.47 1219.23 1553.11 1266.09 1535.98 1277.15C1523.17 1285.43 1445.96 1291.81 1453.19 1260.69C1455.27 1251.77 1470.88 1244.17 1478.44 1240.74C1477.67 1229.1 1475.16 1213.02 1473.64 1201.11C1449 1199.03 1418.22 1202.29 1394.77 1193.54C1391.95 1192.49 1388.19 1187.04 1384.89 1185.08C1369.27 1175.8 1366.54 1174.63 1366.26 1156.92C1344.2 1146.13 1321.98 1133.37 1315.69 1107.59C1311.55 1090.63 1315.21 1072.11 1324.52 1057.46C1343.28 1027.91 1376.48 1013.04 1409.38 1005.31C1412.94 980.028 1419.36 913.937 1434.75 894.427C1441.74 885.575 1472.76 887.547 1485.03 887.614C1494.88 839.02 1503.3 803.205 1558.41 796.466Z"/><path fill="#A196E5" transform="translate(-1222 -746)" d="M1442.52 899.003C1456.22 898.448 1470.99 898.833 1484.8 898.97C1484.13 911.173 1471.04 941.258 1490.54 944.488C1510.92 947.864 1520.9 932.988 1508.21 914.404L1508.98 898.935C1538.11 898.968 1572.42 899.864 1601.26 901.896L1600.65 916.839C1594.34 925.437 1589.82 930.404 1596.43 941.228C1602.88 951.772 1629.45 948.146 1628.92 937.692C1628.27 925.077 1625.08 916.862 1626.16 902.119C1637.79 902.789 1649.86 902.948 1661.54 903.257C1665.83 920.997 1669.04 924.572 1682.67 935.76C1684.05 957.242 1687.69 980.391 1688.94 1002.06C1689.19 1006.45 1684.6 1009.41 1681.26 1012.75L1681.28 1014.57C1685.19 1016.8 1697.87 1021.26 1702.35 1022.71C1777.29 1047.02 1810.25 1132.8 1713.98 1157.11C1709.14 1158.33 1702.07 1159.7 1699.93 1164.94C1705.33 1168.96 1716.73 1164.6 1717.87 1171.5C1713.38 1179.98 1706.68 1181.13 1697.69 1181.02C1677.53 1180.82 1664.04 1160.99 1665.6 1142.01C1666.8 1127.46 1674.77 1118.22 1685.3 1109.3C1693.13 1104.73 1719.65 1092.92 1722.01 1085.25L1720.79 1083.87C1713.72 1082.54 1711.12 1084.69 1704.52 1087.74C1696.11 1081.15 1679.23 1067.53 1667.98 1069.37C1665.15 1071.63 1665.89 1070.24 1665.3 1073.44C1669.66 1079.18 1687.27 1088.14 1694.57 1092.6C1671.65 1104.29 1651.86 1122.64 1655.56 1151.11C1657.85 1170.08 1671.85 1185.55 1690.5 1189.72C1694.9 1190.69 1700.59 1190.2 1703.57 1192.55L1703.5 1194.89C1700.45 1198.28 1695.15 1198.95 1690.75 1198.75C1675.62 1198.03 1660.52 1197.59 1645.38 1197.15C1603.3 1195.89 1561.23 1194.33 1519.17 1192.48C1486.61 1191.17 1426.95 1191.26 1397.52 1185.89C1409.88 1181.38 1420.18 1177.66 1427.82 1165.94C1434.97 1154.98 1439.08 1139.22 1436.12 1126.41C1431.91 1108.18 1420.48 1099.14 1406.08 1089.63C1412.72 1046.53 1418.33 1003.06 1426.33 960.171C1428.96 946.085 1433.03 908.231 1442.52 899.003Z"/><path fill="#0E0E10" transform="translate(-1222 -746)" d="M1508.91 1039.64C1520.83 1041.09 1533.67 1051.99 1548.32 1050.92C1558.24 1050.2 1571.28 1039.28 1578.28 1041.81C1580.42 1044.99 1579.74 1043.18 1579.46 1047.73C1572.02 1052.42 1565.32 1056.11 1556.52 1057.56C1540.68 1060.17 1512.65 1059.24 1508.91 1039.64Z"/><path fill="#0E0E10" transform="translate(-1222 -746)" d="M1592.25 1014.5C1597.45 1012.47 1603.31 1015.05 1605.32 1020.25C1607.33 1025.45 1604.74 1031.3 1599.53 1033.3C1594.34 1035.29 1588.52 1032.71 1586.51 1027.53C1584.51 1022.35 1587.07 1016.52 1592.25 1014.5Z"/><path fill="#0E0E10" transform="translate(-1222 -746)" d="M1488.93 1008.52C1494.06 1006.37 1499.96 1008.81 1502.06 1013.96C1504.17 1019.1 1501.68 1024.98 1496.52 1027.04C1491.41 1029.08 1485.62 1026.63 1483.54 1021.54C1481.46 1016.45 1483.86 1010.64 1488.93 1008.52Z"/><path fill="#A196E5" transform="translate(-1222 -746)" d="M1403.28 1016.04L1405.07 1015.92C1407.95 1020.18 1398.03 1075.49 1396.58 1084.47C1391.29 1081.35 1380.13 1074.21 1374.24 1078.78C1374.71 1084.46 1384.88 1090.64 1389.78 1092.75C1419.48 1105.5 1438.69 1124.4 1421.06 1157.98C1415.31 1168.95 1405.23 1173.69 1393.24 1176.51C1385.4 1174.65 1383.13 1173.53 1376.76 1168.62C1375.03 1165.62 1375.06 1165.47 1376.1 1162.63C1381.16 1159.57 1385.65 1162.14 1391.19 1159.6L1391.21 1157.95C1386.54 1151.74 1367.36 1146.44 1359.33 1142.55C1329.01 1127.87 1312.45 1100.58 1330.01 1067.66C1345.47 1038.69 1373.21 1025.65 1403.28 1016.04Z"/><path fill="#F77E61" transform="translate(-1222 -746)" d="M1762.25 926.436C1777.1 925.558 1812.71 969.56 1822.56 980.763C1807.82 996.642 1792.43 1011.9 1776.42 1026.49C1772.81 1023.26 1769.13 1019.51 1765.64 1016.1C1750.41 1001.41 1736.78 988.125 1722.24 972.706C1722.81 965.463 1723.08 957.794 1723.47 950.506C1723.79 950.468 1724.1 950.429 1724.42 950.391L1726 950.173C1732.54 949.322 1741.07 946.843 1744.87 941.011C1745.01 937.834 1745.34 939.361 1743.4 936.406C1735.58 932.866 1734.71 943.097 1726.54 942.873C1723.49 938.772 1725.06 932.276 1725.65 926.974C1737.79 926.925 1750.09 926.632 1762.25 926.436Z"/><path fill="#0E0E10" transform="translate(-1222 -746)" d="M1781.96 951.8C1790.16 954.015 1788.13 962.664 1787.98 969.843C1802.37 981.047 1798.57 984.838 1782.95 988.202C1781.27 994.361 1780.4 1002.2 1772.47 1001.29C1768.87 999.047 1767.84 996.272 1765.73 992.515C1759.73 988.022 1750.2 990.96 1748.58 983.91C1750.11 979.132 1753.07 976.376 1756.36 972.494C1754.39 967.538 1753.05 964.832 1753.96 959.642C1758.62 953.316 1764.44 957.176 1770.34 959.765L1781.96 951.8Z"/><path fill="#FBB44D" transform="translate(-1222 -746)" d="M1779.58 961.842L1780.53 963.076C1781.66 972.813 1781.91 974.168 1790.05 979.879C1779.43 981.589 1780.87 981.461 1774.08 989.9C1771 989.605 1771.57 989.056 1768.83 985.791C1765.1 981.778 1764.4 986.076 1758.72 982.087C1759.33 977.399 1763.75 975.84 1763.53 973.565C1763.2 970.337 1761.34 970.564 1762.43 965.598C1770.05 962.979 1764.76 971.047 1779.58 961.842Z"/><path fill="#A196E5" transform="translate(-1222 -746)" d="M1483.71 1201.49C1502.17 1202.16 1520.63 1202.98 1539.08 1203.95C1538.71 1217.45 1538.59 1257.15 1530.94 1268.58C1528.9 1271.64 1519.35 1272.35 1515.25 1272.84C1505.79 1273.27 1462.81 1277.16 1464.15 1262.22C1469.29 1254.7 1480.81 1250.66 1489.21 1247.88C1486.95 1232.99 1484.12 1216.44 1483.71 1201.49Z"/><path fill="#A196E5" transform="translate(-1222 -746)" d="M1571.04 1204.95C1588.75 1205.12 1608.23 1206.28 1626.06 1206.97C1623.91 1220.42 1622.08 1233.92 1620.58 1247.46C1633.03 1252.3 1643.54 1254.42 1646.68 1268.83C1634.14 1272.37 1588.34 1277.43 1579.23 1268.72C1570.87 1260.72 1571.27 1217.67 1571.04 1204.95Z"/><path fill="#A196E5" transform="translate(-1222 -746)" d="M1557.7 803.383C1560.53 803.534 1563.35 803.749 1566.16 804.027C1622.4 809.961 1622.08 882.715 1616.74 924.21C1618.24 926.896 1622.42 933.243 1619.79 936.08C1610.08 946.556 1595.73 937.801 1607.52 922.695C1609.36 890.162 1614.63 838.476 1580.79 819.259C1573.89 815.338 1566.9 814.118 1559.21 812.7C1505.32 820.659 1502.29 875.666 1501.05 919.533C1516.43 937.77 1491.95 944.078 1487.75 930.546C1487.84 926.457 1489.16 925.521 1491.82 922.065C1491.88 872.274 1496.52 811.041 1557.7 803.383Z"/><path fill="#FEF2E0" transform="translate(-1222 -746)" d="M1582.02 828.017C1600 843.737 1601 868.771 1602.07 890.977L1574.66 890.096L1552.66 889.766C1553.15 884.5 1553.87 879.258 1554.82 874.055C1558.29 854.524 1565.42 839.518 1582.02 828.017Z"/><path fill="#A196E5" transform="translate(-1222 -746)" d="M1692.8 942.712C1701.39 946.408 1707.06 947.827 1716.13 949.625C1715.26 958.881 1715.1 966.031 1714.98 975.344C1719.03 980.65 1724.96 987.022 1729.49 992.147C1730.73 1003.02 1732.7 1014.6 1734.35 1025.47C1732.38 1025.67 1705.14 1013.33 1699.63 1011.49L1692.8 942.712Z"/><path fill="#FEF2E0" transform="translate(-1222 -746)" d="M1550.88 821.016C1551.15 825.026 1537.39 845.038 1535.28 851.79C1530.97 865.649 1529.77 874.776 1528.81 889.072L1510.36 889.072C1508.26 861.576 1524.71 831.41 1550.88 821.016Z"/><path fill="#A196E5" transform="translate(-1222 -746)" d="M1597.36 809.011C1650.64 807.986 1655.23 851.318 1658.96 893.039C1656.71 893.14 1650.87 893.286 1650.52 892.213C1646.18 879.004 1647.2 859.791 1641.62 846.509C1630.87 820.901 1614.9 824.391 1598.51 810.027L1597.36 809.011Z"/><path fill="#FEF2E0" transform="translate(-1222 -746)" d="M1613.72 827.173C1639.02 836.54 1640.45 869.605 1641.51 892.348L1626.37 891.983C1626.11 874.733 1625.75 862.366 1620.13 845.649C1618.55 840.927 1615.29 833.044 1614.15 828.816L1613.72 827.173Z"/><path fill="#A196E5" transform="translate(-1222 -746)" d="M1563.69 820.775C1568.05 821.193 1568.4 821.237 1572.43 822.82C1572.74 823.383 1573.05 823.945 1573.36 824.508C1570.31 827.977 1560.35 837.831 1558.54 841.374C1550.52 857.108 1547.99 872.65 1545.51 889.459C1542.35 889.547 1541.17 889.866 1538.39 888.322C1527.94 874.484 1552.32 832.363 1563.69 820.775Z"/><path fill="#A196E5" transform="translate(-1222 -746)" d="M1748.5 1154.09C1748.94 1154.92 1749.15 1155.22 1749.45 1156.24C1757.75 1183.79 1737.84 1187.68 1715.22 1194.32L1714.16 1193.85C1711.77 1188.63 1723.59 1183.49 1726.09 1175.88C1727.52 1171.49 1727.62 1168.29 1728.11 1163.77C1736.16 1160.5 1740.84 1158.23 1748.5 1154.09Z"/><path fill="#A196E5" transform="translate(-1222 -746)" d="M1689.23 907.467C1700.04 910.876 1710.61 914.992 1720.88 919.788C1718.54 926.913 1717.91 930.642 1716.67 938.093L1716.35 940.392L1714.1 941.256C1706.12 940.363 1699.34 936.689 1692.2 933.184L1689.23 907.467Z"/><path fill="#A196E5" transform="translate(-1222 -746)" d="M1669 903.864C1669.78 903.82 1670.56 903.792 1671.34 903.78C1683.31 903.647 1681.02 916.985 1681.02 925.575C1673.34 917.22 1671.74 914.5 1669 903.864Z"/><path fill="#0E0E10" transform="translate(-1222 -746)" d="M1742.95 812.418C1750.88 814.895 1752.56 829.437 1754.79 837.236C1779.78 851.685 1789.56 847.679 1761.01 862.31C1754.93 865.428 1749.12 883.203 1745.95 890.712C1737.07 888.944 1739.99 878.162 1736.48 872.254C1731.61 864.03 1715.2 860.104 1712.17 850.946C1714.62 842.578 1724.54 844.222 1730.8 837.516C1737.92 829.891 1737.27 821.446 1742.95 812.418Z"/><path fill="#F77E61" transform="translate(-1222 -746)" d="M1743.85 829.702C1745.41 831.273 1746.79 834.036 1748.01 835.989C1754.11 845.746 1756.51 846.804 1766.15 851.494C1753.46 857.376 1750.82 861.105 1745.02 873.055C1743.11 872.071 1737.41 861.482 1733.31 858.149C1729.27 854.866 1728.19 854.289 1723.58 851.611C1735.8 844.383 1737.99 842.446 1743.85 829.702Z"/><path fill="#0E0E10" transform="translate(-1222 -746)" d="M1360.33 901.752C1366.95 902.394 1383.95 904.347 1388.31 909.339C1390.41 911.746 1389.6 913.318 1389.26 916.212C1379.82 915.133 1367.15 915.069 1360.55 908.517C1359.01 904.328 1359.25 906.493 1360.33 901.752Z"/><path fill="#0E0E10" fill-opacity="0.98431373" transform="translate(-1222 -746)" d="M1388.35 940.227C1389.17 940.495 1389.77 941.215 1390.52 941.873L1390.17 944.022C1385.76 949.879 1373.31 954.724 1366.32 957.136C1364.49 956.532 1364.63 956.394 1362.99 955.254L1362.87 953.03C1366.7 946.969 1381.41 942.102 1388.35 940.227Z"/><path fill="#0E0E10" fill-opacity="0.98431373" transform="translate(-1222 -746)" d="M1384.35 861.574C1391.15 863.81 1405.08 878.834 1405.75 885.973C1394.78 886.148 1382.7 871.742 1384.35 861.574Z"/></g></svg>