<?xml version="1.0" encoding="utf-8" ?><svg xmlns="http://www.w3.org/2000/svg" xmlns:xlink="http://www.w3.org/1999/xlink" width="725" height="817" viewBox="0 0 725 817"><clipPath id="cl_18"><rect width="725" height="817"/></clipPath><g clip-path="url(#cl_18)"><path fill="#19181C" transform="translate(-81 -629)" d="M717.423 780.396C719.178 749.089 717.598 716.379 718.586 684.972C718.666 682.415 720.172 681.255 721.903 679.897C725.867 679.725 724.032 679.334 727.602 681.183C731.05 685.395 729.464 713.924 729.385 721.719C729.136 743.953 729.067 766.189 729.18 788.424C736.255 794.75 741.404 799.166 747.09 806.799C745.716 821.371 739.717 834.255 735.091 848.069C731.611 858.46 728.747 869.65 723.913 879.398C722.361 882.528 714.824 882.949 711.543 883.414C712.695 899.78 713.361 908.757 703.102 922.949C699.657 924.604 696.313 926.185 692.984 928.146C677.298 937.384 684.762 959.389 701.851 960.687C720.131 962.076 722.653 940.447 734.136 931.422C736.807 929.323 738.215 929.174 741.389 929.582C758.074 940.837 746.076 968.826 738.93 982.609C747.923 987.285 750.688 988.106 756.578 996.581C756.648 998.092 756.688 999.605 756.697 1001.12C756.85 1031.09 731.008 1077.19 709.458 1097.1C676.585 1127.47 641.185 1142.23 597.079 1142.1C596.722 1144.06 595.654 1150.05 594.551 1151.64C583.464 1167.64 559.106 1195.83 540.122 1201.27C527.661 1204.85 515.15 1189.44 503.699 1182.5L502.4 1181.72C497.314 1183.82 494.387 1185.92 489.847 1188.9C488.819 1194.64 488.193 1200.44 487.708 1206.25C485.308 1234.97 481.995 1263.63 479.589 1292.36C501.695 1287.55 516.145 1288.58 536.988 1298.52C550.782 1305.1 577.907 1347.27 565.407 1356.83C543.916 1373.25 446.364 1372.69 424.69 1355.43C411.673 1345.07 421.4 1264.72 422.585 1245.54C412.313 1245.54 404.518 1245.32 394.232 1244.6C394.815 1265.05 407.982 1349.83 388.454 1358.84C358.904 1372.47 308.153 1368.61 275.776 1366.08C226.313 1362.2 255.457 1318.94 277.405 1301.57C295.363 1288 313.781 1288.79 335.637 1292.69C333.096 1257.53 330.261 1222.39 327.132 1187.28C322.007 1184.89 316.834 1182.59 311.616 1180.4L295.362 1192.74C288.639 1197.54 284.839 1200.97 276.07 1201.2C262.004 1201.56 242.519 1179.7 232.713 1169.56C231.271 1180 231.522 1192.95 231.761 1203.54C237.676 1212.55 268.679 1232.23 252.713 1246.75C246.833 1252.1 243.293 1248.7 237.483 1249.34C236.746 1256.63 240.817 1264.12 239.051 1271.45C234.509 1290.3 218.118 1279.7 212.293 1283.15C198.792 1291.14 199.122 1287.71 186.051 1280.78C187.204 1281.39 170.674 1279.66 169.148 1279.32C159.854 1269.41 156.661 1257.19 154.834 1243.65C148.317 1195.36 157.726 1145.93 185.971 1105.73C195.612 1092.01 210.741 1079.8 220.447 1066.91C205.343 1061.36 187.759 1061.57 177.784 1050.81L176.911 1049.85C176.221 1046.42 175.606 1042.98 175.067 1039.52C172.707 1023.6 170.112 983.826 180.447 970.013C187.3 960.852 209.796 959.061 220.907 957.802C223.185 947.727 232.439 927.677 236.868 917.252C231.337 908.245 217.699 895.726 216.314 885.783C215.264 867.744 236.413 850.319 247.749 839.008C276.74 810.081 284.497 822.392 310.719 842.52C321.98 836.114 340.58 829.39 353.041 825.349C356.551 812.703 356.628 800.893 360.873 787.236C378.183 774.471 427.787 774.903 447.259 783.748C457.239 788.282 457.253 812.894 460.568 823.469C466.043 825.946 501.985 841.739 506.086 839.175C525.933 826.763 531.81 810.209 555.813 830.257C564.104 837.182 571.14 844.372 578.073 851.268C607.945 880.978 600.898 887.952 576.84 915.922C581.443 928.219 589.505 945.113 595.144 957.281C609.415 959.295 632.544 961.188 637.498 977.006C644.527 999.446 649.089 1049.62 621.476 1060.45C612.972 1063.78 594.631 1061.05 590.741 1072.02C591.388 1073.3 591.623 1074.44 592.911 1074.82C615.543 1081.41 654.191 1059.07 654.979 1034.79C655.632 1014.68 650.983 1007.16 661.569 990.609L662.371 989.378C641.315 963.832 633.113 934.466 660.141 907.189C668.774 898.477 692.58 888.022 667.452 880.604C661.15 871.405 643.157 822.25 643.38 809.16C643.526 800.653 653.53 793.535 659.921 787.867C659.937 771.542 657.598 688.327 661.666 679.342C664.999 679.716 664.854 679.602 667.822 681.094C671.449 685.575 670.024 707.793 670.036 714.612C669.984 736.283 670.162 757.954 670.57 779.621C680.778 770.735 682.05 767.207 694.857 761.322C705.366 766.731 709.309 771.762 717.423 780.396Z"/><path fill="#FCB046" transform="translate(-81 -629)" d="M388.184 789.349C399.849 787.734 424.835 787.615 436.222 791.239C453.547 796.248 442.162 828.502 454.825 833.764C469.038 839.476 483.124 844.74 497.174 851.057C513.681 858.479 527.596 825.289 543.222 835.234C556.786 843.867 579.283 865.047 585.846 879.563C591.507 892.083 559.849 908.62 567.408 923.318C573.582 933.789 581.027 959.401 587.591 967.393C592.951 973.919 624.755 965.645 628.098 984.696C631.067 1001.62 631.832 1026.69 626.389 1042.98C622.043 1055.99 591.958 1047.67 585.183 1060.02C578.231 1075.31 572.053 1090.78 564.973 1106.11C571.635 1118.98 582.149 1128.47 587.805 1140.65C582.08 1156.42 565.462 1169.85 554.182 1180.87C535.262 1199.3 528.282 1187.14 511.717 1174.3C499.129 1164.54 488.394 1176.94 475.537 1180.96C470.775 1182.45 457.193 1188.37 453.16 1191.03C443.555 1197.38 450.523 1219.25 442.756 1227.71C437.996 1233.44 433.36 1232.99 426.235 1233.8C413.406 1235.04 390.978 1236.16 378.46 1232.4C360.096 1226.87 369.128 1204.49 363.057 1193.78C362.011 1191.93 360.512 1190.38 358.702 1189.27C349.235 1183.43 325.494 1176.84 314.615 1170.61C305.051 1165.13 283.063 1196.54 272.877 1189.7C258.309 1179.91 239.14 1163.95 230.22 1148.75C219.587 1130.63 251.322 1118.87 246.667 1102.1C240.337 1087.53 234.323 1073.15 228.572 1058.42C224.255 1047.36 193.286 1058.52 187.908 1041.4C182.806 1025.17 182.768 998.755 187.243 982.614C191.33 967.873 214.084 972.11 224.745 968.43C230.633 966.409 233.767 952.105 236.412 946.232C240.039 938.078 243.679 930.373 246.805 922.007C252.327 907.226 222.649 891.993 228.6 879.381C236.996 862.444 256.623 843.484 272.831 834.291C281.173 829.56 301.399 849.324 312.389 853.873C320.272 851.182 336.109 841.794 342.711 840.375C389.075 830.414 344.299 794.342 388.184 789.349Z"/><path fill="#19181C" transform="translate(-81 -629)" d="M394.029 880.569C466.302 873.413 530.723 926.126 538.014 998.385C545.305 1070.64 492.713 1135.16 420.467 1142.59C348.03 1150.04 283.303 1097.27 275.993 1024.82C268.683 952.372 321.565 887.744 394.029 880.569Z"/><path fill="#FDF5E4" transform="translate(-81 -629)" d="M391.732 892.76C457.557 884.331 517.709 930.972 525.939 996.822C534.17 1062.67 487.348 1122.68 421.474 1130.72C355.879 1138.71 296.178 1092.13 287.982 1026.56C279.786 960.994 326.186 901.152 391.732 892.76Z"/><path fill="#19181C" transform="translate(-81 -629)" d="M436.99 1024.76C439.559 1025.47 439.659 1025.85 441.796 1027.55C444.375 1035.65 430.977 1040.62 424.89 1042.47C407.768 1047.68 391.744 1045.37 375.975 1037.12C372.283 1034.37 369.985 1031.5 372.875 1027.27C387.182 1022.77 400.666 1049.38 436.99 1024.76Z"/><path fill="#19181C" transform="translate(-81 -629)" d="M351.839 981.572C358.835 980.383 365.485 985.042 366.758 992.022C368.032 999.003 363.454 1005.71 356.49 1007.07C351.909 1007.96 347.202 1006.32 344.166 1002.78C341.131 999.23 340.236 994.327 341.824 989.938C343.413 985.549 347.238 982.354 351.839 981.572Z"/><path fill="#19181C" transform="translate(-81 -629)" d="M459.26 981.542C466.101 981.31 471.928 986.472 472.523 993.291C473.118 1000.11 468.274 1006.2 461.496 1007.16C456.78 1007.82 452.081 1005.83 449.281 1001.98C446.48 998.125 446.037 993.041 448.127 988.76C450.217 984.48 454.5 981.703 459.26 981.542Z"/><path fill="#FCB046" transform="translate(-81 -629)" d="M683.505 985.823C687.522 986.894 687.914 986.813 690.577 989.768C692.611 999.09 683.067 1002.39 683.295 1008.9C683.414 1012.29 695.01 1029.94 698.681 1031.96L701.431 1031.04C709.308 1023.04 697.52 1013.61 699.229 1004.75C703.27 998.806 712.315 1000.16 719.06 997.287C723.226 995.512 724.372 994.892 728.322 992.447C726.539 998.92 716.748 1018.91 728.819 1018.56C735.718 1014.28 735.58 1003.2 741.098 996.177L742.644 996.327C746.197 1002.59 744.94 1011.17 743.266 1017.84C734.98 1050.89 714.65 1079.07 688.797 1100.63C660.703 1122.45 632.064 1131.39 596.692 1131.42C590.865 1124.15 583.551 1113.51 577.93 1105.78L586.171 1088.74C623.207 1089.95 653.449 1074.36 668.072 1039.07C663.343 1016.57 660.484 998.996 683.505 985.823Z"/><path fill="#FCB046" transform="translate(-81 -629)" d="M476.946 1193.12C479.901 1198.37 470.999 1261.56 471.071 1272.57C471.111 1278.52 464.071 1307.02 474.557 1304.53C515.12 1294.92 549.735 1304.45 556.831 1350.67C544.627 1354.8 534.945 1356.07 522.291 1357.77C506.774 1358.6 490.558 1359.21 475.088 1357.93C461.102 1356.77 427.916 1357.12 427.677 1336.83C427.323 1306.63 431.143 1274.82 433.757 1244.61C460.481 1240.37 457.229 1221.87 460.816 1199.18C466.612 1197.29 471.311 1195.41 476.946 1193.12Z"/><path fill="#FCB046" transform="translate(-81 -629)" d="M337.978 1193.49L353.084 1198.79C356.575 1223.82 353.815 1240.88 382.732 1244.94C385.261 1273.89 388.522 1303.04 389.16 1332.06C389.534 1349.09 377.879 1354.22 363.104 1356.09C340.556 1358.95 318.389 1359.19 295.75 1357.94C281.758 1356.3 273.256 1354.68 259.744 1350.71C260.624 1345.34 261.734 1340.12 263.695 1335.04C267.337 1325.39 273.699 1317.01 282.009 1310.91C309.833 1290.76 335.879 1308.45 346.736 1303.75C348.646 1297.87 339.154 1206.61 337.978 1193.49Z"/><path fill="#FCB046" transform="translate(-81 -629)" d="M223.899 1080.63C226.053 1081.87 233.864 1100.93 236.037 1105.45C220.202 1126.86 206.08 1136.87 224.78 1161.23C220.237 1177.73 219.076 1196.78 223.826 1213.36C229.663 1217.73 248.561 1230.65 245.086 1239.04C237.004 1239.55 230.162 1229.8 222.444 1233.87C217.905 1242.8 234.841 1262.45 225.518 1272.3C209.576 1276.8 213.124 1247.01 202.192 1243.98C199.085 1244.82 198.465 1245.91 196.4 1248.18C197.62 1255.88 203.929 1272.59 202.471 1275.66C188.801 1277.78 190.381 1253.96 184.094 1246.54C181.205 1245.47 181.359 1245.28 178.456 1246.12C173.774 1253.21 179.479 1260.03 178.153 1269.03L176.634 1269.99C164.08 1266.9 163.838 1221.23 164.031 1210.47C165.028 1155.06 184.585 1118.25 223.899 1080.63Z"/><path fill="#7ABBF8" transform="translate(-81 -629)" d="M694.426 773.564C702.02 778.796 729.671 803.383 736.858 810.215C733.137 824.884 721.294 856.763 715.913 872.957L696.895 872.939L673.618 872.99C666.982 857.751 657.435 826.493 652.352 810.218C662.799 799.461 682.721 783.496 694.426 773.564Z"/><path fill="#FDF5E4" transform="translate(-81 -629)" d="M692.625 809.667C695.629 808.847 698.84 809.735 700.994 811.982C703.149 814.229 703.903 817.474 702.958 820.44C702.014 823.406 699.522 825.618 696.465 826.205C691.982 827.066 687.62 824.231 686.588 819.784C685.555 815.337 688.222 810.87 692.625 809.667Z"/><path fill="#7ABBF8" transform="translate(-81 -629)" d="M689.935 884.823C691.997 884.561 698.669 884.063 700.014 883.781C701.764 891.506 701.172 905.554 696.801 912.248C693.107 917.906 681.645 921.488 678.151 927.874C664.079 953.604 685.462 977.702 712.93 970.821C731.586 962.053 728.496 955.07 737.887 939.618C738.21 956.808 737.176 974.495 719.896 983.708C718.074 985.099 711.904 988.318 709.702 988.979C702.27 991.209 699.022 978.746 690.812 976.305C682.527 973.843 677.071 976.788 669.848 980.166C649.139 962.256 647.175 932.134 668.775 913.097C673.202 909.195 682.473 907.745 686.144 902.211C689.991 896.411 687.057 890.836 689.935 884.823Z"/><path fill="#6CB6F7" transform="translate(-81 -629)" d="M689.935 884.823C691.997 884.561 698.669 884.063 700.014 883.781L696.451 885.469C699.684 889.113 699.557 899.357 696.552 903.041L694.839 902.46C688.032 895.42 691.333 894.971 690.177 886.493L689.935 884.823Z"/><path fill="#FCB046" transform="translate(-81 -629)" d="M173.263 785.493C179.404 789.088 178.782 802.085 185.389 808.607C192.442 815.57 199.655 817.979 208.325 822.583L208.536 824.184C204.881 827.592 197.214 828.639 191.848 831.621C181.29 837.489 178.932 849.9 175.931 860.889C165.987 855.945 168.929 841.052 160.379 834.032C156.171 830.577 140.874 827.72 139.85 822.691C143.757 819.295 148.829 819.681 152.94 817.477C164.982 811.019 169.018 797.13 173.263 785.493Z"/><path fill="#FCB046" transform="translate(-81 -629)" d="M617.029 1219.2C625.512 1222.36 624.333 1233.87 629.595 1241.13C634.591 1248.03 649.939 1249.95 653.757 1256.06C651.701 1261.68 643.154 1260.88 637.374 1264.18C627.048 1270.07 624.595 1283.03 621.74 1293.56C613.851 1290.82 615.345 1277.72 610.447 1270.97C606.012 1264.85 588.101 1260.37 585.049 1254.94C588.972 1251.62 593.299 1253.2 599.326 1249.43C611.637 1241.71 613.982 1232.24 617.029 1219.2Z"/><path fill="#FCB046" transform="translate(-81 -629)" d="M677.102 1169.56C683.324 1172.95 681.975 1182.22 687.182 1186.81C690.793 1189.99 699.295 1188.86 700.452 1194.29C690.804 1205.18 682.124 1194.12 679.747 1218.7C673.865 1216.22 675.2 1208.17 671.619 1203.86C668.285 1199.85 660.019 1199.01 657.146 1194.84C662.179 1185.71 669.11 1196.44 677.102 1169.56Z"/><path fill="#FCB046" transform="translate(-81 -629)" d="M232.34 737.693C235.087 739.982 238.382 748.735 240.533 752.833C245.098 755.419 252.105 758.275 257.101 760.477C240.36 768.197 240.558 767.369 233.253 784.482C229.377 781.229 228.833 776.897 226.836 771.489C220.898 766.237 215.576 764.877 208.158 762.174C214.069 758.966 218.895 757.206 225.064 753.602C228.033 748.192 228.734 743.705 232.34 737.693Z"/></g></svg>