<?xml version="1.0" encoding="utf-8" ?><svg xmlns="http://www.w3.org/2000/svg" xmlns:xlink="http://www.w3.org/1999/xlink" width="653" height="573" viewBox="0 0 653 573"><clipPath id="sectors-real-estate-cl_28"><rect width="653" height="573"/></clipPath><g clip-path="url(#sectors-real-estate-cl_28)"><path fill="#040202" transform="translate(-1395 -1024)" d="M1701.48 1081.5C1735.29 1081.18 1769.74 1080.86 1803.58 1081.72C1809.16 1082.54 1824.67 1080.55 1825.35 1088.77C1826.55 1103.37 1827.63 1110.84 1813.14 1115.01C1812.66 1115.62 1812.17 1116.24 1811.69 1116.85C1811.45 1128.62 1811.42 1143.87 1811.38 1155.3L1811.53 1309.21C1824.6 1304.47 1841.14 1298.67 1846.44 1284.72C1852.77 1268.06 1849 1262.1 1867.43 1254.55L1868.11 1239.81C1847.43 1227.01 1835.34 1211.48 1840.55 1185.68C1843.2 1173.66 1849.49 1163.62 1859.84 1156.89C1907.56 1125.87 1954.54 1190 1915.9 1228.8C1911.15 1233.56 1906.66 1235.77 1900.92 1238.98C1900.66 1251.31 1900.76 1264.02 1900.71 1276.38C1908.43 1277.32 1917.92 1277.49 1922.2 1285.39C1923.9 1296.54 1908.23 1301.5 1900.6 1304.53C1907.54 1305.37 1920.72 1305.4 1922.03 1313.86C1923.94 1326.15 1919.42 1328.59 1908.45 1329.88C1902.23 1330.62 1899.7 1333.86 1896.44 1338.86L1895.5 1340.31C1891.85 1345.9 1883.93 1354 1876.94 1347.01C1869.25 1339.31 1868.74 1329.84 1868.37 1319.58C1851.66 1335.76 1833.39 1342.29 1811.54 1348.31C1811.61 1365.83 1812.98 1428.95 1807.76 1440.2C1801.2 1446.25 1776.88 1444.04 1767.21 1443.85L1767.65 1466.86C1769.41 1466.29 1771.19 1465.76 1772.98 1465.27C1801.76 1457.29 1825.22 1469.67 1838.3 1495.53C1841.39 1501.65 1845.35 1512.32 1840.67 1518.4C1837.23 1522.87 1822.17 1522.67 1816.53 1523C1793.07 1524.37 1748.88 1525.05 1726.8 1519.11C1722.36 1498.16 1725.9 1465.7 1727.16 1443.49C1710.35 1443.49 1693.55 1443.27 1676.75 1442.82C1677.67 1458.17 1682.7 1507.49 1676.28 1518C1661.57 1527.38 1610.8 1521.41 1592.47 1523.19C1546.43 1527.66 1561.12 1495.95 1581.67 1474.28C1595.37 1459.84 1616.64 1462.01 1635.2 1467.37C1635.98 1459.67 1636.19 1451.82 1636.5 1444.09C1628.45 1443.87 1600.3 1446.74 1596.11 1440.05C1589.1 1428.84 1596.25 1359.72 1592.66 1353.65C1585.2 1355.56 1575.49 1381.09 1572.96 1388.21C1585.1 1406.05 1593.87 1414.62 1565.34 1420.7C1546.15 1447.25 1515.79 1439.27 1515.07 1405.84C1514.83 1394.74 1525.36 1384.78 1533.58 1377.92L1534.16 1376.09C1544.86 1342.58 1562.71 1324.17 1593.93 1308.14L1593.9 1113.95C1590.54 1113.26 1584.42 1112.26 1581.96 1110.15C1574.57 1103.82 1575.05 1082.61 1587.4 1081.95C1600.7 1081.23 1614.01 1081.6 1627.21 1081.63L1701.48 1081.5ZM1886.44 1187.93C1889.94 1186.97 1892.01 1183.36 1891.08 1179.85C1890.15 1176.34 1886.57 1174.24 1883.05 1175.13C1880.74 1175.72 1878.93 1177.5 1878.3 1179.8C1877.66 1182.09 1878.32 1184.55 1880 1186.24C1881.69 1187.92 1884.15 1188.57 1886.44 1187.93Z"/><path fill="#F17A5D" transform="translate(-1395 -1024)" d="M1636.29 1112.5C1692.2 1112.18 1748.1 1112.3 1804 1112.83L1804 1436C1794.47 1436.04 1742.43 1437.6 1731.82 1434.36C1728.2 1433.26 1729.36 1414.38 1729.72 1408.25L1730.27 1395.66C1730.99 1377.26 1730.33 1367.78 1709.16 1369.49C1698.44 1370.36 1686.19 1370.69 1675.37 1371.01C1673.03 1388.45 1673.98 1417.56 1674.07 1436L1600.97 1436C1600.23 1328.31 1600.23 1220.62 1600.94 1112.93L1636.29 1112.5Z"/><path fill="#040202" transform="translate(-1395 -1024)" d="M1682.34 1212.11C1691.45 1211.9 1715.45 1210.15 1721.86 1214.52C1726.78 1224.36 1725.13 1262.43 1722.13 1273.9C1709.8 1274.18 1693.6 1275.04 1681.81 1272.64C1679.76 1261.06 1677.9 1221.86 1682.34 1212.11Z"/><path fill="#75B7F6" transform="translate(-1395 -1024)" d="M1687.17 1219.9L1717.43 1219.85L1717.22 1266.99L1687.1 1267.01L1687.17 1219.9Z"/><path fill="#040202" transform="translate(-1395 -1024)" d="M1622.13 1212.25C1630.47 1212.01 1656.23 1209.9 1661.83 1214.89C1666.52 1224.98 1665.42 1262.37 1661.84 1273.78C1649.27 1274.16 1635.18 1274.62 1622.72 1273.46C1618.42 1258.51 1618.17 1227.28 1622.13 1212.25Z"/><path fill="#75B7F6" transform="translate(-1395 -1024)" d="M1626.93 1219.84L1657.07 1219.84L1657.07 1267L1627 1266.86L1626.93 1219.84Z"/><path fill="#040202" transform="translate(-1395 -1024)" d="M1742.73 1212.22C1756.47 1211.87 1769.44 1211.23 1783.08 1213.42C1785.77 1224.84 1786.56 1262.46 1782.64 1273.89C1772.59 1274.18 1751.61 1276.01 1743.57 1271.78C1737.9 1262.88 1740.27 1223.55 1742.73 1212.22Z"/><path fill="#75B7F6" transform="translate(-1395 -1024)" d="M1747.66 1219.71L1777.92 1219.59L1777.8 1266.83L1747.73 1266.89L1747.66 1219.71Z"/><path fill="#040202" transform="translate(-1395 -1024)" d="M1621.83 1133.08C1634.42 1132.75 1648.99 1132.1 1661.28 1133.86C1666.74 1149.76 1665.25 1177.65 1662.57 1194.06C1648.82 1194.46 1635.36 1195.16 1621.7 1193.11C1618.41 1176.23 1618.42 1149.92 1621.83 1133.08Z"/><path fill="#75B7F6" transform="translate(-1395 -1024)" d="M1627.01 1140.13L1657.02 1140.22L1656.98 1187.31L1626.87 1187.2L1627.01 1140.13Z"/><path fill="#040202" transform="translate(-1395 -1024)" d="M1682.69 1133.05C1695.39 1132.78 1710.31 1131.98 1722.58 1134.44C1725.62 1151.04 1726.09 1177.67 1722.22 1194.09C1714.7 1194.2 1694.31 1195.63 1688.55 1194.65C1674.42 1192.23 1680 1141.72 1682.69 1133.05Z"/><path fill="#75B7F6" transform="translate(-1395 -1024)" d="M1687.07 1140.07L1717.16 1140.07C1717.39 1155.95 1717.31 1171.82 1716.9 1187.69C1706.99 1187.23 1697.55 1187.71 1687.17 1187.04L1687.07 1140.07Z"/><path fill="#040202" transform="translate(-1395 -1024)" d="M1742.77 1133.04C1750.04 1132.83 1778.94 1130.93 1781.9 1135.44C1787.46 1143.92 1784.76 1185.41 1783.32 1194.07C1769.5 1194.48 1756.48 1195.06 1742.7 1193.23C1739.32 1175.93 1739.02 1150.27 1742.77 1133.04Z"/><path fill="#75B7F6" transform="translate(-1395 -1024)" d="M1747.82 1140.14L1777.85 1140.1L1777.7 1187.04L1747.5 1187.37L1747.82 1140.14Z"/><path fill="#040202" transform="translate(-1395 -1024)" d="M1685.8 1329.27C1693.49 1331.25 1691.78 1334.19 1697.12 1338.3C1706.37 1345.4 1710.63 1332.01 1716.94 1330.71C1719.44 1332.62 1718.69 1332.28 1719.76 1336.07C1706.99 1351.72 1687.21 1352.64 1685.8 1329.27Z"/><path fill="#040202" transform="translate(-1395 -1024)" d="M1666.27 1304.54C1668.86 1303.21 1671.95 1303.37 1674.39 1304.96C1676.82 1306.55 1678.2 1309.33 1678.02 1312.23C1677.83 1315.13 1676.1 1317.7 1673.48 1318.97C1669.51 1320.89 1664.73 1319.26 1662.76 1315.31C1660.79 1311.37 1662.35 1306.57 1666.27 1304.54Z"/><path fill="#040202" transform="translate(-1395 -1024)" d="M1730.5 1304.52C1734.33 1302.48 1739.09 1303.88 1741.19 1307.68C1743.3 1311.48 1741.97 1316.26 1738.21 1318.42C1735.72 1319.85 1732.65 1319.83 1730.19 1318.37C1727.72 1316.9 1726.23 1314.22 1726.3 1311.35C1726.36 1308.48 1727.97 1305.87 1730.5 1304.52Z"/><path fill="#FBB148" transform="translate(-1395 -1024)" d="M1878.79 1157.1C1907.77 1156.64 1929.39 1175.33 1921.7 1206.53C1918.21 1220.71 1906.29 1227.6 1894.15 1233.84C1893.96 1250.48 1894.17 1267.11 1894.78 1283.73C1900.29 1283.49 1913.94 1282.07 1915.06 1290.22C1911.63 1295.32 1898.78 1293.55 1894.9 1296.72C1893.34 1301.68 1893.93 1307.49 1894.05 1312.82C1900.8 1313.04 1914.58 1313.48 1916.08 1321.81C1912.62 1324.04 1910.6 1323.58 1906.24 1323.87L1904.75 1323.91C1887.04 1324.22 1896.42 1338.11 1884.03 1342.06C1870.85 1336.61 1875.21 1294.73 1875.5 1283.13C1891.13 1273.14 1890.64 1265.68 1875.35 1256.12L1875 1233.72C1863.01 1228.34 1853.35 1222.02 1848.27 1209.16C1844.54 1199.66 1844.98 1189.03 1849.46 1179.87C1855.81 1166.92 1866.06 1161.54 1878.79 1157.1ZM1886.44 1187.93C1889.94 1186.97 1892.01 1183.36 1891.08 1179.85C1890.15 1176.34 1886.57 1174.24 1883.05 1175.13C1880.74 1175.72 1878.93 1177.5 1878.3 1179.8C1877.66 1182.09 1878.32 1184.55 1880 1186.24C1881.69 1187.92 1884.15 1188.57 1886.44 1187.93Z"/><path fill="#040202" transform="translate(-1395 -1024)" d="M1880.31 1167.53C1885.3 1165.98 1890.73 1167.23 1894.53 1170.81C1898.33 1174.39 1899.91 1179.73 1898.67 1184.8C1897.43 1189.87 1893.56 1193.88 1888.54 1195.29C1880.91 1197.44 1872.97 1193.06 1870.72 1185.47C1868.47 1177.87 1872.75 1169.88 1880.31 1167.53ZM1886.44 1187.93C1889.94 1186.97 1892.01 1183.36 1891.08 1179.85C1890.15 1176.34 1886.57 1174.24 1883.05 1175.13C1880.74 1175.72 1878.93 1177.5 1878.3 1179.8C1877.66 1182.09 1878.32 1184.55 1880 1186.24C1881.69 1187.92 1884.15 1188.57 1886.44 1187.93Z"/><path fill="#FDF4E7" fill-opacity="0.011764706" transform="translate(-1395 -1024)" d="M1883.05 1175.13C1886.57 1174.24 1890.15 1176.34 1891.08 1179.85C1892.01 1183.36 1889.94 1186.97 1886.44 1187.93C1884.15 1188.57 1881.69 1187.92 1880 1186.24C1878.32 1184.55 1877.66 1182.09 1878.3 1179.8C1878.93 1177.5 1880.74 1175.72 1883.05 1175.13Z"/><path fill="#F17A5D" transform="translate(-1395 -1024)" d="M1644.58 1443.85L1670.08 1443.7C1671.53 1466.6 1671.77 1491.81 1672.25 1514.88C1643.9 1515.18 1616.28 1516.09 1587.75 1516.07C1583.2 1516.08 1572.32 1516.68 1570.45 1512.62C1564.16 1497.86 1586.93 1478.75 1598.31 1473.09C1612.64 1465.98 1627.66 1473.27 1641.65 1478.62L1644.58 1443.85Z"/><path fill="#F17A5D" transform="translate(-1395 -1024)" d="M1735.03 1443.83L1758.68 1443.83C1760.42 1453.96 1761.58 1468.3 1762.71 1478.85C1797.64 1463.94 1828.43 1470.15 1834.74 1512.73C1834.7 1512.79 1834.67 1512.85 1834.62 1512.9C1827.32 1519.16 1746.21 1515.37 1731.83 1514.96C1731.57 1492.47 1732.98 1466.27 1735.03 1443.83Z"/><path fill="#F17A5D" transform="translate(-1395 -1024)" d="M1586.16 1089.16L1817.93 1089.16C1818.01 1094.87 1817.83 1099.82 1817.57 1105.51L1586.16 1105.51L1586.16 1089.16Z"/><path fill="#F17A5D" transform="translate(-1395 -1024)" d="M1590.39 1318.81C1591.92 1318.87 1591.1 1318.64 1592.66 1320.02C1593.79 1326.51 1593.37 1335.72 1593.3 1342.52C1575.25 1359.06 1572.57 1367.35 1565.22 1390.19L1566.45 1391.55C1570.2 1395.7 1580.9 1407.51 1574.16 1412.14C1569.44 1412.52 1566.62 1411.16 1562.11 1409.67C1551.57 1423.26 1559.86 1426.78 1538.91 1430.59C1510.72 1417.1 1519.56 1397.29 1540.32 1381.52C1548.99 1350.71 1563.46 1334.81 1590.39 1318.81Z"/><path fill="#75B7F6" transform="translate(-1395 -1024)" d="M1681.83 1377.7L1722.83 1377.83L1722.7 1435.91C1709.75 1436.33 1694.94 1436.03 1681.83 1436.07L1681.83 1377.7Z"/><path fill="#F17A5D" transform="translate(-1395 -1024)" d="M1865.73 1264.03C1870.44 1263.69 1877.22 1262.99 1878.83 1268.18C1875.28 1274.98 1871.27 1274.98 1864.33 1277.53C1869.32 1289.93 1868.61 1295.89 1868.09 1309.06C1856.33 1324.27 1841.88 1331.04 1824.25 1337.37C1820.12 1338.8 1815.43 1339.8 1811.16 1340.84C1812.09 1333.45 1811.9 1325.02 1811.93 1317.48C1830.63 1312.06 1848.07 1303.77 1854.38 1283.36C1857.38 1273.65 1856 1268.38 1865.73 1264.03Z"/><path fill="#040202" fill-opacity="0.98823529" transform="translate(-1395 -1024)" d="M1535.36 1172.48C1543.8 1177.62 1540.89 1190.23 1547.58 1197.91C1553.54 1204.76 1564.77 1204.99 1570.24 1209.65L1570.35 1211.28C1566.68 1215.19 1559.06 1216.05 1553.45 1219.9C1543 1227.08 1541.61 1237.29 1538.98 1248.83C1530.39 1245.76 1532.53 1229.59 1526.36 1223C1522.25 1218.61 1506.87 1214.61 1502.87 1210.55C1506.47 1206.93 1517.78 1203.45 1522.5 1200.72C1531.89 1195.29 1532.6 1182.2 1535.36 1172.48Z"/><path fill="#FBB148" transform="translate(-1395 -1024)" d="M1536.32 1190.43C1543.34 1195.02 1537.59 1201.43 1557.08 1210.58C1545.01 1217.68 1543.23 1220.02 1537.26 1232.25C1527.43 1222.73 1533.66 1219.82 1517.05 1210.9C1528.88 1204.48 1531.1 1202.78 1536.32 1190.43Z"/></g></svg>