<?xml version="1.0" encoding="utf-8" ?><svg xmlns="http://www.w3.org/2000/svg" xmlns:xlink="http://www.w3.org/1999/xlink" width="378" height="372" viewBox="0 0 378 372"><clipPath id="cl_b"><rect x="-0.00015258789" y="0.0025024414" width="377.6666" height="371.90558"/></clipPath><g clip-path="url(#cl_b)"><path fill="#10121A" transform="matrix(0.640113 0 0 0.640113 -461.521 -455.758)" d="M1026.37 809.567C1078.9 805.475 1187.71 813.454 1218.32 864.563C1224.12 874.225 1221.48 886.636 1222.24 896.569C1225.39 937.981 1216.35 950.834 1178.51 969.585C1218.97 993.224 1223.09 998.837 1222.54 1044.94C1222.11 1080.89 1214.86 1088.27 1184.08 1106.25C1186.86 1112.28 1189.66 1120.86 1189.51 1127.38C1188.98 1151.36 1195.27 1174.09 1178.01 1193.33C1150.77 1223.66 1089.55 1234.97 1051.24 1237.85C1037.45 1238.42 1023.65 1238.61 1009.85 1238.44C966.667 1237.88 854.554 1229.44 840.066 1173.28C837.622 1163.8 839.201 1134.25 839.457 1122.52C824.14 1101.44 830.089 1092.93 829.037 1068.52C828.056 1045.74 831.2 1042.29 845.454 1025.29C819.378 1003.05 826.301 992.424 824.969 962.041C823.527 929.153 842.66 911.88 872.027 900.872C871.882 882.023 870.088 868.167 884.575 853.165C915.362 821.286 983.601 811.509 1026.37 809.567Z"/><path fill="#FCB652" transform="matrix(0.640113 0 0 0.640113 -461.521 -455.758)" d="M969.304 827.444C971.781 823.775 978.214 821.719 982.351 821.923C992.451 822.418 1022.48 815.528 1030.12 820.651C1084.36 819.195 1157.3 823.586 1200.93 859.452C1213.99 870.187 1213.83 887.771 1199.86 898.247C1149.24 936.218 1073.73 937.449 1012.91 934.634C974.15 932.446 918.489 921.29 890.61 893.443C876.58 879.429 889.294 862.525 902.35 853.35C923.041 838.807 945.585 834.5 969.304 827.444Z"/><path fill="#0E131E" transform="matrix(0.640113 0 0 0.640113 -461.521 -455.758)" d="M969.304 827.444C971.781 823.775 978.214 821.719 982.351 821.923C992.451 822.418 1022.48 815.528 1030.12 820.651C1009.72 821.602 989.408 823.872 969.304 827.444Z"/><path fill="#0E131E" transform="matrix(0.640113 0 0 0.640113 -461.521 -455.758)" d="M1028.64 836.424C1061.4 832.908 1119.09 839.458 1148.05 857.398C1159.19 864.305 1167.14 880.892 1156.65 891.703C1136.31 912.669 1095.37 917.324 1068.1 919.221C1033.37 923.126 976.503 917.666 946.444 898.412C935.477 891.388 927.989 875.295 938.212 864.626C958.696 843.247 1000.59 838.542 1028.64 836.424Z"/><path fill="#FCB652" transform="matrix(0.640113 0 0 0.640113 -461.521 -455.758)" d="M1035.67 846.445C1068.18 845.209 1115.16 846.797 1142.46 864.539C1169.74 882.265 1135.07 897.485 1119.04 901.572C1098.59 906.786 1083.7 909.133 1062.79 910.136C1027.66 911.501 983.168 909.091 952.241 890.526C945.354 886.391 939.448 875.685 946.811 869.592C969.473 850.841 1007.69 847.924 1035.67 846.445Z"/><path fill="#FCB652" transform="matrix(0.640113 0 0 0.640113 -461.521 -455.758)" d="M850.299 1151.52C852.783 1152.85 855.724 1155.65 858.175 1157.36C930.114 1207.66 1111.76 1209.25 1177.95 1151.1C1177.99 1161.62 1179.44 1171.49 1174.71 1180.67C1129.03 1243.73 916.914 1240.86 860.199 1187.55C849.08 1177.1 850.299 1165.02 850.299 1151.52Z"/><path fill="#FCB652" transform="matrix(0.640113 0 0 0.640113 -461.521 -455.758)" d="M837.081 974.38C839.563 975.561 846.197 980.712 849.217 982.69C861.59 990.794 871.683 995.858 885.892 1000.2C960.544 1023 1052.43 1023 1126.09 996.446C1140.05 991.416 1150.77 982.188 1163.25 975.842L1164.28 975.331C1164.29 986.3 1165.32 994.321 1160.59 1004.21C1114.57 1064.97 902.735 1062.36 846.884 1010.66C835.06 999.714 836.963 988.466 837.081 974.38Z"/><path fill="#FCB652" transform="matrix(0.640113 0 0 0.640113 -461.521 -455.758)" d="M884.216 904.563C892.372 909.531 899.347 916.278 908.661 920.793C987.265 958.903 1142.86 960.142 1211.1 904.357C1211.14 915.033 1212.03 922.896 1208.13 932.936C1167.41 996.118 945.981 993.774 893.395 940.816C882.441 929.784 883.995 918.248 884.216 904.563Z"/><path fill="#FCB652" transform="matrix(0.640113 0 0 0.640113 -461.521 -455.758)" d="M1210.09 1043.93C1215.41 1050.77 1208.47 1073.98 1200.8 1080.48C1138.39 1133.39 946.073 1133.59 889.57 1075.88C882.534 1065.79 883.863 1057.11 883.918 1045.06C893.298 1049.93 901.854 1057.35 911.851 1061.88C987.185 1095.97 1145.62 1098.77 1210.09 1043.93Z"/><path fill="#FCB652" transform="matrix(0.640113 0 0 0.640113 -461.521 -455.758)" d="M840.863 1079.65C874.829 1113.11 949.178 1121.01 995.494 1127.8C1046.75 1135.32 1109.53 1130.68 1159.08 1115.75C1152.86 1121.36 1149.88 1123.46 1142.84 1128.02C1109.74 1147.34 1048.66 1156.62 1008.8 1156.75C962.143 1156.9 886.414 1148.72 850.019 1116.83C839.294 1107.43 840.8 1092.73 840.863 1079.65Z"/><path fill="#FCB652" transform="matrix(0.640113 0 0 0.640113 -461.521 -455.758)" d="M872.286 913.419L872.266 914.952C872.223 928.777 875.278 940.236 885.848 949.882C924.413 985.077 1007.28 992.863 1057.4 992.032C1048.33 988.413 1044.59 990.642 1035.96 988.677C1041.1 986.913 1059.02 988.984 1064.9 987.255C1070.12 985.718 1072.57 986.901 1077.89 988.308L1073.99 987.792C1078.32 989.584 1082.63 989.708 1087.32 990.224L1088.26 990.332C1091.7 990.842 1094.9 991.112 1097.93 992.961C1042.36 1010.08 953.375 1008.42 897.543 991.683C879.648 986.054 849.402 975.513 840.049 957.826C829.031 936.991 857.308 920.867 872.286 913.419Z"/><path fill="#0E131E" transform="matrix(0.640113 0 0 0.640113 -461.521 -455.758)" d="M1057.4 992.032C1048.33 988.413 1044.59 990.642 1035.96 988.677C1041.1 986.913 1059.02 988.984 1064.9 987.255C1070.12 985.718 1072.57 986.901 1077.89 988.308L1073.99 987.792C1078.32 989.584 1082.63 989.708 1087.32 990.224C1078.9 991.18 1065.88 992.135 1057.4 992.032Z"/><path fill="#FCB652" transform="matrix(0.640113 0 0 0.640113 -461.521 -455.758)" d="M1176.29 982.364C1257.45 1022.93 1177.29 1056.92 1130.56 1066.43C1073.53 1078.04 1007.05 1079.05 950.645 1063.06C955.211 1062.04 955.501 1061.84 959.633 1059.51C998.818 1062.82 1038.86 1062.14 1077.96 1054.21C1109.69 1047.78 1164.42 1034.85 1175.13 998.039C1176.4 993.673 1176.28 987.037 1176.29 982.364Z"/><path fill="#FCB652" transform="matrix(0.640113 0 0 0.640113 -461.521 -455.758)" d="M873.269 1145.27C891.813 1151.21 907.941 1157.84 928.086 1161.36C996.567 1173.31 1080.23 1170.95 1143.69 1140.57C1157.15 1134.12 1166.48 1125.94 1173.99 1113.45C1177.34 1121.44 1178.81 1124.76 1175.44 1133.56C1170.12 1147.43 1146.53 1159.66 1132.65 1164.44C1058.97 1189.84 959.533 1190.27 887.045 1160.65C881.587 1158.42 872.403 1153.19 867.836 1149.82C861.389 1145.56 856.961 1140.38 852.141 1134.47L873.269 1145.27Z"/><path fill="#EDBE78" transform="matrix(0.640113 0 0 0.640113 -461.521 -455.758)" d="M852.141 1134.47L873.269 1145.27L866.845 1144.38L865.566 1145.36C866.317 1147.72 866.434 1147.73 867.836 1149.82C861.389 1145.56 856.961 1140.38 852.141 1134.47Z"/><path fill="#FCB652" transform="matrix(0.640113 0 0 0.640113 -461.521 -455.758)" d="M856.338 1032.31C861.401 1035.18 867.123 1037.88 872.362 1040.49C871.821 1055.96 870.614 1064.66 877.454 1079.01C883.66 1086.81 886.716 1089.9 894.284 1096.48C885.135 1093.4 869.794 1087.64 862.094 1081.73C852.176 1076.98 840.526 1066.03 841.707 1053.99C842.724 1043.62 848.912 1038.48 856.338 1032.31Z"/><path fill="#EDBE78" transform="matrix(0.640113 0 0 0.640113 -461.521 -455.758)" d="M881.461 1089.27L876.82 1080.56L877.454 1079.01C883.66 1086.81 886.716 1089.9 894.284 1096.48C885.135 1093.4 869.794 1087.64 862.094 1081.73C866.202 1082.19 876.289 1087.31 881.461 1089.27Z"/><path fill="#EDBE78" transform="matrix(0.640113 0 0 0.640113 -461.521 -455.758)" d="M925.856 1055.27L959.633 1059.51C955.501 1061.84 955.211 1062.04 950.645 1063.06C941.268 1060.6 934.961 1058.61 925.856 1055.27Z"/><path fill="#EDBE78" transform="matrix(0.640113 0 0 0.640113 -461.521 -455.758)" d="M1088.26 990.332C1097.86 989.269 1107.44 988.136 1117.02 986.932C1110.55 989.22 1104.64 991.455 1097.93 992.961C1094.9 991.112 1091.7 990.842 1088.26 990.332Z"/></g></svg>